G04 #@! TF.GenerationSoftware,KiCad,Pcbnew,8.0.6*
G04 #@! TF.CreationDate,2025-01-09T21:15:17-05:00*
G04 #@! TF.ProjectId,GW4302,47573433-3032-42e6-9b69-6361645f7063,1.0*
G04 #@! TF.SameCoordinates,Original*
G04 #@! TF.FileFunction,Legend,Bot*
G04 #@! TF.FilePolarity,Positive*
%FSLAX46Y46*%
G04 Gerber Fmt 4.6, Leading zero omitted, Abs format (unit mm)*
G04 Created by KiCad (PCBNEW 8.0.6) date 2025-01-09 21:15:17*
%MOMM*%
%LPD*%
G01*
G04 APERTURE LIST*
G04 Aperture macros list*
%AMRoundRect*
0 Rectangle with rounded corners*
0 $1 Rounding radius*
0 $2 $3 $4 $5 $6 $7 $8 $9 X,Y pos of 4 corners*
0 Add a 4 corners polygon primitive as box body*
4,1,4,$2,$3,$4,$5,$6,$7,$8,$9,$2,$3,0*
0 Add four circle primitives for the rounded corners*
1,1,$1+$1,$2,$3*
1,1,$1+$1,$4,$5*
1,1,$1+$1,$6,$7*
1,1,$1+$1,$8,$9*
0 Add four rect primitives between the rounded corners*
20,1,$1+$1,$2,$3,$4,$5,0*
20,1,$1+$1,$4,$5,$6,$7,0*
20,1,$1+$1,$6,$7,$8,$9,0*
20,1,$1+$1,$8,$9,$2,$3,0*%
G04 Aperture macros list end*
%ADD10C,0.203200*%
%ADD11C,0.000000*%
%ADD12C,2.152400*%
%ADD13C,1.448000*%
%ADD14C,2.527300*%
%ADD15C,1.143000*%
%ADD16RoundRect,0.222578X0.528622X0.528622X-0.528622X0.528622X-0.528622X-0.528622X0.528622X-0.528622X0*%
%ADD17O,1.502400X1.502400*%
%ADD18RoundRect,0.419100X0.419100X3.327100X-0.419100X3.327100X-0.419100X-3.327100X0.419100X-3.327100X0*%
G04 APERTURE END LIST*
D10*
X137619618Y-88301120D02*
X137232570Y-88301120D01*
X137474475Y-87962453D02*
X137474475Y-88833311D01*
X137474475Y-88833311D02*
X137426094Y-88930073D01*
X137426094Y-88930073D02*
X137329332Y-88978453D01*
X137329332Y-88978453D02*
X137232570Y-88978453D01*
X136893904Y-88978453D02*
X136893904Y-87962453D01*
X136458475Y-88978453D02*
X136458475Y-88446263D01*
X136458475Y-88446263D02*
X136506856Y-88349501D01*
X136506856Y-88349501D02*
X136603618Y-88301120D01*
X136603618Y-88301120D02*
X136748761Y-88301120D01*
X136748761Y-88301120D02*
X136845523Y-88349501D01*
X136845523Y-88349501D02*
X136893904Y-88397882D01*
X135974666Y-88978453D02*
X135974666Y-88301120D01*
X135974666Y-87962453D02*
X136023047Y-88010834D01*
X136023047Y-88010834D02*
X135974666Y-88059215D01*
X135974666Y-88059215D02*
X135926285Y-88010834D01*
X135926285Y-88010834D02*
X135974666Y-87962453D01*
X135974666Y-87962453D02*
X135974666Y-88059215D01*
X135539237Y-88930073D02*
X135442475Y-88978453D01*
X135442475Y-88978453D02*
X135248951Y-88978453D01*
X135248951Y-88978453D02*
X135152189Y-88930073D01*
X135152189Y-88930073D02*
X135103808Y-88833311D01*
X135103808Y-88833311D02*
X135103808Y-88784930D01*
X135103808Y-88784930D02*
X135152189Y-88688168D01*
X135152189Y-88688168D02*
X135248951Y-88639787D01*
X135248951Y-88639787D02*
X135394094Y-88639787D01*
X135394094Y-88639787D02*
X135490856Y-88591406D01*
X135490856Y-88591406D02*
X135539237Y-88494644D01*
X135539237Y-88494644D02*
X135539237Y-88446263D01*
X135539237Y-88446263D02*
X135490856Y-88349501D01*
X135490856Y-88349501D02*
X135394094Y-88301120D01*
X135394094Y-88301120D02*
X135248951Y-88301120D01*
X135248951Y-88301120D02*
X135152189Y-88349501D01*
X133942666Y-88930073D02*
X133845904Y-88978453D01*
X133845904Y-88978453D02*
X133652380Y-88978453D01*
X133652380Y-88978453D02*
X133555618Y-88930073D01*
X133555618Y-88930073D02*
X133507237Y-88833311D01*
X133507237Y-88833311D02*
X133507237Y-88784930D01*
X133507237Y-88784930D02*
X133555618Y-88688168D01*
X133555618Y-88688168D02*
X133652380Y-88639787D01*
X133652380Y-88639787D02*
X133797523Y-88639787D01*
X133797523Y-88639787D02*
X133894285Y-88591406D01*
X133894285Y-88591406D02*
X133942666Y-88494644D01*
X133942666Y-88494644D02*
X133942666Y-88446263D01*
X133942666Y-88446263D02*
X133894285Y-88349501D01*
X133894285Y-88349501D02*
X133797523Y-88301120D01*
X133797523Y-88301120D02*
X133652380Y-88301120D01*
X133652380Y-88301120D02*
X133555618Y-88349501D01*
X133071809Y-88978453D02*
X133071809Y-88301120D01*
X133071809Y-87962453D02*
X133120190Y-88010834D01*
X133120190Y-88010834D02*
X133071809Y-88059215D01*
X133071809Y-88059215D02*
X133023428Y-88010834D01*
X133023428Y-88010834D02*
X133071809Y-87962453D01*
X133071809Y-87962453D02*
X133071809Y-88059215D01*
X132152570Y-88978453D02*
X132152570Y-87962453D01*
X132152570Y-88930073D02*
X132249332Y-88978453D01*
X132249332Y-88978453D02*
X132442856Y-88978453D01*
X132442856Y-88978453D02*
X132539618Y-88930073D01*
X132539618Y-88930073D02*
X132587999Y-88881692D01*
X132587999Y-88881692D02*
X132636380Y-88784930D01*
X132636380Y-88784930D02*
X132636380Y-88494644D01*
X132636380Y-88494644D02*
X132587999Y-88397882D01*
X132587999Y-88397882D02*
X132539618Y-88349501D01*
X132539618Y-88349501D02*
X132442856Y-88301120D01*
X132442856Y-88301120D02*
X132249332Y-88301120D01*
X132249332Y-88301120D02*
X132152570Y-88349501D01*
X131281713Y-88930073D02*
X131378475Y-88978453D01*
X131378475Y-88978453D02*
X131571999Y-88978453D01*
X131571999Y-88978453D02*
X131668761Y-88930073D01*
X131668761Y-88930073D02*
X131717142Y-88833311D01*
X131717142Y-88833311D02*
X131717142Y-88446263D01*
X131717142Y-88446263D02*
X131668761Y-88349501D01*
X131668761Y-88349501D02*
X131571999Y-88301120D01*
X131571999Y-88301120D02*
X131378475Y-88301120D01*
X131378475Y-88301120D02*
X131281713Y-88349501D01*
X131281713Y-88349501D02*
X131233332Y-88446263D01*
X131233332Y-88446263D02*
X131233332Y-88543025D01*
X131233332Y-88543025D02*
X131717142Y-88639787D01*
X129588380Y-88978453D02*
X129588380Y-87962453D01*
X129588380Y-88930073D02*
X129685142Y-88978453D01*
X129685142Y-88978453D02*
X129878666Y-88978453D01*
X129878666Y-88978453D02*
X129975428Y-88930073D01*
X129975428Y-88930073D02*
X130023809Y-88881692D01*
X130023809Y-88881692D02*
X130072190Y-88784930D01*
X130072190Y-88784930D02*
X130072190Y-88494644D01*
X130072190Y-88494644D02*
X130023809Y-88397882D01*
X130023809Y-88397882D02*
X129975428Y-88349501D01*
X129975428Y-88349501D02*
X129878666Y-88301120D01*
X129878666Y-88301120D02*
X129685142Y-88301120D01*
X129685142Y-88301120D02*
X129588380Y-88349501D01*
X128959428Y-88978453D02*
X129056190Y-88930073D01*
X129056190Y-88930073D02*
X129104571Y-88881692D01*
X129104571Y-88881692D02*
X129152952Y-88784930D01*
X129152952Y-88784930D02*
X129152952Y-88494644D01*
X129152952Y-88494644D02*
X129104571Y-88397882D01*
X129104571Y-88397882D02*
X129056190Y-88349501D01*
X129056190Y-88349501D02*
X128959428Y-88301120D01*
X128959428Y-88301120D02*
X128814285Y-88301120D01*
X128814285Y-88301120D02*
X128717523Y-88349501D01*
X128717523Y-88349501D02*
X128669142Y-88397882D01*
X128669142Y-88397882D02*
X128620761Y-88494644D01*
X128620761Y-88494644D02*
X128620761Y-88784930D01*
X128620761Y-88784930D02*
X128669142Y-88881692D01*
X128669142Y-88881692D02*
X128717523Y-88930073D01*
X128717523Y-88930073D02*
X128814285Y-88978453D01*
X128814285Y-88978453D02*
X128959428Y-88978453D01*
X128282095Y-88301120D02*
X128088571Y-88978453D01*
X128088571Y-88978453D02*
X127895047Y-88494644D01*
X127895047Y-88494644D02*
X127701523Y-88978453D01*
X127701523Y-88978453D02*
X127507999Y-88301120D01*
X127120952Y-88301120D02*
X127120952Y-88978453D01*
X127120952Y-88397882D02*
X127072571Y-88349501D01*
X127072571Y-88349501D02*
X126975809Y-88301120D01*
X126975809Y-88301120D02*
X126830666Y-88301120D01*
X126830666Y-88301120D02*
X126733904Y-88349501D01*
X126733904Y-88349501D02*
X126685523Y-88446263D01*
X126685523Y-88446263D02*
X126685523Y-88978453D01*
X111536237Y-86166649D02*
X110994371Y-86166649D01*
X110994371Y-86166649D02*
X111536237Y-86979449D01*
X111536237Y-86979449D02*
X110994371Y-86979449D01*
X110684733Y-86979449D02*
X110684733Y-86166649D01*
X110220276Y-86979449D02*
X110568618Y-86514992D01*
X110220276Y-86166649D02*
X110684733Y-86631106D01*
X109833228Y-86940745D02*
X109833228Y-86979449D01*
X109833228Y-86979449D02*
X109871933Y-87056859D01*
X109871933Y-87056859D02*
X109910637Y-87095564D01*
X108439856Y-86205354D02*
X108517266Y-86166649D01*
X108517266Y-86166649D02*
X108633380Y-86166649D01*
X108633380Y-86166649D02*
X108749494Y-86205354D01*
X108749494Y-86205354D02*
X108826904Y-86282764D01*
X108826904Y-86282764D02*
X108865609Y-86360173D01*
X108865609Y-86360173D02*
X108904313Y-86514992D01*
X108904313Y-86514992D02*
X108904313Y-86631106D01*
X108904313Y-86631106D02*
X108865609Y-86785925D01*
X108865609Y-86785925D02*
X108826904Y-86863335D01*
X108826904Y-86863335D02*
X108749494Y-86940745D01*
X108749494Y-86940745D02*
X108633380Y-86979449D01*
X108633380Y-86979449D02*
X108555971Y-86979449D01*
X108555971Y-86979449D02*
X108439856Y-86940745D01*
X108439856Y-86940745D02*
X108401152Y-86902040D01*
X108401152Y-86902040D02*
X108401152Y-86631106D01*
X108401152Y-86631106D02*
X108555971Y-86631106D01*
X107781875Y-86553697D02*
X108052809Y-86553697D01*
X108052809Y-86979449D02*
X108052809Y-86166649D01*
X108052809Y-86166649D02*
X107665761Y-86166649D01*
X115712118Y-86747221D02*
X115325071Y-86747221D01*
X115789528Y-86979449D02*
X115518595Y-86166649D01*
X115518595Y-86166649D02*
X115247661Y-86979449D01*
X114550975Y-86979449D02*
X115015432Y-86979449D01*
X114783204Y-86979449D02*
X114783204Y-86166649D01*
X114783204Y-86166649D02*
X114860613Y-86282764D01*
X114860613Y-86282764D02*
X114938023Y-86360173D01*
X114938023Y-86360173D02*
X115015432Y-86398878D01*
X114047814Y-86166649D02*
X113970404Y-86166649D01*
X113970404Y-86166649D02*
X113892995Y-86205354D01*
X113892995Y-86205354D02*
X113854290Y-86244059D01*
X113854290Y-86244059D02*
X113815585Y-86321468D01*
X113815585Y-86321468D02*
X113776880Y-86476287D01*
X113776880Y-86476287D02*
X113776880Y-86669811D01*
X113776880Y-86669811D02*
X113815585Y-86824630D01*
X113815585Y-86824630D02*
X113854290Y-86902040D01*
X113854290Y-86902040D02*
X113892995Y-86940745D01*
X113892995Y-86940745D02*
X113970404Y-86979449D01*
X113970404Y-86979449D02*
X114047814Y-86979449D01*
X114047814Y-86979449D02*
X114125223Y-86940745D01*
X114125223Y-86940745D02*
X114163928Y-86902040D01*
X114163928Y-86902040D02*
X114202633Y-86824630D01*
X114202633Y-86824630D02*
X114241337Y-86669811D01*
X114241337Y-86669811D02*
X114241337Y-86476287D01*
X114241337Y-86476287D02*
X114202633Y-86321468D01*
X114202633Y-86321468D02*
X114163928Y-86244059D01*
X114163928Y-86244059D02*
X114125223Y-86205354D01*
X114125223Y-86205354D02*
X114047814Y-86166649D01*
D11*
G36*
X152510222Y-49753207D02*
G01*
X152524235Y-49757557D01*
X152543030Y-49764213D01*
X152564709Y-49772422D01*
X152587374Y-49781434D01*
X152609130Y-49790497D01*
X152628078Y-49798859D01*
X152642322Y-49805770D01*
X152649964Y-49810478D01*
X152653823Y-49814723D01*
X152658111Y-49825470D01*
X152657302Y-49840036D01*
X152651207Y-49859787D01*
X152639642Y-49886092D01*
X152627397Y-49915260D01*
X152616143Y-49958697D01*
X152614290Y-50000640D01*
X152621907Y-50041720D01*
X152639064Y-50082569D01*
X152665830Y-50123817D01*
X152680064Y-50144712D01*
X152688480Y-50163517D01*
X152689233Y-50178362D01*
X152682526Y-50190046D01*
X152682155Y-50190404D01*
X152673898Y-50196850D01*
X152660261Y-50206207D01*
X152643997Y-50216579D01*
X152641461Y-50218132D01*
X152626364Y-50227066D01*
X152614860Y-50233366D01*
X152609269Y-50235752D01*
X152603828Y-50232762D01*
X152593272Y-50223652D01*
X152579244Y-50209905D01*
X152563147Y-50193033D01*
X152546380Y-50174546D01*
X152530345Y-50155955D01*
X152516443Y-50138771D01*
X152506076Y-50124503D01*
X152494336Y-50105624D01*
X152468982Y-50053161D01*
X152453144Y-49999276D01*
X152446852Y-49944479D01*
X152450137Y-49889281D01*
X152463029Y-49834192D01*
X152485557Y-49779724D01*
X152491281Y-49768953D01*
X152498114Y-49757518D01*
X152502438Y-49752054D01*
X152502888Y-49751914D01*
X152510222Y-49753207D01*
G37*
G36*
X148169027Y-50154716D02*
G01*
X148204936Y-50162121D01*
X148215575Y-50165672D01*
X148256670Y-50185430D01*
X148296106Y-50213902D01*
X148332897Y-50250282D01*
X148366059Y-50293765D01*
X148383553Y-50320142D01*
X148389465Y-50269431D01*
X148389739Y-50267084D01*
X148393041Y-50239992D01*
X148395893Y-50220635D01*
X148398793Y-50207196D01*
X148402235Y-50197860D01*
X148406716Y-50190811D01*
X148412731Y-50184233D01*
X148416287Y-50180846D01*
X148421204Y-50177408D01*
X148427743Y-50175070D01*
X148437527Y-50173621D01*
X148452178Y-50172849D01*
X148473318Y-50172541D01*
X148502569Y-50172485D01*
X148580660Y-50172485D01*
X148580660Y-50598333D01*
X148580660Y-51024181D01*
X148476023Y-51024181D01*
X148371386Y-51024181D01*
X148371386Y-50757436D01*
X148371386Y-50490690D01*
X148354062Y-50461776D01*
X148326328Y-50422597D01*
X148295063Y-50392179D01*
X148260236Y-50370770D01*
X148221597Y-50358256D01*
X148178899Y-50354523D01*
X148131892Y-50359456D01*
X148129982Y-50359811D01*
X148104054Y-50363748D01*
X148085692Y-50364112D01*
X148073336Y-50360465D01*
X148065428Y-50352370D01*
X148060406Y-50339388D01*
X148059988Y-50337729D01*
X148057067Y-50324436D01*
X148053078Y-50304452D01*
X148048490Y-50280189D01*
X148043775Y-50254063D01*
X148042125Y-50244559D01*
X148037876Y-50217767D01*
X148035735Y-50199200D01*
X148035619Y-50187889D01*
X148037439Y-50182866D01*
X148038250Y-50182228D01*
X148064294Y-50167365D01*
X148096346Y-50157630D01*
X148132043Y-50153317D01*
X148169027Y-50154716D01*
G37*
G36*
X155099397Y-50154716D02*
G01*
X155135306Y-50162121D01*
X155145945Y-50165672D01*
X155187040Y-50185430D01*
X155226476Y-50213902D01*
X155263267Y-50250282D01*
X155296428Y-50293765D01*
X155313923Y-50320142D01*
X155319835Y-50269431D01*
X155320109Y-50267084D01*
X155323411Y-50239992D01*
X155326263Y-50220635D01*
X155329163Y-50207196D01*
X155332605Y-50197860D01*
X155337085Y-50190811D01*
X155343101Y-50184233D01*
X155346657Y-50180846D01*
X155351574Y-50177408D01*
X155358113Y-50175070D01*
X155367897Y-50173621D01*
X155382548Y-50172849D01*
X155403688Y-50172541D01*
X155432939Y-50172485D01*
X155511030Y-50172485D01*
X155511030Y-50598333D01*
X155511030Y-51024181D01*
X155406393Y-51024181D01*
X155301756Y-51024181D01*
X155301756Y-50757436D01*
X155301756Y-50490690D01*
X155284431Y-50461776D01*
X155256698Y-50422597D01*
X155225433Y-50392179D01*
X155190606Y-50370770D01*
X155151967Y-50358256D01*
X155109269Y-50354523D01*
X155062262Y-50359456D01*
X155060352Y-50359811D01*
X155034423Y-50363748D01*
X155016061Y-50364112D01*
X155003706Y-50360465D01*
X154995798Y-50352370D01*
X154990776Y-50339388D01*
X154990357Y-50337729D01*
X154987437Y-50324436D01*
X154983448Y-50304452D01*
X154978860Y-50280189D01*
X154974145Y-50254063D01*
X154972495Y-50244559D01*
X154968245Y-50217767D01*
X154966105Y-50199200D01*
X154965988Y-50187889D01*
X154967809Y-50182866D01*
X154968619Y-50182228D01*
X154994664Y-50167365D01*
X155026715Y-50157630D01*
X155062413Y-50153317D01*
X155099397Y-50154716D01*
G37*
G36*
X155775886Y-50154716D02*
G01*
X155811796Y-50162121D01*
X155822434Y-50165672D01*
X155863529Y-50185430D01*
X155902965Y-50213902D01*
X155939757Y-50250282D01*
X155972918Y-50293765D01*
X155990413Y-50320142D01*
X155996325Y-50269431D01*
X155996599Y-50267084D01*
X155999900Y-50239992D01*
X156002753Y-50220635D01*
X156005652Y-50207196D01*
X156009094Y-50197860D01*
X156013575Y-50190811D01*
X156019590Y-50184233D01*
X156023147Y-50180846D01*
X156028063Y-50177408D01*
X156034603Y-50175070D01*
X156044387Y-50173621D01*
X156059037Y-50172849D01*
X156080177Y-50172541D01*
X156109429Y-50172485D01*
X156187519Y-50172485D01*
X156187519Y-50598333D01*
X156187519Y-51024181D01*
X156082883Y-51024181D01*
X155978246Y-51024181D01*
X155978246Y-50757436D01*
X155978246Y-50490690D01*
X155960921Y-50461776D01*
X155933188Y-50422597D01*
X155901923Y-50392179D01*
X155867095Y-50370770D01*
X155828457Y-50358256D01*
X155785758Y-50354523D01*
X155738751Y-50359456D01*
X155736842Y-50359811D01*
X155710913Y-50363748D01*
X155692551Y-50364112D01*
X155680196Y-50360465D01*
X155672287Y-50352370D01*
X155667266Y-50339388D01*
X155666847Y-50337729D01*
X155663927Y-50324436D01*
X155659937Y-50304452D01*
X155655350Y-50280189D01*
X155650634Y-50254063D01*
X155648985Y-50244559D01*
X155644735Y-50217767D01*
X155642595Y-50199200D01*
X155642478Y-50187889D01*
X155644299Y-50182866D01*
X155645109Y-50182228D01*
X155671154Y-50167365D01*
X155703205Y-50157630D01*
X155738903Y-50153317D01*
X155775886Y-50154716D01*
G37*
G36*
X146259181Y-50406093D02*
G01*
X146259181Y-51024181D01*
X146154544Y-51024181D01*
X146049907Y-51024181D01*
X146049907Y-50715704D01*
X146049907Y-50407226D01*
X146030162Y-50389388D01*
X145990267Y-50358124D01*
X145949287Y-50335880D01*
X145907074Y-50322830D01*
X145862989Y-50318704D01*
X145828424Y-50320944D01*
X145798337Y-50328391D01*
X145774119Y-50341865D01*
X145754325Y-50362189D01*
X145737506Y-50390189D01*
X145721396Y-50422905D01*
X145719970Y-50723543D01*
X145718545Y-51024181D01*
X145613819Y-51024181D01*
X145509094Y-51024181D01*
X145510988Y-50718787D01*
X145511221Y-50681352D01*
X145511636Y-50620529D01*
X145512101Y-50568183D01*
X145512690Y-50523502D01*
X145513477Y-50485675D01*
X145514533Y-50453893D01*
X145515933Y-50427343D01*
X145517750Y-50405216D01*
X145520057Y-50386701D01*
X145522928Y-50370988D01*
X145526435Y-50357264D01*
X145530652Y-50344721D01*
X145535653Y-50332546D01*
X145541511Y-50319930D01*
X145548298Y-50306062D01*
X145570801Y-50267196D01*
X145601482Y-50229940D01*
X145637469Y-50200691D01*
X145679054Y-50179265D01*
X145726532Y-50165475D01*
X145780193Y-50159137D01*
X145781537Y-50159075D01*
X145837491Y-50159688D01*
X145887788Y-50167198D01*
X145934111Y-50182147D01*
X145978147Y-50205073D01*
X146021579Y-50236518D01*
X146032159Y-50244960D01*
X146042187Y-50252369D01*
X146047130Y-50255222D01*
X146047158Y-50255210D01*
X146047711Y-50250039D01*
X146048227Y-50236122D01*
X146048693Y-50214399D01*
X146049100Y-50185811D01*
X146049436Y-50151298D01*
X146049690Y-50111800D01*
X146049851Y-50068259D01*
X146049907Y-50021614D01*
X146049907Y-49788006D01*
X146154544Y-49788006D01*
X146259181Y-49788006D01*
X146259181Y-50406093D01*
G37*
G36*
X153112924Y-49909798D02*
G01*
X153140415Y-49911055D01*
X153160288Y-49914024D01*
X153173951Y-49919136D01*
X153182810Y-49926822D01*
X153188273Y-49937513D01*
X153189445Y-49941801D01*
X153192526Y-49955524D01*
X153196824Y-49976358D01*
X153202035Y-50002785D01*
X153207855Y-50033284D01*
X153213983Y-50066335D01*
X153235049Y-50181626D01*
X153267052Y-50186967D01*
X153286113Y-50190142D01*
X153311709Y-50194395D01*
X153335555Y-50198348D01*
X153372057Y-50204388D01*
X153373548Y-50240755D01*
X153373712Y-50245073D01*
X153373781Y-50273141D01*
X153371526Y-50293600D01*
X153366623Y-50308155D01*
X153358748Y-50318510D01*
X153353977Y-50322250D01*
X153346761Y-50325342D01*
X153336022Y-50327156D01*
X153319692Y-50328010D01*
X153295703Y-50328224D01*
X153243086Y-50328224D01*
X153243028Y-50592250D01*
X153242997Y-50649498D01*
X153242890Y-50701241D01*
X153242645Y-50744929D01*
X153242201Y-50781424D01*
X153241498Y-50811588D01*
X153240473Y-50836282D01*
X153239066Y-50856369D01*
X153237216Y-50872711D01*
X153234862Y-50886168D01*
X153231942Y-50897604D01*
X153228395Y-50907880D01*
X153224160Y-50917858D01*
X153219176Y-50928400D01*
X153219008Y-50928746D01*
X153197107Y-50962924D01*
X153167757Y-50991997D01*
X153132395Y-51014810D01*
X153092462Y-51030206D01*
X153090877Y-51030621D01*
X153066424Y-51034740D01*
X153035696Y-51036863D01*
X153001693Y-51037051D01*
X152967415Y-51035362D01*
X152935862Y-51031856D01*
X152910034Y-51026593D01*
X152904623Y-51025014D01*
X152876837Y-51015080D01*
X152848672Y-51002478D01*
X152823423Y-50988797D01*
X152804384Y-50975626D01*
X152788587Y-50962439D01*
X152819438Y-50911791D01*
X152828522Y-50896895D01*
X152842902Y-50873968D01*
X152854209Y-50858126D01*
X152863786Y-50848577D01*
X152872976Y-50844529D01*
X152883122Y-50845193D01*
X152895568Y-50849778D01*
X152911656Y-50857492D01*
X152933844Y-50866460D01*
X152962478Y-50871443D01*
X152987757Y-50867613D01*
X153009247Y-50855057D01*
X153026512Y-50833866D01*
X153028177Y-50830864D01*
X153030111Y-50826401D01*
X153031722Y-50820681D01*
X153033046Y-50812857D01*
X153034118Y-50802080D01*
X153034976Y-50787504D01*
X153035655Y-50768281D01*
X153036191Y-50743562D01*
X153036621Y-50712501D01*
X153036981Y-50674249D01*
X153037306Y-50627958D01*
X153037633Y-50572782D01*
X153039021Y-50328224D01*
X152926913Y-50328224D01*
X152814804Y-50328224D01*
X152814804Y-50255222D01*
X152814804Y-50182219D01*
X152926742Y-50182219D01*
X153038679Y-50182219D01*
X153038679Y-50045948D01*
X153038679Y-49909676D01*
X153097322Y-49909676D01*
X153112924Y-49909798D01*
G37*
G36*
X153755346Y-49909798D02*
G01*
X153782837Y-49911055D01*
X153802710Y-49914024D01*
X153816373Y-49919136D01*
X153825232Y-49926822D01*
X153830695Y-49937513D01*
X153831867Y-49941801D01*
X153834948Y-49955524D01*
X153839245Y-49976358D01*
X153844456Y-50002785D01*
X153850277Y-50033284D01*
X153856405Y-50066335D01*
X153877471Y-50181626D01*
X153909474Y-50186967D01*
X153928535Y-50190142D01*
X153954131Y-50194395D01*
X153977977Y-50198348D01*
X154014479Y-50204388D01*
X154015970Y-50240755D01*
X154016134Y-50245073D01*
X154016203Y-50273141D01*
X154013948Y-50293600D01*
X154009045Y-50308155D01*
X154001170Y-50318510D01*
X153996399Y-50322250D01*
X153989183Y-50325342D01*
X153978444Y-50327156D01*
X153962114Y-50328010D01*
X153938125Y-50328224D01*
X153885508Y-50328224D01*
X153885450Y-50592250D01*
X153885419Y-50649498D01*
X153885312Y-50701241D01*
X153885067Y-50744929D01*
X153884623Y-50781424D01*
X153883920Y-50811588D01*
X153882895Y-50836282D01*
X153881488Y-50856369D01*
X153879638Y-50872711D01*
X153877284Y-50886168D01*
X153874364Y-50897604D01*
X153870817Y-50907880D01*
X153866582Y-50917858D01*
X153861598Y-50928400D01*
X153861430Y-50928746D01*
X153839529Y-50962924D01*
X153810179Y-50991997D01*
X153774817Y-51014810D01*
X153734884Y-51030206D01*
X153733299Y-51030621D01*
X153708846Y-51034740D01*
X153678118Y-51036863D01*
X153644115Y-51037051D01*
X153609837Y-51035362D01*
X153578284Y-51031856D01*
X153552456Y-51026593D01*
X153547045Y-51025014D01*
X153519258Y-51015080D01*
X153491094Y-51002478D01*
X153465845Y-50988797D01*
X153446806Y-50975626D01*
X153431009Y-50962439D01*
X153461860Y-50911791D01*
X153470944Y-50896895D01*
X153485324Y-50873968D01*
X153496631Y-50858126D01*
X153506208Y-50848577D01*
X153515398Y-50844529D01*
X153525544Y-50845193D01*
X153537990Y-50849778D01*
X153554078Y-50857492D01*
X153576266Y-50866460D01*
X153604900Y-50871443D01*
X153630179Y-50867613D01*
X153651669Y-50855057D01*
X153668934Y-50833866D01*
X153670599Y-50830864D01*
X153672533Y-50826401D01*
X153674144Y-50820681D01*
X153675467Y-50812857D01*
X153676540Y-50802080D01*
X153677398Y-50787504D01*
X153678077Y-50768281D01*
X153678613Y-50743562D01*
X153679043Y-50712501D01*
X153679403Y-50674249D01*
X153679728Y-50627958D01*
X153680055Y-50572782D01*
X153681443Y-50328224D01*
X153569335Y-50328224D01*
X153457226Y-50328224D01*
X153457226Y-50255222D01*
X153457226Y-50182219D01*
X153569163Y-50182219D01*
X153681101Y-50182219D01*
X153681101Y-50045948D01*
X153681101Y-49909676D01*
X153739744Y-49909676D01*
X153755346Y-49909798D01*
G37*
G36*
X157181797Y-53769732D02*
G01*
X157304220Y-53769770D01*
X157418098Y-53769833D01*
X157523591Y-53769921D01*
X157620856Y-53770035D01*
X157710052Y-53770176D01*
X157791339Y-53770343D01*
X157864873Y-53770537D01*
X157930815Y-53770758D01*
X157989322Y-53771007D01*
X158040554Y-53771283D01*
X158084668Y-53771588D01*
X158121824Y-53771921D01*
X158152179Y-53772282D01*
X158175894Y-53772673D01*
X158193125Y-53773093D01*
X158204033Y-53773542D01*
X158208774Y-53774021D01*
X158221470Y-53779195D01*
X158242613Y-53793719D01*
X158260830Y-53813003D01*
X158272949Y-53834079D01*
X158274114Y-53837353D01*
X158276493Y-53846530D01*
X158278170Y-53858268D01*
X158279218Y-53873999D01*
X158279711Y-53895158D01*
X158279719Y-53923177D01*
X158279317Y-53959491D01*
X158277824Y-54064319D01*
X158263224Y-54087875D01*
X158249666Y-54105521D01*
X158227174Y-54122759D01*
X158205724Y-54134087D01*
X156179260Y-54134087D01*
X156012210Y-54134087D01*
X155854452Y-54134085D01*
X155705871Y-54134079D01*
X155566191Y-54134070D01*
X155435132Y-54134054D01*
X155312418Y-54134032D01*
X155197770Y-54134002D01*
X155090910Y-54133962D01*
X154991561Y-54133911D01*
X154899443Y-54133847D01*
X154814280Y-54133771D01*
X154735794Y-54133679D01*
X154663706Y-54133572D01*
X154597738Y-54133447D01*
X154537613Y-54133303D01*
X154483053Y-54133139D01*
X154433779Y-54132954D01*
X154389514Y-54132747D01*
X154349980Y-54132515D01*
X154314898Y-54132259D01*
X154283991Y-54131975D01*
X154256981Y-54131664D01*
X154233590Y-54131324D01*
X154213540Y-54130954D01*
X154196553Y-54130551D01*
X154182350Y-54130116D01*
X154170655Y-54129646D01*
X154161189Y-54129141D01*
X154153674Y-54128598D01*
X154147832Y-54128018D01*
X154143386Y-54127397D01*
X154140057Y-54126736D01*
X154137567Y-54126033D01*
X154135638Y-54125286D01*
X154133993Y-54124495D01*
X154132446Y-54123686D01*
X154108856Y-54105916D01*
X154090639Y-54081807D01*
X154079872Y-54054060D01*
X154079178Y-54050333D01*
X154077358Y-54032455D01*
X154076206Y-54006680D01*
X154075766Y-53974393D01*
X154076083Y-53936981D01*
X154076172Y-53932113D01*
X154076817Y-53900870D01*
X154077575Y-53877528D01*
X154078642Y-53860474D01*
X154080214Y-53848092D01*
X154082486Y-53838766D01*
X154085654Y-53830883D01*
X154089915Y-53822826D01*
X154093992Y-53816410D01*
X154107831Y-53799831D01*
X154123185Y-53786325D01*
X154144288Y-53771508D01*
X156167255Y-53770085D01*
X156258943Y-53770023D01*
X156435964Y-53769915D01*
X156603488Y-53769830D01*
X156761675Y-53769769D01*
X156910683Y-53769732D01*
X157050671Y-53769720D01*
X157181797Y-53769732D01*
G37*
G36*
X144365983Y-51301591D02*
G01*
X144261346Y-51301591D01*
X144156709Y-51301591D01*
X144156709Y-51128439D01*
X144156709Y-50955287D01*
X144137019Y-50972141D01*
X144131359Y-50976784D01*
X144101070Y-50997125D01*
X144066523Y-51014562D01*
X144032208Y-51026757D01*
X144031559Y-51026929D01*
X144007836Y-51031181D01*
X143977789Y-51033730D01*
X143944568Y-51034574D01*
X143911328Y-51033712D01*
X143881221Y-51031141D01*
X143857399Y-51026860D01*
X143833460Y-51019618D01*
X143782309Y-50997015D01*
X143735547Y-50966197D01*
X143693764Y-50927757D01*
X143657549Y-50882286D01*
X143627489Y-50830375D01*
X143604176Y-50772615D01*
X143600760Y-50761643D01*
X143587188Y-50702849D01*
X143579400Y-50639119D01*
X143578457Y-50608067D01*
X143793135Y-50608067D01*
X143794080Y-50630467D01*
X143796714Y-50666114D01*
X143800919Y-50695833D01*
X143807215Y-50722079D01*
X143816121Y-50747309D01*
X143828153Y-50773980D01*
X143835033Y-50786956D01*
X143858720Y-50819974D01*
X143887300Y-50845577D01*
X143919819Y-50862840D01*
X143931219Y-50866679D01*
X143971852Y-50874598D01*
X144014203Y-50875058D01*
X144055459Y-50868201D01*
X144092803Y-50854167D01*
X144102279Y-50848572D01*
X144119140Y-50836415D01*
X144134846Y-50822924D01*
X144156709Y-50801975D01*
X144156709Y-50609724D01*
X144156709Y-50417472D01*
X144120664Y-50382522D01*
X144092820Y-50358047D01*
X144062878Y-50338410D01*
X144031379Y-50325327D01*
X143995729Y-50317448D01*
X143976136Y-50315449D01*
X143936856Y-50317240D01*
X143901143Y-50326823D01*
X143870195Y-50343798D01*
X143845213Y-50367763D01*
X143844190Y-50369070D01*
X143823738Y-50402212D01*
X143808485Y-50442319D01*
X143798353Y-50489755D01*
X143793262Y-50544883D01*
X143793135Y-50608067D01*
X143578457Y-50608067D01*
X143577387Y-50572854D01*
X143581138Y-50506454D01*
X143590642Y-50442321D01*
X143605889Y-50382857D01*
X143617977Y-50349217D01*
X143638031Y-50307353D01*
X143662810Y-50270387D01*
X143693946Y-50235590D01*
X143709233Y-50221093D01*
X143744401Y-50193434D01*
X143780590Y-50173609D01*
X143819609Y-50160949D01*
X143863265Y-50154786D01*
X143913367Y-50154452D01*
X143934438Y-50155776D01*
X143977666Y-50161816D01*
X144016748Y-50172826D01*
X144053866Y-50189710D01*
X144091200Y-50213374D01*
X144130932Y-50244722D01*
X144141022Y-50253212D01*
X144154768Y-50264372D01*
X144164443Y-50271701D01*
X144168410Y-50273923D01*
X144169655Y-50269895D01*
X144172325Y-50258665D01*
X144175681Y-50243055D01*
X144180359Y-50221115D01*
X144185688Y-50201426D01*
X144192224Y-50187280D01*
X144201387Y-50177759D01*
X144214599Y-50171949D01*
X144233281Y-50168933D01*
X144258854Y-50167794D01*
X144292739Y-50167619D01*
X144365983Y-50167619D01*
X144365983Y-50734605D01*
X144365983Y-50801975D01*
X144365983Y-51301591D01*
G37*
G36*
X145365174Y-50634703D02*
G01*
X145362046Y-50678955D01*
X145355826Y-50718439D01*
X145346046Y-50755883D01*
X145332239Y-50794017D01*
X145324229Y-50812509D01*
X145294322Y-50866244D01*
X145257416Y-50913363D01*
X145213893Y-50953549D01*
X145164138Y-50986485D01*
X145108534Y-51011854D01*
X145047465Y-51029340D01*
X145012314Y-51034744D01*
X144970379Y-51037780D01*
X144926384Y-51038200D01*
X144884056Y-51035973D01*
X144847120Y-51031068D01*
X144844298Y-51030524D01*
X144783073Y-51013971D01*
X144727443Y-50989575D01*
X144677716Y-50957660D01*
X144634201Y-50918548D01*
X144597207Y-50872564D01*
X144567043Y-50820032D01*
X144544016Y-50761276D01*
X144528436Y-50696619D01*
X144524725Y-50668593D01*
X144522207Y-50625674D01*
X144522352Y-50597140D01*
X144737798Y-50597140D01*
X144738281Y-50633054D01*
X144739981Y-50666746D01*
X144742900Y-50695742D01*
X144747037Y-50717571D01*
X144753957Y-50740445D01*
X144771608Y-50782771D01*
X144793562Y-50816901D01*
X144820211Y-50843377D01*
X144851946Y-50862741D01*
X144863223Y-50867627D01*
X144876165Y-50871801D01*
X144890700Y-50874412D01*
X144909542Y-50875915D01*
X144935402Y-50876767D01*
X144962924Y-50876869D01*
X144992143Y-50875173D01*
X145011879Y-50871364D01*
X145017751Y-50869367D01*
X145054011Y-50852185D01*
X145084294Y-50828411D01*
X145108744Y-50797762D01*
X145127508Y-50759956D01*
X145140731Y-50714710D01*
X145148558Y-50661741D01*
X145151135Y-50600767D01*
X145151029Y-50587285D01*
X145147826Y-50531138D01*
X145139981Y-50482670D01*
X145127252Y-50441039D01*
X145109395Y-50405400D01*
X145086169Y-50374908D01*
X145067247Y-50357853D01*
X145035142Y-50338949D01*
X144998418Y-50326371D01*
X144958889Y-50320348D01*
X144918371Y-50321112D01*
X144878677Y-50328891D01*
X144841623Y-50343915D01*
X144830080Y-50350698D01*
X144803196Y-50372826D01*
X144780757Y-50401884D01*
X144762230Y-50438665D01*
X144747079Y-50483963D01*
X144743654Y-50500802D01*
X144740485Y-50528541D01*
X144738533Y-50561478D01*
X144737798Y-50597140D01*
X144522352Y-50597140D01*
X144522440Y-50579789D01*
X144525298Y-50534048D01*
X144530651Y-50491560D01*
X144538371Y-50455435D01*
X144539029Y-50453090D01*
X144560794Y-50392414D01*
X144589750Y-50338184D01*
X144625574Y-50290665D01*
X144667940Y-50250121D01*
X144716526Y-50216817D01*
X144771006Y-50191017D01*
X144831058Y-50172987D01*
X144896356Y-50162991D01*
X144903583Y-50162408D01*
X144971166Y-50161430D01*
X145035267Y-50168607D01*
X145095310Y-50183657D01*
X145150719Y-50206299D01*
X145200917Y-50236252D01*
X145245328Y-50273233D01*
X145283375Y-50316963D01*
X145314483Y-50367159D01*
X145334414Y-50410186D01*
X145348952Y-50452291D01*
X145358650Y-50495992D01*
X145364069Y-50543827D01*
X145365774Y-50598333D01*
X145365734Y-50600767D01*
X145365174Y-50634703D01*
G37*
G36*
X149579851Y-50634703D02*
G01*
X149576723Y-50678955D01*
X149570503Y-50718439D01*
X149560723Y-50755883D01*
X149546916Y-50794017D01*
X149538907Y-50812509D01*
X149508999Y-50866244D01*
X149472093Y-50913363D01*
X149428570Y-50953549D01*
X149378815Y-50986485D01*
X149323211Y-51011854D01*
X149262142Y-51029340D01*
X149226992Y-51034744D01*
X149185056Y-51037780D01*
X149141061Y-51038200D01*
X149098734Y-51035973D01*
X149061797Y-51031068D01*
X149058976Y-51030524D01*
X148997750Y-51013971D01*
X148942120Y-50989575D01*
X148892393Y-50957660D01*
X148848878Y-50918548D01*
X148811884Y-50872564D01*
X148781720Y-50820032D01*
X148758693Y-50761276D01*
X148743113Y-50696619D01*
X148739402Y-50668593D01*
X148736884Y-50625674D01*
X148737029Y-50597140D01*
X148952475Y-50597140D01*
X148952958Y-50633054D01*
X148954658Y-50666746D01*
X148957577Y-50695742D01*
X148961714Y-50717571D01*
X148968634Y-50740445D01*
X148986285Y-50782771D01*
X149008240Y-50816901D01*
X149034888Y-50843377D01*
X149066623Y-50862741D01*
X149077900Y-50867627D01*
X149090842Y-50871801D01*
X149105377Y-50874412D01*
X149124219Y-50875915D01*
X149150079Y-50876767D01*
X149177601Y-50876869D01*
X149206820Y-50875173D01*
X149226557Y-50871364D01*
X149232429Y-50869367D01*
X149268688Y-50852185D01*
X149298971Y-50828411D01*
X149323421Y-50797762D01*
X149342185Y-50759956D01*
X149355408Y-50714710D01*
X149363235Y-50661741D01*
X149365812Y-50600767D01*
X149365706Y-50587285D01*
X149362503Y-50531138D01*
X149354658Y-50482670D01*
X149341929Y-50441039D01*
X149324072Y-50405400D01*
X149300846Y-50374908D01*
X149281924Y-50357853D01*
X149249819Y-50338949D01*
X149213095Y-50326371D01*
X149173566Y-50320348D01*
X149133048Y-50321112D01*
X149093355Y-50328891D01*
X149056300Y-50343915D01*
X149044758Y-50350698D01*
X149017873Y-50372826D01*
X148995435Y-50401884D01*
X148976908Y-50438665D01*
X148961756Y-50483963D01*
X148958331Y-50500802D01*
X148955163Y-50528541D01*
X148953210Y-50561478D01*
X148952475Y-50597140D01*
X148737029Y-50597140D01*
X148737117Y-50579789D01*
X148739975Y-50534048D01*
X148745328Y-50491560D01*
X148753048Y-50455435D01*
X148753706Y-50453090D01*
X148775471Y-50392414D01*
X148804427Y-50338184D01*
X148840251Y-50290665D01*
X148882617Y-50250121D01*
X148931203Y-50216817D01*
X148985684Y-50191017D01*
X149045735Y-50172987D01*
X149111033Y-50162991D01*
X149118260Y-50162408D01*
X149185843Y-50161430D01*
X149249944Y-50168607D01*
X149309987Y-50183657D01*
X149365396Y-50206299D01*
X149415594Y-50236252D01*
X149460005Y-50273233D01*
X149498052Y-50316963D01*
X149529160Y-50367159D01*
X149549092Y-50410186D01*
X149563630Y-50452291D01*
X149573327Y-50495992D01*
X149578746Y-50543827D01*
X149580451Y-50598333D01*
X149580411Y-50600767D01*
X149579851Y-50634703D01*
G37*
G36*
X147894436Y-50406093D02*
G01*
X147894436Y-51024181D01*
X147789800Y-51024181D01*
X147685163Y-51024181D01*
X147685163Y-50829508D01*
X147685163Y-50634835D01*
X147654745Y-50634842D01*
X147651705Y-50634841D01*
X147639968Y-50634956D01*
X147629735Y-50635765D01*
X147620370Y-50637937D01*
X147611241Y-50642141D01*
X147601714Y-50649047D01*
X147591155Y-50659323D01*
X147578931Y-50673639D01*
X147564408Y-50692662D01*
X147546953Y-50717063D01*
X147525932Y-50747511D01*
X147500710Y-50784673D01*
X147470656Y-50829221D01*
X147445387Y-50866599D01*
X147419362Y-50904803D01*
X147397769Y-50936077D01*
X147380118Y-50961086D01*
X147365922Y-50980497D01*
X147354691Y-50994976D01*
X147345936Y-51005188D01*
X147339169Y-51011798D01*
X147333901Y-51015474D01*
X147333407Y-51015728D01*
X147326773Y-51018626D01*
X147318896Y-51020761D01*
X147308359Y-51022221D01*
X147293750Y-51023093D01*
X147273653Y-51023466D01*
X147246654Y-51023426D01*
X147211339Y-51023061D01*
X147105929Y-51021748D01*
X147257226Y-50802740D01*
X147271955Y-50781452D01*
X147300376Y-50740564D01*
X147327318Y-50702045D01*
X147352206Y-50666703D01*
X147374465Y-50635347D01*
X147393519Y-50608786D01*
X147408793Y-50587827D01*
X147419713Y-50573279D01*
X147425703Y-50565950D01*
X147442884Y-50548166D01*
X147422051Y-50529448D01*
X147418993Y-50526461D01*
X147408625Y-50515312D01*
X147393217Y-50497996D01*
X147373536Y-50475404D01*
X147350352Y-50448429D01*
X147324434Y-50417962D01*
X147296551Y-50384897D01*
X147267473Y-50350125D01*
X147251087Y-50330450D01*
X147223477Y-50297307D01*
X147197994Y-50266730D01*
X147175323Y-50239538D01*
X147156146Y-50216550D01*
X147141146Y-50198585D01*
X147131008Y-50186463D01*
X147126414Y-50181002D01*
X147124766Y-50178763D01*
X147124624Y-50176550D01*
X147127652Y-50174929D01*
X147134945Y-50173806D01*
X147147597Y-50173092D01*
X147166701Y-50172694D01*
X147193350Y-50172522D01*
X147228640Y-50172485D01*
X147261918Y-50172516D01*
X147289576Y-50172694D01*
X147310148Y-50173138D01*
X147325005Y-50173972D01*
X147335518Y-50175315D01*
X147343060Y-50177288D01*
X147349002Y-50180013D01*
X147354715Y-50183611D01*
X147359724Y-50188054D01*
X147370845Y-50199747D01*
X147386543Y-50217328D01*
X147405987Y-50239836D01*
X147428348Y-50266306D01*
X147452796Y-50295775D01*
X147478502Y-50327281D01*
X147506786Y-50362239D01*
X147534203Y-50396029D01*
X147556745Y-50423519D01*
X147575094Y-50445375D01*
X147589933Y-50462264D01*
X147601946Y-50474850D01*
X147611814Y-50483800D01*
X147620222Y-50489779D01*
X147627852Y-50493453D01*
X147635387Y-50495489D01*
X147643509Y-50496551D01*
X147652903Y-50497306D01*
X147685163Y-50499896D01*
X147685163Y-50143951D01*
X147685163Y-49788006D01*
X147789800Y-49788006D01*
X147894436Y-49788006D01*
X147894436Y-50406093D01*
G37*
G36*
X153580983Y-53183555D02*
G01*
X153589567Y-53195676D01*
X153592595Y-53200387D01*
X153592509Y-53205508D01*
X153590728Y-53219501D01*
X153587346Y-53239990D01*
X153582719Y-53265250D01*
X153577200Y-53293558D01*
X153571143Y-53323188D01*
X153564905Y-53352417D01*
X153558839Y-53379520D01*
X153553299Y-53402773D01*
X153548640Y-53420451D01*
X153545217Y-53430830D01*
X153540395Y-53439897D01*
X153524730Y-53459738D01*
X153504578Y-53477450D01*
X153483287Y-53489841D01*
X153481850Y-53490334D01*
X153476700Y-53491369D01*
X153468520Y-53492287D01*
X153456796Y-53493095D01*
X153441011Y-53493798D01*
X153420650Y-53494405D01*
X153395196Y-53494920D01*
X153364135Y-53495350D01*
X153326950Y-53495702D01*
X153283126Y-53495983D01*
X153232147Y-53496198D01*
X153173497Y-53496354D01*
X153106660Y-53496457D01*
X153031122Y-53496514D01*
X152946365Y-53496532D01*
X152425458Y-53496532D01*
X152425458Y-53790976D01*
X152425458Y-54085419D01*
X152245385Y-54085419D01*
X152065312Y-54085419D01*
X152065312Y-53790976D01*
X152065312Y-53496532D01*
X151941928Y-53496532D01*
X151923446Y-53496528D01*
X151889593Y-53496454D01*
X151863625Y-53496209D01*
X151844276Y-53495693D01*
X151830279Y-53494808D01*
X151820365Y-53493454D01*
X151813268Y-53491531D01*
X151807720Y-53488941D01*
X151802454Y-53485582D01*
X151801149Y-53484673D01*
X151787411Y-53473164D01*
X151776183Y-53460901D01*
X151774134Y-53457971D01*
X151771560Y-53453128D01*
X151769562Y-53446780D01*
X151768049Y-53437750D01*
X151766930Y-53424863D01*
X151766114Y-53406945D01*
X151765509Y-53382820D01*
X151765024Y-53351312D01*
X151764568Y-53311246D01*
X151763135Y-53175321D01*
X151914223Y-53175321D01*
X152065312Y-53175321D01*
X152065312Y-52425829D01*
X152065312Y-52184485D01*
X152416296Y-52184485D01*
X152416907Y-52198273D01*
X152418238Y-52217652D01*
X152420168Y-52240563D01*
X152420680Y-52247502D01*
X152421641Y-52268571D01*
X152422504Y-52298824D01*
X152423264Y-52337893D01*
X152423918Y-52385414D01*
X152424462Y-52441017D01*
X152424892Y-52504337D01*
X152425204Y-52575007D01*
X152425394Y-52652659D01*
X152425458Y-52736927D01*
X152425458Y-53175321D01*
X152790383Y-53175321D01*
X153155308Y-53175321D01*
X153071442Y-53061526D01*
X153069406Y-53058763D01*
X153053350Y-53036970D01*
X153032170Y-53008215D01*
X153006422Y-52973253D01*
X152976664Y-52932843D01*
X152943452Y-52887739D01*
X152907345Y-52838699D01*
X152868899Y-52786480D01*
X152828671Y-52731837D01*
X152787218Y-52675529D01*
X152745098Y-52618311D01*
X152702867Y-52560940D01*
X152680745Y-52530906D01*
X152641607Y-52477867D01*
X152604322Y-52427461D01*
X152569278Y-52380211D01*
X152536868Y-52336637D01*
X152507482Y-52297260D01*
X152481509Y-52262604D01*
X152459341Y-52233189D01*
X152441367Y-52209536D01*
X152427978Y-52192168D01*
X152419565Y-52181606D01*
X152416518Y-52178371D01*
X152416296Y-52184485D01*
X152065312Y-52184485D01*
X152065312Y-51676337D01*
X152261399Y-51676337D01*
X152457487Y-51676337D01*
X153024275Y-52434044D01*
X153035010Y-52448396D01*
X153091830Y-52524401D01*
X153147034Y-52598310D01*
X153200340Y-52669742D01*
X153251468Y-52738319D01*
X153300135Y-52803662D01*
X153346060Y-52865390D01*
X153388962Y-52923124D01*
X153428559Y-52976484D01*
X153464570Y-53025092D01*
X153496714Y-53068567D01*
X153524708Y-53106531D01*
X153548272Y-53138603D01*
X153567124Y-53164404D01*
X153575024Y-53175321D01*
X153580983Y-53183555D01*
G37*
G36*
X146735846Y-50158297D02*
G01*
X146787490Y-50162907D01*
X146833838Y-50173110D01*
X146877159Y-50189507D01*
X146919717Y-50212696D01*
X146951921Y-50236799D01*
X146982258Y-50269405D01*
X147005705Y-50306331D01*
X147022115Y-50346357D01*
X147031339Y-50388262D01*
X147033231Y-50430827D01*
X147027643Y-50472831D01*
X147014427Y-50513054D01*
X146993435Y-50550276D01*
X146964521Y-50583276D01*
X146951312Y-50594630D01*
X146928328Y-50610873D01*
X146900990Y-50626161D01*
X146867986Y-50641130D01*
X146828002Y-50656414D01*
X146779727Y-50672647D01*
X146771935Y-50675154D01*
X146729093Y-50689557D01*
X146694701Y-50702548D01*
X146667862Y-50714745D01*
X146647673Y-50726768D01*
X146633234Y-50739232D01*
X146623646Y-50752758D01*
X146618008Y-50767964D01*
X146615419Y-50785466D01*
X146615007Y-50792014D01*
X146615232Y-50808544D01*
X146618595Y-50821735D01*
X146626092Y-50836335D01*
X146628821Y-50840789D01*
X146638709Y-50853232D01*
X146651889Y-50863511D01*
X146671370Y-50874136D01*
X146683782Y-50880048D01*
X146697681Y-50885490D01*
X146711166Y-50888533D01*
X146727619Y-50889864D01*
X146750419Y-50890166D01*
X146767603Y-50889855D01*
X146799218Y-50886819D01*
X146828134Y-50879793D01*
X146857587Y-50867853D01*
X146890809Y-50850077D01*
X146901215Y-50844256D01*
X146930652Y-50830855D01*
X146955178Y-50825098D01*
X146975511Y-50826887D01*
X146992371Y-50836123D01*
X146995966Y-50839587D01*
X147005570Y-50851178D01*
X147016817Y-50866867D01*
X147028477Y-50884662D01*
X147039318Y-50902568D01*
X147048112Y-50918592D01*
X147053627Y-50930741D01*
X147054634Y-50937021D01*
X147050582Y-50941124D01*
X147039494Y-50949631D01*
X147023883Y-50960368D01*
X147005976Y-50971869D01*
X146987997Y-50982670D01*
X146972172Y-50991306D01*
X146952992Y-50999853D01*
X146925437Y-51010151D01*
X146895196Y-51019976D01*
X146865927Y-51028147D01*
X146841290Y-51033486D01*
X146836673Y-51034182D01*
X146813373Y-51036391D01*
X146784558Y-51037686D01*
X146753270Y-51038065D01*
X146722550Y-51037524D01*
X146695437Y-51036059D01*
X146674972Y-51033668D01*
X146647211Y-51027831D01*
X146593903Y-51010775D01*
X146546527Y-50987332D01*
X146505738Y-50957932D01*
X146472186Y-50923006D01*
X146446524Y-50882984D01*
X146439659Y-50868304D01*
X146427616Y-50832055D01*
X146421448Y-50792370D01*
X146420686Y-50746772D01*
X146422393Y-50720884D01*
X146427981Y-50688741D01*
X146438210Y-50661469D01*
X146454182Y-50636411D01*
X146476996Y-50610914D01*
X146482243Y-50605835D01*
X146501074Y-50590109D01*
X146523209Y-50575480D01*
X146549893Y-50561333D01*
X146582371Y-50547052D01*
X146621889Y-50532021D01*
X146669691Y-50515625D01*
X146683343Y-50511080D01*
X146725481Y-50496357D01*
X146759238Y-50483100D01*
X146785466Y-50470714D01*
X146805017Y-50458603D01*
X146818741Y-50446171D01*
X146827489Y-50432821D01*
X146832114Y-50417958D01*
X146833467Y-50400987D01*
X146832733Y-50389500D01*
X146824787Y-50364044D01*
X146808423Y-50342954D01*
X146784031Y-50326639D01*
X146751997Y-50315506D01*
X146736341Y-50312382D01*
X146700088Y-50309701D01*
X146662610Y-50313627D01*
X146622203Y-50324422D01*
X146577166Y-50342347D01*
X146559320Y-50349970D01*
X146532617Y-50359030D01*
X146511932Y-50362211D01*
X146496225Y-50359615D01*
X146484457Y-50351342D01*
X146479265Y-50344969D01*
X146469951Y-50332040D01*
X146459163Y-50316033D01*
X146448313Y-50299157D01*
X146438814Y-50283621D01*
X146432079Y-50271636D01*
X146429520Y-50265410D01*
X146431078Y-50261755D01*
X146439360Y-50252700D01*
X146453300Y-50240918D01*
X146471223Y-50227782D01*
X146491455Y-50214664D01*
X146533249Y-50192736D01*
X146588055Y-50173250D01*
X146647539Y-50161695D01*
X146712429Y-50157885D01*
X146735846Y-50158297D01*
G37*
G36*
X152030960Y-50158297D02*
G01*
X152082604Y-50162907D01*
X152128952Y-50173110D01*
X152172273Y-50189507D01*
X152214831Y-50212696D01*
X152247035Y-50236799D01*
X152277372Y-50269405D01*
X152300819Y-50306331D01*
X152317229Y-50346357D01*
X152326453Y-50388262D01*
X152328345Y-50430827D01*
X152322757Y-50472831D01*
X152309541Y-50513054D01*
X152288549Y-50550276D01*
X152259635Y-50583276D01*
X152246426Y-50594630D01*
X152223442Y-50610873D01*
X152196104Y-50626161D01*
X152163100Y-50641130D01*
X152123116Y-50656414D01*
X152074841Y-50672647D01*
X152067049Y-50675154D01*
X152024207Y-50689557D01*
X151989815Y-50702548D01*
X151962976Y-50714745D01*
X151942787Y-50726768D01*
X151928348Y-50739232D01*
X151918760Y-50752758D01*
X151913122Y-50767964D01*
X151910533Y-50785466D01*
X151910121Y-50792014D01*
X151910346Y-50808544D01*
X151913709Y-50821735D01*
X151921206Y-50836335D01*
X151923935Y-50840789D01*
X151933823Y-50853232D01*
X151947003Y-50863511D01*
X151966484Y-50874136D01*
X151978896Y-50880048D01*
X151992795Y-50885490D01*
X152006280Y-50888533D01*
X152022733Y-50889864D01*
X152045533Y-50890166D01*
X152062717Y-50889855D01*
X152094332Y-50886819D01*
X152123248Y-50879793D01*
X152152701Y-50867853D01*
X152185923Y-50850077D01*
X152196329Y-50844256D01*
X152225766Y-50830855D01*
X152250292Y-50825098D01*
X152270625Y-50826887D01*
X152287485Y-50836123D01*
X152291080Y-50839587D01*
X152300684Y-50851178D01*
X152311931Y-50866867D01*
X152323591Y-50884662D01*
X152334432Y-50902568D01*
X152343226Y-50918592D01*
X152348741Y-50930741D01*
X152349748Y-50937021D01*
X152345696Y-50941124D01*
X152334608Y-50949631D01*
X152318997Y-50960368D01*
X152301090Y-50971869D01*
X152283111Y-50982670D01*
X152267286Y-50991306D01*
X152248106Y-50999853D01*
X152220551Y-51010151D01*
X152190310Y-51019976D01*
X152161041Y-51028147D01*
X152136404Y-51033486D01*
X152131787Y-51034182D01*
X152108487Y-51036391D01*
X152079672Y-51037686D01*
X152048384Y-51038065D01*
X152017664Y-51037524D01*
X151990551Y-51036059D01*
X151970086Y-51033668D01*
X151942325Y-51027831D01*
X151889017Y-51010775D01*
X151841641Y-50987332D01*
X151800852Y-50957932D01*
X151767300Y-50923006D01*
X151741638Y-50882984D01*
X151734773Y-50868304D01*
X151722730Y-50832055D01*
X151716562Y-50792370D01*
X151715800Y-50746772D01*
X151717507Y-50720884D01*
X151723095Y-50688741D01*
X151733324Y-50661469D01*
X151749296Y-50636411D01*
X151772110Y-50610914D01*
X151777357Y-50605835D01*
X151796188Y-50590109D01*
X151818323Y-50575480D01*
X151845007Y-50561333D01*
X151877485Y-50547052D01*
X151917003Y-50532021D01*
X151964805Y-50515625D01*
X151978457Y-50511080D01*
X152020595Y-50496357D01*
X152054352Y-50483100D01*
X152080580Y-50470714D01*
X152100131Y-50458603D01*
X152113855Y-50446171D01*
X152122604Y-50432821D01*
X152127228Y-50417958D01*
X152128581Y-50400987D01*
X152127847Y-50389500D01*
X152119901Y-50364044D01*
X152103537Y-50342954D01*
X152079145Y-50326639D01*
X152047111Y-50315506D01*
X152031455Y-50312382D01*
X151995202Y-50309701D01*
X151957724Y-50313627D01*
X151917317Y-50324422D01*
X151872280Y-50342347D01*
X151854434Y-50349970D01*
X151827731Y-50359030D01*
X151807046Y-50362211D01*
X151791339Y-50359615D01*
X151779571Y-50351342D01*
X151774379Y-50344969D01*
X151765065Y-50332040D01*
X151754277Y-50316033D01*
X151743427Y-50299157D01*
X151733928Y-50283621D01*
X151727193Y-50271636D01*
X151724634Y-50265410D01*
X151726192Y-50261755D01*
X151734474Y-50252700D01*
X151748414Y-50240918D01*
X151766338Y-50227782D01*
X151786569Y-50214664D01*
X151828363Y-50192736D01*
X151883169Y-50173250D01*
X151942653Y-50161695D01*
X152007543Y-50157885D01*
X152030960Y-50158297D01*
G37*
G36*
X154879228Y-50512136D02*
G01*
X154880782Y-50537005D01*
X154881944Y-50569132D01*
X154882285Y-50604634D01*
X154878407Y-50671454D01*
X154868147Y-50731863D01*
X154851198Y-50786741D01*
X154827254Y-50836966D01*
X154796007Y-50883417D01*
X154757152Y-50926975D01*
X154751280Y-50932696D01*
X154709413Y-50967719D01*
X154664265Y-50995299D01*
X154614087Y-51016352D01*
X154557130Y-51031795D01*
X154531622Y-51035459D01*
X154498320Y-51037429D01*
X154460639Y-51037634D01*
X154421202Y-51036172D01*
X154382633Y-51033144D01*
X154347558Y-51028648D01*
X154318600Y-51022783D01*
X154266397Y-51006619D01*
X154217384Y-50985050D01*
X154174253Y-50958310D01*
X154135337Y-50925515D01*
X154110190Y-50901207D01*
X154144267Y-50858007D01*
X154156417Y-50843001D01*
X154169944Y-50827239D01*
X154180789Y-50815638D01*
X154187344Y-50809991D01*
X154191908Y-50807905D01*
X154205618Y-50805475D01*
X154222490Y-50808015D01*
X154244024Y-50815871D01*
X154271718Y-50829386D01*
X154281688Y-50834573D01*
X154318158Y-50852129D01*
X154349981Y-50864571D01*
X154379589Y-50872594D01*
X154409414Y-50876897D01*
X154441889Y-50878176D01*
X154442851Y-50878176D01*
X154475115Y-50877200D01*
X154501112Y-50874110D01*
X154524070Y-50868529D01*
X154536697Y-50864140D01*
X154574571Y-50844454D01*
X154607532Y-50817030D01*
X154634523Y-50782885D01*
X154654485Y-50743035D01*
X154655333Y-50740686D01*
X154659914Y-50725290D01*
X154665055Y-50704752D01*
X154670137Y-50681980D01*
X154674536Y-50659881D01*
X154677631Y-50641362D01*
X154678801Y-50629330D01*
X154676800Y-50628812D01*
X154666229Y-50628050D01*
X154647326Y-50627347D01*
X154620945Y-50626716D01*
X154587936Y-50626170D01*
X154549151Y-50625722D01*
X154505442Y-50625386D01*
X154457660Y-50625174D01*
X154406657Y-50625101D01*
X154372867Y-50625078D01*
X154323863Y-50624958D01*
X154278255Y-50624746D01*
X154236949Y-50624452D01*
X154200850Y-50624084D01*
X154170864Y-50623653D01*
X154147896Y-50623168D01*
X154132851Y-50622640D01*
X154126634Y-50622078D01*
X154122791Y-50620165D01*
X154114385Y-50611060D01*
X154108719Y-50595436D01*
X154105520Y-50572286D01*
X154104515Y-50540601D01*
X154104535Y-50535738D01*
X154106767Y-50503430D01*
X154288541Y-50503430D01*
X154481238Y-50503430D01*
X154494657Y-50503423D01*
X154536007Y-50503308D01*
X154573837Y-50503065D01*
X154607111Y-50502710D01*
X154634793Y-50502258D01*
X154655848Y-50501726D01*
X154669240Y-50501128D01*
X154673934Y-50500482D01*
X154673740Y-50497770D01*
X154670998Y-50484584D01*
X154665771Y-50466363D01*
X154659027Y-50446079D01*
X154651733Y-50426703D01*
X154644857Y-50411205D01*
X154640767Y-50403499D01*
X154616632Y-50369538D01*
X154586347Y-50343115D01*
X154549964Y-50324266D01*
X154507536Y-50313030D01*
X154483551Y-50310370D01*
X154441112Y-50312149D01*
X154401880Y-50322323D01*
X154366882Y-50340569D01*
X154337149Y-50366563D01*
X154317082Y-50394834D01*
X154301158Y-50432827D01*
X154291761Y-50477879D01*
X154288541Y-50503430D01*
X154106767Y-50503430D01*
X154109019Y-50470828D01*
X154121404Y-50411495D01*
X154141765Y-50357535D01*
X154170178Y-50308744D01*
X154206719Y-50264915D01*
X154227517Y-50245220D01*
X154261161Y-50219787D01*
X154298802Y-50199234D01*
X154343254Y-50181849D01*
X154359328Y-50176675D01*
X154379447Y-50171270D01*
X154399211Y-50167711D01*
X154421981Y-50165440D01*
X154451120Y-50163896D01*
X154484468Y-50163376D01*
X154546336Y-50167667D01*
X154602720Y-50179234D01*
X154654506Y-50198293D01*
X154702577Y-50225058D01*
X154734441Y-50248139D01*
X154778647Y-50289155D01*
X154815197Y-50335874D01*
X154844453Y-50388791D01*
X154866778Y-50448399D01*
X154869102Y-50456325D01*
X154873699Y-50474271D01*
X154876970Y-50492050D01*
X154877918Y-50500482D01*
X154879228Y-50512136D01*
G37*
G36*
X157097617Y-50812335D02*
G01*
X157096667Y-50836982D01*
X157088779Y-50883880D01*
X157073084Y-50925193D01*
X157049796Y-50960632D01*
X157019130Y-50989907D01*
X156981302Y-51012731D01*
X156936526Y-51028814D01*
X156919262Y-51032557D01*
X156882014Y-51037083D01*
X156841112Y-51038408D01*
X156800173Y-51036480D01*
X156762817Y-51031249D01*
X156734842Y-51023926D01*
X156693616Y-51008079D01*
X156652905Y-50987148D01*
X156616277Y-50962801D01*
X156613108Y-50960383D01*
X156597458Y-50948457D01*
X156584439Y-50938567D01*
X156576601Y-50932650D01*
X156574561Y-50931260D01*
X156570533Y-50930424D01*
X156566963Y-50934380D01*
X156562861Y-50944664D01*
X156557241Y-50962815D01*
X156550671Y-50981822D01*
X156542573Y-50999290D01*
X156534962Y-51010085D01*
X156530718Y-51013498D01*
X156516519Y-51020281D01*
X156496058Y-51024950D01*
X156468216Y-51027708D01*
X156431876Y-51028758D01*
X156386657Y-51029048D01*
X156387719Y-50804162D01*
X156586339Y-50804162D01*
X156614453Y-50829290D01*
X156634713Y-50845491D01*
X156669738Y-50867081D01*
X156706704Y-50883336D01*
X156742338Y-50892637D01*
X156765991Y-50895444D01*
X156804945Y-50895409D01*
X156837702Y-50888821D01*
X156863891Y-50875896D01*
X156883143Y-50856850D01*
X156895088Y-50831898D01*
X156899354Y-50801256D01*
X156899113Y-50790763D01*
X156894595Y-50766441D01*
X156883344Y-50745822D01*
X156863980Y-50725975D01*
X156848663Y-50715024D01*
X156818724Y-50700273D01*
X156781663Y-50687806D01*
X156738962Y-50678011D01*
X156692103Y-50671277D01*
X156642568Y-50667991D01*
X156589033Y-50666469D01*
X156587686Y-50735316D01*
X156586339Y-50804162D01*
X156387719Y-50804162D01*
X156388134Y-50716354D01*
X156388397Y-50661187D01*
X156388682Y-50606185D01*
X156388975Y-50559463D01*
X156389305Y-50520243D01*
X156389700Y-50487748D01*
X156390189Y-50461199D01*
X156390800Y-50439820D01*
X156391564Y-50422833D01*
X156392507Y-50409460D01*
X156393660Y-50398923D01*
X156395050Y-50390446D01*
X156396706Y-50383250D01*
X156398658Y-50376558D01*
X156400933Y-50369592D01*
X156405871Y-50355589D01*
X156429327Y-50305053D01*
X156459276Y-50261746D01*
X156495832Y-50225549D01*
X156539108Y-50196344D01*
X156589219Y-50174014D01*
X156599554Y-50170433D01*
X156612759Y-50166372D01*
X156625327Y-50163580D01*
X156639331Y-50161825D01*
X156656846Y-50160879D01*
X156679946Y-50160508D01*
X156710704Y-50160482D01*
X156744888Y-50160963D01*
X156783754Y-50163114D01*
X156817659Y-50167444D01*
X156849274Y-50174445D01*
X156881270Y-50184610D01*
X156916319Y-50198432D01*
X156936801Y-50207990D01*
X156962712Y-50221900D01*
X156989143Y-50237631D01*
X157013753Y-50253713D01*
X157034198Y-50268679D01*
X157048136Y-50281059D01*
X157059490Y-50293210D01*
X157036787Y-50332570D01*
X157031590Y-50341360D01*
X157015604Y-50364856D01*
X157000331Y-50380746D01*
X156984249Y-50390374D01*
X156965835Y-50395081D01*
X156958430Y-50395611D01*
X156949560Y-50394673D01*
X156938640Y-50391523D01*
X156924036Y-50385568D01*
X156904115Y-50376214D01*
X156877243Y-50362867D01*
X156855987Y-50352290D01*
X156833070Y-50341447D01*
X156814832Y-50333849D01*
X156799049Y-50328689D01*
X156783496Y-50325159D01*
X156765946Y-50322451D01*
X156743352Y-50319876D01*
X156725698Y-50319303D01*
X156709589Y-50320953D01*
X156690981Y-50324961D01*
X156680148Y-50327935D01*
X156652187Y-50339483D01*
X156630043Y-50355807D01*
X156613146Y-50377807D01*
X156600925Y-50406381D01*
X156592810Y-50442428D01*
X156588230Y-50486847D01*
X156585214Y-50535967D01*
X156657693Y-50538906D01*
X156667696Y-50539358D01*
X156740780Y-50545589D01*
X156808465Y-50556610D01*
X156870267Y-50572188D01*
X156925699Y-50592086D01*
X156974273Y-50616069D01*
X157015504Y-50643901D01*
X157048906Y-50675348D01*
X157073991Y-50710175D01*
X157090274Y-50748145D01*
X157090554Y-50749117D01*
X157094123Y-50767003D01*
X157096655Y-50789626D01*
X157097148Y-50801256D01*
X157097617Y-50812335D01*
G37*
G36*
X149688924Y-52988489D02*
G01*
X149681548Y-53102620D01*
X149668974Y-53212628D01*
X149651202Y-53316459D01*
X149640061Y-53367122D01*
X149611921Y-53469839D01*
X149577861Y-53565489D01*
X149538009Y-53653930D01*
X149492493Y-53735021D01*
X149441443Y-53808619D01*
X149384985Y-53874582D01*
X149323249Y-53932770D01*
X149256363Y-53983040D01*
X149184456Y-54025250D01*
X149107655Y-54059259D01*
X149026090Y-54084924D01*
X148939887Y-54102105D01*
X148928118Y-54103626D01*
X148891795Y-54106711D01*
X148849979Y-54108479D01*
X148805674Y-54108928D01*
X148761885Y-54108055D01*
X148721617Y-54105858D01*
X148687876Y-54102333D01*
X148671077Y-54099777D01*
X148584848Y-54081066D01*
X148502969Y-54053734D01*
X148425701Y-54017979D01*
X148353307Y-53974000D01*
X148286048Y-53921994D01*
X148224186Y-53862160D01*
X148167984Y-53794696D01*
X148117703Y-53719800D01*
X148073605Y-53637670D01*
X148052488Y-53591214D01*
X148018652Y-53504669D01*
X147990452Y-53414512D01*
X147967732Y-53319924D01*
X147950334Y-53220086D01*
X147938102Y-53114178D01*
X147930878Y-53001382D01*
X147928504Y-52880878D01*
X148355307Y-52880878D01*
X148355355Y-52905762D01*
X148356155Y-52977331D01*
X148358060Y-53041248D01*
X148361220Y-53099058D01*
X148365785Y-53152304D01*
X148371905Y-53202530D01*
X148379733Y-53251280D01*
X148389417Y-53300098D01*
X148401108Y-53350527D01*
X148422053Y-53424737D01*
X148448852Y-53497132D01*
X148479809Y-53560759D01*
X148514918Y-53615609D01*
X148554173Y-53661672D01*
X148597568Y-53698940D01*
X148645096Y-53727401D01*
X148655369Y-53732203D01*
X148679607Y-53742443D01*
X148703050Y-53751090D01*
X148721798Y-53756656D01*
X148761080Y-53763684D01*
X148819899Y-53766731D01*
X148878095Y-53761203D01*
X148933505Y-53747195D01*
X148956766Y-53738271D01*
X149005419Y-53712457D01*
X149049824Y-53678349D01*
X149090044Y-53635854D01*
X149126140Y-53584876D01*
X149158175Y-53525321D01*
X149186209Y-53457094D01*
X149210306Y-53380101D01*
X149230528Y-53294248D01*
X149242133Y-53227257D01*
X149251910Y-53148107D01*
X149258920Y-53063255D01*
X149263164Y-52974581D01*
X149264642Y-52883965D01*
X149263352Y-52793284D01*
X149259296Y-52704419D01*
X149252473Y-52619249D01*
X149242884Y-52539652D01*
X149230528Y-52467508D01*
X149217148Y-52408119D01*
X149194382Y-52328918D01*
X149167719Y-52258140D01*
X149137221Y-52195895D01*
X149102954Y-52142291D01*
X149064979Y-52097437D01*
X149023360Y-52061442D01*
X148978160Y-52034414D01*
X148962884Y-52027308D01*
X148925055Y-52012186D01*
X148889627Y-52002448D01*
X148853065Y-51997276D01*
X148811834Y-51995850D01*
X148806868Y-51995886D01*
X148762886Y-51998243D01*
X148723829Y-52004847D01*
X148685848Y-52016585D01*
X148645096Y-52034346D01*
X148601329Y-52060135D01*
X148557584Y-52096688D01*
X148517982Y-52142038D01*
X148482527Y-52196176D01*
X148451226Y-52259093D01*
X148424085Y-52330780D01*
X148401108Y-52411228D01*
X148397122Y-52427709D01*
X148386092Y-52477452D01*
X148377021Y-52526079D01*
X148369759Y-52575135D01*
X148364155Y-52626164D01*
X148360058Y-52680708D01*
X148357318Y-52740313D01*
X148355785Y-52806522D01*
X148355307Y-52880878D01*
X147928504Y-52880878D01*
X147929296Y-52808562D01*
X147934003Y-52698196D01*
X147943108Y-52595004D01*
X147956797Y-52497962D01*
X147975256Y-52406049D01*
X147998670Y-52318242D01*
X148027225Y-52233517D01*
X148061107Y-52150853D01*
X148098598Y-52075254D01*
X148146629Y-51996952D01*
X148200506Y-51926212D01*
X148259983Y-51863197D01*
X148324813Y-51808070D01*
X148394752Y-51760994D01*
X148469553Y-51722132D01*
X148548969Y-51691648D01*
X148632757Y-51669704D01*
X148720669Y-51656464D01*
X148812459Y-51652092D01*
X148897568Y-51655986D01*
X148985206Y-51668570D01*
X149068471Y-51689711D01*
X149147208Y-51719263D01*
X149221261Y-51757079D01*
X149290475Y-51803011D01*
X149354696Y-51856914D01*
X149413767Y-51918640D01*
X149467534Y-51988043D01*
X149515841Y-52064977D01*
X149558533Y-52149293D01*
X149595455Y-52240846D01*
X149626451Y-52339489D01*
X149651367Y-52445075D01*
X149666440Y-52531799D01*
X149679860Y-52641890D01*
X149688080Y-52756071D01*
X149691102Y-52872288D01*
X149690883Y-52883965D01*
X149688924Y-52988489D01*
G37*
G36*
X157722905Y-49813862D02*
G01*
X157724656Y-49813923D01*
X157774528Y-49816625D01*
X157817784Y-49821217D01*
X157857354Y-49828211D01*
X157896165Y-49838123D01*
X157937146Y-49851467D01*
X157941752Y-49853104D01*
X157968667Y-49863117D01*
X157990943Y-49872589D01*
X158011711Y-49883081D01*
X158034103Y-49896154D01*
X158061250Y-49913372D01*
X158091935Y-49934890D01*
X158145017Y-49981025D01*
X158191805Y-50034053D01*
X158231866Y-50093293D01*
X158264768Y-50158062D01*
X158290078Y-50227677D01*
X158307363Y-50301456D01*
X158311830Y-50335372D01*
X158314822Y-50377922D01*
X158315899Y-50423508D01*
X158315058Y-50468986D01*
X158312295Y-50511212D01*
X158307608Y-50547041D01*
X158290780Y-50617599D01*
X158265124Y-50687862D01*
X158231715Y-50753793D01*
X158191108Y-50814304D01*
X158143854Y-50868311D01*
X158137941Y-50874128D01*
X158085244Y-50918977D01*
X158026590Y-50957790D01*
X157963741Y-50989658D01*
X157898460Y-51013672D01*
X157832509Y-51028922D01*
X157830011Y-51029324D01*
X157811630Y-51032320D01*
X157796862Y-51034786D01*
X157788707Y-51036222D01*
X157786014Y-51036499D01*
X157774439Y-51037023D01*
X157755990Y-51037507D01*
X157732542Y-51037907D01*
X157705971Y-51038177D01*
X157683804Y-51038168D01*
X157613953Y-51035604D01*
X157550081Y-51028893D01*
X157489867Y-51017730D01*
X157430995Y-51001807D01*
X157414834Y-50996290D01*
X157384570Y-50984200D01*
X157352295Y-50969587D01*
X157320829Y-50953824D01*
X157292992Y-50938281D01*
X157271606Y-50924330D01*
X157248489Y-50907283D01*
X157248489Y-50666422D01*
X157248489Y-50425561D01*
X157450463Y-50425561D01*
X157652436Y-50425561D01*
X157652436Y-50496351D01*
X157652430Y-50508142D01*
X157652274Y-50532508D01*
X157651718Y-50549545D01*
X157650512Y-50560988D01*
X157648406Y-50568571D01*
X157645149Y-50574026D01*
X157640490Y-50579087D01*
X157639792Y-50579783D01*
X157635252Y-50583897D01*
X157630178Y-50586862D01*
X157623040Y-50588865D01*
X157612301Y-50590096D01*
X157596430Y-50590742D01*
X157573892Y-50590992D01*
X157543154Y-50591033D01*
X157457763Y-50591033D01*
X157457763Y-50700077D01*
X157457763Y-50809120D01*
X157498456Y-50823844D01*
X157544215Y-50838203D01*
X157607975Y-50851335D01*
X157671605Y-50856888D01*
X157733839Y-50854921D01*
X157793408Y-50845497D01*
X157849045Y-50828675D01*
X157899482Y-50804518D01*
X157902975Y-50802409D01*
X157929607Y-50783123D01*
X157957759Y-50758054D01*
X157984944Y-50729765D01*
X158008674Y-50700817D01*
X158026462Y-50673769D01*
X158030835Y-50665675D01*
X158056793Y-50605939D01*
X158074330Y-50541330D01*
X158083443Y-50471857D01*
X158084130Y-50397530D01*
X158083522Y-50385970D01*
X158078536Y-50335299D01*
X158069525Y-50289919D01*
X158055689Y-50246563D01*
X158036228Y-50201963D01*
X158027306Y-50184132D01*
X158015945Y-50163939D01*
X158004029Y-50146833D01*
X157989288Y-50129663D01*
X157969451Y-50109279D01*
X157969397Y-50109225D01*
X157946928Y-50087786D01*
X157927527Y-50071756D01*
X157908223Y-50058917D01*
X157886044Y-50047053D01*
X157866594Y-50037827D01*
X157834448Y-50024700D01*
X157803569Y-50015503D01*
X157771240Y-50009662D01*
X157734746Y-50006599D01*
X157691371Y-50005739D01*
X157673643Y-50005810D01*
X157646553Y-50006330D01*
X157625064Y-50007590D01*
X157606486Y-50009869D01*
X157588131Y-50013446D01*
X157567308Y-50018599D01*
X157556996Y-50021406D01*
X157532321Y-50029097D01*
X157507791Y-50038417D01*
X157481323Y-50050271D01*
X157450832Y-50065568D01*
X157414233Y-50085214D01*
X157395225Y-50095157D01*
X157381580Y-50100775D01*
X157370939Y-50102742D01*
X157360698Y-50101869D01*
X157359854Y-50101705D01*
X157345322Y-50097040D01*
X157334096Y-50090554D01*
X157330840Y-50087045D01*
X157322508Y-50076255D01*
X157311382Y-50060686D01*
X157298666Y-50042153D01*
X157285564Y-50022474D01*
X157273278Y-50003466D01*
X157263012Y-49986946D01*
X157255971Y-49974732D01*
X157253356Y-49968640D01*
X157255069Y-49965135D01*
X157263801Y-49956467D01*
X157278616Y-49944739D01*
X157298031Y-49930949D01*
X157320564Y-49916097D01*
X157344735Y-49901180D01*
X157369061Y-49887198D01*
X157392061Y-49875149D01*
X157433273Y-49856500D01*
X157484477Y-49838223D01*
X157537181Y-49825166D01*
X157593247Y-49816983D01*
X157654534Y-49813330D01*
X157722905Y-49813862D01*
G37*
G36*
X157399471Y-51643001D02*
G01*
X157490506Y-51649133D01*
X157575865Y-51661831D01*
X157656821Y-51681373D01*
X157734645Y-51708038D01*
X157810608Y-51742105D01*
X157810653Y-51742127D01*
X157888650Y-51786457D01*
X157959822Y-51837638D01*
X158024028Y-51895442D01*
X158081123Y-51959641D01*
X158130963Y-52030008D01*
X158173406Y-52106314D01*
X158208308Y-52188332D01*
X158235526Y-52275833D01*
X158254915Y-52368589D01*
X158266333Y-52466373D01*
X158269083Y-52527512D01*
X158266117Y-52624688D01*
X158254135Y-52719719D01*
X158233263Y-52811962D01*
X158203626Y-52900774D01*
X158165347Y-52985515D01*
X158142073Y-53028133D01*
X158104940Y-53086325D01*
X158063342Y-53139987D01*
X158015015Y-53192234D01*
X158003967Y-53203110D01*
X157935888Y-53262235D01*
X157862276Y-53313475D01*
X157783559Y-53356620D01*
X157700161Y-53391459D01*
X157612510Y-53417784D01*
X157521032Y-53435383D01*
X157513036Y-53436383D01*
X157484217Y-53438722D01*
X157448356Y-53440276D01*
X157407423Y-53441070D01*
X157363391Y-53441126D01*
X157318231Y-53440468D01*
X157273915Y-53439120D01*
X157232416Y-53437104D01*
X157195704Y-53434444D01*
X157165753Y-53431164D01*
X157100733Y-53420402D01*
X157006866Y-53397867D01*
X156918180Y-53367611D01*
X156833878Y-53329350D01*
X156753163Y-53282796D01*
X156713137Y-53257120D01*
X156713137Y-52897443D01*
X156713137Y-52537766D01*
X157005147Y-52537766D01*
X157297157Y-52537766D01*
X157297157Y-52640435D01*
X157297190Y-52662243D01*
X157297051Y-52697203D01*
X157295840Y-52724882D01*
X157292595Y-52746127D01*
X157286354Y-52761788D01*
X157276157Y-52772713D01*
X157261040Y-52779749D01*
X157240043Y-52783745D01*
X157212203Y-52785549D01*
X157176560Y-52786010D01*
X157132151Y-52785975D01*
X157010014Y-52785975D01*
X157010014Y-52946226D01*
X157010014Y-53106478D01*
X157047732Y-53120928D01*
X157085443Y-53134715D01*
X157141199Y-53152067D01*
X157195143Y-53164574D01*
X157250815Y-53173003D01*
X157311758Y-53178122D01*
X157343544Y-53179194D01*
X157418654Y-53175746D01*
X157491744Y-53164071D01*
X157561633Y-53144471D01*
X157627145Y-53117243D01*
X157687101Y-53082688D01*
X157700439Y-53073014D01*
X157726349Y-53051331D01*
X157753865Y-53025414D01*
X157780577Y-52997695D01*
X157804075Y-52970606D01*
X157821948Y-52946580D01*
X157833870Y-52927634D01*
X157867866Y-52862670D01*
X157895519Y-52791491D01*
X157916298Y-52715406D01*
X157916719Y-52713464D01*
X157920425Y-52693166D01*
X157923306Y-52670111D01*
X157925503Y-52642555D01*
X157927159Y-52608754D01*
X157928416Y-52566967D01*
X157928938Y-52543192D01*
X157929379Y-52511109D01*
X157929227Y-52485310D01*
X157928381Y-52463662D01*
X157926742Y-52444037D01*
X157924208Y-52424302D01*
X157920682Y-52402327D01*
X157917099Y-52382717D01*
X157898027Y-52306350D01*
X157871848Y-52236480D01*
X157838429Y-52172846D01*
X157797639Y-52115190D01*
X157749347Y-52063250D01*
X157722550Y-52039559D01*
X157670426Y-52001926D01*
X157613813Y-51971658D01*
X157551570Y-51948189D01*
X157482555Y-51930952D01*
X157457832Y-51927257D01*
X157422222Y-51924276D01*
X157381998Y-51922748D01*
X157339863Y-51922669D01*
X157298520Y-51924038D01*
X157260672Y-51926854D01*
X157229022Y-51931114D01*
X157225327Y-51931786D01*
X157171600Y-51943107D01*
X157123526Y-51956743D01*
X157077990Y-51973855D01*
X157031878Y-51995604D01*
X156982074Y-52023151D01*
X156980791Y-52023900D01*
X156958490Y-52036567D01*
X156937693Y-52047764D01*
X156920675Y-52056303D01*
X156909711Y-52060993D01*
X156904811Y-52062416D01*
X156879673Y-52064864D01*
X156854633Y-52060507D01*
X156833601Y-52049915D01*
X156828662Y-52044785D01*
X156818780Y-52032288D01*
X156805698Y-52014456D01*
X156790497Y-51992895D01*
X156774264Y-51969209D01*
X156758080Y-51945003D01*
X156743031Y-51921881D01*
X156730198Y-51901448D01*
X156720667Y-51885308D01*
X156715520Y-51875066D01*
X156715299Y-51873471D01*
X156719616Y-51865030D01*
X156731107Y-51852977D01*
X156748672Y-51838080D01*
X156771211Y-51821110D01*
X156797623Y-51802837D01*
X156826806Y-51784030D01*
X156857660Y-51765459D01*
X156889084Y-51747893D01*
X156919978Y-51732104D01*
X156932124Y-51726320D01*
X156996132Y-51699134D01*
X157060425Y-51677696D01*
X157126724Y-51661649D01*
X157196749Y-51650639D01*
X157272220Y-51644311D01*
X157354858Y-51642309D01*
X157399471Y-51643001D01*
G37*
G36*
X146928550Y-51659786D02*
G01*
X147015387Y-51669484D01*
X147097230Y-51686305D01*
X147175150Y-51710475D01*
X147250223Y-51742217D01*
X147298311Y-51767789D01*
X147365561Y-51812598D01*
X147427502Y-51865151D01*
X147483656Y-51924919D01*
X147533545Y-51991374D01*
X147576690Y-52063988D01*
X147612613Y-52142234D01*
X147613180Y-52143672D01*
X147621556Y-52167162D01*
X147630479Y-52195676D01*
X147639331Y-52226843D01*
X147647494Y-52258289D01*
X147654352Y-52287644D01*
X147659285Y-52312535D01*
X147661677Y-52330592D01*
X147663262Y-52354592D01*
X147544025Y-52375368D01*
X147521807Y-52379157D01*
X147487814Y-52384646D01*
X147456418Y-52389359D01*
X147429363Y-52393051D01*
X147408393Y-52395476D01*
X147395253Y-52396386D01*
X147366411Y-52394748D01*
X147332091Y-52386258D01*
X147303002Y-52370187D01*
X147278655Y-52346139D01*
X147258559Y-52313717D01*
X147242225Y-52272524D01*
X147228312Y-52235044D01*
X147201444Y-52182329D01*
X147168250Y-52135171D01*
X147129513Y-52094479D01*
X147086016Y-52061164D01*
X147038543Y-52036135D01*
X146990336Y-52019658D01*
X146934232Y-52008287D01*
X146876623Y-52003924D01*
X146819247Y-52006480D01*
X146763840Y-52015870D01*
X146712139Y-52032005D01*
X146665882Y-52054799D01*
X146640528Y-52072331D01*
X146603597Y-52107089D01*
X146572600Y-52148735D01*
X146548200Y-52196310D01*
X146531064Y-52248858D01*
X146524404Y-52284695D01*
X146520218Y-52337872D01*
X146521282Y-52394761D01*
X146527418Y-52452916D01*
X146538445Y-52509890D01*
X146554183Y-52563238D01*
X146555194Y-52566045D01*
X146568799Y-52599660D01*
X146586395Y-52637659D01*
X146606373Y-52676869D01*
X146627125Y-52714119D01*
X146647040Y-52746238D01*
X146649390Y-52749763D01*
X146661489Y-52767634D01*
X146673663Y-52785037D01*
X146686291Y-52802381D01*
X146699752Y-52820071D01*
X146714426Y-52838516D01*
X146730692Y-52858123D01*
X146748928Y-52879299D01*
X146769516Y-52902452D01*
X146792832Y-52927988D01*
X146819258Y-52956316D01*
X146849171Y-52987841D01*
X146882952Y-53022972D01*
X146920980Y-53062117D01*
X146963633Y-53105681D01*
X147011292Y-53154073D01*
X147064335Y-53207700D01*
X147123141Y-53266969D01*
X147188091Y-53332287D01*
X147259562Y-53404062D01*
X147267812Y-53412343D01*
X147328294Y-53473063D01*
X147382331Y-53527345D01*
X147430304Y-53575589D01*
X147472597Y-53618196D01*
X147509590Y-53655565D01*
X147541666Y-53688098D01*
X147569206Y-53716194D01*
X147592592Y-53740255D01*
X147612206Y-53760679D01*
X147628429Y-53777869D01*
X147641645Y-53792223D01*
X147652234Y-53804142D01*
X147660578Y-53814027D01*
X147667059Y-53822277D01*
X147672059Y-53829294D01*
X147675960Y-53835477D01*
X147679144Y-53841227D01*
X147681992Y-53846944D01*
X147689871Y-53864666D01*
X147697765Y-53887522D01*
X147703348Y-53912100D01*
X147706943Y-53940391D01*
X147708872Y-53974383D01*
X147709460Y-54016067D01*
X147709497Y-54085419D01*
X146881806Y-54085419D01*
X146054114Y-54085419D01*
X146055661Y-53942702D01*
X146057207Y-53799985D01*
X146071917Y-53771146D01*
X146073704Y-53767776D01*
X146093915Y-53740548D01*
X146120462Y-53719370D01*
X146151247Y-53705964D01*
X146156777Y-53705189D01*
X146172521Y-53704236D01*
X146197505Y-53703396D01*
X146231442Y-53702675D01*
X146274048Y-53702075D01*
X146325038Y-53701600D01*
X146384129Y-53701254D01*
X146451035Y-53701042D01*
X146525472Y-53700966D01*
X146540575Y-53700966D01*
X146610986Y-53700989D01*
X146672638Y-53701090D01*
X146726346Y-53701314D01*
X146772921Y-53701707D01*
X146813178Y-53702315D01*
X146847929Y-53703183D01*
X146877989Y-53704356D01*
X146904170Y-53705881D01*
X146927286Y-53707803D01*
X146948150Y-53710168D01*
X146967576Y-53713021D01*
X146986377Y-53716407D01*
X147005366Y-53720374D01*
X147025358Y-53724965D01*
X147047164Y-53730227D01*
X147049555Y-53730811D01*
X147072034Y-53736242D01*
X147090734Y-53740669D01*
X147103766Y-53743649D01*
X147109238Y-53744741D01*
X147109057Y-53744308D01*
X147104233Y-53738713D01*
X147093683Y-53727328D01*
X147078216Y-53711002D01*
X147058639Y-53690584D01*
X147035761Y-53666924D01*
X147010390Y-53640873D01*
X147003567Y-53633890D01*
X146978265Y-53607998D01*
X146947595Y-53576619D01*
X146912646Y-53540864D01*
X146874506Y-53501847D01*
X146834263Y-53460682D01*
X146793005Y-53418481D01*
X146751820Y-53376356D01*
X146711796Y-53335422D01*
X146658496Y-53280848D01*
X146603878Y-53224738D01*
X146555227Y-53174496D01*
X146512055Y-53129580D01*
X146473876Y-53089450D01*
X146440205Y-53053564D01*
X146410554Y-53021379D01*
X146384437Y-52992356D01*
X146361368Y-52965952D01*
X146340860Y-52941625D01*
X146322427Y-52918835D01*
X146305582Y-52897040D01*
X146289839Y-52875698D01*
X146274711Y-52854269D01*
X146259712Y-52832210D01*
X146223634Y-52775179D01*
X146179670Y-52693893D01*
X146145075Y-52613380D01*
X146119696Y-52533266D01*
X146103378Y-52453178D01*
X146101731Y-52439930D01*
X146099269Y-52406793D01*
X146098064Y-52368396D01*
X146098091Y-52327696D01*
X146099326Y-52287653D01*
X146101743Y-52251223D01*
X146105319Y-52221364D01*
X146116683Y-52165151D01*
X146139860Y-52089263D01*
X146170930Y-52018618D01*
X146209561Y-51953473D01*
X146255416Y-51894085D01*
X146308161Y-51840708D01*
X146367461Y-51793601D01*
X146432981Y-51753019D01*
X146504388Y-51719219D01*
X146581345Y-51692457D01*
X146663519Y-51672990D01*
X146750574Y-51661073D01*
X146842176Y-51656964D01*
X146928550Y-51659786D01*
G37*
G36*
X145590421Y-53268271D02*
G01*
X145626644Y-53360612D01*
X145661359Y-53449132D01*
X145694419Y-53533459D01*
X145725676Y-53613217D01*
X145754985Y-53688033D01*
X145782199Y-53757533D01*
X145807172Y-53821341D01*
X145829756Y-53879084D01*
X145849806Y-53930388D01*
X145867174Y-53974878D01*
X145881715Y-54012181D01*
X145893281Y-54041921D01*
X145901727Y-54063725D01*
X145906905Y-54077218D01*
X145908670Y-54082026D01*
X145908165Y-54082307D01*
X145900542Y-54083084D01*
X145884555Y-54083727D01*
X145861238Y-54084222D01*
X145831622Y-54084555D01*
X145796741Y-54084715D01*
X145757627Y-54084687D01*
X145715312Y-54084460D01*
X145680006Y-54084185D01*
X145637771Y-54083811D01*
X145603550Y-54083402D01*
X145576338Y-54082897D01*
X145555126Y-54082240D01*
X145538909Y-54081370D01*
X145526681Y-54080231D01*
X145517435Y-54078763D01*
X145510163Y-54076908D01*
X145503861Y-54074607D01*
X145497521Y-54071802D01*
X145482448Y-54063543D01*
X145458119Y-54045232D01*
X145436698Y-54023434D01*
X145421429Y-54001161D01*
X145420356Y-53998848D01*
X145415584Y-53987237D01*
X145407981Y-53967790D01*
X145397897Y-53941432D01*
X145385678Y-53909088D01*
X145371674Y-53871682D01*
X145356233Y-53830141D01*
X145339703Y-53785390D01*
X145322433Y-53738352D01*
X145233023Y-53494099D01*
X144736764Y-53492859D01*
X144694649Y-53492756D01*
X144618878Y-53492582D01*
X144552000Y-53492455D01*
X144493457Y-53492383D01*
X144442691Y-53492374D01*
X144399145Y-53492437D01*
X144362261Y-53492579D01*
X144331481Y-53492808D01*
X144306248Y-53493134D01*
X144286005Y-53493563D01*
X144270193Y-53494104D01*
X144258255Y-53494765D01*
X144249633Y-53495555D01*
X144243770Y-53496481D01*
X144240109Y-53497552D01*
X144238091Y-53498775D01*
X144237159Y-53500159D01*
X144236749Y-53501237D01*
X144233414Y-53510218D01*
X144227164Y-53527147D01*
X144218327Y-53551135D01*
X144207231Y-53581290D01*
X144194204Y-53616723D01*
X144179573Y-53656543D01*
X144163666Y-53699859D01*
X144146809Y-53745780D01*
X144141581Y-53760017D01*
X144124769Y-53805633D01*
X144108847Y-53848603D01*
X144094165Y-53887997D01*
X144081071Y-53922888D01*
X144069915Y-53952348D01*
X144061046Y-53975448D01*
X144054814Y-53991260D01*
X144051567Y-53998856D01*
X144041246Y-54016638D01*
X144017811Y-54044612D01*
X143988954Y-54064870D01*
X143953731Y-54078176D01*
X143944642Y-54080092D01*
X143932423Y-54081710D01*
X143916386Y-54082985D01*
X143895547Y-54083952D01*
X143868918Y-54084645D01*
X143835514Y-54085098D01*
X143794350Y-54085344D01*
X143744439Y-54085419D01*
X143740405Y-54085418D01*
X143699731Y-54085306D01*
X143662396Y-54085022D01*
X143629465Y-54084587D01*
X143602005Y-54084023D01*
X143581080Y-54083351D01*
X143567757Y-54082592D01*
X143563102Y-54081769D01*
X143564547Y-54077835D01*
X143569404Y-54065192D01*
X143577544Y-54044202D01*
X143588818Y-54015239D01*
X143603082Y-53978677D01*
X143620187Y-53934891D01*
X143639988Y-53884253D01*
X143662338Y-53827140D01*
X143687090Y-53763924D01*
X143714099Y-53694979D01*
X143743216Y-53620681D01*
X143774296Y-53541403D01*
X143807193Y-53457519D01*
X143841759Y-53369403D01*
X143877848Y-53277430D01*
X143915314Y-53181974D01*
X143920314Y-53169238D01*
X144357515Y-53169238D01*
X144358203Y-53170135D01*
X144362538Y-53171179D01*
X144371259Y-53172082D01*
X144384900Y-53172854D01*
X144403996Y-53173502D01*
X144429083Y-53174037D01*
X144460694Y-53174465D01*
X144499365Y-53174796D01*
X144545631Y-53175039D01*
X144600025Y-53175201D01*
X144663084Y-53175293D01*
X144735341Y-53175321D01*
X144751668Y-53175320D01*
X144810839Y-53175290D01*
X144866911Y-53175223D01*
X144919147Y-53175122D01*
X144966810Y-53174991D01*
X145009164Y-53174832D01*
X145045470Y-53174649D01*
X145074991Y-53174445D01*
X145096991Y-53174222D01*
X145110731Y-53173984D01*
X145115475Y-53173735D01*
X145115453Y-53173649D01*
X145113443Y-53167957D01*
X145108331Y-53153846D01*
X145100353Y-53131959D01*
X145089743Y-53102938D01*
X145076738Y-53067424D01*
X145061572Y-53026060D01*
X145044482Y-52979489D01*
X145025702Y-52928352D01*
X145005469Y-52873292D01*
X144984017Y-52814951D01*
X144961582Y-52753970D01*
X144954012Y-52733401D01*
X144927497Y-52661343D01*
X144904048Y-52597576D01*
X144883428Y-52541434D01*
X144865403Y-52492250D01*
X144849739Y-52449356D01*
X144836200Y-52412086D01*
X144824553Y-52379773D01*
X144814562Y-52351750D01*
X144805992Y-52327351D01*
X144798609Y-52305908D01*
X144792178Y-52286755D01*
X144786464Y-52269226D01*
X144781233Y-52252652D01*
X144776250Y-52236367D01*
X144771280Y-52219706D01*
X144766088Y-52201999D01*
X144760439Y-52182582D01*
X144737136Y-52102374D01*
X144724064Y-52146081D01*
X144723736Y-52147179D01*
X144718036Y-52166025D01*
X144712184Y-52184916D01*
X144705951Y-52204500D01*
X144699107Y-52225428D01*
X144691425Y-52248349D01*
X144682673Y-52273911D01*
X144672624Y-52302765D01*
X144661048Y-52335560D01*
X144647716Y-52372944D01*
X144632399Y-52415569D01*
X144614868Y-52464081D01*
X144594893Y-52519132D01*
X144572246Y-52581370D01*
X144546698Y-52651445D01*
X144518018Y-52730006D01*
X144511297Y-52748409D01*
X144488815Y-52809961D01*
X144467332Y-52868775D01*
X144447080Y-52924212D01*
X144428295Y-52975631D01*
X144411210Y-53022390D01*
X144396060Y-53063850D01*
X144383077Y-53099370D01*
X144372498Y-53128310D01*
X144364555Y-53150028D01*
X144359482Y-53163884D01*
X144357515Y-53169238D01*
X143920314Y-53169238D01*
X143954009Y-53083408D01*
X143993788Y-52982107D01*
X144034504Y-52878444D01*
X144505758Y-51678770D01*
X144735985Y-51678770D01*
X144966213Y-51678770D01*
X145437392Y-52878444D01*
X145474162Y-52972075D01*
X145514033Y-53073629D01*
X145552835Y-53172486D01*
X145553325Y-53173735D01*
X145590421Y-53268271D01*
G37*
G36*
X149722269Y-49821629D02*
G01*
X149749405Y-49822207D01*
X149774474Y-49823230D01*
X149795819Y-49824693D01*
X149811789Y-49826588D01*
X149820727Y-49828911D01*
X149825114Y-49831225D01*
X149830195Y-49834268D01*
X149834906Y-49837994D01*
X149839462Y-49843021D01*
X149844079Y-49849970D01*
X149848974Y-49859461D01*
X149854363Y-49872115D01*
X149860462Y-49888552D01*
X149867486Y-49909391D01*
X149875654Y-49935254D01*
X149885180Y-49966759D01*
X149896280Y-50004528D01*
X149909171Y-50049181D01*
X149924070Y-50101338D01*
X149941191Y-50161618D01*
X149960752Y-50230643D01*
X149964097Y-50242456D01*
X149980849Y-50301820D01*
X149996998Y-50359370D01*
X150012313Y-50414267D01*
X150026564Y-50465672D01*
X150039522Y-50512747D01*
X150050957Y-50554655D01*
X150060638Y-50590557D01*
X150068336Y-50619614D01*
X150073821Y-50640989D01*
X150076862Y-50653842D01*
X150087630Y-50705218D01*
X150096084Y-50671243D01*
X150098188Y-50663495D01*
X150103470Y-50645597D01*
X150111194Y-50620373D01*
X150121091Y-50588655D01*
X150132890Y-50551270D01*
X150146321Y-50509050D01*
X150161114Y-50462823D01*
X150176998Y-50413421D01*
X150193704Y-50361672D01*
X150210960Y-50308407D01*
X150228496Y-50254455D01*
X150246043Y-50200646D01*
X150263330Y-50147811D01*
X150280086Y-50096779D01*
X150296042Y-50048379D01*
X150310926Y-50003442D01*
X150324469Y-49962798D01*
X150336401Y-49927276D01*
X150346450Y-49897706D01*
X150354348Y-49874919D01*
X150359822Y-49859743D01*
X150362604Y-49853009D01*
X150366058Y-49847723D01*
X150375911Y-49837147D01*
X150388891Y-49829797D01*
X150406631Y-49825171D01*
X150430765Y-49822764D01*
X150462923Y-49822073D01*
X150470186Y-49822082D01*
X150493409Y-49822367D01*
X150509592Y-49823289D01*
X150520881Y-49825164D01*
X150529421Y-49828309D01*
X150537360Y-49833040D01*
X150539020Y-49834203D01*
X150552122Y-49845920D01*
X150562000Y-49858591D01*
X150563601Y-49862230D01*
X150568340Y-49874949D01*
X150575594Y-49895554D01*
X150585089Y-49923209D01*
X150596552Y-49957075D01*
X150609710Y-49996313D01*
X150624287Y-50040084D01*
X150640010Y-50087552D01*
X150656606Y-50137876D01*
X150673801Y-50190219D01*
X150691321Y-50243742D01*
X150708892Y-50297607D01*
X150726240Y-50350976D01*
X150743092Y-50403009D01*
X150759173Y-50452870D01*
X150774211Y-50499718D01*
X150787930Y-50542717D01*
X150800059Y-50581027D01*
X150810321Y-50613809D01*
X150818445Y-50640227D01*
X150824155Y-50659441D01*
X150827179Y-50670612D01*
X150836016Y-50708824D01*
X150846668Y-50658445D01*
X150847381Y-50655211D01*
X150851371Y-50638829D01*
X150857569Y-50614902D01*
X150865735Y-50584275D01*
X150875629Y-50547795D01*
X150887011Y-50506309D01*
X150899641Y-50460663D01*
X150913277Y-50411703D01*
X150927681Y-50360275D01*
X150942612Y-50307227D01*
X150957830Y-50253403D01*
X150973094Y-50199651D01*
X150988165Y-50146817D01*
X151002802Y-50095747D01*
X151016765Y-50047287D01*
X151029813Y-50002285D01*
X151041708Y-49961585D01*
X151052208Y-49926036D01*
X151061073Y-49896482D01*
X151068063Y-49873770D01*
X151072939Y-49858747D01*
X151075459Y-49852259D01*
X151075947Y-49851538D01*
X151085649Y-49841145D01*
X151098294Y-49831593D01*
X151100436Y-49830338D01*
X151106471Y-49827527D01*
X151114025Y-49825436D01*
X151124466Y-49823958D01*
X151139164Y-49822989D01*
X151159488Y-49822425D01*
X151186807Y-49822161D01*
X151222490Y-49822092D01*
X151245749Y-49822121D01*
X151276253Y-49822338D01*
X151298734Y-49822824D01*
X151314248Y-49823643D01*
X151323852Y-49824862D01*
X151328604Y-49826547D01*
X151329561Y-49828763D01*
X151329514Y-49828939D01*
X151327551Y-49835448D01*
X151322890Y-49850623D01*
X151315704Y-49873906D01*
X151306165Y-49904739D01*
X151294448Y-49942562D01*
X151280725Y-49986818D01*
X151265170Y-50036948D01*
X151247956Y-50092393D01*
X151229257Y-50152597D01*
X151209244Y-50216999D01*
X151188093Y-50285042D01*
X151165975Y-50356167D01*
X151143065Y-50429817D01*
X150958144Y-51024181D01*
X150854705Y-51024181D01*
X150843493Y-51024168D01*
X150814060Y-51024005D01*
X150788708Y-51023677D01*
X150768850Y-51023214D01*
X150755899Y-51022646D01*
X150751267Y-51022002D01*
X150750743Y-51020208D01*
X150747566Y-51010211D01*
X150741704Y-50992057D01*
X150733380Y-50966427D01*
X150722817Y-50934007D01*
X150710239Y-50895479D01*
X150695868Y-50851528D01*
X150679929Y-50802837D01*
X150662643Y-50750091D01*
X150644236Y-50693971D01*
X150624930Y-50635163D01*
X150616088Y-50608239D01*
X150596545Y-50548699D01*
X150577686Y-50491200D01*
X150559771Y-50436543D01*
X150543063Y-50385529D01*
X150527824Y-50338957D01*
X150514316Y-50297630D01*
X150502800Y-50262347D01*
X150493538Y-50233908D01*
X150486793Y-50213115D01*
X150482826Y-50200769D01*
X150478793Y-50188095D01*
X150473100Y-50170869D01*
X150469306Y-50161299D01*
X150466763Y-50158317D01*
X150464822Y-50160855D01*
X150462836Y-50167843D01*
X150462549Y-50168888D01*
X150459641Y-50178431D01*
X150454022Y-50196292D01*
X150445929Y-50221729D01*
X150435601Y-50254000D01*
X150423276Y-50292366D01*
X150409193Y-50336084D01*
X150393590Y-50384415D01*
X150376704Y-50436616D01*
X150358776Y-50491946D01*
X150340042Y-50549665D01*
X150337256Y-50558241D01*
X150318187Y-50616953D01*
X150299660Y-50674007D01*
X150281950Y-50728559D01*
X150265330Y-50779764D01*
X150250074Y-50826778D01*
X150236457Y-50868757D01*
X150224752Y-50904856D01*
X150215233Y-50934230D01*
X150208174Y-50956036D01*
X150203850Y-50969429D01*
X150186227Y-51024181D01*
X150083051Y-51024125D01*
X149979874Y-51024068D01*
X149795360Y-50429154D01*
X149792367Y-50419502D01*
X149769603Y-50346115D01*
X149747642Y-50275332D01*
X149726660Y-50207713D01*
X149706827Y-50143813D01*
X149688318Y-50084192D01*
X149671306Y-50029407D01*
X149655964Y-49980016D01*
X149642465Y-49936575D01*
X149630983Y-49899643D01*
X149621691Y-49869778D01*
X149614761Y-49847537D01*
X149610367Y-49833477D01*
X149608683Y-49828157D01*
X149608647Y-49827840D01*
X149613457Y-49825623D01*
X149626123Y-49823887D01*
X149644991Y-49822625D01*
X149668408Y-49821833D01*
X149694718Y-49821503D01*
X149722269Y-49821629D01*
G37*
G36*
X150736527Y-51653445D02*
G01*
X150825383Y-51663320D01*
X150911602Y-51680699D01*
X150993824Y-51705427D01*
X151070687Y-51737350D01*
X151124519Y-51766291D01*
X151191504Y-51811808D01*
X151253028Y-51864994D01*
X151308652Y-51925361D01*
X151357938Y-51992418D01*
X151400447Y-52065676D01*
X151435739Y-52144646D01*
X151439999Y-52156167D01*
X151448441Y-52181588D01*
X151456747Y-52209585D01*
X151464581Y-52238670D01*
X151471605Y-52267359D01*
X151477485Y-52294164D01*
X151481884Y-52317600D01*
X151484465Y-52336179D01*
X151484893Y-52348417D01*
X151482832Y-52352826D01*
X151480473Y-52353120D01*
X151469666Y-52354855D01*
X151451499Y-52357939D01*
X151427367Y-52362131D01*
X151398665Y-52367189D01*
X151366788Y-52372874D01*
X151324094Y-52380282D01*
X151282190Y-52386787D01*
X151247578Y-52391044D01*
X151219096Y-52393090D01*
X151195581Y-52392960D01*
X151175870Y-52390692D01*
X151158800Y-52386322D01*
X151143208Y-52379886D01*
X151127847Y-52371094D01*
X151109548Y-52355682D01*
X151093688Y-52335127D01*
X151079160Y-52307914D01*
X151064856Y-52272524D01*
X151041066Y-52215918D01*
X151011910Y-52164446D01*
X150977775Y-52120234D01*
X150937947Y-52082364D01*
X150891715Y-52049922D01*
X150878492Y-52042439D01*
X150831870Y-52022453D01*
X150779993Y-52008534D01*
X150724800Y-52000871D01*
X150668230Y-51999655D01*
X150612225Y-52005075D01*
X150558724Y-52017322D01*
X150508881Y-52037082D01*
X150464084Y-52064622D01*
X150425779Y-52099196D01*
X150394353Y-52140382D01*
X150370197Y-52187754D01*
X150353699Y-52240889D01*
X150352358Y-52247384D01*
X150348054Y-52278946D01*
X150345768Y-52315707D01*
X150345466Y-52354718D01*
X150347115Y-52393025D01*
X150350682Y-52427679D01*
X150356133Y-52455728D01*
X150359731Y-52468247D01*
X150377838Y-52514554D01*
X150402245Y-52555385D01*
X150433279Y-52590933D01*
X150471264Y-52621389D01*
X150516524Y-52646945D01*
X150569385Y-52667792D01*
X150630171Y-52684123D01*
X150699207Y-52696128D01*
X150776818Y-52704000D01*
X150858338Y-52709835D01*
X150858338Y-52854144D01*
X150858338Y-52998454D01*
X150764651Y-53004009D01*
X150716081Y-53007323D01*
X150670341Y-53011632D01*
X150630568Y-53016953D01*
X150594796Y-53023603D01*
X150561059Y-53031897D01*
X150527393Y-53042151D01*
X150489127Y-53056125D01*
X150448598Y-53075110D01*
X150414657Y-53096658D01*
X150385576Y-53121741D01*
X150366344Y-53143055D01*
X150348128Y-53169590D01*
X150333804Y-53199499D01*
X150322777Y-53234341D01*
X150314455Y-53275677D01*
X150308244Y-53325067D01*
X150306589Y-53345085D01*
X150306095Y-53398376D01*
X150312119Y-53448560D01*
X150324979Y-53498966D01*
X150325995Y-53502124D01*
X150341070Y-53540919D01*
X150360337Y-53576022D01*
X150385385Y-53609931D01*
X150417802Y-53645150D01*
X150422401Y-53649733D01*
X150444241Y-53670424D01*
X150463428Y-53686157D01*
X150482873Y-53699139D01*
X150505492Y-53711578D01*
X150513817Y-53715752D01*
X150575359Y-53740928D01*
X150638216Y-53756609D01*
X150703092Y-53762921D01*
X150770689Y-53759993D01*
X150799356Y-53756443D01*
X150830951Y-53750774D01*
X150858821Y-53743051D01*
X150886375Y-53732284D01*
X150917021Y-53717483D01*
X150937937Y-53706120D01*
X150970113Y-53685622D01*
X150999595Y-53662328D01*
X151027338Y-53635163D01*
X151054296Y-53603051D01*
X151081424Y-53564917D01*
X151109677Y-53519685D01*
X151140009Y-53466280D01*
X151142416Y-53461957D01*
X151163737Y-53429854D01*
X151187068Y-53406492D01*
X151213880Y-53390988D01*
X151245645Y-53382460D01*
X151283836Y-53380026D01*
X151291618Y-53380132D01*
X151306113Y-53380787D01*
X151319850Y-53382385D01*
X151334210Y-53385353D01*
X151350572Y-53390118D01*
X151370317Y-53397107D01*
X151394826Y-53406749D01*
X151425477Y-53419470D01*
X151463652Y-53435697D01*
X151484794Y-53444749D01*
X151510195Y-53455767D01*
X151528484Y-53464070D01*
X151540775Y-53470311D01*
X151548183Y-53475148D01*
X151551822Y-53479234D01*
X151552807Y-53483224D01*
X151552251Y-53487774D01*
X151551412Y-53491661D01*
X151545880Y-53510506D01*
X151536932Y-53535748D01*
X151525292Y-53565579D01*
X151511684Y-53598193D01*
X151496833Y-53631782D01*
X151481461Y-53664537D01*
X151462050Y-53702663D01*
X151416433Y-53779355D01*
X151365965Y-53847668D01*
X151310423Y-53907758D01*
X151249582Y-53959783D01*
X151183220Y-54003902D01*
X151111114Y-54040271D01*
X151033039Y-54069048D01*
X150948772Y-54090392D01*
X150858091Y-54104459D01*
X150847535Y-54105445D01*
X150819577Y-54106991D01*
X150785595Y-54107840D01*
X150747557Y-54108033D01*
X150707433Y-54107613D01*
X150667191Y-54106621D01*
X150628801Y-54105100D01*
X150594231Y-54103091D01*
X150565450Y-54100636D01*
X150544427Y-54097777D01*
X150532696Y-54095564D01*
X150461675Y-54079902D01*
X150397381Y-54061351D01*
X150337390Y-54039132D01*
X150279276Y-54012462D01*
X150275783Y-54010695D01*
X150203510Y-53968719D01*
X150137946Y-53919985D01*
X150079421Y-53864932D01*
X150028263Y-53804002D01*
X149984801Y-53737634D01*
X149949365Y-53666267D01*
X149922283Y-53590343D01*
X149903884Y-53510301D01*
X149903202Y-53506263D01*
X149899702Y-53483637D01*
X149897276Y-53462951D01*
X149895807Y-53441872D01*
X149895176Y-53418069D01*
X149895268Y-53389210D01*
X149895964Y-53352961D01*
X149896239Y-53341691D01*
X149897259Y-53308631D01*
X149898551Y-53282670D01*
X149900323Y-53261769D01*
X149902780Y-53243888D01*
X149906131Y-53226988D01*
X149910583Y-53209030D01*
X149914278Y-53195593D01*
X149937252Y-53129394D01*
X149966592Y-53070055D01*
X150002881Y-53016699D01*
X150046700Y-52968446D01*
X150098628Y-52924417D01*
X150118893Y-52910112D01*
X150156229Y-52886884D01*
X150197161Y-52864412D01*
X150238119Y-52844613D01*
X150275534Y-52829402D01*
X150277264Y-52828781D01*
X150293009Y-52822663D01*
X150304155Y-52817510D01*
X150308386Y-52814380D01*
X150307998Y-52813576D01*
X150301699Y-52809685D01*
X150290135Y-52805238D01*
X150288296Y-52804633D01*
X150268508Y-52796803D01*
X150243463Y-52785229D01*
X150215783Y-52771275D01*
X150188090Y-52756305D01*
X150163008Y-52741684D01*
X150143160Y-52728776D01*
X150096263Y-52690668D01*
X150051693Y-52642672D01*
X150014412Y-52588429D01*
X149984584Y-52528220D01*
X149962370Y-52462326D01*
X149947934Y-52391030D01*
X149947135Y-52385017D01*
X149944083Y-52351184D01*
X149942458Y-52312331D01*
X149942237Y-52271391D01*
X149943395Y-52231296D01*
X149945909Y-52194981D01*
X149949756Y-52165378D01*
X149952026Y-52153373D01*
X149971103Y-52082005D01*
X149998755Y-52014538D01*
X150034505Y-51951425D01*
X150077876Y-51893120D01*
X150128391Y-51840076D01*
X150185573Y-51792747D01*
X150248944Y-51751586D01*
X150318028Y-51717046D01*
X150392347Y-51689582D01*
X150471424Y-51669646D01*
X150556353Y-51656819D01*
X150646397Y-51651227D01*
X150736527Y-51653445D01*
G37*
G36*
X154218349Y-51661746D02*
G01*
X154257770Y-51661893D01*
X154289248Y-51662350D01*
X154314001Y-51663286D01*
X154333246Y-51664869D01*
X154348202Y-51667267D01*
X154360087Y-51670648D01*
X154370119Y-51675182D01*
X154379515Y-51681037D01*
X154389495Y-51688380D01*
X154390761Y-51689379D01*
X154403208Y-51702148D01*
X154412474Y-51716213D01*
X154412887Y-51717249D01*
X154415934Y-51726627D01*
X154421390Y-51744578D01*
X154429076Y-51770488D01*
X154438815Y-51803742D01*
X154450430Y-51843725D01*
X154463743Y-51889822D01*
X154478578Y-51941418D01*
X154494756Y-51997898D01*
X154512100Y-52058647D01*
X154530434Y-52123050D01*
X154549580Y-52190491D01*
X154569360Y-52260357D01*
X154576808Y-52286711D01*
X154603662Y-52381920D01*
X154627914Y-52468252D01*
X154649662Y-52546074D01*
X154669006Y-52615756D01*
X154686042Y-52677669D01*
X154700870Y-52732180D01*
X154713587Y-52779661D01*
X154724293Y-52820479D01*
X154733084Y-52855005D01*
X154740060Y-52883607D01*
X154745318Y-52906656D01*
X154748958Y-52924521D01*
X154751076Y-52937570D01*
X154751772Y-52946175D01*
X154751776Y-52946907D01*
X154752386Y-52954450D01*
X154754169Y-52954533D01*
X154757336Y-52946641D01*
X154762099Y-52930259D01*
X154768669Y-52904870D01*
X154770704Y-52897529D01*
X154775885Y-52880158D01*
X154783723Y-52854627D01*
X154794020Y-52821558D01*
X154806577Y-52781576D01*
X154821196Y-52735305D01*
X154837680Y-52683370D01*
X154855829Y-52626395D01*
X154875445Y-52565003D01*
X154896331Y-52499819D01*
X154918288Y-52431468D01*
X154941118Y-52360573D01*
X154964623Y-52287758D01*
X154965795Y-52284130D01*
X154993037Y-52199867D01*
X155017475Y-52124349D01*
X155039280Y-52057077D01*
X155058623Y-51997553D01*
X155075675Y-51945276D01*
X155090607Y-51899748D01*
X155103592Y-51860469D01*
X155114799Y-51826939D01*
X155124400Y-51798660D01*
X155132567Y-51775132D01*
X155139470Y-51755856D01*
X155145281Y-51740332D01*
X155150170Y-51728061D01*
X155154310Y-51718543D01*
X155157870Y-51711280D01*
X155161023Y-51705772D01*
X155163939Y-51701519D01*
X155166791Y-51698023D01*
X155167473Y-51697247D01*
X155179277Y-51685044D01*
X155191283Y-51675914D01*
X155205075Y-51669464D01*
X155222237Y-51665302D01*
X155244353Y-51663036D01*
X155273008Y-51662273D01*
X155309785Y-51662622D01*
X155339293Y-51663223D01*
X155361764Y-51663936D01*
X155377868Y-51664991D01*
X155389317Y-51666637D01*
X155397817Y-51669120D01*
X155405079Y-51672690D01*
X155412812Y-51677595D01*
X155417919Y-51681273D01*
X155433328Y-51695157D01*
X155445453Y-51709722D01*
X155447002Y-51712792D01*
X155452040Y-51725367D01*
X155459869Y-51746714D01*
X155470379Y-51776510D01*
X155483462Y-51814432D01*
X155499008Y-51860158D01*
X155516909Y-51913364D01*
X155537057Y-51973729D01*
X155559341Y-52040929D01*
X155583654Y-52114643D01*
X155609886Y-52194546D01*
X155637929Y-52280316D01*
X155651287Y-52321272D01*
X155680260Y-52410268D01*
X155706356Y-52490702D01*
X155729722Y-52563042D01*
X155750501Y-52627758D01*
X155768840Y-52685319D01*
X155784884Y-52736194D01*
X155798778Y-52780851D01*
X155810667Y-52819759D01*
X155820697Y-52853388D01*
X155829012Y-52882206D01*
X155835758Y-52906682D01*
X155841080Y-52927285D01*
X155845123Y-52944483D01*
X155848032Y-52958747D01*
X155848947Y-52959550D01*
X155851347Y-52953627D01*
X155854631Y-52940684D01*
X155858366Y-52922246D01*
X155860159Y-52912659D01*
X155862477Y-52900755D01*
X155865001Y-52888529D01*
X155867884Y-52875417D01*
X155871279Y-52860853D01*
X155875339Y-52844272D01*
X155880218Y-52825110D01*
X155886067Y-52802800D01*
X155893042Y-52776778D01*
X155901293Y-52746478D01*
X155910975Y-52711335D01*
X155922241Y-52670784D01*
X155935243Y-52624260D01*
X155950134Y-52571198D01*
X155967068Y-52511031D01*
X155986198Y-52443196D01*
X156007677Y-52367126D01*
X156031657Y-52282257D01*
X156052173Y-52209649D01*
X156073980Y-52132446D01*
X156093406Y-52063680D01*
X156110601Y-52002848D01*
X156125718Y-51949451D01*
X156138908Y-51902987D01*
X156150321Y-51862955D01*
X156160110Y-51828855D01*
X156168425Y-51800185D01*
X156175419Y-51776444D01*
X156181242Y-51757133D01*
X156186046Y-51741748D01*
X156189982Y-51729790D01*
X156193202Y-51720758D01*
X156195857Y-51714151D01*
X156198098Y-51709468D01*
X156200077Y-51706207D01*
X156201945Y-51703868D01*
X156203853Y-51701951D01*
X156205954Y-51699953D01*
X156208397Y-51697375D01*
X156209956Y-51695605D01*
X156218205Y-51686703D01*
X156226304Y-51679526D01*
X156235352Y-51673888D01*
X156246445Y-51669603D01*
X156260683Y-51666484D01*
X156279164Y-51664344D01*
X156302986Y-51662996D01*
X156333246Y-51662255D01*
X156371044Y-51661933D01*
X156417477Y-51661843D01*
X156438423Y-51661853D01*
X156474420Y-51661987D01*
X156506465Y-51662258D01*
X156533402Y-51662647D01*
X156554074Y-51663134D01*
X156567325Y-51663702D01*
X156571999Y-51664332D01*
X156571742Y-51665247D01*
X156569158Y-51673781D01*
X156563936Y-51690823D01*
X156556249Y-51715820D01*
X156546267Y-51748218D01*
X156534163Y-51787463D01*
X156520106Y-51833000D01*
X156504269Y-51884277D01*
X156486824Y-51940738D01*
X156467941Y-52001832D01*
X156447793Y-52067003D01*
X156426550Y-52135697D01*
X156404384Y-52207362D01*
X156381467Y-52281443D01*
X156357969Y-52357386D01*
X156334063Y-52434637D01*
X156309919Y-52512643D01*
X156285710Y-52590849D01*
X156261606Y-52668703D01*
X156237780Y-52745649D01*
X156214402Y-52821135D01*
X156191644Y-52894606D01*
X156169677Y-52965508D01*
X156148673Y-53033288D01*
X156128804Y-53097392D01*
X156110240Y-53157266D01*
X156093153Y-53212357D01*
X156077715Y-53262109D01*
X156064097Y-53305970D01*
X156052471Y-53343385D01*
X156043007Y-53373802D01*
X156035878Y-53396665D01*
X156031255Y-53411421D01*
X156029308Y-53417517D01*
X156029081Y-53417928D01*
X156025571Y-53419633D01*
X156017426Y-53420936D01*
X156003794Y-53421865D01*
X155983829Y-53422447D01*
X155956680Y-53422710D01*
X155921498Y-53422679D01*
X155877435Y-53422383D01*
X155727705Y-53421096D01*
X155534635Y-52832210D01*
X155510513Y-52758594D01*
X155486923Y-52686520D01*
X155464192Y-52616994D01*
X155442519Y-52550626D01*
X155422103Y-52488024D01*
X155403140Y-52429798D01*
X155385829Y-52376557D01*
X155370369Y-52328910D01*
X155356956Y-52287465D01*
X155345789Y-52252831D01*
X155337066Y-52225618D01*
X155330985Y-52206435D01*
X155327744Y-52195889D01*
X155323507Y-52181772D01*
X155317937Y-52164575D01*
X155313603Y-52152805D01*
X155311193Y-52148438D01*
X155309769Y-52150095D01*
X155306300Y-52158762D01*
X155302326Y-52172366D01*
X155301952Y-52173707D01*
X155298833Y-52183933D01*
X155292945Y-52202675D01*
X155284470Y-52229366D01*
X155273591Y-52263439D01*
X155260490Y-52304328D01*
X155245350Y-52351463D01*
X155228354Y-52404280D01*
X155209683Y-52462209D01*
X155189520Y-52524685D01*
X155168048Y-52591139D01*
X155145449Y-52661006D01*
X155121906Y-52733716D01*
X155097601Y-52808704D01*
X154899014Y-53421096D01*
X154748808Y-53421096D01*
X154598602Y-53421096D01*
X154329871Y-52554800D01*
X154306712Y-52480129D01*
X154279660Y-52392872D01*
X154253481Y-52308397D01*
X154228321Y-52227170D01*
X154204322Y-52149656D01*
X154181629Y-52076320D01*
X154160385Y-52007628D01*
X154140733Y-51944045D01*
X154122818Y-51886035D01*
X154106783Y-51834065D01*
X154092772Y-51788599D01*
X154080929Y-51750103D01*
X154071397Y-51719042D01*
X154064320Y-51695881D01*
X154059842Y-51681085D01*
X154058107Y-51675120D01*
X154055073Y-51661736D01*
X154196754Y-51661736D01*
X154218349Y-51661746D01*
G37*
%LPC*%
G36*
X161290000Y-97282000D02*
G01*
X160782000Y-97790000D01*
X103378000Y-97790000D01*
X102870000Y-97282000D01*
X102870000Y-89916000D01*
X161290000Y-89916000D01*
X161290000Y-97282000D01*
G37*
D12*
X105410000Y-88011000D03*
X158750000Y-88011000D03*
D13*
X159067500Y-42227500D03*
X158750000Y-82931000D03*
X105092500Y-42227500D03*
D14*
X149669500Y-40259000D03*
D15*
X149669500Y-42799000D03*
D14*
X149669500Y-45339000D03*
X155384500Y-40259000D03*
X155384500Y-45339000D03*
D15*
X157289500Y-41783000D03*
X157289500Y-43815000D03*
D16*
X116950000Y-45150000D03*
D17*
X116950000Y-43150000D03*
X116950000Y-41150000D03*
D18*
X158750000Y-93118000D03*
X156210000Y-93118000D03*
X153670000Y-93118000D03*
X151130000Y-93118000D03*
X148590000Y-93118000D03*
X146050000Y-93118000D03*
X143510000Y-93118000D03*
X140970000Y-93118000D03*
X138430000Y-93118000D03*
X135890000Y-93118000D03*
X133350000Y-93118000D03*
X130810000Y-93118000D03*
X128270000Y-93118000D03*
X125730000Y-93118000D03*
X123190000Y-93118000D03*
X120650000Y-93118000D03*
X118110000Y-93118000D03*
X115570000Y-93118000D03*
X113030000Y-93118000D03*
X110490000Y-93118000D03*
X107950000Y-93118000D03*
X105410000Y-93118000D03*
%LPD*%
M02*
