G04 #@! TF.GenerationSoftware,KiCad,Pcbnew,(6.0.1-0)*
G04 #@! TF.CreationDate,2022-02-07T03:36:48-05:00*
G04 #@! TF.ProjectId,GW4302,47573433-3032-42e6-9b69-6361645f7063,0.1*
G04 #@! TF.SameCoordinates,Original*
G04 #@! TF.FileFunction,Legend,Top*
G04 #@! TF.FilePolarity,Positive*
%FSLAX46Y46*%
G04 Gerber Fmt 4.6, Leading zero omitted, Abs format (unit mm)*
G04 Created by KiCad (PCBNEW (6.0.1-0)) date 2022-02-07 03:36:48*
%MOMM*%
%LPD*%
G01*
G04 APERTURE LIST*
G04 Aperture macros list*
%AMRoundRect*
0 Rectangle with rounded corners*
0 $1 Rounding radius*
0 $2 $3 $4 $5 $6 $7 $8 $9 X,Y pos of 4 corners*
0 Add a 4 corners polygon primitive as box body*
4,1,4,$2,$3,$4,$5,$6,$7,$8,$9,$2,$3,0*
0 Add four circle primitives for the rounded corners*
1,1,$1+$1,$2,$3*
1,1,$1+$1,$4,$5*
1,1,$1+$1,$6,$7*
1,1,$1+$1,$8,$9*
0 Add four rect primitives between the rounded corners*
20,1,$1+$1,$2,$3,$4,$5,0*
20,1,$1+$1,$4,$5,$6,$7,0*
20,1,$1+$1,$6,$7,$8,$9,0*
20,1,$1+$1,$8,$9,$2,$3,0*%
G04 Aperture macros list end*
%ADD10C,0.203200*%
%ADD11C,0.150000*%
%ADD12C,0.120000*%
%ADD13C,0.152400*%
%ADD14C,0.000000*%
%ADD15C,2.150000*%
%ADD16C,2.000000*%
%ADD17RoundRect,0.136500X0.112500X-0.612500X0.112500X0.612500X-0.112500X0.612500X-0.112500X-0.612500X0*%
%ADD18RoundRect,0.164500X0.640500X0.114500X-0.640500X0.114500X-0.640500X-0.114500X0.640500X-0.114500X0*%
%ADD19RoundRect,0.262500X-0.262500X0.212500X-0.262500X-0.212500X0.262500X-0.212500X0.262500X0.212500X0*%
%ADD20RoundRect,0.312500X0.262500X0.437500X-0.262500X0.437500X-0.262500X-0.437500X0.262500X-0.437500X0*%
%ADD21RoundRect,0.312500X-0.262500X-0.437500X0.262500X-0.437500X0.262500X0.437500X-0.262500X0.437500X0*%
%ADD22RoundRect,0.225000X-0.300000X0.175000X-0.300000X-0.175000X0.300000X-0.175000X0.300000X0.175000X0*%
%ADD23RoundRect,0.262500X0.262500X-0.212500X0.262500X0.212500X-0.262500X0.212500X-0.262500X-0.212500X0*%
%ADD24RoundRect,0.262500X-0.212500X-0.262500X0.212500X-0.262500X0.212500X0.262500X-0.212500X0.262500X0*%
%ADD25RoundRect,0.225000X0.300000X-0.175000X0.300000X0.175000X-0.300000X0.175000X-0.300000X-0.175000X0*%
%ADD26RoundRect,0.225000X0.175000X0.300000X-0.175000X0.300000X-0.175000X-0.300000X0.175000X-0.300000X0*%
%ADD27RoundRect,0.262500X0.212500X0.262500X-0.212500X0.262500X-0.212500X-0.262500X0.212500X-0.262500X0*%
%ADD28RoundRect,0.225000X-0.175000X-0.300000X0.175000X-0.300000X0.175000X0.300000X-0.175000X0.300000X0*%
%ADD29RoundRect,0.350000X0.450000X-0.700000X0.450000X0.700000X-0.450000X0.700000X-0.450000X-0.700000X0*%
%ADD30RoundRect,0.350000X1.600000X-0.700000X1.600000X0.700000X-1.600000X0.700000X-1.600000X-0.700000X0*%
%ADD31RoundRect,0.312500X-0.437500X0.262500X-0.437500X-0.262500X0.437500X-0.262500X0.437500X0.262500X0*%
%ADD32RoundRect,0.099000X-0.662500X-0.075000X0.662500X-0.075000X0.662500X0.075000X-0.662500X0.075000X0*%
%ADD33RoundRect,0.099000X-0.075000X-0.662500X0.075000X-0.662500X0.075000X0.662500X-0.075000X0.662500X0*%
%ADD34RoundRect,0.200000X-0.825000X-0.150000X0.825000X-0.150000X0.825000X0.150000X-0.825000X0.150000X0*%
%ADD35RoundRect,0.120000X0.120000X0.545000X-0.120000X0.545000X-0.120000X-0.545000X0.120000X-0.545000X0*%
%ADD36O,1.170000X2.000000*%
%ADD37C,1.400000*%
%ADD38RoundRect,0.200000X0.150000X0.525000X-0.150000X0.525000X-0.150000X-0.525000X0.150000X-0.525000X0*%
%ADD39C,1.448000*%
%ADD40RoundRect,0.550000X0.500000X-1.750000X0.500000X1.750000X-0.500000X1.750000X-0.500000X-1.750000X0*%
%ADD41C,1.140600*%
%ADD42C,2.524900*%
%ADD43C,0.937400*%
%ADD44RoundRect,0.456000X0.381000X3.289000X-0.381000X3.289000X-0.381000X-3.289000X0.381000X-3.289000X0*%
G04 APERTURE END LIST*
D10*
X151554895Y-67754361D02*
X152135466Y-67754361D01*
X152251580Y-67793066D01*
X152328990Y-67870476D01*
X152367695Y-67986590D01*
X152367695Y-68064000D01*
X152367695Y-66980266D02*
X152367695Y-67367314D01*
X151554895Y-67367314D01*
X152290285Y-66244876D02*
X152328990Y-66283580D01*
X152367695Y-66399695D01*
X152367695Y-66477104D01*
X152328990Y-66593219D01*
X152251580Y-66670628D01*
X152174171Y-66709333D01*
X152019352Y-66748038D01*
X151903238Y-66748038D01*
X151748419Y-66709333D01*
X151671009Y-66670628D01*
X151593600Y-66593219D01*
X151554895Y-66477104D01*
X151554895Y-66399695D01*
X151593600Y-66283580D01*
X151632304Y-66244876D01*
X151554895Y-65664304D02*
X152135466Y-65664304D01*
X152251580Y-65703009D01*
X152328990Y-65780419D01*
X152367695Y-65896533D01*
X152367695Y-65973942D01*
X152367695Y-64890209D02*
X152367695Y-65277257D01*
X151554895Y-65277257D01*
X152290285Y-64154819D02*
X152328990Y-64193523D01*
X152367695Y-64309638D01*
X152367695Y-64387047D01*
X152328990Y-64503161D01*
X152251580Y-64580571D01*
X152174171Y-64619276D01*
X152019352Y-64657980D01*
X151903238Y-64657980D01*
X151748419Y-64619276D01*
X151671009Y-64580571D01*
X151593600Y-64503161D01*
X151554895Y-64387047D01*
X151554895Y-64309638D01*
X151593600Y-64193523D01*
X151632304Y-64154819D01*
X151554895Y-63574247D02*
X152135466Y-63574247D01*
X152251580Y-63612952D01*
X152328990Y-63690361D01*
X152367695Y-63806476D01*
X152367695Y-63883885D01*
X152367695Y-62800152D02*
X152367695Y-63187200D01*
X151554895Y-63187200D01*
X152290285Y-62064761D02*
X152328990Y-62103466D01*
X152367695Y-62219580D01*
X152367695Y-62296990D01*
X152328990Y-62413104D01*
X152251580Y-62490514D01*
X152174171Y-62529219D01*
X152019352Y-62567923D01*
X151903238Y-62567923D01*
X151748419Y-62529219D01*
X151671009Y-62490514D01*
X151593600Y-62413104D01*
X151554895Y-62296990D01*
X151554895Y-62219580D01*
X151593600Y-62103466D01*
X151632304Y-62064761D01*
X151554895Y-61484190D02*
X152135466Y-61484190D01*
X152251580Y-61522895D01*
X152328990Y-61600304D01*
X152367695Y-61716419D01*
X152367695Y-61793828D01*
X152367695Y-60710095D02*
X152367695Y-61097142D01*
X151554895Y-61097142D01*
X152290285Y-59974704D02*
X152328990Y-60013409D01*
X152367695Y-60129523D01*
X152367695Y-60206933D01*
X152328990Y-60323047D01*
X152251580Y-60400457D01*
X152174171Y-60439161D01*
X152019352Y-60477866D01*
X151903238Y-60477866D01*
X151748419Y-60439161D01*
X151671009Y-60400457D01*
X151593600Y-60323047D01*
X151554895Y-60206933D01*
X151554895Y-60129523D01*
X151593600Y-60013409D01*
X151632304Y-59974704D01*
X144355723Y-81554895D02*
X144355723Y-82212876D01*
X144394428Y-82290285D01*
X144433133Y-82328990D01*
X144510542Y-82367695D01*
X144665361Y-82367695D01*
X144742771Y-82328990D01*
X144781476Y-82290285D01*
X144820180Y-82212876D01*
X144820180Y-81554895D01*
X145632980Y-82367695D02*
X145168523Y-82367695D01*
X145400752Y-82367695D02*
X145400752Y-81554895D01*
X145323342Y-81671009D01*
X145245933Y-81748419D01*
X145168523Y-81787123D01*
X148380723Y-63554895D02*
X148380723Y-64212876D01*
X148419428Y-64290285D01*
X148458133Y-64328990D01*
X148535542Y-64367695D01*
X148690361Y-64367695D01*
X148767771Y-64328990D01*
X148806476Y-64290285D01*
X148845180Y-64212876D01*
X148845180Y-63554895D01*
X149270933Y-64367695D02*
X149425752Y-64367695D01*
X149503161Y-64328990D01*
X149541866Y-64290285D01*
X149619276Y-64174171D01*
X149657980Y-64019352D01*
X149657980Y-63709714D01*
X149619276Y-63632304D01*
X149580571Y-63593600D01*
X149503161Y-63554895D01*
X149348342Y-63554895D01*
X149270933Y-63593600D01*
X149232228Y-63632304D01*
X149193523Y-63709714D01*
X149193523Y-63903238D01*
X149232228Y-63980647D01*
X149270933Y-64019352D01*
X149348342Y-64058057D01*
X149503161Y-64058057D01*
X149580571Y-64019352D01*
X149619276Y-63980647D01*
X149657980Y-63903238D01*
X153555723Y-81554895D02*
X153555723Y-82212876D01*
X153594428Y-82290285D01*
X153633133Y-82328990D01*
X153710542Y-82367695D01*
X153865361Y-82367695D01*
X153942771Y-82328990D01*
X153981476Y-82290285D01*
X154020180Y-82212876D01*
X154020180Y-81554895D01*
X154755571Y-81825828D02*
X154755571Y-82367695D01*
X154562047Y-81516190D02*
X154368523Y-82096761D01*
X154871685Y-82096761D01*
X111380723Y-81554895D02*
X111380723Y-82212876D01*
X111419428Y-82290285D01*
X111458133Y-82328990D01*
X111535542Y-82367695D01*
X111690361Y-82367695D01*
X111767771Y-82328990D01*
X111806476Y-82290285D01*
X111845180Y-82212876D01*
X111845180Y-81554895D01*
X112580571Y-81554895D02*
X112425752Y-81554895D01*
X112348342Y-81593600D01*
X112309638Y-81632304D01*
X112232228Y-81748419D01*
X112193523Y-81903238D01*
X112193523Y-82212876D01*
X112232228Y-82290285D01*
X112270933Y-82328990D01*
X112348342Y-82367695D01*
X112503161Y-82367695D01*
X112580571Y-82328990D01*
X112619276Y-82290285D01*
X112657980Y-82212876D01*
X112657980Y-82019352D01*
X112619276Y-81941942D01*
X112580571Y-81903238D01*
X112503161Y-81864533D01*
X112348342Y-81864533D01*
X112270933Y-81903238D01*
X112232228Y-81941942D01*
X112193523Y-82019352D01*
X135155723Y-81554895D02*
X135155723Y-82212876D01*
X135194428Y-82290285D01*
X135233133Y-82328990D01*
X135310542Y-82367695D01*
X135465361Y-82367695D01*
X135542771Y-82328990D01*
X135581476Y-82290285D01*
X135620180Y-82212876D01*
X135620180Y-81554895D01*
X135968523Y-81632304D02*
X136007228Y-81593600D01*
X136084638Y-81554895D01*
X136278161Y-81554895D01*
X136355571Y-81593600D01*
X136394276Y-81632304D01*
X136432980Y-81709714D01*
X136432980Y-81787123D01*
X136394276Y-81903238D01*
X135929819Y-82367695D01*
X136432980Y-82367695D01*
X124205723Y-81554895D02*
X124205723Y-82212876D01*
X124244428Y-82290285D01*
X124283133Y-82328990D01*
X124360542Y-82367695D01*
X124515361Y-82367695D01*
X124592771Y-82328990D01*
X124631476Y-82290285D01*
X124670180Y-82212876D01*
X124670180Y-81554895D01*
X125444276Y-81554895D02*
X125057228Y-81554895D01*
X125018523Y-81941942D01*
X125057228Y-81903238D01*
X125134638Y-81864533D01*
X125328161Y-81864533D01*
X125405571Y-81903238D01*
X125444276Y-81941942D01*
X125482980Y-82019352D01*
X125482980Y-82212876D01*
X125444276Y-82290285D01*
X125405571Y-82328990D01*
X125328161Y-82367695D01*
X125134638Y-82367695D01*
X125057228Y-82328990D01*
X125018523Y-82290285D01*
X124743676Y-43054895D02*
X124743676Y-43712876D01*
X124782380Y-43790285D01*
X124821085Y-43828990D01*
X124898495Y-43867695D01*
X125053314Y-43867695D01*
X125130723Y-43828990D01*
X125169428Y-43790285D01*
X125208133Y-43712876D01*
X125208133Y-43054895D01*
X126020933Y-43867695D02*
X125556476Y-43867695D01*
X125788704Y-43867695D02*
X125788704Y-43054895D01*
X125711295Y-43171009D01*
X125633885Y-43248419D01*
X125556476Y-43287123D01*
X126524095Y-43054895D02*
X126601504Y-43054895D01*
X126678914Y-43093600D01*
X126717619Y-43132304D01*
X126756323Y-43209714D01*
X126795028Y-43364533D01*
X126795028Y-43558057D01*
X126756323Y-43712876D01*
X126717619Y-43790285D01*
X126678914Y-43828990D01*
X126601504Y-43867695D01*
X126524095Y-43867695D01*
X126446685Y-43828990D01*
X126407980Y-43790285D01*
X126369276Y-43712876D01*
X126330571Y-43558057D01*
X126330571Y-43364533D01*
X126369276Y-43209714D01*
X126407980Y-43132304D01*
X126446685Y-43093600D01*
X126524095Y-43054895D01*
X107380723Y-68654895D02*
X107380723Y-69312876D01*
X107419428Y-69390285D01*
X107458133Y-69428990D01*
X107535542Y-69467695D01*
X107690361Y-69467695D01*
X107767771Y-69428990D01*
X107806476Y-69390285D01*
X107845180Y-69312876D01*
X107845180Y-68654895D01*
X108154819Y-68654895D02*
X108657980Y-68654895D01*
X108387047Y-68964533D01*
X108503161Y-68964533D01*
X108580571Y-69003238D01*
X108619276Y-69041942D01*
X108657980Y-69119352D01*
X108657980Y-69312876D01*
X108619276Y-69390285D01*
X108580571Y-69428990D01*
X108503161Y-69467695D01*
X108270933Y-69467695D01*
X108193523Y-69428990D01*
X108154819Y-69390285D01*
X121380723Y-64854895D02*
X121380723Y-65512876D01*
X121419428Y-65590285D01*
X121458133Y-65628990D01*
X121535542Y-65667695D01*
X121690361Y-65667695D01*
X121767771Y-65628990D01*
X121806476Y-65590285D01*
X121845180Y-65512876D01*
X121845180Y-64854895D01*
X122348342Y-65203238D02*
X122270933Y-65164533D01*
X122232228Y-65125828D01*
X122193523Y-65048419D01*
X122193523Y-65009714D01*
X122232228Y-64932304D01*
X122270933Y-64893600D01*
X122348342Y-64854895D01*
X122503161Y-64854895D01*
X122580571Y-64893600D01*
X122619276Y-64932304D01*
X122657980Y-65009714D01*
X122657980Y-65048419D01*
X122619276Y-65125828D01*
X122580571Y-65164533D01*
X122503161Y-65203238D01*
X122348342Y-65203238D01*
X122270933Y-65241942D01*
X122232228Y-65280647D01*
X122193523Y-65358057D01*
X122193523Y-65512876D01*
X122232228Y-65590285D01*
X122270933Y-65628990D01*
X122348342Y-65667695D01*
X122503161Y-65667695D01*
X122580571Y-65628990D01*
X122619276Y-65590285D01*
X122657980Y-65512876D01*
X122657980Y-65358057D01*
X122619276Y-65280647D01*
X122580571Y-65241942D01*
X122503161Y-65203238D01*
X114489895Y-47869323D02*
X115147876Y-47869323D01*
X115225285Y-47830619D01*
X115263990Y-47791914D01*
X115302695Y-47714504D01*
X115302695Y-47559685D01*
X115263990Y-47482276D01*
X115225285Y-47443571D01*
X115147876Y-47404866D01*
X114489895Y-47404866D01*
X115302695Y-46592066D02*
X115302695Y-47056523D01*
X115302695Y-46824295D02*
X114489895Y-46824295D01*
X114606009Y-46901704D01*
X114683419Y-46979114D01*
X114722123Y-47056523D01*
X114489895Y-46321133D02*
X114489895Y-45817971D01*
X114799533Y-46088904D01*
X114799533Y-45972790D01*
X114838238Y-45895380D01*
X114876942Y-45856676D01*
X114954352Y-45817971D01*
X115147876Y-45817971D01*
X115225285Y-45856676D01*
X115263990Y-45895380D01*
X115302695Y-45972790D01*
X115302695Y-46205019D01*
X115263990Y-46282428D01*
X115225285Y-46321133D01*
X106630647Y-51887047D02*
X107017695Y-51887047D01*
X106204895Y-52157980D02*
X106630647Y-51887047D01*
X106204895Y-51616114D01*
X107017695Y-50919428D02*
X107017695Y-51383885D01*
X107017695Y-51151657D02*
X106204895Y-51151657D01*
X106321009Y-51229066D01*
X106398419Y-51306476D01*
X106437123Y-51383885D01*
D11*
X141525000Y-85750000D02*
X141525000Y-79775000D01*
X148425000Y-84225000D02*
X148425000Y-79775000D01*
D12*
X143700000Y-75300000D02*
X143700000Y-74900000D01*
X154300000Y-75300000D02*
X143700000Y-75300000D01*
X143700000Y-53100000D02*
X143700000Y-52700000D01*
X154300000Y-52700000D02*
X143700000Y-52700000D01*
X155500000Y-74900000D02*
X154300000Y-74900000D01*
X154300000Y-74900000D02*
X154300000Y-75300000D01*
X154300000Y-53100000D02*
X154300000Y-52700000D01*
D11*
X150725000Y-85750000D02*
X150725000Y-79775000D01*
X157625000Y-84225000D02*
X157625000Y-79775000D01*
D12*
X107990000Y-79637221D02*
X107990000Y-79962779D01*
X109010000Y-79637221D02*
X109010000Y-79962779D01*
D11*
X109375000Y-84325000D02*
X109500000Y-84325000D01*
X109500000Y-84325000D02*
X109500000Y-85675000D01*
X109375000Y-84325000D02*
X109375000Y-79675000D01*
X114625000Y-84325000D02*
X114625000Y-79675000D01*
X109375000Y-79675000D02*
X109600000Y-79675000D01*
X114625000Y-79675000D02*
X114400000Y-79675000D01*
X114625000Y-84325000D02*
X114400000Y-84325000D01*
D12*
X119890000Y-79637221D02*
X119890000Y-79962779D01*
X120910000Y-79637221D02*
X120910000Y-79962779D01*
X140090000Y-79637221D02*
X140090000Y-79962779D01*
X141110000Y-79637221D02*
X141110000Y-79962779D01*
D13*
X106556400Y-62900000D02*
X105743600Y-62900000D01*
X106556400Y-61300000D02*
X105743600Y-61300000D01*
X109243600Y-61300000D02*
X110056400Y-61300000D01*
X109243600Y-62900000D02*
X110056400Y-62900000D01*
X109243600Y-60700000D02*
X110056400Y-60700000D01*
X109243600Y-59100000D02*
X110056400Y-59100000D01*
D12*
X119940000Y-83237221D02*
X119940000Y-83562779D01*
X120960000Y-83237221D02*
X120960000Y-83562779D01*
D11*
X139225000Y-84225000D02*
X139225000Y-79775000D01*
X132325000Y-85750000D02*
X132325000Y-79775000D01*
X128275000Y-84225000D02*
X128275000Y-79775000D01*
X121375000Y-85750000D02*
X121375000Y-79775000D01*
D12*
X150310000Y-79637221D02*
X150310000Y-79962779D01*
X149290000Y-79637221D02*
X149290000Y-79962779D01*
X131860000Y-79637221D02*
X131860000Y-79962779D01*
X130840000Y-79637221D02*
X130840000Y-79962779D01*
D11*
X128375000Y-41175000D02*
X128150000Y-41175000D01*
X123125000Y-45825000D02*
X123250000Y-45825000D01*
X128375000Y-45825000D02*
X128150000Y-45825000D01*
X123125000Y-41175000D02*
X123350000Y-41175000D01*
X123250000Y-45825000D02*
X123250000Y-47175000D01*
X123125000Y-45825000D02*
X123125000Y-41175000D01*
X128375000Y-45825000D02*
X128375000Y-41175000D01*
D12*
X157310000Y-54187221D02*
X157310000Y-54512779D01*
X156290000Y-54187221D02*
X156290000Y-54512779D01*
X140460000Y-41087221D02*
X140460000Y-41412779D01*
X139440000Y-41087221D02*
X139440000Y-41412779D01*
X157310000Y-64637221D02*
X157310000Y-64962779D01*
X156290000Y-64637221D02*
X156290000Y-64962779D01*
X157310000Y-68587221D02*
X157310000Y-68912779D01*
X156290000Y-68587221D02*
X156290000Y-68912779D01*
X157310000Y-72212779D02*
X157310000Y-71887221D01*
X156290000Y-72212779D02*
X156290000Y-71887221D01*
X147837221Y-45140000D02*
X148162779Y-45140000D01*
X147837221Y-46160000D02*
X148162779Y-46160000D01*
X146310000Y-46562779D02*
X146310000Y-46237221D01*
X145290000Y-46562779D02*
X145290000Y-46237221D01*
X148162779Y-46640000D02*
X147837221Y-46640000D01*
X148162779Y-47660000D02*
X147837221Y-47660000D01*
X116824279Y-40257000D02*
X116498721Y-40257000D01*
X116824279Y-41277000D02*
X116498721Y-41277000D01*
X108168221Y-40384000D02*
X108493779Y-40384000D01*
X108168221Y-41404000D02*
X108493779Y-41404000D01*
X110460000Y-56337221D02*
X110460000Y-56662779D01*
X109440000Y-56337221D02*
X109440000Y-56662779D01*
X107237221Y-44510000D02*
X107562779Y-44510000D01*
X107237221Y-43490000D02*
X107562779Y-43490000D01*
X116387221Y-75510000D02*
X116712779Y-75510000D01*
X116387221Y-74490000D02*
X116712779Y-74490000D01*
X128587221Y-74490000D02*
X128912779Y-74490000D01*
X128587221Y-75510000D02*
X128912779Y-75510000D01*
X125662779Y-75510000D02*
X125337221Y-75510000D01*
X125662779Y-74490000D02*
X125337221Y-74490000D01*
X132210000Y-69212779D02*
X132210000Y-68887221D01*
X131190000Y-69212779D02*
X131190000Y-68887221D01*
X131190000Y-60387221D02*
X131190000Y-60712779D01*
X132210000Y-60387221D02*
X132210000Y-60712779D01*
X126087221Y-55090000D02*
X126412779Y-55090000D01*
X126087221Y-56110000D02*
X126412779Y-56110000D01*
X119587221Y-56110000D02*
X119912779Y-56110000D01*
X119587221Y-55090000D02*
X119912779Y-55090000D01*
X112810000Y-61387221D02*
X112810000Y-61712779D01*
X111790000Y-61387221D02*
X111790000Y-61712779D01*
X115412779Y-55090000D02*
X115087221Y-55090000D01*
X115412779Y-56110000D02*
X115087221Y-56110000D01*
X112810000Y-70212779D02*
X112810000Y-69887221D01*
X111790000Y-70212779D02*
X111790000Y-69887221D01*
D13*
X104590000Y-73200000D02*
X104590000Y-67190000D01*
X104590000Y-67190000D02*
X105850000Y-67190000D01*
X111410000Y-70950000D02*
X111410000Y-67190000D01*
X111410000Y-67190000D02*
X110150000Y-67190000D01*
X109856400Y-74000000D02*
X109043600Y-74000000D01*
X109856400Y-75600000D02*
X109043600Y-75600000D01*
X113400000Y-72993600D02*
X113400000Y-73806400D01*
X111800000Y-72993600D02*
X111800000Y-73806400D01*
D12*
X112011779Y-40384000D02*
X111686221Y-40384000D01*
X112011779Y-41404000D02*
X111686221Y-41404000D01*
X141710000Y-70987221D02*
X141710000Y-71312779D01*
X140690000Y-70987221D02*
X140690000Y-71312779D01*
X140690000Y-64962779D02*
X140690000Y-64637221D01*
X141710000Y-64962779D02*
X141710000Y-64637221D01*
X114890000Y-58890000D02*
X113600000Y-58890000D01*
X129110000Y-72410000D02*
X129110000Y-71710000D01*
X115590000Y-72410000D02*
X114890000Y-72410000D01*
X128410000Y-58190000D02*
X129110000Y-58190000D01*
X115590000Y-58190000D02*
X114890000Y-58190000D01*
X114890000Y-58190000D02*
X114890000Y-58890000D01*
X129110000Y-58190000D02*
X129110000Y-58890000D01*
X114890000Y-72410000D02*
X114890000Y-71710000D01*
X128410000Y-72410000D02*
X129110000Y-72410000D01*
X140690000Y-53437221D02*
X140690000Y-53762779D01*
X141710000Y-53437221D02*
X141710000Y-53762779D01*
X140940000Y-41087221D02*
X140940000Y-41412779D01*
X141960000Y-41087221D02*
X141960000Y-41412779D01*
X114935000Y-41803000D02*
X116885000Y-41803000D01*
X114935000Y-51923000D02*
X116885000Y-51923000D01*
X114935000Y-41803000D02*
X111485000Y-41803000D01*
X114935000Y-51923000D02*
X112985000Y-51923000D01*
X110682500Y-46815221D02*
X110682500Y-47140779D01*
X109662500Y-46815221D02*
X109662500Y-47140779D01*
X119124000Y-41830779D02*
X119124000Y-41505221D01*
X120144000Y-41830779D02*
X120144000Y-41505221D01*
D13*
X106556400Y-60700000D02*
X105743600Y-60700000D01*
X106556400Y-59100000D02*
X105743600Y-59100000D01*
D12*
X136050000Y-42412500D02*
X136050000Y-41962500D01*
X130450000Y-37450000D02*
X130450000Y-37812500D01*
X138250000Y-40050000D02*
X138250000Y-42412500D01*
X130450000Y-40050000D02*
X130450000Y-42412500D01*
X138250000Y-42412500D02*
X137800000Y-42412500D01*
X138250000Y-37450000D02*
X138250000Y-37812500D01*
X136050000Y-42412500D02*
X135600000Y-42412500D01*
X130450000Y-42412500D02*
X130900000Y-42412500D01*
X109200000Y-58200000D02*
X109200000Y-45600000D01*
X104100000Y-58200000D02*
X109200000Y-58200000D01*
X104100000Y-45600000D02*
X104100000Y-58200000D01*
X153479500Y-44259500D02*
X154114500Y-44259500D01*
X153479500Y-44894500D02*
X153479500Y-44259500D01*
X137612779Y-58010000D02*
X137287221Y-58010000D01*
X137612779Y-56990000D02*
X137287221Y-56990000D01*
X137612779Y-52490000D02*
X137287221Y-52490000D01*
X137612779Y-53510000D02*
X137287221Y-53510000D01*
X137612779Y-56510000D02*
X137287221Y-56510000D01*
X137612779Y-55490000D02*
X137287221Y-55490000D01*
X137612779Y-53990000D02*
X137287221Y-53990000D01*
X137612779Y-55010000D02*
X137287221Y-55010000D01*
X136612779Y-44860000D02*
X136287221Y-44860000D01*
X136612779Y-43840000D02*
X136287221Y-43840000D01*
X132912779Y-67310000D02*
X132587221Y-67310000D01*
X132912779Y-66290000D02*
X132587221Y-66290000D01*
X125487221Y-77760000D02*
X125812779Y-77760000D01*
X125487221Y-76740000D02*
X125812779Y-76740000D01*
X122660000Y-41812779D02*
X122660000Y-41487221D01*
X121640000Y-41812779D02*
X121640000Y-41487221D01*
X121110000Y-76137221D02*
X121110000Y-76462779D01*
X120090000Y-76137221D02*
X120090000Y-76462779D01*
X148162779Y-48140000D02*
X147837221Y-48140000D01*
X148162779Y-49160000D02*
X147837221Y-49160000D01*
%LPC*%
D14*
G36*
X161290000Y-97282000D02*
G01*
X160782000Y-97790000D01*
X103378000Y-97790000D01*
X102870000Y-97282000D01*
X102870000Y-89916000D01*
X161290000Y-89916000D01*
X161290000Y-97282000D01*
G37*
D15*
X105410000Y-88011000D03*
D16*
X105283000Y-85471000D03*
D15*
X158750000Y-88011000D03*
D17*
X142050000Y-84950000D03*
X142700000Y-84950000D03*
X143350000Y-84950000D03*
X144000000Y-84950000D03*
X144650000Y-84950000D03*
X145300000Y-84950000D03*
X145950000Y-84950000D03*
X146600000Y-84950000D03*
X147250000Y-84950000D03*
X147900000Y-84950000D03*
X147900000Y-79050000D03*
X147250000Y-79050000D03*
X146600000Y-79050000D03*
X145950000Y-79050000D03*
X145300000Y-79050000D03*
X144650000Y-79050000D03*
X144000000Y-79050000D03*
X143350000Y-79050000D03*
X142700000Y-79050000D03*
X142050000Y-79050000D03*
D18*
X154750000Y-74400000D03*
X154750000Y-73600000D03*
X154750000Y-72800000D03*
X154750000Y-72000000D03*
X154750000Y-71200000D03*
X154750000Y-70400000D03*
X154750000Y-69600000D03*
X154750000Y-68800000D03*
X154750000Y-68000000D03*
X154750000Y-67200000D03*
X154750000Y-66400000D03*
X154750000Y-65600000D03*
X154750000Y-64800000D03*
X154750000Y-64000000D03*
X154750000Y-63200000D03*
X154750000Y-62400000D03*
X154750000Y-61600000D03*
X154750000Y-60800000D03*
X154750000Y-60000000D03*
X154750000Y-59200000D03*
X154750000Y-58400000D03*
X154750000Y-57600000D03*
X154750000Y-56800000D03*
X154750000Y-56000000D03*
X154750000Y-55200000D03*
X154750000Y-54400000D03*
X154750000Y-53600000D03*
X143250000Y-53600000D03*
X143250000Y-54400000D03*
X143250000Y-55200000D03*
X143250000Y-56000000D03*
X143250000Y-56800000D03*
X143250000Y-57600000D03*
X143250000Y-58400000D03*
X143250000Y-59200000D03*
X143250000Y-60000000D03*
X143250000Y-60800000D03*
X143250000Y-61600000D03*
X143250000Y-62400000D03*
X143250000Y-63200000D03*
X143250000Y-64000000D03*
X143250000Y-64800000D03*
X143250000Y-65600000D03*
X143250000Y-66400000D03*
X143250000Y-67200000D03*
X143250000Y-68000000D03*
X143250000Y-68800000D03*
X143250000Y-69600000D03*
X143250000Y-70400000D03*
X143250000Y-71200000D03*
X143250000Y-72000000D03*
X143250000Y-72800000D03*
X143250000Y-73600000D03*
X143250000Y-74400000D03*
D17*
X151250000Y-84950000D03*
X151900000Y-84950000D03*
X152550000Y-84950000D03*
X153200000Y-84950000D03*
X153850000Y-84950000D03*
X154500000Y-84950000D03*
X155150000Y-84950000D03*
X155800000Y-84950000D03*
X156450000Y-84950000D03*
X157100000Y-84950000D03*
X157100000Y-79050000D03*
X156450000Y-79050000D03*
X155800000Y-79050000D03*
X155150000Y-79050000D03*
X154500000Y-79050000D03*
X153850000Y-79050000D03*
X153200000Y-79050000D03*
X152550000Y-79050000D03*
X151900000Y-79050000D03*
X151250000Y-79050000D03*
D16*
X158750000Y-85471000D03*
D19*
X108500000Y-79050000D03*
X108500000Y-80550000D03*
D17*
X110050000Y-84950000D03*
X110700000Y-84950000D03*
X111350000Y-84950000D03*
X112000000Y-84950000D03*
X112650000Y-84950000D03*
X113300000Y-84950000D03*
X113950000Y-84950000D03*
X113950000Y-79050000D03*
X113300000Y-79050000D03*
X112650000Y-79050000D03*
X112000000Y-79050000D03*
X111350000Y-79050000D03*
X110700000Y-79050000D03*
X110050000Y-79050000D03*
D19*
X120400000Y-79050000D03*
X120400000Y-80550000D03*
X140600000Y-79050000D03*
X140600000Y-80550000D03*
D20*
X107000000Y-62100000D03*
X105300000Y-62100000D03*
D21*
X108800000Y-62100000D03*
X110500000Y-62100000D03*
X108800000Y-59900000D03*
X110500000Y-59900000D03*
D22*
X120450000Y-82600000D03*
X120450000Y-84200000D03*
D17*
X132850000Y-84950000D03*
X133500000Y-84950000D03*
X134150000Y-84950000D03*
X134800000Y-84950000D03*
X135450000Y-84950000D03*
X136100000Y-84950000D03*
X136750000Y-84950000D03*
X137400000Y-84950000D03*
X138050000Y-84950000D03*
X138700000Y-84950000D03*
X138700000Y-79050000D03*
X138050000Y-79050000D03*
X137400000Y-79050000D03*
X136750000Y-79050000D03*
X136100000Y-79050000D03*
X135450000Y-79050000D03*
X134800000Y-79050000D03*
X134150000Y-79050000D03*
X133500000Y-79050000D03*
X132850000Y-79050000D03*
X121900000Y-84950000D03*
X122550000Y-84950000D03*
X123200000Y-84950000D03*
X123850000Y-84950000D03*
X124500000Y-84950000D03*
X125150000Y-84950000D03*
X125800000Y-84950000D03*
X126450000Y-84950000D03*
X127100000Y-84950000D03*
X127750000Y-84950000D03*
X127750000Y-79050000D03*
X127100000Y-79050000D03*
X126450000Y-79050000D03*
X125800000Y-79050000D03*
X125150000Y-79050000D03*
X124500000Y-79050000D03*
X123850000Y-79050000D03*
X123200000Y-79050000D03*
X122550000Y-79050000D03*
X121900000Y-79050000D03*
D19*
X149800000Y-79050000D03*
X149800000Y-80550000D03*
X131350000Y-79050000D03*
X131350000Y-80550000D03*
D17*
X123800000Y-46450000D03*
X124450000Y-46450000D03*
X125100000Y-46450000D03*
X125750000Y-46450000D03*
X126400000Y-46450000D03*
X127050000Y-46450000D03*
X127700000Y-46450000D03*
X127700000Y-40550000D03*
X127050000Y-40550000D03*
X126400000Y-40550000D03*
X125750000Y-40550000D03*
X125100000Y-40550000D03*
X124450000Y-40550000D03*
X123800000Y-40550000D03*
D19*
X156800000Y-53600000D03*
X156800000Y-55100000D03*
D22*
X139950000Y-40450000D03*
X139950000Y-42050000D03*
D19*
X156800000Y-64050000D03*
X156800000Y-65550000D03*
X156800000Y-68000000D03*
X156800000Y-69500000D03*
D23*
X156800000Y-72800000D03*
X156800000Y-71300000D03*
D24*
X147250000Y-45650000D03*
X148750000Y-45650000D03*
D25*
X145800000Y-47200000D03*
X145800000Y-45600000D03*
D26*
X148800000Y-47150000D03*
X147200000Y-47150000D03*
D27*
X117411500Y-40767000D03*
X115911500Y-40767000D03*
D28*
X107531000Y-40894000D03*
X109131000Y-40894000D03*
D19*
X109950000Y-55750000D03*
X109950000Y-57250000D03*
D24*
X106650000Y-44000000D03*
X108150000Y-44000000D03*
X115800000Y-75000000D03*
X117300000Y-75000000D03*
X128000000Y-75000000D03*
X129500000Y-75000000D03*
D27*
X126250000Y-75000000D03*
X124750000Y-75000000D03*
D23*
X131700000Y-69800000D03*
X131700000Y-68300000D03*
D16*
X159067500Y-38735000D03*
X105092500Y-38735000D03*
D19*
X131700000Y-59800000D03*
X131700000Y-61300000D03*
D24*
X125500000Y-55600000D03*
X127000000Y-55600000D03*
X119000000Y-55600000D03*
X120500000Y-55600000D03*
D19*
X112300000Y-60800000D03*
X112300000Y-62300000D03*
D27*
X116000000Y-55600000D03*
X114500000Y-55600000D03*
D23*
X112300000Y-70800000D03*
X112300000Y-69300000D03*
D29*
X105700000Y-72250000D03*
X108000000Y-72250000D03*
D30*
X108000000Y-65950000D03*
D29*
X110300000Y-72250000D03*
D20*
X110300000Y-74800000D03*
X108600000Y-74800000D03*
D31*
X112600000Y-72550000D03*
X112600000Y-74250000D03*
D26*
X112649000Y-40894000D03*
X111049000Y-40894000D03*
D19*
X141200000Y-70400000D03*
X141200000Y-71900000D03*
D23*
X141200000Y-65550000D03*
X141200000Y-64050000D03*
D32*
X114337500Y-59300000D03*
X114337500Y-59800000D03*
X114337500Y-60300000D03*
X114337500Y-60800000D03*
X114337500Y-61300000D03*
X114337500Y-61800000D03*
X114337500Y-62300000D03*
X114337500Y-62800000D03*
X114337500Y-63300000D03*
X114337500Y-63800000D03*
X114337500Y-64300000D03*
X114337500Y-64800000D03*
X114337500Y-65300000D03*
X114337500Y-65800000D03*
X114337500Y-66300000D03*
X114337500Y-66800000D03*
X114337500Y-67300000D03*
X114337500Y-67800000D03*
X114337500Y-68300000D03*
X114337500Y-68800000D03*
X114337500Y-69300000D03*
X114337500Y-69800000D03*
X114337500Y-70300000D03*
X114337500Y-70800000D03*
X114337500Y-71300000D03*
D33*
X116000000Y-72962500D03*
X116500000Y-72962500D03*
X117000000Y-72962500D03*
X117500000Y-72962500D03*
X118000000Y-72962500D03*
X118500000Y-72962500D03*
X119000000Y-72962500D03*
X119500000Y-72962500D03*
X120000000Y-72962500D03*
X120500000Y-72962500D03*
X121000000Y-72962500D03*
X121500000Y-72962500D03*
X122000000Y-72962500D03*
X122500000Y-72962500D03*
X123000000Y-72962500D03*
X123500000Y-72962500D03*
X124000000Y-72962500D03*
X124500000Y-72962500D03*
X125000000Y-72962500D03*
X125500000Y-72962500D03*
X126000000Y-72962500D03*
X126500000Y-72962500D03*
X127000000Y-72962500D03*
X127500000Y-72962500D03*
X128000000Y-72962500D03*
D32*
X129662500Y-71300000D03*
X129662500Y-70800000D03*
X129662500Y-70300000D03*
X129662500Y-69800000D03*
X129662500Y-69300000D03*
X129662500Y-68800000D03*
X129662500Y-68300000D03*
X129662500Y-67800000D03*
X129662500Y-67300000D03*
X129662500Y-66800000D03*
X129662500Y-66300000D03*
X129662500Y-65800000D03*
X129662500Y-65300000D03*
X129662500Y-64800000D03*
X129662500Y-64300000D03*
X129662500Y-63800000D03*
X129662500Y-63300000D03*
X129662500Y-62800000D03*
X129662500Y-62300000D03*
X129662500Y-61800000D03*
X129662500Y-61300000D03*
X129662500Y-60800000D03*
X129662500Y-60300000D03*
X129662500Y-59800000D03*
X129662500Y-59300000D03*
D33*
X128000000Y-57637500D03*
X127500000Y-57637500D03*
X127000000Y-57637500D03*
X126500000Y-57637500D03*
X126000000Y-57637500D03*
X125500000Y-57637500D03*
X125000000Y-57637500D03*
X124500000Y-57637500D03*
X124000000Y-57637500D03*
X123500000Y-57637500D03*
X123000000Y-57637500D03*
X122500000Y-57637500D03*
X122000000Y-57637500D03*
X121500000Y-57637500D03*
X121000000Y-57637500D03*
X120500000Y-57637500D03*
X120000000Y-57637500D03*
X119500000Y-57637500D03*
X119000000Y-57637500D03*
X118500000Y-57637500D03*
X118000000Y-57637500D03*
X117500000Y-57637500D03*
X117000000Y-57637500D03*
X116500000Y-57637500D03*
X116000000Y-57637500D03*
D22*
X141200000Y-52800000D03*
X141200000Y-54400000D03*
D19*
X141450000Y-40500000D03*
X141450000Y-42000000D03*
D34*
X112460000Y-42418000D03*
X112460000Y-43688000D03*
X112460000Y-44958000D03*
X112460000Y-46228000D03*
X112460000Y-47498000D03*
X112460000Y-48768000D03*
X112460000Y-50038000D03*
X112460000Y-51308000D03*
X117410000Y-51308000D03*
X117410000Y-50038000D03*
X117410000Y-48768000D03*
X117410000Y-47498000D03*
X117410000Y-46228000D03*
X117410000Y-44958000D03*
X117410000Y-43688000D03*
X117410000Y-42418000D03*
D19*
X110172500Y-46228000D03*
X110172500Y-47728000D03*
D23*
X119634000Y-42418000D03*
X119634000Y-40918000D03*
D20*
X107000000Y-59900000D03*
X105300000Y-59900000D03*
D35*
X135650000Y-41575000D03*
X135000000Y-41575000D03*
X134350000Y-41575000D03*
X133700000Y-41575000D03*
X133050000Y-41575000D03*
D36*
X137950000Y-38950000D03*
D37*
X136775000Y-41600000D03*
D38*
X133550000Y-38925000D03*
D37*
X131925000Y-41600000D03*
D38*
X135150000Y-38925000D03*
D36*
X130750000Y-38950000D03*
D39*
X156527500Y-38735000D03*
X158750000Y-82931000D03*
D40*
X106650000Y-55750000D03*
X106650000Y-47250000D03*
D39*
X105092500Y-41275000D03*
D41*
X153733500Y-51244500D03*
D42*
X152209500Y-49339500D03*
D41*
X154749500Y-43624500D03*
X155765500Y-51244500D03*
D42*
X152209500Y-43624500D03*
X157289500Y-49339500D03*
X157289500Y-43624500D03*
D43*
X154114500Y-44894500D03*
X154114500Y-46164500D03*
X154114500Y-47434500D03*
X154114500Y-48704500D03*
X154114500Y-49974500D03*
X155384500Y-49974500D03*
X155384500Y-48704500D03*
X155384500Y-47434500D03*
X155384500Y-46164500D03*
X155384500Y-44894500D03*
D26*
X138250000Y-57500000D03*
X136650000Y-57500000D03*
X138250000Y-53000000D03*
X136650000Y-53000000D03*
X138250000Y-56000000D03*
X136650000Y-56000000D03*
X138250000Y-54500000D03*
X136650000Y-54500000D03*
X137250000Y-44350000D03*
X135650000Y-44350000D03*
X133550000Y-66800000D03*
X131950000Y-66800000D03*
D28*
X124850000Y-77250000D03*
X126450000Y-77250000D03*
D25*
X122150000Y-42450000D03*
X122150000Y-40850000D03*
D22*
X120600000Y-75500000D03*
X120600000Y-77100000D03*
D27*
X148750000Y-48650000D03*
X147250000Y-48650000D03*
D44*
X105410000Y-93118000D03*
X107950000Y-93118000D03*
X110490000Y-93118000D03*
X113030000Y-93118000D03*
X115570000Y-93118000D03*
X118110000Y-93118000D03*
X120650000Y-93118000D03*
X123190000Y-93118000D03*
X125730000Y-93118000D03*
X128270000Y-93118000D03*
X130810000Y-93118000D03*
X133350000Y-93118000D03*
X135890000Y-93118000D03*
X138430000Y-93118000D03*
X140970000Y-93118000D03*
X143510000Y-93118000D03*
X146050000Y-93118000D03*
X148590000Y-93118000D03*
X151130000Y-93118000D03*
X153670000Y-93118000D03*
X156210000Y-93118000D03*
X158750000Y-93118000D03*
M02*
