G04 #@! TF.GenerationSoftware,KiCad,Pcbnew,(6.0.1-0)*
G04 #@! TF.CreationDate,2022-02-07T03:36:48-05:00*
G04 #@! TF.ProjectId,GW4302,47573433-3032-42e6-9b69-6361645f7063,0.1*
G04 #@! TF.SameCoordinates,Original*
G04 #@! TF.FileFunction,Paste,Top*
G04 #@! TF.FilePolarity,Positive*
%FSLAX46Y46*%
G04 Gerber Fmt 4.6, Leading zero omitted, Abs format (unit mm)*
G04 Created by KiCad (PCBNEW (6.0.1-0)) date 2022-02-07 03:36:48*
%MOMM*%
%LPD*%
G01*
G04 APERTURE LIST*
G04 Aperture macros list*
%AMRoundRect*
0 Rectangle with rounded corners*
0 $1 Rounding radius*
0 $2 $3 $4 $5 $6 $7 $8 $9 X,Y pos of 4 corners*
0 Add a 4 corners polygon primitive as box body*
4,1,4,$2,$3,$4,$5,$6,$7,$8,$9,$2,$3,0*
0 Add four circle primitives for the rounded corners*
1,1,$1+$1,$2,$3*
1,1,$1+$1,$4,$5*
1,1,$1+$1,$6,$7*
1,1,$1+$1,$8,$9*
0 Add four rect primitives between the rounded corners*
20,1,$1+$1,$2,$3,$4,$5,0*
20,1,$1+$1,$4,$5,$6,$7,0*
20,1,$1+$1,$6,$7,$8,$9,0*
20,1,$1+$1,$8,$9,$2,$3,0*%
G04 Aperture macros list end*
%ADD10RoundRect,0.072500X0.112500X-0.612500X0.112500X0.612500X-0.112500X0.612500X-0.112500X-0.612500X0*%
%ADD11RoundRect,0.084500X0.640500X0.114500X-0.640500X0.114500X-0.640500X-0.114500X0.640500X-0.114500X0*%
%ADD12RoundRect,0.172500X-0.262500X0.212500X-0.262500X-0.212500X0.262500X-0.212500X0.262500X0.212500X0*%
%ADD13RoundRect,0.237500X0.262500X0.437500X-0.262500X0.437500X-0.262500X-0.437500X0.262500X-0.437500X0*%
%ADD14RoundRect,0.237500X-0.262500X-0.437500X0.262500X-0.437500X0.262500X0.437500X-0.262500X0.437500X0*%
%ADD15RoundRect,0.125000X-0.300000X0.175000X-0.300000X-0.175000X0.300000X-0.175000X0.300000X0.175000X0*%
%ADD16RoundRect,0.172500X0.262500X-0.212500X0.262500X0.212500X-0.262500X0.212500X-0.262500X-0.212500X0*%
%ADD17RoundRect,0.172500X-0.212500X-0.262500X0.212500X-0.262500X0.212500X0.262500X-0.212500X0.262500X0*%
%ADD18RoundRect,0.125000X0.300000X-0.175000X0.300000X0.175000X-0.300000X0.175000X-0.300000X-0.175000X0*%
%ADD19RoundRect,0.125000X0.175000X0.300000X-0.175000X0.300000X-0.175000X-0.300000X0.175000X-0.300000X0*%
%ADD20RoundRect,0.172500X0.212500X0.262500X-0.212500X0.262500X-0.212500X-0.262500X0.212500X-0.262500X0*%
%ADD21RoundRect,0.125000X-0.175000X-0.300000X0.175000X-0.300000X0.175000X0.300000X-0.175000X0.300000X0*%
%ADD22RoundRect,0.250000X0.450000X-0.700000X0.450000X0.700000X-0.450000X0.700000X-0.450000X-0.700000X0*%
%ADD23RoundRect,0.250000X1.600000X-0.700000X1.600000X0.700000X-1.600000X0.700000X-1.600000X-0.700000X0*%
%ADD24RoundRect,0.237500X-0.437500X0.262500X-0.437500X-0.262500X0.437500X-0.262500X0.437500X0.262500X0*%
%ADD25RoundRect,0.040000X-0.662500X-0.075000X0.662500X-0.075000X0.662500X0.075000X-0.662500X0.075000X0*%
%ADD26RoundRect,0.040000X-0.075000X-0.662500X0.075000X-0.662500X0.075000X0.662500X-0.075000X0.662500X0*%
%ADD27RoundRect,0.125000X-0.825000X-0.150000X0.825000X-0.150000X0.825000X0.150000X-0.825000X0.150000X0*%
%ADD28RoundRect,0.030000X0.120000X0.545000X-0.120000X0.545000X-0.120000X-0.545000X0.120000X-0.545000X0*%
%ADD29RoundRect,0.125000X0.150000X0.525000X-0.150000X0.525000X-0.150000X-0.525000X0.150000X-0.525000X0*%
%ADD30RoundRect,0.450000X0.500000X-1.750000X0.500000X1.750000X-0.500000X1.750000X-0.500000X-1.750000X0*%
G04 APERTURE END LIST*
D10*
X142050000Y-84950000D03*
X142700000Y-84950000D03*
X143350000Y-84950000D03*
X144000000Y-84950000D03*
X144650000Y-84950000D03*
X145300000Y-84950000D03*
X145950000Y-84950000D03*
X146600000Y-84950000D03*
X147250000Y-84950000D03*
X147900000Y-84950000D03*
X147900000Y-79050000D03*
X147250000Y-79050000D03*
X146600000Y-79050000D03*
X145950000Y-79050000D03*
X145300000Y-79050000D03*
X144650000Y-79050000D03*
X144000000Y-79050000D03*
X143350000Y-79050000D03*
X142700000Y-79050000D03*
X142050000Y-79050000D03*
D11*
X154750000Y-74400000D03*
X154750000Y-73600000D03*
X154750000Y-72800000D03*
X154750000Y-72000000D03*
X154750000Y-71200000D03*
X154750000Y-70400000D03*
X154750000Y-69600000D03*
X154750000Y-68800000D03*
X154750000Y-68000000D03*
X154750000Y-67200000D03*
X154750000Y-66400000D03*
X154750000Y-65600000D03*
X154750000Y-64800000D03*
X154750000Y-64000000D03*
X154750000Y-63200000D03*
X154750000Y-62400000D03*
X154750000Y-61600000D03*
X154750000Y-60800000D03*
X154750000Y-60000000D03*
X154750000Y-59200000D03*
X154750000Y-58400000D03*
X154750000Y-57600000D03*
X154750000Y-56800000D03*
X154750000Y-56000000D03*
X154750000Y-55200000D03*
X154750000Y-54400000D03*
X154750000Y-53600000D03*
X143250000Y-53600000D03*
X143250000Y-54400000D03*
X143250000Y-55200000D03*
X143250000Y-56000000D03*
X143250000Y-56800000D03*
X143250000Y-57600000D03*
X143250000Y-58400000D03*
X143250000Y-59200000D03*
X143250000Y-60000000D03*
X143250000Y-60800000D03*
X143250000Y-61600000D03*
X143250000Y-62400000D03*
X143250000Y-63200000D03*
X143250000Y-64000000D03*
X143250000Y-64800000D03*
X143250000Y-65600000D03*
X143250000Y-66400000D03*
X143250000Y-67200000D03*
X143250000Y-68000000D03*
X143250000Y-68800000D03*
X143250000Y-69600000D03*
X143250000Y-70400000D03*
X143250000Y-71200000D03*
X143250000Y-72000000D03*
X143250000Y-72800000D03*
X143250000Y-73600000D03*
X143250000Y-74400000D03*
D10*
X151250000Y-84950000D03*
X151900000Y-84950000D03*
X152550000Y-84950000D03*
X153200000Y-84950000D03*
X153850000Y-84950000D03*
X154500000Y-84950000D03*
X155150000Y-84950000D03*
X155800000Y-84950000D03*
X156450000Y-84950000D03*
X157100000Y-84950000D03*
X157100000Y-79050000D03*
X156450000Y-79050000D03*
X155800000Y-79050000D03*
X155150000Y-79050000D03*
X154500000Y-79050000D03*
X153850000Y-79050000D03*
X153200000Y-79050000D03*
X152550000Y-79050000D03*
X151900000Y-79050000D03*
X151250000Y-79050000D03*
D12*
X108500000Y-79050000D03*
X108500000Y-80550000D03*
D10*
X110050000Y-84950000D03*
X110700000Y-84950000D03*
X111350000Y-84950000D03*
X112000000Y-84950000D03*
X112650000Y-84950000D03*
X113300000Y-84950000D03*
X113950000Y-84950000D03*
X113950000Y-79050000D03*
X113300000Y-79050000D03*
X112650000Y-79050000D03*
X112000000Y-79050000D03*
X111350000Y-79050000D03*
X110700000Y-79050000D03*
X110050000Y-79050000D03*
D12*
X120400000Y-79050000D03*
X120400000Y-80550000D03*
X140600000Y-79050000D03*
X140600000Y-80550000D03*
D13*
X107000000Y-62100000D03*
X105300000Y-62100000D03*
D14*
X108800000Y-62100000D03*
X110500000Y-62100000D03*
X108800000Y-59900000D03*
X110500000Y-59900000D03*
D15*
X120450000Y-82600000D03*
X120450000Y-84200000D03*
D10*
X132850000Y-84950000D03*
X133500000Y-84950000D03*
X134150000Y-84950000D03*
X134800000Y-84950000D03*
X135450000Y-84950000D03*
X136100000Y-84950000D03*
X136750000Y-84950000D03*
X137400000Y-84950000D03*
X138050000Y-84950000D03*
X138700000Y-84950000D03*
X138700000Y-79050000D03*
X138050000Y-79050000D03*
X137400000Y-79050000D03*
X136750000Y-79050000D03*
X136100000Y-79050000D03*
X135450000Y-79050000D03*
X134800000Y-79050000D03*
X134150000Y-79050000D03*
X133500000Y-79050000D03*
X132850000Y-79050000D03*
X121900000Y-84950000D03*
X122550000Y-84950000D03*
X123200000Y-84950000D03*
X123850000Y-84950000D03*
X124500000Y-84950000D03*
X125150000Y-84950000D03*
X125800000Y-84950000D03*
X126450000Y-84950000D03*
X127100000Y-84950000D03*
X127750000Y-84950000D03*
X127750000Y-79050000D03*
X127100000Y-79050000D03*
X126450000Y-79050000D03*
X125800000Y-79050000D03*
X125150000Y-79050000D03*
X124500000Y-79050000D03*
X123850000Y-79050000D03*
X123200000Y-79050000D03*
X122550000Y-79050000D03*
X121900000Y-79050000D03*
D12*
X149800000Y-79050000D03*
X149800000Y-80550000D03*
X131350000Y-79050000D03*
X131350000Y-80550000D03*
D10*
X123800000Y-46450000D03*
X124450000Y-46450000D03*
X125100000Y-46450000D03*
X125750000Y-46450000D03*
X126400000Y-46450000D03*
X127050000Y-46450000D03*
X127700000Y-46450000D03*
X127700000Y-40550000D03*
X127050000Y-40550000D03*
X126400000Y-40550000D03*
X125750000Y-40550000D03*
X125100000Y-40550000D03*
X124450000Y-40550000D03*
X123800000Y-40550000D03*
D12*
X156800000Y-53600000D03*
X156800000Y-55100000D03*
D15*
X139950000Y-40450000D03*
X139950000Y-42050000D03*
D12*
X156800000Y-64050000D03*
X156800000Y-65550000D03*
X156800000Y-68000000D03*
X156800000Y-69500000D03*
D16*
X156800000Y-72800000D03*
X156800000Y-71300000D03*
D17*
X147250000Y-45650000D03*
X148750000Y-45650000D03*
D18*
X145800000Y-47200000D03*
X145800000Y-45600000D03*
D19*
X148800000Y-47150000D03*
X147200000Y-47150000D03*
D20*
X117411500Y-40767000D03*
X115911500Y-40767000D03*
D21*
X107531000Y-40894000D03*
X109131000Y-40894000D03*
D12*
X109950000Y-55750000D03*
X109950000Y-57250000D03*
D17*
X106650000Y-44000000D03*
X108150000Y-44000000D03*
X115800000Y-75000000D03*
X117300000Y-75000000D03*
X128000000Y-75000000D03*
X129500000Y-75000000D03*
D20*
X126250000Y-75000000D03*
X124750000Y-75000000D03*
D16*
X131700000Y-69800000D03*
X131700000Y-68300000D03*
D12*
X131700000Y-59800000D03*
X131700000Y-61300000D03*
D17*
X125500000Y-55600000D03*
X127000000Y-55600000D03*
X119000000Y-55600000D03*
X120500000Y-55600000D03*
D12*
X112300000Y-60800000D03*
X112300000Y-62300000D03*
D20*
X116000000Y-55600000D03*
X114500000Y-55600000D03*
D16*
X112300000Y-70800000D03*
X112300000Y-69300000D03*
D22*
X105700000Y-72250000D03*
X108000000Y-72250000D03*
D23*
X108000000Y-65950000D03*
D22*
X110300000Y-72250000D03*
D13*
X110300000Y-74800000D03*
X108600000Y-74800000D03*
D24*
X112600000Y-72550000D03*
X112600000Y-74250000D03*
D19*
X112649000Y-40894000D03*
X111049000Y-40894000D03*
D12*
X141200000Y-70400000D03*
X141200000Y-71900000D03*
D16*
X141200000Y-65550000D03*
X141200000Y-64050000D03*
D25*
X114337500Y-59300000D03*
X114337500Y-59800000D03*
X114337500Y-60300000D03*
X114337500Y-60800000D03*
X114337500Y-61300000D03*
X114337500Y-61800000D03*
X114337500Y-62300000D03*
X114337500Y-62800000D03*
X114337500Y-63300000D03*
X114337500Y-63800000D03*
X114337500Y-64300000D03*
X114337500Y-64800000D03*
X114337500Y-65300000D03*
X114337500Y-65800000D03*
X114337500Y-66300000D03*
X114337500Y-66800000D03*
X114337500Y-67300000D03*
X114337500Y-67800000D03*
X114337500Y-68300000D03*
X114337500Y-68800000D03*
X114337500Y-69300000D03*
X114337500Y-69800000D03*
X114337500Y-70300000D03*
X114337500Y-70800000D03*
X114337500Y-71300000D03*
D26*
X116000000Y-72962500D03*
X116500000Y-72962500D03*
X117000000Y-72962500D03*
X117500000Y-72962500D03*
X118000000Y-72962500D03*
X118500000Y-72962500D03*
X119000000Y-72962500D03*
X119500000Y-72962500D03*
X120000000Y-72962500D03*
X120500000Y-72962500D03*
X121000000Y-72962500D03*
X121500000Y-72962500D03*
X122000000Y-72962500D03*
X122500000Y-72962500D03*
X123000000Y-72962500D03*
X123500000Y-72962500D03*
X124000000Y-72962500D03*
X124500000Y-72962500D03*
X125000000Y-72962500D03*
X125500000Y-72962500D03*
X126000000Y-72962500D03*
X126500000Y-72962500D03*
X127000000Y-72962500D03*
X127500000Y-72962500D03*
X128000000Y-72962500D03*
D25*
X129662500Y-71300000D03*
X129662500Y-70800000D03*
X129662500Y-70300000D03*
X129662500Y-69800000D03*
X129662500Y-69300000D03*
X129662500Y-68800000D03*
X129662500Y-68300000D03*
X129662500Y-67800000D03*
X129662500Y-67300000D03*
X129662500Y-66800000D03*
X129662500Y-66300000D03*
X129662500Y-65800000D03*
X129662500Y-65300000D03*
X129662500Y-64800000D03*
X129662500Y-64300000D03*
X129662500Y-63800000D03*
X129662500Y-63300000D03*
X129662500Y-62800000D03*
X129662500Y-62300000D03*
X129662500Y-61800000D03*
X129662500Y-61300000D03*
X129662500Y-60800000D03*
X129662500Y-60300000D03*
X129662500Y-59800000D03*
X129662500Y-59300000D03*
D26*
X128000000Y-57637500D03*
X127500000Y-57637500D03*
X127000000Y-57637500D03*
X126500000Y-57637500D03*
X126000000Y-57637500D03*
X125500000Y-57637500D03*
X125000000Y-57637500D03*
X124500000Y-57637500D03*
X124000000Y-57637500D03*
X123500000Y-57637500D03*
X123000000Y-57637500D03*
X122500000Y-57637500D03*
X122000000Y-57637500D03*
X121500000Y-57637500D03*
X121000000Y-57637500D03*
X120500000Y-57637500D03*
X120000000Y-57637500D03*
X119500000Y-57637500D03*
X119000000Y-57637500D03*
X118500000Y-57637500D03*
X118000000Y-57637500D03*
X117500000Y-57637500D03*
X117000000Y-57637500D03*
X116500000Y-57637500D03*
X116000000Y-57637500D03*
D15*
X141200000Y-52800000D03*
X141200000Y-54400000D03*
D12*
X141450000Y-40500000D03*
X141450000Y-42000000D03*
D27*
X112460000Y-42418000D03*
X112460000Y-43688000D03*
X112460000Y-44958000D03*
X112460000Y-46228000D03*
X112460000Y-47498000D03*
X112460000Y-48768000D03*
X112460000Y-50038000D03*
X112460000Y-51308000D03*
X117410000Y-51308000D03*
X117410000Y-50038000D03*
X117410000Y-48768000D03*
X117410000Y-47498000D03*
X117410000Y-46228000D03*
X117410000Y-44958000D03*
X117410000Y-43688000D03*
X117410000Y-42418000D03*
D12*
X110172500Y-46228000D03*
X110172500Y-47728000D03*
D16*
X119634000Y-42418000D03*
X119634000Y-40918000D03*
D13*
X107000000Y-59900000D03*
X105300000Y-59900000D03*
D28*
X135650000Y-41575000D03*
X135000000Y-41575000D03*
X134350000Y-41575000D03*
X133700000Y-41575000D03*
X133050000Y-41575000D03*
D29*
X133550000Y-38925000D03*
X135150000Y-38925000D03*
D30*
X106650000Y-55750000D03*
X106650000Y-47250000D03*
D19*
X138250000Y-57500000D03*
X136650000Y-57500000D03*
X138250000Y-53000000D03*
X136650000Y-53000000D03*
X138250000Y-56000000D03*
X136650000Y-56000000D03*
X138250000Y-54500000D03*
X136650000Y-54500000D03*
X137250000Y-44350000D03*
X135650000Y-44350000D03*
X133550000Y-66800000D03*
X131950000Y-66800000D03*
D21*
X124850000Y-77250000D03*
X126450000Y-77250000D03*
D18*
X122150000Y-42450000D03*
X122150000Y-40850000D03*
D15*
X120600000Y-75500000D03*
X120600000Y-77100000D03*
D20*
X148750000Y-48650000D03*
X147250000Y-48650000D03*
M02*
