G04 #@! TF.GenerationSoftware,KiCad,Pcbnew,(6.0.1-0)*
G04 #@! TF.CreationDate,2022-02-07T03:36:48-05:00*
G04 #@! TF.ProjectId,GW4302,47573433-3032-42e6-9b69-6361645f7063,0.1*
G04 #@! TF.SameCoordinates,Original*
G04 #@! TF.FileFunction,Soldermask,Bot*
G04 #@! TF.FilePolarity,Negative*
%FSLAX46Y46*%
G04 Gerber Fmt 4.6, Leading zero omitted, Abs format (unit mm)*
G04 Created by KiCad (PCBNEW (6.0.1-0)) date 2022-02-07 03:36:48*
%MOMM*%
%LPD*%
G01*
G04 APERTURE LIST*
G04 Aperture macros list*
%AMRoundRect*
0 Rectangle with rounded corners*
0 $1 Rounding radius*
0 $2 $3 $4 $5 $6 $7 $8 $9 X,Y pos of 4 corners*
0 Add a 4 corners polygon primitive as box body*
4,1,4,$2,$3,$4,$5,$6,$7,$8,$9,$2,$3,0*
0 Add four circle primitives for the rounded corners*
1,1,$1+$1,$2,$3*
1,1,$1+$1,$4,$5*
1,1,$1+$1,$6,$7*
1,1,$1+$1,$8,$9*
0 Add four rect primitives between the rounded corners*
20,1,$1+$1,$2,$3,$4,$5,0*
20,1,$1+$1,$4,$5,$6,$7,0*
20,1,$1+$1,$6,$7,$8,$9,0*
20,1,$1+$1,$8,$9,$2,$3,0*%
G04 Aperture macros list end*
%ADD10C,0.000000*%
%ADD11C,2.150000*%
%ADD12O,1.170000X2.000000*%
%ADD13C,1.400000*%
%ADD14C,1.448000*%
%ADD15C,1.140600*%
%ADD16C,2.524900*%
%ADD17RoundRect,0.456000X0.381000X3.289000X-0.381000X3.289000X-0.381000X-3.289000X0.381000X-3.289000X0*%
G04 APERTURE END LIST*
D10*
G36*
X161290000Y-97282000D02*
G01*
X160782000Y-97790000D01*
X103378000Y-97790000D01*
X102870000Y-97282000D01*
X102870000Y-89916000D01*
X161290000Y-89916000D01*
X161290000Y-97282000D01*
G37*
G36*
X161290000Y-97282000D02*
G01*
X160782000Y-97790000D01*
X103378000Y-97790000D01*
X102870000Y-97282000D01*
X102870000Y-89916000D01*
X161290000Y-89916000D01*
X161290000Y-97282000D01*
G37*
D11*
X105410000Y-88011000D03*
X158750000Y-88011000D03*
D12*
X137950000Y-38950000D03*
D13*
X136775000Y-41600000D03*
X131925000Y-41600000D03*
D12*
X130750000Y-38950000D03*
D14*
X156527500Y-38735000D03*
X158750000Y-82931000D03*
X105092500Y-41275000D03*
D15*
X153733500Y-51244500D03*
D16*
X152209500Y-49339500D03*
D15*
X154749500Y-43624500D03*
X155765500Y-51244500D03*
D16*
X152209500Y-43624500D03*
X157289500Y-49339500D03*
X157289500Y-43624500D03*
D17*
X158750000Y-93118000D03*
X156210000Y-93118000D03*
X153670000Y-93118000D03*
X151130000Y-93118000D03*
X148590000Y-93118000D03*
X146050000Y-93118000D03*
X143510000Y-93118000D03*
X140970000Y-93118000D03*
X138430000Y-93118000D03*
X135890000Y-93118000D03*
X133350000Y-93118000D03*
X130810000Y-93118000D03*
X128270000Y-93118000D03*
X125730000Y-93118000D03*
X123190000Y-93118000D03*
X120650000Y-93118000D03*
X118110000Y-93118000D03*
X115570000Y-93118000D03*
X113030000Y-93118000D03*
X110490000Y-93118000D03*
X107950000Y-93118000D03*
X105410000Y-93118000D03*
M02*
