M48
; DRILL file {KiCad (5.1.10-1-10_14)} date Saturday, January 15, 2022 at 10:16:04 AM
; FORMAT={-:-/ absolute / inch / decimal}
; #@! TF.CreationDate,2022-01-15T10:16:04-05:00
; #@! TF.GenerationSoftware,Kicad,Pcbnew,(5.1.10-1-10_14)
FMAT,2
INCH
T1C0.0079
T2C0.0118
T3C0.0157
T4C0.0197
T5C0.0276
T6C0.0433
T7C0.0390
T8C0.0454
T9C0.0935
%
G90
G05
T1
X4.1Y-3.52
X4.1075Y-1.89
X4.1075Y-2.09
X4.1075Y-2.29
X4.1075Y-2.49
X4.1075Y-2.69
X4.1075Y-2.89
X4.1075Y-3.09
X4.1075Y-3.29
X4.1516Y-2.315
X4.1516Y-2.4016
X4.1516Y-2.4882
X4.2Y-3.52
X4.2067Y-2.315
X4.2067Y-2.4016
X4.2067Y-2.4882
X4.2382Y-3.1181
X4.2382Y-3.1654
X4.24Y-1.645
X4.248Y-2.3583
X4.248Y-2.4016
X4.248Y-2.4449
X4.2575Y-1.6975
X4.2575Y-1.7675
X4.2815Y-2.9016
X4.2815Y-2.9882
X4.2894Y-2.315
X4.2894Y-2.4016
X4.2894Y-2.4882
X4.29Y-1.645
X4.2925Y-2.2525
X4.3Y-1.495
X4.3Y-3.52
X4.3025Y-1.8275
X4.3025Y-1.8725
X4.3051Y-3.1654
X4.3091Y-3.1122
X4.3327Y-3.1555
X4.3425Y-1.61
X4.3445Y-2.315
X4.3445Y-2.4882
X4.3583Y-3.0689
X4.3725Y-1.67
X4.3725Y-1.72
X4.3725Y-1.77
X4.3725Y-1.82
X4.3725Y-1.8725
X4.3878Y-2.3996
X4.3878Y-2.4469
X4.3878Y-2.7343
X4.3878Y-2.7815
X4.3898Y-2.9173
X4.4Y-3.52
X4.4094Y-3.3012
X4.435Y-3.0689
X4.435Y-3.2697
X4.4469Y-3.4154
X4.4567Y-2.4094
X4.4567Y-2.437
X4.4567Y-2.7441
X4.4567Y-2.7717
X4.4646Y-1.5472
X4.465Y-1.61
X4.4764Y-2.9173
X4.4825Y-1.67
X4.4825Y-1.82
X4.4862Y-3.1555
X4.4862Y-3.3012
X4.4862Y-3.3878
X4.5Y-1.495
X4.5Y-3.52
X4.502Y-2.8287
X4.5098Y-3.3445
X4.5138Y-2.1555
X4.5138Y-2.2224
X4.5256Y-3.1043
X4.5256Y-3.1516
X4.5453Y-2.2697
X4.5453Y-2.4921
X4.5453Y-2.5512
X4.5453Y-2.5906
X4.5453Y-2.6299
X4.5453Y-2.6693
X4.5492Y-2.4094
X4.5492Y-2.437
X4.5492Y-2.7441
X4.5492Y-2.7717
X4.561Y-2.1555
X4.565Y-2.9862
X4.5669Y-2.2244
X4.5669Y-2.313
X4.5669Y-2.8287
X4.5669Y-2.9173
X4.5675Y-1.67
X4.5675Y-2.02
X4.57Y-1.57
X4.57Y-1.64
X4.57Y-1.72
X4.5807Y-2.4724
X4.5807Y-2.5709
X4.5807Y-2.6102
X4.5846Y-2.6496
X4.5846Y-2.7244
X4.5866Y-2.7933
X4.5925Y-2.4114
X4.5925Y-3.1516
X4.5945Y-3.1024
X4.5984Y-2.687
X4.6Y-3.52
X4.6004Y-2.5079
X4.6063Y-2.8287
X4.6122Y-2.9193
X4.6122Y-2.9862
X4.615Y-1.57
X4.6181Y-2.4528
X4.6181Y-3.0669
X4.6225Y-1.6425
X4.628Y-2.3228
X4.6457Y-2.185
X4.6457Y-2.2244
X4.6457Y-2.5709
X4.6457Y-2.8287
X4.6625Y-1.5925
X4.6634Y-2.9449
X4.6693Y-3.2047
X4.6713Y-2.3465
X4.675Y-1.6175
X4.6775Y-1.67
X4.685Y-2.7933
X4.6909Y-2.1555
X4.7Y-1.495
X4.7Y-1.89
X4.7Y-3.52
X4.7008Y-2.2244
X4.7008Y-2.3169
X4.7047Y-2.0394
X4.7047Y-2.8287
X4.7087Y-2.9173
X4.7087Y-3.1181
X4.7087Y-3.1654
X4.71Y-1.58
X4.71Y-1.7025
X4.7205Y-2.5689
X4.7205Y-3.4469
X4.7244Y-2.7933
X4.7283Y-2.2244
X4.7283Y-2.3169
X4.7382Y-2.1555
X4.7638Y-2.3406
X4.7638Y-2.9173
X4.7677Y-3.065
X4.7756Y-3.1122
X4.7756Y-3.1713
X4.7835Y-1.7205
X4.7835Y-2.8287
X4.7913Y-1.5787
X4.7953Y-2.126
X4.7953Y-3.0689
X4.7992Y-3.1555
X4.7992Y-3.3878
X4.8Y-3.52
X4.8031Y-2.9173
X4.8169Y-3.2992
X4.8189Y-1.7441
X4.8228Y-2.8287
X4.8248Y-3.187
X4.8327Y-2.3327
X4.8425Y-2.9173
X4.8504Y-2.9744
X4.8504Y-3.1555
X4.8504Y-3.3878
X4.8622Y-2.8287
X4.874Y-1.6398
X4.876Y-3.187
X4.876Y-3.3012
X4.8799Y-3.0236
X4.8819Y-2.9173
X4.9Y-1.495
X4.9Y-3.52
X4.9016Y-2.7933
X4.9016Y-3.1555
X4.9016Y-3.3878
X4.9154Y-2.3287
X4.9173Y-2.9862
X4.9213Y-2.8287
X4.9213Y-2.9173
X4.9252Y-1.6398
X4.9252Y-1.7854
X4.9272Y-3.187
X4.937Y-3.063
X4.9409Y-2.7933
X4.9469Y-2.1555
X4.9567Y-2.2244
X4.9567Y-2.3169
X4.9606Y-2.8287
X4.9606Y-2.9173
X4.9705Y-2.124
X4.9724Y-1.9311
X4.9744Y-2.9862
X4.9764Y-1.6398
X4.9783Y-3.187
X4.9803Y-2.7933
X4.9843Y-2.2244
X4.9843Y-2.3169
X4.9902Y-1.8858
X4.9902Y-2.6909
X4.9941Y-2.1555
X4.9961Y-2.7539
X5.0Y-2.8287
X5.0Y-3.52
X5.0138Y-2.3917
X5.0197Y-2.7224
X5.0197Y-2.7933
X5.0256Y-2.6693
X5.0276Y-1.7657
X5.0276Y-1.872
X5.0295Y-3.187
X5.0295Y-3.3012
X5.0295Y-3.3878
X5.0315Y-2.1378
X5.0335Y-1.6496
X5.0354Y-2.3268
X5.0394Y-2.2244
X5.0394Y-2.8287
X5.0394Y-2.9173
X5.0453Y-2.9862
X5.0531Y-3.3445
X5.0571Y-2.3701
X5.0571Y-2.3976
X5.0571Y-2.7047
X5.0571Y-2.7323
X5.061Y-2.5906
X5.061Y-2.6496
X5.0689Y-2.872
X5.0689Y-3.3819
X5.0925Y-2.9193
X5.0925Y-2.9862
X5.1Y-1.495
X5.1Y-3.52
X5.1398Y-3.1181
X5.1398Y-3.1654
X5.1496Y-2.3701
X5.1496Y-2.3976
X5.1496Y-2.6299
X5.1496Y-2.7047
X5.1496Y-2.7323
X5.1496Y-2.7874
X5.1496Y-3.0059
X5.1516Y-1.8248
X5.185Y-2.8071
X5.2Y-3.52
X5.2067Y-3.1122
X5.2067Y-3.1713
X5.2185Y-2.3602
X5.2185Y-2.4075
X5.2185Y-2.6949
X5.2185Y-2.7421
X5.2264Y-1.813
X5.2303Y-3.0689
X5.2303Y-3.1555
X5.2303Y-3.2697
X5.2382Y-1.6772
X5.2461Y-2.6063
X5.2559Y-3.187
X5.2559Y-3.3012
X5.2618Y-2.374
X5.2717Y-2.7106
X5.2717Y-2.8642
X5.2815Y-3.1555
X5.2815Y-3.3878
X5.29Y-1.495
X5.2992Y-2.3524
X5.3Y-3.52
X5.3071Y-3.0689
X5.3071Y-3.3012
X5.3189Y-2.5846
X5.3327Y-2.0709
X5.3327Y-2.2795
X5.3327Y-2.626
X5.3327Y-3.1555
X5.3327Y-3.3878
X5.3465Y-2.8642
X5.3583Y-2.7972
X5.3583Y-3.0689
X5.3583Y-3.3012
X5.3701Y-2.6732
X5.3799Y-2.7283
X5.3839Y-3.1555
X5.3839Y-3.3878
X5.3858Y-2.8248
X5.4Y-3.52
X5.4094Y-3.0689
X5.4094Y-3.3012
X5.4311Y-2.7795
X5.435Y-3.1555
X5.435Y-3.4193
X5.4606Y-3.0689
X5.4606Y-3.3012
X5.4606Y-3.3878
X5.4626Y-2.5906
X5.4705Y-2.0866
X5.4705Y-2.1457
X5.4705Y-2.2047
X5.4705Y-2.2638
X5.4823Y-2.7283
X5.4843Y-3.3445
X5.49Y-1.495
X5.5Y-3.52
X5.502Y-3.1181
X5.502Y-3.1654
X5.5098Y-1.685
X5.5138Y-2.4685
X5.5256Y-2.5276
X5.5256Y-2.5748
X5.5256Y-2.7776
X5.5256Y-2.8248
X5.5689Y-3.1122
X5.5689Y-3.1713
X5.5866Y-2.2874
X5.5906Y-2.189
X5.5925Y-2.8248
X5.5925Y-3.0689
X5.5925Y-3.1555
X5.5945Y-2.1102
X5.5945Y-2.5197
X5.5945Y-2.5827
X5.5945Y-2.6772
X5.5945Y-2.7717
X5.5945Y-2.8661
X5.5945Y-2.9291
X5.6Y-3.52
X5.6024Y-1.6201
X5.6181Y-3.3012
X5.6378Y-1.6437
X5.6398Y-2.0846
X5.6437Y-3.1555
X5.6437Y-3.3878
X5.6457Y-1.7067
X5.6673Y-1.8189
X5.6693Y-3.0689
X5.6693Y-3.3012
X5.685Y-2.1102
X5.685Y-2.5197
X5.685Y-2.5827
X5.685Y-2.6772
X5.685Y-2.7717
X5.685Y-2.8661
X5.685Y-2.9291
X5.689Y-1.8583
X5.69Y-1.495
X5.6949Y-3.1555
X5.6949Y-3.3878
X5.7Y-3.52
X5.7047Y-1.5453
X5.7087Y-2.5512
X5.7087Y-2.8976
X5.7146Y-2.6102
X5.7146Y-2.6496
X5.7146Y-2.7047
X5.7146Y-2.7441
X5.7146Y-2.7992
X5.7146Y-2.8386
X5.7205Y-2.4685
X5.7205Y-3.0689
X5.7205Y-3.3012
X5.7244Y-2.185
X5.7402Y-1.5689
X5.7402Y-1.6339
X5.7461Y-3.1555
X5.7461Y-3.3878
X5.7579Y-2.5807
X5.7579Y-2.6772
X5.7579Y-2.7717
X5.7579Y-2.8661
X5.7657Y-1.9154
X5.7717Y-3.0689
X5.7717Y-3.3012
X5.7736Y-1.5374
X5.7736Y-1.6594
X5.7972Y-3.1555
X5.7972Y-3.2697
X5.8Y-3.52
X5.8031Y-1.9488
X5.8071Y-1.5748
X5.8071Y-1.622
X5.8091Y-2.6299
X5.8091Y-2.7244
X5.8091Y-2.8189
X5.8091Y-2.9272
X5.8228Y-3.0689
X5.8228Y-3.3012
X5.8228Y-3.3878
X5.8465Y-3.3445
X5.8504Y-1.9488
X5.8642Y-3.1181
X5.8642Y-3.1654
X5.8878Y-1.7972
X5.8878Y-1.8563
X5.8976Y-2.0374
X5.9Y-3.52
X5.9311Y-2.5807
X5.9311Y-2.6772
X5.9311Y-2.7717
X5.9311Y-2.8661
X5.9311Y-3.1122
X5.9311Y-3.1713
X5.9547Y-3.0689
X5.9547Y-3.1555
X5.9547Y-3.3012
X5.98Y-1.8225
X5.9803Y-3.187
X6.0Y-3.52
X6.0059Y-3.1555
X6.0315Y-3.0689
X6.035Y-1.8175
X6.0433Y-2.9173
X6.0472Y-2.1102
X6.0472Y-2.5197
X6.0472Y-2.5827
X6.0472Y-2.6772
X6.0472Y-2.7717
X6.0472Y-2.8661
X6.0571Y-3.1555
X6.0827Y-3.0689
X6.0925Y-2.085
X6.1Y-3.52
X6.1083Y-3.1555
X6.1339Y-3.0689
X6.1378Y-2.1102
X6.1378Y-2.5197
X6.1378Y-2.5827
X6.1378Y-2.6772
X6.1378Y-2.7717
X6.1378Y-2.8661
X6.1378Y-2.9291
X6.1398Y-2.1634
X6.1398Y-2.7303
X6.1398Y-2.813
X6.15Y-1.7775
X6.1594Y-3.1555
X6.185Y-3.0689
X6.185Y-3.3012
X6.185Y-3.3878
X6.2Y-3.52
X6.2067Y-2.1161
X6.2067Y-2.1634
X6.2067Y-2.5276
X6.2067Y-2.5748
X6.2067Y-2.6831
X6.2067Y-2.7303
X6.2067Y-2.813
X6.2067Y-2.8602
X6.2087Y-1.8583
X6.2925Y-1.795
X6.2925Y-2.0775
X6.2925Y-2.3275
X6.2925Y-2.5275
X6.2925Y-2.7275
X6.2925Y-2.9275
X6.2925Y-3.1275
X6.2925Y-3.3275
X6.3Y-3.52
T2
X4.22Y-3.305
X4.3189Y-3.2539
T3
X4.1535Y-2.5335
X4.1535Y-2.5965
X4.1535Y-2.6594
X4.1535Y-2.7283
X4.2224Y-2.5335
X4.2224Y-2.6594
X4.2224Y-2.7283
X4.2815Y-2.5335
X4.2815Y-2.6594
X4.2815Y-2.7283
X4.3504Y-2.5335
X4.3504Y-2.5965
X4.3504Y-2.6594
X4.3504Y-2.7283
X4.4134Y-2.5335
X4.4134Y-2.5965
X4.4134Y-2.6594
T4
X4.1614Y-2.7795
X4.1614Y-2.9094
X4.252Y-2.7795
T5
X5.1939Y-1.6378
X5.3848Y-1.6378
T6
X4.15Y-3.465
X6.25Y-3.465
T7
X6.0525Y-2.0175
X6.0925Y-1.7175
X6.1325Y-2.0175
T8
X4.1375Y-1.625
X6.1625Y-1.525
X6.25Y-3.265
T9
X5.9925Y-1.7175
X5.9925Y-1.9425
X6.1925Y-1.7175
X6.1925Y-1.9425
T4
G00X5.1476Y-1.5492
M15
G01X5.1476Y-1.5177
M16
G05
G00X5.4311Y-1.5177
M15
G01X5.4311Y-1.5492
M16
G05
T0
M30
