G04 #@! TF.GenerationSoftware,KiCad,Pcbnew,(5.1.10-1-10_14)*
G04 #@! TF.CreationDate,2022-01-15T10:16:02-05:00*
G04 #@! TF.ProjectId,GW4302,47573433-3032-42e6-9b69-6361645f7063,1.2*
G04 #@! TF.SameCoordinates,Original*
G04 #@! TF.FileFunction,Paste,Top*
G04 #@! TF.FilePolarity,Positive*
%FSLAX46Y46*%
G04 Gerber Fmt 4.6, Leading zero omitted, Abs format (unit mm)*
G04 Created by KiCad (PCBNEW (5.1.10-1-10_14)) date 2022-01-15 10:16:02*
%MOMM*%
%LPD*%
G01*
G04 APERTURE LIST*
G04 APERTURE END LIST*
G36*
G01*
X141207500Y-41615000D02*
X141692500Y-41615000D01*
G75*
G02*
X141885000Y-41807500I0J-192500D01*
G01*
X141885000Y-42192500D01*
G75*
G02*
X141692500Y-42385000I-192500J0D01*
G01*
X141207500Y-42385000D01*
G75*
G02*
X141015000Y-42192500I0J192500D01*
G01*
X141015000Y-41807500D01*
G75*
G02*
X141207500Y-41615000I192500J0D01*
G01*
G37*
G36*
G01*
X141207500Y-40115000D02*
X141692500Y-40115000D01*
G75*
G02*
X141885000Y-40307500I0J-192500D01*
G01*
X141885000Y-40692500D01*
G75*
G02*
X141692500Y-40885000I-192500J0D01*
G01*
X141207500Y-40885000D01*
G75*
G02*
X141015000Y-40692500I0J192500D01*
G01*
X141015000Y-40307500D01*
G75*
G02*
X141207500Y-40115000I192500J0D01*
G01*
G37*
G36*
G01*
X121425000Y-40550000D02*
X121975000Y-40550000D01*
G75*
G02*
X122125000Y-40700000I0J-150000D01*
G01*
X122125000Y-41000000D01*
G75*
G02*
X121975000Y-41150000I-150000J0D01*
G01*
X121425000Y-41150000D01*
G75*
G02*
X121275000Y-41000000I0J150000D01*
G01*
X121275000Y-40700000D01*
G75*
G02*
X121425000Y-40550000I150000J0D01*
G01*
G37*
G36*
G01*
X121425000Y-42150000D02*
X121975000Y-42150000D01*
G75*
G02*
X122125000Y-42300000I0J-150000D01*
G01*
X122125000Y-42600000D01*
G75*
G02*
X121975000Y-42750000I-150000J0D01*
G01*
X121425000Y-42750000D01*
G75*
G02*
X121275000Y-42600000I0J150000D01*
G01*
X121275000Y-42300000D01*
G75*
G02*
X121425000Y-42150000I150000J0D01*
G01*
G37*
G36*
G01*
X143975000Y-74300500D02*
X143975000Y-74499500D01*
G75*
G02*
X143875500Y-74599000I-99500J0D01*
G01*
X142624500Y-74599000D01*
G75*
G02*
X142525000Y-74499500I0J99500D01*
G01*
X142525000Y-74300500D01*
G75*
G02*
X142624500Y-74201000I99500J0D01*
G01*
X143875500Y-74201000D01*
G75*
G02*
X143975000Y-74300500I0J-99500D01*
G01*
G37*
G36*
G01*
X143975000Y-73500500D02*
X143975000Y-73699500D01*
G75*
G02*
X143875500Y-73799000I-99500J0D01*
G01*
X142624500Y-73799000D01*
G75*
G02*
X142525000Y-73699500I0J99500D01*
G01*
X142525000Y-73500500D01*
G75*
G02*
X142624500Y-73401000I99500J0D01*
G01*
X143875500Y-73401000D01*
G75*
G02*
X143975000Y-73500500I0J-99500D01*
G01*
G37*
G36*
G01*
X143975000Y-72700500D02*
X143975000Y-72899500D01*
G75*
G02*
X143875500Y-72999000I-99500J0D01*
G01*
X142624500Y-72999000D01*
G75*
G02*
X142525000Y-72899500I0J99500D01*
G01*
X142525000Y-72700500D01*
G75*
G02*
X142624500Y-72601000I99500J0D01*
G01*
X143875500Y-72601000D01*
G75*
G02*
X143975000Y-72700500I0J-99500D01*
G01*
G37*
G36*
G01*
X143975000Y-71900500D02*
X143975000Y-72099500D01*
G75*
G02*
X143875500Y-72199000I-99500J0D01*
G01*
X142624500Y-72199000D01*
G75*
G02*
X142525000Y-72099500I0J99500D01*
G01*
X142525000Y-71900500D01*
G75*
G02*
X142624500Y-71801000I99500J0D01*
G01*
X143875500Y-71801000D01*
G75*
G02*
X143975000Y-71900500I0J-99500D01*
G01*
G37*
G36*
G01*
X143975000Y-71100500D02*
X143975000Y-71299500D01*
G75*
G02*
X143875500Y-71399000I-99500J0D01*
G01*
X142624500Y-71399000D01*
G75*
G02*
X142525000Y-71299500I0J99500D01*
G01*
X142525000Y-71100500D01*
G75*
G02*
X142624500Y-71001000I99500J0D01*
G01*
X143875500Y-71001000D01*
G75*
G02*
X143975000Y-71100500I0J-99500D01*
G01*
G37*
G36*
G01*
X143975000Y-70300500D02*
X143975000Y-70499500D01*
G75*
G02*
X143875500Y-70599000I-99500J0D01*
G01*
X142624500Y-70599000D01*
G75*
G02*
X142525000Y-70499500I0J99500D01*
G01*
X142525000Y-70300500D01*
G75*
G02*
X142624500Y-70201000I99500J0D01*
G01*
X143875500Y-70201000D01*
G75*
G02*
X143975000Y-70300500I0J-99500D01*
G01*
G37*
G36*
G01*
X143975000Y-69500500D02*
X143975000Y-69699500D01*
G75*
G02*
X143875500Y-69799000I-99500J0D01*
G01*
X142624500Y-69799000D01*
G75*
G02*
X142525000Y-69699500I0J99500D01*
G01*
X142525000Y-69500500D01*
G75*
G02*
X142624500Y-69401000I99500J0D01*
G01*
X143875500Y-69401000D01*
G75*
G02*
X143975000Y-69500500I0J-99500D01*
G01*
G37*
G36*
G01*
X143975000Y-68700500D02*
X143975000Y-68899500D01*
G75*
G02*
X143875500Y-68999000I-99500J0D01*
G01*
X142624500Y-68999000D01*
G75*
G02*
X142525000Y-68899500I0J99500D01*
G01*
X142525000Y-68700500D01*
G75*
G02*
X142624500Y-68601000I99500J0D01*
G01*
X143875500Y-68601000D01*
G75*
G02*
X143975000Y-68700500I0J-99500D01*
G01*
G37*
G36*
G01*
X143975000Y-67900500D02*
X143975000Y-68099500D01*
G75*
G02*
X143875500Y-68199000I-99500J0D01*
G01*
X142624500Y-68199000D01*
G75*
G02*
X142525000Y-68099500I0J99500D01*
G01*
X142525000Y-67900500D01*
G75*
G02*
X142624500Y-67801000I99500J0D01*
G01*
X143875500Y-67801000D01*
G75*
G02*
X143975000Y-67900500I0J-99500D01*
G01*
G37*
G36*
G01*
X143975000Y-67100500D02*
X143975000Y-67299500D01*
G75*
G02*
X143875500Y-67399000I-99500J0D01*
G01*
X142624500Y-67399000D01*
G75*
G02*
X142525000Y-67299500I0J99500D01*
G01*
X142525000Y-67100500D01*
G75*
G02*
X142624500Y-67001000I99500J0D01*
G01*
X143875500Y-67001000D01*
G75*
G02*
X143975000Y-67100500I0J-99500D01*
G01*
G37*
G36*
G01*
X143975000Y-66300500D02*
X143975000Y-66499500D01*
G75*
G02*
X143875500Y-66599000I-99500J0D01*
G01*
X142624500Y-66599000D01*
G75*
G02*
X142525000Y-66499500I0J99500D01*
G01*
X142525000Y-66300500D01*
G75*
G02*
X142624500Y-66201000I99500J0D01*
G01*
X143875500Y-66201000D01*
G75*
G02*
X143975000Y-66300500I0J-99500D01*
G01*
G37*
G36*
G01*
X143975000Y-65500500D02*
X143975000Y-65699500D01*
G75*
G02*
X143875500Y-65799000I-99500J0D01*
G01*
X142624500Y-65799000D01*
G75*
G02*
X142525000Y-65699500I0J99500D01*
G01*
X142525000Y-65500500D01*
G75*
G02*
X142624500Y-65401000I99500J0D01*
G01*
X143875500Y-65401000D01*
G75*
G02*
X143975000Y-65500500I0J-99500D01*
G01*
G37*
G36*
G01*
X143975000Y-64700500D02*
X143975000Y-64899500D01*
G75*
G02*
X143875500Y-64999000I-99500J0D01*
G01*
X142624500Y-64999000D01*
G75*
G02*
X142525000Y-64899500I0J99500D01*
G01*
X142525000Y-64700500D01*
G75*
G02*
X142624500Y-64601000I99500J0D01*
G01*
X143875500Y-64601000D01*
G75*
G02*
X143975000Y-64700500I0J-99500D01*
G01*
G37*
G36*
G01*
X143975000Y-63900500D02*
X143975000Y-64099500D01*
G75*
G02*
X143875500Y-64199000I-99500J0D01*
G01*
X142624500Y-64199000D01*
G75*
G02*
X142525000Y-64099500I0J99500D01*
G01*
X142525000Y-63900500D01*
G75*
G02*
X142624500Y-63801000I99500J0D01*
G01*
X143875500Y-63801000D01*
G75*
G02*
X143975000Y-63900500I0J-99500D01*
G01*
G37*
G36*
G01*
X143975000Y-63100500D02*
X143975000Y-63299500D01*
G75*
G02*
X143875500Y-63399000I-99500J0D01*
G01*
X142624500Y-63399000D01*
G75*
G02*
X142525000Y-63299500I0J99500D01*
G01*
X142525000Y-63100500D01*
G75*
G02*
X142624500Y-63001000I99500J0D01*
G01*
X143875500Y-63001000D01*
G75*
G02*
X143975000Y-63100500I0J-99500D01*
G01*
G37*
G36*
G01*
X143975000Y-62300500D02*
X143975000Y-62499500D01*
G75*
G02*
X143875500Y-62599000I-99500J0D01*
G01*
X142624500Y-62599000D01*
G75*
G02*
X142525000Y-62499500I0J99500D01*
G01*
X142525000Y-62300500D01*
G75*
G02*
X142624500Y-62201000I99500J0D01*
G01*
X143875500Y-62201000D01*
G75*
G02*
X143975000Y-62300500I0J-99500D01*
G01*
G37*
G36*
G01*
X143975000Y-61500500D02*
X143975000Y-61699500D01*
G75*
G02*
X143875500Y-61799000I-99500J0D01*
G01*
X142624500Y-61799000D01*
G75*
G02*
X142525000Y-61699500I0J99500D01*
G01*
X142525000Y-61500500D01*
G75*
G02*
X142624500Y-61401000I99500J0D01*
G01*
X143875500Y-61401000D01*
G75*
G02*
X143975000Y-61500500I0J-99500D01*
G01*
G37*
G36*
G01*
X143975000Y-60700500D02*
X143975000Y-60899500D01*
G75*
G02*
X143875500Y-60999000I-99500J0D01*
G01*
X142624500Y-60999000D01*
G75*
G02*
X142525000Y-60899500I0J99500D01*
G01*
X142525000Y-60700500D01*
G75*
G02*
X142624500Y-60601000I99500J0D01*
G01*
X143875500Y-60601000D01*
G75*
G02*
X143975000Y-60700500I0J-99500D01*
G01*
G37*
G36*
G01*
X143975000Y-59900500D02*
X143975000Y-60099500D01*
G75*
G02*
X143875500Y-60199000I-99500J0D01*
G01*
X142624500Y-60199000D01*
G75*
G02*
X142525000Y-60099500I0J99500D01*
G01*
X142525000Y-59900500D01*
G75*
G02*
X142624500Y-59801000I99500J0D01*
G01*
X143875500Y-59801000D01*
G75*
G02*
X143975000Y-59900500I0J-99500D01*
G01*
G37*
G36*
G01*
X143975000Y-59100500D02*
X143975000Y-59299500D01*
G75*
G02*
X143875500Y-59399000I-99500J0D01*
G01*
X142624500Y-59399000D01*
G75*
G02*
X142525000Y-59299500I0J99500D01*
G01*
X142525000Y-59100500D01*
G75*
G02*
X142624500Y-59001000I99500J0D01*
G01*
X143875500Y-59001000D01*
G75*
G02*
X143975000Y-59100500I0J-99500D01*
G01*
G37*
G36*
G01*
X143975000Y-58300500D02*
X143975000Y-58499500D01*
G75*
G02*
X143875500Y-58599000I-99500J0D01*
G01*
X142624500Y-58599000D01*
G75*
G02*
X142525000Y-58499500I0J99500D01*
G01*
X142525000Y-58300500D01*
G75*
G02*
X142624500Y-58201000I99500J0D01*
G01*
X143875500Y-58201000D01*
G75*
G02*
X143975000Y-58300500I0J-99500D01*
G01*
G37*
G36*
G01*
X143975000Y-57500500D02*
X143975000Y-57699500D01*
G75*
G02*
X143875500Y-57799000I-99500J0D01*
G01*
X142624500Y-57799000D01*
G75*
G02*
X142525000Y-57699500I0J99500D01*
G01*
X142525000Y-57500500D01*
G75*
G02*
X142624500Y-57401000I99500J0D01*
G01*
X143875500Y-57401000D01*
G75*
G02*
X143975000Y-57500500I0J-99500D01*
G01*
G37*
G36*
G01*
X143975000Y-56700500D02*
X143975000Y-56899500D01*
G75*
G02*
X143875500Y-56999000I-99500J0D01*
G01*
X142624500Y-56999000D01*
G75*
G02*
X142525000Y-56899500I0J99500D01*
G01*
X142525000Y-56700500D01*
G75*
G02*
X142624500Y-56601000I99500J0D01*
G01*
X143875500Y-56601000D01*
G75*
G02*
X143975000Y-56700500I0J-99500D01*
G01*
G37*
G36*
G01*
X143975000Y-55900500D02*
X143975000Y-56099500D01*
G75*
G02*
X143875500Y-56199000I-99500J0D01*
G01*
X142624500Y-56199000D01*
G75*
G02*
X142525000Y-56099500I0J99500D01*
G01*
X142525000Y-55900500D01*
G75*
G02*
X142624500Y-55801000I99500J0D01*
G01*
X143875500Y-55801000D01*
G75*
G02*
X143975000Y-55900500I0J-99500D01*
G01*
G37*
G36*
G01*
X143975000Y-55100500D02*
X143975000Y-55299500D01*
G75*
G02*
X143875500Y-55399000I-99500J0D01*
G01*
X142624500Y-55399000D01*
G75*
G02*
X142525000Y-55299500I0J99500D01*
G01*
X142525000Y-55100500D01*
G75*
G02*
X142624500Y-55001000I99500J0D01*
G01*
X143875500Y-55001000D01*
G75*
G02*
X143975000Y-55100500I0J-99500D01*
G01*
G37*
G36*
G01*
X143975000Y-54300500D02*
X143975000Y-54499500D01*
G75*
G02*
X143875500Y-54599000I-99500J0D01*
G01*
X142624500Y-54599000D01*
G75*
G02*
X142525000Y-54499500I0J99500D01*
G01*
X142525000Y-54300500D01*
G75*
G02*
X142624500Y-54201000I99500J0D01*
G01*
X143875500Y-54201000D01*
G75*
G02*
X143975000Y-54300500I0J-99500D01*
G01*
G37*
G36*
G01*
X143975000Y-53500500D02*
X143975000Y-53699500D01*
G75*
G02*
X143875500Y-53799000I-99500J0D01*
G01*
X142624500Y-53799000D01*
G75*
G02*
X142525000Y-53699500I0J99500D01*
G01*
X142525000Y-53500500D01*
G75*
G02*
X142624500Y-53401000I99500J0D01*
G01*
X143875500Y-53401000D01*
G75*
G02*
X143975000Y-53500500I0J-99500D01*
G01*
G37*
G36*
G01*
X155475000Y-53500500D02*
X155475000Y-53699500D01*
G75*
G02*
X155375500Y-53799000I-99500J0D01*
G01*
X154124500Y-53799000D01*
G75*
G02*
X154025000Y-53699500I0J99500D01*
G01*
X154025000Y-53500500D01*
G75*
G02*
X154124500Y-53401000I99500J0D01*
G01*
X155375500Y-53401000D01*
G75*
G02*
X155475000Y-53500500I0J-99500D01*
G01*
G37*
G36*
G01*
X155475000Y-54300500D02*
X155475000Y-54499500D01*
G75*
G02*
X155375500Y-54599000I-99500J0D01*
G01*
X154124500Y-54599000D01*
G75*
G02*
X154025000Y-54499500I0J99500D01*
G01*
X154025000Y-54300500D01*
G75*
G02*
X154124500Y-54201000I99500J0D01*
G01*
X155375500Y-54201000D01*
G75*
G02*
X155475000Y-54300500I0J-99500D01*
G01*
G37*
G36*
G01*
X155475000Y-55100500D02*
X155475000Y-55299500D01*
G75*
G02*
X155375500Y-55399000I-99500J0D01*
G01*
X154124500Y-55399000D01*
G75*
G02*
X154025000Y-55299500I0J99500D01*
G01*
X154025000Y-55100500D01*
G75*
G02*
X154124500Y-55001000I99500J0D01*
G01*
X155375500Y-55001000D01*
G75*
G02*
X155475000Y-55100500I0J-99500D01*
G01*
G37*
G36*
G01*
X155475000Y-55900500D02*
X155475000Y-56099500D01*
G75*
G02*
X155375500Y-56199000I-99500J0D01*
G01*
X154124500Y-56199000D01*
G75*
G02*
X154025000Y-56099500I0J99500D01*
G01*
X154025000Y-55900500D01*
G75*
G02*
X154124500Y-55801000I99500J0D01*
G01*
X155375500Y-55801000D01*
G75*
G02*
X155475000Y-55900500I0J-99500D01*
G01*
G37*
G36*
G01*
X155475000Y-56700500D02*
X155475000Y-56899500D01*
G75*
G02*
X155375500Y-56999000I-99500J0D01*
G01*
X154124500Y-56999000D01*
G75*
G02*
X154025000Y-56899500I0J99500D01*
G01*
X154025000Y-56700500D01*
G75*
G02*
X154124500Y-56601000I99500J0D01*
G01*
X155375500Y-56601000D01*
G75*
G02*
X155475000Y-56700500I0J-99500D01*
G01*
G37*
G36*
G01*
X155475000Y-57500500D02*
X155475000Y-57699500D01*
G75*
G02*
X155375500Y-57799000I-99500J0D01*
G01*
X154124500Y-57799000D01*
G75*
G02*
X154025000Y-57699500I0J99500D01*
G01*
X154025000Y-57500500D01*
G75*
G02*
X154124500Y-57401000I99500J0D01*
G01*
X155375500Y-57401000D01*
G75*
G02*
X155475000Y-57500500I0J-99500D01*
G01*
G37*
G36*
G01*
X155475000Y-58300500D02*
X155475000Y-58499500D01*
G75*
G02*
X155375500Y-58599000I-99500J0D01*
G01*
X154124500Y-58599000D01*
G75*
G02*
X154025000Y-58499500I0J99500D01*
G01*
X154025000Y-58300500D01*
G75*
G02*
X154124500Y-58201000I99500J0D01*
G01*
X155375500Y-58201000D01*
G75*
G02*
X155475000Y-58300500I0J-99500D01*
G01*
G37*
G36*
G01*
X155475000Y-59100500D02*
X155475000Y-59299500D01*
G75*
G02*
X155375500Y-59399000I-99500J0D01*
G01*
X154124500Y-59399000D01*
G75*
G02*
X154025000Y-59299500I0J99500D01*
G01*
X154025000Y-59100500D01*
G75*
G02*
X154124500Y-59001000I99500J0D01*
G01*
X155375500Y-59001000D01*
G75*
G02*
X155475000Y-59100500I0J-99500D01*
G01*
G37*
G36*
G01*
X155475000Y-59900500D02*
X155475000Y-60099500D01*
G75*
G02*
X155375500Y-60199000I-99500J0D01*
G01*
X154124500Y-60199000D01*
G75*
G02*
X154025000Y-60099500I0J99500D01*
G01*
X154025000Y-59900500D01*
G75*
G02*
X154124500Y-59801000I99500J0D01*
G01*
X155375500Y-59801000D01*
G75*
G02*
X155475000Y-59900500I0J-99500D01*
G01*
G37*
G36*
G01*
X155475000Y-60700500D02*
X155475000Y-60899500D01*
G75*
G02*
X155375500Y-60999000I-99500J0D01*
G01*
X154124500Y-60999000D01*
G75*
G02*
X154025000Y-60899500I0J99500D01*
G01*
X154025000Y-60700500D01*
G75*
G02*
X154124500Y-60601000I99500J0D01*
G01*
X155375500Y-60601000D01*
G75*
G02*
X155475000Y-60700500I0J-99500D01*
G01*
G37*
G36*
G01*
X155475000Y-61500500D02*
X155475000Y-61699500D01*
G75*
G02*
X155375500Y-61799000I-99500J0D01*
G01*
X154124500Y-61799000D01*
G75*
G02*
X154025000Y-61699500I0J99500D01*
G01*
X154025000Y-61500500D01*
G75*
G02*
X154124500Y-61401000I99500J0D01*
G01*
X155375500Y-61401000D01*
G75*
G02*
X155475000Y-61500500I0J-99500D01*
G01*
G37*
G36*
G01*
X155475000Y-62300500D02*
X155475000Y-62499500D01*
G75*
G02*
X155375500Y-62599000I-99500J0D01*
G01*
X154124500Y-62599000D01*
G75*
G02*
X154025000Y-62499500I0J99500D01*
G01*
X154025000Y-62300500D01*
G75*
G02*
X154124500Y-62201000I99500J0D01*
G01*
X155375500Y-62201000D01*
G75*
G02*
X155475000Y-62300500I0J-99500D01*
G01*
G37*
G36*
G01*
X155475000Y-63100500D02*
X155475000Y-63299500D01*
G75*
G02*
X155375500Y-63399000I-99500J0D01*
G01*
X154124500Y-63399000D01*
G75*
G02*
X154025000Y-63299500I0J99500D01*
G01*
X154025000Y-63100500D01*
G75*
G02*
X154124500Y-63001000I99500J0D01*
G01*
X155375500Y-63001000D01*
G75*
G02*
X155475000Y-63100500I0J-99500D01*
G01*
G37*
G36*
G01*
X155475000Y-63900500D02*
X155475000Y-64099500D01*
G75*
G02*
X155375500Y-64199000I-99500J0D01*
G01*
X154124500Y-64199000D01*
G75*
G02*
X154025000Y-64099500I0J99500D01*
G01*
X154025000Y-63900500D01*
G75*
G02*
X154124500Y-63801000I99500J0D01*
G01*
X155375500Y-63801000D01*
G75*
G02*
X155475000Y-63900500I0J-99500D01*
G01*
G37*
G36*
G01*
X155475000Y-64700500D02*
X155475000Y-64899500D01*
G75*
G02*
X155375500Y-64999000I-99500J0D01*
G01*
X154124500Y-64999000D01*
G75*
G02*
X154025000Y-64899500I0J99500D01*
G01*
X154025000Y-64700500D01*
G75*
G02*
X154124500Y-64601000I99500J0D01*
G01*
X155375500Y-64601000D01*
G75*
G02*
X155475000Y-64700500I0J-99500D01*
G01*
G37*
G36*
G01*
X155475000Y-65500500D02*
X155475000Y-65699500D01*
G75*
G02*
X155375500Y-65799000I-99500J0D01*
G01*
X154124500Y-65799000D01*
G75*
G02*
X154025000Y-65699500I0J99500D01*
G01*
X154025000Y-65500500D01*
G75*
G02*
X154124500Y-65401000I99500J0D01*
G01*
X155375500Y-65401000D01*
G75*
G02*
X155475000Y-65500500I0J-99500D01*
G01*
G37*
G36*
G01*
X155475000Y-66300500D02*
X155475000Y-66499500D01*
G75*
G02*
X155375500Y-66599000I-99500J0D01*
G01*
X154124500Y-66599000D01*
G75*
G02*
X154025000Y-66499500I0J99500D01*
G01*
X154025000Y-66300500D01*
G75*
G02*
X154124500Y-66201000I99500J0D01*
G01*
X155375500Y-66201000D01*
G75*
G02*
X155475000Y-66300500I0J-99500D01*
G01*
G37*
G36*
G01*
X155475000Y-67100500D02*
X155475000Y-67299500D01*
G75*
G02*
X155375500Y-67399000I-99500J0D01*
G01*
X154124500Y-67399000D01*
G75*
G02*
X154025000Y-67299500I0J99500D01*
G01*
X154025000Y-67100500D01*
G75*
G02*
X154124500Y-67001000I99500J0D01*
G01*
X155375500Y-67001000D01*
G75*
G02*
X155475000Y-67100500I0J-99500D01*
G01*
G37*
G36*
G01*
X155475000Y-67900500D02*
X155475000Y-68099500D01*
G75*
G02*
X155375500Y-68199000I-99500J0D01*
G01*
X154124500Y-68199000D01*
G75*
G02*
X154025000Y-68099500I0J99500D01*
G01*
X154025000Y-67900500D01*
G75*
G02*
X154124500Y-67801000I99500J0D01*
G01*
X155375500Y-67801000D01*
G75*
G02*
X155475000Y-67900500I0J-99500D01*
G01*
G37*
G36*
G01*
X155475000Y-68700500D02*
X155475000Y-68899500D01*
G75*
G02*
X155375500Y-68999000I-99500J0D01*
G01*
X154124500Y-68999000D01*
G75*
G02*
X154025000Y-68899500I0J99500D01*
G01*
X154025000Y-68700500D01*
G75*
G02*
X154124500Y-68601000I99500J0D01*
G01*
X155375500Y-68601000D01*
G75*
G02*
X155475000Y-68700500I0J-99500D01*
G01*
G37*
G36*
G01*
X155475000Y-69500500D02*
X155475000Y-69699500D01*
G75*
G02*
X155375500Y-69799000I-99500J0D01*
G01*
X154124500Y-69799000D01*
G75*
G02*
X154025000Y-69699500I0J99500D01*
G01*
X154025000Y-69500500D01*
G75*
G02*
X154124500Y-69401000I99500J0D01*
G01*
X155375500Y-69401000D01*
G75*
G02*
X155475000Y-69500500I0J-99500D01*
G01*
G37*
G36*
G01*
X155475000Y-70300500D02*
X155475000Y-70499500D01*
G75*
G02*
X155375500Y-70599000I-99500J0D01*
G01*
X154124500Y-70599000D01*
G75*
G02*
X154025000Y-70499500I0J99500D01*
G01*
X154025000Y-70300500D01*
G75*
G02*
X154124500Y-70201000I99500J0D01*
G01*
X155375500Y-70201000D01*
G75*
G02*
X155475000Y-70300500I0J-99500D01*
G01*
G37*
G36*
G01*
X155475000Y-71100500D02*
X155475000Y-71299500D01*
G75*
G02*
X155375500Y-71399000I-99500J0D01*
G01*
X154124500Y-71399000D01*
G75*
G02*
X154025000Y-71299500I0J99500D01*
G01*
X154025000Y-71100500D01*
G75*
G02*
X154124500Y-71001000I99500J0D01*
G01*
X155375500Y-71001000D01*
G75*
G02*
X155475000Y-71100500I0J-99500D01*
G01*
G37*
G36*
G01*
X155475000Y-71900500D02*
X155475000Y-72099500D01*
G75*
G02*
X155375500Y-72199000I-99500J0D01*
G01*
X154124500Y-72199000D01*
G75*
G02*
X154025000Y-72099500I0J99500D01*
G01*
X154025000Y-71900500D01*
G75*
G02*
X154124500Y-71801000I99500J0D01*
G01*
X155375500Y-71801000D01*
G75*
G02*
X155475000Y-71900500I0J-99500D01*
G01*
G37*
G36*
G01*
X155475000Y-72700500D02*
X155475000Y-72899500D01*
G75*
G02*
X155375500Y-72999000I-99500J0D01*
G01*
X154124500Y-72999000D01*
G75*
G02*
X154025000Y-72899500I0J99500D01*
G01*
X154025000Y-72700500D01*
G75*
G02*
X154124500Y-72601000I99500J0D01*
G01*
X155375500Y-72601000D01*
G75*
G02*
X155475000Y-72700500I0J-99500D01*
G01*
G37*
G36*
G01*
X155475000Y-73500500D02*
X155475000Y-73699500D01*
G75*
G02*
X155375500Y-73799000I-99500J0D01*
G01*
X154124500Y-73799000D01*
G75*
G02*
X154025000Y-73699500I0J99500D01*
G01*
X154025000Y-73500500D01*
G75*
G02*
X154124500Y-73401000I99500J0D01*
G01*
X155375500Y-73401000D01*
G75*
G02*
X155475000Y-73500500I0J-99500D01*
G01*
G37*
G36*
G01*
X155475000Y-74300500D02*
X155475000Y-74499500D01*
G75*
G02*
X155375500Y-74599000I-99500J0D01*
G01*
X154124500Y-74599000D01*
G75*
G02*
X154025000Y-74499500I0J99500D01*
G01*
X154025000Y-74300500D01*
G75*
G02*
X154124500Y-74201000I99500J0D01*
G01*
X155375500Y-74201000D01*
G75*
G02*
X155475000Y-74300500I0J-99500D01*
G01*
G37*
G36*
G01*
X145175000Y-44300000D02*
X144625000Y-44300000D01*
G75*
G02*
X144475000Y-44150000I0J150000D01*
G01*
X144475000Y-43850000D01*
G75*
G02*
X144625000Y-43700000I150000J0D01*
G01*
X145175000Y-43700000D01*
G75*
G02*
X145325000Y-43850000I0J-150000D01*
G01*
X145325000Y-44150000D01*
G75*
G02*
X145175000Y-44300000I-150000J0D01*
G01*
G37*
G36*
G01*
X145175000Y-42700000D02*
X144625000Y-42700000D01*
G75*
G02*
X144475000Y-42550000I0J150000D01*
G01*
X144475000Y-42250000D01*
G75*
G02*
X144625000Y-42100000I150000J0D01*
G01*
X145175000Y-42100000D01*
G75*
G02*
X145325000Y-42250000I0J-150000D01*
G01*
X145325000Y-42550000D01*
G75*
G02*
X145175000Y-42700000I-150000J0D01*
G01*
G37*
G36*
G01*
X113635000Y-59357500D02*
X113635000Y-59242500D01*
G75*
G02*
X113692500Y-59185000I57500J0D01*
G01*
X114982500Y-59185000D01*
G75*
G02*
X115040000Y-59242500I0J-57500D01*
G01*
X115040000Y-59357500D01*
G75*
G02*
X114982500Y-59415000I-57500J0D01*
G01*
X113692500Y-59415000D01*
G75*
G02*
X113635000Y-59357500I0J57500D01*
G01*
G37*
G36*
G01*
X113635000Y-59857500D02*
X113635000Y-59742500D01*
G75*
G02*
X113692500Y-59685000I57500J0D01*
G01*
X114982500Y-59685000D01*
G75*
G02*
X115040000Y-59742500I0J-57500D01*
G01*
X115040000Y-59857500D01*
G75*
G02*
X114982500Y-59915000I-57500J0D01*
G01*
X113692500Y-59915000D01*
G75*
G02*
X113635000Y-59857500I0J57500D01*
G01*
G37*
G36*
G01*
X113635000Y-60357500D02*
X113635000Y-60242500D01*
G75*
G02*
X113692500Y-60185000I57500J0D01*
G01*
X114982500Y-60185000D01*
G75*
G02*
X115040000Y-60242500I0J-57500D01*
G01*
X115040000Y-60357500D01*
G75*
G02*
X114982500Y-60415000I-57500J0D01*
G01*
X113692500Y-60415000D01*
G75*
G02*
X113635000Y-60357500I0J57500D01*
G01*
G37*
G36*
G01*
X113635000Y-60857500D02*
X113635000Y-60742500D01*
G75*
G02*
X113692500Y-60685000I57500J0D01*
G01*
X114982500Y-60685000D01*
G75*
G02*
X115040000Y-60742500I0J-57500D01*
G01*
X115040000Y-60857500D01*
G75*
G02*
X114982500Y-60915000I-57500J0D01*
G01*
X113692500Y-60915000D01*
G75*
G02*
X113635000Y-60857500I0J57500D01*
G01*
G37*
G36*
G01*
X113635000Y-61357500D02*
X113635000Y-61242500D01*
G75*
G02*
X113692500Y-61185000I57500J0D01*
G01*
X114982500Y-61185000D01*
G75*
G02*
X115040000Y-61242500I0J-57500D01*
G01*
X115040000Y-61357500D01*
G75*
G02*
X114982500Y-61415000I-57500J0D01*
G01*
X113692500Y-61415000D01*
G75*
G02*
X113635000Y-61357500I0J57500D01*
G01*
G37*
G36*
G01*
X113635000Y-61857500D02*
X113635000Y-61742500D01*
G75*
G02*
X113692500Y-61685000I57500J0D01*
G01*
X114982500Y-61685000D01*
G75*
G02*
X115040000Y-61742500I0J-57500D01*
G01*
X115040000Y-61857500D01*
G75*
G02*
X114982500Y-61915000I-57500J0D01*
G01*
X113692500Y-61915000D01*
G75*
G02*
X113635000Y-61857500I0J57500D01*
G01*
G37*
G36*
G01*
X113635000Y-62357500D02*
X113635000Y-62242500D01*
G75*
G02*
X113692500Y-62185000I57500J0D01*
G01*
X114982500Y-62185000D01*
G75*
G02*
X115040000Y-62242500I0J-57500D01*
G01*
X115040000Y-62357500D01*
G75*
G02*
X114982500Y-62415000I-57500J0D01*
G01*
X113692500Y-62415000D01*
G75*
G02*
X113635000Y-62357500I0J57500D01*
G01*
G37*
G36*
G01*
X113635000Y-62857500D02*
X113635000Y-62742500D01*
G75*
G02*
X113692500Y-62685000I57500J0D01*
G01*
X114982500Y-62685000D01*
G75*
G02*
X115040000Y-62742500I0J-57500D01*
G01*
X115040000Y-62857500D01*
G75*
G02*
X114982500Y-62915000I-57500J0D01*
G01*
X113692500Y-62915000D01*
G75*
G02*
X113635000Y-62857500I0J57500D01*
G01*
G37*
G36*
G01*
X113635000Y-63357500D02*
X113635000Y-63242500D01*
G75*
G02*
X113692500Y-63185000I57500J0D01*
G01*
X114982500Y-63185000D01*
G75*
G02*
X115040000Y-63242500I0J-57500D01*
G01*
X115040000Y-63357500D01*
G75*
G02*
X114982500Y-63415000I-57500J0D01*
G01*
X113692500Y-63415000D01*
G75*
G02*
X113635000Y-63357500I0J57500D01*
G01*
G37*
G36*
G01*
X113635000Y-63857500D02*
X113635000Y-63742500D01*
G75*
G02*
X113692500Y-63685000I57500J0D01*
G01*
X114982500Y-63685000D01*
G75*
G02*
X115040000Y-63742500I0J-57500D01*
G01*
X115040000Y-63857500D01*
G75*
G02*
X114982500Y-63915000I-57500J0D01*
G01*
X113692500Y-63915000D01*
G75*
G02*
X113635000Y-63857500I0J57500D01*
G01*
G37*
G36*
G01*
X113635000Y-64357500D02*
X113635000Y-64242500D01*
G75*
G02*
X113692500Y-64185000I57500J0D01*
G01*
X114982500Y-64185000D01*
G75*
G02*
X115040000Y-64242500I0J-57500D01*
G01*
X115040000Y-64357500D01*
G75*
G02*
X114982500Y-64415000I-57500J0D01*
G01*
X113692500Y-64415000D01*
G75*
G02*
X113635000Y-64357500I0J57500D01*
G01*
G37*
G36*
G01*
X113635000Y-64857500D02*
X113635000Y-64742500D01*
G75*
G02*
X113692500Y-64685000I57500J0D01*
G01*
X114982500Y-64685000D01*
G75*
G02*
X115040000Y-64742500I0J-57500D01*
G01*
X115040000Y-64857500D01*
G75*
G02*
X114982500Y-64915000I-57500J0D01*
G01*
X113692500Y-64915000D01*
G75*
G02*
X113635000Y-64857500I0J57500D01*
G01*
G37*
G36*
G01*
X113635000Y-65357500D02*
X113635000Y-65242500D01*
G75*
G02*
X113692500Y-65185000I57500J0D01*
G01*
X114982500Y-65185000D01*
G75*
G02*
X115040000Y-65242500I0J-57500D01*
G01*
X115040000Y-65357500D01*
G75*
G02*
X114982500Y-65415000I-57500J0D01*
G01*
X113692500Y-65415000D01*
G75*
G02*
X113635000Y-65357500I0J57500D01*
G01*
G37*
G36*
G01*
X113635000Y-65857500D02*
X113635000Y-65742500D01*
G75*
G02*
X113692500Y-65685000I57500J0D01*
G01*
X114982500Y-65685000D01*
G75*
G02*
X115040000Y-65742500I0J-57500D01*
G01*
X115040000Y-65857500D01*
G75*
G02*
X114982500Y-65915000I-57500J0D01*
G01*
X113692500Y-65915000D01*
G75*
G02*
X113635000Y-65857500I0J57500D01*
G01*
G37*
G36*
G01*
X113635000Y-66357500D02*
X113635000Y-66242500D01*
G75*
G02*
X113692500Y-66185000I57500J0D01*
G01*
X114982500Y-66185000D01*
G75*
G02*
X115040000Y-66242500I0J-57500D01*
G01*
X115040000Y-66357500D01*
G75*
G02*
X114982500Y-66415000I-57500J0D01*
G01*
X113692500Y-66415000D01*
G75*
G02*
X113635000Y-66357500I0J57500D01*
G01*
G37*
G36*
G01*
X113635000Y-66857500D02*
X113635000Y-66742500D01*
G75*
G02*
X113692500Y-66685000I57500J0D01*
G01*
X114982500Y-66685000D01*
G75*
G02*
X115040000Y-66742500I0J-57500D01*
G01*
X115040000Y-66857500D01*
G75*
G02*
X114982500Y-66915000I-57500J0D01*
G01*
X113692500Y-66915000D01*
G75*
G02*
X113635000Y-66857500I0J57500D01*
G01*
G37*
G36*
G01*
X113635000Y-67357500D02*
X113635000Y-67242500D01*
G75*
G02*
X113692500Y-67185000I57500J0D01*
G01*
X114982500Y-67185000D01*
G75*
G02*
X115040000Y-67242500I0J-57500D01*
G01*
X115040000Y-67357500D01*
G75*
G02*
X114982500Y-67415000I-57500J0D01*
G01*
X113692500Y-67415000D01*
G75*
G02*
X113635000Y-67357500I0J57500D01*
G01*
G37*
G36*
G01*
X113635000Y-67857500D02*
X113635000Y-67742500D01*
G75*
G02*
X113692500Y-67685000I57500J0D01*
G01*
X114982500Y-67685000D01*
G75*
G02*
X115040000Y-67742500I0J-57500D01*
G01*
X115040000Y-67857500D01*
G75*
G02*
X114982500Y-67915000I-57500J0D01*
G01*
X113692500Y-67915000D01*
G75*
G02*
X113635000Y-67857500I0J57500D01*
G01*
G37*
G36*
G01*
X113635000Y-68357500D02*
X113635000Y-68242500D01*
G75*
G02*
X113692500Y-68185000I57500J0D01*
G01*
X114982500Y-68185000D01*
G75*
G02*
X115040000Y-68242500I0J-57500D01*
G01*
X115040000Y-68357500D01*
G75*
G02*
X114982500Y-68415000I-57500J0D01*
G01*
X113692500Y-68415000D01*
G75*
G02*
X113635000Y-68357500I0J57500D01*
G01*
G37*
G36*
G01*
X113635000Y-68857500D02*
X113635000Y-68742500D01*
G75*
G02*
X113692500Y-68685000I57500J0D01*
G01*
X114982500Y-68685000D01*
G75*
G02*
X115040000Y-68742500I0J-57500D01*
G01*
X115040000Y-68857500D01*
G75*
G02*
X114982500Y-68915000I-57500J0D01*
G01*
X113692500Y-68915000D01*
G75*
G02*
X113635000Y-68857500I0J57500D01*
G01*
G37*
G36*
G01*
X113635000Y-69357500D02*
X113635000Y-69242500D01*
G75*
G02*
X113692500Y-69185000I57500J0D01*
G01*
X114982500Y-69185000D01*
G75*
G02*
X115040000Y-69242500I0J-57500D01*
G01*
X115040000Y-69357500D01*
G75*
G02*
X114982500Y-69415000I-57500J0D01*
G01*
X113692500Y-69415000D01*
G75*
G02*
X113635000Y-69357500I0J57500D01*
G01*
G37*
G36*
G01*
X113635000Y-69857500D02*
X113635000Y-69742500D01*
G75*
G02*
X113692500Y-69685000I57500J0D01*
G01*
X114982500Y-69685000D01*
G75*
G02*
X115040000Y-69742500I0J-57500D01*
G01*
X115040000Y-69857500D01*
G75*
G02*
X114982500Y-69915000I-57500J0D01*
G01*
X113692500Y-69915000D01*
G75*
G02*
X113635000Y-69857500I0J57500D01*
G01*
G37*
G36*
G01*
X113635000Y-70357500D02*
X113635000Y-70242500D01*
G75*
G02*
X113692500Y-70185000I57500J0D01*
G01*
X114982500Y-70185000D01*
G75*
G02*
X115040000Y-70242500I0J-57500D01*
G01*
X115040000Y-70357500D01*
G75*
G02*
X114982500Y-70415000I-57500J0D01*
G01*
X113692500Y-70415000D01*
G75*
G02*
X113635000Y-70357500I0J57500D01*
G01*
G37*
G36*
G01*
X113635000Y-70857500D02*
X113635000Y-70742500D01*
G75*
G02*
X113692500Y-70685000I57500J0D01*
G01*
X114982500Y-70685000D01*
G75*
G02*
X115040000Y-70742500I0J-57500D01*
G01*
X115040000Y-70857500D01*
G75*
G02*
X114982500Y-70915000I-57500J0D01*
G01*
X113692500Y-70915000D01*
G75*
G02*
X113635000Y-70857500I0J57500D01*
G01*
G37*
G36*
G01*
X113635000Y-71357500D02*
X113635000Y-71242500D01*
G75*
G02*
X113692500Y-71185000I57500J0D01*
G01*
X114982500Y-71185000D01*
G75*
G02*
X115040000Y-71242500I0J-57500D01*
G01*
X115040000Y-71357500D01*
G75*
G02*
X114982500Y-71415000I-57500J0D01*
G01*
X113692500Y-71415000D01*
G75*
G02*
X113635000Y-71357500I0J57500D01*
G01*
G37*
G36*
G01*
X115885000Y-73607500D02*
X115885000Y-72317500D01*
G75*
G02*
X115942500Y-72260000I57500J0D01*
G01*
X116057500Y-72260000D01*
G75*
G02*
X116115000Y-72317500I0J-57500D01*
G01*
X116115000Y-73607500D01*
G75*
G02*
X116057500Y-73665000I-57500J0D01*
G01*
X115942500Y-73665000D01*
G75*
G02*
X115885000Y-73607500I0J57500D01*
G01*
G37*
G36*
G01*
X116385000Y-73607500D02*
X116385000Y-72317500D01*
G75*
G02*
X116442500Y-72260000I57500J0D01*
G01*
X116557500Y-72260000D01*
G75*
G02*
X116615000Y-72317500I0J-57500D01*
G01*
X116615000Y-73607500D01*
G75*
G02*
X116557500Y-73665000I-57500J0D01*
G01*
X116442500Y-73665000D01*
G75*
G02*
X116385000Y-73607500I0J57500D01*
G01*
G37*
G36*
G01*
X116885000Y-73607500D02*
X116885000Y-72317500D01*
G75*
G02*
X116942500Y-72260000I57500J0D01*
G01*
X117057500Y-72260000D01*
G75*
G02*
X117115000Y-72317500I0J-57500D01*
G01*
X117115000Y-73607500D01*
G75*
G02*
X117057500Y-73665000I-57500J0D01*
G01*
X116942500Y-73665000D01*
G75*
G02*
X116885000Y-73607500I0J57500D01*
G01*
G37*
G36*
G01*
X117385000Y-73607500D02*
X117385000Y-72317500D01*
G75*
G02*
X117442500Y-72260000I57500J0D01*
G01*
X117557500Y-72260000D01*
G75*
G02*
X117615000Y-72317500I0J-57500D01*
G01*
X117615000Y-73607500D01*
G75*
G02*
X117557500Y-73665000I-57500J0D01*
G01*
X117442500Y-73665000D01*
G75*
G02*
X117385000Y-73607500I0J57500D01*
G01*
G37*
G36*
G01*
X117885000Y-73607500D02*
X117885000Y-72317500D01*
G75*
G02*
X117942500Y-72260000I57500J0D01*
G01*
X118057500Y-72260000D01*
G75*
G02*
X118115000Y-72317500I0J-57500D01*
G01*
X118115000Y-73607500D01*
G75*
G02*
X118057500Y-73665000I-57500J0D01*
G01*
X117942500Y-73665000D01*
G75*
G02*
X117885000Y-73607500I0J57500D01*
G01*
G37*
G36*
G01*
X118385000Y-73607500D02*
X118385000Y-72317500D01*
G75*
G02*
X118442500Y-72260000I57500J0D01*
G01*
X118557500Y-72260000D01*
G75*
G02*
X118615000Y-72317500I0J-57500D01*
G01*
X118615000Y-73607500D01*
G75*
G02*
X118557500Y-73665000I-57500J0D01*
G01*
X118442500Y-73665000D01*
G75*
G02*
X118385000Y-73607500I0J57500D01*
G01*
G37*
G36*
G01*
X118885000Y-73607500D02*
X118885000Y-72317500D01*
G75*
G02*
X118942500Y-72260000I57500J0D01*
G01*
X119057500Y-72260000D01*
G75*
G02*
X119115000Y-72317500I0J-57500D01*
G01*
X119115000Y-73607500D01*
G75*
G02*
X119057500Y-73665000I-57500J0D01*
G01*
X118942500Y-73665000D01*
G75*
G02*
X118885000Y-73607500I0J57500D01*
G01*
G37*
G36*
G01*
X119385000Y-73607500D02*
X119385000Y-72317500D01*
G75*
G02*
X119442500Y-72260000I57500J0D01*
G01*
X119557500Y-72260000D01*
G75*
G02*
X119615000Y-72317500I0J-57500D01*
G01*
X119615000Y-73607500D01*
G75*
G02*
X119557500Y-73665000I-57500J0D01*
G01*
X119442500Y-73665000D01*
G75*
G02*
X119385000Y-73607500I0J57500D01*
G01*
G37*
G36*
G01*
X119885000Y-73607500D02*
X119885000Y-72317500D01*
G75*
G02*
X119942500Y-72260000I57500J0D01*
G01*
X120057500Y-72260000D01*
G75*
G02*
X120115000Y-72317500I0J-57500D01*
G01*
X120115000Y-73607500D01*
G75*
G02*
X120057500Y-73665000I-57500J0D01*
G01*
X119942500Y-73665000D01*
G75*
G02*
X119885000Y-73607500I0J57500D01*
G01*
G37*
G36*
G01*
X120385000Y-73607500D02*
X120385000Y-72317500D01*
G75*
G02*
X120442500Y-72260000I57500J0D01*
G01*
X120557500Y-72260000D01*
G75*
G02*
X120615000Y-72317500I0J-57500D01*
G01*
X120615000Y-73607500D01*
G75*
G02*
X120557500Y-73665000I-57500J0D01*
G01*
X120442500Y-73665000D01*
G75*
G02*
X120385000Y-73607500I0J57500D01*
G01*
G37*
G36*
G01*
X120885000Y-73607500D02*
X120885000Y-72317500D01*
G75*
G02*
X120942500Y-72260000I57500J0D01*
G01*
X121057500Y-72260000D01*
G75*
G02*
X121115000Y-72317500I0J-57500D01*
G01*
X121115000Y-73607500D01*
G75*
G02*
X121057500Y-73665000I-57500J0D01*
G01*
X120942500Y-73665000D01*
G75*
G02*
X120885000Y-73607500I0J57500D01*
G01*
G37*
G36*
G01*
X121385000Y-73607500D02*
X121385000Y-72317500D01*
G75*
G02*
X121442500Y-72260000I57500J0D01*
G01*
X121557500Y-72260000D01*
G75*
G02*
X121615000Y-72317500I0J-57500D01*
G01*
X121615000Y-73607500D01*
G75*
G02*
X121557500Y-73665000I-57500J0D01*
G01*
X121442500Y-73665000D01*
G75*
G02*
X121385000Y-73607500I0J57500D01*
G01*
G37*
G36*
G01*
X121885000Y-73607500D02*
X121885000Y-72317500D01*
G75*
G02*
X121942500Y-72260000I57500J0D01*
G01*
X122057500Y-72260000D01*
G75*
G02*
X122115000Y-72317500I0J-57500D01*
G01*
X122115000Y-73607500D01*
G75*
G02*
X122057500Y-73665000I-57500J0D01*
G01*
X121942500Y-73665000D01*
G75*
G02*
X121885000Y-73607500I0J57500D01*
G01*
G37*
G36*
G01*
X122385000Y-73607500D02*
X122385000Y-72317500D01*
G75*
G02*
X122442500Y-72260000I57500J0D01*
G01*
X122557500Y-72260000D01*
G75*
G02*
X122615000Y-72317500I0J-57500D01*
G01*
X122615000Y-73607500D01*
G75*
G02*
X122557500Y-73665000I-57500J0D01*
G01*
X122442500Y-73665000D01*
G75*
G02*
X122385000Y-73607500I0J57500D01*
G01*
G37*
G36*
G01*
X122885000Y-73607500D02*
X122885000Y-72317500D01*
G75*
G02*
X122942500Y-72260000I57500J0D01*
G01*
X123057500Y-72260000D01*
G75*
G02*
X123115000Y-72317500I0J-57500D01*
G01*
X123115000Y-73607500D01*
G75*
G02*
X123057500Y-73665000I-57500J0D01*
G01*
X122942500Y-73665000D01*
G75*
G02*
X122885000Y-73607500I0J57500D01*
G01*
G37*
G36*
G01*
X123385000Y-73607500D02*
X123385000Y-72317500D01*
G75*
G02*
X123442500Y-72260000I57500J0D01*
G01*
X123557500Y-72260000D01*
G75*
G02*
X123615000Y-72317500I0J-57500D01*
G01*
X123615000Y-73607500D01*
G75*
G02*
X123557500Y-73665000I-57500J0D01*
G01*
X123442500Y-73665000D01*
G75*
G02*
X123385000Y-73607500I0J57500D01*
G01*
G37*
G36*
G01*
X123885000Y-73607500D02*
X123885000Y-72317500D01*
G75*
G02*
X123942500Y-72260000I57500J0D01*
G01*
X124057500Y-72260000D01*
G75*
G02*
X124115000Y-72317500I0J-57500D01*
G01*
X124115000Y-73607500D01*
G75*
G02*
X124057500Y-73665000I-57500J0D01*
G01*
X123942500Y-73665000D01*
G75*
G02*
X123885000Y-73607500I0J57500D01*
G01*
G37*
G36*
G01*
X124385000Y-73607500D02*
X124385000Y-72317500D01*
G75*
G02*
X124442500Y-72260000I57500J0D01*
G01*
X124557500Y-72260000D01*
G75*
G02*
X124615000Y-72317500I0J-57500D01*
G01*
X124615000Y-73607500D01*
G75*
G02*
X124557500Y-73665000I-57500J0D01*
G01*
X124442500Y-73665000D01*
G75*
G02*
X124385000Y-73607500I0J57500D01*
G01*
G37*
G36*
G01*
X124885000Y-73607500D02*
X124885000Y-72317500D01*
G75*
G02*
X124942500Y-72260000I57500J0D01*
G01*
X125057500Y-72260000D01*
G75*
G02*
X125115000Y-72317500I0J-57500D01*
G01*
X125115000Y-73607500D01*
G75*
G02*
X125057500Y-73665000I-57500J0D01*
G01*
X124942500Y-73665000D01*
G75*
G02*
X124885000Y-73607500I0J57500D01*
G01*
G37*
G36*
G01*
X125385000Y-73607500D02*
X125385000Y-72317500D01*
G75*
G02*
X125442500Y-72260000I57500J0D01*
G01*
X125557500Y-72260000D01*
G75*
G02*
X125615000Y-72317500I0J-57500D01*
G01*
X125615000Y-73607500D01*
G75*
G02*
X125557500Y-73665000I-57500J0D01*
G01*
X125442500Y-73665000D01*
G75*
G02*
X125385000Y-73607500I0J57500D01*
G01*
G37*
G36*
G01*
X125885000Y-73607500D02*
X125885000Y-72317500D01*
G75*
G02*
X125942500Y-72260000I57500J0D01*
G01*
X126057500Y-72260000D01*
G75*
G02*
X126115000Y-72317500I0J-57500D01*
G01*
X126115000Y-73607500D01*
G75*
G02*
X126057500Y-73665000I-57500J0D01*
G01*
X125942500Y-73665000D01*
G75*
G02*
X125885000Y-73607500I0J57500D01*
G01*
G37*
G36*
G01*
X126385000Y-73607500D02*
X126385000Y-72317500D01*
G75*
G02*
X126442500Y-72260000I57500J0D01*
G01*
X126557500Y-72260000D01*
G75*
G02*
X126615000Y-72317500I0J-57500D01*
G01*
X126615000Y-73607500D01*
G75*
G02*
X126557500Y-73665000I-57500J0D01*
G01*
X126442500Y-73665000D01*
G75*
G02*
X126385000Y-73607500I0J57500D01*
G01*
G37*
G36*
G01*
X126885000Y-73607500D02*
X126885000Y-72317500D01*
G75*
G02*
X126942500Y-72260000I57500J0D01*
G01*
X127057500Y-72260000D01*
G75*
G02*
X127115000Y-72317500I0J-57500D01*
G01*
X127115000Y-73607500D01*
G75*
G02*
X127057500Y-73665000I-57500J0D01*
G01*
X126942500Y-73665000D01*
G75*
G02*
X126885000Y-73607500I0J57500D01*
G01*
G37*
G36*
G01*
X127385000Y-73607500D02*
X127385000Y-72317500D01*
G75*
G02*
X127442500Y-72260000I57500J0D01*
G01*
X127557500Y-72260000D01*
G75*
G02*
X127615000Y-72317500I0J-57500D01*
G01*
X127615000Y-73607500D01*
G75*
G02*
X127557500Y-73665000I-57500J0D01*
G01*
X127442500Y-73665000D01*
G75*
G02*
X127385000Y-73607500I0J57500D01*
G01*
G37*
G36*
G01*
X127885000Y-73607500D02*
X127885000Y-72317500D01*
G75*
G02*
X127942500Y-72260000I57500J0D01*
G01*
X128057500Y-72260000D01*
G75*
G02*
X128115000Y-72317500I0J-57500D01*
G01*
X128115000Y-73607500D01*
G75*
G02*
X128057500Y-73665000I-57500J0D01*
G01*
X127942500Y-73665000D01*
G75*
G02*
X127885000Y-73607500I0J57500D01*
G01*
G37*
G36*
G01*
X128960000Y-71357500D02*
X128960000Y-71242500D01*
G75*
G02*
X129017500Y-71185000I57500J0D01*
G01*
X130307500Y-71185000D01*
G75*
G02*
X130365000Y-71242500I0J-57500D01*
G01*
X130365000Y-71357500D01*
G75*
G02*
X130307500Y-71415000I-57500J0D01*
G01*
X129017500Y-71415000D01*
G75*
G02*
X128960000Y-71357500I0J57500D01*
G01*
G37*
G36*
G01*
X128960000Y-70857500D02*
X128960000Y-70742500D01*
G75*
G02*
X129017500Y-70685000I57500J0D01*
G01*
X130307500Y-70685000D01*
G75*
G02*
X130365000Y-70742500I0J-57500D01*
G01*
X130365000Y-70857500D01*
G75*
G02*
X130307500Y-70915000I-57500J0D01*
G01*
X129017500Y-70915000D01*
G75*
G02*
X128960000Y-70857500I0J57500D01*
G01*
G37*
G36*
G01*
X128960000Y-70357500D02*
X128960000Y-70242500D01*
G75*
G02*
X129017500Y-70185000I57500J0D01*
G01*
X130307500Y-70185000D01*
G75*
G02*
X130365000Y-70242500I0J-57500D01*
G01*
X130365000Y-70357500D01*
G75*
G02*
X130307500Y-70415000I-57500J0D01*
G01*
X129017500Y-70415000D01*
G75*
G02*
X128960000Y-70357500I0J57500D01*
G01*
G37*
G36*
G01*
X128960000Y-69857500D02*
X128960000Y-69742500D01*
G75*
G02*
X129017500Y-69685000I57500J0D01*
G01*
X130307500Y-69685000D01*
G75*
G02*
X130365000Y-69742500I0J-57500D01*
G01*
X130365000Y-69857500D01*
G75*
G02*
X130307500Y-69915000I-57500J0D01*
G01*
X129017500Y-69915000D01*
G75*
G02*
X128960000Y-69857500I0J57500D01*
G01*
G37*
G36*
G01*
X128960000Y-69357500D02*
X128960000Y-69242500D01*
G75*
G02*
X129017500Y-69185000I57500J0D01*
G01*
X130307500Y-69185000D01*
G75*
G02*
X130365000Y-69242500I0J-57500D01*
G01*
X130365000Y-69357500D01*
G75*
G02*
X130307500Y-69415000I-57500J0D01*
G01*
X129017500Y-69415000D01*
G75*
G02*
X128960000Y-69357500I0J57500D01*
G01*
G37*
G36*
G01*
X128960000Y-68857500D02*
X128960000Y-68742500D01*
G75*
G02*
X129017500Y-68685000I57500J0D01*
G01*
X130307500Y-68685000D01*
G75*
G02*
X130365000Y-68742500I0J-57500D01*
G01*
X130365000Y-68857500D01*
G75*
G02*
X130307500Y-68915000I-57500J0D01*
G01*
X129017500Y-68915000D01*
G75*
G02*
X128960000Y-68857500I0J57500D01*
G01*
G37*
G36*
G01*
X128960000Y-68357500D02*
X128960000Y-68242500D01*
G75*
G02*
X129017500Y-68185000I57500J0D01*
G01*
X130307500Y-68185000D01*
G75*
G02*
X130365000Y-68242500I0J-57500D01*
G01*
X130365000Y-68357500D01*
G75*
G02*
X130307500Y-68415000I-57500J0D01*
G01*
X129017500Y-68415000D01*
G75*
G02*
X128960000Y-68357500I0J57500D01*
G01*
G37*
G36*
G01*
X128960000Y-67857500D02*
X128960000Y-67742500D01*
G75*
G02*
X129017500Y-67685000I57500J0D01*
G01*
X130307500Y-67685000D01*
G75*
G02*
X130365000Y-67742500I0J-57500D01*
G01*
X130365000Y-67857500D01*
G75*
G02*
X130307500Y-67915000I-57500J0D01*
G01*
X129017500Y-67915000D01*
G75*
G02*
X128960000Y-67857500I0J57500D01*
G01*
G37*
G36*
G01*
X128960000Y-67357500D02*
X128960000Y-67242500D01*
G75*
G02*
X129017500Y-67185000I57500J0D01*
G01*
X130307500Y-67185000D01*
G75*
G02*
X130365000Y-67242500I0J-57500D01*
G01*
X130365000Y-67357500D01*
G75*
G02*
X130307500Y-67415000I-57500J0D01*
G01*
X129017500Y-67415000D01*
G75*
G02*
X128960000Y-67357500I0J57500D01*
G01*
G37*
G36*
G01*
X128960000Y-66857500D02*
X128960000Y-66742500D01*
G75*
G02*
X129017500Y-66685000I57500J0D01*
G01*
X130307500Y-66685000D01*
G75*
G02*
X130365000Y-66742500I0J-57500D01*
G01*
X130365000Y-66857500D01*
G75*
G02*
X130307500Y-66915000I-57500J0D01*
G01*
X129017500Y-66915000D01*
G75*
G02*
X128960000Y-66857500I0J57500D01*
G01*
G37*
G36*
G01*
X128960000Y-66357500D02*
X128960000Y-66242500D01*
G75*
G02*
X129017500Y-66185000I57500J0D01*
G01*
X130307500Y-66185000D01*
G75*
G02*
X130365000Y-66242500I0J-57500D01*
G01*
X130365000Y-66357500D01*
G75*
G02*
X130307500Y-66415000I-57500J0D01*
G01*
X129017500Y-66415000D01*
G75*
G02*
X128960000Y-66357500I0J57500D01*
G01*
G37*
G36*
G01*
X128960000Y-65857500D02*
X128960000Y-65742500D01*
G75*
G02*
X129017500Y-65685000I57500J0D01*
G01*
X130307500Y-65685000D01*
G75*
G02*
X130365000Y-65742500I0J-57500D01*
G01*
X130365000Y-65857500D01*
G75*
G02*
X130307500Y-65915000I-57500J0D01*
G01*
X129017500Y-65915000D01*
G75*
G02*
X128960000Y-65857500I0J57500D01*
G01*
G37*
G36*
G01*
X128960000Y-65357500D02*
X128960000Y-65242500D01*
G75*
G02*
X129017500Y-65185000I57500J0D01*
G01*
X130307500Y-65185000D01*
G75*
G02*
X130365000Y-65242500I0J-57500D01*
G01*
X130365000Y-65357500D01*
G75*
G02*
X130307500Y-65415000I-57500J0D01*
G01*
X129017500Y-65415000D01*
G75*
G02*
X128960000Y-65357500I0J57500D01*
G01*
G37*
G36*
G01*
X128960000Y-64857500D02*
X128960000Y-64742500D01*
G75*
G02*
X129017500Y-64685000I57500J0D01*
G01*
X130307500Y-64685000D01*
G75*
G02*
X130365000Y-64742500I0J-57500D01*
G01*
X130365000Y-64857500D01*
G75*
G02*
X130307500Y-64915000I-57500J0D01*
G01*
X129017500Y-64915000D01*
G75*
G02*
X128960000Y-64857500I0J57500D01*
G01*
G37*
G36*
G01*
X128960000Y-64357500D02*
X128960000Y-64242500D01*
G75*
G02*
X129017500Y-64185000I57500J0D01*
G01*
X130307500Y-64185000D01*
G75*
G02*
X130365000Y-64242500I0J-57500D01*
G01*
X130365000Y-64357500D01*
G75*
G02*
X130307500Y-64415000I-57500J0D01*
G01*
X129017500Y-64415000D01*
G75*
G02*
X128960000Y-64357500I0J57500D01*
G01*
G37*
G36*
G01*
X128960000Y-63857500D02*
X128960000Y-63742500D01*
G75*
G02*
X129017500Y-63685000I57500J0D01*
G01*
X130307500Y-63685000D01*
G75*
G02*
X130365000Y-63742500I0J-57500D01*
G01*
X130365000Y-63857500D01*
G75*
G02*
X130307500Y-63915000I-57500J0D01*
G01*
X129017500Y-63915000D01*
G75*
G02*
X128960000Y-63857500I0J57500D01*
G01*
G37*
G36*
G01*
X128960000Y-63357500D02*
X128960000Y-63242500D01*
G75*
G02*
X129017500Y-63185000I57500J0D01*
G01*
X130307500Y-63185000D01*
G75*
G02*
X130365000Y-63242500I0J-57500D01*
G01*
X130365000Y-63357500D01*
G75*
G02*
X130307500Y-63415000I-57500J0D01*
G01*
X129017500Y-63415000D01*
G75*
G02*
X128960000Y-63357500I0J57500D01*
G01*
G37*
G36*
G01*
X128960000Y-62857500D02*
X128960000Y-62742500D01*
G75*
G02*
X129017500Y-62685000I57500J0D01*
G01*
X130307500Y-62685000D01*
G75*
G02*
X130365000Y-62742500I0J-57500D01*
G01*
X130365000Y-62857500D01*
G75*
G02*
X130307500Y-62915000I-57500J0D01*
G01*
X129017500Y-62915000D01*
G75*
G02*
X128960000Y-62857500I0J57500D01*
G01*
G37*
G36*
G01*
X128960000Y-62357500D02*
X128960000Y-62242500D01*
G75*
G02*
X129017500Y-62185000I57500J0D01*
G01*
X130307500Y-62185000D01*
G75*
G02*
X130365000Y-62242500I0J-57500D01*
G01*
X130365000Y-62357500D01*
G75*
G02*
X130307500Y-62415000I-57500J0D01*
G01*
X129017500Y-62415000D01*
G75*
G02*
X128960000Y-62357500I0J57500D01*
G01*
G37*
G36*
G01*
X128960000Y-61857500D02*
X128960000Y-61742500D01*
G75*
G02*
X129017500Y-61685000I57500J0D01*
G01*
X130307500Y-61685000D01*
G75*
G02*
X130365000Y-61742500I0J-57500D01*
G01*
X130365000Y-61857500D01*
G75*
G02*
X130307500Y-61915000I-57500J0D01*
G01*
X129017500Y-61915000D01*
G75*
G02*
X128960000Y-61857500I0J57500D01*
G01*
G37*
G36*
G01*
X128960000Y-61357500D02*
X128960000Y-61242500D01*
G75*
G02*
X129017500Y-61185000I57500J0D01*
G01*
X130307500Y-61185000D01*
G75*
G02*
X130365000Y-61242500I0J-57500D01*
G01*
X130365000Y-61357500D01*
G75*
G02*
X130307500Y-61415000I-57500J0D01*
G01*
X129017500Y-61415000D01*
G75*
G02*
X128960000Y-61357500I0J57500D01*
G01*
G37*
G36*
G01*
X128960000Y-60857500D02*
X128960000Y-60742500D01*
G75*
G02*
X129017500Y-60685000I57500J0D01*
G01*
X130307500Y-60685000D01*
G75*
G02*
X130365000Y-60742500I0J-57500D01*
G01*
X130365000Y-60857500D01*
G75*
G02*
X130307500Y-60915000I-57500J0D01*
G01*
X129017500Y-60915000D01*
G75*
G02*
X128960000Y-60857500I0J57500D01*
G01*
G37*
G36*
G01*
X128960000Y-60357500D02*
X128960000Y-60242500D01*
G75*
G02*
X129017500Y-60185000I57500J0D01*
G01*
X130307500Y-60185000D01*
G75*
G02*
X130365000Y-60242500I0J-57500D01*
G01*
X130365000Y-60357500D01*
G75*
G02*
X130307500Y-60415000I-57500J0D01*
G01*
X129017500Y-60415000D01*
G75*
G02*
X128960000Y-60357500I0J57500D01*
G01*
G37*
G36*
G01*
X128960000Y-59857500D02*
X128960000Y-59742500D01*
G75*
G02*
X129017500Y-59685000I57500J0D01*
G01*
X130307500Y-59685000D01*
G75*
G02*
X130365000Y-59742500I0J-57500D01*
G01*
X130365000Y-59857500D01*
G75*
G02*
X130307500Y-59915000I-57500J0D01*
G01*
X129017500Y-59915000D01*
G75*
G02*
X128960000Y-59857500I0J57500D01*
G01*
G37*
G36*
G01*
X128960000Y-59357500D02*
X128960000Y-59242500D01*
G75*
G02*
X129017500Y-59185000I57500J0D01*
G01*
X130307500Y-59185000D01*
G75*
G02*
X130365000Y-59242500I0J-57500D01*
G01*
X130365000Y-59357500D01*
G75*
G02*
X130307500Y-59415000I-57500J0D01*
G01*
X129017500Y-59415000D01*
G75*
G02*
X128960000Y-59357500I0J57500D01*
G01*
G37*
G36*
G01*
X127885000Y-58282500D02*
X127885000Y-56992500D01*
G75*
G02*
X127942500Y-56935000I57500J0D01*
G01*
X128057500Y-56935000D01*
G75*
G02*
X128115000Y-56992500I0J-57500D01*
G01*
X128115000Y-58282500D01*
G75*
G02*
X128057500Y-58340000I-57500J0D01*
G01*
X127942500Y-58340000D01*
G75*
G02*
X127885000Y-58282500I0J57500D01*
G01*
G37*
G36*
G01*
X127385000Y-58282500D02*
X127385000Y-56992500D01*
G75*
G02*
X127442500Y-56935000I57500J0D01*
G01*
X127557500Y-56935000D01*
G75*
G02*
X127615000Y-56992500I0J-57500D01*
G01*
X127615000Y-58282500D01*
G75*
G02*
X127557500Y-58340000I-57500J0D01*
G01*
X127442500Y-58340000D01*
G75*
G02*
X127385000Y-58282500I0J57500D01*
G01*
G37*
G36*
G01*
X126885000Y-58282500D02*
X126885000Y-56992500D01*
G75*
G02*
X126942500Y-56935000I57500J0D01*
G01*
X127057500Y-56935000D01*
G75*
G02*
X127115000Y-56992500I0J-57500D01*
G01*
X127115000Y-58282500D01*
G75*
G02*
X127057500Y-58340000I-57500J0D01*
G01*
X126942500Y-58340000D01*
G75*
G02*
X126885000Y-58282500I0J57500D01*
G01*
G37*
G36*
G01*
X126385000Y-58282500D02*
X126385000Y-56992500D01*
G75*
G02*
X126442500Y-56935000I57500J0D01*
G01*
X126557500Y-56935000D01*
G75*
G02*
X126615000Y-56992500I0J-57500D01*
G01*
X126615000Y-58282500D01*
G75*
G02*
X126557500Y-58340000I-57500J0D01*
G01*
X126442500Y-58340000D01*
G75*
G02*
X126385000Y-58282500I0J57500D01*
G01*
G37*
G36*
G01*
X125885000Y-58282500D02*
X125885000Y-56992500D01*
G75*
G02*
X125942500Y-56935000I57500J0D01*
G01*
X126057500Y-56935000D01*
G75*
G02*
X126115000Y-56992500I0J-57500D01*
G01*
X126115000Y-58282500D01*
G75*
G02*
X126057500Y-58340000I-57500J0D01*
G01*
X125942500Y-58340000D01*
G75*
G02*
X125885000Y-58282500I0J57500D01*
G01*
G37*
G36*
G01*
X125385000Y-58282500D02*
X125385000Y-56992500D01*
G75*
G02*
X125442500Y-56935000I57500J0D01*
G01*
X125557500Y-56935000D01*
G75*
G02*
X125615000Y-56992500I0J-57500D01*
G01*
X125615000Y-58282500D01*
G75*
G02*
X125557500Y-58340000I-57500J0D01*
G01*
X125442500Y-58340000D01*
G75*
G02*
X125385000Y-58282500I0J57500D01*
G01*
G37*
G36*
G01*
X124885000Y-58282500D02*
X124885000Y-56992500D01*
G75*
G02*
X124942500Y-56935000I57500J0D01*
G01*
X125057500Y-56935000D01*
G75*
G02*
X125115000Y-56992500I0J-57500D01*
G01*
X125115000Y-58282500D01*
G75*
G02*
X125057500Y-58340000I-57500J0D01*
G01*
X124942500Y-58340000D01*
G75*
G02*
X124885000Y-58282500I0J57500D01*
G01*
G37*
G36*
G01*
X124385000Y-58282500D02*
X124385000Y-56992500D01*
G75*
G02*
X124442500Y-56935000I57500J0D01*
G01*
X124557500Y-56935000D01*
G75*
G02*
X124615000Y-56992500I0J-57500D01*
G01*
X124615000Y-58282500D01*
G75*
G02*
X124557500Y-58340000I-57500J0D01*
G01*
X124442500Y-58340000D01*
G75*
G02*
X124385000Y-58282500I0J57500D01*
G01*
G37*
G36*
G01*
X123885000Y-58282500D02*
X123885000Y-56992500D01*
G75*
G02*
X123942500Y-56935000I57500J0D01*
G01*
X124057500Y-56935000D01*
G75*
G02*
X124115000Y-56992500I0J-57500D01*
G01*
X124115000Y-58282500D01*
G75*
G02*
X124057500Y-58340000I-57500J0D01*
G01*
X123942500Y-58340000D01*
G75*
G02*
X123885000Y-58282500I0J57500D01*
G01*
G37*
G36*
G01*
X123385000Y-58282500D02*
X123385000Y-56992500D01*
G75*
G02*
X123442500Y-56935000I57500J0D01*
G01*
X123557500Y-56935000D01*
G75*
G02*
X123615000Y-56992500I0J-57500D01*
G01*
X123615000Y-58282500D01*
G75*
G02*
X123557500Y-58340000I-57500J0D01*
G01*
X123442500Y-58340000D01*
G75*
G02*
X123385000Y-58282500I0J57500D01*
G01*
G37*
G36*
G01*
X122885000Y-58282500D02*
X122885000Y-56992500D01*
G75*
G02*
X122942500Y-56935000I57500J0D01*
G01*
X123057500Y-56935000D01*
G75*
G02*
X123115000Y-56992500I0J-57500D01*
G01*
X123115000Y-58282500D01*
G75*
G02*
X123057500Y-58340000I-57500J0D01*
G01*
X122942500Y-58340000D01*
G75*
G02*
X122885000Y-58282500I0J57500D01*
G01*
G37*
G36*
G01*
X122385000Y-58282500D02*
X122385000Y-56992500D01*
G75*
G02*
X122442500Y-56935000I57500J0D01*
G01*
X122557500Y-56935000D01*
G75*
G02*
X122615000Y-56992500I0J-57500D01*
G01*
X122615000Y-58282500D01*
G75*
G02*
X122557500Y-58340000I-57500J0D01*
G01*
X122442500Y-58340000D01*
G75*
G02*
X122385000Y-58282500I0J57500D01*
G01*
G37*
G36*
G01*
X121885000Y-58282500D02*
X121885000Y-56992500D01*
G75*
G02*
X121942500Y-56935000I57500J0D01*
G01*
X122057500Y-56935000D01*
G75*
G02*
X122115000Y-56992500I0J-57500D01*
G01*
X122115000Y-58282500D01*
G75*
G02*
X122057500Y-58340000I-57500J0D01*
G01*
X121942500Y-58340000D01*
G75*
G02*
X121885000Y-58282500I0J57500D01*
G01*
G37*
G36*
G01*
X121385000Y-58282500D02*
X121385000Y-56992500D01*
G75*
G02*
X121442500Y-56935000I57500J0D01*
G01*
X121557500Y-56935000D01*
G75*
G02*
X121615000Y-56992500I0J-57500D01*
G01*
X121615000Y-58282500D01*
G75*
G02*
X121557500Y-58340000I-57500J0D01*
G01*
X121442500Y-58340000D01*
G75*
G02*
X121385000Y-58282500I0J57500D01*
G01*
G37*
G36*
G01*
X120885000Y-58282500D02*
X120885000Y-56992500D01*
G75*
G02*
X120942500Y-56935000I57500J0D01*
G01*
X121057500Y-56935000D01*
G75*
G02*
X121115000Y-56992500I0J-57500D01*
G01*
X121115000Y-58282500D01*
G75*
G02*
X121057500Y-58340000I-57500J0D01*
G01*
X120942500Y-58340000D01*
G75*
G02*
X120885000Y-58282500I0J57500D01*
G01*
G37*
G36*
G01*
X120385000Y-58282500D02*
X120385000Y-56992500D01*
G75*
G02*
X120442500Y-56935000I57500J0D01*
G01*
X120557500Y-56935000D01*
G75*
G02*
X120615000Y-56992500I0J-57500D01*
G01*
X120615000Y-58282500D01*
G75*
G02*
X120557500Y-58340000I-57500J0D01*
G01*
X120442500Y-58340000D01*
G75*
G02*
X120385000Y-58282500I0J57500D01*
G01*
G37*
G36*
G01*
X119885000Y-58282500D02*
X119885000Y-56992500D01*
G75*
G02*
X119942500Y-56935000I57500J0D01*
G01*
X120057500Y-56935000D01*
G75*
G02*
X120115000Y-56992500I0J-57500D01*
G01*
X120115000Y-58282500D01*
G75*
G02*
X120057500Y-58340000I-57500J0D01*
G01*
X119942500Y-58340000D01*
G75*
G02*
X119885000Y-58282500I0J57500D01*
G01*
G37*
G36*
G01*
X119385000Y-58282500D02*
X119385000Y-56992500D01*
G75*
G02*
X119442500Y-56935000I57500J0D01*
G01*
X119557500Y-56935000D01*
G75*
G02*
X119615000Y-56992500I0J-57500D01*
G01*
X119615000Y-58282500D01*
G75*
G02*
X119557500Y-58340000I-57500J0D01*
G01*
X119442500Y-58340000D01*
G75*
G02*
X119385000Y-58282500I0J57500D01*
G01*
G37*
G36*
G01*
X118885000Y-58282500D02*
X118885000Y-56992500D01*
G75*
G02*
X118942500Y-56935000I57500J0D01*
G01*
X119057500Y-56935000D01*
G75*
G02*
X119115000Y-56992500I0J-57500D01*
G01*
X119115000Y-58282500D01*
G75*
G02*
X119057500Y-58340000I-57500J0D01*
G01*
X118942500Y-58340000D01*
G75*
G02*
X118885000Y-58282500I0J57500D01*
G01*
G37*
G36*
G01*
X118385000Y-58282500D02*
X118385000Y-56992500D01*
G75*
G02*
X118442500Y-56935000I57500J0D01*
G01*
X118557500Y-56935000D01*
G75*
G02*
X118615000Y-56992500I0J-57500D01*
G01*
X118615000Y-58282500D01*
G75*
G02*
X118557500Y-58340000I-57500J0D01*
G01*
X118442500Y-58340000D01*
G75*
G02*
X118385000Y-58282500I0J57500D01*
G01*
G37*
G36*
G01*
X117885000Y-58282500D02*
X117885000Y-56992500D01*
G75*
G02*
X117942500Y-56935000I57500J0D01*
G01*
X118057500Y-56935000D01*
G75*
G02*
X118115000Y-56992500I0J-57500D01*
G01*
X118115000Y-58282500D01*
G75*
G02*
X118057500Y-58340000I-57500J0D01*
G01*
X117942500Y-58340000D01*
G75*
G02*
X117885000Y-58282500I0J57500D01*
G01*
G37*
G36*
G01*
X117385000Y-58282500D02*
X117385000Y-56992500D01*
G75*
G02*
X117442500Y-56935000I57500J0D01*
G01*
X117557500Y-56935000D01*
G75*
G02*
X117615000Y-56992500I0J-57500D01*
G01*
X117615000Y-58282500D01*
G75*
G02*
X117557500Y-58340000I-57500J0D01*
G01*
X117442500Y-58340000D01*
G75*
G02*
X117385000Y-58282500I0J57500D01*
G01*
G37*
G36*
G01*
X116885000Y-58282500D02*
X116885000Y-56992500D01*
G75*
G02*
X116942500Y-56935000I57500J0D01*
G01*
X117057500Y-56935000D01*
G75*
G02*
X117115000Y-56992500I0J-57500D01*
G01*
X117115000Y-58282500D01*
G75*
G02*
X117057500Y-58340000I-57500J0D01*
G01*
X116942500Y-58340000D01*
G75*
G02*
X116885000Y-58282500I0J57500D01*
G01*
G37*
G36*
G01*
X116385000Y-58282500D02*
X116385000Y-56992500D01*
G75*
G02*
X116442500Y-56935000I57500J0D01*
G01*
X116557500Y-56935000D01*
G75*
G02*
X116615000Y-56992500I0J-57500D01*
G01*
X116615000Y-58282500D01*
G75*
G02*
X116557500Y-58340000I-57500J0D01*
G01*
X116442500Y-58340000D01*
G75*
G02*
X116385000Y-58282500I0J57500D01*
G01*
G37*
G36*
G01*
X115885000Y-58282500D02*
X115885000Y-56992500D01*
G75*
G02*
X115942500Y-56935000I57500J0D01*
G01*
X116057500Y-56935000D01*
G75*
G02*
X116115000Y-56992500I0J-57500D01*
G01*
X116115000Y-58282500D01*
G75*
G02*
X116057500Y-58340000I-57500J0D01*
G01*
X115942500Y-58340000D01*
G75*
G02*
X115885000Y-58282500I0J57500D01*
G01*
G37*
G36*
G01*
X107765000Y-44242500D02*
X107765000Y-43757500D01*
G75*
G02*
X107957500Y-43565000I192500J0D01*
G01*
X108342500Y-43565000D01*
G75*
G02*
X108535000Y-43757500I0J-192500D01*
G01*
X108535000Y-44242500D01*
G75*
G02*
X108342500Y-44435000I-192500J0D01*
G01*
X107957500Y-44435000D01*
G75*
G02*
X107765000Y-44242500I0J192500D01*
G01*
G37*
G36*
G01*
X106265000Y-44242500D02*
X106265000Y-43757500D01*
G75*
G02*
X106457500Y-43565000I192500J0D01*
G01*
X106842500Y-43565000D01*
G75*
G02*
X107035000Y-43757500I0J-192500D01*
G01*
X107035000Y-44242500D01*
G75*
G02*
X106842500Y-44435000I-192500J0D01*
G01*
X106457500Y-44435000D01*
G75*
G02*
X106265000Y-44242500I0J192500D01*
G01*
G37*
G36*
G01*
X109707500Y-56865000D02*
X110192500Y-56865000D01*
G75*
G02*
X110385000Y-57057500I0J-192500D01*
G01*
X110385000Y-57442500D01*
G75*
G02*
X110192500Y-57635000I-192500J0D01*
G01*
X109707500Y-57635000D01*
G75*
G02*
X109515000Y-57442500I0J192500D01*
G01*
X109515000Y-57057500D01*
G75*
G02*
X109707500Y-56865000I192500J0D01*
G01*
G37*
G36*
G01*
X109707500Y-55365000D02*
X110192500Y-55365000D01*
G75*
G02*
X110385000Y-55557500I0J-192500D01*
G01*
X110385000Y-55942500D01*
G75*
G02*
X110192500Y-56135000I-192500J0D01*
G01*
X109707500Y-56135000D01*
G75*
G02*
X109515000Y-55942500I0J192500D01*
G01*
X109515000Y-55557500D01*
G75*
G02*
X109707500Y-55365000I192500J0D01*
G01*
G37*
G36*
G01*
X149100000Y-46875000D02*
X149100000Y-47425000D01*
G75*
G02*
X148950000Y-47575000I-150000J0D01*
G01*
X148650000Y-47575000D01*
G75*
G02*
X148500000Y-47425000I0J150000D01*
G01*
X148500000Y-46875000D01*
G75*
G02*
X148650000Y-46725000I150000J0D01*
G01*
X148950000Y-46725000D01*
G75*
G02*
X149100000Y-46875000I0J-150000D01*
G01*
G37*
G36*
G01*
X147500000Y-46875000D02*
X147500000Y-47425000D01*
G75*
G02*
X147350000Y-47575000I-150000J0D01*
G01*
X147050000Y-47575000D01*
G75*
G02*
X146900000Y-47425000I0J150000D01*
G01*
X146900000Y-46875000D01*
G75*
G02*
X147050000Y-46725000I150000J0D01*
G01*
X147350000Y-46725000D01*
G75*
G02*
X147500000Y-46875000I0J-150000D01*
G01*
G37*
G36*
G01*
X146075000Y-47500000D02*
X145525000Y-47500000D01*
G75*
G02*
X145375000Y-47350000I0J150000D01*
G01*
X145375000Y-47050000D01*
G75*
G02*
X145525000Y-46900000I150000J0D01*
G01*
X146075000Y-46900000D01*
G75*
G02*
X146225000Y-47050000I0J-150000D01*
G01*
X146225000Y-47350000D01*
G75*
G02*
X146075000Y-47500000I-150000J0D01*
G01*
G37*
G36*
G01*
X146075000Y-45900000D02*
X145525000Y-45900000D01*
G75*
G02*
X145375000Y-45750000I0J150000D01*
G01*
X145375000Y-45450000D01*
G75*
G02*
X145525000Y-45300000I150000J0D01*
G01*
X146075000Y-45300000D01*
G75*
G02*
X146225000Y-45450000I0J-150000D01*
G01*
X146225000Y-45750000D01*
G75*
G02*
X146075000Y-45900000I-150000J0D01*
G01*
G37*
G36*
G01*
X148365000Y-45892500D02*
X148365000Y-45407500D01*
G75*
G02*
X148557500Y-45215000I192500J0D01*
G01*
X148942500Y-45215000D01*
G75*
G02*
X149135000Y-45407500I0J-192500D01*
G01*
X149135000Y-45892500D01*
G75*
G02*
X148942500Y-46085000I-192500J0D01*
G01*
X148557500Y-46085000D01*
G75*
G02*
X148365000Y-45892500I0J192500D01*
G01*
G37*
G36*
G01*
X146865000Y-45892500D02*
X146865000Y-45407500D01*
G75*
G02*
X147057500Y-45215000I192500J0D01*
G01*
X147442500Y-45215000D01*
G75*
G02*
X147635000Y-45407500I0J-192500D01*
G01*
X147635000Y-45892500D01*
G75*
G02*
X147442500Y-46085000I-192500J0D01*
G01*
X147057500Y-46085000D01*
G75*
G02*
X146865000Y-45892500I0J192500D01*
G01*
G37*
G36*
G01*
X109930000Y-47343000D02*
X110415000Y-47343000D01*
G75*
G02*
X110607500Y-47535500I0J-192500D01*
G01*
X110607500Y-47920500D01*
G75*
G02*
X110415000Y-48113000I-192500J0D01*
G01*
X109930000Y-48113000D01*
G75*
G02*
X109737500Y-47920500I0J192500D01*
G01*
X109737500Y-47535500D01*
G75*
G02*
X109930000Y-47343000I192500J0D01*
G01*
G37*
G36*
G01*
X109930000Y-45843000D02*
X110415000Y-45843000D01*
G75*
G02*
X110607500Y-46035500I0J-192500D01*
G01*
X110607500Y-46420500D01*
G75*
G02*
X110415000Y-46613000I-192500J0D01*
G01*
X109930000Y-46613000D01*
G75*
G02*
X109737500Y-46420500I0J192500D01*
G01*
X109737500Y-46035500D01*
G75*
G02*
X109930000Y-45843000I192500J0D01*
G01*
G37*
G36*
G01*
X116296500Y-40524500D02*
X116296500Y-41009500D01*
G75*
G02*
X116104000Y-41202000I-192500J0D01*
G01*
X115719000Y-41202000D01*
G75*
G02*
X115526500Y-41009500I0J192500D01*
G01*
X115526500Y-40524500D01*
G75*
G02*
X115719000Y-40332000I192500J0D01*
G01*
X116104000Y-40332000D01*
G75*
G02*
X116296500Y-40524500I0J-192500D01*
G01*
G37*
G36*
G01*
X117796500Y-40524500D02*
X117796500Y-41009500D01*
G75*
G02*
X117604000Y-41202000I-192500J0D01*
G01*
X117219000Y-41202000D01*
G75*
G02*
X117026500Y-41009500I0J192500D01*
G01*
X117026500Y-40524500D01*
G75*
G02*
X117219000Y-40332000I192500J0D01*
G01*
X117604000Y-40332000D01*
G75*
G02*
X117796500Y-40524500I0J-192500D01*
G01*
G37*
G36*
G01*
X157042500Y-71685000D02*
X156557500Y-71685000D01*
G75*
G02*
X156365000Y-71492500I0J192500D01*
G01*
X156365000Y-71107500D01*
G75*
G02*
X156557500Y-70915000I192500J0D01*
G01*
X157042500Y-70915000D01*
G75*
G02*
X157235000Y-71107500I0J-192500D01*
G01*
X157235000Y-71492500D01*
G75*
G02*
X157042500Y-71685000I-192500J0D01*
G01*
G37*
G36*
G01*
X157042500Y-73185000D02*
X156557500Y-73185000D01*
G75*
G02*
X156365000Y-72992500I0J192500D01*
G01*
X156365000Y-72607500D01*
G75*
G02*
X156557500Y-72415000I192500J0D01*
G01*
X157042500Y-72415000D01*
G75*
G02*
X157235000Y-72607500I0J-192500D01*
G01*
X157235000Y-72992500D01*
G75*
G02*
X157042500Y-73185000I-192500J0D01*
G01*
G37*
G36*
G01*
X156557500Y-69115000D02*
X157042500Y-69115000D01*
G75*
G02*
X157235000Y-69307500I0J-192500D01*
G01*
X157235000Y-69692500D01*
G75*
G02*
X157042500Y-69885000I-192500J0D01*
G01*
X156557500Y-69885000D01*
G75*
G02*
X156365000Y-69692500I0J192500D01*
G01*
X156365000Y-69307500D01*
G75*
G02*
X156557500Y-69115000I192500J0D01*
G01*
G37*
G36*
G01*
X156557500Y-67615000D02*
X157042500Y-67615000D01*
G75*
G02*
X157235000Y-67807500I0J-192500D01*
G01*
X157235000Y-68192500D01*
G75*
G02*
X157042500Y-68385000I-192500J0D01*
G01*
X156557500Y-68385000D01*
G75*
G02*
X156365000Y-68192500I0J192500D01*
G01*
X156365000Y-67807500D01*
G75*
G02*
X156557500Y-67615000I192500J0D01*
G01*
G37*
G36*
G01*
X156557500Y-65165000D02*
X157042500Y-65165000D01*
G75*
G02*
X157235000Y-65357500I0J-192500D01*
G01*
X157235000Y-65742500D01*
G75*
G02*
X157042500Y-65935000I-192500J0D01*
G01*
X156557500Y-65935000D01*
G75*
G02*
X156365000Y-65742500I0J192500D01*
G01*
X156365000Y-65357500D01*
G75*
G02*
X156557500Y-65165000I192500J0D01*
G01*
G37*
G36*
G01*
X156557500Y-63665000D02*
X157042500Y-63665000D01*
G75*
G02*
X157235000Y-63857500I0J-192500D01*
G01*
X157235000Y-64242500D01*
G75*
G02*
X157042500Y-64435000I-192500J0D01*
G01*
X156557500Y-64435000D01*
G75*
G02*
X156365000Y-64242500I0J192500D01*
G01*
X156365000Y-63857500D01*
G75*
G02*
X156557500Y-63665000I192500J0D01*
G01*
G37*
G36*
G01*
X156557500Y-54715000D02*
X157042500Y-54715000D01*
G75*
G02*
X157235000Y-54907500I0J-192500D01*
G01*
X157235000Y-55292500D01*
G75*
G02*
X157042500Y-55485000I-192500J0D01*
G01*
X156557500Y-55485000D01*
G75*
G02*
X156365000Y-55292500I0J192500D01*
G01*
X156365000Y-54907500D01*
G75*
G02*
X156557500Y-54715000I192500J0D01*
G01*
G37*
G36*
G01*
X156557500Y-53215000D02*
X157042500Y-53215000D01*
G75*
G02*
X157235000Y-53407500I0J-192500D01*
G01*
X157235000Y-53792500D01*
G75*
G02*
X157042500Y-53985000I-192500J0D01*
G01*
X156557500Y-53985000D01*
G75*
G02*
X156365000Y-53792500I0J192500D01*
G01*
X156365000Y-53407500D01*
G75*
G02*
X156557500Y-53215000I192500J0D01*
G01*
G37*
G36*
G01*
X141442500Y-64435000D02*
X140957500Y-64435000D01*
G75*
G02*
X140765000Y-64242500I0J192500D01*
G01*
X140765000Y-63857500D01*
G75*
G02*
X140957500Y-63665000I192500J0D01*
G01*
X141442500Y-63665000D01*
G75*
G02*
X141635000Y-63857500I0J-192500D01*
G01*
X141635000Y-64242500D01*
G75*
G02*
X141442500Y-64435000I-192500J0D01*
G01*
G37*
G36*
G01*
X141442500Y-65935000D02*
X140957500Y-65935000D01*
G75*
G02*
X140765000Y-65742500I0J192500D01*
G01*
X140765000Y-65357500D01*
G75*
G02*
X140957500Y-65165000I192500J0D01*
G01*
X141442500Y-65165000D01*
G75*
G02*
X141635000Y-65357500I0J-192500D01*
G01*
X141635000Y-65742500D01*
G75*
G02*
X141442500Y-65935000I-192500J0D01*
G01*
G37*
G36*
G01*
X140957500Y-71515000D02*
X141442500Y-71515000D01*
G75*
G02*
X141635000Y-71707500I0J-192500D01*
G01*
X141635000Y-72092500D01*
G75*
G02*
X141442500Y-72285000I-192500J0D01*
G01*
X140957500Y-72285000D01*
G75*
G02*
X140765000Y-72092500I0J192500D01*
G01*
X140765000Y-71707500D01*
G75*
G02*
X140957500Y-71515000I192500J0D01*
G01*
G37*
G36*
G01*
X140957500Y-70015000D02*
X141442500Y-70015000D01*
G75*
G02*
X141635000Y-70207500I0J-192500D01*
G01*
X141635000Y-70592500D01*
G75*
G02*
X141442500Y-70785000I-192500J0D01*
G01*
X140957500Y-70785000D01*
G75*
G02*
X140765000Y-70592500I0J192500D01*
G01*
X140765000Y-70207500D01*
G75*
G02*
X140957500Y-70015000I192500J0D01*
G01*
G37*
G36*
G01*
X112542500Y-69685000D02*
X112057500Y-69685000D01*
G75*
G02*
X111865000Y-69492500I0J192500D01*
G01*
X111865000Y-69107500D01*
G75*
G02*
X112057500Y-68915000I192500J0D01*
G01*
X112542500Y-68915000D01*
G75*
G02*
X112735000Y-69107500I0J-192500D01*
G01*
X112735000Y-69492500D01*
G75*
G02*
X112542500Y-69685000I-192500J0D01*
G01*
G37*
G36*
G01*
X112542500Y-71185000D02*
X112057500Y-71185000D01*
G75*
G02*
X111865000Y-70992500I0J192500D01*
G01*
X111865000Y-70607500D01*
G75*
G02*
X112057500Y-70415000I192500J0D01*
G01*
X112542500Y-70415000D01*
G75*
G02*
X112735000Y-70607500I0J-192500D01*
G01*
X112735000Y-70992500D01*
G75*
G02*
X112542500Y-71185000I-192500J0D01*
G01*
G37*
G36*
G01*
X114885000Y-55357500D02*
X114885000Y-55842500D01*
G75*
G02*
X114692500Y-56035000I-192500J0D01*
G01*
X114307500Y-56035000D01*
G75*
G02*
X114115000Y-55842500I0J192500D01*
G01*
X114115000Y-55357500D01*
G75*
G02*
X114307500Y-55165000I192500J0D01*
G01*
X114692500Y-55165000D01*
G75*
G02*
X114885000Y-55357500I0J-192500D01*
G01*
G37*
G36*
G01*
X116385000Y-55357500D02*
X116385000Y-55842500D01*
G75*
G02*
X116192500Y-56035000I-192500J0D01*
G01*
X115807500Y-56035000D01*
G75*
G02*
X115615000Y-55842500I0J192500D01*
G01*
X115615000Y-55357500D01*
G75*
G02*
X115807500Y-55165000I192500J0D01*
G01*
X116192500Y-55165000D01*
G75*
G02*
X116385000Y-55357500I0J-192500D01*
G01*
G37*
G36*
G01*
X112057500Y-61915000D02*
X112542500Y-61915000D01*
G75*
G02*
X112735000Y-62107500I0J-192500D01*
G01*
X112735000Y-62492500D01*
G75*
G02*
X112542500Y-62685000I-192500J0D01*
G01*
X112057500Y-62685000D01*
G75*
G02*
X111865000Y-62492500I0J192500D01*
G01*
X111865000Y-62107500D01*
G75*
G02*
X112057500Y-61915000I192500J0D01*
G01*
G37*
G36*
G01*
X112057500Y-60415000D02*
X112542500Y-60415000D01*
G75*
G02*
X112735000Y-60607500I0J-192500D01*
G01*
X112735000Y-60992500D01*
G75*
G02*
X112542500Y-61185000I-192500J0D01*
G01*
X112057500Y-61185000D01*
G75*
G02*
X111865000Y-60992500I0J192500D01*
G01*
X111865000Y-60607500D01*
G75*
G02*
X112057500Y-60415000I192500J0D01*
G01*
G37*
G36*
G01*
X120115000Y-55842500D02*
X120115000Y-55357500D01*
G75*
G02*
X120307500Y-55165000I192500J0D01*
G01*
X120692500Y-55165000D01*
G75*
G02*
X120885000Y-55357500I0J-192500D01*
G01*
X120885000Y-55842500D01*
G75*
G02*
X120692500Y-56035000I-192500J0D01*
G01*
X120307500Y-56035000D01*
G75*
G02*
X120115000Y-55842500I0J192500D01*
G01*
G37*
G36*
G01*
X118615000Y-55842500D02*
X118615000Y-55357500D01*
G75*
G02*
X118807500Y-55165000I192500J0D01*
G01*
X119192500Y-55165000D01*
G75*
G02*
X119385000Y-55357500I0J-192500D01*
G01*
X119385000Y-55842500D01*
G75*
G02*
X119192500Y-56035000I-192500J0D01*
G01*
X118807500Y-56035000D01*
G75*
G02*
X118615000Y-55842500I0J192500D01*
G01*
G37*
G36*
G01*
X126615000Y-55842500D02*
X126615000Y-55357500D01*
G75*
G02*
X126807500Y-55165000I192500J0D01*
G01*
X127192500Y-55165000D01*
G75*
G02*
X127385000Y-55357500I0J-192500D01*
G01*
X127385000Y-55842500D01*
G75*
G02*
X127192500Y-56035000I-192500J0D01*
G01*
X126807500Y-56035000D01*
G75*
G02*
X126615000Y-55842500I0J192500D01*
G01*
G37*
G36*
G01*
X125115000Y-55842500D02*
X125115000Y-55357500D01*
G75*
G02*
X125307500Y-55165000I192500J0D01*
G01*
X125692500Y-55165000D01*
G75*
G02*
X125885000Y-55357500I0J-192500D01*
G01*
X125885000Y-55842500D01*
G75*
G02*
X125692500Y-56035000I-192500J0D01*
G01*
X125307500Y-56035000D01*
G75*
G02*
X125115000Y-55842500I0J192500D01*
G01*
G37*
G36*
G01*
X131457500Y-60915000D02*
X131942500Y-60915000D01*
G75*
G02*
X132135000Y-61107500I0J-192500D01*
G01*
X132135000Y-61492500D01*
G75*
G02*
X131942500Y-61685000I-192500J0D01*
G01*
X131457500Y-61685000D01*
G75*
G02*
X131265000Y-61492500I0J192500D01*
G01*
X131265000Y-61107500D01*
G75*
G02*
X131457500Y-60915000I192500J0D01*
G01*
G37*
G36*
G01*
X131457500Y-59415000D02*
X131942500Y-59415000D01*
G75*
G02*
X132135000Y-59607500I0J-192500D01*
G01*
X132135000Y-59992500D01*
G75*
G02*
X131942500Y-60185000I-192500J0D01*
G01*
X131457500Y-60185000D01*
G75*
G02*
X131265000Y-59992500I0J192500D01*
G01*
X131265000Y-59607500D01*
G75*
G02*
X131457500Y-59415000I192500J0D01*
G01*
G37*
G36*
G01*
X131942500Y-68685000D02*
X131457500Y-68685000D01*
G75*
G02*
X131265000Y-68492500I0J192500D01*
G01*
X131265000Y-68107500D01*
G75*
G02*
X131457500Y-67915000I192500J0D01*
G01*
X131942500Y-67915000D01*
G75*
G02*
X132135000Y-68107500I0J-192500D01*
G01*
X132135000Y-68492500D01*
G75*
G02*
X131942500Y-68685000I-192500J0D01*
G01*
G37*
G36*
G01*
X131942500Y-70185000D02*
X131457500Y-70185000D01*
G75*
G02*
X131265000Y-69992500I0J192500D01*
G01*
X131265000Y-69607500D01*
G75*
G02*
X131457500Y-69415000I192500J0D01*
G01*
X131942500Y-69415000D01*
G75*
G02*
X132135000Y-69607500I0J-192500D01*
G01*
X132135000Y-69992500D01*
G75*
G02*
X131942500Y-70185000I-192500J0D01*
G01*
G37*
G36*
G01*
X125135000Y-74757500D02*
X125135000Y-75242500D01*
G75*
G02*
X124942500Y-75435000I-192500J0D01*
G01*
X124557500Y-75435000D01*
G75*
G02*
X124365000Y-75242500I0J192500D01*
G01*
X124365000Y-74757500D01*
G75*
G02*
X124557500Y-74565000I192500J0D01*
G01*
X124942500Y-74565000D01*
G75*
G02*
X125135000Y-74757500I0J-192500D01*
G01*
G37*
G36*
G01*
X126635000Y-74757500D02*
X126635000Y-75242500D01*
G75*
G02*
X126442500Y-75435000I-192500J0D01*
G01*
X126057500Y-75435000D01*
G75*
G02*
X125865000Y-75242500I0J192500D01*
G01*
X125865000Y-74757500D01*
G75*
G02*
X126057500Y-74565000I192500J0D01*
G01*
X126442500Y-74565000D01*
G75*
G02*
X126635000Y-74757500I0J-192500D01*
G01*
G37*
G36*
G01*
X129115000Y-75242500D02*
X129115000Y-74757500D01*
G75*
G02*
X129307500Y-74565000I192500J0D01*
G01*
X129692500Y-74565000D01*
G75*
G02*
X129885000Y-74757500I0J-192500D01*
G01*
X129885000Y-75242500D01*
G75*
G02*
X129692500Y-75435000I-192500J0D01*
G01*
X129307500Y-75435000D01*
G75*
G02*
X129115000Y-75242500I0J192500D01*
G01*
G37*
G36*
G01*
X127615000Y-75242500D02*
X127615000Y-74757500D01*
G75*
G02*
X127807500Y-74565000I192500J0D01*
G01*
X128192500Y-74565000D01*
G75*
G02*
X128385000Y-74757500I0J-192500D01*
G01*
X128385000Y-75242500D01*
G75*
G02*
X128192500Y-75435000I-192500J0D01*
G01*
X127807500Y-75435000D01*
G75*
G02*
X127615000Y-75242500I0J192500D01*
G01*
G37*
G36*
G01*
X115557500Y-79815000D02*
X116042500Y-79815000D01*
G75*
G02*
X116235000Y-80007500I0J-192500D01*
G01*
X116235000Y-80392500D01*
G75*
G02*
X116042500Y-80585000I-192500J0D01*
G01*
X115557500Y-80585000D01*
G75*
G02*
X115365000Y-80392500I0J192500D01*
G01*
X115365000Y-80007500D01*
G75*
G02*
X115557500Y-79815000I192500J0D01*
G01*
G37*
G36*
G01*
X115557500Y-78315000D02*
X116042500Y-78315000D01*
G75*
G02*
X116235000Y-78507500I0J-192500D01*
G01*
X116235000Y-78892500D01*
G75*
G02*
X116042500Y-79085000I-192500J0D01*
G01*
X115557500Y-79085000D01*
G75*
G02*
X115365000Y-78892500I0J192500D01*
G01*
X115365000Y-78507500D01*
G75*
G02*
X115557500Y-78315000I192500J0D01*
G01*
G37*
G36*
G01*
X111510000Y-42555500D02*
X111510000Y-42280500D01*
G75*
G02*
X111647500Y-42143000I137500J0D01*
G01*
X113272500Y-42143000D01*
G75*
G02*
X113410000Y-42280500I0J-137500D01*
G01*
X113410000Y-42555500D01*
G75*
G02*
X113272500Y-42693000I-137500J0D01*
G01*
X111647500Y-42693000D01*
G75*
G02*
X111510000Y-42555500I0J137500D01*
G01*
G37*
G36*
G01*
X111510000Y-43825500D02*
X111510000Y-43550500D01*
G75*
G02*
X111647500Y-43413000I137500J0D01*
G01*
X113272500Y-43413000D01*
G75*
G02*
X113410000Y-43550500I0J-137500D01*
G01*
X113410000Y-43825500D01*
G75*
G02*
X113272500Y-43963000I-137500J0D01*
G01*
X111647500Y-43963000D01*
G75*
G02*
X111510000Y-43825500I0J137500D01*
G01*
G37*
G36*
G01*
X111510000Y-45095500D02*
X111510000Y-44820500D01*
G75*
G02*
X111647500Y-44683000I137500J0D01*
G01*
X113272500Y-44683000D01*
G75*
G02*
X113410000Y-44820500I0J-137500D01*
G01*
X113410000Y-45095500D01*
G75*
G02*
X113272500Y-45233000I-137500J0D01*
G01*
X111647500Y-45233000D01*
G75*
G02*
X111510000Y-45095500I0J137500D01*
G01*
G37*
G36*
G01*
X111510000Y-46365500D02*
X111510000Y-46090500D01*
G75*
G02*
X111647500Y-45953000I137500J0D01*
G01*
X113272500Y-45953000D01*
G75*
G02*
X113410000Y-46090500I0J-137500D01*
G01*
X113410000Y-46365500D01*
G75*
G02*
X113272500Y-46503000I-137500J0D01*
G01*
X111647500Y-46503000D01*
G75*
G02*
X111510000Y-46365500I0J137500D01*
G01*
G37*
G36*
G01*
X111510000Y-47635500D02*
X111510000Y-47360500D01*
G75*
G02*
X111647500Y-47223000I137500J0D01*
G01*
X113272500Y-47223000D01*
G75*
G02*
X113410000Y-47360500I0J-137500D01*
G01*
X113410000Y-47635500D01*
G75*
G02*
X113272500Y-47773000I-137500J0D01*
G01*
X111647500Y-47773000D01*
G75*
G02*
X111510000Y-47635500I0J137500D01*
G01*
G37*
G36*
G01*
X111510000Y-48905500D02*
X111510000Y-48630500D01*
G75*
G02*
X111647500Y-48493000I137500J0D01*
G01*
X113272500Y-48493000D01*
G75*
G02*
X113410000Y-48630500I0J-137500D01*
G01*
X113410000Y-48905500D01*
G75*
G02*
X113272500Y-49043000I-137500J0D01*
G01*
X111647500Y-49043000D01*
G75*
G02*
X111510000Y-48905500I0J137500D01*
G01*
G37*
G36*
G01*
X111510000Y-50175500D02*
X111510000Y-49900500D01*
G75*
G02*
X111647500Y-49763000I137500J0D01*
G01*
X113272500Y-49763000D01*
G75*
G02*
X113410000Y-49900500I0J-137500D01*
G01*
X113410000Y-50175500D01*
G75*
G02*
X113272500Y-50313000I-137500J0D01*
G01*
X111647500Y-50313000D01*
G75*
G02*
X111510000Y-50175500I0J137500D01*
G01*
G37*
G36*
G01*
X111510000Y-51445500D02*
X111510000Y-51170500D01*
G75*
G02*
X111647500Y-51033000I137500J0D01*
G01*
X113272500Y-51033000D01*
G75*
G02*
X113410000Y-51170500I0J-137500D01*
G01*
X113410000Y-51445500D01*
G75*
G02*
X113272500Y-51583000I-137500J0D01*
G01*
X111647500Y-51583000D01*
G75*
G02*
X111510000Y-51445500I0J137500D01*
G01*
G37*
G36*
G01*
X116460000Y-51445500D02*
X116460000Y-51170500D01*
G75*
G02*
X116597500Y-51033000I137500J0D01*
G01*
X118222500Y-51033000D01*
G75*
G02*
X118360000Y-51170500I0J-137500D01*
G01*
X118360000Y-51445500D01*
G75*
G02*
X118222500Y-51583000I-137500J0D01*
G01*
X116597500Y-51583000D01*
G75*
G02*
X116460000Y-51445500I0J137500D01*
G01*
G37*
G36*
G01*
X116460000Y-50175500D02*
X116460000Y-49900500D01*
G75*
G02*
X116597500Y-49763000I137500J0D01*
G01*
X118222500Y-49763000D01*
G75*
G02*
X118360000Y-49900500I0J-137500D01*
G01*
X118360000Y-50175500D01*
G75*
G02*
X118222500Y-50313000I-137500J0D01*
G01*
X116597500Y-50313000D01*
G75*
G02*
X116460000Y-50175500I0J137500D01*
G01*
G37*
G36*
G01*
X116460000Y-48905500D02*
X116460000Y-48630500D01*
G75*
G02*
X116597500Y-48493000I137500J0D01*
G01*
X118222500Y-48493000D01*
G75*
G02*
X118360000Y-48630500I0J-137500D01*
G01*
X118360000Y-48905500D01*
G75*
G02*
X118222500Y-49043000I-137500J0D01*
G01*
X116597500Y-49043000D01*
G75*
G02*
X116460000Y-48905500I0J137500D01*
G01*
G37*
G36*
G01*
X116460000Y-47635500D02*
X116460000Y-47360500D01*
G75*
G02*
X116597500Y-47223000I137500J0D01*
G01*
X118222500Y-47223000D01*
G75*
G02*
X118360000Y-47360500I0J-137500D01*
G01*
X118360000Y-47635500D01*
G75*
G02*
X118222500Y-47773000I-137500J0D01*
G01*
X116597500Y-47773000D01*
G75*
G02*
X116460000Y-47635500I0J137500D01*
G01*
G37*
G36*
G01*
X116460000Y-46365500D02*
X116460000Y-46090500D01*
G75*
G02*
X116597500Y-45953000I137500J0D01*
G01*
X118222500Y-45953000D01*
G75*
G02*
X118360000Y-46090500I0J-137500D01*
G01*
X118360000Y-46365500D01*
G75*
G02*
X118222500Y-46503000I-137500J0D01*
G01*
X116597500Y-46503000D01*
G75*
G02*
X116460000Y-46365500I0J137500D01*
G01*
G37*
G36*
G01*
X116460000Y-45095500D02*
X116460000Y-44820500D01*
G75*
G02*
X116597500Y-44683000I137500J0D01*
G01*
X118222500Y-44683000D01*
G75*
G02*
X118360000Y-44820500I0J-137500D01*
G01*
X118360000Y-45095500D01*
G75*
G02*
X118222500Y-45233000I-137500J0D01*
G01*
X116597500Y-45233000D01*
G75*
G02*
X116460000Y-45095500I0J137500D01*
G01*
G37*
G36*
G01*
X116460000Y-43825500D02*
X116460000Y-43550500D01*
G75*
G02*
X116597500Y-43413000I137500J0D01*
G01*
X118222500Y-43413000D01*
G75*
G02*
X118360000Y-43550500I0J-137500D01*
G01*
X118360000Y-43825500D01*
G75*
G02*
X118222500Y-43963000I-137500J0D01*
G01*
X116597500Y-43963000D01*
G75*
G02*
X116460000Y-43825500I0J137500D01*
G01*
G37*
G36*
G01*
X116460000Y-42555500D02*
X116460000Y-42280500D01*
G75*
G02*
X116597500Y-42143000I137500J0D01*
G01*
X118222500Y-42143000D01*
G75*
G02*
X118360000Y-42280500I0J-137500D01*
G01*
X118360000Y-42555500D01*
G75*
G02*
X118222500Y-42693000I-137500J0D01*
G01*
X116597500Y-42693000D01*
G75*
G02*
X116460000Y-42555500I0J137500D01*
G01*
G37*
G36*
G01*
X133825000Y-38412500D02*
X133825000Y-39437500D01*
G75*
G02*
X133687500Y-39575000I-137500J0D01*
G01*
X133412500Y-39575000D01*
G75*
G02*
X133275000Y-39437500I0J137500D01*
G01*
X133275000Y-38412500D01*
G75*
G02*
X133412500Y-38275000I137500J0D01*
G01*
X133687500Y-38275000D01*
G75*
G02*
X133825000Y-38412500I0J-137500D01*
G01*
G37*
G36*
G01*
X135150000Y-41060000D02*
X135150000Y-42090000D01*
G75*
G02*
X135090000Y-42150000I-60000J0D01*
G01*
X134910000Y-42150000D01*
G75*
G02*
X134850000Y-42090000I0J60000D01*
G01*
X134850000Y-41060000D01*
G75*
G02*
X134910000Y-41000000I60000J0D01*
G01*
X135090000Y-41000000D01*
G75*
G02*
X135150000Y-41060000I0J-60000D01*
G01*
G37*
G36*
G01*
X135800000Y-41060000D02*
X135800000Y-42090000D01*
G75*
G02*
X135740000Y-42150000I-60000J0D01*
G01*
X135560000Y-42150000D01*
G75*
G02*
X135500000Y-42090000I0J60000D01*
G01*
X135500000Y-41060000D01*
G75*
G02*
X135560000Y-41000000I60000J0D01*
G01*
X135740000Y-41000000D01*
G75*
G02*
X135800000Y-41060000I0J-60000D01*
G01*
G37*
G36*
G01*
X133200000Y-41060000D02*
X133200000Y-42090000D01*
G75*
G02*
X133140000Y-42150000I-60000J0D01*
G01*
X132960000Y-42150000D01*
G75*
G02*
X132900000Y-42090000I0J60000D01*
G01*
X132900000Y-41060000D01*
G75*
G02*
X132960000Y-41000000I60000J0D01*
G01*
X133140000Y-41000000D01*
G75*
G02*
X133200000Y-41060000I0J-60000D01*
G01*
G37*
G36*
G01*
X133850000Y-41060000D02*
X133850000Y-42090000D01*
G75*
G02*
X133790000Y-42150000I-60000J0D01*
G01*
X133610000Y-42150000D01*
G75*
G02*
X133550000Y-42090000I0J60000D01*
G01*
X133550000Y-41060000D01*
G75*
G02*
X133610000Y-41000000I60000J0D01*
G01*
X133790000Y-41000000D01*
G75*
G02*
X133850000Y-41060000I0J-60000D01*
G01*
G37*
G36*
G01*
X134500000Y-41060000D02*
X134500000Y-42090000D01*
G75*
G02*
X134440000Y-42150000I-60000J0D01*
G01*
X134260000Y-42150000D01*
G75*
G02*
X134200000Y-42090000I0J60000D01*
G01*
X134200000Y-41060000D01*
G75*
G02*
X134260000Y-41000000I60000J0D01*
G01*
X134440000Y-41000000D01*
G75*
G02*
X134500000Y-41060000I0J-60000D01*
G01*
G37*
G36*
G01*
X135425000Y-38412500D02*
X135425000Y-39437500D01*
G75*
G02*
X135287500Y-39575000I-137500J0D01*
G01*
X135012500Y-39575000D01*
G75*
G02*
X134875000Y-39437500I0J137500D01*
G01*
X134875000Y-38412500D01*
G75*
G02*
X135012500Y-38275000I137500J0D01*
G01*
X135287500Y-38275000D01*
G75*
G02*
X135425000Y-38412500I0J-137500D01*
G01*
G37*
G36*
G01*
X106120000Y-73200000D02*
X105280000Y-73200000D01*
G75*
G02*
X105000000Y-72920000I0J280000D01*
G01*
X105000000Y-71580000D01*
G75*
G02*
X105280000Y-71300000I280000J0D01*
G01*
X106120000Y-71300000D01*
G75*
G02*
X106400000Y-71580000I0J-280000D01*
G01*
X106400000Y-72920000D01*
G75*
G02*
X106120000Y-73200000I-280000J0D01*
G01*
G37*
G36*
G01*
X110720000Y-73200000D02*
X109880000Y-73200000D01*
G75*
G02*
X109600000Y-72920000I0J280000D01*
G01*
X109600000Y-71580000D01*
G75*
G02*
X109880000Y-71300000I280000J0D01*
G01*
X110720000Y-71300000D01*
G75*
G02*
X111000000Y-71580000I0J-280000D01*
G01*
X111000000Y-72920000D01*
G75*
G02*
X110720000Y-73200000I-280000J0D01*
G01*
G37*
G36*
G01*
X108420000Y-73200000D02*
X107580000Y-73200000D01*
G75*
G02*
X107300000Y-72920000I0J280000D01*
G01*
X107300000Y-71580000D01*
G75*
G02*
X107580000Y-71300000I280000J0D01*
G01*
X108420000Y-71300000D01*
G75*
G02*
X108700000Y-71580000I0J-280000D01*
G01*
X108700000Y-72920000D01*
G75*
G02*
X108420000Y-73200000I-280000J0D01*
G01*
G37*
G36*
G01*
X109565000Y-66900000D02*
X106435000Y-66900000D01*
G75*
G02*
X106150000Y-66615000I0J285000D01*
G01*
X106150000Y-65285000D01*
G75*
G02*
X106435000Y-65000000I285000J0D01*
G01*
X109565000Y-65000000D01*
G75*
G02*
X109850000Y-65285000I0J-285000D01*
G01*
X109850000Y-66615000D01*
G75*
G02*
X109565000Y-66900000I-285000J0D01*
G01*
G37*
G36*
G01*
X117380000Y-79260000D02*
X117220000Y-79260000D01*
G75*
G02*
X117140000Y-79180000I0J80000D01*
G01*
X117140000Y-78420000D01*
G75*
G02*
X117220000Y-78340000I80000J0D01*
G01*
X117380000Y-78340000D01*
G75*
G02*
X117460000Y-78420000I0J-80000D01*
G01*
X117460000Y-79180000D01*
G75*
G02*
X117380000Y-79260000I-80000J0D01*
G01*
G37*
G36*
G01*
X118680000Y-79260000D02*
X118520000Y-79260000D01*
G75*
G02*
X118440000Y-79180000I0J80000D01*
G01*
X118440000Y-78420000D01*
G75*
G02*
X118520000Y-78340000I80000J0D01*
G01*
X118680000Y-78340000D01*
G75*
G02*
X118760000Y-78420000I0J-80000D01*
G01*
X118760000Y-79180000D01*
G75*
G02*
X118680000Y-79260000I-80000J0D01*
G01*
G37*
G36*
G01*
X118030000Y-80960000D02*
X117870000Y-80960000D01*
G75*
G02*
X117790000Y-80880000I0J80000D01*
G01*
X117790000Y-80120000D01*
G75*
G02*
X117870000Y-80040000I80000J0D01*
G01*
X118030000Y-80040000D01*
G75*
G02*
X118110000Y-80120000I0J-80000D01*
G01*
X118110000Y-80880000D01*
G75*
G02*
X118030000Y-80960000I-80000J0D01*
G01*
G37*
G36*
G01*
X117380000Y-80960000D02*
X117220000Y-80960000D01*
G75*
G02*
X117140000Y-80880000I0J80000D01*
G01*
X117140000Y-80120000D01*
G75*
G02*
X117220000Y-80040000I80000J0D01*
G01*
X117380000Y-80040000D01*
G75*
G02*
X117460000Y-80120000I0J-80000D01*
G01*
X117460000Y-80880000D01*
G75*
G02*
X117380000Y-80960000I-80000J0D01*
G01*
G37*
G36*
G01*
X118680000Y-80960000D02*
X118520000Y-80960000D01*
G75*
G02*
X118440000Y-80880000I0J80000D01*
G01*
X118440000Y-80120000D01*
G75*
G02*
X118520000Y-80040000I80000J0D01*
G01*
X118680000Y-80040000D01*
G75*
G02*
X118760000Y-80120000I0J-80000D01*
G01*
X118760000Y-80880000D01*
G75*
G02*
X118680000Y-80960000I-80000J0D01*
G01*
G37*
G36*
G01*
X116915000Y-75242500D02*
X116915000Y-74757500D01*
G75*
G02*
X117107500Y-74565000I192500J0D01*
G01*
X117492500Y-74565000D01*
G75*
G02*
X117685000Y-74757500I0J-192500D01*
G01*
X117685000Y-75242500D01*
G75*
G02*
X117492500Y-75435000I-192500J0D01*
G01*
X117107500Y-75435000D01*
G75*
G02*
X116915000Y-75242500I0J192500D01*
G01*
G37*
G36*
G01*
X115415000Y-75242500D02*
X115415000Y-74757500D01*
G75*
G02*
X115607500Y-74565000I192500J0D01*
G01*
X115992500Y-74565000D01*
G75*
G02*
X116185000Y-74757500I0J-192500D01*
G01*
X116185000Y-75242500D01*
G75*
G02*
X115992500Y-75435000I-192500J0D01*
G01*
X115607500Y-75435000D01*
G75*
G02*
X115415000Y-75242500I0J192500D01*
G01*
G37*
G36*
G01*
X149557500Y-80165000D02*
X150042500Y-80165000D01*
G75*
G02*
X150235000Y-80357500I0J-192500D01*
G01*
X150235000Y-80742500D01*
G75*
G02*
X150042500Y-80935000I-192500J0D01*
G01*
X149557500Y-80935000D01*
G75*
G02*
X149365000Y-80742500I0J192500D01*
G01*
X149365000Y-80357500D01*
G75*
G02*
X149557500Y-80165000I192500J0D01*
G01*
G37*
G36*
G01*
X149557500Y-78665000D02*
X150042500Y-78665000D01*
G75*
G02*
X150235000Y-78857500I0J-192500D01*
G01*
X150235000Y-79242500D01*
G75*
G02*
X150042500Y-79435000I-192500J0D01*
G01*
X149557500Y-79435000D01*
G75*
G02*
X149365000Y-79242500I0J192500D01*
G01*
X149365000Y-78857500D01*
G75*
G02*
X149557500Y-78665000I192500J0D01*
G01*
G37*
G36*
G01*
X140357500Y-80165000D02*
X140842500Y-80165000D01*
G75*
G02*
X141035000Y-80357500I0J-192500D01*
G01*
X141035000Y-80742500D01*
G75*
G02*
X140842500Y-80935000I-192500J0D01*
G01*
X140357500Y-80935000D01*
G75*
G02*
X140165000Y-80742500I0J192500D01*
G01*
X140165000Y-80357500D01*
G75*
G02*
X140357500Y-80165000I192500J0D01*
G01*
G37*
G36*
G01*
X140357500Y-78665000D02*
X140842500Y-78665000D01*
G75*
G02*
X141035000Y-78857500I0J-192500D01*
G01*
X141035000Y-79242500D01*
G75*
G02*
X140842500Y-79435000I-192500J0D01*
G01*
X140357500Y-79435000D01*
G75*
G02*
X140165000Y-79242500I0J192500D01*
G01*
X140165000Y-78857500D01*
G75*
G02*
X140357500Y-78665000I192500J0D01*
G01*
G37*
G36*
G01*
X131107500Y-80165000D02*
X131592500Y-80165000D01*
G75*
G02*
X131785000Y-80357500I0J-192500D01*
G01*
X131785000Y-80742500D01*
G75*
G02*
X131592500Y-80935000I-192500J0D01*
G01*
X131107500Y-80935000D01*
G75*
G02*
X130915000Y-80742500I0J192500D01*
G01*
X130915000Y-80357500D01*
G75*
G02*
X131107500Y-80165000I192500J0D01*
G01*
G37*
G36*
G01*
X131107500Y-78665000D02*
X131592500Y-78665000D01*
G75*
G02*
X131785000Y-78857500I0J-192500D01*
G01*
X131785000Y-79242500D01*
G75*
G02*
X131592500Y-79435000I-192500J0D01*
G01*
X131107500Y-79435000D01*
G75*
G02*
X130915000Y-79242500I0J192500D01*
G01*
X130915000Y-78857500D01*
G75*
G02*
X131107500Y-78665000I192500J0D01*
G01*
G37*
G36*
G01*
X120157500Y-80165000D02*
X120642500Y-80165000D01*
G75*
G02*
X120835000Y-80357500I0J-192500D01*
G01*
X120835000Y-80742500D01*
G75*
G02*
X120642500Y-80935000I-192500J0D01*
G01*
X120157500Y-80935000D01*
G75*
G02*
X119965000Y-80742500I0J192500D01*
G01*
X119965000Y-80357500D01*
G75*
G02*
X120157500Y-80165000I192500J0D01*
G01*
G37*
G36*
G01*
X120157500Y-78665000D02*
X120642500Y-78665000D01*
G75*
G02*
X120835000Y-78857500I0J-192500D01*
G01*
X120835000Y-79242500D01*
G75*
G02*
X120642500Y-79435000I-192500J0D01*
G01*
X120157500Y-79435000D01*
G75*
G02*
X119965000Y-79242500I0J192500D01*
G01*
X119965000Y-78857500D01*
G75*
G02*
X120157500Y-78665000I192500J0D01*
G01*
G37*
G36*
G01*
X108257500Y-80165000D02*
X108742500Y-80165000D01*
G75*
G02*
X108935000Y-80357500I0J-192500D01*
G01*
X108935000Y-80742500D01*
G75*
G02*
X108742500Y-80935000I-192500J0D01*
G01*
X108257500Y-80935000D01*
G75*
G02*
X108065000Y-80742500I0J192500D01*
G01*
X108065000Y-80357500D01*
G75*
G02*
X108257500Y-80165000I192500J0D01*
G01*
G37*
G36*
G01*
X108257500Y-78665000D02*
X108742500Y-78665000D01*
G75*
G02*
X108935000Y-78857500I0J-192500D01*
G01*
X108935000Y-79242500D01*
G75*
G02*
X108742500Y-79435000I-192500J0D01*
G01*
X108257500Y-79435000D01*
G75*
G02*
X108065000Y-79242500I0J192500D01*
G01*
X108065000Y-78857500D01*
G75*
G02*
X108257500Y-78665000I192500J0D01*
G01*
G37*
G36*
G01*
X110142500Y-79735000D02*
X109957500Y-79735000D01*
G75*
G02*
X109865000Y-79642500I0J92500D01*
G01*
X109865000Y-78457500D01*
G75*
G02*
X109957500Y-78365000I92500J0D01*
G01*
X110142500Y-78365000D01*
G75*
G02*
X110235000Y-78457500I0J-92500D01*
G01*
X110235000Y-79642500D01*
G75*
G02*
X110142500Y-79735000I-92500J0D01*
G01*
G37*
G36*
G01*
X110792500Y-79735000D02*
X110607500Y-79735000D01*
G75*
G02*
X110515000Y-79642500I0J92500D01*
G01*
X110515000Y-78457500D01*
G75*
G02*
X110607500Y-78365000I92500J0D01*
G01*
X110792500Y-78365000D01*
G75*
G02*
X110885000Y-78457500I0J-92500D01*
G01*
X110885000Y-79642500D01*
G75*
G02*
X110792500Y-79735000I-92500J0D01*
G01*
G37*
G36*
G01*
X111442500Y-79735000D02*
X111257500Y-79735000D01*
G75*
G02*
X111165000Y-79642500I0J92500D01*
G01*
X111165000Y-78457500D01*
G75*
G02*
X111257500Y-78365000I92500J0D01*
G01*
X111442500Y-78365000D01*
G75*
G02*
X111535000Y-78457500I0J-92500D01*
G01*
X111535000Y-79642500D01*
G75*
G02*
X111442500Y-79735000I-92500J0D01*
G01*
G37*
G36*
G01*
X112092500Y-79735000D02*
X111907500Y-79735000D01*
G75*
G02*
X111815000Y-79642500I0J92500D01*
G01*
X111815000Y-78457500D01*
G75*
G02*
X111907500Y-78365000I92500J0D01*
G01*
X112092500Y-78365000D01*
G75*
G02*
X112185000Y-78457500I0J-92500D01*
G01*
X112185000Y-79642500D01*
G75*
G02*
X112092500Y-79735000I-92500J0D01*
G01*
G37*
G36*
G01*
X112742500Y-79735000D02*
X112557500Y-79735000D01*
G75*
G02*
X112465000Y-79642500I0J92500D01*
G01*
X112465000Y-78457500D01*
G75*
G02*
X112557500Y-78365000I92500J0D01*
G01*
X112742500Y-78365000D01*
G75*
G02*
X112835000Y-78457500I0J-92500D01*
G01*
X112835000Y-79642500D01*
G75*
G02*
X112742500Y-79735000I-92500J0D01*
G01*
G37*
G36*
G01*
X113392500Y-79735000D02*
X113207500Y-79735000D01*
G75*
G02*
X113115000Y-79642500I0J92500D01*
G01*
X113115000Y-78457500D01*
G75*
G02*
X113207500Y-78365000I92500J0D01*
G01*
X113392500Y-78365000D01*
G75*
G02*
X113485000Y-78457500I0J-92500D01*
G01*
X113485000Y-79642500D01*
G75*
G02*
X113392500Y-79735000I-92500J0D01*
G01*
G37*
G36*
G01*
X114042500Y-79735000D02*
X113857500Y-79735000D01*
G75*
G02*
X113765000Y-79642500I0J92500D01*
G01*
X113765000Y-78457500D01*
G75*
G02*
X113857500Y-78365000I92500J0D01*
G01*
X114042500Y-78365000D01*
G75*
G02*
X114135000Y-78457500I0J-92500D01*
G01*
X114135000Y-79642500D01*
G75*
G02*
X114042500Y-79735000I-92500J0D01*
G01*
G37*
G36*
G01*
X114042500Y-85635000D02*
X113857500Y-85635000D01*
G75*
G02*
X113765000Y-85542500I0J92500D01*
G01*
X113765000Y-84357500D01*
G75*
G02*
X113857500Y-84265000I92500J0D01*
G01*
X114042500Y-84265000D01*
G75*
G02*
X114135000Y-84357500I0J-92500D01*
G01*
X114135000Y-85542500D01*
G75*
G02*
X114042500Y-85635000I-92500J0D01*
G01*
G37*
G36*
G01*
X113392500Y-85635000D02*
X113207500Y-85635000D01*
G75*
G02*
X113115000Y-85542500I0J92500D01*
G01*
X113115000Y-84357500D01*
G75*
G02*
X113207500Y-84265000I92500J0D01*
G01*
X113392500Y-84265000D01*
G75*
G02*
X113485000Y-84357500I0J-92500D01*
G01*
X113485000Y-85542500D01*
G75*
G02*
X113392500Y-85635000I-92500J0D01*
G01*
G37*
G36*
G01*
X112742500Y-85635000D02*
X112557500Y-85635000D01*
G75*
G02*
X112465000Y-85542500I0J92500D01*
G01*
X112465000Y-84357500D01*
G75*
G02*
X112557500Y-84265000I92500J0D01*
G01*
X112742500Y-84265000D01*
G75*
G02*
X112835000Y-84357500I0J-92500D01*
G01*
X112835000Y-85542500D01*
G75*
G02*
X112742500Y-85635000I-92500J0D01*
G01*
G37*
G36*
G01*
X112092500Y-85635000D02*
X111907500Y-85635000D01*
G75*
G02*
X111815000Y-85542500I0J92500D01*
G01*
X111815000Y-84357500D01*
G75*
G02*
X111907500Y-84265000I92500J0D01*
G01*
X112092500Y-84265000D01*
G75*
G02*
X112185000Y-84357500I0J-92500D01*
G01*
X112185000Y-85542500D01*
G75*
G02*
X112092500Y-85635000I-92500J0D01*
G01*
G37*
G36*
G01*
X111442500Y-85635000D02*
X111257500Y-85635000D01*
G75*
G02*
X111165000Y-85542500I0J92500D01*
G01*
X111165000Y-84357500D01*
G75*
G02*
X111257500Y-84265000I92500J0D01*
G01*
X111442500Y-84265000D01*
G75*
G02*
X111535000Y-84357500I0J-92500D01*
G01*
X111535000Y-85542500D01*
G75*
G02*
X111442500Y-85635000I-92500J0D01*
G01*
G37*
G36*
G01*
X110792500Y-85635000D02*
X110607500Y-85635000D01*
G75*
G02*
X110515000Y-85542500I0J92500D01*
G01*
X110515000Y-84357500D01*
G75*
G02*
X110607500Y-84265000I92500J0D01*
G01*
X110792500Y-84265000D01*
G75*
G02*
X110885000Y-84357500I0J-92500D01*
G01*
X110885000Y-85542500D01*
G75*
G02*
X110792500Y-85635000I-92500J0D01*
G01*
G37*
G36*
G01*
X110142500Y-85635000D02*
X109957500Y-85635000D01*
G75*
G02*
X109865000Y-85542500I0J92500D01*
G01*
X109865000Y-84357500D01*
G75*
G02*
X109957500Y-84265000I92500J0D01*
G01*
X110142500Y-84265000D01*
G75*
G02*
X110235000Y-84357500I0J-92500D01*
G01*
X110235000Y-85542500D01*
G75*
G02*
X110142500Y-85635000I-92500J0D01*
G01*
G37*
G36*
G01*
X151342500Y-79735000D02*
X151157500Y-79735000D01*
G75*
G02*
X151065000Y-79642500I0J92500D01*
G01*
X151065000Y-78457500D01*
G75*
G02*
X151157500Y-78365000I92500J0D01*
G01*
X151342500Y-78365000D01*
G75*
G02*
X151435000Y-78457500I0J-92500D01*
G01*
X151435000Y-79642500D01*
G75*
G02*
X151342500Y-79735000I-92500J0D01*
G01*
G37*
G36*
G01*
X151992500Y-79735000D02*
X151807500Y-79735000D01*
G75*
G02*
X151715000Y-79642500I0J92500D01*
G01*
X151715000Y-78457500D01*
G75*
G02*
X151807500Y-78365000I92500J0D01*
G01*
X151992500Y-78365000D01*
G75*
G02*
X152085000Y-78457500I0J-92500D01*
G01*
X152085000Y-79642500D01*
G75*
G02*
X151992500Y-79735000I-92500J0D01*
G01*
G37*
G36*
G01*
X152642500Y-79735000D02*
X152457500Y-79735000D01*
G75*
G02*
X152365000Y-79642500I0J92500D01*
G01*
X152365000Y-78457500D01*
G75*
G02*
X152457500Y-78365000I92500J0D01*
G01*
X152642500Y-78365000D01*
G75*
G02*
X152735000Y-78457500I0J-92500D01*
G01*
X152735000Y-79642500D01*
G75*
G02*
X152642500Y-79735000I-92500J0D01*
G01*
G37*
G36*
G01*
X153292500Y-79735000D02*
X153107500Y-79735000D01*
G75*
G02*
X153015000Y-79642500I0J92500D01*
G01*
X153015000Y-78457500D01*
G75*
G02*
X153107500Y-78365000I92500J0D01*
G01*
X153292500Y-78365000D01*
G75*
G02*
X153385000Y-78457500I0J-92500D01*
G01*
X153385000Y-79642500D01*
G75*
G02*
X153292500Y-79735000I-92500J0D01*
G01*
G37*
G36*
G01*
X153942500Y-79735000D02*
X153757500Y-79735000D01*
G75*
G02*
X153665000Y-79642500I0J92500D01*
G01*
X153665000Y-78457500D01*
G75*
G02*
X153757500Y-78365000I92500J0D01*
G01*
X153942500Y-78365000D01*
G75*
G02*
X154035000Y-78457500I0J-92500D01*
G01*
X154035000Y-79642500D01*
G75*
G02*
X153942500Y-79735000I-92500J0D01*
G01*
G37*
G36*
G01*
X154592500Y-79735000D02*
X154407500Y-79735000D01*
G75*
G02*
X154315000Y-79642500I0J92500D01*
G01*
X154315000Y-78457500D01*
G75*
G02*
X154407500Y-78365000I92500J0D01*
G01*
X154592500Y-78365000D01*
G75*
G02*
X154685000Y-78457500I0J-92500D01*
G01*
X154685000Y-79642500D01*
G75*
G02*
X154592500Y-79735000I-92500J0D01*
G01*
G37*
G36*
G01*
X155242500Y-79735000D02*
X155057500Y-79735000D01*
G75*
G02*
X154965000Y-79642500I0J92500D01*
G01*
X154965000Y-78457500D01*
G75*
G02*
X155057500Y-78365000I92500J0D01*
G01*
X155242500Y-78365000D01*
G75*
G02*
X155335000Y-78457500I0J-92500D01*
G01*
X155335000Y-79642500D01*
G75*
G02*
X155242500Y-79735000I-92500J0D01*
G01*
G37*
G36*
G01*
X155892500Y-79735000D02*
X155707500Y-79735000D01*
G75*
G02*
X155615000Y-79642500I0J92500D01*
G01*
X155615000Y-78457500D01*
G75*
G02*
X155707500Y-78365000I92500J0D01*
G01*
X155892500Y-78365000D01*
G75*
G02*
X155985000Y-78457500I0J-92500D01*
G01*
X155985000Y-79642500D01*
G75*
G02*
X155892500Y-79735000I-92500J0D01*
G01*
G37*
G36*
G01*
X156542500Y-79735000D02*
X156357500Y-79735000D01*
G75*
G02*
X156265000Y-79642500I0J92500D01*
G01*
X156265000Y-78457500D01*
G75*
G02*
X156357500Y-78365000I92500J0D01*
G01*
X156542500Y-78365000D01*
G75*
G02*
X156635000Y-78457500I0J-92500D01*
G01*
X156635000Y-79642500D01*
G75*
G02*
X156542500Y-79735000I-92500J0D01*
G01*
G37*
G36*
G01*
X157192500Y-79735000D02*
X157007500Y-79735000D01*
G75*
G02*
X156915000Y-79642500I0J92500D01*
G01*
X156915000Y-78457500D01*
G75*
G02*
X157007500Y-78365000I92500J0D01*
G01*
X157192500Y-78365000D01*
G75*
G02*
X157285000Y-78457500I0J-92500D01*
G01*
X157285000Y-79642500D01*
G75*
G02*
X157192500Y-79735000I-92500J0D01*
G01*
G37*
G36*
G01*
X157192500Y-85635000D02*
X157007500Y-85635000D01*
G75*
G02*
X156915000Y-85542500I0J92500D01*
G01*
X156915000Y-84357500D01*
G75*
G02*
X157007500Y-84265000I92500J0D01*
G01*
X157192500Y-84265000D01*
G75*
G02*
X157285000Y-84357500I0J-92500D01*
G01*
X157285000Y-85542500D01*
G75*
G02*
X157192500Y-85635000I-92500J0D01*
G01*
G37*
G36*
G01*
X156542500Y-85635000D02*
X156357500Y-85635000D01*
G75*
G02*
X156265000Y-85542500I0J92500D01*
G01*
X156265000Y-84357500D01*
G75*
G02*
X156357500Y-84265000I92500J0D01*
G01*
X156542500Y-84265000D01*
G75*
G02*
X156635000Y-84357500I0J-92500D01*
G01*
X156635000Y-85542500D01*
G75*
G02*
X156542500Y-85635000I-92500J0D01*
G01*
G37*
G36*
G01*
X155892500Y-85635000D02*
X155707500Y-85635000D01*
G75*
G02*
X155615000Y-85542500I0J92500D01*
G01*
X155615000Y-84357500D01*
G75*
G02*
X155707500Y-84265000I92500J0D01*
G01*
X155892500Y-84265000D01*
G75*
G02*
X155985000Y-84357500I0J-92500D01*
G01*
X155985000Y-85542500D01*
G75*
G02*
X155892500Y-85635000I-92500J0D01*
G01*
G37*
G36*
G01*
X155242500Y-85635000D02*
X155057500Y-85635000D01*
G75*
G02*
X154965000Y-85542500I0J92500D01*
G01*
X154965000Y-84357500D01*
G75*
G02*
X155057500Y-84265000I92500J0D01*
G01*
X155242500Y-84265000D01*
G75*
G02*
X155335000Y-84357500I0J-92500D01*
G01*
X155335000Y-85542500D01*
G75*
G02*
X155242500Y-85635000I-92500J0D01*
G01*
G37*
G36*
G01*
X154592500Y-85635000D02*
X154407500Y-85635000D01*
G75*
G02*
X154315000Y-85542500I0J92500D01*
G01*
X154315000Y-84357500D01*
G75*
G02*
X154407500Y-84265000I92500J0D01*
G01*
X154592500Y-84265000D01*
G75*
G02*
X154685000Y-84357500I0J-92500D01*
G01*
X154685000Y-85542500D01*
G75*
G02*
X154592500Y-85635000I-92500J0D01*
G01*
G37*
G36*
G01*
X153942500Y-85635000D02*
X153757500Y-85635000D01*
G75*
G02*
X153665000Y-85542500I0J92500D01*
G01*
X153665000Y-84357500D01*
G75*
G02*
X153757500Y-84265000I92500J0D01*
G01*
X153942500Y-84265000D01*
G75*
G02*
X154035000Y-84357500I0J-92500D01*
G01*
X154035000Y-85542500D01*
G75*
G02*
X153942500Y-85635000I-92500J0D01*
G01*
G37*
G36*
G01*
X153292500Y-85635000D02*
X153107500Y-85635000D01*
G75*
G02*
X153015000Y-85542500I0J92500D01*
G01*
X153015000Y-84357500D01*
G75*
G02*
X153107500Y-84265000I92500J0D01*
G01*
X153292500Y-84265000D01*
G75*
G02*
X153385000Y-84357500I0J-92500D01*
G01*
X153385000Y-85542500D01*
G75*
G02*
X153292500Y-85635000I-92500J0D01*
G01*
G37*
G36*
G01*
X152642500Y-85635000D02*
X152457500Y-85635000D01*
G75*
G02*
X152365000Y-85542500I0J92500D01*
G01*
X152365000Y-84357500D01*
G75*
G02*
X152457500Y-84265000I92500J0D01*
G01*
X152642500Y-84265000D01*
G75*
G02*
X152735000Y-84357500I0J-92500D01*
G01*
X152735000Y-85542500D01*
G75*
G02*
X152642500Y-85635000I-92500J0D01*
G01*
G37*
G36*
G01*
X151992500Y-85635000D02*
X151807500Y-85635000D01*
G75*
G02*
X151715000Y-85542500I0J92500D01*
G01*
X151715000Y-84357500D01*
G75*
G02*
X151807500Y-84265000I92500J0D01*
G01*
X151992500Y-84265000D01*
G75*
G02*
X152085000Y-84357500I0J-92500D01*
G01*
X152085000Y-85542500D01*
G75*
G02*
X151992500Y-85635000I-92500J0D01*
G01*
G37*
G36*
G01*
X151342500Y-85635000D02*
X151157500Y-85635000D01*
G75*
G02*
X151065000Y-85542500I0J92500D01*
G01*
X151065000Y-84357500D01*
G75*
G02*
X151157500Y-84265000I92500J0D01*
G01*
X151342500Y-84265000D01*
G75*
G02*
X151435000Y-84357500I0J-92500D01*
G01*
X151435000Y-85542500D01*
G75*
G02*
X151342500Y-85635000I-92500J0D01*
G01*
G37*
G36*
G01*
X142142500Y-79735000D02*
X141957500Y-79735000D01*
G75*
G02*
X141865000Y-79642500I0J92500D01*
G01*
X141865000Y-78457500D01*
G75*
G02*
X141957500Y-78365000I92500J0D01*
G01*
X142142500Y-78365000D01*
G75*
G02*
X142235000Y-78457500I0J-92500D01*
G01*
X142235000Y-79642500D01*
G75*
G02*
X142142500Y-79735000I-92500J0D01*
G01*
G37*
G36*
G01*
X142792500Y-79735000D02*
X142607500Y-79735000D01*
G75*
G02*
X142515000Y-79642500I0J92500D01*
G01*
X142515000Y-78457500D01*
G75*
G02*
X142607500Y-78365000I92500J0D01*
G01*
X142792500Y-78365000D01*
G75*
G02*
X142885000Y-78457500I0J-92500D01*
G01*
X142885000Y-79642500D01*
G75*
G02*
X142792500Y-79735000I-92500J0D01*
G01*
G37*
G36*
G01*
X143442500Y-79735000D02*
X143257500Y-79735000D01*
G75*
G02*
X143165000Y-79642500I0J92500D01*
G01*
X143165000Y-78457500D01*
G75*
G02*
X143257500Y-78365000I92500J0D01*
G01*
X143442500Y-78365000D01*
G75*
G02*
X143535000Y-78457500I0J-92500D01*
G01*
X143535000Y-79642500D01*
G75*
G02*
X143442500Y-79735000I-92500J0D01*
G01*
G37*
G36*
G01*
X144092500Y-79735000D02*
X143907500Y-79735000D01*
G75*
G02*
X143815000Y-79642500I0J92500D01*
G01*
X143815000Y-78457500D01*
G75*
G02*
X143907500Y-78365000I92500J0D01*
G01*
X144092500Y-78365000D01*
G75*
G02*
X144185000Y-78457500I0J-92500D01*
G01*
X144185000Y-79642500D01*
G75*
G02*
X144092500Y-79735000I-92500J0D01*
G01*
G37*
G36*
G01*
X144742500Y-79735000D02*
X144557500Y-79735000D01*
G75*
G02*
X144465000Y-79642500I0J92500D01*
G01*
X144465000Y-78457500D01*
G75*
G02*
X144557500Y-78365000I92500J0D01*
G01*
X144742500Y-78365000D01*
G75*
G02*
X144835000Y-78457500I0J-92500D01*
G01*
X144835000Y-79642500D01*
G75*
G02*
X144742500Y-79735000I-92500J0D01*
G01*
G37*
G36*
G01*
X145392500Y-79735000D02*
X145207500Y-79735000D01*
G75*
G02*
X145115000Y-79642500I0J92500D01*
G01*
X145115000Y-78457500D01*
G75*
G02*
X145207500Y-78365000I92500J0D01*
G01*
X145392500Y-78365000D01*
G75*
G02*
X145485000Y-78457500I0J-92500D01*
G01*
X145485000Y-79642500D01*
G75*
G02*
X145392500Y-79735000I-92500J0D01*
G01*
G37*
G36*
G01*
X146042500Y-79735000D02*
X145857500Y-79735000D01*
G75*
G02*
X145765000Y-79642500I0J92500D01*
G01*
X145765000Y-78457500D01*
G75*
G02*
X145857500Y-78365000I92500J0D01*
G01*
X146042500Y-78365000D01*
G75*
G02*
X146135000Y-78457500I0J-92500D01*
G01*
X146135000Y-79642500D01*
G75*
G02*
X146042500Y-79735000I-92500J0D01*
G01*
G37*
G36*
G01*
X146692500Y-79735000D02*
X146507500Y-79735000D01*
G75*
G02*
X146415000Y-79642500I0J92500D01*
G01*
X146415000Y-78457500D01*
G75*
G02*
X146507500Y-78365000I92500J0D01*
G01*
X146692500Y-78365000D01*
G75*
G02*
X146785000Y-78457500I0J-92500D01*
G01*
X146785000Y-79642500D01*
G75*
G02*
X146692500Y-79735000I-92500J0D01*
G01*
G37*
G36*
G01*
X147342500Y-79735000D02*
X147157500Y-79735000D01*
G75*
G02*
X147065000Y-79642500I0J92500D01*
G01*
X147065000Y-78457500D01*
G75*
G02*
X147157500Y-78365000I92500J0D01*
G01*
X147342500Y-78365000D01*
G75*
G02*
X147435000Y-78457500I0J-92500D01*
G01*
X147435000Y-79642500D01*
G75*
G02*
X147342500Y-79735000I-92500J0D01*
G01*
G37*
G36*
G01*
X147992500Y-79735000D02*
X147807500Y-79735000D01*
G75*
G02*
X147715000Y-79642500I0J92500D01*
G01*
X147715000Y-78457500D01*
G75*
G02*
X147807500Y-78365000I92500J0D01*
G01*
X147992500Y-78365000D01*
G75*
G02*
X148085000Y-78457500I0J-92500D01*
G01*
X148085000Y-79642500D01*
G75*
G02*
X147992500Y-79735000I-92500J0D01*
G01*
G37*
G36*
G01*
X147992500Y-85635000D02*
X147807500Y-85635000D01*
G75*
G02*
X147715000Y-85542500I0J92500D01*
G01*
X147715000Y-84357500D01*
G75*
G02*
X147807500Y-84265000I92500J0D01*
G01*
X147992500Y-84265000D01*
G75*
G02*
X148085000Y-84357500I0J-92500D01*
G01*
X148085000Y-85542500D01*
G75*
G02*
X147992500Y-85635000I-92500J0D01*
G01*
G37*
G36*
G01*
X147342500Y-85635000D02*
X147157500Y-85635000D01*
G75*
G02*
X147065000Y-85542500I0J92500D01*
G01*
X147065000Y-84357500D01*
G75*
G02*
X147157500Y-84265000I92500J0D01*
G01*
X147342500Y-84265000D01*
G75*
G02*
X147435000Y-84357500I0J-92500D01*
G01*
X147435000Y-85542500D01*
G75*
G02*
X147342500Y-85635000I-92500J0D01*
G01*
G37*
G36*
G01*
X146692500Y-85635000D02*
X146507500Y-85635000D01*
G75*
G02*
X146415000Y-85542500I0J92500D01*
G01*
X146415000Y-84357500D01*
G75*
G02*
X146507500Y-84265000I92500J0D01*
G01*
X146692500Y-84265000D01*
G75*
G02*
X146785000Y-84357500I0J-92500D01*
G01*
X146785000Y-85542500D01*
G75*
G02*
X146692500Y-85635000I-92500J0D01*
G01*
G37*
G36*
G01*
X146042500Y-85635000D02*
X145857500Y-85635000D01*
G75*
G02*
X145765000Y-85542500I0J92500D01*
G01*
X145765000Y-84357500D01*
G75*
G02*
X145857500Y-84265000I92500J0D01*
G01*
X146042500Y-84265000D01*
G75*
G02*
X146135000Y-84357500I0J-92500D01*
G01*
X146135000Y-85542500D01*
G75*
G02*
X146042500Y-85635000I-92500J0D01*
G01*
G37*
G36*
G01*
X145392500Y-85635000D02*
X145207500Y-85635000D01*
G75*
G02*
X145115000Y-85542500I0J92500D01*
G01*
X145115000Y-84357500D01*
G75*
G02*
X145207500Y-84265000I92500J0D01*
G01*
X145392500Y-84265000D01*
G75*
G02*
X145485000Y-84357500I0J-92500D01*
G01*
X145485000Y-85542500D01*
G75*
G02*
X145392500Y-85635000I-92500J0D01*
G01*
G37*
G36*
G01*
X144742500Y-85635000D02*
X144557500Y-85635000D01*
G75*
G02*
X144465000Y-85542500I0J92500D01*
G01*
X144465000Y-84357500D01*
G75*
G02*
X144557500Y-84265000I92500J0D01*
G01*
X144742500Y-84265000D01*
G75*
G02*
X144835000Y-84357500I0J-92500D01*
G01*
X144835000Y-85542500D01*
G75*
G02*
X144742500Y-85635000I-92500J0D01*
G01*
G37*
G36*
G01*
X144092500Y-85635000D02*
X143907500Y-85635000D01*
G75*
G02*
X143815000Y-85542500I0J92500D01*
G01*
X143815000Y-84357500D01*
G75*
G02*
X143907500Y-84265000I92500J0D01*
G01*
X144092500Y-84265000D01*
G75*
G02*
X144185000Y-84357500I0J-92500D01*
G01*
X144185000Y-85542500D01*
G75*
G02*
X144092500Y-85635000I-92500J0D01*
G01*
G37*
G36*
G01*
X143442500Y-85635000D02*
X143257500Y-85635000D01*
G75*
G02*
X143165000Y-85542500I0J92500D01*
G01*
X143165000Y-84357500D01*
G75*
G02*
X143257500Y-84265000I92500J0D01*
G01*
X143442500Y-84265000D01*
G75*
G02*
X143535000Y-84357500I0J-92500D01*
G01*
X143535000Y-85542500D01*
G75*
G02*
X143442500Y-85635000I-92500J0D01*
G01*
G37*
G36*
G01*
X142792500Y-85635000D02*
X142607500Y-85635000D01*
G75*
G02*
X142515000Y-85542500I0J92500D01*
G01*
X142515000Y-84357500D01*
G75*
G02*
X142607500Y-84265000I92500J0D01*
G01*
X142792500Y-84265000D01*
G75*
G02*
X142885000Y-84357500I0J-92500D01*
G01*
X142885000Y-85542500D01*
G75*
G02*
X142792500Y-85635000I-92500J0D01*
G01*
G37*
G36*
G01*
X142142500Y-85635000D02*
X141957500Y-85635000D01*
G75*
G02*
X141865000Y-85542500I0J92500D01*
G01*
X141865000Y-84357500D01*
G75*
G02*
X141957500Y-84265000I92500J0D01*
G01*
X142142500Y-84265000D01*
G75*
G02*
X142235000Y-84357500I0J-92500D01*
G01*
X142235000Y-85542500D01*
G75*
G02*
X142142500Y-85635000I-92500J0D01*
G01*
G37*
G36*
G01*
X132942500Y-79735000D02*
X132757500Y-79735000D01*
G75*
G02*
X132665000Y-79642500I0J92500D01*
G01*
X132665000Y-78457500D01*
G75*
G02*
X132757500Y-78365000I92500J0D01*
G01*
X132942500Y-78365000D01*
G75*
G02*
X133035000Y-78457500I0J-92500D01*
G01*
X133035000Y-79642500D01*
G75*
G02*
X132942500Y-79735000I-92500J0D01*
G01*
G37*
G36*
G01*
X133592500Y-79735000D02*
X133407500Y-79735000D01*
G75*
G02*
X133315000Y-79642500I0J92500D01*
G01*
X133315000Y-78457500D01*
G75*
G02*
X133407500Y-78365000I92500J0D01*
G01*
X133592500Y-78365000D01*
G75*
G02*
X133685000Y-78457500I0J-92500D01*
G01*
X133685000Y-79642500D01*
G75*
G02*
X133592500Y-79735000I-92500J0D01*
G01*
G37*
G36*
G01*
X134242500Y-79735000D02*
X134057500Y-79735000D01*
G75*
G02*
X133965000Y-79642500I0J92500D01*
G01*
X133965000Y-78457500D01*
G75*
G02*
X134057500Y-78365000I92500J0D01*
G01*
X134242500Y-78365000D01*
G75*
G02*
X134335000Y-78457500I0J-92500D01*
G01*
X134335000Y-79642500D01*
G75*
G02*
X134242500Y-79735000I-92500J0D01*
G01*
G37*
G36*
G01*
X134892500Y-79735000D02*
X134707500Y-79735000D01*
G75*
G02*
X134615000Y-79642500I0J92500D01*
G01*
X134615000Y-78457500D01*
G75*
G02*
X134707500Y-78365000I92500J0D01*
G01*
X134892500Y-78365000D01*
G75*
G02*
X134985000Y-78457500I0J-92500D01*
G01*
X134985000Y-79642500D01*
G75*
G02*
X134892500Y-79735000I-92500J0D01*
G01*
G37*
G36*
G01*
X135542500Y-79735000D02*
X135357500Y-79735000D01*
G75*
G02*
X135265000Y-79642500I0J92500D01*
G01*
X135265000Y-78457500D01*
G75*
G02*
X135357500Y-78365000I92500J0D01*
G01*
X135542500Y-78365000D01*
G75*
G02*
X135635000Y-78457500I0J-92500D01*
G01*
X135635000Y-79642500D01*
G75*
G02*
X135542500Y-79735000I-92500J0D01*
G01*
G37*
G36*
G01*
X136192500Y-79735000D02*
X136007500Y-79735000D01*
G75*
G02*
X135915000Y-79642500I0J92500D01*
G01*
X135915000Y-78457500D01*
G75*
G02*
X136007500Y-78365000I92500J0D01*
G01*
X136192500Y-78365000D01*
G75*
G02*
X136285000Y-78457500I0J-92500D01*
G01*
X136285000Y-79642500D01*
G75*
G02*
X136192500Y-79735000I-92500J0D01*
G01*
G37*
G36*
G01*
X136842500Y-79735000D02*
X136657500Y-79735000D01*
G75*
G02*
X136565000Y-79642500I0J92500D01*
G01*
X136565000Y-78457500D01*
G75*
G02*
X136657500Y-78365000I92500J0D01*
G01*
X136842500Y-78365000D01*
G75*
G02*
X136935000Y-78457500I0J-92500D01*
G01*
X136935000Y-79642500D01*
G75*
G02*
X136842500Y-79735000I-92500J0D01*
G01*
G37*
G36*
G01*
X137492500Y-79735000D02*
X137307500Y-79735000D01*
G75*
G02*
X137215000Y-79642500I0J92500D01*
G01*
X137215000Y-78457500D01*
G75*
G02*
X137307500Y-78365000I92500J0D01*
G01*
X137492500Y-78365000D01*
G75*
G02*
X137585000Y-78457500I0J-92500D01*
G01*
X137585000Y-79642500D01*
G75*
G02*
X137492500Y-79735000I-92500J0D01*
G01*
G37*
G36*
G01*
X138142500Y-79735000D02*
X137957500Y-79735000D01*
G75*
G02*
X137865000Y-79642500I0J92500D01*
G01*
X137865000Y-78457500D01*
G75*
G02*
X137957500Y-78365000I92500J0D01*
G01*
X138142500Y-78365000D01*
G75*
G02*
X138235000Y-78457500I0J-92500D01*
G01*
X138235000Y-79642500D01*
G75*
G02*
X138142500Y-79735000I-92500J0D01*
G01*
G37*
G36*
G01*
X138792500Y-79735000D02*
X138607500Y-79735000D01*
G75*
G02*
X138515000Y-79642500I0J92500D01*
G01*
X138515000Y-78457500D01*
G75*
G02*
X138607500Y-78365000I92500J0D01*
G01*
X138792500Y-78365000D01*
G75*
G02*
X138885000Y-78457500I0J-92500D01*
G01*
X138885000Y-79642500D01*
G75*
G02*
X138792500Y-79735000I-92500J0D01*
G01*
G37*
G36*
G01*
X138792500Y-85635000D02*
X138607500Y-85635000D01*
G75*
G02*
X138515000Y-85542500I0J92500D01*
G01*
X138515000Y-84357500D01*
G75*
G02*
X138607500Y-84265000I92500J0D01*
G01*
X138792500Y-84265000D01*
G75*
G02*
X138885000Y-84357500I0J-92500D01*
G01*
X138885000Y-85542500D01*
G75*
G02*
X138792500Y-85635000I-92500J0D01*
G01*
G37*
G36*
G01*
X138142500Y-85635000D02*
X137957500Y-85635000D01*
G75*
G02*
X137865000Y-85542500I0J92500D01*
G01*
X137865000Y-84357500D01*
G75*
G02*
X137957500Y-84265000I92500J0D01*
G01*
X138142500Y-84265000D01*
G75*
G02*
X138235000Y-84357500I0J-92500D01*
G01*
X138235000Y-85542500D01*
G75*
G02*
X138142500Y-85635000I-92500J0D01*
G01*
G37*
G36*
G01*
X137492500Y-85635000D02*
X137307500Y-85635000D01*
G75*
G02*
X137215000Y-85542500I0J92500D01*
G01*
X137215000Y-84357500D01*
G75*
G02*
X137307500Y-84265000I92500J0D01*
G01*
X137492500Y-84265000D01*
G75*
G02*
X137585000Y-84357500I0J-92500D01*
G01*
X137585000Y-85542500D01*
G75*
G02*
X137492500Y-85635000I-92500J0D01*
G01*
G37*
G36*
G01*
X136842500Y-85635000D02*
X136657500Y-85635000D01*
G75*
G02*
X136565000Y-85542500I0J92500D01*
G01*
X136565000Y-84357500D01*
G75*
G02*
X136657500Y-84265000I92500J0D01*
G01*
X136842500Y-84265000D01*
G75*
G02*
X136935000Y-84357500I0J-92500D01*
G01*
X136935000Y-85542500D01*
G75*
G02*
X136842500Y-85635000I-92500J0D01*
G01*
G37*
G36*
G01*
X136192500Y-85635000D02*
X136007500Y-85635000D01*
G75*
G02*
X135915000Y-85542500I0J92500D01*
G01*
X135915000Y-84357500D01*
G75*
G02*
X136007500Y-84265000I92500J0D01*
G01*
X136192500Y-84265000D01*
G75*
G02*
X136285000Y-84357500I0J-92500D01*
G01*
X136285000Y-85542500D01*
G75*
G02*
X136192500Y-85635000I-92500J0D01*
G01*
G37*
G36*
G01*
X135542500Y-85635000D02*
X135357500Y-85635000D01*
G75*
G02*
X135265000Y-85542500I0J92500D01*
G01*
X135265000Y-84357500D01*
G75*
G02*
X135357500Y-84265000I92500J0D01*
G01*
X135542500Y-84265000D01*
G75*
G02*
X135635000Y-84357500I0J-92500D01*
G01*
X135635000Y-85542500D01*
G75*
G02*
X135542500Y-85635000I-92500J0D01*
G01*
G37*
G36*
G01*
X134892500Y-85635000D02*
X134707500Y-85635000D01*
G75*
G02*
X134615000Y-85542500I0J92500D01*
G01*
X134615000Y-84357500D01*
G75*
G02*
X134707500Y-84265000I92500J0D01*
G01*
X134892500Y-84265000D01*
G75*
G02*
X134985000Y-84357500I0J-92500D01*
G01*
X134985000Y-85542500D01*
G75*
G02*
X134892500Y-85635000I-92500J0D01*
G01*
G37*
G36*
G01*
X134242500Y-85635000D02*
X134057500Y-85635000D01*
G75*
G02*
X133965000Y-85542500I0J92500D01*
G01*
X133965000Y-84357500D01*
G75*
G02*
X134057500Y-84265000I92500J0D01*
G01*
X134242500Y-84265000D01*
G75*
G02*
X134335000Y-84357500I0J-92500D01*
G01*
X134335000Y-85542500D01*
G75*
G02*
X134242500Y-85635000I-92500J0D01*
G01*
G37*
G36*
G01*
X133592500Y-85635000D02*
X133407500Y-85635000D01*
G75*
G02*
X133315000Y-85542500I0J92500D01*
G01*
X133315000Y-84357500D01*
G75*
G02*
X133407500Y-84265000I92500J0D01*
G01*
X133592500Y-84265000D01*
G75*
G02*
X133685000Y-84357500I0J-92500D01*
G01*
X133685000Y-85542500D01*
G75*
G02*
X133592500Y-85635000I-92500J0D01*
G01*
G37*
G36*
G01*
X132942500Y-85635000D02*
X132757500Y-85635000D01*
G75*
G02*
X132665000Y-85542500I0J92500D01*
G01*
X132665000Y-84357500D01*
G75*
G02*
X132757500Y-84265000I92500J0D01*
G01*
X132942500Y-84265000D01*
G75*
G02*
X133035000Y-84357500I0J-92500D01*
G01*
X133035000Y-85542500D01*
G75*
G02*
X132942500Y-85635000I-92500J0D01*
G01*
G37*
G36*
G01*
X121992500Y-79735000D02*
X121807500Y-79735000D01*
G75*
G02*
X121715000Y-79642500I0J92500D01*
G01*
X121715000Y-78457500D01*
G75*
G02*
X121807500Y-78365000I92500J0D01*
G01*
X121992500Y-78365000D01*
G75*
G02*
X122085000Y-78457500I0J-92500D01*
G01*
X122085000Y-79642500D01*
G75*
G02*
X121992500Y-79735000I-92500J0D01*
G01*
G37*
G36*
G01*
X122642500Y-79735000D02*
X122457500Y-79735000D01*
G75*
G02*
X122365000Y-79642500I0J92500D01*
G01*
X122365000Y-78457500D01*
G75*
G02*
X122457500Y-78365000I92500J0D01*
G01*
X122642500Y-78365000D01*
G75*
G02*
X122735000Y-78457500I0J-92500D01*
G01*
X122735000Y-79642500D01*
G75*
G02*
X122642500Y-79735000I-92500J0D01*
G01*
G37*
G36*
G01*
X123292500Y-79735000D02*
X123107500Y-79735000D01*
G75*
G02*
X123015000Y-79642500I0J92500D01*
G01*
X123015000Y-78457500D01*
G75*
G02*
X123107500Y-78365000I92500J0D01*
G01*
X123292500Y-78365000D01*
G75*
G02*
X123385000Y-78457500I0J-92500D01*
G01*
X123385000Y-79642500D01*
G75*
G02*
X123292500Y-79735000I-92500J0D01*
G01*
G37*
G36*
G01*
X123942500Y-79735000D02*
X123757500Y-79735000D01*
G75*
G02*
X123665000Y-79642500I0J92500D01*
G01*
X123665000Y-78457500D01*
G75*
G02*
X123757500Y-78365000I92500J0D01*
G01*
X123942500Y-78365000D01*
G75*
G02*
X124035000Y-78457500I0J-92500D01*
G01*
X124035000Y-79642500D01*
G75*
G02*
X123942500Y-79735000I-92500J0D01*
G01*
G37*
G36*
G01*
X124592500Y-79735000D02*
X124407500Y-79735000D01*
G75*
G02*
X124315000Y-79642500I0J92500D01*
G01*
X124315000Y-78457500D01*
G75*
G02*
X124407500Y-78365000I92500J0D01*
G01*
X124592500Y-78365000D01*
G75*
G02*
X124685000Y-78457500I0J-92500D01*
G01*
X124685000Y-79642500D01*
G75*
G02*
X124592500Y-79735000I-92500J0D01*
G01*
G37*
G36*
G01*
X125242500Y-79735000D02*
X125057500Y-79735000D01*
G75*
G02*
X124965000Y-79642500I0J92500D01*
G01*
X124965000Y-78457500D01*
G75*
G02*
X125057500Y-78365000I92500J0D01*
G01*
X125242500Y-78365000D01*
G75*
G02*
X125335000Y-78457500I0J-92500D01*
G01*
X125335000Y-79642500D01*
G75*
G02*
X125242500Y-79735000I-92500J0D01*
G01*
G37*
G36*
G01*
X125892500Y-79735000D02*
X125707500Y-79735000D01*
G75*
G02*
X125615000Y-79642500I0J92500D01*
G01*
X125615000Y-78457500D01*
G75*
G02*
X125707500Y-78365000I92500J0D01*
G01*
X125892500Y-78365000D01*
G75*
G02*
X125985000Y-78457500I0J-92500D01*
G01*
X125985000Y-79642500D01*
G75*
G02*
X125892500Y-79735000I-92500J0D01*
G01*
G37*
G36*
G01*
X126542500Y-79735000D02*
X126357500Y-79735000D01*
G75*
G02*
X126265000Y-79642500I0J92500D01*
G01*
X126265000Y-78457500D01*
G75*
G02*
X126357500Y-78365000I92500J0D01*
G01*
X126542500Y-78365000D01*
G75*
G02*
X126635000Y-78457500I0J-92500D01*
G01*
X126635000Y-79642500D01*
G75*
G02*
X126542500Y-79735000I-92500J0D01*
G01*
G37*
G36*
G01*
X127192500Y-79735000D02*
X127007500Y-79735000D01*
G75*
G02*
X126915000Y-79642500I0J92500D01*
G01*
X126915000Y-78457500D01*
G75*
G02*
X127007500Y-78365000I92500J0D01*
G01*
X127192500Y-78365000D01*
G75*
G02*
X127285000Y-78457500I0J-92500D01*
G01*
X127285000Y-79642500D01*
G75*
G02*
X127192500Y-79735000I-92500J0D01*
G01*
G37*
G36*
G01*
X127842500Y-79735000D02*
X127657500Y-79735000D01*
G75*
G02*
X127565000Y-79642500I0J92500D01*
G01*
X127565000Y-78457500D01*
G75*
G02*
X127657500Y-78365000I92500J0D01*
G01*
X127842500Y-78365000D01*
G75*
G02*
X127935000Y-78457500I0J-92500D01*
G01*
X127935000Y-79642500D01*
G75*
G02*
X127842500Y-79735000I-92500J0D01*
G01*
G37*
G36*
G01*
X127842500Y-85635000D02*
X127657500Y-85635000D01*
G75*
G02*
X127565000Y-85542500I0J92500D01*
G01*
X127565000Y-84357500D01*
G75*
G02*
X127657500Y-84265000I92500J0D01*
G01*
X127842500Y-84265000D01*
G75*
G02*
X127935000Y-84357500I0J-92500D01*
G01*
X127935000Y-85542500D01*
G75*
G02*
X127842500Y-85635000I-92500J0D01*
G01*
G37*
G36*
G01*
X127192500Y-85635000D02*
X127007500Y-85635000D01*
G75*
G02*
X126915000Y-85542500I0J92500D01*
G01*
X126915000Y-84357500D01*
G75*
G02*
X127007500Y-84265000I92500J0D01*
G01*
X127192500Y-84265000D01*
G75*
G02*
X127285000Y-84357500I0J-92500D01*
G01*
X127285000Y-85542500D01*
G75*
G02*
X127192500Y-85635000I-92500J0D01*
G01*
G37*
G36*
G01*
X126542500Y-85635000D02*
X126357500Y-85635000D01*
G75*
G02*
X126265000Y-85542500I0J92500D01*
G01*
X126265000Y-84357500D01*
G75*
G02*
X126357500Y-84265000I92500J0D01*
G01*
X126542500Y-84265000D01*
G75*
G02*
X126635000Y-84357500I0J-92500D01*
G01*
X126635000Y-85542500D01*
G75*
G02*
X126542500Y-85635000I-92500J0D01*
G01*
G37*
G36*
G01*
X125892500Y-85635000D02*
X125707500Y-85635000D01*
G75*
G02*
X125615000Y-85542500I0J92500D01*
G01*
X125615000Y-84357500D01*
G75*
G02*
X125707500Y-84265000I92500J0D01*
G01*
X125892500Y-84265000D01*
G75*
G02*
X125985000Y-84357500I0J-92500D01*
G01*
X125985000Y-85542500D01*
G75*
G02*
X125892500Y-85635000I-92500J0D01*
G01*
G37*
G36*
G01*
X125242500Y-85635000D02*
X125057500Y-85635000D01*
G75*
G02*
X124965000Y-85542500I0J92500D01*
G01*
X124965000Y-84357500D01*
G75*
G02*
X125057500Y-84265000I92500J0D01*
G01*
X125242500Y-84265000D01*
G75*
G02*
X125335000Y-84357500I0J-92500D01*
G01*
X125335000Y-85542500D01*
G75*
G02*
X125242500Y-85635000I-92500J0D01*
G01*
G37*
G36*
G01*
X124592500Y-85635000D02*
X124407500Y-85635000D01*
G75*
G02*
X124315000Y-85542500I0J92500D01*
G01*
X124315000Y-84357500D01*
G75*
G02*
X124407500Y-84265000I92500J0D01*
G01*
X124592500Y-84265000D01*
G75*
G02*
X124685000Y-84357500I0J-92500D01*
G01*
X124685000Y-85542500D01*
G75*
G02*
X124592500Y-85635000I-92500J0D01*
G01*
G37*
G36*
G01*
X123942500Y-85635000D02*
X123757500Y-85635000D01*
G75*
G02*
X123665000Y-85542500I0J92500D01*
G01*
X123665000Y-84357500D01*
G75*
G02*
X123757500Y-84265000I92500J0D01*
G01*
X123942500Y-84265000D01*
G75*
G02*
X124035000Y-84357500I0J-92500D01*
G01*
X124035000Y-85542500D01*
G75*
G02*
X123942500Y-85635000I-92500J0D01*
G01*
G37*
G36*
G01*
X123292500Y-85635000D02*
X123107500Y-85635000D01*
G75*
G02*
X123015000Y-85542500I0J92500D01*
G01*
X123015000Y-84357500D01*
G75*
G02*
X123107500Y-84265000I92500J0D01*
G01*
X123292500Y-84265000D01*
G75*
G02*
X123385000Y-84357500I0J-92500D01*
G01*
X123385000Y-85542500D01*
G75*
G02*
X123292500Y-85635000I-92500J0D01*
G01*
G37*
G36*
G01*
X122642500Y-85635000D02*
X122457500Y-85635000D01*
G75*
G02*
X122365000Y-85542500I0J92500D01*
G01*
X122365000Y-84357500D01*
G75*
G02*
X122457500Y-84265000I92500J0D01*
G01*
X122642500Y-84265000D01*
G75*
G02*
X122735000Y-84357500I0J-92500D01*
G01*
X122735000Y-85542500D01*
G75*
G02*
X122642500Y-85635000I-92500J0D01*
G01*
G37*
G36*
G01*
X121992500Y-85635000D02*
X121807500Y-85635000D01*
G75*
G02*
X121715000Y-85542500I0J92500D01*
G01*
X121715000Y-84357500D01*
G75*
G02*
X121807500Y-84265000I92500J0D01*
G01*
X121992500Y-84265000D01*
G75*
G02*
X122085000Y-84357500I0J-92500D01*
G01*
X122085000Y-85542500D01*
G75*
G02*
X121992500Y-85635000I-92500J0D01*
G01*
G37*
G36*
G01*
X109100000Y-74375000D02*
X109100000Y-75225000D01*
G75*
G02*
X108850000Y-75475000I-250000J0D01*
G01*
X108350000Y-75475000D01*
G75*
G02*
X108100000Y-75225000I0J250000D01*
G01*
X108100000Y-74375000D01*
G75*
G02*
X108350000Y-74125000I250000J0D01*
G01*
X108850000Y-74125000D01*
G75*
G02*
X109100000Y-74375000I0J-250000D01*
G01*
G37*
G36*
G01*
X110800000Y-74375000D02*
X110800000Y-75225000D01*
G75*
G02*
X110550000Y-75475000I-250000J0D01*
G01*
X110050000Y-75475000D01*
G75*
G02*
X109800000Y-75225000I0J250000D01*
G01*
X109800000Y-74375000D01*
G75*
G02*
X110050000Y-74125000I250000J0D01*
G01*
X110550000Y-74125000D01*
G75*
G02*
X110800000Y-74375000I0J-250000D01*
G01*
G37*
G36*
G01*
X112175000Y-73750000D02*
X113025000Y-73750000D01*
G75*
G02*
X113275000Y-74000000I0J-250000D01*
G01*
X113275000Y-74500000D01*
G75*
G02*
X113025000Y-74750000I-250000J0D01*
G01*
X112175000Y-74750000D01*
G75*
G02*
X111925000Y-74500000I0J250000D01*
G01*
X111925000Y-74000000D01*
G75*
G02*
X112175000Y-73750000I250000J0D01*
G01*
G37*
G36*
G01*
X112175000Y-72050000D02*
X113025000Y-72050000D01*
G75*
G02*
X113275000Y-72300000I0J-250000D01*
G01*
X113275000Y-72800000D01*
G75*
G02*
X113025000Y-73050000I-250000J0D01*
G01*
X112175000Y-73050000D01*
G75*
G02*
X111925000Y-72800000I0J250000D01*
G01*
X111925000Y-72300000D01*
G75*
G02*
X112175000Y-72050000I250000J0D01*
G01*
G37*
G36*
G01*
X105800000Y-61675000D02*
X105800000Y-62525000D01*
G75*
G02*
X105550000Y-62775000I-250000J0D01*
G01*
X105050000Y-62775000D01*
G75*
G02*
X104800000Y-62525000I0J250000D01*
G01*
X104800000Y-61675000D01*
G75*
G02*
X105050000Y-61425000I250000J0D01*
G01*
X105550000Y-61425000D01*
G75*
G02*
X105800000Y-61675000I0J-250000D01*
G01*
G37*
G36*
G01*
X107500000Y-61675000D02*
X107500000Y-62525000D01*
G75*
G02*
X107250000Y-62775000I-250000J0D01*
G01*
X106750000Y-62775000D01*
G75*
G02*
X106500000Y-62525000I0J250000D01*
G01*
X106500000Y-61675000D01*
G75*
G02*
X106750000Y-61425000I250000J0D01*
G01*
X107250000Y-61425000D01*
G75*
G02*
X107500000Y-61675000I0J-250000D01*
G01*
G37*
G36*
G01*
X110000000Y-62525000D02*
X110000000Y-61675000D01*
G75*
G02*
X110250000Y-61425000I250000J0D01*
G01*
X110750000Y-61425000D01*
G75*
G02*
X111000000Y-61675000I0J-250000D01*
G01*
X111000000Y-62525000D01*
G75*
G02*
X110750000Y-62775000I-250000J0D01*
G01*
X110250000Y-62775000D01*
G75*
G02*
X110000000Y-62525000I0J250000D01*
G01*
G37*
G36*
G01*
X108300000Y-62525000D02*
X108300000Y-61675000D01*
G75*
G02*
X108550000Y-61425000I250000J0D01*
G01*
X109050000Y-61425000D01*
G75*
G02*
X109300000Y-61675000I0J-250000D01*
G01*
X109300000Y-62525000D01*
G75*
G02*
X109050000Y-62775000I-250000J0D01*
G01*
X108550000Y-62775000D01*
G75*
G02*
X108300000Y-62525000I0J250000D01*
G01*
G37*
G36*
G01*
X105800000Y-59475000D02*
X105800000Y-60325000D01*
G75*
G02*
X105550000Y-60575000I-250000J0D01*
G01*
X105050000Y-60575000D01*
G75*
G02*
X104800000Y-60325000I0J250000D01*
G01*
X104800000Y-59475000D01*
G75*
G02*
X105050000Y-59225000I250000J0D01*
G01*
X105550000Y-59225000D01*
G75*
G02*
X105800000Y-59475000I0J-250000D01*
G01*
G37*
G36*
G01*
X107500000Y-59475000D02*
X107500000Y-60325000D01*
G75*
G02*
X107250000Y-60575000I-250000J0D01*
G01*
X106750000Y-60575000D01*
G75*
G02*
X106500000Y-60325000I0J250000D01*
G01*
X106500000Y-59475000D01*
G75*
G02*
X106750000Y-59225000I250000J0D01*
G01*
X107250000Y-59225000D01*
G75*
G02*
X107500000Y-59475000I0J-250000D01*
G01*
G37*
G36*
G01*
X110000000Y-60325000D02*
X110000000Y-59475000D01*
G75*
G02*
X110250000Y-59225000I250000J0D01*
G01*
X110750000Y-59225000D01*
G75*
G02*
X111000000Y-59475000I0J-250000D01*
G01*
X111000000Y-60325000D01*
G75*
G02*
X110750000Y-60575000I-250000J0D01*
G01*
X110250000Y-60575000D01*
G75*
G02*
X110000000Y-60325000I0J250000D01*
G01*
G37*
G36*
G01*
X108300000Y-60325000D02*
X108300000Y-59475000D01*
G75*
G02*
X108550000Y-59225000I250000J0D01*
G01*
X109050000Y-59225000D01*
G75*
G02*
X109300000Y-59475000I0J-250000D01*
G01*
X109300000Y-60325000D01*
G75*
G02*
X109050000Y-60575000I-250000J0D01*
G01*
X108550000Y-60575000D01*
G75*
G02*
X108300000Y-60325000I0J250000D01*
G01*
G37*
G36*
G01*
X115525000Y-81200000D02*
X116075000Y-81200000D01*
G75*
G02*
X116225000Y-81350000I0J-150000D01*
G01*
X116225000Y-81650000D01*
G75*
G02*
X116075000Y-81800000I-150000J0D01*
G01*
X115525000Y-81800000D01*
G75*
G02*
X115375000Y-81650000I0J150000D01*
G01*
X115375000Y-81350000D01*
G75*
G02*
X115525000Y-81200000I150000J0D01*
G01*
G37*
G36*
G01*
X115525000Y-82800000D02*
X116075000Y-82800000D01*
G75*
G02*
X116225000Y-82950000I0J-150000D01*
G01*
X116225000Y-83250000D01*
G75*
G02*
X116075000Y-83400000I-150000J0D01*
G01*
X115525000Y-83400000D01*
G75*
G02*
X115375000Y-83250000I0J150000D01*
G01*
X115375000Y-82950000D01*
G75*
G02*
X115525000Y-82800000I150000J0D01*
G01*
G37*
G36*
G01*
X120500000Y-77075000D02*
X120500000Y-77625000D01*
G75*
G02*
X120350000Y-77775000I-150000J0D01*
G01*
X120050000Y-77775000D01*
G75*
G02*
X119900000Y-77625000I0J150000D01*
G01*
X119900000Y-77075000D01*
G75*
G02*
X120050000Y-76925000I150000J0D01*
G01*
X120350000Y-76925000D01*
G75*
G02*
X120500000Y-77075000I0J-150000D01*
G01*
G37*
G36*
G01*
X118900000Y-77075000D02*
X118900000Y-77625000D01*
G75*
G02*
X118750000Y-77775000I-150000J0D01*
G01*
X118450000Y-77775000D01*
G75*
G02*
X118300000Y-77625000I0J150000D01*
G01*
X118300000Y-77075000D01*
G75*
G02*
X118450000Y-76925000I150000J0D01*
G01*
X118750000Y-76925000D01*
G75*
G02*
X118900000Y-77075000I0J-150000D01*
G01*
G37*
G36*
G01*
X120500000Y-75575000D02*
X120500000Y-76125000D01*
G75*
G02*
X120350000Y-76275000I-150000J0D01*
G01*
X120050000Y-76275000D01*
G75*
G02*
X119900000Y-76125000I0J150000D01*
G01*
X119900000Y-75575000D01*
G75*
G02*
X120050000Y-75425000I150000J0D01*
G01*
X120350000Y-75425000D01*
G75*
G02*
X120500000Y-75575000I0J-150000D01*
G01*
G37*
G36*
G01*
X118900000Y-75575000D02*
X118900000Y-76125000D01*
G75*
G02*
X118750000Y-76275000I-150000J0D01*
G01*
X118450000Y-76275000D01*
G75*
G02*
X118300000Y-76125000I0J150000D01*
G01*
X118300000Y-75575000D01*
G75*
G02*
X118450000Y-75425000I150000J0D01*
G01*
X118750000Y-75425000D01*
G75*
G02*
X118900000Y-75575000I0J-150000D01*
G01*
G37*
G36*
G01*
X140925000Y-52500000D02*
X141475000Y-52500000D01*
G75*
G02*
X141625000Y-52650000I0J-150000D01*
G01*
X141625000Y-52950000D01*
G75*
G02*
X141475000Y-53100000I-150000J0D01*
G01*
X140925000Y-53100000D01*
G75*
G02*
X140775000Y-52950000I0J150000D01*
G01*
X140775000Y-52650000D01*
G75*
G02*
X140925000Y-52500000I150000J0D01*
G01*
G37*
G36*
G01*
X140925000Y-54100000D02*
X141475000Y-54100000D01*
G75*
G02*
X141625000Y-54250000I0J-150000D01*
G01*
X141625000Y-54550000D01*
G75*
G02*
X141475000Y-54700000I-150000J0D01*
G01*
X140925000Y-54700000D01*
G75*
G02*
X140775000Y-54550000I0J150000D01*
G01*
X140775000Y-54250000D01*
G75*
G02*
X140925000Y-54100000I150000J0D01*
G01*
G37*
G36*
G01*
X138550000Y-57225000D02*
X138550000Y-57775000D01*
G75*
G02*
X138400000Y-57925000I-150000J0D01*
G01*
X138100000Y-57925000D01*
G75*
G02*
X137950000Y-57775000I0J150000D01*
G01*
X137950000Y-57225000D01*
G75*
G02*
X138100000Y-57075000I150000J0D01*
G01*
X138400000Y-57075000D01*
G75*
G02*
X138550000Y-57225000I0J-150000D01*
G01*
G37*
G36*
G01*
X136950000Y-57225000D02*
X136950000Y-57775000D01*
G75*
G02*
X136800000Y-57925000I-150000J0D01*
G01*
X136500000Y-57925000D01*
G75*
G02*
X136350000Y-57775000I0J150000D01*
G01*
X136350000Y-57225000D01*
G75*
G02*
X136500000Y-57075000I150000J0D01*
G01*
X136800000Y-57075000D01*
G75*
G02*
X136950000Y-57225000I0J-150000D01*
G01*
G37*
G36*
G01*
X138550000Y-54225000D02*
X138550000Y-54775000D01*
G75*
G02*
X138400000Y-54925000I-150000J0D01*
G01*
X138100000Y-54925000D01*
G75*
G02*
X137950000Y-54775000I0J150000D01*
G01*
X137950000Y-54225000D01*
G75*
G02*
X138100000Y-54075000I150000J0D01*
G01*
X138400000Y-54075000D01*
G75*
G02*
X138550000Y-54225000I0J-150000D01*
G01*
G37*
G36*
G01*
X136950000Y-54225000D02*
X136950000Y-54775000D01*
G75*
G02*
X136800000Y-54925000I-150000J0D01*
G01*
X136500000Y-54925000D01*
G75*
G02*
X136350000Y-54775000I0J150000D01*
G01*
X136350000Y-54225000D01*
G75*
G02*
X136500000Y-54075000I150000J0D01*
G01*
X136800000Y-54075000D01*
G75*
G02*
X136950000Y-54225000I0J-150000D01*
G01*
G37*
G36*
G01*
X138550000Y-55725000D02*
X138550000Y-56275000D01*
G75*
G02*
X138400000Y-56425000I-150000J0D01*
G01*
X138100000Y-56425000D01*
G75*
G02*
X137950000Y-56275000I0J150000D01*
G01*
X137950000Y-55725000D01*
G75*
G02*
X138100000Y-55575000I150000J0D01*
G01*
X138400000Y-55575000D01*
G75*
G02*
X138550000Y-55725000I0J-150000D01*
G01*
G37*
G36*
G01*
X136950000Y-55725000D02*
X136950000Y-56275000D01*
G75*
G02*
X136800000Y-56425000I-150000J0D01*
G01*
X136500000Y-56425000D01*
G75*
G02*
X136350000Y-56275000I0J150000D01*
G01*
X136350000Y-55725000D01*
G75*
G02*
X136500000Y-55575000I150000J0D01*
G01*
X136800000Y-55575000D01*
G75*
G02*
X136950000Y-55725000I0J-150000D01*
G01*
G37*
G36*
G01*
X138550000Y-52725000D02*
X138550000Y-53275000D01*
G75*
G02*
X138400000Y-53425000I-150000J0D01*
G01*
X138100000Y-53425000D01*
G75*
G02*
X137950000Y-53275000I0J150000D01*
G01*
X137950000Y-52725000D01*
G75*
G02*
X138100000Y-52575000I150000J0D01*
G01*
X138400000Y-52575000D01*
G75*
G02*
X138550000Y-52725000I0J-150000D01*
G01*
G37*
G36*
G01*
X136950000Y-52725000D02*
X136950000Y-53275000D01*
G75*
G02*
X136800000Y-53425000I-150000J0D01*
G01*
X136500000Y-53425000D01*
G75*
G02*
X136350000Y-53275000I0J150000D01*
G01*
X136350000Y-52725000D01*
G75*
G02*
X136500000Y-52575000I150000J0D01*
G01*
X136800000Y-52575000D01*
G75*
G02*
X136950000Y-52725000I0J-150000D01*
G01*
G37*
G36*
G01*
X107231000Y-41169000D02*
X107231000Y-40619000D01*
G75*
G02*
X107381000Y-40469000I150000J0D01*
G01*
X107681000Y-40469000D01*
G75*
G02*
X107831000Y-40619000I0J-150000D01*
G01*
X107831000Y-41169000D01*
G75*
G02*
X107681000Y-41319000I-150000J0D01*
G01*
X107381000Y-41319000D01*
G75*
G02*
X107231000Y-41169000I0J150000D01*
G01*
G37*
G36*
G01*
X108831000Y-41169000D02*
X108831000Y-40619000D01*
G75*
G02*
X108981000Y-40469000I150000J0D01*
G01*
X109281000Y-40469000D01*
G75*
G02*
X109431000Y-40619000I0J-150000D01*
G01*
X109431000Y-41169000D01*
G75*
G02*
X109281000Y-41319000I-150000J0D01*
G01*
X108981000Y-41319000D01*
G75*
G02*
X108831000Y-41169000I0J150000D01*
G01*
G37*
G36*
G01*
X112949000Y-40619000D02*
X112949000Y-41169000D01*
G75*
G02*
X112799000Y-41319000I-150000J0D01*
G01*
X112499000Y-41319000D01*
G75*
G02*
X112349000Y-41169000I0J150000D01*
G01*
X112349000Y-40619000D01*
G75*
G02*
X112499000Y-40469000I150000J0D01*
G01*
X112799000Y-40469000D01*
G75*
G02*
X112949000Y-40619000I0J-150000D01*
G01*
G37*
G36*
G01*
X111349000Y-40619000D02*
X111349000Y-41169000D01*
G75*
G02*
X111199000Y-41319000I-150000J0D01*
G01*
X110899000Y-41319000D01*
G75*
G02*
X110749000Y-41169000I0J150000D01*
G01*
X110749000Y-40619000D01*
G75*
G02*
X110899000Y-40469000I150000J0D01*
G01*
X111199000Y-40469000D01*
G75*
G02*
X111349000Y-40619000I0J-150000D01*
G01*
G37*
G36*
G01*
X123892500Y-41235000D02*
X123707500Y-41235000D01*
G75*
G02*
X123615000Y-41142500I0J92500D01*
G01*
X123615000Y-39957500D01*
G75*
G02*
X123707500Y-39865000I92500J0D01*
G01*
X123892500Y-39865000D01*
G75*
G02*
X123985000Y-39957500I0J-92500D01*
G01*
X123985000Y-41142500D01*
G75*
G02*
X123892500Y-41235000I-92500J0D01*
G01*
G37*
G36*
G01*
X124542500Y-41235000D02*
X124357500Y-41235000D01*
G75*
G02*
X124265000Y-41142500I0J92500D01*
G01*
X124265000Y-39957500D01*
G75*
G02*
X124357500Y-39865000I92500J0D01*
G01*
X124542500Y-39865000D01*
G75*
G02*
X124635000Y-39957500I0J-92500D01*
G01*
X124635000Y-41142500D01*
G75*
G02*
X124542500Y-41235000I-92500J0D01*
G01*
G37*
G36*
G01*
X125192500Y-41235000D02*
X125007500Y-41235000D01*
G75*
G02*
X124915000Y-41142500I0J92500D01*
G01*
X124915000Y-39957500D01*
G75*
G02*
X125007500Y-39865000I92500J0D01*
G01*
X125192500Y-39865000D01*
G75*
G02*
X125285000Y-39957500I0J-92500D01*
G01*
X125285000Y-41142500D01*
G75*
G02*
X125192500Y-41235000I-92500J0D01*
G01*
G37*
G36*
G01*
X125842500Y-41235000D02*
X125657500Y-41235000D01*
G75*
G02*
X125565000Y-41142500I0J92500D01*
G01*
X125565000Y-39957500D01*
G75*
G02*
X125657500Y-39865000I92500J0D01*
G01*
X125842500Y-39865000D01*
G75*
G02*
X125935000Y-39957500I0J-92500D01*
G01*
X125935000Y-41142500D01*
G75*
G02*
X125842500Y-41235000I-92500J0D01*
G01*
G37*
G36*
G01*
X126492500Y-41235000D02*
X126307500Y-41235000D01*
G75*
G02*
X126215000Y-41142500I0J92500D01*
G01*
X126215000Y-39957500D01*
G75*
G02*
X126307500Y-39865000I92500J0D01*
G01*
X126492500Y-39865000D01*
G75*
G02*
X126585000Y-39957500I0J-92500D01*
G01*
X126585000Y-41142500D01*
G75*
G02*
X126492500Y-41235000I-92500J0D01*
G01*
G37*
G36*
G01*
X127142500Y-41235000D02*
X126957500Y-41235000D01*
G75*
G02*
X126865000Y-41142500I0J92500D01*
G01*
X126865000Y-39957500D01*
G75*
G02*
X126957500Y-39865000I92500J0D01*
G01*
X127142500Y-39865000D01*
G75*
G02*
X127235000Y-39957500I0J-92500D01*
G01*
X127235000Y-41142500D01*
G75*
G02*
X127142500Y-41235000I-92500J0D01*
G01*
G37*
G36*
G01*
X127792500Y-41235000D02*
X127607500Y-41235000D01*
G75*
G02*
X127515000Y-41142500I0J92500D01*
G01*
X127515000Y-39957500D01*
G75*
G02*
X127607500Y-39865000I92500J0D01*
G01*
X127792500Y-39865000D01*
G75*
G02*
X127885000Y-39957500I0J-92500D01*
G01*
X127885000Y-41142500D01*
G75*
G02*
X127792500Y-41235000I-92500J0D01*
G01*
G37*
G36*
G01*
X127792500Y-47135000D02*
X127607500Y-47135000D01*
G75*
G02*
X127515000Y-47042500I0J92500D01*
G01*
X127515000Y-45857500D01*
G75*
G02*
X127607500Y-45765000I92500J0D01*
G01*
X127792500Y-45765000D01*
G75*
G02*
X127885000Y-45857500I0J-92500D01*
G01*
X127885000Y-47042500D01*
G75*
G02*
X127792500Y-47135000I-92500J0D01*
G01*
G37*
G36*
G01*
X127142500Y-47135000D02*
X126957500Y-47135000D01*
G75*
G02*
X126865000Y-47042500I0J92500D01*
G01*
X126865000Y-45857500D01*
G75*
G02*
X126957500Y-45765000I92500J0D01*
G01*
X127142500Y-45765000D01*
G75*
G02*
X127235000Y-45857500I0J-92500D01*
G01*
X127235000Y-47042500D01*
G75*
G02*
X127142500Y-47135000I-92500J0D01*
G01*
G37*
G36*
G01*
X126492500Y-47135000D02*
X126307500Y-47135000D01*
G75*
G02*
X126215000Y-47042500I0J92500D01*
G01*
X126215000Y-45857500D01*
G75*
G02*
X126307500Y-45765000I92500J0D01*
G01*
X126492500Y-45765000D01*
G75*
G02*
X126585000Y-45857500I0J-92500D01*
G01*
X126585000Y-47042500D01*
G75*
G02*
X126492500Y-47135000I-92500J0D01*
G01*
G37*
G36*
G01*
X125842500Y-47135000D02*
X125657500Y-47135000D01*
G75*
G02*
X125565000Y-47042500I0J92500D01*
G01*
X125565000Y-45857500D01*
G75*
G02*
X125657500Y-45765000I92500J0D01*
G01*
X125842500Y-45765000D01*
G75*
G02*
X125935000Y-45857500I0J-92500D01*
G01*
X125935000Y-47042500D01*
G75*
G02*
X125842500Y-47135000I-92500J0D01*
G01*
G37*
G36*
G01*
X125192500Y-47135000D02*
X125007500Y-47135000D01*
G75*
G02*
X124915000Y-47042500I0J92500D01*
G01*
X124915000Y-45857500D01*
G75*
G02*
X125007500Y-45765000I92500J0D01*
G01*
X125192500Y-45765000D01*
G75*
G02*
X125285000Y-45857500I0J-92500D01*
G01*
X125285000Y-47042500D01*
G75*
G02*
X125192500Y-47135000I-92500J0D01*
G01*
G37*
G36*
G01*
X124542500Y-47135000D02*
X124357500Y-47135000D01*
G75*
G02*
X124265000Y-47042500I0J92500D01*
G01*
X124265000Y-45857500D01*
G75*
G02*
X124357500Y-45765000I92500J0D01*
G01*
X124542500Y-45765000D01*
G75*
G02*
X124635000Y-45857500I0J-92500D01*
G01*
X124635000Y-47042500D01*
G75*
G02*
X124542500Y-47135000I-92500J0D01*
G01*
G37*
G36*
G01*
X123892500Y-47135000D02*
X123707500Y-47135000D01*
G75*
G02*
X123615000Y-47042500I0J92500D01*
G01*
X123615000Y-45857500D01*
G75*
G02*
X123707500Y-45765000I92500J0D01*
G01*
X123892500Y-45765000D01*
G75*
G02*
X123985000Y-45857500I0J-92500D01*
G01*
X123985000Y-47042500D01*
G75*
G02*
X123892500Y-47135000I-92500J0D01*
G01*
G37*
G36*
G01*
X121040000Y-44380000D02*
X121040000Y-44220000D01*
G75*
G02*
X121120000Y-44140000I80000J0D01*
G01*
X121880000Y-44140000D01*
G75*
G02*
X121960000Y-44220000I0J-80000D01*
G01*
X121960000Y-44380000D01*
G75*
G02*
X121880000Y-44460000I-80000J0D01*
G01*
X121120000Y-44460000D01*
G75*
G02*
X121040000Y-44380000I0J80000D01*
G01*
G37*
G36*
G01*
X121040000Y-45680000D02*
X121040000Y-45520000D01*
G75*
G02*
X121120000Y-45440000I80000J0D01*
G01*
X121880000Y-45440000D01*
G75*
G02*
X121960000Y-45520000I0J-80000D01*
G01*
X121960000Y-45680000D01*
G75*
G02*
X121880000Y-45760000I-80000J0D01*
G01*
X121120000Y-45760000D01*
G75*
G02*
X121040000Y-45680000I0J80000D01*
G01*
G37*
G36*
G01*
X119340000Y-45030000D02*
X119340000Y-44870000D01*
G75*
G02*
X119420000Y-44790000I80000J0D01*
G01*
X120180000Y-44790000D01*
G75*
G02*
X120260000Y-44870000I0J-80000D01*
G01*
X120260000Y-45030000D01*
G75*
G02*
X120180000Y-45110000I-80000J0D01*
G01*
X119420000Y-45110000D01*
G75*
G02*
X119340000Y-45030000I0J80000D01*
G01*
G37*
G36*
G01*
X119340000Y-44380000D02*
X119340000Y-44220000D01*
G75*
G02*
X119420000Y-44140000I80000J0D01*
G01*
X120180000Y-44140000D01*
G75*
G02*
X120260000Y-44220000I0J-80000D01*
G01*
X120260000Y-44380000D01*
G75*
G02*
X120180000Y-44460000I-80000J0D01*
G01*
X119420000Y-44460000D01*
G75*
G02*
X119340000Y-44380000I0J80000D01*
G01*
G37*
G36*
G01*
X119340000Y-45680000D02*
X119340000Y-45520000D01*
G75*
G02*
X119420000Y-45440000I80000J0D01*
G01*
X120180000Y-45440000D01*
G75*
G02*
X120260000Y-45520000I0J-80000D01*
G01*
X120260000Y-45680000D01*
G75*
G02*
X120180000Y-45760000I-80000J0D01*
G01*
X119420000Y-45760000D01*
G75*
G02*
X119340000Y-45680000I0J80000D01*
G01*
G37*
G36*
G01*
X144440000Y-39930000D02*
X144440000Y-39770000D01*
G75*
G02*
X144520000Y-39690000I80000J0D01*
G01*
X145280000Y-39690000D01*
G75*
G02*
X145360000Y-39770000I0J-80000D01*
G01*
X145360000Y-39930000D01*
G75*
G02*
X145280000Y-40010000I-80000J0D01*
G01*
X144520000Y-40010000D01*
G75*
G02*
X144440000Y-39930000I0J80000D01*
G01*
G37*
G36*
G01*
X144440000Y-41230000D02*
X144440000Y-41070000D01*
G75*
G02*
X144520000Y-40990000I80000J0D01*
G01*
X145280000Y-40990000D01*
G75*
G02*
X145360000Y-41070000I0J-80000D01*
G01*
X145360000Y-41230000D01*
G75*
G02*
X145280000Y-41310000I-80000J0D01*
G01*
X144520000Y-41310000D01*
G75*
G02*
X144440000Y-41230000I0J80000D01*
G01*
G37*
G36*
G01*
X142740000Y-40580000D02*
X142740000Y-40420000D01*
G75*
G02*
X142820000Y-40340000I80000J0D01*
G01*
X143580000Y-40340000D01*
G75*
G02*
X143660000Y-40420000I0J-80000D01*
G01*
X143660000Y-40580000D01*
G75*
G02*
X143580000Y-40660000I-80000J0D01*
G01*
X142820000Y-40660000D01*
G75*
G02*
X142740000Y-40580000I0J80000D01*
G01*
G37*
G36*
G01*
X142740000Y-39930000D02*
X142740000Y-39770000D01*
G75*
G02*
X142820000Y-39690000I80000J0D01*
G01*
X143580000Y-39690000D01*
G75*
G02*
X143660000Y-39770000I0J-80000D01*
G01*
X143660000Y-39930000D01*
G75*
G02*
X143580000Y-40010000I-80000J0D01*
G01*
X142820000Y-40010000D01*
G75*
G02*
X142740000Y-39930000I0J80000D01*
G01*
G37*
G36*
G01*
X142740000Y-41230000D02*
X142740000Y-41070000D01*
G75*
G02*
X142820000Y-40990000I80000J0D01*
G01*
X143580000Y-40990000D01*
G75*
G02*
X143660000Y-41070000I0J-80000D01*
G01*
X143660000Y-41230000D01*
G75*
G02*
X143580000Y-41310000I-80000J0D01*
G01*
X142820000Y-41310000D01*
G75*
G02*
X142740000Y-41230000I0J80000D01*
G01*
G37*
G36*
G01*
X139675000Y-40150000D02*
X140225000Y-40150000D01*
G75*
G02*
X140375000Y-40300000I0J-150000D01*
G01*
X140375000Y-40600000D01*
G75*
G02*
X140225000Y-40750000I-150000J0D01*
G01*
X139675000Y-40750000D01*
G75*
G02*
X139525000Y-40600000I0J150000D01*
G01*
X139525000Y-40300000D01*
G75*
G02*
X139675000Y-40150000I150000J0D01*
G01*
G37*
G36*
G01*
X139675000Y-41750000D02*
X140225000Y-41750000D01*
G75*
G02*
X140375000Y-41900000I0J-150000D01*
G01*
X140375000Y-42200000D01*
G75*
G02*
X140225000Y-42350000I-150000J0D01*
G01*
X139675000Y-42350000D01*
G75*
G02*
X139525000Y-42200000I0J150000D01*
G01*
X139525000Y-41900000D01*
G75*
G02*
X139675000Y-41750000I150000J0D01*
G01*
G37*
G36*
G01*
X107125000Y-49450000D02*
X106175000Y-49450000D01*
G75*
G02*
X105700000Y-48975000I0J475000D01*
G01*
X105700000Y-45525000D01*
G75*
G02*
X106175000Y-45050000I475000J0D01*
G01*
X107125000Y-45050000D01*
G75*
G02*
X107600000Y-45525000I0J-475000D01*
G01*
X107600000Y-48975000D01*
G75*
G02*
X107125000Y-49450000I-475000J0D01*
G01*
G37*
G36*
G01*
X107125000Y-57950000D02*
X106175000Y-57950000D01*
G75*
G02*
X105700000Y-57475000I0J475000D01*
G01*
X105700000Y-54025000D01*
G75*
G02*
X106175000Y-53550000I475000J0D01*
G01*
X107125000Y-53550000D01*
G75*
G02*
X107600000Y-54025000I0J-475000D01*
G01*
X107600000Y-57475000D01*
G75*
G02*
X107125000Y-57950000I-475000J0D01*
G01*
G37*
G36*
G01*
X119876500Y-41303000D02*
X119391500Y-41303000D01*
G75*
G02*
X119199000Y-41110500I0J192500D01*
G01*
X119199000Y-40725500D01*
G75*
G02*
X119391500Y-40533000I192500J0D01*
G01*
X119876500Y-40533000D01*
G75*
G02*
X120069000Y-40725500I0J-192500D01*
G01*
X120069000Y-41110500D01*
G75*
G02*
X119876500Y-41303000I-192500J0D01*
G01*
G37*
G36*
G01*
X119876500Y-42803000D02*
X119391500Y-42803000D01*
G75*
G02*
X119199000Y-42610500I0J192500D01*
G01*
X119199000Y-42225500D01*
G75*
G02*
X119391500Y-42033000I192500J0D01*
G01*
X119876500Y-42033000D01*
G75*
G02*
X120069000Y-42225500I0J-192500D01*
G01*
X120069000Y-42610500D01*
G75*
G02*
X119876500Y-42803000I-192500J0D01*
G01*
G37*
G36*
G01*
X146407500Y-40965000D02*
X146892500Y-40965000D01*
G75*
G02*
X147085000Y-41157500I0J-192500D01*
G01*
X147085000Y-41542500D01*
G75*
G02*
X146892500Y-41735000I-192500J0D01*
G01*
X146407500Y-41735000D01*
G75*
G02*
X146215000Y-41542500I0J192500D01*
G01*
X146215000Y-41157500D01*
G75*
G02*
X146407500Y-40965000I192500J0D01*
G01*
G37*
G36*
G01*
X146407500Y-39465000D02*
X146892500Y-39465000D01*
G75*
G02*
X147085000Y-39657500I0J-192500D01*
G01*
X147085000Y-40042500D01*
G75*
G02*
X146892500Y-40235000I-192500J0D01*
G01*
X146407500Y-40235000D01*
G75*
G02*
X146215000Y-40042500I0J192500D01*
G01*
X146215000Y-39657500D01*
G75*
G02*
X146407500Y-39465000I192500J0D01*
G01*
G37*
G36*
G01*
X147635000Y-48407500D02*
X147635000Y-48892500D01*
G75*
G02*
X147442500Y-49085000I-192500J0D01*
G01*
X147057500Y-49085000D01*
G75*
G02*
X146865000Y-48892500I0J192500D01*
G01*
X146865000Y-48407500D01*
G75*
G02*
X147057500Y-48215000I192500J0D01*
G01*
X147442500Y-48215000D01*
G75*
G02*
X147635000Y-48407500I0J-192500D01*
G01*
G37*
G36*
G01*
X149135000Y-48407500D02*
X149135000Y-48892500D01*
G75*
G02*
X148942500Y-49085000I-192500J0D01*
G01*
X148557500Y-49085000D01*
G75*
G02*
X148365000Y-48892500I0J192500D01*
G01*
X148365000Y-48407500D01*
G75*
G02*
X148557500Y-48215000I192500J0D01*
G01*
X148942500Y-48215000D01*
G75*
G02*
X149135000Y-48407500I0J-192500D01*
G01*
G37*
G36*
G01*
X129007500Y-43615000D02*
X129492500Y-43615000D01*
G75*
G02*
X129685000Y-43807500I0J-192500D01*
G01*
X129685000Y-44192500D01*
G75*
G02*
X129492500Y-44385000I-192500J0D01*
G01*
X129007500Y-44385000D01*
G75*
G02*
X128815000Y-44192500I0J192500D01*
G01*
X128815000Y-43807500D01*
G75*
G02*
X129007500Y-43615000I192500J0D01*
G01*
G37*
G36*
G01*
X129007500Y-45115000D02*
X129492500Y-45115000D01*
G75*
G02*
X129685000Y-45307500I0J-192500D01*
G01*
X129685000Y-45692500D01*
G75*
G02*
X129492500Y-45885000I-192500J0D01*
G01*
X129007500Y-45885000D01*
G75*
G02*
X128815000Y-45692500I0J192500D01*
G01*
X128815000Y-45307500D01*
G75*
G02*
X129007500Y-45115000I192500J0D01*
G01*
G37*
G36*
G01*
X111485000Y-39057500D02*
X111485000Y-39542500D01*
G75*
G02*
X111292500Y-39735000I-192500J0D01*
G01*
X110907500Y-39735000D01*
G75*
G02*
X110715000Y-39542500I0J192500D01*
G01*
X110715000Y-39057500D01*
G75*
G02*
X110907500Y-38865000I192500J0D01*
G01*
X111292500Y-38865000D01*
G75*
G02*
X111485000Y-39057500I0J-192500D01*
G01*
G37*
G36*
G01*
X112985000Y-39057500D02*
X112985000Y-39542500D01*
G75*
G02*
X112792500Y-39735000I-192500J0D01*
G01*
X112407500Y-39735000D01*
G75*
G02*
X112215000Y-39542500I0J192500D01*
G01*
X112215000Y-39057500D01*
G75*
G02*
X112407500Y-38865000I192500J0D01*
G01*
X112792500Y-38865000D01*
G75*
G02*
X112985000Y-39057500I0J-192500D01*
G01*
G37*
G36*
G01*
X135950000Y-44075000D02*
X135950000Y-44625000D01*
G75*
G02*
X135800000Y-44775000I-150000J0D01*
G01*
X135500000Y-44775000D01*
G75*
G02*
X135350000Y-44625000I0J150000D01*
G01*
X135350000Y-44075000D01*
G75*
G02*
X135500000Y-43925000I150000J0D01*
G01*
X135800000Y-43925000D01*
G75*
G02*
X135950000Y-44075000I0J-150000D01*
G01*
G37*
G36*
G01*
X137550000Y-44075000D02*
X137550000Y-44625000D01*
G75*
G02*
X137400000Y-44775000I-150000J0D01*
G01*
X137100000Y-44775000D01*
G75*
G02*
X136950000Y-44625000I0J150000D01*
G01*
X136950000Y-44075000D01*
G75*
G02*
X137100000Y-43925000I150000J0D01*
G01*
X137400000Y-43925000D01*
G75*
G02*
X137550000Y-44075000I0J-150000D01*
G01*
G37*
M02*
