G04 #@! TF.GenerationSoftware,KiCad,Pcbnew,(5.1.10-1-10_14)*
G04 #@! TF.CreationDate,2022-01-15T10:16:02-05:00*
G04 #@! TF.ProjectId,GW4302,47573433-3032-42e6-9b69-6361645f7063,1.2*
G04 #@! TF.SameCoordinates,Original*
G04 #@! TF.FileFunction,Other,Fab,Top*
%FSLAX46Y46*%
G04 Gerber Fmt 4.6, Leading zero omitted, Abs format (unit mm)*
G04 Created by KiCad (PCBNEW (5.1.10-1-10_14)) date 2022-01-15 10:16:02*
%MOMM*%
%LPD*%
G01*
G04 APERTURE LIST*
%ADD10C,0.100000*%
%ADD11C,0.150000*%
%ADD12C,0.127000*%
%ADD13C,0.063500*%
%ADD14C,0.031750*%
%ADD15C,0.203200*%
%ADD16C,0.095250*%
%ADD17C,0.047625*%
G04 APERTURE END LIST*
D10*
X141050000Y-42050000D02*
X141050000Y-40450000D01*
X141850000Y-42050000D02*
X141050000Y-42050000D01*
X141850000Y-40450000D02*
X141850000Y-42050000D01*
X141050000Y-40450000D02*
X141850000Y-40450000D01*
X121300000Y-40850000D02*
X122100000Y-40850000D01*
X122100000Y-40850000D02*
X122100000Y-42450000D01*
X122100000Y-42450000D02*
X121300000Y-42450000D01*
X121300000Y-42450000D02*
X121300000Y-40850000D01*
X153080000Y-75110000D02*
X143920000Y-75110000D01*
X143920000Y-75110000D02*
X143920000Y-52890000D01*
X143920000Y-52890000D02*
X154080000Y-52890000D01*
X154080000Y-52890000D02*
X154080000Y-74110000D01*
X153080000Y-75110000D02*
X154080000Y-74110000D01*
X145300000Y-44000000D02*
X144500000Y-44000000D01*
X144500000Y-44000000D02*
X144500000Y-42400000D01*
X144500000Y-42400000D02*
X145300000Y-42400000D01*
X145300000Y-42400000D02*
X145300000Y-44000000D01*
X116000000Y-58300000D02*
X129000000Y-58300000D01*
X129000000Y-58300000D02*
X129000000Y-72300000D01*
X129000000Y-72300000D02*
X115000000Y-72300000D01*
X115000000Y-72300000D02*
X115000000Y-59300000D01*
X115000000Y-59300000D02*
X116000000Y-58300000D01*
X108200000Y-44400000D02*
X106600000Y-44400000D01*
X108200000Y-43600000D02*
X108200000Y-44400000D01*
X106600000Y-43600000D02*
X108200000Y-43600000D01*
X106600000Y-44400000D02*
X106600000Y-43600000D01*
X109550000Y-57300000D02*
X109550000Y-55700000D01*
X110350000Y-57300000D02*
X109550000Y-57300000D01*
X110350000Y-55700000D02*
X110350000Y-57300000D01*
X109550000Y-55700000D02*
X110350000Y-55700000D01*
X148800000Y-46750000D02*
X148800000Y-47550000D01*
X148800000Y-47550000D02*
X147200000Y-47550000D01*
X147200000Y-47550000D02*
X147200000Y-46750000D01*
X147200000Y-46750000D02*
X148800000Y-46750000D01*
X146200000Y-47200000D02*
X145400000Y-47200000D01*
X145400000Y-47200000D02*
X145400000Y-45600000D01*
X145400000Y-45600000D02*
X146200000Y-45600000D01*
X146200000Y-45600000D02*
X146200000Y-47200000D01*
X148800000Y-46050000D02*
X147200000Y-46050000D01*
X148800000Y-45250000D02*
X148800000Y-46050000D01*
X147200000Y-45250000D02*
X148800000Y-45250000D01*
X147200000Y-46050000D02*
X147200000Y-45250000D01*
X109772500Y-47778000D02*
X109772500Y-46178000D01*
X110572500Y-47778000D02*
X109772500Y-47778000D01*
X110572500Y-46178000D02*
X110572500Y-47778000D01*
X109772500Y-46178000D02*
X110572500Y-46178000D01*
X115861500Y-40367000D02*
X117461500Y-40367000D01*
X115861500Y-41167000D02*
X115861500Y-40367000D01*
X117461500Y-41167000D02*
X115861500Y-41167000D01*
X117461500Y-40367000D02*
X117461500Y-41167000D01*
X157200000Y-71250000D02*
X157200000Y-72850000D01*
X156400000Y-71250000D02*
X157200000Y-71250000D01*
X156400000Y-72850000D02*
X156400000Y-71250000D01*
X157200000Y-72850000D02*
X156400000Y-72850000D01*
X156400000Y-69550000D02*
X156400000Y-67950000D01*
X157200000Y-69550000D02*
X156400000Y-69550000D01*
X157200000Y-67950000D02*
X157200000Y-69550000D01*
X156400000Y-67950000D02*
X157200000Y-67950000D01*
X156400000Y-65600000D02*
X156400000Y-64000000D01*
X157200000Y-65600000D02*
X156400000Y-65600000D01*
X157200000Y-64000000D02*
X157200000Y-65600000D01*
X156400000Y-64000000D02*
X157200000Y-64000000D01*
X156400000Y-55150000D02*
X156400000Y-53550000D01*
X157200000Y-55150000D02*
X156400000Y-55150000D01*
X157200000Y-53550000D02*
X157200000Y-55150000D01*
X156400000Y-53550000D02*
X157200000Y-53550000D01*
X141600000Y-64000000D02*
X141600000Y-65600000D01*
X140800000Y-64000000D02*
X141600000Y-64000000D01*
X140800000Y-65600000D02*
X140800000Y-64000000D01*
X141600000Y-65600000D02*
X140800000Y-65600000D01*
X140800000Y-71950000D02*
X140800000Y-70350000D01*
X141600000Y-71950000D02*
X140800000Y-71950000D01*
X141600000Y-70350000D02*
X141600000Y-71950000D01*
X140800000Y-70350000D02*
X141600000Y-70350000D01*
X112700000Y-69250000D02*
X112700000Y-70850000D01*
X111900000Y-69250000D02*
X112700000Y-69250000D01*
X111900000Y-70850000D02*
X111900000Y-69250000D01*
X112700000Y-70850000D02*
X111900000Y-70850000D01*
X114450000Y-55200000D02*
X116050000Y-55200000D01*
X114450000Y-56000000D02*
X114450000Y-55200000D01*
X116050000Y-56000000D02*
X114450000Y-56000000D01*
X116050000Y-55200000D02*
X116050000Y-56000000D01*
X111900000Y-62350000D02*
X111900000Y-60750000D01*
X112700000Y-62350000D02*
X111900000Y-62350000D01*
X112700000Y-60750000D02*
X112700000Y-62350000D01*
X111900000Y-60750000D02*
X112700000Y-60750000D01*
X120550000Y-56000000D02*
X118950000Y-56000000D01*
X120550000Y-55200000D02*
X120550000Y-56000000D01*
X118950000Y-55200000D02*
X120550000Y-55200000D01*
X118950000Y-56000000D02*
X118950000Y-55200000D01*
X127050000Y-56000000D02*
X125450000Y-56000000D01*
X127050000Y-55200000D02*
X127050000Y-56000000D01*
X125450000Y-55200000D02*
X127050000Y-55200000D01*
X125450000Y-56000000D02*
X125450000Y-55200000D01*
X131300000Y-61350000D02*
X131300000Y-59750000D01*
X132100000Y-61350000D02*
X131300000Y-61350000D01*
X132100000Y-59750000D02*
X132100000Y-61350000D01*
X131300000Y-59750000D02*
X132100000Y-59750000D01*
X132100000Y-68250000D02*
X132100000Y-69850000D01*
X131300000Y-68250000D02*
X132100000Y-68250000D01*
X131300000Y-69850000D02*
X131300000Y-68250000D01*
X132100000Y-69850000D02*
X131300000Y-69850000D01*
X124700000Y-74600000D02*
X126300000Y-74600000D01*
X124700000Y-75400000D02*
X124700000Y-74600000D01*
X126300000Y-75400000D02*
X124700000Y-75400000D01*
X126300000Y-74600000D02*
X126300000Y-75400000D01*
X129550000Y-75400000D02*
X127950000Y-75400000D01*
X129550000Y-74600000D02*
X129550000Y-75400000D01*
X127950000Y-74600000D02*
X129550000Y-74600000D01*
X127950000Y-75400000D02*
X127950000Y-74600000D01*
X115400000Y-80250000D02*
X115400000Y-78650000D01*
X116200000Y-80250000D02*
X115400000Y-80250000D01*
X116200000Y-78650000D02*
X116200000Y-80250000D01*
X115400000Y-78650000D02*
X116200000Y-78650000D01*
X113960000Y-41913000D02*
X116885000Y-41913000D01*
X116885000Y-41913000D02*
X116885000Y-51813000D01*
X116885000Y-51813000D02*
X112985000Y-51813000D01*
X112985000Y-51813000D02*
X112985000Y-42888000D01*
X112985000Y-42888000D02*
X113960000Y-41913000D01*
X130600000Y-36810796D02*
X130600000Y-42262500D01*
X137350000Y-37200000D02*
X131350000Y-37200000D01*
X138100000Y-36810796D02*
X130600000Y-36810796D01*
X138100000Y-42262500D02*
X130600000Y-42262500D01*
X138100000Y-36810796D02*
X138100000Y-42262500D01*
X135650000Y-41812500D02*
X135850000Y-42012500D01*
X135450000Y-42012500D02*
X135650000Y-41812500D01*
X135850000Y-42222500D02*
X135450000Y-42222500D01*
X135850000Y-42222500D02*
X135850000Y-42012500D01*
X135450000Y-42222500D02*
X135450000Y-42012500D01*
X104650000Y-67250000D02*
X111350000Y-67250000D01*
X111350000Y-70950000D02*
X111350000Y-67250000D01*
X104650000Y-69950000D02*
X104650000Y-67250000D01*
X105650000Y-70950000D02*
X111350000Y-70950000D01*
X105650000Y-70950000D02*
X104650000Y-69950000D01*
X116850000Y-78980000D02*
X116850000Y-79830000D01*
X117350000Y-80330000D02*
X119050000Y-80330000D01*
X116850000Y-78980000D02*
X119050000Y-78980000D01*
X119050000Y-78980000D02*
X119050000Y-80330000D01*
X116850000Y-79830000D02*
X117350000Y-80330000D01*
X117350000Y-75400000D02*
X115750000Y-75400000D01*
X117350000Y-74600000D02*
X117350000Y-75400000D01*
X115750000Y-74600000D02*
X117350000Y-74600000D01*
X115750000Y-75400000D02*
X115750000Y-74600000D01*
X149400000Y-80600000D02*
X149400000Y-79000000D01*
X150200000Y-80600000D02*
X149400000Y-80600000D01*
X150200000Y-79000000D02*
X150200000Y-80600000D01*
X149400000Y-79000000D02*
X150200000Y-79000000D01*
X140200000Y-80600000D02*
X140200000Y-79000000D01*
X141000000Y-80600000D02*
X140200000Y-80600000D01*
X141000000Y-79000000D02*
X141000000Y-80600000D01*
X140200000Y-79000000D02*
X141000000Y-79000000D01*
X130950000Y-80600000D02*
X130950000Y-79000000D01*
X131750000Y-80600000D02*
X130950000Y-80600000D01*
X131750000Y-79000000D02*
X131750000Y-80600000D01*
X130950000Y-79000000D02*
X131750000Y-79000000D01*
X120000000Y-80600000D02*
X120000000Y-79000000D01*
X120800000Y-80600000D02*
X120000000Y-80600000D01*
X120800000Y-79000000D02*
X120800000Y-80600000D01*
X120000000Y-79000000D02*
X120800000Y-79000000D01*
X108100000Y-80600000D02*
X108100000Y-79000000D01*
X108900000Y-80600000D02*
X108100000Y-80600000D01*
X108900000Y-79000000D02*
X108900000Y-80600000D01*
X108100000Y-79000000D02*
X108900000Y-79000000D01*
D11*
X110500000Y-84200000D02*
X109500000Y-83200000D01*
X114500000Y-84200000D02*
X110500000Y-84200000D01*
X114500000Y-79800000D02*
X114500000Y-84200000D01*
X109500000Y-79800000D02*
X114500000Y-79800000D01*
X109500000Y-83200000D02*
X109500000Y-79800000D01*
X151925000Y-84200000D02*
X150925000Y-83200000D01*
X157425000Y-84200000D02*
X151925000Y-84200000D01*
X157425000Y-79800000D02*
X157425000Y-84200000D01*
X150925000Y-79800000D02*
X157425000Y-79800000D01*
X150925000Y-83200000D02*
X150925000Y-79800000D01*
X142725000Y-84200000D02*
X141725000Y-83200000D01*
X148225000Y-84200000D02*
X142725000Y-84200000D01*
X148225000Y-79800000D02*
X148225000Y-84200000D01*
X141725000Y-79800000D02*
X148225000Y-79800000D01*
X141725000Y-83200000D02*
X141725000Y-79800000D01*
X133525000Y-84200000D02*
X132525000Y-83200000D01*
X139025000Y-84200000D02*
X133525000Y-84200000D01*
X139025000Y-79800000D02*
X139025000Y-84200000D01*
X132525000Y-79800000D02*
X139025000Y-79800000D01*
X132525000Y-83200000D02*
X132525000Y-79800000D01*
X122575000Y-84200000D02*
X121575000Y-83200000D01*
X128075000Y-84200000D02*
X122575000Y-84200000D01*
X128075000Y-79800000D02*
X128075000Y-84200000D01*
X121575000Y-79800000D02*
X128075000Y-79800000D01*
X121575000Y-83200000D02*
X121575000Y-79800000D01*
D10*
X106092500Y-38735000D02*
G75*
G03*
X106092500Y-38735000I-1000000J0D01*
G01*
X160067500Y-38735000D02*
G75*
G03*
X160067500Y-38735000I-1000000J0D01*
G01*
X159750000Y-85471000D02*
G75*
G03*
X159750000Y-85471000I-1000000J0D01*
G01*
X106283000Y-85471000D02*
G75*
G03*
X106283000Y-85471000I-1000000J0D01*
G01*
D12*
X160782000Y-97536000D02*
X160782000Y-89408000D01*
X103378000Y-97536000D02*
X160782000Y-97536000D01*
X103378000Y-89408000D02*
X103378000Y-97536000D01*
D10*
X159750000Y-88011000D02*
G75*
G03*
X159750000Y-88011000I-1000000J0D01*
G01*
X106410000Y-88011000D02*
G75*
G03*
X106410000Y-88011000I-1000000J0D01*
G01*
D11*
X108450000Y-74175000D02*
X110450000Y-74175000D01*
X108450000Y-75425000D02*
X108450000Y-74175000D01*
X110450000Y-75425000D02*
X108450000Y-75425000D01*
X110450000Y-74175000D02*
X110450000Y-75425000D01*
X111975000Y-74400000D02*
X111975000Y-72400000D01*
X113225000Y-74400000D02*
X111975000Y-74400000D01*
X113225000Y-72400000D02*
X113225000Y-74400000D01*
X111975000Y-72400000D02*
X113225000Y-72400000D01*
X105150000Y-61475000D02*
X107150000Y-61475000D01*
X105150000Y-62725000D02*
X105150000Y-61475000D01*
X107150000Y-62725000D02*
X105150000Y-62725000D01*
X107150000Y-61475000D02*
X107150000Y-62725000D01*
X110650000Y-62725000D02*
X108650000Y-62725000D01*
X110650000Y-61475000D02*
X110650000Y-62725000D01*
X108650000Y-61475000D02*
X110650000Y-61475000D01*
X108650000Y-62725000D02*
X108650000Y-61475000D01*
X105150000Y-59275000D02*
X107150000Y-59275000D01*
X105150000Y-60525000D02*
X105150000Y-59275000D01*
X107150000Y-60525000D02*
X105150000Y-60525000D01*
X107150000Y-59275000D02*
X107150000Y-60525000D01*
X110650000Y-60525000D02*
X108650000Y-60525000D01*
X110650000Y-59275000D02*
X110650000Y-60525000D01*
X108650000Y-59275000D02*
X110650000Y-59275000D01*
X108650000Y-60525000D02*
X108650000Y-59275000D01*
D10*
X115400000Y-81500000D02*
X116200000Y-81500000D01*
X116200000Y-81500000D02*
X116200000Y-83100000D01*
X116200000Y-83100000D02*
X115400000Y-83100000D01*
X115400000Y-83100000D02*
X115400000Y-81500000D01*
X120200000Y-76950000D02*
X120200000Y-77750000D01*
X120200000Y-77750000D02*
X118600000Y-77750000D01*
X118600000Y-77750000D02*
X118600000Y-76950000D01*
X118600000Y-76950000D02*
X120200000Y-76950000D01*
X120200000Y-75450000D02*
X120200000Y-76250000D01*
X120200000Y-76250000D02*
X118600000Y-76250000D01*
X118600000Y-76250000D02*
X118600000Y-75450000D01*
X118600000Y-75450000D02*
X120200000Y-75450000D01*
X140800000Y-52800000D02*
X141600000Y-52800000D01*
X141600000Y-52800000D02*
X141600000Y-54400000D01*
X141600000Y-54400000D02*
X140800000Y-54400000D01*
X140800000Y-54400000D02*
X140800000Y-52800000D01*
X138250000Y-57100000D02*
X138250000Y-57900000D01*
X138250000Y-57900000D02*
X136650000Y-57900000D01*
X136650000Y-57900000D02*
X136650000Y-57100000D01*
X136650000Y-57100000D02*
X138250000Y-57100000D01*
X138250000Y-54100000D02*
X138250000Y-54900000D01*
X138250000Y-54900000D02*
X136650000Y-54900000D01*
X136650000Y-54900000D02*
X136650000Y-54100000D01*
X136650000Y-54100000D02*
X138250000Y-54100000D01*
X138250000Y-55600000D02*
X138250000Y-56400000D01*
X138250000Y-56400000D02*
X136650000Y-56400000D01*
X136650000Y-56400000D02*
X136650000Y-55600000D01*
X136650000Y-55600000D02*
X138250000Y-55600000D01*
X138250000Y-52600000D02*
X138250000Y-53400000D01*
X138250000Y-53400000D02*
X136650000Y-53400000D01*
X136650000Y-53400000D02*
X136650000Y-52600000D01*
X136650000Y-52600000D02*
X138250000Y-52600000D01*
X107531000Y-41294000D02*
X107531000Y-40494000D01*
X107531000Y-40494000D02*
X109131000Y-40494000D01*
X109131000Y-40494000D02*
X109131000Y-41294000D01*
X109131000Y-41294000D02*
X107531000Y-41294000D01*
X112649000Y-40494000D02*
X112649000Y-41294000D01*
X112649000Y-41294000D02*
X111049000Y-41294000D01*
X111049000Y-41294000D02*
X111049000Y-40494000D01*
X111049000Y-40494000D02*
X112649000Y-40494000D01*
D11*
X124250000Y-45700000D02*
X123250000Y-44700000D01*
X128250000Y-45700000D02*
X124250000Y-45700000D01*
X128250000Y-41300000D02*
X128250000Y-45700000D01*
X123250000Y-41300000D02*
X128250000Y-41300000D01*
X123250000Y-44700000D02*
X123250000Y-41300000D01*
D10*
X121320000Y-43850000D02*
X120470000Y-43850000D01*
X119970000Y-44350000D02*
X119970000Y-46050000D01*
X121320000Y-43850000D02*
X121320000Y-46050000D01*
X121320000Y-46050000D02*
X119970000Y-46050000D01*
X120470000Y-43850000D02*
X119970000Y-44350000D01*
X144720000Y-39400000D02*
X143870000Y-39400000D01*
X143370000Y-39900000D02*
X143370000Y-41600000D01*
X144720000Y-39400000D02*
X144720000Y-41600000D01*
X144720000Y-41600000D02*
X143370000Y-41600000D01*
X143870000Y-39400000D02*
X143370000Y-39900000D01*
X139550000Y-40450000D02*
X140350000Y-40450000D01*
X140350000Y-40450000D02*
X140350000Y-42050000D01*
X140350000Y-42050000D02*
X139550000Y-42050000D01*
X139550000Y-42050000D02*
X139550000Y-40450000D01*
X104300000Y-57200000D02*
X109000000Y-57200000D01*
X109000000Y-57200000D02*
X109000000Y-45800000D01*
X109000000Y-45800000D02*
X104300000Y-45800000D01*
X104300000Y-45800000D02*
X104300000Y-57200000D01*
X104535000Y-54515000D02*
X104535000Y-48485000D01*
X108765000Y-54515000D02*
X108765000Y-48485000D01*
X108765000Y-48485000D02*
G75*
G03*
X104535000Y-48485000I-2115000J0D01*
G01*
X108765000Y-54515000D02*
G75*
G02*
X104535000Y-54515000I-2115000J0D01*
G01*
X120034000Y-40868000D02*
X120034000Y-42468000D01*
X119234000Y-40868000D02*
X120034000Y-40868000D01*
X119234000Y-42468000D02*
X119234000Y-40868000D01*
X120034000Y-42468000D02*
X119234000Y-42468000D01*
X146250000Y-41400000D02*
X146250000Y-39800000D01*
X147050000Y-41400000D02*
X146250000Y-41400000D01*
X147050000Y-39800000D02*
X147050000Y-41400000D01*
X146250000Y-39800000D02*
X147050000Y-39800000D01*
X147200000Y-48250000D02*
X148800000Y-48250000D01*
X147200000Y-49050000D02*
X147200000Y-48250000D01*
X148800000Y-49050000D02*
X147200000Y-49050000D01*
X148800000Y-48250000D02*
X148800000Y-49050000D01*
X157527500Y-38735000D02*
G75*
G03*
X157527500Y-38735000I-1000000J0D01*
G01*
X159750000Y-82931000D02*
G75*
G03*
X159750000Y-82931000I-1000000J0D01*
G01*
X106092500Y-41275000D02*
G75*
G03*
X106092500Y-41275000I-1000000J0D01*
G01*
X128850000Y-45550000D02*
X128850000Y-43950000D01*
X129650000Y-45550000D02*
X128850000Y-45550000D01*
X129650000Y-43950000D02*
X129650000Y-45550000D01*
X128850000Y-43950000D02*
X129650000Y-43950000D01*
X112650000Y-38900000D02*
X112650000Y-39700000D01*
X112650000Y-39700000D02*
X111050000Y-39700000D01*
X111050000Y-39700000D02*
X111050000Y-38900000D01*
X111050000Y-38900000D02*
X112650000Y-38900000D01*
X137250000Y-43950000D02*
X137250000Y-44750000D01*
X137250000Y-44750000D02*
X135650000Y-44750000D01*
X135650000Y-44750000D02*
X135650000Y-43950000D01*
X135650000Y-43950000D02*
X137250000Y-43950000D01*
D13*
X141540714Y-41413285D02*
X141552809Y-41425380D01*
X141564904Y-41461666D01*
X141564904Y-41485857D01*
X141552809Y-41522142D01*
X141528619Y-41546333D01*
X141504428Y-41558428D01*
X141456047Y-41570523D01*
X141419761Y-41570523D01*
X141371380Y-41558428D01*
X141347190Y-41546333D01*
X141323000Y-41522142D01*
X141310904Y-41485857D01*
X141310904Y-41461666D01*
X141323000Y-41425380D01*
X141335095Y-41413285D01*
X141310904Y-41328619D02*
X141310904Y-41171380D01*
X141407666Y-41256047D01*
X141407666Y-41219761D01*
X141419761Y-41195571D01*
X141431857Y-41183476D01*
X141456047Y-41171380D01*
X141516523Y-41171380D01*
X141540714Y-41183476D01*
X141552809Y-41195571D01*
X141564904Y-41219761D01*
X141564904Y-41292333D01*
X141552809Y-41316523D01*
X141540714Y-41328619D01*
X141395571Y-40953666D02*
X141564904Y-40953666D01*
X141298809Y-41014142D02*
X141480238Y-41074619D01*
X141480238Y-40917380D01*
D14*
X141142547Y-41404214D02*
X141136500Y-41398166D01*
X141130452Y-41386071D01*
X141130452Y-41355833D01*
X141136500Y-41343738D01*
X141142547Y-41337690D01*
X141154642Y-41331642D01*
X141166738Y-41331642D01*
X141184880Y-41337690D01*
X141257452Y-41410261D01*
X141257452Y-41331642D01*
X141142547Y-41283261D02*
X141136500Y-41277214D01*
X141130452Y-41265119D01*
X141130452Y-41234880D01*
X141136500Y-41222785D01*
X141142547Y-41216738D01*
X141154642Y-41210690D01*
X141166738Y-41210690D01*
X141184880Y-41216738D01*
X141257452Y-41289309D01*
X141257452Y-41210690D01*
X141172785Y-41156261D02*
X141299785Y-41156261D01*
X141178833Y-41156261D02*
X141172785Y-41144166D01*
X141172785Y-41119976D01*
X141178833Y-41107880D01*
X141184880Y-41101833D01*
X141196976Y-41095785D01*
X141233261Y-41095785D01*
X141245357Y-41101833D01*
X141251404Y-41107880D01*
X141257452Y-41119976D01*
X141257452Y-41144166D01*
X141251404Y-41156261D01*
D13*
X121814904Y-41692333D02*
X121693952Y-41777000D01*
X121814904Y-41837476D02*
X121560904Y-41837476D01*
X121560904Y-41740714D01*
X121573000Y-41716523D01*
X121585095Y-41704428D01*
X121609285Y-41692333D01*
X121645571Y-41692333D01*
X121669761Y-41704428D01*
X121681857Y-41716523D01*
X121693952Y-41740714D01*
X121693952Y-41837476D01*
X121814904Y-41450428D02*
X121814904Y-41595571D01*
X121814904Y-41523000D02*
X121560904Y-41523000D01*
X121597190Y-41547190D01*
X121621380Y-41571380D01*
X121633476Y-41595571D01*
D14*
X121507452Y-41665119D02*
X121507452Y-41737690D01*
X121507452Y-41701404D02*
X121380452Y-41701404D01*
X121398595Y-41713500D01*
X121410690Y-41725595D01*
X121416738Y-41737690D01*
X121507452Y-41610690D02*
X121380452Y-41610690D01*
X121459071Y-41598595D02*
X121507452Y-41562309D01*
X121422785Y-41562309D02*
X121471166Y-41610690D01*
D15*
X148380723Y-63554895D02*
X148380723Y-64212876D01*
X148419428Y-64290285D01*
X148458133Y-64328990D01*
X148535542Y-64367695D01*
X148690361Y-64367695D01*
X148767771Y-64328990D01*
X148806476Y-64290285D01*
X148845180Y-64212876D01*
X148845180Y-63554895D01*
X149270933Y-64367695D02*
X149425752Y-64367695D01*
X149503161Y-64328990D01*
X149541866Y-64290285D01*
X149619276Y-64174171D01*
X149657980Y-64019352D01*
X149657980Y-63709714D01*
X149619276Y-63632304D01*
X149580571Y-63593600D01*
X149503161Y-63554895D01*
X149348342Y-63554895D01*
X149270933Y-63593600D01*
X149232228Y-63632304D01*
X149193523Y-63709714D01*
X149193523Y-63903238D01*
X149232228Y-63980647D01*
X149270933Y-64019352D01*
X149348342Y-64058057D01*
X149503161Y-64058057D01*
X149580571Y-64019352D01*
X149619276Y-63980647D01*
X149657980Y-63903238D01*
D12*
X146242285Y-62771809D02*
X146363238Y-63279809D01*
X146460000Y-62916952D01*
X146556761Y-63279809D01*
X146677714Y-62771809D01*
X146895428Y-63279809D02*
X146992190Y-63279809D01*
X147040571Y-63255619D01*
X147064761Y-63231428D01*
X147113142Y-63158857D01*
X147137333Y-63062095D01*
X147137333Y-62868571D01*
X147113142Y-62820190D01*
X147088952Y-62796000D01*
X147040571Y-62771809D01*
X146943809Y-62771809D01*
X146895428Y-62796000D01*
X146871238Y-62820190D01*
X146847047Y-62868571D01*
X146847047Y-62989523D01*
X146871238Y-63037904D01*
X146895428Y-63062095D01*
X146943809Y-63086285D01*
X147040571Y-63086285D01*
X147088952Y-63062095D01*
X147113142Y-63037904D01*
X147137333Y-62989523D01*
X147427619Y-62989523D02*
X147379238Y-62965333D01*
X147355047Y-62941142D01*
X147330857Y-62892761D01*
X147330857Y-62868571D01*
X147355047Y-62820190D01*
X147379238Y-62796000D01*
X147427619Y-62771809D01*
X147524380Y-62771809D01*
X147572761Y-62796000D01*
X147596952Y-62820190D01*
X147621142Y-62868571D01*
X147621142Y-62892761D01*
X147596952Y-62941142D01*
X147572761Y-62965333D01*
X147524380Y-62989523D01*
X147427619Y-62989523D01*
X147379238Y-63013714D01*
X147355047Y-63037904D01*
X147330857Y-63086285D01*
X147330857Y-63183047D01*
X147355047Y-63231428D01*
X147379238Y-63255619D01*
X147427619Y-63279809D01*
X147524380Y-63279809D01*
X147572761Y-63255619D01*
X147596952Y-63231428D01*
X147621142Y-63183047D01*
X147621142Y-63086285D01*
X147596952Y-63037904D01*
X147572761Y-63013714D01*
X147524380Y-62989523D01*
X147814666Y-62820190D02*
X147838857Y-62796000D01*
X147887238Y-62771809D01*
X148008190Y-62771809D01*
X148056571Y-62796000D01*
X148080761Y-62820190D01*
X148104952Y-62868571D01*
X148104952Y-62916952D01*
X148080761Y-62989523D01*
X147790476Y-63279809D01*
X148104952Y-63279809D01*
X148564571Y-62771809D02*
X148322666Y-62771809D01*
X148298476Y-63013714D01*
X148322666Y-62989523D01*
X148371047Y-62965333D01*
X148492000Y-62965333D01*
X148540380Y-62989523D01*
X148564571Y-63013714D01*
X148588761Y-63062095D01*
X148588761Y-63183047D01*
X148564571Y-63231428D01*
X148540380Y-63255619D01*
X148492000Y-63279809D01*
X148371047Y-63279809D01*
X148322666Y-63255619D01*
X148298476Y-63231428D01*
X149072571Y-62796000D02*
X149024190Y-62771809D01*
X148951619Y-62771809D01*
X148879047Y-62796000D01*
X148830666Y-62844380D01*
X148806476Y-62892761D01*
X148782285Y-62989523D01*
X148782285Y-63062095D01*
X148806476Y-63158857D01*
X148830666Y-63207238D01*
X148879047Y-63255619D01*
X148951619Y-63279809D01*
X149000000Y-63279809D01*
X149072571Y-63255619D01*
X149096761Y-63231428D01*
X149096761Y-63062095D01*
X149000000Y-63062095D01*
X149532190Y-62771809D02*
X149435428Y-62771809D01*
X149387047Y-62796000D01*
X149362857Y-62820190D01*
X149314476Y-62892761D01*
X149290285Y-62989523D01*
X149290285Y-63183047D01*
X149314476Y-63231428D01*
X149338666Y-63255619D01*
X149387047Y-63279809D01*
X149483809Y-63279809D01*
X149532190Y-63255619D01*
X149556380Y-63231428D01*
X149580571Y-63183047D01*
X149580571Y-63062095D01*
X149556380Y-63013714D01*
X149532190Y-62989523D01*
X149483809Y-62965333D01*
X149387047Y-62965333D01*
X149338666Y-62989523D01*
X149314476Y-63013714D01*
X149290285Y-63062095D01*
X149798285Y-63279809D02*
X149798285Y-62771809D01*
X150088571Y-63279809D02*
X149870857Y-62989523D01*
X150088571Y-62771809D02*
X149798285Y-63062095D01*
X150306285Y-63279809D02*
X150306285Y-62771809D01*
X150306285Y-63013714D02*
X150596571Y-63013714D01*
X150596571Y-63279809D02*
X150596571Y-62771809D01*
X150838476Y-63086285D02*
X151225523Y-63086285D01*
X151685142Y-62771809D02*
X151588380Y-62771809D01*
X151540000Y-62796000D01*
X151515809Y-62820190D01*
X151467428Y-62892761D01*
X151443238Y-62989523D01*
X151443238Y-63183047D01*
X151467428Y-63231428D01*
X151491619Y-63255619D01*
X151540000Y-63279809D01*
X151636761Y-63279809D01*
X151685142Y-63255619D01*
X151709333Y-63231428D01*
X151733523Y-63183047D01*
X151733523Y-63062095D01*
X151709333Y-63013714D01*
X151685142Y-62989523D01*
X151636761Y-62965333D01*
X151540000Y-62965333D01*
X151491619Y-62989523D01*
X151467428Y-63013714D01*
X151443238Y-63062095D01*
D13*
X145014904Y-43242333D02*
X144893952Y-43327000D01*
X145014904Y-43387476D02*
X144760904Y-43387476D01*
X144760904Y-43290714D01*
X144773000Y-43266523D01*
X144785095Y-43254428D01*
X144809285Y-43242333D01*
X144845571Y-43242333D01*
X144869761Y-43254428D01*
X144881857Y-43266523D01*
X144893952Y-43290714D01*
X144893952Y-43387476D01*
X144760904Y-43157666D02*
X144760904Y-43000428D01*
X144857666Y-43085095D01*
X144857666Y-43048809D01*
X144869761Y-43024619D01*
X144881857Y-43012523D01*
X144906047Y-43000428D01*
X144966523Y-43000428D01*
X144990714Y-43012523D01*
X145002809Y-43024619D01*
X145014904Y-43048809D01*
X145014904Y-43121380D01*
X145002809Y-43145571D01*
X144990714Y-43157666D01*
D14*
X145122785Y-43236285D02*
X145207452Y-43236285D01*
X145074404Y-43266523D02*
X145165119Y-43296761D01*
X145165119Y-43218142D01*
X145080452Y-43181857D02*
X145080452Y-43097190D01*
X145207452Y-43151619D01*
D15*
X121380723Y-64854895D02*
X121380723Y-65512876D01*
X121419428Y-65590285D01*
X121458133Y-65628990D01*
X121535542Y-65667695D01*
X121690361Y-65667695D01*
X121767771Y-65628990D01*
X121806476Y-65590285D01*
X121845180Y-65512876D01*
X121845180Y-64854895D01*
X122348342Y-65203238D02*
X122270933Y-65164533D01*
X122232228Y-65125828D01*
X122193523Y-65048419D01*
X122193523Y-65009714D01*
X122232228Y-64932304D01*
X122270933Y-64893600D01*
X122348342Y-64854895D01*
X122503161Y-64854895D01*
X122580571Y-64893600D01*
X122619276Y-64932304D01*
X122657980Y-65009714D01*
X122657980Y-65048419D01*
X122619276Y-65125828D01*
X122580571Y-65164533D01*
X122503161Y-65203238D01*
X122348342Y-65203238D01*
X122270933Y-65241942D01*
X122232228Y-65280647D01*
X122193523Y-65358057D01*
X122193523Y-65512876D01*
X122232228Y-65590285D01*
X122270933Y-65628990D01*
X122348342Y-65667695D01*
X122503161Y-65667695D01*
X122580571Y-65628990D01*
X122619276Y-65590285D01*
X122657980Y-65512876D01*
X122657980Y-65358057D01*
X122619276Y-65280647D01*
X122580571Y-65241942D01*
X122503161Y-65203238D01*
D12*
X118335142Y-66579809D02*
X118093238Y-66579809D01*
X118093238Y-66071809D01*
X118794761Y-66531428D02*
X118770571Y-66555619D01*
X118698000Y-66579809D01*
X118649619Y-66579809D01*
X118577047Y-66555619D01*
X118528666Y-66507238D01*
X118504476Y-66458857D01*
X118480285Y-66362095D01*
X118480285Y-66289523D01*
X118504476Y-66192761D01*
X118528666Y-66144380D01*
X118577047Y-66096000D01*
X118649619Y-66071809D01*
X118698000Y-66071809D01*
X118770571Y-66096000D01*
X118794761Y-66120190D01*
X119012476Y-66579809D02*
X119012476Y-66071809D01*
X119181809Y-66434666D01*
X119351142Y-66071809D01*
X119351142Y-66579809D01*
X119544666Y-66071809D02*
X119883333Y-66579809D01*
X119883333Y-66071809D02*
X119544666Y-66579809D01*
X120173619Y-66071809D02*
X120270380Y-66071809D01*
X120318761Y-66096000D01*
X120367142Y-66144380D01*
X120391333Y-66241142D01*
X120391333Y-66410476D01*
X120367142Y-66507238D01*
X120318761Y-66555619D01*
X120270380Y-66579809D01*
X120173619Y-66579809D01*
X120125238Y-66555619D01*
X120076857Y-66507238D01*
X120052666Y-66410476D01*
X120052666Y-66241142D01*
X120076857Y-66144380D01*
X120125238Y-66096000D01*
X120173619Y-66071809D01*
X120584857Y-66120190D02*
X120609047Y-66096000D01*
X120657428Y-66071809D01*
X120778380Y-66071809D01*
X120826761Y-66096000D01*
X120850952Y-66120190D01*
X120875142Y-66168571D01*
X120875142Y-66216952D01*
X120850952Y-66289523D01*
X120560666Y-66579809D01*
X120875142Y-66579809D01*
X121092857Y-66386285D02*
X121479904Y-66386285D01*
X121939523Y-66071809D02*
X121842761Y-66071809D01*
X121794380Y-66096000D01*
X121770190Y-66120190D01*
X121721809Y-66192761D01*
X121697619Y-66289523D01*
X121697619Y-66483047D01*
X121721809Y-66531428D01*
X121746000Y-66555619D01*
X121794380Y-66579809D01*
X121891142Y-66579809D01*
X121939523Y-66555619D01*
X121963714Y-66531428D01*
X121987904Y-66483047D01*
X121987904Y-66362095D01*
X121963714Y-66313714D01*
X121939523Y-66289523D01*
X121891142Y-66265333D01*
X121794380Y-66265333D01*
X121746000Y-66289523D01*
X121721809Y-66313714D01*
X121697619Y-66362095D01*
X122423333Y-66241142D02*
X122423333Y-66579809D01*
X122302380Y-66047619D02*
X122181428Y-66410476D01*
X122495904Y-66410476D01*
X122786190Y-66071809D02*
X122834571Y-66071809D01*
X122882952Y-66096000D01*
X122907142Y-66120190D01*
X122931333Y-66168571D01*
X122955523Y-66265333D01*
X122955523Y-66386285D01*
X122931333Y-66483047D01*
X122907142Y-66531428D01*
X122882952Y-66555619D01*
X122834571Y-66579809D01*
X122786190Y-66579809D01*
X122737809Y-66555619D01*
X122713619Y-66531428D01*
X122689428Y-66483047D01*
X122665238Y-66386285D01*
X122665238Y-66265333D01*
X122689428Y-66168571D01*
X122713619Y-66120190D01*
X122737809Y-66096000D01*
X122786190Y-66071809D01*
X123173238Y-66386285D02*
X123560285Y-66386285D01*
X123729619Y-66071809D02*
X124019904Y-66071809D01*
X123874761Y-66579809D02*
X123874761Y-66071809D01*
X124455333Y-66096000D02*
X124406952Y-66071809D01*
X124334380Y-66071809D01*
X124261809Y-66096000D01*
X124213428Y-66144380D01*
X124189238Y-66192761D01*
X124165047Y-66289523D01*
X124165047Y-66362095D01*
X124189238Y-66458857D01*
X124213428Y-66507238D01*
X124261809Y-66555619D01*
X124334380Y-66579809D01*
X124382761Y-66579809D01*
X124455333Y-66555619D01*
X124479523Y-66531428D01*
X124479523Y-66362095D01*
X124382761Y-66362095D01*
X124963333Y-66579809D02*
X124673047Y-66579809D01*
X124818190Y-66579809D02*
X124818190Y-66071809D01*
X124769809Y-66144380D01*
X124721428Y-66192761D01*
X124673047Y-66216952D01*
X125277809Y-66071809D02*
X125326190Y-66071809D01*
X125374571Y-66096000D01*
X125398761Y-66120190D01*
X125422952Y-66168571D01*
X125447142Y-66265333D01*
X125447142Y-66386285D01*
X125422952Y-66483047D01*
X125398761Y-66531428D01*
X125374571Y-66555619D01*
X125326190Y-66579809D01*
X125277809Y-66579809D01*
X125229428Y-66555619D01*
X125205238Y-66531428D01*
X125181047Y-66483047D01*
X125156857Y-66386285D01*
X125156857Y-66265333D01*
X125181047Y-66168571D01*
X125205238Y-66120190D01*
X125229428Y-66096000D01*
X125277809Y-66071809D01*
X125761619Y-66071809D02*
X125810000Y-66071809D01*
X125858380Y-66096000D01*
X125882571Y-66120190D01*
X125906761Y-66168571D01*
X125930952Y-66265333D01*
X125930952Y-66386285D01*
X125906761Y-66483047D01*
X125882571Y-66531428D01*
X125858380Y-66555619D01*
X125810000Y-66579809D01*
X125761619Y-66579809D01*
X125713238Y-66555619D01*
X125689047Y-66531428D01*
X125664857Y-66483047D01*
X125640666Y-66386285D01*
X125640666Y-66265333D01*
X125664857Y-66168571D01*
X125689047Y-66120190D01*
X125713238Y-66096000D01*
X125761619Y-66071809D01*
D13*
X107236714Y-44090714D02*
X107224619Y-44102809D01*
X107188333Y-44114904D01*
X107164142Y-44114904D01*
X107127857Y-44102809D01*
X107103666Y-44078619D01*
X107091571Y-44054428D01*
X107079476Y-44006047D01*
X107079476Y-43969761D01*
X107091571Y-43921380D01*
X107103666Y-43897190D01*
X107127857Y-43873000D01*
X107164142Y-43860904D01*
X107188333Y-43860904D01*
X107224619Y-43873000D01*
X107236714Y-43885095D01*
X107321380Y-43860904D02*
X107478619Y-43860904D01*
X107393952Y-43957666D01*
X107430238Y-43957666D01*
X107454428Y-43969761D01*
X107466523Y-43981857D01*
X107478619Y-44006047D01*
X107478619Y-44066523D01*
X107466523Y-44090714D01*
X107454428Y-44102809D01*
X107430238Y-44114904D01*
X107357666Y-44114904D01*
X107333476Y-44102809D01*
X107321380Y-44090714D01*
X107563285Y-43860904D02*
X107720523Y-43860904D01*
X107635857Y-43957666D01*
X107672142Y-43957666D01*
X107696333Y-43969761D01*
X107708428Y-43981857D01*
X107720523Y-44006047D01*
X107720523Y-44066523D01*
X107708428Y-44090714D01*
X107696333Y-44102809D01*
X107672142Y-44114904D01*
X107599571Y-44114904D01*
X107575380Y-44102809D01*
X107563285Y-44090714D01*
D14*
X107245785Y-44192547D02*
X107251833Y-44186500D01*
X107263928Y-44180452D01*
X107294166Y-44180452D01*
X107306261Y-44186500D01*
X107312309Y-44192547D01*
X107318357Y-44204642D01*
X107318357Y-44216738D01*
X107312309Y-44234880D01*
X107239738Y-44307452D01*
X107318357Y-44307452D01*
X107366738Y-44192547D02*
X107372785Y-44186500D01*
X107384880Y-44180452D01*
X107415119Y-44180452D01*
X107427214Y-44186500D01*
X107433261Y-44192547D01*
X107439309Y-44204642D01*
X107439309Y-44216738D01*
X107433261Y-44234880D01*
X107360690Y-44307452D01*
X107439309Y-44307452D01*
X107493738Y-44222785D02*
X107493738Y-44349785D01*
X107493738Y-44228833D02*
X107505833Y-44222785D01*
X107530023Y-44222785D01*
X107542119Y-44228833D01*
X107548166Y-44234880D01*
X107554214Y-44246976D01*
X107554214Y-44283261D01*
X107548166Y-44295357D01*
X107542119Y-44301404D01*
X107530023Y-44307452D01*
X107505833Y-44307452D01*
X107493738Y-44301404D01*
D13*
X110040714Y-56663285D02*
X110052809Y-56675380D01*
X110064904Y-56711666D01*
X110064904Y-56735857D01*
X110052809Y-56772142D01*
X110028619Y-56796333D01*
X110004428Y-56808428D01*
X109956047Y-56820523D01*
X109919761Y-56820523D01*
X109871380Y-56808428D01*
X109847190Y-56796333D01*
X109823000Y-56772142D01*
X109810904Y-56735857D01*
X109810904Y-56711666D01*
X109823000Y-56675380D01*
X109835095Y-56663285D01*
X109810904Y-56578619D02*
X109810904Y-56421380D01*
X109907666Y-56506047D01*
X109907666Y-56469761D01*
X109919761Y-56445571D01*
X109931857Y-56433476D01*
X109956047Y-56421380D01*
X110016523Y-56421380D01*
X110040714Y-56433476D01*
X110052809Y-56445571D01*
X110064904Y-56469761D01*
X110064904Y-56542333D01*
X110052809Y-56566523D01*
X110040714Y-56578619D01*
X109835095Y-56324619D02*
X109823000Y-56312523D01*
X109810904Y-56288333D01*
X109810904Y-56227857D01*
X109823000Y-56203666D01*
X109835095Y-56191571D01*
X109859285Y-56179476D01*
X109883476Y-56179476D01*
X109919761Y-56191571D01*
X110064904Y-56336714D01*
X110064904Y-56179476D01*
D14*
X109642547Y-56654214D02*
X109636500Y-56648166D01*
X109630452Y-56636071D01*
X109630452Y-56605833D01*
X109636500Y-56593738D01*
X109642547Y-56587690D01*
X109654642Y-56581642D01*
X109666738Y-56581642D01*
X109684880Y-56587690D01*
X109757452Y-56660261D01*
X109757452Y-56581642D01*
X109642547Y-56533261D02*
X109636500Y-56527214D01*
X109630452Y-56515119D01*
X109630452Y-56484880D01*
X109636500Y-56472785D01*
X109642547Y-56466738D01*
X109654642Y-56460690D01*
X109666738Y-56460690D01*
X109684880Y-56466738D01*
X109757452Y-56539309D01*
X109757452Y-56460690D01*
X109672785Y-56406261D02*
X109799785Y-56406261D01*
X109678833Y-56406261D02*
X109672785Y-56394166D01*
X109672785Y-56369976D01*
X109678833Y-56357880D01*
X109684880Y-56351833D01*
X109696976Y-56345785D01*
X109733261Y-56345785D01*
X109745357Y-56351833D01*
X109751404Y-56357880D01*
X109757452Y-56369976D01*
X109757452Y-56394166D01*
X109751404Y-56406261D01*
D13*
X147836714Y-47264904D02*
X147752047Y-47143952D01*
X147691571Y-47264904D02*
X147691571Y-47010904D01*
X147788333Y-47010904D01*
X147812523Y-47023000D01*
X147824619Y-47035095D01*
X147836714Y-47059285D01*
X147836714Y-47095571D01*
X147824619Y-47119761D01*
X147812523Y-47131857D01*
X147788333Y-47143952D01*
X147691571Y-47143952D01*
X148078619Y-47264904D02*
X147933476Y-47264904D01*
X148006047Y-47264904D02*
X148006047Y-47010904D01*
X147981857Y-47047190D01*
X147957666Y-47071380D01*
X147933476Y-47083476D01*
X148163285Y-47010904D02*
X148320523Y-47010904D01*
X148235857Y-47107666D01*
X148272142Y-47107666D01*
X148296333Y-47119761D01*
X148308428Y-47131857D01*
X148320523Y-47156047D01*
X148320523Y-47216523D01*
X148308428Y-47240714D01*
X148296333Y-47252809D01*
X148272142Y-47264904D01*
X148199571Y-47264904D01*
X148175380Y-47252809D01*
X148163285Y-47240714D01*
D14*
X147924404Y-46957452D02*
X147851833Y-46957452D01*
X147888119Y-46957452D02*
X147888119Y-46830452D01*
X147876023Y-46848595D01*
X147863928Y-46860690D01*
X147851833Y-46866738D01*
X148003023Y-46830452D02*
X148015119Y-46830452D01*
X148027214Y-46836500D01*
X148033261Y-46842547D01*
X148039309Y-46854642D01*
X148045357Y-46878833D01*
X148045357Y-46909071D01*
X148039309Y-46933261D01*
X148033261Y-46945357D01*
X148027214Y-46951404D01*
X148015119Y-46957452D01*
X148003023Y-46957452D01*
X147990928Y-46951404D01*
X147984880Y-46945357D01*
X147978833Y-46933261D01*
X147972785Y-46909071D01*
X147972785Y-46878833D01*
X147978833Y-46854642D01*
X147984880Y-46842547D01*
X147990928Y-46836500D01*
X148003023Y-46830452D01*
X148099785Y-46957452D02*
X148099785Y-46830452D01*
X148111880Y-46909071D02*
X148148166Y-46957452D01*
X148148166Y-46872785D02*
X148099785Y-46921166D01*
D13*
X145914904Y-46563285D02*
X145793952Y-46647952D01*
X145914904Y-46708428D02*
X145660904Y-46708428D01*
X145660904Y-46611666D01*
X145673000Y-46587476D01*
X145685095Y-46575380D01*
X145709285Y-46563285D01*
X145745571Y-46563285D01*
X145769761Y-46575380D01*
X145781857Y-46587476D01*
X145793952Y-46611666D01*
X145793952Y-46708428D01*
X145914904Y-46321380D02*
X145914904Y-46466523D01*
X145914904Y-46393952D02*
X145660904Y-46393952D01*
X145697190Y-46418142D01*
X145721380Y-46442333D01*
X145733476Y-46466523D01*
X145660904Y-46164142D02*
X145660904Y-46139952D01*
X145673000Y-46115761D01*
X145685095Y-46103666D01*
X145709285Y-46091571D01*
X145757666Y-46079476D01*
X145818142Y-46079476D01*
X145866523Y-46091571D01*
X145890714Y-46103666D01*
X145902809Y-46115761D01*
X145914904Y-46139952D01*
X145914904Y-46164142D01*
X145902809Y-46188333D01*
X145890714Y-46200428D01*
X145866523Y-46212523D01*
X145818142Y-46224619D01*
X145757666Y-46224619D01*
X145709285Y-46212523D01*
X145685095Y-46200428D01*
X145673000Y-46188333D01*
X145660904Y-46164142D01*
D14*
X146022785Y-46436285D02*
X146107452Y-46436285D01*
X145974404Y-46466523D02*
X146065119Y-46496761D01*
X146065119Y-46418142D01*
X145980452Y-46381857D02*
X145980452Y-46297190D01*
X146107452Y-46351619D01*
D13*
X147957666Y-45740714D02*
X147945571Y-45752809D01*
X147909285Y-45764904D01*
X147885095Y-45764904D01*
X147848809Y-45752809D01*
X147824619Y-45728619D01*
X147812523Y-45704428D01*
X147800428Y-45656047D01*
X147800428Y-45619761D01*
X147812523Y-45571380D01*
X147824619Y-45547190D01*
X147848809Y-45523000D01*
X147885095Y-45510904D01*
X147909285Y-45510904D01*
X147945571Y-45523000D01*
X147957666Y-45535095D01*
X148042333Y-45510904D02*
X148211666Y-45510904D01*
X148102809Y-45764904D01*
D14*
X147845785Y-45842547D02*
X147851833Y-45836500D01*
X147863928Y-45830452D01*
X147894166Y-45830452D01*
X147906261Y-45836500D01*
X147912309Y-45842547D01*
X147918357Y-45854642D01*
X147918357Y-45866738D01*
X147912309Y-45884880D01*
X147839738Y-45957452D01*
X147918357Y-45957452D01*
X147966738Y-45842547D02*
X147972785Y-45836500D01*
X147984880Y-45830452D01*
X148015119Y-45830452D01*
X148027214Y-45836500D01*
X148033261Y-45842547D01*
X148039309Y-45854642D01*
X148039309Y-45866738D01*
X148033261Y-45884880D01*
X147960690Y-45957452D01*
X148039309Y-45957452D01*
X148093738Y-45872785D02*
X148093738Y-45999785D01*
X148093738Y-45878833D02*
X148105833Y-45872785D01*
X148130023Y-45872785D01*
X148142119Y-45878833D01*
X148148166Y-45884880D01*
X148154214Y-45896976D01*
X148154214Y-45933261D01*
X148148166Y-45945357D01*
X148142119Y-45951404D01*
X148130023Y-45957452D01*
X148105833Y-45957452D01*
X148093738Y-45951404D01*
D13*
X110263214Y-47141285D02*
X110275309Y-47153380D01*
X110287404Y-47189666D01*
X110287404Y-47213857D01*
X110275309Y-47250142D01*
X110251119Y-47274333D01*
X110226928Y-47286428D01*
X110178547Y-47298523D01*
X110142261Y-47298523D01*
X110093880Y-47286428D01*
X110069690Y-47274333D01*
X110045500Y-47250142D01*
X110033404Y-47213857D01*
X110033404Y-47189666D01*
X110045500Y-47153380D01*
X110057595Y-47141285D01*
X110033404Y-47056619D02*
X110033404Y-46899380D01*
X110130166Y-46984047D01*
X110130166Y-46947761D01*
X110142261Y-46923571D01*
X110154357Y-46911476D01*
X110178547Y-46899380D01*
X110239023Y-46899380D01*
X110263214Y-46911476D01*
X110275309Y-46923571D01*
X110287404Y-46947761D01*
X110287404Y-47020333D01*
X110275309Y-47044523D01*
X110263214Y-47056619D01*
X110033404Y-46742142D02*
X110033404Y-46717952D01*
X110045500Y-46693761D01*
X110057595Y-46681666D01*
X110081785Y-46669571D01*
X110130166Y-46657476D01*
X110190642Y-46657476D01*
X110239023Y-46669571D01*
X110263214Y-46681666D01*
X110275309Y-46693761D01*
X110287404Y-46717952D01*
X110287404Y-46742142D01*
X110275309Y-46766333D01*
X110263214Y-46778428D01*
X110239023Y-46790523D01*
X110190642Y-46802619D01*
X110130166Y-46802619D01*
X110081785Y-46790523D01*
X110057595Y-46778428D01*
X110045500Y-46766333D01*
X110033404Y-46742142D01*
D14*
X109865047Y-47132214D02*
X109859000Y-47126166D01*
X109852952Y-47114071D01*
X109852952Y-47083833D01*
X109859000Y-47071738D01*
X109865047Y-47065690D01*
X109877142Y-47059642D01*
X109889238Y-47059642D01*
X109907380Y-47065690D01*
X109979952Y-47138261D01*
X109979952Y-47059642D01*
X109895285Y-46950785D02*
X109979952Y-46950785D01*
X109895285Y-47005214D02*
X109961809Y-47005214D01*
X109973904Y-46999166D01*
X109979952Y-46987071D01*
X109979952Y-46968928D01*
X109973904Y-46956833D01*
X109967857Y-46950785D01*
X109865047Y-46896357D02*
X109859000Y-46890309D01*
X109852952Y-46878214D01*
X109852952Y-46847976D01*
X109859000Y-46835880D01*
X109865047Y-46829833D01*
X109877142Y-46823785D01*
X109889238Y-46823785D01*
X109907380Y-46829833D01*
X109979952Y-46902404D01*
X109979952Y-46823785D01*
D13*
X116498214Y-40857714D02*
X116486119Y-40869809D01*
X116449833Y-40881904D01*
X116425642Y-40881904D01*
X116389357Y-40869809D01*
X116365166Y-40845619D01*
X116353071Y-40821428D01*
X116340976Y-40773047D01*
X116340976Y-40736761D01*
X116353071Y-40688380D01*
X116365166Y-40664190D01*
X116389357Y-40640000D01*
X116425642Y-40627904D01*
X116449833Y-40627904D01*
X116486119Y-40640000D01*
X116498214Y-40652095D01*
X116582880Y-40627904D02*
X116740119Y-40627904D01*
X116655452Y-40724666D01*
X116691738Y-40724666D01*
X116715928Y-40736761D01*
X116728023Y-40748857D01*
X116740119Y-40773047D01*
X116740119Y-40833523D01*
X116728023Y-40857714D01*
X116715928Y-40869809D01*
X116691738Y-40881904D01*
X116619166Y-40881904D01*
X116594976Y-40869809D01*
X116582880Y-40857714D01*
X116982023Y-40881904D02*
X116836880Y-40881904D01*
X116909452Y-40881904D02*
X116909452Y-40627904D01*
X116885261Y-40664190D01*
X116861071Y-40688380D01*
X116836880Y-40700476D01*
D14*
X116507285Y-40459547D02*
X116513333Y-40453500D01*
X116525428Y-40447452D01*
X116555666Y-40447452D01*
X116567761Y-40453500D01*
X116573809Y-40459547D01*
X116579857Y-40471642D01*
X116579857Y-40483738D01*
X116573809Y-40501880D01*
X116501238Y-40574452D01*
X116579857Y-40574452D01*
X116688714Y-40489785D02*
X116688714Y-40574452D01*
X116634285Y-40489785D02*
X116634285Y-40556309D01*
X116640333Y-40568404D01*
X116652428Y-40574452D01*
X116670571Y-40574452D01*
X116682666Y-40568404D01*
X116688714Y-40562357D01*
X116743142Y-40459547D02*
X116749190Y-40453500D01*
X116761285Y-40447452D01*
X116791523Y-40447452D01*
X116803619Y-40453500D01*
X116809666Y-40459547D01*
X116815714Y-40471642D01*
X116815714Y-40483738D01*
X116809666Y-40501880D01*
X116737095Y-40574452D01*
X116815714Y-40574452D01*
D13*
X156890714Y-72213285D02*
X156902809Y-72225380D01*
X156914904Y-72261666D01*
X156914904Y-72285857D01*
X156902809Y-72322142D01*
X156878619Y-72346333D01*
X156854428Y-72358428D01*
X156806047Y-72370523D01*
X156769761Y-72370523D01*
X156721380Y-72358428D01*
X156697190Y-72346333D01*
X156673000Y-72322142D01*
X156660904Y-72285857D01*
X156660904Y-72261666D01*
X156673000Y-72225380D01*
X156685095Y-72213285D01*
X156685095Y-72116523D02*
X156673000Y-72104428D01*
X156660904Y-72080238D01*
X156660904Y-72019761D01*
X156673000Y-71995571D01*
X156685095Y-71983476D01*
X156709285Y-71971380D01*
X156733476Y-71971380D01*
X156769761Y-71983476D01*
X156914904Y-72128619D01*
X156914904Y-71971380D01*
X156745571Y-71753666D02*
X156914904Y-71753666D01*
X156648809Y-71814142D02*
X156830238Y-71874619D01*
X156830238Y-71717380D01*
D14*
X156992547Y-72204214D02*
X156986500Y-72198166D01*
X156980452Y-72186071D01*
X156980452Y-72155833D01*
X156986500Y-72143738D01*
X156992547Y-72137690D01*
X157004642Y-72131642D01*
X157016738Y-72131642D01*
X157034880Y-72137690D01*
X157107452Y-72210261D01*
X157107452Y-72131642D01*
X157022785Y-72022785D02*
X157107452Y-72022785D01*
X157022785Y-72077214D02*
X157089309Y-72077214D01*
X157101404Y-72071166D01*
X157107452Y-72059071D01*
X157107452Y-72040928D01*
X157101404Y-72028833D01*
X157095357Y-72022785D01*
X156992547Y-71968357D02*
X156986500Y-71962309D01*
X156980452Y-71950214D01*
X156980452Y-71919976D01*
X156986500Y-71907880D01*
X156992547Y-71901833D01*
X157004642Y-71895785D01*
X157016738Y-71895785D01*
X157034880Y-71901833D01*
X157107452Y-71974404D01*
X157107452Y-71895785D01*
D13*
X156890714Y-68913285D02*
X156902809Y-68925380D01*
X156914904Y-68961666D01*
X156914904Y-68985857D01*
X156902809Y-69022142D01*
X156878619Y-69046333D01*
X156854428Y-69058428D01*
X156806047Y-69070523D01*
X156769761Y-69070523D01*
X156721380Y-69058428D01*
X156697190Y-69046333D01*
X156673000Y-69022142D01*
X156660904Y-68985857D01*
X156660904Y-68961666D01*
X156673000Y-68925380D01*
X156685095Y-68913285D01*
X156685095Y-68816523D02*
X156673000Y-68804428D01*
X156660904Y-68780238D01*
X156660904Y-68719761D01*
X156673000Y-68695571D01*
X156685095Y-68683476D01*
X156709285Y-68671380D01*
X156733476Y-68671380D01*
X156769761Y-68683476D01*
X156914904Y-68828619D01*
X156914904Y-68671380D01*
X156660904Y-68441571D02*
X156660904Y-68562523D01*
X156781857Y-68574619D01*
X156769761Y-68562523D01*
X156757666Y-68538333D01*
X156757666Y-68477857D01*
X156769761Y-68453666D01*
X156781857Y-68441571D01*
X156806047Y-68429476D01*
X156866523Y-68429476D01*
X156890714Y-68441571D01*
X156902809Y-68453666D01*
X156914904Y-68477857D01*
X156914904Y-68538333D01*
X156902809Y-68562523D01*
X156890714Y-68574619D01*
D14*
X156492547Y-68904214D02*
X156486500Y-68898166D01*
X156480452Y-68886071D01*
X156480452Y-68855833D01*
X156486500Y-68843738D01*
X156492547Y-68837690D01*
X156504642Y-68831642D01*
X156516738Y-68831642D01*
X156534880Y-68837690D01*
X156607452Y-68910261D01*
X156607452Y-68831642D01*
X156522785Y-68722785D02*
X156607452Y-68722785D01*
X156522785Y-68777214D02*
X156589309Y-68777214D01*
X156601404Y-68771166D01*
X156607452Y-68759071D01*
X156607452Y-68740928D01*
X156601404Y-68728833D01*
X156595357Y-68722785D01*
X156492547Y-68668357D02*
X156486500Y-68662309D01*
X156480452Y-68650214D01*
X156480452Y-68619976D01*
X156486500Y-68607880D01*
X156492547Y-68601833D01*
X156504642Y-68595785D01*
X156516738Y-68595785D01*
X156534880Y-68601833D01*
X156607452Y-68674404D01*
X156607452Y-68595785D01*
D13*
X156890714Y-64963285D02*
X156902809Y-64975380D01*
X156914904Y-65011666D01*
X156914904Y-65035857D01*
X156902809Y-65072142D01*
X156878619Y-65096333D01*
X156854428Y-65108428D01*
X156806047Y-65120523D01*
X156769761Y-65120523D01*
X156721380Y-65108428D01*
X156697190Y-65096333D01*
X156673000Y-65072142D01*
X156660904Y-65035857D01*
X156660904Y-65011666D01*
X156673000Y-64975380D01*
X156685095Y-64963285D01*
X156685095Y-64866523D02*
X156673000Y-64854428D01*
X156660904Y-64830238D01*
X156660904Y-64769761D01*
X156673000Y-64745571D01*
X156685095Y-64733476D01*
X156709285Y-64721380D01*
X156733476Y-64721380D01*
X156769761Y-64733476D01*
X156914904Y-64878619D01*
X156914904Y-64721380D01*
X156660904Y-64503666D02*
X156660904Y-64552047D01*
X156673000Y-64576238D01*
X156685095Y-64588333D01*
X156721380Y-64612523D01*
X156769761Y-64624619D01*
X156866523Y-64624619D01*
X156890714Y-64612523D01*
X156902809Y-64600428D01*
X156914904Y-64576238D01*
X156914904Y-64527857D01*
X156902809Y-64503666D01*
X156890714Y-64491571D01*
X156866523Y-64479476D01*
X156806047Y-64479476D01*
X156781857Y-64491571D01*
X156769761Y-64503666D01*
X156757666Y-64527857D01*
X156757666Y-64576238D01*
X156769761Y-64600428D01*
X156781857Y-64612523D01*
X156806047Y-64624619D01*
D14*
X156492547Y-64954214D02*
X156486500Y-64948166D01*
X156480452Y-64936071D01*
X156480452Y-64905833D01*
X156486500Y-64893738D01*
X156492547Y-64887690D01*
X156504642Y-64881642D01*
X156516738Y-64881642D01*
X156534880Y-64887690D01*
X156607452Y-64960261D01*
X156607452Y-64881642D01*
X156522785Y-64772785D02*
X156607452Y-64772785D01*
X156522785Y-64827214D02*
X156589309Y-64827214D01*
X156601404Y-64821166D01*
X156607452Y-64809071D01*
X156607452Y-64790928D01*
X156601404Y-64778833D01*
X156595357Y-64772785D01*
X156492547Y-64718357D02*
X156486500Y-64712309D01*
X156480452Y-64700214D01*
X156480452Y-64669976D01*
X156486500Y-64657880D01*
X156492547Y-64651833D01*
X156504642Y-64645785D01*
X156516738Y-64645785D01*
X156534880Y-64651833D01*
X156607452Y-64724404D01*
X156607452Y-64645785D01*
D13*
X156890714Y-54513285D02*
X156902809Y-54525380D01*
X156914904Y-54561666D01*
X156914904Y-54585857D01*
X156902809Y-54622142D01*
X156878619Y-54646333D01*
X156854428Y-54658428D01*
X156806047Y-54670523D01*
X156769761Y-54670523D01*
X156721380Y-54658428D01*
X156697190Y-54646333D01*
X156673000Y-54622142D01*
X156660904Y-54585857D01*
X156660904Y-54561666D01*
X156673000Y-54525380D01*
X156685095Y-54513285D01*
X156685095Y-54416523D02*
X156673000Y-54404428D01*
X156660904Y-54380238D01*
X156660904Y-54319761D01*
X156673000Y-54295571D01*
X156685095Y-54283476D01*
X156709285Y-54271380D01*
X156733476Y-54271380D01*
X156769761Y-54283476D01*
X156914904Y-54428619D01*
X156914904Y-54271380D01*
X156660904Y-54186714D02*
X156660904Y-54017380D01*
X156914904Y-54126238D01*
D14*
X156492547Y-54504214D02*
X156486500Y-54498166D01*
X156480452Y-54486071D01*
X156480452Y-54455833D01*
X156486500Y-54443738D01*
X156492547Y-54437690D01*
X156504642Y-54431642D01*
X156516738Y-54431642D01*
X156534880Y-54437690D01*
X156607452Y-54510261D01*
X156607452Y-54431642D01*
X156522785Y-54322785D02*
X156607452Y-54322785D01*
X156522785Y-54377214D02*
X156589309Y-54377214D01*
X156601404Y-54371166D01*
X156607452Y-54359071D01*
X156607452Y-54340928D01*
X156601404Y-54328833D01*
X156595357Y-54322785D01*
X156492547Y-54268357D02*
X156486500Y-54262309D01*
X156480452Y-54250214D01*
X156480452Y-54219976D01*
X156486500Y-54207880D01*
X156492547Y-54201833D01*
X156504642Y-54195785D01*
X156516738Y-54195785D01*
X156534880Y-54201833D01*
X156607452Y-54274404D01*
X156607452Y-54195785D01*
D13*
X141290714Y-64963285D02*
X141302809Y-64975380D01*
X141314904Y-65011666D01*
X141314904Y-65035857D01*
X141302809Y-65072142D01*
X141278619Y-65096333D01*
X141254428Y-65108428D01*
X141206047Y-65120523D01*
X141169761Y-65120523D01*
X141121380Y-65108428D01*
X141097190Y-65096333D01*
X141073000Y-65072142D01*
X141060904Y-65035857D01*
X141060904Y-65011666D01*
X141073000Y-64975380D01*
X141085095Y-64963285D01*
X141085095Y-64866523D02*
X141073000Y-64854428D01*
X141060904Y-64830238D01*
X141060904Y-64769761D01*
X141073000Y-64745571D01*
X141085095Y-64733476D01*
X141109285Y-64721380D01*
X141133476Y-64721380D01*
X141169761Y-64733476D01*
X141314904Y-64878619D01*
X141314904Y-64721380D01*
X141169761Y-64576238D02*
X141157666Y-64600428D01*
X141145571Y-64612523D01*
X141121380Y-64624619D01*
X141109285Y-64624619D01*
X141085095Y-64612523D01*
X141073000Y-64600428D01*
X141060904Y-64576238D01*
X141060904Y-64527857D01*
X141073000Y-64503666D01*
X141085095Y-64491571D01*
X141109285Y-64479476D01*
X141121380Y-64479476D01*
X141145571Y-64491571D01*
X141157666Y-64503666D01*
X141169761Y-64527857D01*
X141169761Y-64576238D01*
X141181857Y-64600428D01*
X141193952Y-64612523D01*
X141218142Y-64624619D01*
X141266523Y-64624619D01*
X141290714Y-64612523D01*
X141302809Y-64600428D01*
X141314904Y-64576238D01*
X141314904Y-64527857D01*
X141302809Y-64503666D01*
X141290714Y-64491571D01*
X141266523Y-64479476D01*
X141218142Y-64479476D01*
X141193952Y-64491571D01*
X141181857Y-64503666D01*
X141169761Y-64527857D01*
D14*
X141392547Y-64954214D02*
X141386500Y-64948166D01*
X141380452Y-64936071D01*
X141380452Y-64905833D01*
X141386500Y-64893738D01*
X141392547Y-64887690D01*
X141404642Y-64881642D01*
X141416738Y-64881642D01*
X141434880Y-64887690D01*
X141507452Y-64960261D01*
X141507452Y-64881642D01*
X141422785Y-64772785D02*
X141507452Y-64772785D01*
X141422785Y-64827214D02*
X141489309Y-64827214D01*
X141501404Y-64821166D01*
X141507452Y-64809071D01*
X141507452Y-64790928D01*
X141501404Y-64778833D01*
X141495357Y-64772785D01*
X141392547Y-64718357D02*
X141386500Y-64712309D01*
X141380452Y-64700214D01*
X141380452Y-64669976D01*
X141386500Y-64657880D01*
X141392547Y-64651833D01*
X141404642Y-64645785D01*
X141416738Y-64645785D01*
X141434880Y-64651833D01*
X141507452Y-64724404D01*
X141507452Y-64645785D01*
D13*
X141290714Y-71313285D02*
X141302809Y-71325380D01*
X141314904Y-71361666D01*
X141314904Y-71385857D01*
X141302809Y-71422142D01*
X141278619Y-71446333D01*
X141254428Y-71458428D01*
X141206047Y-71470523D01*
X141169761Y-71470523D01*
X141121380Y-71458428D01*
X141097190Y-71446333D01*
X141073000Y-71422142D01*
X141060904Y-71385857D01*
X141060904Y-71361666D01*
X141073000Y-71325380D01*
X141085095Y-71313285D01*
X141085095Y-71216523D02*
X141073000Y-71204428D01*
X141060904Y-71180238D01*
X141060904Y-71119761D01*
X141073000Y-71095571D01*
X141085095Y-71083476D01*
X141109285Y-71071380D01*
X141133476Y-71071380D01*
X141169761Y-71083476D01*
X141314904Y-71228619D01*
X141314904Y-71071380D01*
X141314904Y-70950428D02*
X141314904Y-70902047D01*
X141302809Y-70877857D01*
X141290714Y-70865761D01*
X141254428Y-70841571D01*
X141206047Y-70829476D01*
X141109285Y-70829476D01*
X141085095Y-70841571D01*
X141073000Y-70853666D01*
X141060904Y-70877857D01*
X141060904Y-70926238D01*
X141073000Y-70950428D01*
X141085095Y-70962523D01*
X141109285Y-70974619D01*
X141169761Y-70974619D01*
X141193952Y-70962523D01*
X141206047Y-70950428D01*
X141218142Y-70926238D01*
X141218142Y-70877857D01*
X141206047Y-70853666D01*
X141193952Y-70841571D01*
X141169761Y-70829476D01*
D14*
X140892547Y-71304214D02*
X140886500Y-71298166D01*
X140880452Y-71286071D01*
X140880452Y-71255833D01*
X140886500Y-71243738D01*
X140892547Y-71237690D01*
X140904642Y-71231642D01*
X140916738Y-71231642D01*
X140934880Y-71237690D01*
X141007452Y-71310261D01*
X141007452Y-71231642D01*
X140922785Y-71122785D02*
X141007452Y-71122785D01*
X140922785Y-71177214D02*
X140989309Y-71177214D01*
X141001404Y-71171166D01*
X141007452Y-71159071D01*
X141007452Y-71140928D01*
X141001404Y-71128833D01*
X140995357Y-71122785D01*
X140892547Y-71068357D02*
X140886500Y-71062309D01*
X140880452Y-71050214D01*
X140880452Y-71019976D01*
X140886500Y-71007880D01*
X140892547Y-71001833D01*
X140904642Y-70995785D01*
X140916738Y-70995785D01*
X140934880Y-71001833D01*
X141007452Y-71074404D01*
X141007452Y-70995785D01*
D13*
X112390714Y-70213285D02*
X112402809Y-70225380D01*
X112414904Y-70261666D01*
X112414904Y-70285857D01*
X112402809Y-70322142D01*
X112378619Y-70346333D01*
X112354428Y-70358428D01*
X112306047Y-70370523D01*
X112269761Y-70370523D01*
X112221380Y-70358428D01*
X112197190Y-70346333D01*
X112173000Y-70322142D01*
X112160904Y-70285857D01*
X112160904Y-70261666D01*
X112173000Y-70225380D01*
X112185095Y-70213285D01*
X112414904Y-69971380D02*
X112414904Y-70116523D01*
X112414904Y-70043952D02*
X112160904Y-70043952D01*
X112197190Y-70068142D01*
X112221380Y-70092333D01*
X112233476Y-70116523D01*
X112245571Y-69753666D02*
X112414904Y-69753666D01*
X112148809Y-69814142D02*
X112330238Y-69874619D01*
X112330238Y-69717380D01*
D14*
X112492547Y-70204214D02*
X112486500Y-70198166D01*
X112480452Y-70186071D01*
X112480452Y-70155833D01*
X112486500Y-70143738D01*
X112492547Y-70137690D01*
X112504642Y-70131642D01*
X112516738Y-70131642D01*
X112534880Y-70137690D01*
X112607452Y-70210261D01*
X112607452Y-70131642D01*
X112522785Y-70022785D02*
X112607452Y-70022785D01*
X112522785Y-70077214D02*
X112589309Y-70077214D01*
X112601404Y-70071166D01*
X112607452Y-70059071D01*
X112607452Y-70040928D01*
X112601404Y-70028833D01*
X112595357Y-70022785D01*
X112492547Y-69968357D02*
X112486500Y-69962309D01*
X112480452Y-69950214D01*
X112480452Y-69919976D01*
X112486500Y-69907880D01*
X112492547Y-69901833D01*
X112504642Y-69895785D01*
X112516738Y-69895785D01*
X112534880Y-69901833D01*
X112607452Y-69974404D01*
X112607452Y-69895785D01*
D13*
X115086714Y-55690714D02*
X115074619Y-55702809D01*
X115038333Y-55714904D01*
X115014142Y-55714904D01*
X114977857Y-55702809D01*
X114953666Y-55678619D01*
X114941571Y-55654428D01*
X114929476Y-55606047D01*
X114929476Y-55569761D01*
X114941571Y-55521380D01*
X114953666Y-55497190D01*
X114977857Y-55473000D01*
X115014142Y-55460904D01*
X115038333Y-55460904D01*
X115074619Y-55473000D01*
X115086714Y-55485095D01*
X115183476Y-55485095D02*
X115195571Y-55473000D01*
X115219761Y-55460904D01*
X115280238Y-55460904D01*
X115304428Y-55473000D01*
X115316523Y-55485095D01*
X115328619Y-55509285D01*
X115328619Y-55533476D01*
X115316523Y-55569761D01*
X115171380Y-55714904D01*
X115328619Y-55714904D01*
X115425380Y-55485095D02*
X115437476Y-55473000D01*
X115461666Y-55460904D01*
X115522142Y-55460904D01*
X115546333Y-55473000D01*
X115558428Y-55485095D01*
X115570523Y-55509285D01*
X115570523Y-55533476D01*
X115558428Y-55569761D01*
X115413285Y-55714904D01*
X115570523Y-55714904D01*
D14*
X115095785Y-55292547D02*
X115101833Y-55286500D01*
X115113928Y-55280452D01*
X115144166Y-55280452D01*
X115156261Y-55286500D01*
X115162309Y-55292547D01*
X115168357Y-55304642D01*
X115168357Y-55316738D01*
X115162309Y-55334880D01*
X115089738Y-55407452D01*
X115168357Y-55407452D01*
X115277214Y-55322785D02*
X115277214Y-55407452D01*
X115222785Y-55322785D02*
X115222785Y-55389309D01*
X115228833Y-55401404D01*
X115240928Y-55407452D01*
X115259071Y-55407452D01*
X115271166Y-55401404D01*
X115277214Y-55395357D01*
X115331642Y-55292547D02*
X115337690Y-55286500D01*
X115349785Y-55280452D01*
X115380023Y-55280452D01*
X115392119Y-55286500D01*
X115398166Y-55292547D01*
X115404214Y-55304642D01*
X115404214Y-55316738D01*
X115398166Y-55334880D01*
X115325595Y-55407452D01*
X115404214Y-55407452D01*
D13*
X112390714Y-61713285D02*
X112402809Y-61725380D01*
X112414904Y-61761666D01*
X112414904Y-61785857D01*
X112402809Y-61822142D01*
X112378619Y-61846333D01*
X112354428Y-61858428D01*
X112306047Y-61870523D01*
X112269761Y-61870523D01*
X112221380Y-61858428D01*
X112197190Y-61846333D01*
X112173000Y-61822142D01*
X112160904Y-61785857D01*
X112160904Y-61761666D01*
X112173000Y-61725380D01*
X112185095Y-61713285D01*
X112414904Y-61471380D02*
X112414904Y-61616523D01*
X112414904Y-61543952D02*
X112160904Y-61543952D01*
X112197190Y-61568142D01*
X112221380Y-61592333D01*
X112233476Y-61616523D01*
X112160904Y-61386714D02*
X112160904Y-61229476D01*
X112257666Y-61314142D01*
X112257666Y-61277857D01*
X112269761Y-61253666D01*
X112281857Y-61241571D01*
X112306047Y-61229476D01*
X112366523Y-61229476D01*
X112390714Y-61241571D01*
X112402809Y-61253666D01*
X112414904Y-61277857D01*
X112414904Y-61350428D01*
X112402809Y-61374619D01*
X112390714Y-61386714D01*
D14*
X111992547Y-61704214D02*
X111986500Y-61698166D01*
X111980452Y-61686071D01*
X111980452Y-61655833D01*
X111986500Y-61643738D01*
X111992547Y-61637690D01*
X112004642Y-61631642D01*
X112016738Y-61631642D01*
X112034880Y-61637690D01*
X112107452Y-61710261D01*
X112107452Y-61631642D01*
X112022785Y-61522785D02*
X112107452Y-61522785D01*
X112022785Y-61577214D02*
X112089309Y-61577214D01*
X112101404Y-61571166D01*
X112107452Y-61559071D01*
X112107452Y-61540928D01*
X112101404Y-61528833D01*
X112095357Y-61522785D01*
X111992547Y-61468357D02*
X111986500Y-61462309D01*
X111980452Y-61450214D01*
X111980452Y-61419976D01*
X111986500Y-61407880D01*
X111992547Y-61401833D01*
X112004642Y-61395785D01*
X112016738Y-61395785D01*
X112034880Y-61401833D01*
X112107452Y-61474404D01*
X112107452Y-61395785D01*
D13*
X119586714Y-55690714D02*
X119574619Y-55702809D01*
X119538333Y-55714904D01*
X119514142Y-55714904D01*
X119477857Y-55702809D01*
X119453666Y-55678619D01*
X119441571Y-55654428D01*
X119429476Y-55606047D01*
X119429476Y-55569761D01*
X119441571Y-55521380D01*
X119453666Y-55497190D01*
X119477857Y-55473000D01*
X119514142Y-55460904D01*
X119538333Y-55460904D01*
X119574619Y-55473000D01*
X119586714Y-55485095D01*
X119683476Y-55485095D02*
X119695571Y-55473000D01*
X119719761Y-55460904D01*
X119780238Y-55460904D01*
X119804428Y-55473000D01*
X119816523Y-55485095D01*
X119828619Y-55509285D01*
X119828619Y-55533476D01*
X119816523Y-55569761D01*
X119671380Y-55714904D01*
X119828619Y-55714904D01*
X120070523Y-55714904D02*
X119925380Y-55714904D01*
X119997952Y-55714904D02*
X119997952Y-55460904D01*
X119973761Y-55497190D01*
X119949571Y-55521380D01*
X119925380Y-55533476D01*
D14*
X119595785Y-55792547D02*
X119601833Y-55786500D01*
X119613928Y-55780452D01*
X119644166Y-55780452D01*
X119656261Y-55786500D01*
X119662309Y-55792547D01*
X119668357Y-55804642D01*
X119668357Y-55816738D01*
X119662309Y-55834880D01*
X119589738Y-55907452D01*
X119668357Y-55907452D01*
X119777214Y-55822785D02*
X119777214Y-55907452D01*
X119722785Y-55822785D02*
X119722785Y-55889309D01*
X119728833Y-55901404D01*
X119740928Y-55907452D01*
X119759071Y-55907452D01*
X119771166Y-55901404D01*
X119777214Y-55895357D01*
X119831642Y-55792547D02*
X119837690Y-55786500D01*
X119849785Y-55780452D01*
X119880023Y-55780452D01*
X119892119Y-55786500D01*
X119898166Y-55792547D01*
X119904214Y-55804642D01*
X119904214Y-55816738D01*
X119898166Y-55834880D01*
X119825595Y-55907452D01*
X119904214Y-55907452D01*
D13*
X126086714Y-55690714D02*
X126074619Y-55702809D01*
X126038333Y-55714904D01*
X126014142Y-55714904D01*
X125977857Y-55702809D01*
X125953666Y-55678619D01*
X125941571Y-55654428D01*
X125929476Y-55606047D01*
X125929476Y-55569761D01*
X125941571Y-55521380D01*
X125953666Y-55497190D01*
X125977857Y-55473000D01*
X126014142Y-55460904D01*
X126038333Y-55460904D01*
X126074619Y-55473000D01*
X126086714Y-55485095D01*
X126183476Y-55485095D02*
X126195571Y-55473000D01*
X126219761Y-55460904D01*
X126280238Y-55460904D01*
X126304428Y-55473000D01*
X126316523Y-55485095D01*
X126328619Y-55509285D01*
X126328619Y-55533476D01*
X126316523Y-55569761D01*
X126171380Y-55714904D01*
X126328619Y-55714904D01*
X126485857Y-55460904D02*
X126510047Y-55460904D01*
X126534238Y-55473000D01*
X126546333Y-55485095D01*
X126558428Y-55509285D01*
X126570523Y-55557666D01*
X126570523Y-55618142D01*
X126558428Y-55666523D01*
X126546333Y-55690714D01*
X126534238Y-55702809D01*
X126510047Y-55714904D01*
X126485857Y-55714904D01*
X126461666Y-55702809D01*
X126449571Y-55690714D01*
X126437476Y-55666523D01*
X126425380Y-55618142D01*
X126425380Y-55557666D01*
X126437476Y-55509285D01*
X126449571Y-55485095D01*
X126461666Y-55473000D01*
X126485857Y-55460904D01*
D14*
X126095785Y-55792547D02*
X126101833Y-55786500D01*
X126113928Y-55780452D01*
X126144166Y-55780452D01*
X126156261Y-55786500D01*
X126162309Y-55792547D01*
X126168357Y-55804642D01*
X126168357Y-55816738D01*
X126162309Y-55834880D01*
X126089738Y-55907452D01*
X126168357Y-55907452D01*
X126277214Y-55822785D02*
X126277214Y-55907452D01*
X126222785Y-55822785D02*
X126222785Y-55889309D01*
X126228833Y-55901404D01*
X126240928Y-55907452D01*
X126259071Y-55907452D01*
X126271166Y-55901404D01*
X126277214Y-55895357D01*
X126331642Y-55792547D02*
X126337690Y-55786500D01*
X126349785Y-55780452D01*
X126380023Y-55780452D01*
X126392119Y-55786500D01*
X126398166Y-55792547D01*
X126404214Y-55804642D01*
X126404214Y-55816738D01*
X126398166Y-55834880D01*
X126325595Y-55907452D01*
X126404214Y-55907452D01*
D13*
X131790714Y-60713285D02*
X131802809Y-60725380D01*
X131814904Y-60761666D01*
X131814904Y-60785857D01*
X131802809Y-60822142D01*
X131778619Y-60846333D01*
X131754428Y-60858428D01*
X131706047Y-60870523D01*
X131669761Y-60870523D01*
X131621380Y-60858428D01*
X131597190Y-60846333D01*
X131573000Y-60822142D01*
X131560904Y-60785857D01*
X131560904Y-60761666D01*
X131573000Y-60725380D01*
X131585095Y-60713285D01*
X131814904Y-60471380D02*
X131814904Y-60616523D01*
X131814904Y-60543952D02*
X131560904Y-60543952D01*
X131597190Y-60568142D01*
X131621380Y-60592333D01*
X131633476Y-60616523D01*
X131814904Y-60350428D02*
X131814904Y-60302047D01*
X131802809Y-60277857D01*
X131790714Y-60265761D01*
X131754428Y-60241571D01*
X131706047Y-60229476D01*
X131609285Y-60229476D01*
X131585095Y-60241571D01*
X131573000Y-60253666D01*
X131560904Y-60277857D01*
X131560904Y-60326238D01*
X131573000Y-60350428D01*
X131585095Y-60362523D01*
X131609285Y-60374619D01*
X131669761Y-60374619D01*
X131693952Y-60362523D01*
X131706047Y-60350428D01*
X131718142Y-60326238D01*
X131718142Y-60277857D01*
X131706047Y-60253666D01*
X131693952Y-60241571D01*
X131669761Y-60229476D01*
D14*
X131392547Y-60704214D02*
X131386500Y-60698166D01*
X131380452Y-60686071D01*
X131380452Y-60655833D01*
X131386500Y-60643738D01*
X131392547Y-60637690D01*
X131404642Y-60631642D01*
X131416738Y-60631642D01*
X131434880Y-60637690D01*
X131507452Y-60710261D01*
X131507452Y-60631642D01*
X131422785Y-60522785D02*
X131507452Y-60522785D01*
X131422785Y-60577214D02*
X131489309Y-60577214D01*
X131501404Y-60571166D01*
X131507452Y-60559071D01*
X131507452Y-60540928D01*
X131501404Y-60528833D01*
X131495357Y-60522785D01*
X131392547Y-60468357D02*
X131386500Y-60462309D01*
X131380452Y-60450214D01*
X131380452Y-60419976D01*
X131386500Y-60407880D01*
X131392547Y-60401833D01*
X131404642Y-60395785D01*
X131416738Y-60395785D01*
X131434880Y-60401833D01*
X131507452Y-60474404D01*
X131507452Y-60395785D01*
D13*
X131790714Y-69213285D02*
X131802809Y-69225380D01*
X131814904Y-69261666D01*
X131814904Y-69285857D01*
X131802809Y-69322142D01*
X131778619Y-69346333D01*
X131754428Y-69358428D01*
X131706047Y-69370523D01*
X131669761Y-69370523D01*
X131621380Y-69358428D01*
X131597190Y-69346333D01*
X131573000Y-69322142D01*
X131560904Y-69285857D01*
X131560904Y-69261666D01*
X131573000Y-69225380D01*
X131585095Y-69213285D01*
X131814904Y-68971380D02*
X131814904Y-69116523D01*
X131814904Y-69043952D02*
X131560904Y-69043952D01*
X131597190Y-69068142D01*
X131621380Y-69092333D01*
X131633476Y-69116523D01*
X131669761Y-68826238D02*
X131657666Y-68850428D01*
X131645571Y-68862523D01*
X131621380Y-68874619D01*
X131609285Y-68874619D01*
X131585095Y-68862523D01*
X131573000Y-68850428D01*
X131560904Y-68826238D01*
X131560904Y-68777857D01*
X131573000Y-68753666D01*
X131585095Y-68741571D01*
X131609285Y-68729476D01*
X131621380Y-68729476D01*
X131645571Y-68741571D01*
X131657666Y-68753666D01*
X131669761Y-68777857D01*
X131669761Y-68826238D01*
X131681857Y-68850428D01*
X131693952Y-68862523D01*
X131718142Y-68874619D01*
X131766523Y-68874619D01*
X131790714Y-68862523D01*
X131802809Y-68850428D01*
X131814904Y-68826238D01*
X131814904Y-68777857D01*
X131802809Y-68753666D01*
X131790714Y-68741571D01*
X131766523Y-68729476D01*
X131718142Y-68729476D01*
X131693952Y-68741571D01*
X131681857Y-68753666D01*
X131669761Y-68777857D01*
D14*
X131892547Y-69204214D02*
X131886500Y-69198166D01*
X131880452Y-69186071D01*
X131880452Y-69155833D01*
X131886500Y-69143738D01*
X131892547Y-69137690D01*
X131904642Y-69131642D01*
X131916738Y-69131642D01*
X131934880Y-69137690D01*
X132007452Y-69210261D01*
X132007452Y-69131642D01*
X131922785Y-69022785D02*
X132007452Y-69022785D01*
X131922785Y-69077214D02*
X131989309Y-69077214D01*
X132001404Y-69071166D01*
X132007452Y-69059071D01*
X132007452Y-69040928D01*
X132001404Y-69028833D01*
X131995357Y-69022785D01*
X131892547Y-68968357D02*
X131886500Y-68962309D01*
X131880452Y-68950214D01*
X131880452Y-68919976D01*
X131886500Y-68907880D01*
X131892547Y-68901833D01*
X131904642Y-68895785D01*
X131916738Y-68895785D01*
X131934880Y-68901833D01*
X132007452Y-68974404D01*
X132007452Y-68895785D01*
D13*
X125336714Y-75090714D02*
X125324619Y-75102809D01*
X125288333Y-75114904D01*
X125264142Y-75114904D01*
X125227857Y-75102809D01*
X125203666Y-75078619D01*
X125191571Y-75054428D01*
X125179476Y-75006047D01*
X125179476Y-74969761D01*
X125191571Y-74921380D01*
X125203666Y-74897190D01*
X125227857Y-74873000D01*
X125264142Y-74860904D01*
X125288333Y-74860904D01*
X125324619Y-74873000D01*
X125336714Y-74885095D01*
X125578619Y-75114904D02*
X125433476Y-75114904D01*
X125506047Y-75114904D02*
X125506047Y-74860904D01*
X125481857Y-74897190D01*
X125457666Y-74921380D01*
X125433476Y-74933476D01*
X125796333Y-74860904D02*
X125747952Y-74860904D01*
X125723761Y-74873000D01*
X125711666Y-74885095D01*
X125687476Y-74921380D01*
X125675380Y-74969761D01*
X125675380Y-75066523D01*
X125687476Y-75090714D01*
X125699571Y-75102809D01*
X125723761Y-75114904D01*
X125772142Y-75114904D01*
X125796333Y-75102809D01*
X125808428Y-75090714D01*
X125820523Y-75066523D01*
X125820523Y-75006047D01*
X125808428Y-74981857D01*
X125796333Y-74969761D01*
X125772142Y-74957666D01*
X125723761Y-74957666D01*
X125699571Y-74969761D01*
X125687476Y-74981857D01*
X125675380Y-75006047D01*
D14*
X125345785Y-74692547D02*
X125351833Y-74686500D01*
X125363928Y-74680452D01*
X125394166Y-74680452D01*
X125406261Y-74686500D01*
X125412309Y-74692547D01*
X125418357Y-74704642D01*
X125418357Y-74716738D01*
X125412309Y-74734880D01*
X125339738Y-74807452D01*
X125418357Y-74807452D01*
X125527214Y-74722785D02*
X125527214Y-74807452D01*
X125472785Y-74722785D02*
X125472785Y-74789309D01*
X125478833Y-74801404D01*
X125490928Y-74807452D01*
X125509071Y-74807452D01*
X125521166Y-74801404D01*
X125527214Y-74795357D01*
X125581642Y-74692547D02*
X125587690Y-74686500D01*
X125599785Y-74680452D01*
X125630023Y-74680452D01*
X125642119Y-74686500D01*
X125648166Y-74692547D01*
X125654214Y-74704642D01*
X125654214Y-74716738D01*
X125648166Y-74734880D01*
X125575595Y-74807452D01*
X125654214Y-74807452D01*
D13*
X128586714Y-75090714D02*
X128574619Y-75102809D01*
X128538333Y-75114904D01*
X128514142Y-75114904D01*
X128477857Y-75102809D01*
X128453666Y-75078619D01*
X128441571Y-75054428D01*
X128429476Y-75006047D01*
X128429476Y-74969761D01*
X128441571Y-74921380D01*
X128453666Y-74897190D01*
X128477857Y-74873000D01*
X128514142Y-74860904D01*
X128538333Y-74860904D01*
X128574619Y-74873000D01*
X128586714Y-74885095D01*
X128828619Y-75114904D02*
X128683476Y-75114904D01*
X128756047Y-75114904D02*
X128756047Y-74860904D01*
X128731857Y-74897190D01*
X128707666Y-74921380D01*
X128683476Y-74933476D01*
X128913285Y-74860904D02*
X129082619Y-74860904D01*
X128973761Y-75114904D01*
D14*
X128595785Y-75192547D02*
X128601833Y-75186500D01*
X128613928Y-75180452D01*
X128644166Y-75180452D01*
X128656261Y-75186500D01*
X128662309Y-75192547D01*
X128668357Y-75204642D01*
X128668357Y-75216738D01*
X128662309Y-75234880D01*
X128589738Y-75307452D01*
X128668357Y-75307452D01*
X128777214Y-75222785D02*
X128777214Y-75307452D01*
X128722785Y-75222785D02*
X128722785Y-75289309D01*
X128728833Y-75301404D01*
X128740928Y-75307452D01*
X128759071Y-75307452D01*
X128771166Y-75301404D01*
X128777214Y-75295357D01*
X128831642Y-75192547D02*
X128837690Y-75186500D01*
X128849785Y-75180452D01*
X128880023Y-75180452D01*
X128892119Y-75186500D01*
X128898166Y-75192547D01*
X128904214Y-75204642D01*
X128904214Y-75216738D01*
X128898166Y-75234880D01*
X128825595Y-75307452D01*
X128904214Y-75307452D01*
D13*
X115890714Y-79613285D02*
X115902809Y-79625380D01*
X115914904Y-79661666D01*
X115914904Y-79685857D01*
X115902809Y-79722142D01*
X115878619Y-79746333D01*
X115854428Y-79758428D01*
X115806047Y-79770523D01*
X115769761Y-79770523D01*
X115721380Y-79758428D01*
X115697190Y-79746333D01*
X115673000Y-79722142D01*
X115660904Y-79685857D01*
X115660904Y-79661666D01*
X115673000Y-79625380D01*
X115685095Y-79613285D01*
X115685095Y-79516523D02*
X115673000Y-79504428D01*
X115660904Y-79480238D01*
X115660904Y-79419761D01*
X115673000Y-79395571D01*
X115685095Y-79383476D01*
X115709285Y-79371380D01*
X115733476Y-79371380D01*
X115769761Y-79383476D01*
X115914904Y-79528619D01*
X115914904Y-79371380D01*
X115660904Y-79286714D02*
X115660904Y-79129476D01*
X115757666Y-79214142D01*
X115757666Y-79177857D01*
X115769761Y-79153666D01*
X115781857Y-79141571D01*
X115806047Y-79129476D01*
X115866523Y-79129476D01*
X115890714Y-79141571D01*
X115902809Y-79153666D01*
X115914904Y-79177857D01*
X115914904Y-79250428D01*
X115902809Y-79274619D01*
X115890714Y-79286714D01*
D14*
X115492547Y-79604214D02*
X115486500Y-79598166D01*
X115480452Y-79586071D01*
X115480452Y-79555833D01*
X115486500Y-79543738D01*
X115492547Y-79537690D01*
X115504642Y-79531642D01*
X115516738Y-79531642D01*
X115534880Y-79537690D01*
X115607452Y-79610261D01*
X115607452Y-79531642D01*
X115522785Y-79422785D02*
X115607452Y-79422785D01*
X115522785Y-79477214D02*
X115589309Y-79477214D01*
X115601404Y-79471166D01*
X115607452Y-79459071D01*
X115607452Y-79440928D01*
X115601404Y-79428833D01*
X115595357Y-79422785D01*
X115492547Y-79368357D02*
X115486500Y-79362309D01*
X115480452Y-79350214D01*
X115480452Y-79319976D01*
X115486500Y-79307880D01*
X115492547Y-79301833D01*
X115504642Y-79295785D01*
X115516738Y-79295785D01*
X115534880Y-79301833D01*
X115607452Y-79374404D01*
X115607452Y-79295785D01*
D15*
X114489895Y-47869323D02*
X115147876Y-47869323D01*
X115225285Y-47830619D01*
X115263990Y-47791914D01*
X115302695Y-47714504D01*
X115302695Y-47559685D01*
X115263990Y-47482276D01*
X115225285Y-47443571D01*
X115147876Y-47404866D01*
X114489895Y-47404866D01*
X115302695Y-46592066D02*
X115302695Y-47056523D01*
X115302695Y-46824295D02*
X114489895Y-46824295D01*
X114606009Y-46901704D01*
X114683419Y-46979114D01*
X114722123Y-47056523D01*
X114489895Y-46321133D02*
X114489895Y-45817971D01*
X114799533Y-46088904D01*
X114799533Y-45972790D01*
X114838238Y-45895380D01*
X114876942Y-45856676D01*
X114954352Y-45817971D01*
X115147876Y-45817971D01*
X115225285Y-45856676D01*
X115263990Y-45895380D01*
X115302695Y-45972790D01*
X115302695Y-46205019D01*
X115263990Y-46282428D01*
X115225285Y-46321133D01*
D12*
X114100428Y-47951571D02*
X114124619Y-47975761D01*
X114148809Y-48048333D01*
X114148809Y-48096714D01*
X114124619Y-48169285D01*
X114076238Y-48217666D01*
X114027857Y-48241857D01*
X113931095Y-48266047D01*
X113858523Y-48266047D01*
X113761761Y-48241857D01*
X113713380Y-48217666D01*
X113665000Y-48169285D01*
X113640809Y-48096714D01*
X113640809Y-48048333D01*
X113665000Y-47975761D01*
X113689190Y-47951571D01*
X114148809Y-47733857D02*
X113640809Y-47733857D01*
X113882714Y-47733857D02*
X113882714Y-47443571D01*
X114148809Y-47443571D02*
X113640809Y-47443571D01*
X113640809Y-47250047D02*
X113640809Y-46935571D01*
X113834333Y-47104904D01*
X113834333Y-47032333D01*
X113858523Y-46983952D01*
X113882714Y-46959761D01*
X113931095Y-46935571D01*
X114052047Y-46935571D01*
X114100428Y-46959761D01*
X114124619Y-46983952D01*
X114148809Y-47032333D01*
X114148809Y-47177476D01*
X114124619Y-47225857D01*
X114100428Y-47250047D01*
X113810142Y-46500142D02*
X114148809Y-46500142D01*
X113616619Y-46621095D02*
X113979476Y-46742047D01*
X113979476Y-46427571D01*
X113640809Y-46137285D02*
X113640809Y-46088904D01*
X113665000Y-46040523D01*
X113689190Y-46016333D01*
X113737571Y-45992142D01*
X113834333Y-45967952D01*
X113955285Y-45967952D01*
X114052047Y-45992142D01*
X114100428Y-46016333D01*
X114124619Y-46040523D01*
X114148809Y-46088904D01*
X114148809Y-46137285D01*
X114124619Y-46185666D01*
X114100428Y-46209857D01*
X114052047Y-46234047D01*
X113955285Y-46258238D01*
X113834333Y-46258238D01*
X113737571Y-46234047D01*
X113689190Y-46209857D01*
X113665000Y-46185666D01*
X113640809Y-46137285D01*
X113665000Y-45484142D02*
X113640809Y-45532523D01*
X113640809Y-45605095D01*
X113665000Y-45677666D01*
X113713380Y-45726047D01*
X113761761Y-45750238D01*
X113858523Y-45774428D01*
X113931095Y-45774428D01*
X114027857Y-45750238D01*
X114076238Y-45726047D01*
X114124619Y-45677666D01*
X114148809Y-45605095D01*
X114148809Y-45556714D01*
X114124619Y-45484142D01*
X114100428Y-45459952D01*
X113931095Y-45459952D01*
X113931095Y-45556714D01*
D15*
X134079066Y-39804895D02*
X134079066Y-40385466D01*
X134040361Y-40501580D01*
X133962952Y-40578990D01*
X133846838Y-40617695D01*
X133769428Y-40617695D01*
X134427409Y-39882304D02*
X134466114Y-39843600D01*
X134543523Y-39804895D01*
X134737047Y-39804895D01*
X134814457Y-39843600D01*
X134853161Y-39882304D01*
X134891866Y-39959714D01*
X134891866Y-40037123D01*
X134853161Y-40153238D01*
X134388704Y-40617695D01*
X134891866Y-40617695D01*
X131621314Y-43467695D02*
X131621314Y-42925828D01*
X131621314Y-43003238D02*
X131660019Y-42964533D01*
X131737428Y-42925828D01*
X131853542Y-42925828D01*
X131930952Y-42964533D01*
X131969657Y-43041942D01*
X131969657Y-43467695D01*
X131969657Y-43041942D02*
X132008361Y-42964533D01*
X132085771Y-42925828D01*
X132201885Y-42925828D01*
X132279295Y-42964533D01*
X132318000Y-43041942D01*
X132318000Y-43467695D01*
X132705047Y-43467695D02*
X132705047Y-42925828D01*
X132705047Y-42654895D02*
X132666342Y-42693600D01*
X132705047Y-42732304D01*
X132743752Y-42693600D01*
X132705047Y-42654895D01*
X132705047Y-42732304D01*
X133440438Y-43428990D02*
X133363028Y-43467695D01*
X133208209Y-43467695D01*
X133130800Y-43428990D01*
X133092095Y-43390285D01*
X133053390Y-43312876D01*
X133053390Y-43080647D01*
X133092095Y-43003238D01*
X133130800Y-42964533D01*
X133208209Y-42925828D01*
X133363028Y-42925828D01*
X133440438Y-42964533D01*
X133788780Y-43467695D02*
X133788780Y-42925828D01*
X133788780Y-43080647D02*
X133827485Y-43003238D01*
X133866190Y-42964533D01*
X133943600Y-42925828D01*
X134021009Y-42925828D01*
X134408057Y-43467695D02*
X134330647Y-43428990D01*
X134291942Y-43390285D01*
X134253238Y-43312876D01*
X134253238Y-43080647D01*
X134291942Y-43003238D01*
X134330647Y-42964533D01*
X134408057Y-42925828D01*
X134524171Y-42925828D01*
X134601580Y-42964533D01*
X134640285Y-43003238D01*
X134678990Y-43080647D01*
X134678990Y-43312876D01*
X134640285Y-43390285D01*
X134601580Y-43428990D01*
X134524171Y-43467695D01*
X134408057Y-43467695D01*
X135027333Y-42654895D02*
X135027333Y-43312876D01*
X135066038Y-43390285D01*
X135104742Y-43428990D01*
X135182152Y-43467695D01*
X135336971Y-43467695D01*
X135414380Y-43428990D01*
X135453085Y-43390285D01*
X135491790Y-43312876D01*
X135491790Y-42654895D01*
X135840133Y-43428990D02*
X135956247Y-43467695D01*
X136149771Y-43467695D01*
X136227180Y-43428990D01*
X136265885Y-43390285D01*
X136304590Y-43312876D01*
X136304590Y-43235466D01*
X136265885Y-43158057D01*
X136227180Y-43119352D01*
X136149771Y-43080647D01*
X135994952Y-43041942D01*
X135917542Y-43003238D01*
X135878838Y-42964533D01*
X135840133Y-42887123D01*
X135840133Y-42809714D01*
X135878838Y-42732304D01*
X135917542Y-42693600D01*
X135994952Y-42654895D01*
X136188476Y-42654895D01*
X136304590Y-42693600D01*
X136923866Y-43041942D02*
X137039980Y-43080647D01*
X137078685Y-43119352D01*
X137117390Y-43196761D01*
X137117390Y-43312876D01*
X137078685Y-43390285D01*
X137039980Y-43428990D01*
X136962571Y-43467695D01*
X136652933Y-43467695D01*
X136652933Y-42654895D01*
X136923866Y-42654895D01*
X137001276Y-42693600D01*
X137039980Y-42732304D01*
X137078685Y-42809714D01*
X137078685Y-42887123D01*
X137039980Y-42964533D01*
X137001276Y-43003238D01*
X136923866Y-43041942D01*
X136652933Y-43041942D01*
D16*
X106657428Y-70288357D02*
X106476000Y-70288357D01*
X106476000Y-69907357D01*
X106784428Y-70288357D02*
X106784428Y-69907357D01*
X106875142Y-69907357D01*
X106929571Y-69925500D01*
X106965857Y-69961785D01*
X106984000Y-69998071D01*
X107002142Y-70070642D01*
X107002142Y-70125071D01*
X106984000Y-70197642D01*
X106965857Y-70233928D01*
X106929571Y-70270214D01*
X106875142Y-70288357D01*
X106784428Y-70288357D01*
X107365000Y-70288357D02*
X107147285Y-70288357D01*
X107256142Y-70288357D02*
X107256142Y-69907357D01*
X107219857Y-69961785D01*
X107183571Y-69998071D01*
X107147285Y-70016214D01*
X107727857Y-70288357D02*
X107510142Y-70288357D01*
X107619000Y-70288357D02*
X107619000Y-69907357D01*
X107582714Y-69961785D01*
X107546428Y-69998071D01*
X107510142Y-70016214D01*
X108090714Y-70288357D02*
X107873000Y-70288357D01*
X107981857Y-70288357D02*
X107981857Y-69907357D01*
X107945571Y-69961785D01*
X107909285Y-69998071D01*
X107873000Y-70016214D01*
X108217714Y-69907357D02*
X108471714Y-69907357D01*
X108308428Y-70288357D01*
X108598714Y-70270214D02*
X108653142Y-70288357D01*
X108743857Y-70288357D01*
X108780142Y-70270214D01*
X108798285Y-70252071D01*
X108816428Y-70215785D01*
X108816428Y-70179500D01*
X108798285Y-70143214D01*
X108780142Y-70125071D01*
X108743857Y-70106928D01*
X108671285Y-70088785D01*
X108635000Y-70070642D01*
X108616857Y-70052500D01*
X108598714Y-70016214D01*
X108598714Y-69979928D01*
X108616857Y-69943642D01*
X108635000Y-69925500D01*
X108671285Y-69907357D01*
X108762000Y-69907357D01*
X108816428Y-69925500D01*
X108943428Y-69907357D02*
X109179285Y-69907357D01*
X109052285Y-70052500D01*
X109106714Y-70052500D01*
X109143000Y-70070642D01*
X109161142Y-70088785D01*
X109179285Y-70125071D01*
X109179285Y-70215785D01*
X109161142Y-70252071D01*
X109143000Y-70270214D01*
X109106714Y-70288357D01*
X108997857Y-70288357D01*
X108961571Y-70270214D01*
X108943428Y-70252071D01*
X109306285Y-69907357D02*
X109542142Y-69907357D01*
X109415142Y-70052500D01*
X109469571Y-70052500D01*
X109505857Y-70070642D01*
X109524000Y-70088785D01*
X109542142Y-70125071D01*
X109542142Y-70215785D01*
X109524000Y-70252071D01*
X109505857Y-70270214D01*
X109469571Y-70288357D01*
X109360714Y-70288357D01*
X109324428Y-70270214D01*
X109306285Y-70252071D01*
D15*
X107380723Y-68654895D02*
X107380723Y-69312876D01*
X107419428Y-69390285D01*
X107458133Y-69428990D01*
X107535542Y-69467695D01*
X107690361Y-69467695D01*
X107767771Y-69428990D01*
X107806476Y-69390285D01*
X107845180Y-69312876D01*
X107845180Y-68654895D01*
X108154819Y-68654895D02*
X108657980Y-68654895D01*
X108387047Y-68964533D01*
X108503161Y-68964533D01*
X108580571Y-69003238D01*
X108619276Y-69041942D01*
X108657980Y-69119352D01*
X108657980Y-69312876D01*
X108619276Y-69390285D01*
X108580571Y-69428990D01*
X108503161Y-69467695D01*
X108270933Y-69467695D01*
X108193523Y-69428990D01*
X108154819Y-69390285D01*
D13*
X117756476Y-79510904D02*
X117756476Y-79716523D01*
X117768571Y-79740714D01*
X117780666Y-79752809D01*
X117804857Y-79764904D01*
X117853238Y-79764904D01*
X117877428Y-79752809D01*
X117889523Y-79740714D01*
X117901619Y-79716523D01*
X117901619Y-79510904D01*
X117998380Y-79510904D02*
X118167714Y-79510904D01*
X118058857Y-79764904D01*
D17*
X116970285Y-79195678D02*
X117097285Y-79195678D01*
X117015642Y-79386178D01*
X117251500Y-79259178D02*
X117251500Y-79386178D01*
X117206142Y-79186607D02*
X117160785Y-79322678D01*
X117278714Y-79322678D01*
X117442000Y-79386178D02*
X117351285Y-79386178D01*
X117351285Y-79195678D01*
X117478285Y-79195678D02*
X117541785Y-79386178D01*
X117605285Y-79195678D01*
X117777642Y-79368035D02*
X117768571Y-79377107D01*
X117741357Y-79386178D01*
X117723214Y-79386178D01*
X117696000Y-79377107D01*
X117677857Y-79358964D01*
X117668785Y-79340821D01*
X117659714Y-79304535D01*
X117659714Y-79277321D01*
X117668785Y-79241035D01*
X117677857Y-79222892D01*
X117696000Y-79204750D01*
X117723214Y-79195678D01*
X117741357Y-79195678D01*
X117768571Y-79204750D01*
X117777642Y-79213821D01*
X117959071Y-79386178D02*
X117850214Y-79386178D01*
X117904642Y-79386178D02*
X117904642Y-79195678D01*
X117886500Y-79222892D01*
X117868357Y-79241035D01*
X117850214Y-79250107D01*
X118140500Y-79204750D02*
X118122357Y-79195678D01*
X118095142Y-79195678D01*
X118067928Y-79204750D01*
X118049785Y-79222892D01*
X118040714Y-79241035D01*
X118031642Y-79277321D01*
X118031642Y-79304535D01*
X118040714Y-79340821D01*
X118049785Y-79358964D01*
X118067928Y-79377107D01*
X118095142Y-79386178D01*
X118113285Y-79386178D01*
X118140500Y-79377107D01*
X118149571Y-79368035D01*
X118149571Y-79304535D01*
X118113285Y-79304535D01*
X118267500Y-79195678D02*
X118285642Y-79195678D01*
X118303785Y-79204750D01*
X118312857Y-79213821D01*
X118321928Y-79231964D01*
X118331000Y-79268250D01*
X118331000Y-79313607D01*
X118321928Y-79349892D01*
X118312857Y-79368035D01*
X118303785Y-79377107D01*
X118285642Y-79386178D01*
X118267500Y-79386178D01*
X118249357Y-79377107D01*
X118240285Y-79368035D01*
X118231214Y-79349892D01*
X118222142Y-79313607D01*
X118222142Y-79268250D01*
X118231214Y-79231964D01*
X118240285Y-79213821D01*
X118249357Y-79204750D01*
X118267500Y-79195678D01*
X118494285Y-79259178D02*
X118494285Y-79386178D01*
X118448928Y-79186607D02*
X118403571Y-79322678D01*
X118521500Y-79322678D01*
X118693857Y-79204750D02*
X118675714Y-79195678D01*
X118648500Y-79195678D01*
X118621285Y-79204750D01*
X118603142Y-79222892D01*
X118594071Y-79241035D01*
X118585000Y-79277321D01*
X118585000Y-79304535D01*
X118594071Y-79340821D01*
X118603142Y-79358964D01*
X118621285Y-79377107D01*
X118648500Y-79386178D01*
X118666642Y-79386178D01*
X118693857Y-79377107D01*
X118702928Y-79368035D01*
X118702928Y-79304535D01*
X118666642Y-79304535D01*
X118766428Y-79195678D02*
X118811785Y-79386178D01*
X118848071Y-79250107D01*
X118884357Y-79386178D01*
X118929714Y-79195678D01*
D13*
X116386714Y-75090714D02*
X116374619Y-75102809D01*
X116338333Y-75114904D01*
X116314142Y-75114904D01*
X116277857Y-75102809D01*
X116253666Y-75078619D01*
X116241571Y-75054428D01*
X116229476Y-75006047D01*
X116229476Y-74969761D01*
X116241571Y-74921380D01*
X116253666Y-74897190D01*
X116277857Y-74873000D01*
X116314142Y-74860904D01*
X116338333Y-74860904D01*
X116374619Y-74873000D01*
X116386714Y-74885095D01*
X116628619Y-75114904D02*
X116483476Y-75114904D01*
X116556047Y-75114904D02*
X116556047Y-74860904D01*
X116531857Y-74897190D01*
X116507666Y-74921380D01*
X116483476Y-74933476D01*
X116858428Y-74860904D02*
X116737476Y-74860904D01*
X116725380Y-74981857D01*
X116737476Y-74969761D01*
X116761666Y-74957666D01*
X116822142Y-74957666D01*
X116846333Y-74969761D01*
X116858428Y-74981857D01*
X116870523Y-75006047D01*
X116870523Y-75066523D01*
X116858428Y-75090714D01*
X116846333Y-75102809D01*
X116822142Y-75114904D01*
X116761666Y-75114904D01*
X116737476Y-75102809D01*
X116725380Y-75090714D01*
D14*
X116395785Y-75192547D02*
X116401833Y-75186500D01*
X116413928Y-75180452D01*
X116444166Y-75180452D01*
X116456261Y-75186500D01*
X116462309Y-75192547D01*
X116468357Y-75204642D01*
X116468357Y-75216738D01*
X116462309Y-75234880D01*
X116389738Y-75307452D01*
X116468357Y-75307452D01*
X116577214Y-75222785D02*
X116577214Y-75307452D01*
X116522785Y-75222785D02*
X116522785Y-75289309D01*
X116528833Y-75301404D01*
X116540928Y-75307452D01*
X116559071Y-75307452D01*
X116571166Y-75301404D01*
X116577214Y-75295357D01*
X116631642Y-75192547D02*
X116637690Y-75186500D01*
X116649785Y-75180452D01*
X116680023Y-75180452D01*
X116692119Y-75186500D01*
X116698166Y-75192547D01*
X116704214Y-75204642D01*
X116704214Y-75216738D01*
X116698166Y-75234880D01*
X116625595Y-75307452D01*
X116704214Y-75307452D01*
D13*
X149890714Y-79963285D02*
X149902809Y-79975380D01*
X149914904Y-80011666D01*
X149914904Y-80035857D01*
X149902809Y-80072142D01*
X149878619Y-80096333D01*
X149854428Y-80108428D01*
X149806047Y-80120523D01*
X149769761Y-80120523D01*
X149721380Y-80108428D01*
X149697190Y-80096333D01*
X149673000Y-80072142D01*
X149660904Y-80035857D01*
X149660904Y-80011666D01*
X149673000Y-79975380D01*
X149685095Y-79963285D01*
X149914904Y-79721380D02*
X149914904Y-79866523D01*
X149914904Y-79793952D02*
X149660904Y-79793952D01*
X149697190Y-79818142D01*
X149721380Y-79842333D01*
X149733476Y-79866523D01*
X149685095Y-79624619D02*
X149673000Y-79612523D01*
X149660904Y-79588333D01*
X149660904Y-79527857D01*
X149673000Y-79503666D01*
X149685095Y-79491571D01*
X149709285Y-79479476D01*
X149733476Y-79479476D01*
X149769761Y-79491571D01*
X149914904Y-79636714D01*
X149914904Y-79479476D01*
D14*
X149492547Y-79954214D02*
X149486500Y-79948166D01*
X149480452Y-79936071D01*
X149480452Y-79905833D01*
X149486500Y-79893738D01*
X149492547Y-79887690D01*
X149504642Y-79881642D01*
X149516738Y-79881642D01*
X149534880Y-79887690D01*
X149607452Y-79960261D01*
X149607452Y-79881642D01*
X149522785Y-79772785D02*
X149607452Y-79772785D01*
X149522785Y-79827214D02*
X149589309Y-79827214D01*
X149601404Y-79821166D01*
X149607452Y-79809071D01*
X149607452Y-79790928D01*
X149601404Y-79778833D01*
X149595357Y-79772785D01*
X149492547Y-79718357D02*
X149486500Y-79712309D01*
X149480452Y-79700214D01*
X149480452Y-79669976D01*
X149486500Y-79657880D01*
X149492547Y-79651833D01*
X149504642Y-79645785D01*
X149516738Y-79645785D01*
X149534880Y-79651833D01*
X149607452Y-79724404D01*
X149607452Y-79645785D01*
D13*
X140690714Y-79963285D02*
X140702809Y-79975380D01*
X140714904Y-80011666D01*
X140714904Y-80035857D01*
X140702809Y-80072142D01*
X140678619Y-80096333D01*
X140654428Y-80108428D01*
X140606047Y-80120523D01*
X140569761Y-80120523D01*
X140521380Y-80108428D01*
X140497190Y-80096333D01*
X140473000Y-80072142D01*
X140460904Y-80035857D01*
X140460904Y-80011666D01*
X140473000Y-79975380D01*
X140485095Y-79963285D01*
X140714904Y-79721380D02*
X140714904Y-79866523D01*
X140714904Y-79793952D02*
X140460904Y-79793952D01*
X140497190Y-79818142D01*
X140521380Y-79842333D01*
X140533476Y-79866523D01*
X140714904Y-79479476D02*
X140714904Y-79624619D01*
X140714904Y-79552047D02*
X140460904Y-79552047D01*
X140497190Y-79576238D01*
X140521380Y-79600428D01*
X140533476Y-79624619D01*
D14*
X140292547Y-79954214D02*
X140286500Y-79948166D01*
X140280452Y-79936071D01*
X140280452Y-79905833D01*
X140286500Y-79893738D01*
X140292547Y-79887690D01*
X140304642Y-79881642D01*
X140316738Y-79881642D01*
X140334880Y-79887690D01*
X140407452Y-79960261D01*
X140407452Y-79881642D01*
X140322785Y-79772785D02*
X140407452Y-79772785D01*
X140322785Y-79827214D02*
X140389309Y-79827214D01*
X140401404Y-79821166D01*
X140407452Y-79809071D01*
X140407452Y-79790928D01*
X140401404Y-79778833D01*
X140395357Y-79772785D01*
X140292547Y-79718357D02*
X140286500Y-79712309D01*
X140280452Y-79700214D01*
X140280452Y-79669976D01*
X140286500Y-79657880D01*
X140292547Y-79651833D01*
X140304642Y-79645785D01*
X140316738Y-79645785D01*
X140334880Y-79651833D01*
X140407452Y-79724404D01*
X140407452Y-79645785D01*
D13*
X131440714Y-79963285D02*
X131452809Y-79975380D01*
X131464904Y-80011666D01*
X131464904Y-80035857D01*
X131452809Y-80072142D01*
X131428619Y-80096333D01*
X131404428Y-80108428D01*
X131356047Y-80120523D01*
X131319761Y-80120523D01*
X131271380Y-80108428D01*
X131247190Y-80096333D01*
X131223000Y-80072142D01*
X131210904Y-80035857D01*
X131210904Y-80011666D01*
X131223000Y-79975380D01*
X131235095Y-79963285D01*
X131464904Y-79721380D02*
X131464904Y-79866523D01*
X131464904Y-79793952D02*
X131210904Y-79793952D01*
X131247190Y-79818142D01*
X131271380Y-79842333D01*
X131283476Y-79866523D01*
X131210904Y-79564142D02*
X131210904Y-79539952D01*
X131223000Y-79515761D01*
X131235095Y-79503666D01*
X131259285Y-79491571D01*
X131307666Y-79479476D01*
X131368142Y-79479476D01*
X131416523Y-79491571D01*
X131440714Y-79503666D01*
X131452809Y-79515761D01*
X131464904Y-79539952D01*
X131464904Y-79564142D01*
X131452809Y-79588333D01*
X131440714Y-79600428D01*
X131416523Y-79612523D01*
X131368142Y-79624619D01*
X131307666Y-79624619D01*
X131259285Y-79612523D01*
X131235095Y-79600428D01*
X131223000Y-79588333D01*
X131210904Y-79564142D01*
D14*
X131042547Y-79954214D02*
X131036500Y-79948166D01*
X131030452Y-79936071D01*
X131030452Y-79905833D01*
X131036500Y-79893738D01*
X131042547Y-79887690D01*
X131054642Y-79881642D01*
X131066738Y-79881642D01*
X131084880Y-79887690D01*
X131157452Y-79960261D01*
X131157452Y-79881642D01*
X131072785Y-79772785D02*
X131157452Y-79772785D01*
X131072785Y-79827214D02*
X131139309Y-79827214D01*
X131151404Y-79821166D01*
X131157452Y-79809071D01*
X131157452Y-79790928D01*
X131151404Y-79778833D01*
X131145357Y-79772785D01*
X131042547Y-79718357D02*
X131036500Y-79712309D01*
X131030452Y-79700214D01*
X131030452Y-79669976D01*
X131036500Y-79657880D01*
X131042547Y-79651833D01*
X131054642Y-79645785D01*
X131066738Y-79645785D01*
X131084880Y-79651833D01*
X131157452Y-79724404D01*
X131157452Y-79645785D01*
D13*
X120490714Y-79842333D02*
X120502809Y-79854428D01*
X120514904Y-79890714D01*
X120514904Y-79914904D01*
X120502809Y-79951190D01*
X120478619Y-79975380D01*
X120454428Y-79987476D01*
X120406047Y-79999571D01*
X120369761Y-79999571D01*
X120321380Y-79987476D01*
X120297190Y-79975380D01*
X120273000Y-79951190D01*
X120260904Y-79914904D01*
X120260904Y-79890714D01*
X120273000Y-79854428D01*
X120285095Y-79842333D01*
X120514904Y-79721380D02*
X120514904Y-79673000D01*
X120502809Y-79648809D01*
X120490714Y-79636714D01*
X120454428Y-79612523D01*
X120406047Y-79600428D01*
X120309285Y-79600428D01*
X120285095Y-79612523D01*
X120273000Y-79624619D01*
X120260904Y-79648809D01*
X120260904Y-79697190D01*
X120273000Y-79721380D01*
X120285095Y-79733476D01*
X120309285Y-79745571D01*
X120369761Y-79745571D01*
X120393952Y-79733476D01*
X120406047Y-79721380D01*
X120418142Y-79697190D01*
X120418142Y-79648809D01*
X120406047Y-79624619D01*
X120393952Y-79612523D01*
X120369761Y-79600428D01*
D14*
X120092547Y-79954214D02*
X120086500Y-79948166D01*
X120080452Y-79936071D01*
X120080452Y-79905833D01*
X120086500Y-79893738D01*
X120092547Y-79887690D01*
X120104642Y-79881642D01*
X120116738Y-79881642D01*
X120134880Y-79887690D01*
X120207452Y-79960261D01*
X120207452Y-79881642D01*
X120122785Y-79772785D02*
X120207452Y-79772785D01*
X120122785Y-79827214D02*
X120189309Y-79827214D01*
X120201404Y-79821166D01*
X120207452Y-79809071D01*
X120207452Y-79790928D01*
X120201404Y-79778833D01*
X120195357Y-79772785D01*
X120092547Y-79718357D02*
X120086500Y-79712309D01*
X120080452Y-79700214D01*
X120080452Y-79669976D01*
X120086500Y-79657880D01*
X120092547Y-79651833D01*
X120104642Y-79645785D01*
X120116738Y-79645785D01*
X120134880Y-79651833D01*
X120207452Y-79724404D01*
X120207452Y-79645785D01*
D13*
X108590714Y-79842333D02*
X108602809Y-79854428D01*
X108614904Y-79890714D01*
X108614904Y-79914904D01*
X108602809Y-79951190D01*
X108578619Y-79975380D01*
X108554428Y-79987476D01*
X108506047Y-79999571D01*
X108469761Y-79999571D01*
X108421380Y-79987476D01*
X108397190Y-79975380D01*
X108373000Y-79951190D01*
X108360904Y-79914904D01*
X108360904Y-79890714D01*
X108373000Y-79854428D01*
X108385095Y-79842333D01*
X108469761Y-79697190D02*
X108457666Y-79721380D01*
X108445571Y-79733476D01*
X108421380Y-79745571D01*
X108409285Y-79745571D01*
X108385095Y-79733476D01*
X108373000Y-79721380D01*
X108360904Y-79697190D01*
X108360904Y-79648809D01*
X108373000Y-79624619D01*
X108385095Y-79612523D01*
X108409285Y-79600428D01*
X108421380Y-79600428D01*
X108445571Y-79612523D01*
X108457666Y-79624619D01*
X108469761Y-79648809D01*
X108469761Y-79697190D01*
X108481857Y-79721380D01*
X108493952Y-79733476D01*
X108518142Y-79745571D01*
X108566523Y-79745571D01*
X108590714Y-79733476D01*
X108602809Y-79721380D01*
X108614904Y-79697190D01*
X108614904Y-79648809D01*
X108602809Y-79624619D01*
X108590714Y-79612523D01*
X108566523Y-79600428D01*
X108518142Y-79600428D01*
X108493952Y-79612523D01*
X108481857Y-79624619D01*
X108469761Y-79648809D01*
D14*
X108192547Y-79954214D02*
X108186500Y-79948166D01*
X108180452Y-79936071D01*
X108180452Y-79905833D01*
X108186500Y-79893738D01*
X108192547Y-79887690D01*
X108204642Y-79881642D01*
X108216738Y-79881642D01*
X108234880Y-79887690D01*
X108307452Y-79960261D01*
X108307452Y-79881642D01*
X108222785Y-79772785D02*
X108307452Y-79772785D01*
X108222785Y-79827214D02*
X108289309Y-79827214D01*
X108301404Y-79821166D01*
X108307452Y-79809071D01*
X108307452Y-79790928D01*
X108301404Y-79778833D01*
X108295357Y-79772785D01*
X108192547Y-79718357D02*
X108186500Y-79712309D01*
X108180452Y-79700214D01*
X108180452Y-79669976D01*
X108186500Y-79657880D01*
X108192547Y-79651833D01*
X108204642Y-79645785D01*
X108216738Y-79645785D01*
X108234880Y-79651833D01*
X108307452Y-79724404D01*
X108307452Y-79645785D01*
D15*
X111380723Y-81554895D02*
X111380723Y-82212876D01*
X111419428Y-82290285D01*
X111458133Y-82328990D01*
X111535542Y-82367695D01*
X111690361Y-82367695D01*
X111767771Y-82328990D01*
X111806476Y-82290285D01*
X111845180Y-82212876D01*
X111845180Y-81554895D01*
X112580571Y-81554895D02*
X112425752Y-81554895D01*
X112348342Y-81593600D01*
X112309638Y-81632304D01*
X112232228Y-81748419D01*
X112193523Y-81903238D01*
X112193523Y-82212876D01*
X112232228Y-82290285D01*
X112270933Y-82328990D01*
X112348342Y-82367695D01*
X112503161Y-82367695D01*
X112580571Y-82328990D01*
X112619276Y-82290285D01*
X112657980Y-82212876D01*
X112657980Y-82019352D01*
X112619276Y-81941942D01*
X112580571Y-81903238D01*
X112503161Y-81864533D01*
X112348342Y-81864533D01*
X112270933Y-81903238D01*
X112232228Y-81941942D01*
X112193523Y-82019352D01*
D16*
X110185714Y-82791357D02*
X110439714Y-82791357D01*
X110276428Y-83172357D01*
X110748142Y-82918357D02*
X110748142Y-83172357D01*
X110657428Y-82773214D02*
X110566714Y-83045357D01*
X110802571Y-83045357D01*
X110929571Y-83063500D02*
X111111000Y-83063500D01*
X110893285Y-83172357D02*
X111020285Y-82791357D01*
X111147285Y-83172357D01*
X111274285Y-83172357D02*
X111274285Y-82791357D01*
X111274285Y-82972785D02*
X111492000Y-82972785D01*
X111492000Y-83172357D02*
X111492000Y-82791357D01*
X111891142Y-83136071D02*
X111873000Y-83154214D01*
X111818571Y-83172357D01*
X111782285Y-83172357D01*
X111727857Y-83154214D01*
X111691571Y-83117928D01*
X111673428Y-83081642D01*
X111655285Y-83009071D01*
X111655285Y-82954642D01*
X111673428Y-82882071D01*
X111691571Y-82845785D01*
X111727857Y-82809500D01*
X111782285Y-82791357D01*
X111818571Y-82791357D01*
X111873000Y-82809500D01*
X111891142Y-82827642D01*
X112254000Y-83172357D02*
X112036285Y-83172357D01*
X112145142Y-83172357D02*
X112145142Y-82791357D01*
X112108857Y-82845785D01*
X112072571Y-82882071D01*
X112036285Y-82900214D01*
X112399142Y-82827642D02*
X112417285Y-82809500D01*
X112453571Y-82791357D01*
X112544285Y-82791357D01*
X112580571Y-82809500D01*
X112598714Y-82827642D01*
X112616857Y-82863928D01*
X112616857Y-82900214D01*
X112598714Y-82954642D01*
X112381000Y-83172357D01*
X112616857Y-83172357D01*
X112961571Y-82791357D02*
X112780142Y-82791357D01*
X112762000Y-82972785D01*
X112780142Y-82954642D01*
X112816428Y-82936500D01*
X112907142Y-82936500D01*
X112943428Y-82954642D01*
X112961571Y-82972785D01*
X112979714Y-83009071D01*
X112979714Y-83099785D01*
X112961571Y-83136071D01*
X112943428Y-83154214D01*
X112907142Y-83172357D01*
X112816428Y-83172357D01*
X112780142Y-83154214D01*
X112762000Y-83136071D01*
X113143000Y-83172357D02*
X113143000Y-82791357D01*
X113288142Y-82791357D01*
X113324428Y-82809500D01*
X113342571Y-82827642D01*
X113360714Y-82863928D01*
X113360714Y-82918357D01*
X113342571Y-82954642D01*
X113324428Y-82972785D01*
X113288142Y-82990928D01*
X113143000Y-82990928D01*
X113487714Y-82791357D02*
X113578428Y-83172357D01*
X113651000Y-82900214D01*
X113723571Y-83172357D01*
X113814285Y-82791357D01*
D15*
X153555723Y-81554895D02*
X153555723Y-82212876D01*
X153594428Y-82290285D01*
X153633133Y-82328990D01*
X153710542Y-82367695D01*
X153865361Y-82367695D01*
X153942771Y-82328990D01*
X153981476Y-82290285D01*
X154020180Y-82212876D01*
X154020180Y-81554895D01*
X154755571Y-81825828D02*
X154755571Y-82367695D01*
X154562047Y-81516190D02*
X154368523Y-82096761D01*
X154871685Y-82096761D01*
D12*
X151755952Y-82737809D02*
X152094619Y-82737809D01*
X151876904Y-83245809D01*
X152505857Y-82907142D02*
X152505857Y-83245809D01*
X152384904Y-82713619D02*
X152263952Y-83076476D01*
X152578428Y-83076476D01*
X152747761Y-83100666D02*
X152989666Y-83100666D01*
X152699380Y-83245809D02*
X152868714Y-82737809D01*
X153038047Y-83245809D01*
X153207380Y-83245809D02*
X153207380Y-82737809D01*
X153207380Y-82979714D02*
X153497666Y-82979714D01*
X153497666Y-83245809D02*
X153497666Y-82737809D01*
X154029857Y-83197428D02*
X154005666Y-83221619D01*
X153933095Y-83245809D01*
X153884714Y-83245809D01*
X153812142Y-83221619D01*
X153763761Y-83173238D01*
X153739571Y-83124857D01*
X153715380Y-83028095D01*
X153715380Y-82955523D01*
X153739571Y-82858761D01*
X153763761Y-82810380D01*
X153812142Y-82762000D01*
X153884714Y-82737809D01*
X153933095Y-82737809D01*
X154005666Y-82762000D01*
X154029857Y-82786190D01*
X154223380Y-82786190D02*
X154247571Y-82762000D01*
X154295952Y-82737809D01*
X154416904Y-82737809D01*
X154465285Y-82762000D01*
X154489476Y-82786190D01*
X154513666Y-82834571D01*
X154513666Y-82882952D01*
X154489476Y-82955523D01*
X154199190Y-83245809D01*
X154513666Y-83245809D01*
X154949095Y-82907142D02*
X154949095Y-83245809D01*
X154828142Y-82713619D02*
X154707190Y-83076476D01*
X155021666Y-83076476D01*
X155457095Y-82737809D02*
X155215190Y-82737809D01*
X155191000Y-82979714D01*
X155215190Y-82955523D01*
X155263571Y-82931333D01*
X155384523Y-82931333D01*
X155432904Y-82955523D01*
X155457095Y-82979714D01*
X155481285Y-83028095D01*
X155481285Y-83149047D01*
X155457095Y-83197428D01*
X155432904Y-83221619D01*
X155384523Y-83245809D01*
X155263571Y-83245809D01*
X155215190Y-83221619D01*
X155191000Y-83197428D01*
X155699000Y-83245809D02*
X155699000Y-82737809D01*
X155892523Y-82737809D01*
X155940904Y-82762000D01*
X155965095Y-82786190D01*
X155989285Y-82834571D01*
X155989285Y-82907142D01*
X155965095Y-82955523D01*
X155940904Y-82979714D01*
X155892523Y-83003904D01*
X155699000Y-83003904D01*
X156158619Y-82737809D02*
X156279571Y-83245809D01*
X156376333Y-82882952D01*
X156473095Y-83245809D01*
X156594047Y-82737809D01*
D15*
X144355723Y-81554895D02*
X144355723Y-82212876D01*
X144394428Y-82290285D01*
X144433133Y-82328990D01*
X144510542Y-82367695D01*
X144665361Y-82367695D01*
X144742771Y-82328990D01*
X144781476Y-82290285D01*
X144820180Y-82212876D01*
X144820180Y-81554895D01*
X145632980Y-82367695D02*
X145168523Y-82367695D01*
X145400752Y-82367695D02*
X145400752Y-81554895D01*
X145323342Y-81671009D01*
X145245933Y-81748419D01*
X145168523Y-81787123D01*
D12*
X142555952Y-82737809D02*
X142894619Y-82737809D01*
X142676904Y-83245809D01*
X143305857Y-82907142D02*
X143305857Y-83245809D01*
X143184904Y-82713619D02*
X143063952Y-83076476D01*
X143378428Y-83076476D01*
X143547761Y-83100666D02*
X143789666Y-83100666D01*
X143499380Y-83245809D02*
X143668714Y-82737809D01*
X143838047Y-83245809D01*
X144007380Y-83245809D02*
X144007380Y-82737809D01*
X144007380Y-82979714D02*
X144297666Y-82979714D01*
X144297666Y-83245809D02*
X144297666Y-82737809D01*
X144829857Y-83197428D02*
X144805666Y-83221619D01*
X144733095Y-83245809D01*
X144684714Y-83245809D01*
X144612142Y-83221619D01*
X144563761Y-83173238D01*
X144539571Y-83124857D01*
X144515380Y-83028095D01*
X144515380Y-82955523D01*
X144539571Y-82858761D01*
X144563761Y-82810380D01*
X144612142Y-82762000D01*
X144684714Y-82737809D01*
X144733095Y-82737809D01*
X144805666Y-82762000D01*
X144829857Y-82786190D01*
X145023380Y-82786190D02*
X145047571Y-82762000D01*
X145095952Y-82737809D01*
X145216904Y-82737809D01*
X145265285Y-82762000D01*
X145289476Y-82786190D01*
X145313666Y-82834571D01*
X145313666Y-82882952D01*
X145289476Y-82955523D01*
X144999190Y-83245809D01*
X145313666Y-83245809D01*
X145749095Y-82907142D02*
X145749095Y-83245809D01*
X145628142Y-82713619D02*
X145507190Y-83076476D01*
X145821666Y-83076476D01*
X146257095Y-82737809D02*
X146015190Y-82737809D01*
X145991000Y-82979714D01*
X146015190Y-82955523D01*
X146063571Y-82931333D01*
X146184523Y-82931333D01*
X146232904Y-82955523D01*
X146257095Y-82979714D01*
X146281285Y-83028095D01*
X146281285Y-83149047D01*
X146257095Y-83197428D01*
X146232904Y-83221619D01*
X146184523Y-83245809D01*
X146063571Y-83245809D01*
X146015190Y-83221619D01*
X145991000Y-83197428D01*
X146499000Y-83245809D02*
X146499000Y-82737809D01*
X146692523Y-82737809D01*
X146740904Y-82762000D01*
X146765095Y-82786190D01*
X146789285Y-82834571D01*
X146789285Y-82907142D01*
X146765095Y-82955523D01*
X146740904Y-82979714D01*
X146692523Y-83003904D01*
X146499000Y-83003904D01*
X146958619Y-82737809D02*
X147079571Y-83245809D01*
X147176333Y-82882952D01*
X147273095Y-83245809D01*
X147394047Y-82737809D01*
D15*
X135155723Y-81554895D02*
X135155723Y-82212876D01*
X135194428Y-82290285D01*
X135233133Y-82328990D01*
X135310542Y-82367695D01*
X135465361Y-82367695D01*
X135542771Y-82328990D01*
X135581476Y-82290285D01*
X135620180Y-82212876D01*
X135620180Y-81554895D01*
X135968523Y-81632304D02*
X136007228Y-81593600D01*
X136084638Y-81554895D01*
X136278161Y-81554895D01*
X136355571Y-81593600D01*
X136394276Y-81632304D01*
X136432980Y-81709714D01*
X136432980Y-81787123D01*
X136394276Y-81903238D01*
X135929819Y-82367695D01*
X136432980Y-82367695D01*
D12*
X133355952Y-82737809D02*
X133694619Y-82737809D01*
X133476904Y-83245809D01*
X134105857Y-82907142D02*
X134105857Y-83245809D01*
X133984904Y-82713619D02*
X133863952Y-83076476D01*
X134178428Y-83076476D01*
X134347761Y-83100666D02*
X134589666Y-83100666D01*
X134299380Y-83245809D02*
X134468714Y-82737809D01*
X134638047Y-83245809D01*
X134807380Y-83245809D02*
X134807380Y-82737809D01*
X134807380Y-82979714D02*
X135097666Y-82979714D01*
X135097666Y-83245809D02*
X135097666Y-82737809D01*
X135629857Y-83197428D02*
X135605666Y-83221619D01*
X135533095Y-83245809D01*
X135484714Y-83245809D01*
X135412142Y-83221619D01*
X135363761Y-83173238D01*
X135339571Y-83124857D01*
X135315380Y-83028095D01*
X135315380Y-82955523D01*
X135339571Y-82858761D01*
X135363761Y-82810380D01*
X135412142Y-82762000D01*
X135484714Y-82737809D01*
X135533095Y-82737809D01*
X135605666Y-82762000D01*
X135629857Y-82786190D01*
X135823380Y-82786190D02*
X135847571Y-82762000D01*
X135895952Y-82737809D01*
X136016904Y-82737809D01*
X136065285Y-82762000D01*
X136089476Y-82786190D01*
X136113666Y-82834571D01*
X136113666Y-82882952D01*
X136089476Y-82955523D01*
X135799190Y-83245809D01*
X136113666Y-83245809D01*
X136549095Y-82907142D02*
X136549095Y-83245809D01*
X136428142Y-82713619D02*
X136307190Y-83076476D01*
X136621666Y-83076476D01*
X137057095Y-82737809D02*
X136815190Y-82737809D01*
X136791000Y-82979714D01*
X136815190Y-82955523D01*
X136863571Y-82931333D01*
X136984523Y-82931333D01*
X137032904Y-82955523D01*
X137057095Y-82979714D01*
X137081285Y-83028095D01*
X137081285Y-83149047D01*
X137057095Y-83197428D01*
X137032904Y-83221619D01*
X136984523Y-83245809D01*
X136863571Y-83245809D01*
X136815190Y-83221619D01*
X136791000Y-83197428D01*
X137299000Y-83245809D02*
X137299000Y-82737809D01*
X137492523Y-82737809D01*
X137540904Y-82762000D01*
X137565095Y-82786190D01*
X137589285Y-82834571D01*
X137589285Y-82907142D01*
X137565095Y-82955523D01*
X137540904Y-82979714D01*
X137492523Y-83003904D01*
X137299000Y-83003904D01*
X137758619Y-82737809D02*
X137879571Y-83245809D01*
X137976333Y-82882952D01*
X138073095Y-83245809D01*
X138194047Y-82737809D01*
D15*
X124205723Y-81554895D02*
X124205723Y-82212876D01*
X124244428Y-82290285D01*
X124283133Y-82328990D01*
X124360542Y-82367695D01*
X124515361Y-82367695D01*
X124592771Y-82328990D01*
X124631476Y-82290285D01*
X124670180Y-82212876D01*
X124670180Y-81554895D01*
X125444276Y-81554895D02*
X125057228Y-81554895D01*
X125018523Y-81941942D01*
X125057228Y-81903238D01*
X125134638Y-81864533D01*
X125328161Y-81864533D01*
X125405571Y-81903238D01*
X125444276Y-81941942D01*
X125482980Y-82019352D01*
X125482980Y-82212876D01*
X125444276Y-82290285D01*
X125405571Y-82328990D01*
X125328161Y-82367695D01*
X125134638Y-82367695D01*
X125057228Y-82328990D01*
X125018523Y-82290285D01*
D12*
X122405952Y-82737809D02*
X122744619Y-82737809D01*
X122526904Y-83245809D01*
X123155857Y-82907142D02*
X123155857Y-83245809D01*
X123034904Y-82713619D02*
X122913952Y-83076476D01*
X123228428Y-83076476D01*
X123397761Y-83100666D02*
X123639666Y-83100666D01*
X123349380Y-83245809D02*
X123518714Y-82737809D01*
X123688047Y-83245809D01*
X123857380Y-83245809D02*
X123857380Y-82737809D01*
X123857380Y-82979714D02*
X124147666Y-82979714D01*
X124147666Y-83245809D02*
X124147666Y-82737809D01*
X124679857Y-83197428D02*
X124655666Y-83221619D01*
X124583095Y-83245809D01*
X124534714Y-83245809D01*
X124462142Y-83221619D01*
X124413761Y-83173238D01*
X124389571Y-83124857D01*
X124365380Y-83028095D01*
X124365380Y-82955523D01*
X124389571Y-82858761D01*
X124413761Y-82810380D01*
X124462142Y-82762000D01*
X124534714Y-82737809D01*
X124583095Y-82737809D01*
X124655666Y-82762000D01*
X124679857Y-82786190D01*
X124873380Y-82786190D02*
X124897571Y-82762000D01*
X124945952Y-82737809D01*
X125066904Y-82737809D01*
X125115285Y-82762000D01*
X125139476Y-82786190D01*
X125163666Y-82834571D01*
X125163666Y-82882952D01*
X125139476Y-82955523D01*
X124849190Y-83245809D01*
X125163666Y-83245809D01*
X125599095Y-82907142D02*
X125599095Y-83245809D01*
X125478142Y-82713619D02*
X125357190Y-83076476D01*
X125671666Y-83076476D01*
X126107095Y-82737809D02*
X125865190Y-82737809D01*
X125841000Y-82979714D01*
X125865190Y-82955523D01*
X125913571Y-82931333D01*
X126034523Y-82931333D01*
X126082904Y-82955523D01*
X126107095Y-82979714D01*
X126131285Y-83028095D01*
X126131285Y-83149047D01*
X126107095Y-83197428D01*
X126082904Y-83221619D01*
X126034523Y-83245809D01*
X125913571Y-83245809D01*
X125865190Y-83221619D01*
X125841000Y-83197428D01*
X126349000Y-83245809D02*
X126349000Y-82737809D01*
X126542523Y-82737809D01*
X126590904Y-82762000D01*
X126615095Y-82786190D01*
X126639285Y-82834571D01*
X126639285Y-82907142D01*
X126615095Y-82955523D01*
X126590904Y-82979714D01*
X126542523Y-83003904D01*
X126349000Y-83003904D01*
X126808619Y-82737809D02*
X126929571Y-83245809D01*
X127026333Y-82882952D01*
X127123095Y-83245809D01*
X127244047Y-82737809D01*
D16*
X104684285Y-38757785D02*
X104557285Y-38757785D01*
X104557285Y-38957357D02*
X104557285Y-38576357D01*
X104738714Y-38576357D01*
X104883857Y-38957357D02*
X104883857Y-38576357D01*
X105065285Y-38957357D02*
X105065285Y-38576357D01*
X105156000Y-38576357D01*
X105210428Y-38594500D01*
X105246714Y-38630785D01*
X105264857Y-38667071D01*
X105283000Y-38739642D01*
X105283000Y-38794071D01*
X105264857Y-38866642D01*
X105246714Y-38902928D01*
X105210428Y-38939214D01*
X105156000Y-38957357D01*
X105065285Y-38957357D01*
X105645857Y-38957357D02*
X105428142Y-38957357D01*
X105537000Y-38957357D02*
X105537000Y-38576357D01*
X105500714Y-38630785D01*
X105464428Y-38667071D01*
X105428142Y-38685214D01*
X158659285Y-38757785D02*
X158532285Y-38757785D01*
X158532285Y-38957357D02*
X158532285Y-38576357D01*
X158713714Y-38576357D01*
X158858857Y-38957357D02*
X158858857Y-38576357D01*
X159040285Y-38957357D02*
X159040285Y-38576357D01*
X159131000Y-38576357D01*
X159185428Y-38594500D01*
X159221714Y-38630785D01*
X159239857Y-38667071D01*
X159258000Y-38739642D01*
X159258000Y-38794071D01*
X159239857Y-38866642D01*
X159221714Y-38902928D01*
X159185428Y-38939214D01*
X159131000Y-38957357D01*
X159040285Y-38957357D01*
X159403142Y-38612642D02*
X159421285Y-38594500D01*
X159457571Y-38576357D01*
X159548285Y-38576357D01*
X159584571Y-38594500D01*
X159602714Y-38612642D01*
X159620857Y-38648928D01*
X159620857Y-38685214D01*
X159602714Y-38739642D01*
X159385000Y-38957357D01*
X159620857Y-38957357D01*
X158341785Y-85493785D02*
X158214785Y-85493785D01*
X158214785Y-85693357D02*
X158214785Y-85312357D01*
X158396214Y-85312357D01*
X158541357Y-85693357D02*
X158541357Y-85312357D01*
X158722785Y-85693357D02*
X158722785Y-85312357D01*
X158813500Y-85312357D01*
X158867928Y-85330500D01*
X158904214Y-85366785D01*
X158922357Y-85403071D01*
X158940500Y-85475642D01*
X158940500Y-85530071D01*
X158922357Y-85602642D01*
X158904214Y-85638928D01*
X158867928Y-85675214D01*
X158813500Y-85693357D01*
X158722785Y-85693357D01*
X159067500Y-85312357D02*
X159303357Y-85312357D01*
X159176357Y-85457500D01*
X159230785Y-85457500D01*
X159267071Y-85475642D01*
X159285214Y-85493785D01*
X159303357Y-85530071D01*
X159303357Y-85620785D01*
X159285214Y-85657071D01*
X159267071Y-85675214D01*
X159230785Y-85693357D01*
X159121928Y-85693357D01*
X159085642Y-85675214D01*
X159067500Y-85657071D01*
X104874785Y-85493785D02*
X104747785Y-85493785D01*
X104747785Y-85693357D02*
X104747785Y-85312357D01*
X104929214Y-85312357D01*
X105074357Y-85693357D02*
X105074357Y-85312357D01*
X105255785Y-85693357D02*
X105255785Y-85312357D01*
X105346500Y-85312357D01*
X105400928Y-85330500D01*
X105437214Y-85366785D01*
X105455357Y-85403071D01*
X105473500Y-85475642D01*
X105473500Y-85530071D01*
X105455357Y-85602642D01*
X105437214Y-85638928D01*
X105400928Y-85675214D01*
X105346500Y-85693357D01*
X105255785Y-85693357D01*
X105800071Y-85439357D02*
X105800071Y-85693357D01*
X105709357Y-85294214D02*
X105618642Y-85566357D01*
X105854500Y-85566357D01*
D10*
X158445238Y-88191952D02*
X158445238Y-87791952D01*
X158445238Y-87982428D02*
X158673809Y-87982428D01*
X158673809Y-88191952D02*
X158673809Y-87791952D01*
X158845238Y-87830047D02*
X158864285Y-87811000D01*
X158902380Y-87791952D01*
X158997619Y-87791952D01*
X159035714Y-87811000D01*
X159054761Y-87830047D01*
X159073809Y-87868142D01*
X159073809Y-87906238D01*
X159054761Y-87963380D01*
X158826190Y-88191952D01*
X159073809Y-88191952D01*
X105105238Y-88191952D02*
X105105238Y-87791952D01*
X105105238Y-87982428D02*
X105333809Y-87982428D01*
X105333809Y-88191952D02*
X105333809Y-87791952D01*
X105733809Y-88191952D02*
X105505238Y-88191952D01*
X105619523Y-88191952D02*
X105619523Y-87791952D01*
X105581428Y-87849095D01*
X105543333Y-87887190D01*
X105505238Y-87906238D01*
D13*
X109407666Y-74890714D02*
X109395571Y-74902809D01*
X109359285Y-74914904D01*
X109335095Y-74914904D01*
X109298809Y-74902809D01*
X109274619Y-74878619D01*
X109262523Y-74854428D01*
X109250428Y-74806047D01*
X109250428Y-74769761D01*
X109262523Y-74721380D01*
X109274619Y-74697190D01*
X109298809Y-74673000D01*
X109335095Y-74660904D01*
X109359285Y-74660904D01*
X109395571Y-74673000D01*
X109407666Y-74685095D01*
X109649571Y-74914904D02*
X109504428Y-74914904D01*
X109577000Y-74914904D02*
X109577000Y-74660904D01*
X109552809Y-74697190D01*
X109528619Y-74721380D01*
X109504428Y-74733476D01*
X109286714Y-74564904D02*
X109141571Y-74564904D01*
X109214142Y-74564904D02*
X109214142Y-74310904D01*
X109189952Y-74347190D01*
X109165761Y-74371380D01*
X109141571Y-74383476D01*
X109443952Y-74310904D02*
X109468142Y-74310904D01*
X109492333Y-74323000D01*
X109504428Y-74335095D01*
X109516523Y-74359285D01*
X109528619Y-74407666D01*
X109528619Y-74468142D01*
X109516523Y-74516523D01*
X109504428Y-74540714D01*
X109492333Y-74552809D01*
X109468142Y-74564904D01*
X109443952Y-74564904D01*
X109419761Y-74552809D01*
X109407666Y-74540714D01*
X109395571Y-74516523D01*
X109383476Y-74468142D01*
X109383476Y-74407666D01*
X109395571Y-74359285D01*
X109407666Y-74335095D01*
X109419761Y-74323000D01*
X109443952Y-74310904D01*
X109746333Y-74395571D02*
X109746333Y-74564904D01*
X109637476Y-74395571D02*
X109637476Y-74528619D01*
X109649571Y-74552809D01*
X109673761Y-74564904D01*
X109710047Y-74564904D01*
X109734238Y-74552809D01*
X109746333Y-74540714D01*
X112690714Y-73442333D02*
X112702809Y-73454428D01*
X112714904Y-73490714D01*
X112714904Y-73514904D01*
X112702809Y-73551190D01*
X112678619Y-73575380D01*
X112654428Y-73587476D01*
X112606047Y-73599571D01*
X112569761Y-73599571D01*
X112521380Y-73587476D01*
X112497190Y-73575380D01*
X112473000Y-73551190D01*
X112460904Y-73514904D01*
X112460904Y-73490714D01*
X112473000Y-73454428D01*
X112485095Y-73442333D01*
X112485095Y-73345571D02*
X112473000Y-73333476D01*
X112460904Y-73309285D01*
X112460904Y-73248809D01*
X112473000Y-73224619D01*
X112485095Y-73212523D01*
X112509285Y-73200428D01*
X112533476Y-73200428D01*
X112569761Y-73212523D01*
X112714904Y-73357666D01*
X112714904Y-73200428D01*
X112364904Y-73563285D02*
X112364904Y-73708428D01*
X112364904Y-73635857D02*
X112110904Y-73635857D01*
X112147190Y-73660047D01*
X112171380Y-73684238D01*
X112183476Y-73708428D01*
X112110904Y-73406047D02*
X112110904Y-73381857D01*
X112123000Y-73357666D01*
X112135095Y-73345571D01*
X112159285Y-73333476D01*
X112207666Y-73321380D01*
X112268142Y-73321380D01*
X112316523Y-73333476D01*
X112340714Y-73345571D01*
X112352809Y-73357666D01*
X112364904Y-73381857D01*
X112364904Y-73406047D01*
X112352809Y-73430238D01*
X112340714Y-73442333D01*
X112316523Y-73454428D01*
X112268142Y-73466523D01*
X112207666Y-73466523D01*
X112159285Y-73454428D01*
X112135095Y-73442333D01*
X112123000Y-73430238D01*
X112110904Y-73406047D01*
X112195571Y-73103666D02*
X112364904Y-73103666D01*
X112195571Y-73212523D02*
X112328619Y-73212523D01*
X112352809Y-73200428D01*
X112364904Y-73176238D01*
X112364904Y-73139952D01*
X112352809Y-73115761D01*
X112340714Y-73103666D01*
X106107666Y-62190714D02*
X106095571Y-62202809D01*
X106059285Y-62214904D01*
X106035095Y-62214904D01*
X105998809Y-62202809D01*
X105974619Y-62178619D01*
X105962523Y-62154428D01*
X105950428Y-62106047D01*
X105950428Y-62069761D01*
X105962523Y-62021380D01*
X105974619Y-61997190D01*
X105998809Y-61973000D01*
X106035095Y-61960904D01*
X106059285Y-61960904D01*
X106095571Y-61973000D01*
X106107666Y-61985095D01*
X106192333Y-61960904D02*
X106349571Y-61960904D01*
X106264904Y-62057666D01*
X106301190Y-62057666D01*
X106325380Y-62069761D01*
X106337476Y-62081857D01*
X106349571Y-62106047D01*
X106349571Y-62166523D01*
X106337476Y-62190714D01*
X106325380Y-62202809D01*
X106301190Y-62214904D01*
X106228619Y-62214904D01*
X106204428Y-62202809D01*
X106192333Y-62190714D01*
X105986714Y-61864904D02*
X105841571Y-61864904D01*
X105914142Y-61864904D02*
X105914142Y-61610904D01*
X105889952Y-61647190D01*
X105865761Y-61671380D01*
X105841571Y-61683476D01*
X106143952Y-61610904D02*
X106168142Y-61610904D01*
X106192333Y-61623000D01*
X106204428Y-61635095D01*
X106216523Y-61659285D01*
X106228619Y-61707666D01*
X106228619Y-61768142D01*
X106216523Y-61816523D01*
X106204428Y-61840714D01*
X106192333Y-61852809D01*
X106168142Y-61864904D01*
X106143952Y-61864904D01*
X106119761Y-61852809D01*
X106107666Y-61840714D01*
X106095571Y-61816523D01*
X106083476Y-61768142D01*
X106083476Y-61707666D01*
X106095571Y-61659285D01*
X106107666Y-61635095D01*
X106119761Y-61623000D01*
X106143952Y-61610904D01*
X106446333Y-61695571D02*
X106446333Y-61864904D01*
X106337476Y-61695571D02*
X106337476Y-61828619D01*
X106349571Y-61852809D01*
X106373761Y-61864904D01*
X106410047Y-61864904D01*
X106434238Y-61852809D01*
X106446333Y-61840714D01*
X109607666Y-62190714D02*
X109595571Y-62202809D01*
X109559285Y-62214904D01*
X109535095Y-62214904D01*
X109498809Y-62202809D01*
X109474619Y-62178619D01*
X109462523Y-62154428D01*
X109450428Y-62106047D01*
X109450428Y-62069761D01*
X109462523Y-62021380D01*
X109474619Y-61997190D01*
X109498809Y-61973000D01*
X109535095Y-61960904D01*
X109559285Y-61960904D01*
X109595571Y-61973000D01*
X109607666Y-61985095D01*
X109825380Y-62045571D02*
X109825380Y-62214904D01*
X109764904Y-61948809D02*
X109704428Y-62130238D01*
X109861666Y-62130238D01*
X109486714Y-62564904D02*
X109341571Y-62564904D01*
X109414142Y-62564904D02*
X109414142Y-62310904D01*
X109389952Y-62347190D01*
X109365761Y-62371380D01*
X109341571Y-62383476D01*
X109643952Y-62310904D02*
X109668142Y-62310904D01*
X109692333Y-62323000D01*
X109704428Y-62335095D01*
X109716523Y-62359285D01*
X109728619Y-62407666D01*
X109728619Y-62468142D01*
X109716523Y-62516523D01*
X109704428Y-62540714D01*
X109692333Y-62552809D01*
X109668142Y-62564904D01*
X109643952Y-62564904D01*
X109619761Y-62552809D01*
X109607666Y-62540714D01*
X109595571Y-62516523D01*
X109583476Y-62468142D01*
X109583476Y-62407666D01*
X109595571Y-62359285D01*
X109607666Y-62335095D01*
X109619761Y-62323000D01*
X109643952Y-62310904D01*
X109946333Y-62395571D02*
X109946333Y-62564904D01*
X109837476Y-62395571D02*
X109837476Y-62528619D01*
X109849571Y-62552809D01*
X109873761Y-62564904D01*
X109910047Y-62564904D01*
X109934238Y-62552809D01*
X109946333Y-62540714D01*
X106107666Y-59990714D02*
X106095571Y-60002809D01*
X106059285Y-60014904D01*
X106035095Y-60014904D01*
X105998809Y-60002809D01*
X105974619Y-59978619D01*
X105962523Y-59954428D01*
X105950428Y-59906047D01*
X105950428Y-59869761D01*
X105962523Y-59821380D01*
X105974619Y-59797190D01*
X105998809Y-59773000D01*
X106035095Y-59760904D01*
X106059285Y-59760904D01*
X106095571Y-59773000D01*
X106107666Y-59785095D01*
X106337476Y-59760904D02*
X106216523Y-59760904D01*
X106204428Y-59881857D01*
X106216523Y-59869761D01*
X106240714Y-59857666D01*
X106301190Y-59857666D01*
X106325380Y-59869761D01*
X106337476Y-59881857D01*
X106349571Y-59906047D01*
X106349571Y-59966523D01*
X106337476Y-59990714D01*
X106325380Y-60002809D01*
X106301190Y-60014904D01*
X106240714Y-60014904D01*
X106216523Y-60002809D01*
X106204428Y-59990714D01*
X105986714Y-59664904D02*
X105841571Y-59664904D01*
X105914142Y-59664904D02*
X105914142Y-59410904D01*
X105889952Y-59447190D01*
X105865761Y-59471380D01*
X105841571Y-59483476D01*
X106143952Y-59410904D02*
X106168142Y-59410904D01*
X106192333Y-59423000D01*
X106204428Y-59435095D01*
X106216523Y-59459285D01*
X106228619Y-59507666D01*
X106228619Y-59568142D01*
X106216523Y-59616523D01*
X106204428Y-59640714D01*
X106192333Y-59652809D01*
X106168142Y-59664904D01*
X106143952Y-59664904D01*
X106119761Y-59652809D01*
X106107666Y-59640714D01*
X106095571Y-59616523D01*
X106083476Y-59568142D01*
X106083476Y-59507666D01*
X106095571Y-59459285D01*
X106107666Y-59435095D01*
X106119761Y-59423000D01*
X106143952Y-59410904D01*
X106446333Y-59495571D02*
X106446333Y-59664904D01*
X106337476Y-59495571D02*
X106337476Y-59628619D01*
X106349571Y-59652809D01*
X106373761Y-59664904D01*
X106410047Y-59664904D01*
X106434238Y-59652809D01*
X106446333Y-59640714D01*
X109607666Y-59990714D02*
X109595571Y-60002809D01*
X109559285Y-60014904D01*
X109535095Y-60014904D01*
X109498809Y-60002809D01*
X109474619Y-59978619D01*
X109462523Y-59954428D01*
X109450428Y-59906047D01*
X109450428Y-59869761D01*
X109462523Y-59821380D01*
X109474619Y-59797190D01*
X109498809Y-59773000D01*
X109535095Y-59760904D01*
X109559285Y-59760904D01*
X109595571Y-59773000D01*
X109607666Y-59785095D01*
X109825380Y-59760904D02*
X109777000Y-59760904D01*
X109752809Y-59773000D01*
X109740714Y-59785095D01*
X109716523Y-59821380D01*
X109704428Y-59869761D01*
X109704428Y-59966523D01*
X109716523Y-59990714D01*
X109728619Y-60002809D01*
X109752809Y-60014904D01*
X109801190Y-60014904D01*
X109825380Y-60002809D01*
X109837476Y-59990714D01*
X109849571Y-59966523D01*
X109849571Y-59906047D01*
X109837476Y-59881857D01*
X109825380Y-59869761D01*
X109801190Y-59857666D01*
X109752809Y-59857666D01*
X109728619Y-59869761D01*
X109716523Y-59881857D01*
X109704428Y-59906047D01*
X109486714Y-60364904D02*
X109341571Y-60364904D01*
X109414142Y-60364904D02*
X109414142Y-60110904D01*
X109389952Y-60147190D01*
X109365761Y-60171380D01*
X109341571Y-60183476D01*
X109643952Y-60110904D02*
X109668142Y-60110904D01*
X109692333Y-60123000D01*
X109704428Y-60135095D01*
X109716523Y-60159285D01*
X109728619Y-60207666D01*
X109728619Y-60268142D01*
X109716523Y-60316523D01*
X109704428Y-60340714D01*
X109692333Y-60352809D01*
X109668142Y-60364904D01*
X109643952Y-60364904D01*
X109619761Y-60352809D01*
X109607666Y-60340714D01*
X109595571Y-60316523D01*
X109583476Y-60268142D01*
X109583476Y-60207666D01*
X109595571Y-60159285D01*
X109607666Y-60135095D01*
X109619761Y-60123000D01*
X109643952Y-60110904D01*
X109946333Y-60195571D02*
X109946333Y-60364904D01*
X109837476Y-60195571D02*
X109837476Y-60328619D01*
X109849571Y-60352809D01*
X109873761Y-60364904D01*
X109910047Y-60364904D01*
X109934238Y-60352809D01*
X109946333Y-60340714D01*
X115914904Y-82342333D02*
X115793952Y-82427000D01*
X115914904Y-82487476D02*
X115660904Y-82487476D01*
X115660904Y-82390714D01*
X115673000Y-82366523D01*
X115685095Y-82354428D01*
X115709285Y-82342333D01*
X115745571Y-82342333D01*
X115769761Y-82354428D01*
X115781857Y-82366523D01*
X115793952Y-82390714D01*
X115793952Y-82487476D01*
X115660904Y-82112523D02*
X115660904Y-82233476D01*
X115781857Y-82245571D01*
X115769761Y-82233476D01*
X115757666Y-82209285D01*
X115757666Y-82148809D01*
X115769761Y-82124619D01*
X115781857Y-82112523D01*
X115806047Y-82100428D01*
X115866523Y-82100428D01*
X115890714Y-82112523D01*
X115902809Y-82124619D01*
X115914904Y-82148809D01*
X115914904Y-82209285D01*
X115902809Y-82233476D01*
X115890714Y-82245571D01*
D14*
X115607452Y-82315119D02*
X115607452Y-82387690D01*
X115607452Y-82351404D02*
X115480452Y-82351404D01*
X115498595Y-82363500D01*
X115510690Y-82375595D01*
X115516738Y-82387690D01*
X115607452Y-82260690D02*
X115480452Y-82260690D01*
X115559071Y-82248595D02*
X115607452Y-82212309D01*
X115522785Y-82212309D02*
X115571166Y-82260690D01*
D13*
X119357666Y-77464904D02*
X119273000Y-77343952D01*
X119212523Y-77464904D02*
X119212523Y-77210904D01*
X119309285Y-77210904D01*
X119333476Y-77223000D01*
X119345571Y-77235095D01*
X119357666Y-77259285D01*
X119357666Y-77295571D01*
X119345571Y-77319761D01*
X119333476Y-77331857D01*
X119309285Y-77343952D01*
X119212523Y-77343952D01*
X119442333Y-77210904D02*
X119611666Y-77210904D01*
X119502809Y-77464904D01*
D14*
X119363714Y-77072785D02*
X119363714Y-77157452D01*
X119333476Y-77024404D02*
X119303238Y-77115119D01*
X119381857Y-77115119D01*
X119418142Y-77030452D02*
X119502809Y-77030452D01*
X119448380Y-77157452D01*
D13*
X119357666Y-75964904D02*
X119273000Y-75843952D01*
X119212523Y-75964904D02*
X119212523Y-75710904D01*
X119309285Y-75710904D01*
X119333476Y-75723000D01*
X119345571Y-75735095D01*
X119357666Y-75759285D01*
X119357666Y-75795571D01*
X119345571Y-75819761D01*
X119333476Y-75831857D01*
X119309285Y-75843952D01*
X119212523Y-75843952D01*
X119575380Y-75710904D02*
X119527000Y-75710904D01*
X119502809Y-75723000D01*
X119490714Y-75735095D01*
X119466523Y-75771380D01*
X119454428Y-75819761D01*
X119454428Y-75916523D01*
X119466523Y-75940714D01*
X119478619Y-75952809D01*
X119502809Y-75964904D01*
X119551190Y-75964904D01*
X119575380Y-75952809D01*
X119587476Y-75940714D01*
X119599571Y-75916523D01*
X119599571Y-75856047D01*
X119587476Y-75831857D01*
X119575380Y-75819761D01*
X119551190Y-75807666D01*
X119502809Y-75807666D01*
X119478619Y-75819761D01*
X119466523Y-75831857D01*
X119454428Y-75856047D01*
D14*
X119363714Y-75572785D02*
X119363714Y-75657452D01*
X119333476Y-75524404D02*
X119303238Y-75615119D01*
X119381857Y-75615119D01*
X119418142Y-75530452D02*
X119502809Y-75530452D01*
X119448380Y-75657452D01*
D13*
X141314904Y-53642333D02*
X141193952Y-53727000D01*
X141314904Y-53787476D02*
X141060904Y-53787476D01*
X141060904Y-53690714D01*
X141073000Y-53666523D01*
X141085095Y-53654428D01*
X141109285Y-53642333D01*
X141145571Y-53642333D01*
X141169761Y-53654428D01*
X141181857Y-53666523D01*
X141193952Y-53690714D01*
X141193952Y-53787476D01*
X141169761Y-53497190D02*
X141157666Y-53521380D01*
X141145571Y-53533476D01*
X141121380Y-53545571D01*
X141109285Y-53545571D01*
X141085095Y-53533476D01*
X141073000Y-53521380D01*
X141060904Y-53497190D01*
X141060904Y-53448809D01*
X141073000Y-53424619D01*
X141085095Y-53412523D01*
X141109285Y-53400428D01*
X141121380Y-53400428D01*
X141145571Y-53412523D01*
X141157666Y-53424619D01*
X141169761Y-53448809D01*
X141169761Y-53497190D01*
X141181857Y-53521380D01*
X141193952Y-53533476D01*
X141218142Y-53545571D01*
X141266523Y-53545571D01*
X141290714Y-53533476D01*
X141302809Y-53521380D01*
X141314904Y-53497190D01*
X141314904Y-53448809D01*
X141302809Y-53424619D01*
X141290714Y-53412523D01*
X141266523Y-53400428D01*
X141218142Y-53400428D01*
X141193952Y-53412523D01*
X141181857Y-53424619D01*
X141169761Y-53448809D01*
D14*
X141007452Y-53675595D02*
X141007452Y-53748166D01*
X141007452Y-53711880D02*
X140880452Y-53711880D01*
X140898595Y-53723976D01*
X140910690Y-53736071D01*
X140916738Y-53748166D01*
X140880452Y-53596976D02*
X140880452Y-53584880D01*
X140886500Y-53572785D01*
X140892547Y-53566738D01*
X140904642Y-53560690D01*
X140928833Y-53554642D01*
X140959071Y-53554642D01*
X140983261Y-53560690D01*
X140995357Y-53566738D01*
X141001404Y-53572785D01*
X141007452Y-53584880D01*
X141007452Y-53596976D01*
X141001404Y-53609071D01*
X140995357Y-53615119D01*
X140983261Y-53621166D01*
X140959071Y-53627214D01*
X140928833Y-53627214D01*
X140904642Y-53621166D01*
X140892547Y-53615119D01*
X140886500Y-53609071D01*
X140880452Y-53596976D01*
X141007452Y-53500214D02*
X140880452Y-53500214D01*
X140959071Y-53488119D02*
X141007452Y-53451833D01*
X140922785Y-53451833D02*
X140971166Y-53500214D01*
D13*
X137407666Y-57614904D02*
X137323000Y-57493952D01*
X137262523Y-57614904D02*
X137262523Y-57360904D01*
X137359285Y-57360904D01*
X137383476Y-57373000D01*
X137395571Y-57385095D01*
X137407666Y-57409285D01*
X137407666Y-57445571D01*
X137395571Y-57469761D01*
X137383476Y-57481857D01*
X137359285Y-57493952D01*
X137262523Y-57493952D01*
X137528619Y-57614904D02*
X137577000Y-57614904D01*
X137601190Y-57602809D01*
X137613285Y-57590714D01*
X137637476Y-57554428D01*
X137649571Y-57506047D01*
X137649571Y-57409285D01*
X137637476Y-57385095D01*
X137625380Y-57373000D01*
X137601190Y-57360904D01*
X137552809Y-57360904D01*
X137528619Y-57373000D01*
X137516523Y-57385095D01*
X137504428Y-57409285D01*
X137504428Y-57469761D01*
X137516523Y-57493952D01*
X137528619Y-57506047D01*
X137552809Y-57518142D01*
X137601190Y-57518142D01*
X137625380Y-57506047D01*
X137637476Y-57493952D01*
X137649571Y-57469761D01*
D14*
X137374404Y-57307452D02*
X137301833Y-57307452D01*
X137338119Y-57307452D02*
X137338119Y-57180452D01*
X137326023Y-57198595D01*
X137313928Y-57210690D01*
X137301833Y-57216738D01*
X137453023Y-57180452D02*
X137465119Y-57180452D01*
X137477214Y-57186500D01*
X137483261Y-57192547D01*
X137489309Y-57204642D01*
X137495357Y-57228833D01*
X137495357Y-57259071D01*
X137489309Y-57283261D01*
X137483261Y-57295357D01*
X137477214Y-57301404D01*
X137465119Y-57307452D01*
X137453023Y-57307452D01*
X137440928Y-57301404D01*
X137434880Y-57295357D01*
X137428833Y-57283261D01*
X137422785Y-57259071D01*
X137422785Y-57228833D01*
X137428833Y-57204642D01*
X137434880Y-57192547D01*
X137440928Y-57186500D01*
X137453023Y-57180452D01*
X137549785Y-57307452D02*
X137549785Y-57180452D01*
X137561880Y-57259071D02*
X137598166Y-57307452D01*
X137598166Y-57222785D02*
X137549785Y-57271166D01*
D13*
X137286714Y-54614904D02*
X137202047Y-54493952D01*
X137141571Y-54614904D02*
X137141571Y-54360904D01*
X137238333Y-54360904D01*
X137262523Y-54373000D01*
X137274619Y-54385095D01*
X137286714Y-54409285D01*
X137286714Y-54445571D01*
X137274619Y-54469761D01*
X137262523Y-54481857D01*
X137238333Y-54493952D01*
X137141571Y-54493952D01*
X137528619Y-54614904D02*
X137383476Y-54614904D01*
X137456047Y-54614904D02*
X137456047Y-54360904D01*
X137431857Y-54397190D01*
X137407666Y-54421380D01*
X137383476Y-54433476D01*
X137625380Y-54385095D02*
X137637476Y-54373000D01*
X137661666Y-54360904D01*
X137722142Y-54360904D01*
X137746333Y-54373000D01*
X137758428Y-54385095D01*
X137770523Y-54409285D01*
X137770523Y-54433476D01*
X137758428Y-54469761D01*
X137613285Y-54614904D01*
X137770523Y-54614904D01*
D14*
X137374404Y-54307452D02*
X137301833Y-54307452D01*
X137338119Y-54307452D02*
X137338119Y-54180452D01*
X137326023Y-54198595D01*
X137313928Y-54210690D01*
X137301833Y-54216738D01*
X137453023Y-54180452D02*
X137465119Y-54180452D01*
X137477214Y-54186500D01*
X137483261Y-54192547D01*
X137489309Y-54204642D01*
X137495357Y-54228833D01*
X137495357Y-54259071D01*
X137489309Y-54283261D01*
X137483261Y-54295357D01*
X137477214Y-54301404D01*
X137465119Y-54307452D01*
X137453023Y-54307452D01*
X137440928Y-54301404D01*
X137434880Y-54295357D01*
X137428833Y-54283261D01*
X137422785Y-54259071D01*
X137422785Y-54228833D01*
X137428833Y-54204642D01*
X137434880Y-54192547D01*
X137440928Y-54186500D01*
X137453023Y-54180452D01*
X137549785Y-54307452D02*
X137549785Y-54180452D01*
X137561880Y-54259071D02*
X137598166Y-54307452D01*
X137598166Y-54222785D02*
X137549785Y-54271166D01*
D13*
X137286714Y-56114904D02*
X137202047Y-55993952D01*
X137141571Y-56114904D02*
X137141571Y-55860904D01*
X137238333Y-55860904D01*
X137262523Y-55873000D01*
X137274619Y-55885095D01*
X137286714Y-55909285D01*
X137286714Y-55945571D01*
X137274619Y-55969761D01*
X137262523Y-55981857D01*
X137238333Y-55993952D01*
X137141571Y-55993952D01*
X137528619Y-56114904D02*
X137383476Y-56114904D01*
X137456047Y-56114904D02*
X137456047Y-55860904D01*
X137431857Y-55897190D01*
X137407666Y-55921380D01*
X137383476Y-55933476D01*
X137770523Y-56114904D02*
X137625380Y-56114904D01*
X137697952Y-56114904D02*
X137697952Y-55860904D01*
X137673761Y-55897190D01*
X137649571Y-55921380D01*
X137625380Y-55933476D01*
D14*
X137374404Y-55807452D02*
X137301833Y-55807452D01*
X137338119Y-55807452D02*
X137338119Y-55680452D01*
X137326023Y-55698595D01*
X137313928Y-55710690D01*
X137301833Y-55716738D01*
X137453023Y-55680452D02*
X137465119Y-55680452D01*
X137477214Y-55686500D01*
X137483261Y-55692547D01*
X137489309Y-55704642D01*
X137495357Y-55728833D01*
X137495357Y-55759071D01*
X137489309Y-55783261D01*
X137483261Y-55795357D01*
X137477214Y-55801404D01*
X137465119Y-55807452D01*
X137453023Y-55807452D01*
X137440928Y-55801404D01*
X137434880Y-55795357D01*
X137428833Y-55783261D01*
X137422785Y-55759071D01*
X137422785Y-55728833D01*
X137428833Y-55704642D01*
X137434880Y-55692547D01*
X137440928Y-55686500D01*
X137453023Y-55680452D01*
X137549785Y-55807452D02*
X137549785Y-55680452D01*
X137561880Y-55759071D02*
X137598166Y-55807452D01*
X137598166Y-55722785D02*
X137549785Y-55771166D01*
D13*
X137286714Y-53114904D02*
X137202047Y-52993952D01*
X137141571Y-53114904D02*
X137141571Y-52860904D01*
X137238333Y-52860904D01*
X137262523Y-52873000D01*
X137274619Y-52885095D01*
X137286714Y-52909285D01*
X137286714Y-52945571D01*
X137274619Y-52969761D01*
X137262523Y-52981857D01*
X137238333Y-52993952D01*
X137141571Y-52993952D01*
X137528619Y-53114904D02*
X137383476Y-53114904D01*
X137456047Y-53114904D02*
X137456047Y-52860904D01*
X137431857Y-52897190D01*
X137407666Y-52921380D01*
X137383476Y-52933476D01*
X137746333Y-52945571D02*
X137746333Y-53114904D01*
X137685857Y-52848809D02*
X137625380Y-53030238D01*
X137782619Y-53030238D01*
D14*
X137374404Y-52807452D02*
X137301833Y-52807452D01*
X137338119Y-52807452D02*
X137338119Y-52680452D01*
X137326023Y-52698595D01*
X137313928Y-52710690D01*
X137301833Y-52716738D01*
X137453023Y-52680452D02*
X137465119Y-52680452D01*
X137477214Y-52686500D01*
X137483261Y-52692547D01*
X137489309Y-52704642D01*
X137495357Y-52728833D01*
X137495357Y-52759071D01*
X137489309Y-52783261D01*
X137483261Y-52795357D01*
X137477214Y-52801404D01*
X137465119Y-52807452D01*
X137453023Y-52807452D01*
X137440928Y-52801404D01*
X137434880Y-52795357D01*
X137428833Y-52783261D01*
X137422785Y-52759071D01*
X137422785Y-52728833D01*
X137428833Y-52704642D01*
X137434880Y-52692547D01*
X137440928Y-52686500D01*
X137453023Y-52680452D01*
X137549785Y-52807452D02*
X137549785Y-52680452D01*
X137561880Y-52759071D02*
X137598166Y-52807452D01*
X137598166Y-52722785D02*
X137549785Y-52771166D01*
D13*
X108288666Y-41008904D02*
X108204000Y-40887952D01*
X108143523Y-41008904D02*
X108143523Y-40754904D01*
X108240285Y-40754904D01*
X108264476Y-40767000D01*
X108276571Y-40779095D01*
X108288666Y-40803285D01*
X108288666Y-40839571D01*
X108276571Y-40863761D01*
X108264476Y-40875857D01*
X108240285Y-40887952D01*
X108143523Y-40887952D01*
X108506380Y-40839571D02*
X108506380Y-41008904D01*
X108445904Y-40742809D02*
X108385428Y-40924238D01*
X108542666Y-40924238D01*
D14*
X108255404Y-41201452D02*
X108182833Y-41201452D01*
X108219119Y-41201452D02*
X108219119Y-41074452D01*
X108207023Y-41092595D01*
X108194928Y-41104690D01*
X108182833Y-41110738D01*
X108334023Y-41074452D02*
X108346119Y-41074452D01*
X108358214Y-41080500D01*
X108364261Y-41086547D01*
X108370309Y-41098642D01*
X108376357Y-41122833D01*
X108376357Y-41153071D01*
X108370309Y-41177261D01*
X108364261Y-41189357D01*
X108358214Y-41195404D01*
X108346119Y-41201452D01*
X108334023Y-41201452D01*
X108321928Y-41195404D01*
X108315880Y-41189357D01*
X108309833Y-41177261D01*
X108303785Y-41153071D01*
X108303785Y-41122833D01*
X108309833Y-41098642D01*
X108315880Y-41086547D01*
X108321928Y-41080500D01*
X108334023Y-41074452D01*
X108430785Y-41201452D02*
X108430785Y-41074452D01*
X108442880Y-41153071D02*
X108479166Y-41201452D01*
X108479166Y-41116785D02*
X108430785Y-41165166D01*
D13*
X111685714Y-41008904D02*
X111601047Y-40887952D01*
X111540571Y-41008904D02*
X111540571Y-40754904D01*
X111637333Y-40754904D01*
X111661523Y-40767000D01*
X111673619Y-40779095D01*
X111685714Y-40803285D01*
X111685714Y-40839571D01*
X111673619Y-40863761D01*
X111661523Y-40875857D01*
X111637333Y-40887952D01*
X111540571Y-40887952D01*
X111927619Y-41008904D02*
X111782476Y-41008904D01*
X111855047Y-41008904D02*
X111855047Y-40754904D01*
X111830857Y-40791190D01*
X111806666Y-40815380D01*
X111782476Y-40827476D01*
X112157428Y-40754904D02*
X112036476Y-40754904D01*
X112024380Y-40875857D01*
X112036476Y-40863761D01*
X112060666Y-40851666D01*
X112121142Y-40851666D01*
X112145333Y-40863761D01*
X112157428Y-40875857D01*
X112169523Y-40900047D01*
X112169523Y-40960523D01*
X112157428Y-40984714D01*
X112145333Y-40996809D01*
X112121142Y-41008904D01*
X112060666Y-41008904D01*
X112036476Y-40996809D01*
X112024380Y-40984714D01*
D14*
X111773404Y-40701452D02*
X111700833Y-40701452D01*
X111737119Y-40701452D02*
X111737119Y-40574452D01*
X111725023Y-40592595D01*
X111712928Y-40604690D01*
X111700833Y-40610738D01*
X111852023Y-40574452D02*
X111864119Y-40574452D01*
X111876214Y-40580500D01*
X111882261Y-40586547D01*
X111888309Y-40598642D01*
X111894357Y-40622833D01*
X111894357Y-40653071D01*
X111888309Y-40677261D01*
X111882261Y-40689357D01*
X111876214Y-40695404D01*
X111864119Y-40701452D01*
X111852023Y-40701452D01*
X111839928Y-40695404D01*
X111833880Y-40689357D01*
X111827833Y-40677261D01*
X111821785Y-40653071D01*
X111821785Y-40622833D01*
X111827833Y-40598642D01*
X111833880Y-40586547D01*
X111839928Y-40580500D01*
X111852023Y-40574452D01*
X111948785Y-40701452D02*
X111948785Y-40574452D01*
X111960880Y-40653071D02*
X111997166Y-40701452D01*
X111997166Y-40616785D02*
X111948785Y-40665166D01*
D15*
X124743676Y-43054895D02*
X124743676Y-43712876D01*
X124782380Y-43790285D01*
X124821085Y-43828990D01*
X124898495Y-43867695D01*
X125053314Y-43867695D01*
X125130723Y-43828990D01*
X125169428Y-43790285D01*
X125208133Y-43712876D01*
X125208133Y-43054895D01*
X126020933Y-43867695D02*
X125556476Y-43867695D01*
X125788704Y-43867695D02*
X125788704Y-43054895D01*
X125711295Y-43171009D01*
X125633885Y-43248419D01*
X125556476Y-43287123D01*
X126524095Y-43054895D02*
X126601504Y-43054895D01*
X126678914Y-43093600D01*
X126717619Y-43132304D01*
X126756323Y-43209714D01*
X126795028Y-43364533D01*
X126795028Y-43558057D01*
X126756323Y-43712876D01*
X126717619Y-43790285D01*
X126678914Y-43828990D01*
X126601504Y-43867695D01*
X126524095Y-43867695D01*
X126446685Y-43828990D01*
X126407980Y-43790285D01*
X126369276Y-43712876D01*
X126330571Y-43558057D01*
X126330571Y-43364533D01*
X126369276Y-43209714D01*
X126407980Y-43132304D01*
X126446685Y-43093600D01*
X126524095Y-43054895D01*
D16*
X123935714Y-44291357D02*
X124189714Y-44291357D01*
X124026428Y-44672357D01*
X124498142Y-44418357D02*
X124498142Y-44672357D01*
X124407428Y-44273214D02*
X124316714Y-44545357D01*
X124552571Y-44545357D01*
X124679571Y-44563500D02*
X124861000Y-44563500D01*
X124643285Y-44672357D02*
X124770285Y-44291357D01*
X124897285Y-44672357D01*
X125024285Y-44672357D02*
X125024285Y-44291357D01*
X125024285Y-44472785D02*
X125242000Y-44472785D01*
X125242000Y-44672357D02*
X125242000Y-44291357D01*
X125641142Y-44636071D02*
X125623000Y-44654214D01*
X125568571Y-44672357D01*
X125532285Y-44672357D01*
X125477857Y-44654214D01*
X125441571Y-44617928D01*
X125423428Y-44581642D01*
X125405285Y-44509071D01*
X125405285Y-44454642D01*
X125423428Y-44382071D01*
X125441571Y-44345785D01*
X125477857Y-44309500D01*
X125532285Y-44291357D01*
X125568571Y-44291357D01*
X125623000Y-44309500D01*
X125641142Y-44327642D01*
X126004000Y-44672357D02*
X125786285Y-44672357D01*
X125895142Y-44672357D02*
X125895142Y-44291357D01*
X125858857Y-44345785D01*
X125822571Y-44382071D01*
X125786285Y-44400214D01*
X126149142Y-44327642D02*
X126167285Y-44309500D01*
X126203571Y-44291357D01*
X126294285Y-44291357D01*
X126330571Y-44309500D01*
X126348714Y-44327642D01*
X126366857Y-44363928D01*
X126366857Y-44400214D01*
X126348714Y-44454642D01*
X126131000Y-44672357D01*
X126366857Y-44672357D01*
X126711571Y-44291357D02*
X126530142Y-44291357D01*
X126512000Y-44472785D01*
X126530142Y-44454642D01*
X126566428Y-44436500D01*
X126657142Y-44436500D01*
X126693428Y-44454642D01*
X126711571Y-44472785D01*
X126729714Y-44509071D01*
X126729714Y-44599785D01*
X126711571Y-44636071D01*
X126693428Y-44654214D01*
X126657142Y-44672357D01*
X126566428Y-44672357D01*
X126530142Y-44654214D01*
X126512000Y-44636071D01*
X126893000Y-44672357D02*
X126893000Y-44291357D01*
X127038142Y-44291357D01*
X127074428Y-44309500D01*
X127092571Y-44327642D01*
X127110714Y-44363928D01*
X127110714Y-44418357D01*
X127092571Y-44454642D01*
X127074428Y-44472785D01*
X127038142Y-44490928D01*
X126893000Y-44490928D01*
X127237714Y-44291357D02*
X127328428Y-44672357D01*
X127401000Y-44400214D01*
X127473571Y-44672357D01*
X127564285Y-44291357D01*
D13*
X120510904Y-45264476D02*
X120716523Y-45264476D01*
X120740714Y-45252380D01*
X120752809Y-45240285D01*
X120764904Y-45216095D01*
X120764904Y-45167714D01*
X120752809Y-45143523D01*
X120740714Y-45131428D01*
X120716523Y-45119333D01*
X120510904Y-45119333D01*
X120764904Y-44865333D02*
X120764904Y-45010476D01*
X120764904Y-44937904D02*
X120510904Y-44937904D01*
X120547190Y-44962095D01*
X120571380Y-44986285D01*
X120583476Y-45010476D01*
X120764904Y-44623428D02*
X120764904Y-44768571D01*
X120764904Y-44696000D02*
X120510904Y-44696000D01*
X120547190Y-44720190D01*
X120571380Y-44744380D01*
X120583476Y-44768571D01*
D17*
X120895678Y-45929714D02*
X120895678Y-45802714D01*
X121086178Y-45884357D01*
X120959178Y-45648500D02*
X121086178Y-45648500D01*
X120886607Y-45693857D02*
X121022678Y-45739214D01*
X121022678Y-45621285D01*
X121086178Y-45458000D02*
X121086178Y-45548714D01*
X120895678Y-45548714D01*
X120895678Y-45421714D02*
X121086178Y-45358214D01*
X120895678Y-45294714D01*
X121068035Y-45122357D02*
X121077107Y-45131428D01*
X121086178Y-45158642D01*
X121086178Y-45176785D01*
X121077107Y-45204000D01*
X121058964Y-45222142D01*
X121040821Y-45231214D01*
X121004535Y-45240285D01*
X120977321Y-45240285D01*
X120941035Y-45231214D01*
X120922892Y-45222142D01*
X120904750Y-45204000D01*
X120895678Y-45176785D01*
X120895678Y-45158642D01*
X120904750Y-45131428D01*
X120913821Y-45122357D01*
X121086178Y-44940928D02*
X121086178Y-45049785D01*
X121086178Y-44995357D02*
X120895678Y-44995357D01*
X120922892Y-45013500D01*
X120941035Y-45031642D01*
X120950107Y-45049785D01*
X120904750Y-44759500D02*
X120895678Y-44777642D01*
X120895678Y-44804857D01*
X120904750Y-44832071D01*
X120922892Y-44850214D01*
X120941035Y-44859285D01*
X120977321Y-44868357D01*
X121004535Y-44868357D01*
X121040821Y-44859285D01*
X121058964Y-44850214D01*
X121077107Y-44832071D01*
X121086178Y-44804857D01*
X121086178Y-44786714D01*
X121077107Y-44759500D01*
X121068035Y-44750428D01*
X121004535Y-44750428D01*
X121004535Y-44786714D01*
X120895678Y-44632500D02*
X120895678Y-44614357D01*
X120904750Y-44596214D01*
X120913821Y-44587142D01*
X120931964Y-44578071D01*
X120968250Y-44569000D01*
X121013607Y-44569000D01*
X121049892Y-44578071D01*
X121068035Y-44587142D01*
X121077107Y-44596214D01*
X121086178Y-44614357D01*
X121086178Y-44632500D01*
X121077107Y-44650642D01*
X121068035Y-44659714D01*
X121049892Y-44668785D01*
X121013607Y-44677857D01*
X120968250Y-44677857D01*
X120931964Y-44668785D01*
X120913821Y-44659714D01*
X120904750Y-44650642D01*
X120895678Y-44632500D01*
X120959178Y-44405714D02*
X121086178Y-44405714D01*
X120886607Y-44451071D02*
X121022678Y-44496428D01*
X121022678Y-44378500D01*
X120904750Y-44206142D02*
X120895678Y-44224285D01*
X120895678Y-44251500D01*
X120904750Y-44278714D01*
X120922892Y-44296857D01*
X120941035Y-44305928D01*
X120977321Y-44315000D01*
X121004535Y-44315000D01*
X121040821Y-44305928D01*
X121058964Y-44296857D01*
X121077107Y-44278714D01*
X121086178Y-44251500D01*
X121086178Y-44233357D01*
X121077107Y-44206142D01*
X121068035Y-44197071D01*
X121004535Y-44197071D01*
X121004535Y-44233357D01*
X120895678Y-44133571D02*
X121086178Y-44088214D01*
X120950107Y-44051928D01*
X121086178Y-44015642D01*
X120895678Y-43970285D01*
D13*
X143910904Y-40814476D02*
X144116523Y-40814476D01*
X144140714Y-40802380D01*
X144152809Y-40790285D01*
X144164904Y-40766095D01*
X144164904Y-40717714D01*
X144152809Y-40693523D01*
X144140714Y-40681428D01*
X144116523Y-40669333D01*
X143910904Y-40669333D01*
X144164904Y-40415333D02*
X144164904Y-40560476D01*
X144164904Y-40487904D02*
X143910904Y-40487904D01*
X143947190Y-40512095D01*
X143971380Y-40536285D01*
X143983476Y-40560476D01*
X143935095Y-40318571D02*
X143923000Y-40306476D01*
X143910904Y-40282285D01*
X143910904Y-40221809D01*
X143923000Y-40197619D01*
X143935095Y-40185523D01*
X143959285Y-40173428D01*
X143983476Y-40173428D01*
X144019761Y-40185523D01*
X144164904Y-40330666D01*
X144164904Y-40173428D01*
D17*
X144295678Y-41479714D02*
X144295678Y-41352714D01*
X144486178Y-41434357D01*
X144359178Y-41198500D02*
X144486178Y-41198500D01*
X144286607Y-41243857D02*
X144422678Y-41289214D01*
X144422678Y-41171285D01*
X144486178Y-41008000D02*
X144486178Y-41098714D01*
X144295678Y-41098714D01*
X144295678Y-40971714D02*
X144486178Y-40908214D01*
X144295678Y-40844714D01*
X144468035Y-40672357D02*
X144477107Y-40681428D01*
X144486178Y-40708642D01*
X144486178Y-40726785D01*
X144477107Y-40754000D01*
X144458964Y-40772142D01*
X144440821Y-40781214D01*
X144404535Y-40790285D01*
X144377321Y-40790285D01*
X144341035Y-40781214D01*
X144322892Y-40772142D01*
X144304750Y-40754000D01*
X144295678Y-40726785D01*
X144295678Y-40708642D01*
X144304750Y-40681428D01*
X144313821Y-40672357D01*
X144486178Y-40490928D02*
X144486178Y-40599785D01*
X144486178Y-40545357D02*
X144295678Y-40545357D01*
X144322892Y-40563500D01*
X144341035Y-40581642D01*
X144350107Y-40599785D01*
X144304750Y-40309500D02*
X144295678Y-40327642D01*
X144295678Y-40354857D01*
X144304750Y-40382071D01*
X144322892Y-40400214D01*
X144341035Y-40409285D01*
X144377321Y-40418357D01*
X144404535Y-40418357D01*
X144440821Y-40409285D01*
X144458964Y-40400214D01*
X144477107Y-40382071D01*
X144486178Y-40354857D01*
X144486178Y-40336714D01*
X144477107Y-40309500D01*
X144468035Y-40300428D01*
X144404535Y-40300428D01*
X144404535Y-40336714D01*
X144295678Y-40182500D02*
X144295678Y-40164357D01*
X144304750Y-40146214D01*
X144313821Y-40137142D01*
X144331964Y-40128071D01*
X144368250Y-40119000D01*
X144413607Y-40119000D01*
X144449892Y-40128071D01*
X144468035Y-40137142D01*
X144477107Y-40146214D01*
X144486178Y-40164357D01*
X144486178Y-40182500D01*
X144477107Y-40200642D01*
X144468035Y-40209714D01*
X144449892Y-40218785D01*
X144413607Y-40227857D01*
X144368250Y-40227857D01*
X144331964Y-40218785D01*
X144313821Y-40209714D01*
X144304750Y-40200642D01*
X144295678Y-40182500D01*
X144359178Y-39955714D02*
X144486178Y-39955714D01*
X144286607Y-40001071D02*
X144422678Y-40046428D01*
X144422678Y-39928500D01*
X144304750Y-39756142D02*
X144295678Y-39774285D01*
X144295678Y-39801500D01*
X144304750Y-39828714D01*
X144322892Y-39846857D01*
X144341035Y-39855928D01*
X144377321Y-39865000D01*
X144404535Y-39865000D01*
X144440821Y-39855928D01*
X144458964Y-39846857D01*
X144477107Y-39828714D01*
X144486178Y-39801500D01*
X144486178Y-39783357D01*
X144477107Y-39756142D01*
X144468035Y-39747071D01*
X144404535Y-39747071D01*
X144404535Y-39783357D01*
X144295678Y-39683571D02*
X144486178Y-39638214D01*
X144350107Y-39601928D01*
X144486178Y-39565642D01*
X144295678Y-39520285D01*
D13*
X140064904Y-41413285D02*
X139943952Y-41497952D01*
X140064904Y-41558428D02*
X139810904Y-41558428D01*
X139810904Y-41461666D01*
X139823000Y-41437476D01*
X139835095Y-41425380D01*
X139859285Y-41413285D01*
X139895571Y-41413285D01*
X139919761Y-41425380D01*
X139931857Y-41437476D01*
X139943952Y-41461666D01*
X139943952Y-41558428D01*
X140064904Y-41171380D02*
X140064904Y-41316523D01*
X140064904Y-41243952D02*
X139810904Y-41243952D01*
X139847190Y-41268142D01*
X139871380Y-41292333D01*
X139883476Y-41316523D01*
X139810904Y-40953666D02*
X139810904Y-41002047D01*
X139823000Y-41026238D01*
X139835095Y-41038333D01*
X139871380Y-41062523D01*
X139919761Y-41074619D01*
X140016523Y-41074619D01*
X140040714Y-41062523D01*
X140052809Y-41050428D01*
X140064904Y-41026238D01*
X140064904Y-40977857D01*
X140052809Y-40953666D01*
X140040714Y-40941571D01*
X140016523Y-40929476D01*
X139956047Y-40929476D01*
X139931857Y-40941571D01*
X139919761Y-40953666D01*
X139907666Y-40977857D01*
X139907666Y-41026238D01*
X139919761Y-41050428D01*
X139931857Y-41062523D01*
X139956047Y-41074619D01*
D14*
X139757452Y-41265119D02*
X139757452Y-41337690D01*
X139757452Y-41301404D02*
X139630452Y-41301404D01*
X139648595Y-41313500D01*
X139660690Y-41325595D01*
X139666738Y-41337690D01*
X139757452Y-41210690D02*
X139630452Y-41210690D01*
X139709071Y-41198595D02*
X139757452Y-41162309D01*
X139672785Y-41162309D02*
X139721166Y-41210690D01*
D11*
X159001880Y-48601166D02*
X159716166Y-48601166D01*
X159859023Y-48648785D01*
X159954261Y-48744023D01*
X160001880Y-48886880D01*
X160001880Y-48982119D01*
X159001880Y-48267833D02*
X159001880Y-47696404D01*
X160001880Y-47982119D02*
X159001880Y-47982119D01*
X159716166Y-47410690D02*
X159716166Y-46934500D01*
X160001880Y-47505928D02*
X159001880Y-47172595D01*
X160001880Y-46839261D01*
X159049500Y-45982119D02*
X159001880Y-46077357D01*
X159001880Y-46220214D01*
X159049500Y-46363071D01*
X159144738Y-46458309D01*
X159239976Y-46505928D01*
X159430452Y-46553547D01*
X159573309Y-46553547D01*
X159763785Y-46505928D01*
X159859023Y-46458309D01*
X159954261Y-46363071D01*
X160001880Y-46220214D01*
X160001880Y-46124976D01*
X159954261Y-45982119D01*
X159906642Y-45934500D01*
X159573309Y-45934500D01*
X159573309Y-46124976D01*
X154201880Y-47767833D02*
X154916166Y-47767833D01*
X155059023Y-47815452D01*
X155154261Y-47910690D01*
X155201880Y-48053547D01*
X155201880Y-48148785D01*
X154201880Y-47386880D02*
X154201880Y-46767833D01*
X154582833Y-47101166D01*
X154582833Y-46958309D01*
X154630452Y-46863071D01*
X154678071Y-46815452D01*
X154773309Y-46767833D01*
X155011404Y-46767833D01*
X155106642Y-46815452D01*
X155154261Y-46863071D01*
X155201880Y-46958309D01*
X155201880Y-47244023D01*
X155154261Y-47339261D01*
X155106642Y-47386880D01*
D15*
X106630647Y-51887047D02*
X107017695Y-51887047D01*
X106204895Y-52157980D02*
X106630647Y-51887047D01*
X106204895Y-51616114D01*
X107017695Y-50919428D02*
X107017695Y-51383885D01*
X107017695Y-51151657D02*
X106204895Y-51151657D01*
X106321009Y-51229066D01*
X106398419Y-51306476D01*
X106437123Y-51383885D01*
D12*
X108479809Y-51937047D02*
X108479809Y-52227333D01*
X108479809Y-52082190D02*
X107971809Y-52082190D01*
X108044380Y-52130571D01*
X108092761Y-52178952D01*
X108116952Y-52227333D01*
X108020190Y-51743523D02*
X107996000Y-51719333D01*
X107971809Y-51670952D01*
X107971809Y-51550000D01*
X107996000Y-51501619D01*
X108020190Y-51477428D01*
X108068571Y-51453238D01*
X108116952Y-51453238D01*
X108189523Y-51477428D01*
X108479809Y-51767714D01*
X108479809Y-51453238D01*
X108479809Y-51235523D02*
X107971809Y-51235523D01*
X108334666Y-51066190D01*
X107971809Y-50896857D01*
X108479809Y-50896857D01*
D13*
X119724714Y-41831285D02*
X119736809Y-41843380D01*
X119748904Y-41879666D01*
X119748904Y-41903857D01*
X119736809Y-41940142D01*
X119712619Y-41964333D01*
X119688428Y-41976428D01*
X119640047Y-41988523D01*
X119603761Y-41988523D01*
X119555380Y-41976428D01*
X119531190Y-41964333D01*
X119507000Y-41940142D01*
X119494904Y-41903857D01*
X119494904Y-41879666D01*
X119507000Y-41843380D01*
X119519095Y-41831285D01*
X119494904Y-41746619D02*
X119494904Y-41589380D01*
X119591666Y-41674047D01*
X119591666Y-41637761D01*
X119603761Y-41613571D01*
X119615857Y-41601476D01*
X119640047Y-41589380D01*
X119700523Y-41589380D01*
X119724714Y-41601476D01*
X119736809Y-41613571D01*
X119748904Y-41637761D01*
X119748904Y-41710333D01*
X119736809Y-41734523D01*
X119724714Y-41746619D01*
X119494904Y-41359571D02*
X119494904Y-41480523D01*
X119615857Y-41492619D01*
X119603761Y-41480523D01*
X119591666Y-41456333D01*
X119591666Y-41395857D01*
X119603761Y-41371666D01*
X119615857Y-41359571D01*
X119640047Y-41347476D01*
X119700523Y-41347476D01*
X119724714Y-41359571D01*
X119736809Y-41371666D01*
X119748904Y-41395857D01*
X119748904Y-41456333D01*
X119736809Y-41480523D01*
X119724714Y-41492619D01*
D14*
X119826547Y-41822214D02*
X119820500Y-41816166D01*
X119814452Y-41804071D01*
X119814452Y-41773833D01*
X119820500Y-41761738D01*
X119826547Y-41755690D01*
X119838642Y-41749642D01*
X119850738Y-41749642D01*
X119868880Y-41755690D01*
X119941452Y-41828261D01*
X119941452Y-41749642D01*
X119856785Y-41640785D02*
X119941452Y-41640785D01*
X119856785Y-41695214D02*
X119923309Y-41695214D01*
X119935404Y-41689166D01*
X119941452Y-41677071D01*
X119941452Y-41658928D01*
X119935404Y-41646833D01*
X119929357Y-41640785D01*
X119826547Y-41586357D02*
X119820500Y-41580309D01*
X119814452Y-41568214D01*
X119814452Y-41537976D01*
X119820500Y-41525880D01*
X119826547Y-41519833D01*
X119838642Y-41513785D01*
X119850738Y-41513785D01*
X119868880Y-41519833D01*
X119941452Y-41592404D01*
X119941452Y-41513785D01*
D13*
X146740714Y-40763285D02*
X146752809Y-40775380D01*
X146764904Y-40811666D01*
X146764904Y-40835857D01*
X146752809Y-40872142D01*
X146728619Y-40896333D01*
X146704428Y-40908428D01*
X146656047Y-40920523D01*
X146619761Y-40920523D01*
X146571380Y-40908428D01*
X146547190Y-40896333D01*
X146523000Y-40872142D01*
X146510904Y-40835857D01*
X146510904Y-40811666D01*
X146523000Y-40775380D01*
X146535095Y-40763285D01*
X146510904Y-40678619D02*
X146510904Y-40521380D01*
X146607666Y-40606047D01*
X146607666Y-40569761D01*
X146619761Y-40545571D01*
X146631857Y-40533476D01*
X146656047Y-40521380D01*
X146716523Y-40521380D01*
X146740714Y-40533476D01*
X146752809Y-40545571D01*
X146764904Y-40569761D01*
X146764904Y-40642333D01*
X146752809Y-40666523D01*
X146740714Y-40678619D01*
X146510904Y-40303666D02*
X146510904Y-40352047D01*
X146523000Y-40376238D01*
X146535095Y-40388333D01*
X146571380Y-40412523D01*
X146619761Y-40424619D01*
X146716523Y-40424619D01*
X146740714Y-40412523D01*
X146752809Y-40400428D01*
X146764904Y-40376238D01*
X146764904Y-40327857D01*
X146752809Y-40303666D01*
X146740714Y-40291571D01*
X146716523Y-40279476D01*
X146656047Y-40279476D01*
X146631857Y-40291571D01*
X146619761Y-40303666D01*
X146607666Y-40327857D01*
X146607666Y-40376238D01*
X146619761Y-40400428D01*
X146631857Y-40412523D01*
X146656047Y-40424619D01*
D14*
X146342547Y-40754214D02*
X146336500Y-40748166D01*
X146330452Y-40736071D01*
X146330452Y-40705833D01*
X146336500Y-40693738D01*
X146342547Y-40687690D01*
X146354642Y-40681642D01*
X146366738Y-40681642D01*
X146384880Y-40687690D01*
X146457452Y-40760261D01*
X146457452Y-40681642D01*
X146372785Y-40572785D02*
X146457452Y-40572785D01*
X146372785Y-40627214D02*
X146439309Y-40627214D01*
X146451404Y-40621166D01*
X146457452Y-40609071D01*
X146457452Y-40590928D01*
X146451404Y-40578833D01*
X146445357Y-40572785D01*
X146342547Y-40518357D02*
X146336500Y-40512309D01*
X146330452Y-40500214D01*
X146330452Y-40469976D01*
X146336500Y-40457880D01*
X146342547Y-40451833D01*
X146354642Y-40445785D01*
X146366738Y-40445785D01*
X146384880Y-40451833D01*
X146457452Y-40524404D01*
X146457452Y-40445785D01*
D13*
X147836714Y-48740714D02*
X147824619Y-48752809D01*
X147788333Y-48764904D01*
X147764142Y-48764904D01*
X147727857Y-48752809D01*
X147703666Y-48728619D01*
X147691571Y-48704428D01*
X147679476Y-48656047D01*
X147679476Y-48619761D01*
X147691571Y-48571380D01*
X147703666Y-48547190D01*
X147727857Y-48523000D01*
X147764142Y-48510904D01*
X147788333Y-48510904D01*
X147824619Y-48523000D01*
X147836714Y-48535095D01*
X147921380Y-48510904D02*
X148078619Y-48510904D01*
X147993952Y-48607666D01*
X148030238Y-48607666D01*
X148054428Y-48619761D01*
X148066523Y-48631857D01*
X148078619Y-48656047D01*
X148078619Y-48716523D01*
X148066523Y-48740714D01*
X148054428Y-48752809D01*
X148030238Y-48764904D01*
X147957666Y-48764904D01*
X147933476Y-48752809D01*
X147921380Y-48740714D01*
X148163285Y-48510904D02*
X148332619Y-48510904D01*
X148223761Y-48764904D01*
D14*
X147845785Y-48342547D02*
X147851833Y-48336500D01*
X147863928Y-48330452D01*
X147894166Y-48330452D01*
X147906261Y-48336500D01*
X147912309Y-48342547D01*
X147918357Y-48354642D01*
X147918357Y-48366738D01*
X147912309Y-48384880D01*
X147839738Y-48457452D01*
X147918357Y-48457452D01*
X148027214Y-48372785D02*
X148027214Y-48457452D01*
X147972785Y-48372785D02*
X147972785Y-48439309D01*
X147978833Y-48451404D01*
X147990928Y-48457452D01*
X148009071Y-48457452D01*
X148021166Y-48451404D01*
X148027214Y-48445357D01*
X148081642Y-48342547D02*
X148087690Y-48336500D01*
X148099785Y-48330452D01*
X148130023Y-48330452D01*
X148142119Y-48336500D01*
X148148166Y-48342547D01*
X148154214Y-48354642D01*
X148154214Y-48366738D01*
X148148166Y-48384880D01*
X148075595Y-48457452D01*
X148154214Y-48457452D01*
D10*
X156222738Y-38915952D02*
X156222738Y-38515952D01*
X156222738Y-38706428D02*
X156451309Y-38706428D01*
X156451309Y-38915952D02*
X156451309Y-38515952D01*
X156603690Y-38515952D02*
X156851309Y-38515952D01*
X156717976Y-38668333D01*
X156775119Y-38668333D01*
X156813214Y-38687380D01*
X156832261Y-38706428D01*
X156851309Y-38744523D01*
X156851309Y-38839761D01*
X156832261Y-38877857D01*
X156813214Y-38896904D01*
X156775119Y-38915952D01*
X156660833Y-38915952D01*
X156622738Y-38896904D01*
X156603690Y-38877857D01*
X158445238Y-83111952D02*
X158445238Y-82711952D01*
X158445238Y-82902428D02*
X158673809Y-82902428D01*
X158673809Y-83111952D02*
X158673809Y-82711952D01*
X159054761Y-82711952D02*
X158864285Y-82711952D01*
X158845238Y-82902428D01*
X158864285Y-82883380D01*
X158902380Y-82864333D01*
X158997619Y-82864333D01*
X159035714Y-82883380D01*
X159054761Y-82902428D01*
X159073809Y-82940523D01*
X159073809Y-83035761D01*
X159054761Y-83073857D01*
X159035714Y-83092904D01*
X158997619Y-83111952D01*
X158902380Y-83111952D01*
X158864285Y-83092904D01*
X158845238Y-83073857D01*
X104787738Y-41455952D02*
X104787738Y-41055952D01*
X104787738Y-41246428D02*
X105016309Y-41246428D01*
X105016309Y-41455952D02*
X105016309Y-41055952D01*
X105378214Y-41189285D02*
X105378214Y-41455952D01*
X105282976Y-41036904D02*
X105187738Y-41322619D01*
X105435357Y-41322619D01*
D13*
X129340714Y-44913285D02*
X129352809Y-44925380D01*
X129364904Y-44961666D01*
X129364904Y-44985857D01*
X129352809Y-45022142D01*
X129328619Y-45046333D01*
X129304428Y-45058428D01*
X129256047Y-45070523D01*
X129219761Y-45070523D01*
X129171380Y-45058428D01*
X129147190Y-45046333D01*
X129123000Y-45022142D01*
X129110904Y-44985857D01*
X129110904Y-44961666D01*
X129123000Y-44925380D01*
X129135095Y-44913285D01*
X129110904Y-44828619D02*
X129110904Y-44671380D01*
X129207666Y-44756047D01*
X129207666Y-44719761D01*
X129219761Y-44695571D01*
X129231857Y-44683476D01*
X129256047Y-44671380D01*
X129316523Y-44671380D01*
X129340714Y-44683476D01*
X129352809Y-44695571D01*
X129364904Y-44719761D01*
X129364904Y-44792333D01*
X129352809Y-44816523D01*
X129340714Y-44828619D01*
X129219761Y-44526238D02*
X129207666Y-44550428D01*
X129195571Y-44562523D01*
X129171380Y-44574619D01*
X129159285Y-44574619D01*
X129135095Y-44562523D01*
X129123000Y-44550428D01*
X129110904Y-44526238D01*
X129110904Y-44477857D01*
X129123000Y-44453666D01*
X129135095Y-44441571D01*
X129159285Y-44429476D01*
X129171380Y-44429476D01*
X129195571Y-44441571D01*
X129207666Y-44453666D01*
X129219761Y-44477857D01*
X129219761Y-44526238D01*
X129231857Y-44550428D01*
X129243952Y-44562523D01*
X129268142Y-44574619D01*
X129316523Y-44574619D01*
X129340714Y-44562523D01*
X129352809Y-44550428D01*
X129364904Y-44526238D01*
X129364904Y-44477857D01*
X129352809Y-44453666D01*
X129340714Y-44441571D01*
X129316523Y-44429476D01*
X129268142Y-44429476D01*
X129243952Y-44441571D01*
X129231857Y-44453666D01*
X129219761Y-44477857D01*
D14*
X128942547Y-44904214D02*
X128936500Y-44898166D01*
X128930452Y-44886071D01*
X128930452Y-44855833D01*
X128936500Y-44843738D01*
X128942547Y-44837690D01*
X128954642Y-44831642D01*
X128966738Y-44831642D01*
X128984880Y-44837690D01*
X129057452Y-44910261D01*
X129057452Y-44831642D01*
X128942547Y-44783261D02*
X128936500Y-44777214D01*
X128930452Y-44765119D01*
X128930452Y-44734880D01*
X128936500Y-44722785D01*
X128942547Y-44716738D01*
X128954642Y-44710690D01*
X128966738Y-44710690D01*
X128984880Y-44716738D01*
X129057452Y-44789309D01*
X129057452Y-44710690D01*
X128972785Y-44656261D02*
X129099785Y-44656261D01*
X128978833Y-44656261D02*
X128972785Y-44644166D01*
X128972785Y-44619976D01*
X128978833Y-44607880D01*
X128984880Y-44601833D01*
X128996976Y-44595785D01*
X129033261Y-44595785D01*
X129045357Y-44601833D01*
X129051404Y-44607880D01*
X129057452Y-44619976D01*
X129057452Y-44644166D01*
X129051404Y-44656261D01*
D13*
X111686714Y-39390714D02*
X111674619Y-39402809D01*
X111638333Y-39414904D01*
X111614142Y-39414904D01*
X111577857Y-39402809D01*
X111553666Y-39378619D01*
X111541571Y-39354428D01*
X111529476Y-39306047D01*
X111529476Y-39269761D01*
X111541571Y-39221380D01*
X111553666Y-39197190D01*
X111577857Y-39173000D01*
X111614142Y-39160904D01*
X111638333Y-39160904D01*
X111674619Y-39173000D01*
X111686714Y-39185095D01*
X111771380Y-39160904D02*
X111928619Y-39160904D01*
X111843952Y-39257666D01*
X111880238Y-39257666D01*
X111904428Y-39269761D01*
X111916523Y-39281857D01*
X111928619Y-39306047D01*
X111928619Y-39366523D01*
X111916523Y-39390714D01*
X111904428Y-39402809D01*
X111880238Y-39414904D01*
X111807666Y-39414904D01*
X111783476Y-39402809D01*
X111771380Y-39390714D01*
X112049571Y-39414904D02*
X112097952Y-39414904D01*
X112122142Y-39402809D01*
X112134238Y-39390714D01*
X112158428Y-39354428D01*
X112170523Y-39306047D01*
X112170523Y-39209285D01*
X112158428Y-39185095D01*
X112146333Y-39173000D01*
X112122142Y-39160904D01*
X112073761Y-39160904D01*
X112049571Y-39173000D01*
X112037476Y-39185095D01*
X112025380Y-39209285D01*
X112025380Y-39269761D01*
X112037476Y-39293952D01*
X112049571Y-39306047D01*
X112073761Y-39318142D01*
X112122142Y-39318142D01*
X112146333Y-39306047D01*
X112158428Y-39293952D01*
X112170523Y-39269761D01*
D14*
X111695785Y-38992547D02*
X111701833Y-38986500D01*
X111713928Y-38980452D01*
X111744166Y-38980452D01*
X111756261Y-38986500D01*
X111762309Y-38992547D01*
X111768357Y-39004642D01*
X111768357Y-39016738D01*
X111762309Y-39034880D01*
X111689738Y-39107452D01*
X111768357Y-39107452D01*
X111816738Y-38992547D02*
X111822785Y-38986500D01*
X111834880Y-38980452D01*
X111865119Y-38980452D01*
X111877214Y-38986500D01*
X111883261Y-38992547D01*
X111889309Y-39004642D01*
X111889309Y-39016738D01*
X111883261Y-39034880D01*
X111810690Y-39107452D01*
X111889309Y-39107452D01*
X111943738Y-39022785D02*
X111943738Y-39149785D01*
X111943738Y-39028833D02*
X111955833Y-39022785D01*
X111980023Y-39022785D01*
X111992119Y-39028833D01*
X111998166Y-39034880D01*
X112004214Y-39046976D01*
X112004214Y-39083261D01*
X111998166Y-39095357D01*
X111992119Y-39101404D01*
X111980023Y-39107452D01*
X111955833Y-39107452D01*
X111943738Y-39101404D01*
D13*
X136407666Y-44464904D02*
X136323000Y-44343952D01*
X136262523Y-44464904D02*
X136262523Y-44210904D01*
X136359285Y-44210904D01*
X136383476Y-44223000D01*
X136395571Y-44235095D01*
X136407666Y-44259285D01*
X136407666Y-44295571D01*
X136395571Y-44319761D01*
X136383476Y-44331857D01*
X136359285Y-44343952D01*
X136262523Y-44343952D01*
X136504428Y-44235095D02*
X136516523Y-44223000D01*
X136540714Y-44210904D01*
X136601190Y-44210904D01*
X136625380Y-44223000D01*
X136637476Y-44235095D01*
X136649571Y-44259285D01*
X136649571Y-44283476D01*
X136637476Y-44319761D01*
X136492333Y-44464904D01*
X136649571Y-44464904D01*
D14*
X136434880Y-44157452D02*
X136362309Y-44157452D01*
X136398595Y-44157452D02*
X136398595Y-44030452D01*
X136386500Y-44048595D01*
X136374404Y-44060690D01*
X136362309Y-44066738D01*
X136489309Y-44157452D02*
X136489309Y-44030452D01*
X136501404Y-44109071D02*
X136537690Y-44157452D01*
X136537690Y-44072785D02*
X136489309Y-44121166D01*
M02*
