G04 #@! TF.GenerationSoftware,KiCad,Pcbnew,7.0.10*
G04 #@! TF.CreationDate,2024-03-18T18:47:05-04:00*
G04 #@! TF.ProjectId,GW4302,47573433-3032-42e6-9b69-6361645f7063,0.1*
G04 #@! TF.SameCoordinates,Original*
G04 #@! TF.FileFunction,Soldermask,Bot*
G04 #@! TF.FilePolarity,Negative*
%FSLAX46Y46*%
G04 Gerber Fmt 4.6, Leading zero omitted, Abs format (unit mm)*
G04 Created by KiCad (PCBNEW 7.0.10) date 2024-03-18 18:47:05*
%MOMM*%
%LPD*%
G01*
G04 APERTURE LIST*
G04 APERTURE END LIST*
G36*
X105875999Y-89379771D02*
G01*
X105887712Y-89383869D01*
X105898592Y-89385176D01*
X105954857Y-89407364D01*
X106004635Y-89424782D01*
X106011071Y-89429532D01*
X106014788Y-89430998D01*
X106077758Y-89478749D01*
X106114289Y-89505711D01*
X106141259Y-89542253D01*
X106189001Y-89605211D01*
X106190466Y-89608926D01*
X106195218Y-89615365D01*
X106212642Y-89665162D01*
X106234822Y-89721406D01*
X106236127Y-89732280D01*
X106240229Y-89744001D01*
X106248200Y-89829000D01*
X106248200Y-89878804D01*
X106285396Y-89916000D01*
X107074603Y-89916000D01*
X107111800Y-89878803D01*
X107111800Y-89832798D01*
X107111800Y-89829000D01*
X107119771Y-89744001D01*
X107123869Y-89732288D01*
X107125176Y-89721407D01*
X107147367Y-89665133D01*
X107164782Y-89615365D01*
X107169531Y-89608929D01*
X107170998Y-89605211D01*
X107218777Y-89542204D01*
X107245711Y-89505711D01*
X107282204Y-89478777D01*
X107345211Y-89430998D01*
X107348929Y-89429531D01*
X107355365Y-89424782D01*
X107405140Y-89407365D01*
X107461406Y-89385177D01*
X107472284Y-89383870D01*
X107484001Y-89379771D01*
X107569000Y-89371800D01*
X108331000Y-89371800D01*
X108415999Y-89379771D01*
X108427712Y-89383869D01*
X108438592Y-89385176D01*
X108494857Y-89407364D01*
X108544635Y-89424782D01*
X108551071Y-89429532D01*
X108554788Y-89430998D01*
X108617758Y-89478749D01*
X108654289Y-89505711D01*
X108681259Y-89542253D01*
X108729001Y-89605211D01*
X108730466Y-89608926D01*
X108735218Y-89615365D01*
X108752642Y-89665162D01*
X108774822Y-89721406D01*
X108776127Y-89732280D01*
X108780229Y-89744001D01*
X108788200Y-89829000D01*
X108788200Y-89878804D01*
X108825396Y-89916000D01*
X109614603Y-89916000D01*
X109651800Y-89878803D01*
X109651800Y-89832798D01*
X109651800Y-89829000D01*
X109659771Y-89744001D01*
X109663869Y-89732288D01*
X109665176Y-89721407D01*
X109687367Y-89665133D01*
X109704782Y-89615365D01*
X109709531Y-89608929D01*
X109710998Y-89605211D01*
X109758777Y-89542204D01*
X109785711Y-89505711D01*
X109822204Y-89478777D01*
X109885211Y-89430998D01*
X109888929Y-89429531D01*
X109895365Y-89424782D01*
X109945140Y-89407365D01*
X110001406Y-89385177D01*
X110012284Y-89383870D01*
X110024001Y-89379771D01*
X110109000Y-89371800D01*
X110871000Y-89371800D01*
X110955999Y-89379771D01*
X110967712Y-89383869D01*
X110978592Y-89385176D01*
X111034857Y-89407364D01*
X111084635Y-89424782D01*
X111091071Y-89429532D01*
X111094788Y-89430998D01*
X111157758Y-89478749D01*
X111194289Y-89505711D01*
X111221259Y-89542253D01*
X111269001Y-89605211D01*
X111270466Y-89608926D01*
X111275218Y-89615365D01*
X111292642Y-89665162D01*
X111314822Y-89721406D01*
X111316127Y-89732280D01*
X111320229Y-89744001D01*
X111328200Y-89829000D01*
X111328200Y-89878804D01*
X111365396Y-89916000D01*
X112154603Y-89916000D01*
X112191800Y-89878803D01*
X112191800Y-89832798D01*
X112191800Y-89829000D01*
X112199771Y-89744001D01*
X112203869Y-89732288D01*
X112205176Y-89721407D01*
X112227367Y-89665133D01*
X112244782Y-89615365D01*
X112249531Y-89608929D01*
X112250998Y-89605211D01*
X112298777Y-89542204D01*
X112325711Y-89505711D01*
X112362204Y-89478777D01*
X112425211Y-89430998D01*
X112428929Y-89429531D01*
X112435365Y-89424782D01*
X112485140Y-89407365D01*
X112541406Y-89385177D01*
X112552284Y-89383870D01*
X112564001Y-89379771D01*
X112649000Y-89371800D01*
X113411000Y-89371800D01*
X113495999Y-89379771D01*
X113507712Y-89383869D01*
X113518592Y-89385176D01*
X113574857Y-89407364D01*
X113624635Y-89424782D01*
X113631071Y-89429532D01*
X113634788Y-89430998D01*
X113697758Y-89478749D01*
X113734289Y-89505711D01*
X113761259Y-89542253D01*
X113809001Y-89605211D01*
X113810466Y-89608926D01*
X113815218Y-89615365D01*
X113832642Y-89665162D01*
X113854822Y-89721406D01*
X113856127Y-89732280D01*
X113860229Y-89744001D01*
X113868200Y-89829000D01*
X113868200Y-89878804D01*
X113905396Y-89916000D01*
X114694603Y-89916000D01*
X114731800Y-89878803D01*
X114731800Y-89832798D01*
X114731800Y-89829000D01*
X114739771Y-89744001D01*
X114743869Y-89732288D01*
X114745176Y-89721407D01*
X114767367Y-89665133D01*
X114784782Y-89615365D01*
X114789531Y-89608929D01*
X114790998Y-89605211D01*
X114838777Y-89542204D01*
X114865711Y-89505711D01*
X114902204Y-89478777D01*
X114965211Y-89430998D01*
X114968929Y-89429531D01*
X114975365Y-89424782D01*
X115025140Y-89407365D01*
X115081406Y-89385177D01*
X115092284Y-89383870D01*
X115104001Y-89379771D01*
X115189000Y-89371800D01*
X115951000Y-89371800D01*
X116035999Y-89379771D01*
X116047712Y-89383869D01*
X116058592Y-89385176D01*
X116114857Y-89407364D01*
X116164635Y-89424782D01*
X116171071Y-89429532D01*
X116174788Y-89430998D01*
X116237758Y-89478749D01*
X116274289Y-89505711D01*
X116301259Y-89542253D01*
X116349001Y-89605211D01*
X116350466Y-89608926D01*
X116355218Y-89615365D01*
X116372642Y-89665162D01*
X116394822Y-89721406D01*
X116396127Y-89732280D01*
X116400229Y-89744001D01*
X116408200Y-89829000D01*
X116408200Y-89878804D01*
X116445396Y-89916000D01*
X117234603Y-89916000D01*
X117271800Y-89878803D01*
X117271800Y-89832798D01*
X117271800Y-89829000D01*
X117279771Y-89744001D01*
X117283869Y-89732288D01*
X117285176Y-89721407D01*
X117307367Y-89665133D01*
X117324782Y-89615365D01*
X117329531Y-89608929D01*
X117330998Y-89605211D01*
X117378777Y-89542204D01*
X117405711Y-89505711D01*
X117442204Y-89478777D01*
X117505211Y-89430998D01*
X117508929Y-89429531D01*
X117515365Y-89424782D01*
X117565140Y-89407365D01*
X117621406Y-89385177D01*
X117632284Y-89383870D01*
X117644001Y-89379771D01*
X117729000Y-89371800D01*
X118491000Y-89371800D01*
X118575999Y-89379771D01*
X118587712Y-89383869D01*
X118598592Y-89385176D01*
X118654857Y-89407364D01*
X118704635Y-89424782D01*
X118711071Y-89429532D01*
X118714788Y-89430998D01*
X118777758Y-89478749D01*
X118814289Y-89505711D01*
X118841259Y-89542253D01*
X118889001Y-89605211D01*
X118890466Y-89608926D01*
X118895218Y-89615365D01*
X118912642Y-89665162D01*
X118934822Y-89721406D01*
X118936127Y-89732280D01*
X118940229Y-89744001D01*
X118948200Y-89829000D01*
X118948200Y-89878804D01*
X118985396Y-89916000D01*
X119774603Y-89916000D01*
X119811800Y-89878803D01*
X119811800Y-89832798D01*
X119811800Y-89829000D01*
X119819771Y-89744001D01*
X119823869Y-89732288D01*
X119825176Y-89721407D01*
X119847367Y-89665133D01*
X119864782Y-89615365D01*
X119869531Y-89608929D01*
X119870998Y-89605211D01*
X119918777Y-89542204D01*
X119945711Y-89505711D01*
X119982204Y-89478777D01*
X120045211Y-89430998D01*
X120048929Y-89429531D01*
X120055365Y-89424782D01*
X120105140Y-89407365D01*
X120161406Y-89385177D01*
X120172284Y-89383870D01*
X120184001Y-89379771D01*
X120269000Y-89371800D01*
X121031000Y-89371800D01*
X121115999Y-89379771D01*
X121127712Y-89383869D01*
X121138592Y-89385176D01*
X121194857Y-89407364D01*
X121244635Y-89424782D01*
X121251071Y-89429532D01*
X121254788Y-89430998D01*
X121317758Y-89478749D01*
X121354289Y-89505711D01*
X121381259Y-89542253D01*
X121429001Y-89605211D01*
X121430466Y-89608926D01*
X121435218Y-89615365D01*
X121452642Y-89665162D01*
X121474822Y-89721406D01*
X121476127Y-89732280D01*
X121480229Y-89744001D01*
X121488200Y-89829000D01*
X121488200Y-89878804D01*
X121525396Y-89916000D01*
X122314603Y-89916000D01*
X122351800Y-89878803D01*
X122351800Y-89832798D01*
X122351800Y-89829000D01*
X122359771Y-89744001D01*
X122363869Y-89732288D01*
X122365176Y-89721407D01*
X122387367Y-89665133D01*
X122404782Y-89615365D01*
X122409531Y-89608929D01*
X122410998Y-89605211D01*
X122458777Y-89542204D01*
X122485711Y-89505711D01*
X122522204Y-89478777D01*
X122585211Y-89430998D01*
X122588929Y-89429531D01*
X122595365Y-89424782D01*
X122645140Y-89407365D01*
X122701406Y-89385177D01*
X122712284Y-89383870D01*
X122724001Y-89379771D01*
X122809000Y-89371800D01*
X123571000Y-89371800D01*
X123655999Y-89379771D01*
X123667712Y-89383869D01*
X123678592Y-89385176D01*
X123734857Y-89407364D01*
X123784635Y-89424782D01*
X123791071Y-89429532D01*
X123794788Y-89430998D01*
X123857758Y-89478749D01*
X123894289Y-89505711D01*
X123921259Y-89542253D01*
X123969001Y-89605211D01*
X123970466Y-89608926D01*
X123975218Y-89615365D01*
X123992642Y-89665162D01*
X124014822Y-89721406D01*
X124016127Y-89732280D01*
X124020229Y-89744001D01*
X124028200Y-89829000D01*
X124028200Y-89878804D01*
X124065396Y-89916000D01*
X124854603Y-89916000D01*
X124891800Y-89878803D01*
X124891800Y-89832798D01*
X124891800Y-89829000D01*
X124899771Y-89744001D01*
X124903869Y-89732288D01*
X124905176Y-89721407D01*
X124927367Y-89665133D01*
X124944782Y-89615365D01*
X124949531Y-89608929D01*
X124950998Y-89605211D01*
X124998777Y-89542204D01*
X125025711Y-89505711D01*
X125062204Y-89478777D01*
X125125211Y-89430998D01*
X125128929Y-89429531D01*
X125135365Y-89424782D01*
X125185140Y-89407365D01*
X125241406Y-89385177D01*
X125252284Y-89383870D01*
X125264001Y-89379771D01*
X125349000Y-89371800D01*
X126111000Y-89371800D01*
X126195999Y-89379771D01*
X126207712Y-89383869D01*
X126218592Y-89385176D01*
X126274857Y-89407364D01*
X126324635Y-89424782D01*
X126331071Y-89429532D01*
X126334788Y-89430998D01*
X126397758Y-89478749D01*
X126434289Y-89505711D01*
X126461259Y-89542253D01*
X126509001Y-89605211D01*
X126510466Y-89608926D01*
X126515218Y-89615365D01*
X126532642Y-89665162D01*
X126554822Y-89721406D01*
X126556127Y-89732280D01*
X126560229Y-89744001D01*
X126568200Y-89829000D01*
X126568200Y-89878804D01*
X126605396Y-89916000D01*
X127394603Y-89916000D01*
X127431800Y-89878803D01*
X127431800Y-89832798D01*
X127431800Y-89829000D01*
X127439771Y-89744001D01*
X127443869Y-89732288D01*
X127445176Y-89721407D01*
X127467367Y-89665133D01*
X127484782Y-89615365D01*
X127489531Y-89608929D01*
X127490998Y-89605211D01*
X127538777Y-89542204D01*
X127565711Y-89505711D01*
X127602204Y-89478777D01*
X127665211Y-89430998D01*
X127668929Y-89429531D01*
X127675365Y-89424782D01*
X127725140Y-89407365D01*
X127781406Y-89385177D01*
X127792284Y-89383870D01*
X127804001Y-89379771D01*
X127889000Y-89371800D01*
X128651000Y-89371800D01*
X128735999Y-89379771D01*
X128747712Y-89383869D01*
X128758592Y-89385176D01*
X128814857Y-89407364D01*
X128864635Y-89424782D01*
X128871071Y-89429532D01*
X128874788Y-89430998D01*
X128937758Y-89478749D01*
X128974289Y-89505711D01*
X129001259Y-89542253D01*
X129049001Y-89605211D01*
X129050466Y-89608926D01*
X129055218Y-89615365D01*
X129072642Y-89665162D01*
X129094822Y-89721406D01*
X129096127Y-89732280D01*
X129100229Y-89744001D01*
X129108200Y-89829000D01*
X129108200Y-89878804D01*
X129145396Y-89916000D01*
X129934603Y-89916000D01*
X129971800Y-89878803D01*
X129971800Y-89832798D01*
X129971800Y-89829000D01*
X129979771Y-89744001D01*
X129983869Y-89732288D01*
X129985176Y-89721407D01*
X130007367Y-89665133D01*
X130024782Y-89615365D01*
X130029531Y-89608929D01*
X130030998Y-89605211D01*
X130078777Y-89542204D01*
X130105711Y-89505711D01*
X130142204Y-89478777D01*
X130205211Y-89430998D01*
X130208929Y-89429531D01*
X130215365Y-89424782D01*
X130265140Y-89407365D01*
X130321406Y-89385177D01*
X130332284Y-89383870D01*
X130344001Y-89379771D01*
X130429000Y-89371800D01*
X131191000Y-89371800D01*
X131275999Y-89379771D01*
X131287712Y-89383869D01*
X131298592Y-89385176D01*
X131354857Y-89407364D01*
X131404635Y-89424782D01*
X131411071Y-89429532D01*
X131414788Y-89430998D01*
X131477758Y-89478749D01*
X131514289Y-89505711D01*
X131541259Y-89542253D01*
X131589001Y-89605211D01*
X131590466Y-89608926D01*
X131595218Y-89615365D01*
X131612642Y-89665162D01*
X131634822Y-89721406D01*
X131636127Y-89732280D01*
X131640229Y-89744001D01*
X131648200Y-89829000D01*
X131648200Y-89878804D01*
X131685396Y-89916000D01*
X132474603Y-89916000D01*
X132511800Y-89878803D01*
X132511800Y-89832798D01*
X132511800Y-89829000D01*
X132519771Y-89744001D01*
X132523869Y-89732288D01*
X132525176Y-89721407D01*
X132547367Y-89665133D01*
X132564782Y-89615365D01*
X132569531Y-89608929D01*
X132570998Y-89605211D01*
X132618777Y-89542204D01*
X132645711Y-89505711D01*
X132682204Y-89478777D01*
X132745211Y-89430998D01*
X132748929Y-89429531D01*
X132755365Y-89424782D01*
X132805140Y-89407365D01*
X132861406Y-89385177D01*
X132872284Y-89383870D01*
X132884001Y-89379771D01*
X132969000Y-89371800D01*
X133731000Y-89371800D01*
X133815999Y-89379771D01*
X133827712Y-89383869D01*
X133838592Y-89385176D01*
X133894857Y-89407364D01*
X133944635Y-89424782D01*
X133951071Y-89429532D01*
X133954788Y-89430998D01*
X134017758Y-89478749D01*
X134054289Y-89505711D01*
X134081259Y-89542253D01*
X134129001Y-89605211D01*
X134130466Y-89608926D01*
X134135218Y-89615365D01*
X134152642Y-89665162D01*
X134174822Y-89721406D01*
X134176127Y-89732280D01*
X134180229Y-89744001D01*
X134188200Y-89829000D01*
X134188200Y-89878804D01*
X134225396Y-89916000D01*
X135014603Y-89916000D01*
X135051800Y-89878803D01*
X135051800Y-89832798D01*
X135051800Y-89829000D01*
X135059771Y-89744001D01*
X135063869Y-89732288D01*
X135065176Y-89721407D01*
X135087367Y-89665133D01*
X135104782Y-89615365D01*
X135109531Y-89608929D01*
X135110998Y-89605211D01*
X135158777Y-89542204D01*
X135185711Y-89505711D01*
X135222204Y-89478777D01*
X135285211Y-89430998D01*
X135288929Y-89429531D01*
X135295365Y-89424782D01*
X135345140Y-89407365D01*
X135401406Y-89385177D01*
X135412284Y-89383870D01*
X135424001Y-89379771D01*
X135509000Y-89371800D01*
X136271000Y-89371800D01*
X136355999Y-89379771D01*
X136367712Y-89383869D01*
X136378592Y-89385176D01*
X136434857Y-89407364D01*
X136484635Y-89424782D01*
X136491071Y-89429532D01*
X136494788Y-89430998D01*
X136557758Y-89478749D01*
X136594289Y-89505711D01*
X136621259Y-89542253D01*
X136669001Y-89605211D01*
X136670466Y-89608926D01*
X136675218Y-89615365D01*
X136692642Y-89665162D01*
X136714822Y-89721406D01*
X136716127Y-89732280D01*
X136720229Y-89744001D01*
X136728200Y-89829000D01*
X136728200Y-89878804D01*
X136765396Y-89916000D01*
X137554603Y-89916000D01*
X137591800Y-89878803D01*
X137591800Y-89832798D01*
X137591800Y-89829000D01*
X137599771Y-89744001D01*
X137603869Y-89732288D01*
X137605176Y-89721407D01*
X137627367Y-89665133D01*
X137644782Y-89615365D01*
X137649531Y-89608929D01*
X137650998Y-89605211D01*
X137698777Y-89542204D01*
X137725711Y-89505711D01*
X137762204Y-89478777D01*
X137825211Y-89430998D01*
X137828929Y-89429531D01*
X137835365Y-89424782D01*
X137885140Y-89407365D01*
X137941406Y-89385177D01*
X137952284Y-89383870D01*
X137964001Y-89379771D01*
X138049000Y-89371800D01*
X138811000Y-89371800D01*
X138895999Y-89379771D01*
X138907712Y-89383869D01*
X138918592Y-89385176D01*
X138974857Y-89407364D01*
X139024635Y-89424782D01*
X139031071Y-89429532D01*
X139034788Y-89430998D01*
X139097758Y-89478749D01*
X139134289Y-89505711D01*
X139161259Y-89542253D01*
X139209001Y-89605211D01*
X139210466Y-89608926D01*
X139215218Y-89615365D01*
X139232642Y-89665162D01*
X139254822Y-89721406D01*
X139256127Y-89732280D01*
X139260229Y-89744001D01*
X139268200Y-89829000D01*
X139268200Y-89878804D01*
X139305396Y-89916000D01*
X140094603Y-89916000D01*
X140131800Y-89878803D01*
X140131800Y-89832798D01*
X140131800Y-89829000D01*
X140139771Y-89744001D01*
X140143869Y-89732288D01*
X140145176Y-89721407D01*
X140167367Y-89665133D01*
X140184782Y-89615365D01*
X140189531Y-89608929D01*
X140190998Y-89605211D01*
X140238777Y-89542204D01*
X140265711Y-89505711D01*
X140302204Y-89478777D01*
X140365211Y-89430998D01*
X140368929Y-89429531D01*
X140375365Y-89424782D01*
X140425140Y-89407365D01*
X140481406Y-89385177D01*
X140492284Y-89383870D01*
X140504001Y-89379771D01*
X140589000Y-89371800D01*
X141351000Y-89371800D01*
X141435999Y-89379771D01*
X141447712Y-89383869D01*
X141458592Y-89385176D01*
X141514857Y-89407364D01*
X141564635Y-89424782D01*
X141571071Y-89429532D01*
X141574788Y-89430998D01*
X141637758Y-89478749D01*
X141674289Y-89505711D01*
X141701259Y-89542253D01*
X141749001Y-89605211D01*
X141750466Y-89608926D01*
X141755218Y-89615365D01*
X141772642Y-89665162D01*
X141794822Y-89721406D01*
X141796127Y-89732280D01*
X141800229Y-89744001D01*
X141808200Y-89829000D01*
X141808200Y-89878804D01*
X141845396Y-89916000D01*
X142634603Y-89916000D01*
X142671800Y-89878803D01*
X142671800Y-89832798D01*
X142671800Y-89829000D01*
X142679771Y-89744001D01*
X142683869Y-89732288D01*
X142685176Y-89721407D01*
X142707367Y-89665133D01*
X142724782Y-89615365D01*
X142729531Y-89608929D01*
X142730998Y-89605211D01*
X142778777Y-89542204D01*
X142805711Y-89505711D01*
X142842204Y-89478777D01*
X142905211Y-89430998D01*
X142908929Y-89429531D01*
X142915365Y-89424782D01*
X142965140Y-89407365D01*
X143021406Y-89385177D01*
X143032284Y-89383870D01*
X143044001Y-89379771D01*
X143129000Y-89371800D01*
X143891000Y-89371800D01*
X143975999Y-89379771D01*
X143987712Y-89383869D01*
X143998592Y-89385176D01*
X144054857Y-89407364D01*
X144104635Y-89424782D01*
X144111071Y-89429532D01*
X144114788Y-89430998D01*
X144177758Y-89478749D01*
X144214289Y-89505711D01*
X144241259Y-89542253D01*
X144289001Y-89605211D01*
X144290466Y-89608926D01*
X144295218Y-89615365D01*
X144312642Y-89665162D01*
X144334822Y-89721406D01*
X144336127Y-89732280D01*
X144340229Y-89744001D01*
X144348200Y-89829000D01*
X144348200Y-89878804D01*
X144385396Y-89916000D01*
X145174603Y-89916000D01*
X145211800Y-89878803D01*
X145211800Y-89832798D01*
X145211800Y-89829000D01*
X145219771Y-89744001D01*
X145223869Y-89732288D01*
X145225176Y-89721407D01*
X145247367Y-89665133D01*
X145264782Y-89615365D01*
X145269531Y-89608929D01*
X145270998Y-89605211D01*
X145318777Y-89542204D01*
X145345711Y-89505711D01*
X145382204Y-89478777D01*
X145445211Y-89430998D01*
X145448929Y-89429531D01*
X145455365Y-89424782D01*
X145505140Y-89407365D01*
X145561406Y-89385177D01*
X145572284Y-89383870D01*
X145584001Y-89379771D01*
X145669000Y-89371800D01*
X146431000Y-89371800D01*
X146515999Y-89379771D01*
X146527712Y-89383869D01*
X146538592Y-89385176D01*
X146594857Y-89407364D01*
X146644635Y-89424782D01*
X146651071Y-89429532D01*
X146654788Y-89430998D01*
X146717758Y-89478749D01*
X146754289Y-89505711D01*
X146781259Y-89542253D01*
X146829001Y-89605211D01*
X146830466Y-89608926D01*
X146835218Y-89615365D01*
X146852642Y-89665162D01*
X146874822Y-89721406D01*
X146876127Y-89732280D01*
X146880229Y-89744001D01*
X146888200Y-89829000D01*
X146888200Y-89878804D01*
X146925396Y-89916000D01*
X147714603Y-89916000D01*
X147751800Y-89878803D01*
X147751800Y-89832798D01*
X147751800Y-89829000D01*
X147759771Y-89744001D01*
X147763869Y-89732288D01*
X147765176Y-89721407D01*
X147787367Y-89665133D01*
X147804782Y-89615365D01*
X147809531Y-89608929D01*
X147810998Y-89605211D01*
X147858777Y-89542204D01*
X147885711Y-89505711D01*
X147922204Y-89478777D01*
X147985211Y-89430998D01*
X147988929Y-89429531D01*
X147995365Y-89424782D01*
X148045140Y-89407365D01*
X148101406Y-89385177D01*
X148112284Y-89383870D01*
X148124001Y-89379771D01*
X148209000Y-89371800D01*
X148971000Y-89371800D01*
X149055999Y-89379771D01*
X149067712Y-89383869D01*
X149078592Y-89385176D01*
X149134857Y-89407364D01*
X149184635Y-89424782D01*
X149191071Y-89429532D01*
X149194788Y-89430998D01*
X149257758Y-89478749D01*
X149294289Y-89505711D01*
X149321259Y-89542253D01*
X149369001Y-89605211D01*
X149370466Y-89608926D01*
X149375218Y-89615365D01*
X149392642Y-89665162D01*
X149414822Y-89721406D01*
X149416127Y-89732280D01*
X149420229Y-89744001D01*
X149428200Y-89829000D01*
X149428200Y-89878804D01*
X149465396Y-89916000D01*
X150254603Y-89916000D01*
X150291800Y-89878803D01*
X150291800Y-89832798D01*
X150291800Y-89829000D01*
X150299771Y-89744001D01*
X150303869Y-89732288D01*
X150305176Y-89721407D01*
X150327367Y-89665133D01*
X150344782Y-89615365D01*
X150349531Y-89608929D01*
X150350998Y-89605211D01*
X150398777Y-89542204D01*
X150425711Y-89505711D01*
X150462204Y-89478777D01*
X150525211Y-89430998D01*
X150528929Y-89429531D01*
X150535365Y-89424782D01*
X150585140Y-89407365D01*
X150641406Y-89385177D01*
X150652284Y-89383870D01*
X150664001Y-89379771D01*
X150749000Y-89371800D01*
X151511000Y-89371800D01*
X151595999Y-89379771D01*
X151607712Y-89383869D01*
X151618592Y-89385176D01*
X151674857Y-89407364D01*
X151724635Y-89424782D01*
X151731071Y-89429532D01*
X151734788Y-89430998D01*
X151797758Y-89478749D01*
X151834289Y-89505711D01*
X151861259Y-89542253D01*
X151909001Y-89605211D01*
X151910466Y-89608926D01*
X151915218Y-89615365D01*
X151932642Y-89665162D01*
X151954822Y-89721406D01*
X151956127Y-89732280D01*
X151960229Y-89744001D01*
X151968200Y-89829000D01*
X151968200Y-89878804D01*
X152005396Y-89916000D01*
X152794603Y-89916000D01*
X152831800Y-89878803D01*
X152831800Y-89832798D01*
X152831800Y-89829000D01*
X152839771Y-89744001D01*
X152843869Y-89732288D01*
X152845176Y-89721407D01*
X152867367Y-89665133D01*
X152884782Y-89615365D01*
X152889531Y-89608929D01*
X152890998Y-89605211D01*
X152938777Y-89542204D01*
X152965711Y-89505711D01*
X153002204Y-89478777D01*
X153065211Y-89430998D01*
X153068929Y-89429531D01*
X153075365Y-89424782D01*
X153125140Y-89407365D01*
X153181406Y-89385177D01*
X153192284Y-89383870D01*
X153204001Y-89379771D01*
X153289000Y-89371800D01*
X154051000Y-89371800D01*
X154135999Y-89379771D01*
X154147712Y-89383869D01*
X154158592Y-89385176D01*
X154214857Y-89407364D01*
X154264635Y-89424782D01*
X154271071Y-89429532D01*
X154274788Y-89430998D01*
X154337758Y-89478749D01*
X154374289Y-89505711D01*
X154401259Y-89542253D01*
X154449001Y-89605211D01*
X154450466Y-89608926D01*
X154455218Y-89615365D01*
X154472642Y-89665162D01*
X154494822Y-89721406D01*
X154496127Y-89732280D01*
X154500229Y-89744001D01*
X154508200Y-89829000D01*
X154508200Y-89878804D01*
X154545396Y-89916000D01*
X155334603Y-89916000D01*
X155371800Y-89878803D01*
X155371800Y-89832798D01*
X155371800Y-89829000D01*
X155379771Y-89744001D01*
X155383869Y-89732288D01*
X155385176Y-89721407D01*
X155407367Y-89665133D01*
X155424782Y-89615365D01*
X155429531Y-89608929D01*
X155430998Y-89605211D01*
X155478777Y-89542204D01*
X155505711Y-89505711D01*
X155542204Y-89478777D01*
X155605211Y-89430998D01*
X155608929Y-89429531D01*
X155615365Y-89424782D01*
X155665140Y-89407365D01*
X155721406Y-89385177D01*
X155732284Y-89383870D01*
X155744001Y-89379771D01*
X155829000Y-89371800D01*
X156591000Y-89371800D01*
X156675999Y-89379771D01*
X156687712Y-89383869D01*
X156698592Y-89385176D01*
X156754857Y-89407364D01*
X156804635Y-89424782D01*
X156811071Y-89429532D01*
X156814788Y-89430998D01*
X156877758Y-89478749D01*
X156914289Y-89505711D01*
X156941259Y-89542253D01*
X156989001Y-89605211D01*
X156990466Y-89608926D01*
X156995218Y-89615365D01*
X157012642Y-89665162D01*
X157034822Y-89721406D01*
X157036127Y-89732280D01*
X157040229Y-89744001D01*
X157048200Y-89829000D01*
X157048200Y-89878804D01*
X157085396Y-89916000D01*
X157874603Y-89916000D01*
X157911800Y-89878803D01*
X157911800Y-89832798D01*
X157911800Y-89829000D01*
X157919771Y-89744001D01*
X157923869Y-89732288D01*
X157925176Y-89721407D01*
X157947367Y-89665133D01*
X157964782Y-89615365D01*
X157969531Y-89608929D01*
X157970998Y-89605211D01*
X158018777Y-89542204D01*
X158045711Y-89505711D01*
X158082204Y-89478777D01*
X158145211Y-89430998D01*
X158148929Y-89429531D01*
X158155365Y-89424782D01*
X158205140Y-89407365D01*
X158261406Y-89385177D01*
X158272284Y-89383870D01*
X158284001Y-89379771D01*
X158369000Y-89371800D01*
X159131000Y-89371800D01*
X159215999Y-89379771D01*
X159227712Y-89383869D01*
X159238592Y-89385176D01*
X159294857Y-89407364D01*
X159344635Y-89424782D01*
X159351071Y-89429532D01*
X159354788Y-89430998D01*
X159417758Y-89478749D01*
X159454289Y-89505711D01*
X159481259Y-89542253D01*
X159529001Y-89605211D01*
X159530466Y-89608926D01*
X159535218Y-89615365D01*
X159552642Y-89665162D01*
X159574822Y-89721406D01*
X159576127Y-89732280D01*
X159580229Y-89744001D01*
X159588200Y-89829000D01*
X159588200Y-89878804D01*
X159625396Y-89916000D01*
X161290000Y-89916000D01*
X161290000Y-97282000D01*
X160782000Y-97790000D01*
X160769372Y-97790000D01*
X103390631Y-97790000D01*
X103378000Y-97790000D01*
X102870000Y-97282000D01*
X102870000Y-89916000D01*
X104534603Y-89916000D01*
X104571800Y-89878803D01*
X104571800Y-89832798D01*
X104571800Y-89829000D01*
X104579771Y-89744001D01*
X104583869Y-89732288D01*
X104585176Y-89721407D01*
X104607367Y-89665133D01*
X104624782Y-89615365D01*
X104629531Y-89608929D01*
X104630998Y-89605211D01*
X104678777Y-89542204D01*
X104705711Y-89505711D01*
X104742204Y-89478777D01*
X104805211Y-89430998D01*
X104808929Y-89429531D01*
X104815365Y-89424782D01*
X104865140Y-89407365D01*
X104921406Y-89385177D01*
X104932284Y-89383870D01*
X104944001Y-89379771D01*
X105029000Y-89371800D01*
X105791000Y-89371800D01*
X105875999Y-89379771D01*
G37*
G36*
X105704516Y-86975883D02*
G01*
X105889704Y-87047625D01*
X106058555Y-87152174D01*
X106205321Y-87285969D01*
X106325004Y-87444454D01*
X106413527Y-87622232D01*
X106467876Y-87813249D01*
X106486200Y-88011000D01*
X106467876Y-88208751D01*
X106413527Y-88399768D01*
X106325004Y-88577546D01*
X106205321Y-88736031D01*
X106058555Y-88869826D01*
X105889704Y-88974375D01*
X105704516Y-89046117D01*
X105509299Y-89082609D01*
X105310701Y-89082609D01*
X105115484Y-89046117D01*
X104930296Y-88974375D01*
X104761445Y-88869826D01*
X104614679Y-88736031D01*
X104494996Y-88577546D01*
X104406473Y-88399768D01*
X104352124Y-88208751D01*
X104333800Y-88011000D01*
X104352124Y-87813249D01*
X104406473Y-87622232D01*
X104494996Y-87444454D01*
X104614679Y-87285969D01*
X104761445Y-87152174D01*
X104930296Y-87047625D01*
X105115484Y-86975883D01*
X105310701Y-86939391D01*
X105509299Y-86939391D01*
X105704516Y-86975883D01*
G37*
G36*
X159044516Y-86975883D02*
G01*
X159229704Y-87047625D01*
X159398555Y-87152174D01*
X159545321Y-87285969D01*
X159665004Y-87444454D01*
X159753527Y-87622232D01*
X159807876Y-87813249D01*
X159826200Y-88011000D01*
X159807876Y-88208751D01*
X159753527Y-88399768D01*
X159665004Y-88577546D01*
X159545321Y-88736031D01*
X159398555Y-88869826D01*
X159229704Y-88974375D01*
X159044516Y-89046117D01*
X158849299Y-89082609D01*
X158650701Y-89082609D01*
X158455484Y-89046117D01*
X158270296Y-88974375D01*
X158101445Y-88869826D01*
X157954679Y-88736031D01*
X157834996Y-88577546D01*
X157746473Y-88399768D01*
X157692124Y-88208751D01*
X157673800Y-88011000D01*
X157692124Y-87813249D01*
X157746473Y-87622232D01*
X157834996Y-87444454D01*
X157954679Y-87285969D01*
X158101445Y-87152174D01*
X158270296Y-87047625D01*
X158455484Y-86975883D01*
X158650701Y-86939391D01*
X158849299Y-86939391D01*
X159044516Y-86975883D01*
G37*
G36*
X158911105Y-82225152D02*
G01*
X159064132Y-82278699D01*
X159201407Y-82364954D01*
X159316046Y-82479593D01*
X159402301Y-82616868D01*
X159455848Y-82769895D01*
X159474000Y-82931000D01*
X159455848Y-83092105D01*
X159402301Y-83245132D01*
X159316046Y-83382407D01*
X159201407Y-83497046D01*
X159064132Y-83583301D01*
X158911105Y-83636848D01*
X158750000Y-83655000D01*
X158588895Y-83636848D01*
X158435868Y-83583301D01*
X158298593Y-83497046D01*
X158183954Y-83382407D01*
X158097699Y-83245132D01*
X158044152Y-83092105D01*
X158026000Y-82931000D01*
X158044152Y-82769895D01*
X158097699Y-82616868D01*
X158183954Y-82479593D01*
X158298593Y-82364954D01*
X158435868Y-82278699D01*
X158588895Y-82225152D01*
X158750000Y-82207000D01*
X158911105Y-82225152D01*
G37*
G36*
X153768669Y-50677630D02*
G01*
X153802330Y-50677630D01*
X153840923Y-50687142D01*
X153881415Y-50692473D01*
X153909133Y-50703954D01*
X153935991Y-50710574D01*
X153976713Y-50731946D01*
X154019250Y-50749566D01*
X154038656Y-50764457D01*
X154057883Y-50774548D01*
X154097190Y-50809371D01*
X154137612Y-50840388D01*
X154149100Y-50855360D01*
X154160924Y-50865835D01*
X154194831Y-50914958D01*
X154228434Y-50958750D01*
X154233498Y-50970976D01*
X154239125Y-50979128D01*
X154263530Y-51043479D01*
X154285527Y-51096585D01*
X154286514Y-51104084D01*
X154287940Y-51107844D01*
X154298989Y-51198842D01*
X154305000Y-51244500D01*
X154298988Y-51290161D01*
X154287940Y-51381155D01*
X154286514Y-51384913D01*
X154285527Y-51392415D01*
X154263525Y-51445531D01*
X154239125Y-51509871D01*
X154233499Y-51518021D01*
X154228434Y-51530250D01*
X154194824Y-51574050D01*
X154160924Y-51623164D01*
X154149103Y-51633636D01*
X154137612Y-51648612D01*
X154097181Y-51679635D01*
X154057883Y-51714451D01*
X154038660Y-51724539D01*
X154019250Y-51739434D01*
X153976704Y-51757056D01*
X153935991Y-51778425D01*
X153909138Y-51785043D01*
X153881415Y-51796527D01*
X153840920Y-51801858D01*
X153802330Y-51811370D01*
X153768669Y-51811370D01*
X153733500Y-51816000D01*
X153698331Y-51811370D01*
X153664670Y-51811370D01*
X153626078Y-51801857D01*
X153585585Y-51796527D01*
X153557863Y-51785044D01*
X153531008Y-51778425D01*
X153490290Y-51757055D01*
X153447750Y-51739434D01*
X153428341Y-51724541D01*
X153409116Y-51714451D01*
X153369810Y-51679629D01*
X153329388Y-51648612D01*
X153317899Y-51633639D01*
X153306075Y-51623164D01*
X153272165Y-51574037D01*
X153238566Y-51530250D01*
X153233502Y-51518024D01*
X153227874Y-51509871D01*
X153203462Y-51445502D01*
X153181473Y-51392415D01*
X153180485Y-51384917D01*
X153179059Y-51381155D01*
X153167998Y-51290063D01*
X153162000Y-51244500D01*
X153167997Y-51198939D01*
X153179059Y-51107844D01*
X153180486Y-51104080D01*
X153181473Y-51096585D01*
X153203458Y-51043508D01*
X153227874Y-50979128D01*
X153233503Y-50970972D01*
X153238566Y-50958750D01*
X153272158Y-50914971D01*
X153306075Y-50865835D01*
X153317901Y-50855357D01*
X153329388Y-50840388D01*
X153369802Y-50809377D01*
X153409116Y-50774548D01*
X153428345Y-50764455D01*
X153447750Y-50749566D01*
X153490281Y-50731948D01*
X153531008Y-50710574D01*
X153557867Y-50703953D01*
X153585585Y-50692473D01*
X153626075Y-50687142D01*
X153664670Y-50677630D01*
X153698331Y-50677630D01*
X153733500Y-50673000D01*
X153768669Y-50677630D01*
G37*
G36*
X155800669Y-50677630D02*
G01*
X155834330Y-50677630D01*
X155872923Y-50687142D01*
X155913415Y-50692473D01*
X155941133Y-50703954D01*
X155967991Y-50710574D01*
X156008713Y-50731946D01*
X156051250Y-50749566D01*
X156070656Y-50764457D01*
X156089883Y-50774548D01*
X156129190Y-50809371D01*
X156169612Y-50840388D01*
X156181100Y-50855360D01*
X156192924Y-50865835D01*
X156226831Y-50914958D01*
X156260434Y-50958750D01*
X156265498Y-50970976D01*
X156271125Y-50979128D01*
X156295530Y-51043479D01*
X156317527Y-51096585D01*
X156318514Y-51104084D01*
X156319940Y-51107844D01*
X156330989Y-51198842D01*
X156337000Y-51244500D01*
X156330988Y-51290161D01*
X156319940Y-51381155D01*
X156318514Y-51384913D01*
X156317527Y-51392415D01*
X156295525Y-51445531D01*
X156271125Y-51509871D01*
X156265499Y-51518021D01*
X156260434Y-51530250D01*
X156226824Y-51574050D01*
X156192924Y-51623164D01*
X156181103Y-51633636D01*
X156169612Y-51648612D01*
X156129181Y-51679635D01*
X156089883Y-51714451D01*
X156070660Y-51724539D01*
X156051250Y-51739434D01*
X156008704Y-51757056D01*
X155967991Y-51778425D01*
X155941138Y-51785043D01*
X155913415Y-51796527D01*
X155872920Y-51801858D01*
X155834330Y-51811370D01*
X155800669Y-51811370D01*
X155765500Y-51816000D01*
X155730331Y-51811370D01*
X155696670Y-51811370D01*
X155658078Y-51801857D01*
X155617585Y-51796527D01*
X155589863Y-51785044D01*
X155563008Y-51778425D01*
X155522290Y-51757055D01*
X155479750Y-51739434D01*
X155460341Y-51724541D01*
X155441116Y-51714451D01*
X155401810Y-51679629D01*
X155361388Y-51648612D01*
X155349899Y-51633639D01*
X155338075Y-51623164D01*
X155304165Y-51574037D01*
X155270566Y-51530250D01*
X155265502Y-51518024D01*
X155259874Y-51509871D01*
X155235462Y-51445502D01*
X155213473Y-51392415D01*
X155212485Y-51384917D01*
X155211059Y-51381155D01*
X155199998Y-51290063D01*
X155194000Y-51244500D01*
X155199997Y-51198939D01*
X155211059Y-51107844D01*
X155212486Y-51104080D01*
X155213473Y-51096585D01*
X155235458Y-51043508D01*
X155259874Y-50979128D01*
X155265503Y-50970972D01*
X155270566Y-50958750D01*
X155304158Y-50914971D01*
X155338075Y-50865835D01*
X155349901Y-50855357D01*
X155361388Y-50840388D01*
X155401802Y-50809377D01*
X155441116Y-50774548D01*
X155460345Y-50764455D01*
X155479750Y-50749566D01*
X155522281Y-50731948D01*
X155563008Y-50710574D01*
X155589867Y-50703953D01*
X155617585Y-50692473D01*
X155658075Y-50687142D01*
X155696670Y-50677630D01*
X155730331Y-50677630D01*
X155765500Y-50673000D01*
X155800669Y-50677630D01*
G37*
G36*
X152428931Y-48095048D02*
G01*
X152641694Y-48152057D01*
X152841325Y-48245147D01*
X153021759Y-48371488D01*
X153177512Y-48527241D01*
X153303853Y-48707675D01*
X153396943Y-48907306D01*
X153453952Y-49120069D01*
X153473150Y-49339500D01*
X153453952Y-49558931D01*
X153396943Y-49771694D01*
X153303853Y-49971325D01*
X153177512Y-50151759D01*
X153021759Y-50307512D01*
X152841325Y-50433853D01*
X152641694Y-50526943D01*
X152428931Y-50583952D01*
X152209500Y-50603150D01*
X151990069Y-50583952D01*
X151777306Y-50526943D01*
X151577675Y-50433853D01*
X151397241Y-50307512D01*
X151241488Y-50151759D01*
X151115147Y-49971325D01*
X151022057Y-49771694D01*
X150965048Y-49558931D01*
X150945850Y-49339500D01*
X150965048Y-49120069D01*
X151022057Y-48907306D01*
X151115147Y-48707675D01*
X151241488Y-48527241D01*
X151397241Y-48371488D01*
X151577675Y-48245147D01*
X151777306Y-48152057D01*
X151990069Y-48095048D01*
X152209500Y-48075850D01*
X152428931Y-48095048D01*
G37*
G36*
X157508931Y-48095048D02*
G01*
X157721694Y-48152057D01*
X157921325Y-48245147D01*
X158101759Y-48371488D01*
X158257512Y-48527241D01*
X158383853Y-48707675D01*
X158476943Y-48907306D01*
X158533952Y-49120069D01*
X158553150Y-49339500D01*
X158533952Y-49558931D01*
X158476943Y-49771694D01*
X158383853Y-49971325D01*
X158257512Y-50151759D01*
X158101759Y-50307512D01*
X157921325Y-50433853D01*
X157721694Y-50526943D01*
X157508931Y-50583952D01*
X157289500Y-50603150D01*
X157070069Y-50583952D01*
X156857306Y-50526943D01*
X156657675Y-50433853D01*
X156477241Y-50307512D01*
X156321488Y-50151759D01*
X156195147Y-49971325D01*
X156102057Y-49771694D01*
X156045048Y-49558931D01*
X156025850Y-49339500D01*
X156045048Y-49120069D01*
X156102057Y-48907306D01*
X156195147Y-48707675D01*
X156321488Y-48527241D01*
X156477241Y-48371488D01*
X156657675Y-48245147D01*
X156857306Y-48152057D01*
X157070069Y-48095048D01*
X157289500Y-48075850D01*
X157508931Y-48095048D01*
G37*
G36*
X152428931Y-42380048D02*
G01*
X152641694Y-42437057D01*
X152841325Y-42530147D01*
X153021759Y-42656488D01*
X153177512Y-42812241D01*
X153303853Y-42992675D01*
X153396943Y-43192306D01*
X153453952Y-43405069D01*
X153473150Y-43624500D01*
X153453952Y-43843931D01*
X153396943Y-44056694D01*
X153303853Y-44256325D01*
X153177512Y-44436759D01*
X153021759Y-44592512D01*
X152841325Y-44718853D01*
X152641694Y-44811943D01*
X152428931Y-44868952D01*
X152209500Y-44888150D01*
X151990069Y-44868952D01*
X151777306Y-44811943D01*
X151577675Y-44718853D01*
X151397241Y-44592512D01*
X151241488Y-44436759D01*
X151115147Y-44256325D01*
X151022057Y-44056694D01*
X150965048Y-43843931D01*
X150945850Y-43624500D01*
X150965048Y-43405069D01*
X151022057Y-43192306D01*
X151115147Y-42992675D01*
X151241488Y-42812241D01*
X151397241Y-42656488D01*
X151577675Y-42530147D01*
X151777306Y-42437057D01*
X151990069Y-42380048D01*
X152209500Y-42360850D01*
X152428931Y-42380048D01*
G37*
G36*
X157508931Y-42380048D02*
G01*
X157721694Y-42437057D01*
X157921325Y-42530147D01*
X158101759Y-42656488D01*
X158257512Y-42812241D01*
X158383853Y-42992675D01*
X158476943Y-43192306D01*
X158533952Y-43405069D01*
X158553150Y-43624500D01*
X158533952Y-43843931D01*
X158476943Y-44056694D01*
X158383853Y-44256325D01*
X158257512Y-44436759D01*
X158101759Y-44592512D01*
X157921325Y-44718853D01*
X157721694Y-44811943D01*
X157508931Y-44868952D01*
X157289500Y-44888150D01*
X157070069Y-44868952D01*
X156857306Y-44811943D01*
X156657675Y-44718853D01*
X156477241Y-44592512D01*
X156321488Y-44436759D01*
X156195147Y-44256325D01*
X156102057Y-44056694D01*
X156045048Y-43843931D01*
X156025850Y-43624500D01*
X156045048Y-43405069D01*
X156102057Y-43192306D01*
X156195147Y-42992675D01*
X156321488Y-42812241D01*
X156477241Y-42656488D01*
X156657675Y-42530147D01*
X156857306Y-42437057D01*
X157070069Y-42380048D01*
X157289500Y-42360850D01*
X157508931Y-42380048D01*
G37*
G36*
X154784669Y-43057630D02*
G01*
X154818330Y-43057630D01*
X154856923Y-43067142D01*
X154897415Y-43072473D01*
X154925133Y-43083954D01*
X154951991Y-43090574D01*
X154992713Y-43111946D01*
X155035250Y-43129566D01*
X155054656Y-43144457D01*
X155073883Y-43154548D01*
X155113190Y-43189371D01*
X155153612Y-43220388D01*
X155165100Y-43235360D01*
X155176924Y-43245835D01*
X155210831Y-43294958D01*
X155244434Y-43338750D01*
X155249498Y-43350976D01*
X155255125Y-43359128D01*
X155279530Y-43423479D01*
X155301527Y-43476585D01*
X155302514Y-43484084D01*
X155303940Y-43487844D01*
X155314989Y-43578842D01*
X155321000Y-43624500D01*
X155314988Y-43670161D01*
X155303940Y-43761155D01*
X155302514Y-43764913D01*
X155301527Y-43772415D01*
X155279525Y-43825531D01*
X155255125Y-43889871D01*
X155249499Y-43898021D01*
X155244434Y-43910250D01*
X155210824Y-43954050D01*
X155176924Y-44003164D01*
X155165103Y-44013636D01*
X155153612Y-44028612D01*
X155113181Y-44059635D01*
X155073883Y-44094451D01*
X155054660Y-44104539D01*
X155035250Y-44119434D01*
X154992704Y-44137056D01*
X154951991Y-44158425D01*
X154925138Y-44165043D01*
X154897415Y-44176527D01*
X154856920Y-44181858D01*
X154818330Y-44191370D01*
X154784669Y-44191370D01*
X154749500Y-44196000D01*
X154714331Y-44191370D01*
X154680670Y-44191370D01*
X154642078Y-44181857D01*
X154601585Y-44176527D01*
X154573863Y-44165044D01*
X154547008Y-44158425D01*
X154506290Y-44137055D01*
X154463750Y-44119434D01*
X154444341Y-44104541D01*
X154425116Y-44094451D01*
X154385810Y-44059629D01*
X154345388Y-44028612D01*
X154333899Y-44013639D01*
X154322075Y-44003164D01*
X154288165Y-43954037D01*
X154254566Y-43910250D01*
X154249502Y-43898024D01*
X154243874Y-43889871D01*
X154219462Y-43825502D01*
X154197473Y-43772415D01*
X154196485Y-43764917D01*
X154195059Y-43761155D01*
X154183998Y-43670063D01*
X154178000Y-43624500D01*
X154183997Y-43578939D01*
X154195059Y-43487844D01*
X154196486Y-43484080D01*
X154197473Y-43476585D01*
X154219458Y-43423508D01*
X154243874Y-43359128D01*
X154249503Y-43350972D01*
X154254566Y-43338750D01*
X154288158Y-43294971D01*
X154322075Y-43245835D01*
X154333901Y-43235357D01*
X154345388Y-43220388D01*
X154385802Y-43189377D01*
X154425116Y-43154548D01*
X154444345Y-43144455D01*
X154463750Y-43129566D01*
X154506281Y-43111948D01*
X154547008Y-43090574D01*
X154573867Y-43083953D01*
X154601585Y-43072473D01*
X154642075Y-43067142D01*
X154680670Y-43057630D01*
X154714331Y-43057630D01*
X154749500Y-43053000D01*
X154784669Y-43057630D01*
G37*
G36*
X105253605Y-40569152D02*
G01*
X105406632Y-40622699D01*
X105543907Y-40708954D01*
X105658546Y-40823593D01*
X105744801Y-40960868D01*
X105798348Y-41113895D01*
X105816500Y-41275000D01*
X105798348Y-41436105D01*
X105744801Y-41589132D01*
X105658546Y-41726407D01*
X105543907Y-41841046D01*
X105406632Y-41927301D01*
X105253605Y-41980848D01*
X105092500Y-41999000D01*
X104931395Y-41980848D01*
X104778368Y-41927301D01*
X104641093Y-41841046D01*
X104526454Y-41726407D01*
X104440199Y-41589132D01*
X104386652Y-41436105D01*
X104368500Y-41275000D01*
X104386652Y-41113895D01*
X104440199Y-40960868D01*
X104526454Y-40823593D01*
X104641093Y-40708954D01*
X104778368Y-40622699D01*
X104931395Y-40569152D01*
X105092500Y-40551000D01*
X105253605Y-40569152D01*
G37*
G36*
X159228605Y-40569152D02*
G01*
X159381632Y-40622699D01*
X159518907Y-40708954D01*
X159633546Y-40823593D01*
X159719801Y-40960868D01*
X159773348Y-41113895D01*
X159791500Y-41275000D01*
X159773348Y-41436105D01*
X159719801Y-41589132D01*
X159633546Y-41726407D01*
X159518907Y-41841046D01*
X159381632Y-41927301D01*
X159228605Y-41980848D01*
X159067500Y-41999000D01*
X158906395Y-41980848D01*
X158753368Y-41927301D01*
X158616093Y-41841046D01*
X158501454Y-41726407D01*
X158415199Y-41589132D01*
X158361652Y-41436105D01*
X158343500Y-41275000D01*
X158361652Y-41113895D01*
X158415199Y-40960868D01*
X158501454Y-40823593D01*
X158616093Y-40708954D01*
X158753368Y-40622699D01*
X158906395Y-40569152D01*
X159067500Y-40551000D01*
X159228605Y-40569152D01*
G37*
M02*
