M48
; DRILL file {KiCad 8.0.6} date 2025-01-09T21:15:18-0500
; FORMAT={-:-/ absolute / metric / decimal}
; #@! TF.CreationDate,2025-01-09T21:15:18-05:00
; #@! TF.GenerationSoftware,Kicad,Pcbnew,8.0.6
; #@! TF.FileFunction,MixedPlating,1,4
FMAT,2
METRIC
; #@! TA.AperFunction,Plated,PTH,ViaDrill
T1C0.300
; #@! TA.AperFunction,Plated,PTH,ViaDrill
T2C0.400
; #@! TA.AperFunction,Plated,PTH,ComponentDrill
T3C0.800
; #@! TA.AperFunction,Plated,PTH,ComponentDrill
T4C1.100
; #@! TA.AperFunction,NonPlated,NPTH,ComponentDrill
T5C0.991
; #@! TA.AperFunction,NonPlated,NPTH,ComponentDrill
T6C1.152
; #@! TA.AperFunction,NonPlated,NPTH,ComponentDrill
T7C2.375
%
G90
G05
T1
X104.14Y-89.408
X104.331Y-41.021
X104.331Y-43.878
X104.331Y-48.959
X104.331Y-54.038
X104.331Y-59.118
X104.331Y-64.198
X104.331Y-69.278
X104.331Y-74.358
X104.331Y-79.438
X104.331Y-84.519
X105.7Y-79.25
X106.15Y-58.4
X106.15Y-59.6
X106.15Y-66.9
X106.15Y-68.1
X106.2Y-69.1
X106.489Y-38.925
X106.55Y-80.2
X106.55Y-81.6
X106.68Y-89.408
X106.7Y-52.1
X106.7Y-74.3
X106.75Y-55.8
X106.85Y-50.4
X106.87Y-46.418
X106.9Y-82.45
X107.2Y-43.25
X107.2Y-70.0
X107.4Y-78.05
X107.55Y-81.6
X107.6Y-79.05
X107.75Y-55.7
X108.05Y-50.4
X108.05Y-52.1
X108.05Y-58.6
X108.05Y-59.4
X108.05Y-61.25
X108.05Y-62.75
X108.05Y-63.75
X108.05Y-64.75
X108.05Y-65.75
X108.05Y-67.1
X108.05Y-67.9
X108.1Y-71.0
X108.15Y-74.3
X108.15Y-77.4
X108.15Y-83.7
X108.2Y-80.15
X108.25Y-46.85
X108.3Y-42.2
X108.35Y-53.1
X108.35Y-54.8
X108.91Y-41.402
X108.95Y-87.45
X109.15Y-83.8
X109.22Y-89.408
X109.3Y-56.2
X109.5Y-86.05
X109.6Y-74.3
X109.75Y-40.55
X109.75Y-42.7
X109.75Y-77.4
X109.8Y-52.2
X109.8Y-53.9
X110.0Y-46.9
X110.15Y-83.7
X110.4Y-57.25
X110.55Y-41.65
X110.55Y-58.6
X110.55Y-59.4
X110.55Y-60.75
X110.55Y-62.25
X110.55Y-63.25
X110.55Y-64.25
X110.55Y-65.25
X110.55Y-67.1
X110.55Y-67.9
X110.65Y-39.45
X110.7Y-46.15
X110.75Y-48.9
X110.95Y-53.95
X110.95Y-56.2
X111.0Y-52.2
X111.05Y-74.3
X111.1Y-66.25
X111.15Y-83.8
X111.316Y-38.925
X111.45Y-57.1
X111.5Y-48.2
X111.5Y-67.5
X111.6Y-60.1
X111.65Y-58.55
X111.75Y-61.25
X111.76Y-89.408
X111.95Y-56.2
X111.95Y-75.85
X111.95Y-88.2
X112.1Y-73.55
X112.1Y-80.15
X112.1Y-86.05
X112.15Y-83.85
X112.2Y-39.45
X112.25Y-48.9
X112.3Y-69.15
X112.3Y-71.65
X112.45Y-41.65
X112.45Y-57.1
X112.7Y-84.95
X112.85Y-52.2
X112.9Y-78.05
X112.9Y-79.25
X112.95Y-53.95
X112.95Y-56.2
X112.95Y-76.0
X113.0Y-48.2
X113.05Y-47.2
X113.05Y-86.4
X113.1Y-69.15
X113.1Y-71.65
X113.25Y-40.55
X113.25Y-42.9
X113.3Y-73.55
X113.45Y-57.1
X113.6Y-58.1
X113.75Y-77.1
X113.75Y-80.2
X113.75Y-81.6
X113.95Y-46.15
X113.95Y-49.25
X113.95Y-53.95
X113.95Y-56.2
X114.05Y-52.2
X114.15Y-75.35
X114.3Y-89.408
X114.45Y-57.1
X114.6Y-78.05
X114.65Y-87.6
X114.75Y-67.2
X114.75Y-81.6
X114.8Y-47.1
X114.8Y-48.3
X114.8Y-79.05
X114.85Y-50.15
X114.85Y-51.55
X114.95Y-56.2
X115.15Y-73.2
X115.15Y-76.0
X115.4Y-80.15
X115.4Y-83.85
X115.45Y-43.25
X115.45Y-57.1
X115.45Y-82.45
X115.65Y-74.15
X115.95Y-49.1
X115.95Y-52.6
X115.95Y-56.2
X116.0Y-64.95
X116.0Y-66.25
X116.05Y-86.05
X116.15Y-73.2
X116.3Y-77.4
X116.45Y-57.1
X116.45Y-67.2
X116.45Y-82.6
X116.649Y-38.925
X116.75Y-80.15
X116.84Y-89.408
X116.95Y-56.2
X117.0Y-65.95
X117.05Y-50.15
X117.05Y-51.55
X117.15Y-73.7
X117.35Y-77.95
X117.35Y-83.85
X117.45Y-57.1
X117.45Y-67.2
X117.85Y-47.6
X117.9Y-74.45
X117.95Y-56.2
X118.0Y-76.2
X118.0Y-80.15
X118.0Y-86.05
X118.05Y-50.9
X118.3Y-81.55
X118.45Y-43.1
X118.45Y-48.4
X118.45Y-53.95
X118.45Y-66.1
X118.45Y-67.2
X118.5Y-63.6
X118.5Y-87.6
X118.6Y-73.55
X118.65Y-77.95
X118.8Y-69.15
X118.8Y-71.65
X118.95Y-53.05
X119.25Y-39.35
X119.25Y-56.25
X119.3Y-80.15
X119.3Y-83.85
X119.3Y-86.05
X119.38Y-89.408
X119.45Y-53.95
X119.45Y-74.6
X119.5Y-63.6
X119.5Y-66.1
X119.5Y-67.2
X119.5Y-87.45
X119.6Y-69.15
X119.6Y-71.65
X119.8Y-73.55
X119.9Y-84.95
X119.95Y-53.05
X120.05Y-58.1
X120.05Y-76.25
X120.05Y-77.95
X120.45Y-53.95
X120.5Y-83.85
X120.6Y-79.85
X120.6Y-80.85
X120.7Y-57.3
X120.8Y-79.05
X120.9Y-74.1
X120.95Y-56.3
X121.25Y-76.25
X121.4Y-77.95
X121.4Y-80.15
X121.4Y-86.05
X121.45Y-51.9
X121.45Y-52.9
X121.55Y-44.55
X121.55Y-46.0
X121.55Y-47.45
X121.55Y-48.9
X121.55Y-67.2
X121.6Y-42.05
X121.7Y-63.6
X121.7Y-66.1
X121.73Y-38.925
X121.8Y-74.6
X121.92Y-89.408
X122.0Y-58.1
X122.05Y-68.8
X122.1Y-57.1
X122.2Y-80.15
X122.4Y-41.45
X122.45Y-51.7
X122.55Y-40.05
X122.555Y-87.757
X122.65Y-42.65
X122.7Y-83.85
X122.75Y-73.45
X122.8Y-74.6
X122.9Y-56.2
X122.95Y-53.95
X122.95Y-69.3
X122.95Y-71.55
X123.1Y-52.2
X123.25Y-43.5
X123.3Y-48.75
X123.3Y-50.4
X123.35Y-57.6
X123.35Y-58.4
X123.35Y-66.1
X123.35Y-66.9
X123.35Y-77.95
X123.35Y-86.042
X123.4Y-39.4
X123.45Y-63.6
X123.75Y-80.15
X123.8Y-74.6
X123.85Y-42.65
X123.9Y-54.85
X123.95Y-71.75
X123.95Y-73.45
X124.15Y-47.95
X124.15Y-51.05
X124.206Y-87.757
X124.3Y-40.0
X124.3Y-52.2
X124.3Y-53.9
X124.3Y-75.6
X124.46Y-89.408
X124.65Y-55.55
X124.65Y-86.05
X124.9Y-80.15
X125.0Y-50.1
X125.1Y-73.9
X125.2Y-43.002
X125.25Y-53.05
X125.25Y-87.75
X125.4Y-39.0
X125.4Y-44.35
X125.85Y-57.6
X125.85Y-58.4
X125.85Y-63.6
X125.85Y-66.1
X125.85Y-66.9
X126.3Y-77.85
X126.35Y-71.05
X126.35Y-72.25
X126.5Y-39.0
X126.6Y-80.15
X126.619Y-48.006
X127.0Y-89.408
X127.25Y-83.85
X127.25Y-86.05
X127.35Y-75.65
X127.6Y-42.7
X127.75Y-57.4
X127.75Y-67.1
X127.75Y-80.15
X127.775Y-58.4
X127.8Y-66.1
X127.85Y-84.95
X128.0Y-86.8
X128.05Y-70.9
X128.05Y-72.4
X128.1Y-79.05
X128.55Y-53.95
X128.7Y-41.7
X128.7Y-75.7
X128.7Y-77.95
X128.7Y-86.05
X128.75Y-39.0
X128.75Y-72.0
X128.75Y-80.15
X128.8Y-67.9
X128.85Y-69.8
X128.95Y-52.3
X129.159Y-48.006
X129.35Y-83.85
X129.54Y-89.408
X129.6Y-42.3
X129.75Y-66.1
X129.794Y-50.736
X129.8Y-39.05
X129.85Y-69.65
X130.0Y-86.05
X130.25Y-73.5
X130.302Y-48.006
X130.35Y-66.9
X130.65Y-39.7
X130.65Y-83.85
X130.75Y-42.7
X130.95Y-66.1
X131.3Y-68.65
X131.3Y-80.15
X131.3Y-86.05
X131.55Y-66.9
X131.699Y-43.053
X131.699Y-48.006
X131.889Y-41.212
X131.95Y-75.7
X131.95Y-83.85
X132.08Y-89.408
X132.15Y-66.1
X132.6Y-80.15
X132.6Y-86.05
X132.75Y-66.9
X132.779Y-38.925
X132.969Y-45.847
X132.969Y-48.006
X133.032Y-41.212
X133.032Y-42.989
X133.25Y-75.7
X133.25Y-83.85
X133.35Y-66.1
X133.75Y-67.15
X133.9Y-80.15
X133.9Y-86.05
X133.985Y-42.1
X134.239Y-45.847
X134.239Y-47.879
X134.239Y-50.8
X134.55Y-75.7
X134.55Y-77.9
X134.55Y-83.85
X134.62Y-89.408
X135.15Y-84.95
X135.15Y-86.3
X135.3Y-41.9
X135.319Y-48.006
X135.35Y-77.1
X135.35Y-78.7
X135.509Y-43.053
X135.509Y-45.847
X135.509Y-50.8
X136.0Y-77.9
X136.0Y-83.85
X136.207Y-52.07
X136.4Y-61.4
X136.65Y-77.1
X136.65Y-78.7
X136.715Y-38.925
X136.8Y-71.05
X136.8Y-72.4
X136.85Y-86.3
X136.969Y-50.8
X136.969Y-53.276
X137.16Y-48.895
X137.16Y-89.408
X137.17Y-61.15
X137.3Y-77.9
X137.45Y-46.35
X137.65Y-39.35
X137.65Y-73.2
X137.95Y-77.1
X137.95Y-78.7
X138.2Y-42.15
X138.2Y-83.85
X138.239Y-53.276
X138.3Y-69.65
X138.303Y-48.895
X138.303Y-50.673
X138.35Y-81.65
X138.4Y-46.85
X138.5Y-70.9
X138.5Y-72.5
X138.55Y-47.85
X138.6Y-45.15
X139.1Y-69.8
X139.1Y-77.95
X139.1Y-80.15
X139.1Y-86.05
X139.15Y-72.0
X139.45Y-65.5
X139.7Y-43.4
X139.7Y-89.408
X139.75Y-75.7
X139.75Y-83.85
X140.4Y-68.15
X140.4Y-80.15
X140.4Y-86.05
X140.716Y-60.579
X140.8Y-48.55
X140.8Y-50.0
X140.8Y-72.9
X140.8Y-81.7
X140.85Y-64.6
X140.906Y-57.975
X141.05Y-75.7
X141.05Y-83.85
X141.45Y-65.65
X141.5Y-43.4
X141.6Y-45.9
X141.6Y-46.9
X141.65Y-47.95
X141.7Y-80.15
X141.7Y-86.05
X141.85Y-67.9
X141.9Y-55.25
X142.0Y-48.9
X142.0Y-50.5
X142.0Y-52.1
X142.0Y-53.7
X142.2Y-59.85
X142.24Y-89.408
X142.25Y-58.55
X142.25Y-64.9
X142.25Y-66.25
X142.35Y-75.7
X142.35Y-83.85
X142.6Y-49.7
X142.6Y-51.3
X142.6Y-52.9
X142.6Y-54.5
X142.7Y-62.7
X142.95Y-67.6
X143.0Y-80.15
X143.0Y-86.05
X143.65Y-75.7
X143.65Y-83.85
X143.95Y-66.25
X144.0Y-48.1
X144.0Y-58.6
X144.0Y-60.1
X144.0Y-62.5
X144.0Y-64.9
X144.0Y-67.3
X144.0Y-68.9
X144.1Y-45.5
X144.3Y-80.15
X144.3Y-86.05
X144.78Y-89.408
X144.95Y-75.7
X144.95Y-77.9
X144.95Y-83.85
X145.15Y-47.45
X145.55Y-84.95
X145.55Y-86.3
X145.75Y-77.1
X145.75Y-78.7
X145.9Y-43.45
X146.3Y-48.1
X146.3Y-56.9
X146.3Y-58.5
X146.3Y-60.1
X146.3Y-62.5
X146.3Y-64.9
X146.3Y-67.3
X146.3Y-68.9
X146.4Y-77.9
X146.4Y-83.85
X146.9Y-59.3
X147.05Y-65.6
X147.05Y-66.6
X147.05Y-77.1
X147.05Y-78.7
X147.2Y-71.05
X147.2Y-72.25
X147.25Y-86.3
X147.32Y-89.408
X147.4Y-42.15
X147.7Y-77.9
X147.95Y-39.6
X148.25Y-74.4
X148.35Y-77.1
X148.35Y-78.7
X148.6Y-83.85
X148.85Y-81.7
X148.9Y-70.9
X148.9Y-72.5
X149.35Y-69.8
X149.5Y-77.95
X149.5Y-80.15
X149.5Y-86.05
X149.55Y-72.0
X149.86Y-89.408
X150.15Y-75.65
X150.15Y-83.85
X150.35Y-69.75
X150.7Y-72.45
X150.7Y-74.35
X150.8Y-80.15
X150.8Y-86.05
X151.45Y-75.7
X151.45Y-80.95
X151.45Y-83.85
X151.892Y-38.925
X151.9Y-62.65
X152.1Y-80.15
X152.1Y-86.05
X152.209Y-44.259
X152.3Y-64.7
X152.4Y-89.408
X152.75Y-75.7
X152.75Y-83.85
X152.8Y-46.9
X152.9Y-66.1
X153.245Y-39.849
X153.4Y-80.15
X153.4Y-86.05
X153.6Y-67.6
X153.67Y-44.514
X154.05Y-75.7
X154.05Y-83.85
X154.45Y-88.0
X154.5Y-59.3
X154.5Y-60.8
X154.5Y-61.8
X154.5Y-63.2
X154.5Y-64.2
X154.5Y-65.6
X154.5Y-66.6
X154.5Y-68.1
X154.7Y-80.15
X154.7Y-86.05
X154.9Y-48.9
X154.94Y-89.408
X155.35Y-75.7
X155.35Y-77.9
X155.35Y-83.85
X155.4Y-61.3
X155.4Y-63.7
X155.4Y-66.1
X155.5Y-48.1
X155.5Y-49.7
X155.5Y-58.5
X155.5Y-60.1
X155.5Y-62.5
X155.5Y-64.9
X155.5Y-67.3
X155.5Y-68.909
X155.95Y-84.95
X155.95Y-86.3
X156.4Y-78.55
X156.4Y-80.15
X156.649Y-47.459
X156.8Y-83.85
X157.05Y-79.35
X157.48Y-46.038
X157.48Y-89.408
X157.65Y-86.3
X157.671Y-38.925
X157.7Y-78.55
X157.7Y-80.15
X157.8Y-48.1
X157.8Y-54.5
X157.8Y-58.5
X157.8Y-60.1
X157.8Y-62.5
X157.8Y-64.9
X157.8Y-67.3
X157.8Y-68.9
X157.85Y-49.45
X157.85Y-63.85
X157.85Y-65.95
X157.85Y-70.25
X158.1Y-46.85
X158.35Y-79.35
X158.4Y-56.9
X158.95Y-44.5
X159.0Y-51.3
X159.0Y-52.9
X159.0Y-54.5
X159.0Y-56.1
X159.0Y-78.55
X159.0Y-80.15
X159.55Y-48.25
X159.55Y-49.45
X159.55Y-58.7
X159.55Y-59.9
X159.55Y-62.65
X159.55Y-63.85
X159.55Y-65.95
X159.55Y-67.15
X159.55Y-69.05
X159.55Y-70.25
X159.6Y-50.5
X159.6Y-52.1
X159.6Y-53.7
X159.6Y-55.3
X159.6Y-56.9
X159.829Y-41.021
X159.829Y-44.831
X159.829Y-74.358
X159.829Y-79.444
X159.829Y-84.519
X160.02Y-89.408
T2
X144.1Y-43.5
X145.6Y-45.5
T3
X116.95Y-41.15
X116.95Y-43.15
X116.95Y-45.15
T4
X105.41Y-88.011
X158.75Y-88.011
T5
X149.669Y-42.799
X157.29Y-41.783
X157.29Y-43.815
T6
X105.093Y-42.227
X158.75Y-82.931
X159.067Y-42.227
T7
X149.669Y-40.259
X149.669Y-45.339
X155.385Y-40.259
X155.385Y-45.339
M30
