G04 #@! TF.GenerationSoftware,KiCad,Pcbnew,7.0.10*
G04 #@! TF.CreationDate,2024-03-18T18:47:05-04:00*
G04 #@! TF.ProjectId,GW4302,47573433-3032-42e6-9b69-6361645f7063,0.1*
G04 #@! TF.SameCoordinates,Original*
G04 #@! TF.FileFunction,Legend,Bot*
G04 #@! TF.FilePolarity,Positive*
%FSLAX46Y46*%
G04 Gerber Fmt 4.6, Leading zero omitted, Abs format (unit mm)*
G04 Created by KiCad (PCBNEW 7.0.10) date 2024-03-18 18:47:05*
%MOMM*%
%LPD*%
G01*
G04 APERTURE LIST*
G04 Aperture macros list*
%AMRoundRect*
0 Rectangle with rounded corners*
0 $1 Rounding radius*
0 $2 $3 $4 $5 $6 $7 $8 $9 X,Y pos of 4 corners*
0 Add a 4 corners polygon primitive as box body*
4,1,4,$2,$3,$4,$5,$6,$7,$8,$9,$2,$3,0*
0 Add four circle primitives for the rounded corners*
1,1,$1+$1,$2,$3*
1,1,$1+$1,$4,$5*
1,1,$1+$1,$6,$7*
1,1,$1+$1,$8,$9*
0 Add four rect primitives between the rounded corners*
20,1,$1+$1,$2,$3,$4,$5,0*
20,1,$1+$1,$4,$5,$6,$7,0*
20,1,$1+$1,$6,$7,$8,$9,0*
20,1,$1+$1,$8,$9,$2,$3,0*%
G04 Aperture macros list end*
%ADD10C,0.203200*%
%ADD11C,0.000000*%
%ADD12C,2.152400*%
%ADD13C,1.448000*%
%ADD14C,2.527300*%
%ADD15C,1.143000*%
%ADD16RoundRect,0.419100X0.419100X3.327100X-0.419100X3.327100X-0.419100X-3.327100X0.419100X-3.327100X0*%
G04 APERTURE END LIST*
D10*
X137619618Y-88301120D02*
X137232570Y-88301120D01*
X137474475Y-87962453D02*
X137474475Y-88833311D01*
X137474475Y-88833311D02*
X137426094Y-88930073D01*
X137426094Y-88930073D02*
X137329332Y-88978453D01*
X137329332Y-88978453D02*
X137232570Y-88978453D01*
X136893904Y-88978453D02*
X136893904Y-87962453D01*
X136458475Y-88978453D02*
X136458475Y-88446263D01*
X136458475Y-88446263D02*
X136506856Y-88349501D01*
X136506856Y-88349501D02*
X136603618Y-88301120D01*
X136603618Y-88301120D02*
X136748761Y-88301120D01*
X136748761Y-88301120D02*
X136845523Y-88349501D01*
X136845523Y-88349501D02*
X136893904Y-88397882D01*
X135974666Y-88978453D02*
X135974666Y-88301120D01*
X135974666Y-87962453D02*
X136023047Y-88010834D01*
X136023047Y-88010834D02*
X135974666Y-88059215D01*
X135974666Y-88059215D02*
X135926285Y-88010834D01*
X135926285Y-88010834D02*
X135974666Y-87962453D01*
X135974666Y-87962453D02*
X135974666Y-88059215D01*
X135539237Y-88930073D02*
X135442475Y-88978453D01*
X135442475Y-88978453D02*
X135248951Y-88978453D01*
X135248951Y-88978453D02*
X135152189Y-88930073D01*
X135152189Y-88930073D02*
X135103808Y-88833311D01*
X135103808Y-88833311D02*
X135103808Y-88784930D01*
X135103808Y-88784930D02*
X135152189Y-88688168D01*
X135152189Y-88688168D02*
X135248951Y-88639787D01*
X135248951Y-88639787D02*
X135394094Y-88639787D01*
X135394094Y-88639787D02*
X135490856Y-88591406D01*
X135490856Y-88591406D02*
X135539237Y-88494644D01*
X135539237Y-88494644D02*
X135539237Y-88446263D01*
X135539237Y-88446263D02*
X135490856Y-88349501D01*
X135490856Y-88349501D02*
X135394094Y-88301120D01*
X135394094Y-88301120D02*
X135248951Y-88301120D01*
X135248951Y-88301120D02*
X135152189Y-88349501D01*
X133942666Y-88930073D02*
X133845904Y-88978453D01*
X133845904Y-88978453D02*
X133652380Y-88978453D01*
X133652380Y-88978453D02*
X133555618Y-88930073D01*
X133555618Y-88930073D02*
X133507237Y-88833311D01*
X133507237Y-88833311D02*
X133507237Y-88784930D01*
X133507237Y-88784930D02*
X133555618Y-88688168D01*
X133555618Y-88688168D02*
X133652380Y-88639787D01*
X133652380Y-88639787D02*
X133797523Y-88639787D01*
X133797523Y-88639787D02*
X133894285Y-88591406D01*
X133894285Y-88591406D02*
X133942666Y-88494644D01*
X133942666Y-88494644D02*
X133942666Y-88446263D01*
X133942666Y-88446263D02*
X133894285Y-88349501D01*
X133894285Y-88349501D02*
X133797523Y-88301120D01*
X133797523Y-88301120D02*
X133652380Y-88301120D01*
X133652380Y-88301120D02*
X133555618Y-88349501D01*
X133071809Y-88978453D02*
X133071809Y-88301120D01*
X133071809Y-87962453D02*
X133120190Y-88010834D01*
X133120190Y-88010834D02*
X133071809Y-88059215D01*
X133071809Y-88059215D02*
X133023428Y-88010834D01*
X133023428Y-88010834D02*
X133071809Y-87962453D01*
X133071809Y-87962453D02*
X133071809Y-88059215D01*
X132152570Y-88978453D02*
X132152570Y-87962453D01*
X132152570Y-88930073D02*
X132249332Y-88978453D01*
X132249332Y-88978453D02*
X132442856Y-88978453D01*
X132442856Y-88978453D02*
X132539618Y-88930073D01*
X132539618Y-88930073D02*
X132587999Y-88881692D01*
X132587999Y-88881692D02*
X132636380Y-88784930D01*
X132636380Y-88784930D02*
X132636380Y-88494644D01*
X132636380Y-88494644D02*
X132587999Y-88397882D01*
X132587999Y-88397882D02*
X132539618Y-88349501D01*
X132539618Y-88349501D02*
X132442856Y-88301120D01*
X132442856Y-88301120D02*
X132249332Y-88301120D01*
X132249332Y-88301120D02*
X132152570Y-88349501D01*
X131281713Y-88930073D02*
X131378475Y-88978453D01*
X131378475Y-88978453D02*
X131571999Y-88978453D01*
X131571999Y-88978453D02*
X131668761Y-88930073D01*
X131668761Y-88930073D02*
X131717142Y-88833311D01*
X131717142Y-88833311D02*
X131717142Y-88446263D01*
X131717142Y-88446263D02*
X131668761Y-88349501D01*
X131668761Y-88349501D02*
X131571999Y-88301120D01*
X131571999Y-88301120D02*
X131378475Y-88301120D01*
X131378475Y-88301120D02*
X131281713Y-88349501D01*
X131281713Y-88349501D02*
X131233332Y-88446263D01*
X131233332Y-88446263D02*
X131233332Y-88543025D01*
X131233332Y-88543025D02*
X131717142Y-88639787D01*
X129588380Y-88978453D02*
X129588380Y-87962453D01*
X129588380Y-88930073D02*
X129685142Y-88978453D01*
X129685142Y-88978453D02*
X129878666Y-88978453D01*
X129878666Y-88978453D02*
X129975428Y-88930073D01*
X129975428Y-88930073D02*
X130023809Y-88881692D01*
X130023809Y-88881692D02*
X130072190Y-88784930D01*
X130072190Y-88784930D02*
X130072190Y-88494644D01*
X130072190Y-88494644D02*
X130023809Y-88397882D01*
X130023809Y-88397882D02*
X129975428Y-88349501D01*
X129975428Y-88349501D02*
X129878666Y-88301120D01*
X129878666Y-88301120D02*
X129685142Y-88301120D01*
X129685142Y-88301120D02*
X129588380Y-88349501D01*
X128959428Y-88978453D02*
X129056190Y-88930073D01*
X129056190Y-88930073D02*
X129104571Y-88881692D01*
X129104571Y-88881692D02*
X129152952Y-88784930D01*
X129152952Y-88784930D02*
X129152952Y-88494644D01*
X129152952Y-88494644D02*
X129104571Y-88397882D01*
X129104571Y-88397882D02*
X129056190Y-88349501D01*
X129056190Y-88349501D02*
X128959428Y-88301120D01*
X128959428Y-88301120D02*
X128814285Y-88301120D01*
X128814285Y-88301120D02*
X128717523Y-88349501D01*
X128717523Y-88349501D02*
X128669142Y-88397882D01*
X128669142Y-88397882D02*
X128620761Y-88494644D01*
X128620761Y-88494644D02*
X128620761Y-88784930D01*
X128620761Y-88784930D02*
X128669142Y-88881692D01*
X128669142Y-88881692D02*
X128717523Y-88930073D01*
X128717523Y-88930073D02*
X128814285Y-88978453D01*
X128814285Y-88978453D02*
X128959428Y-88978453D01*
X128282095Y-88301120D02*
X128088571Y-88978453D01*
X128088571Y-88978453D02*
X127895047Y-88494644D01*
X127895047Y-88494644D02*
X127701523Y-88978453D01*
X127701523Y-88978453D02*
X127507999Y-88301120D01*
X127120952Y-88301120D02*
X127120952Y-88978453D01*
X127120952Y-88397882D02*
X127072571Y-88349501D01*
X127072571Y-88349501D02*
X126975809Y-88301120D01*
X126975809Y-88301120D02*
X126830666Y-88301120D01*
X126830666Y-88301120D02*
X126733904Y-88349501D01*
X126733904Y-88349501D02*
X126685523Y-88446263D01*
X126685523Y-88446263D02*
X126685523Y-88978453D01*
X111155237Y-86166649D02*
X110613371Y-86166649D01*
X110613371Y-86166649D02*
X111155237Y-86979449D01*
X111155237Y-86979449D02*
X110613371Y-86979449D01*
X110303733Y-86979449D02*
X110303733Y-86166649D01*
X109839276Y-86979449D02*
X110187618Y-86514992D01*
X109839276Y-86166649D02*
X110303733Y-86631106D01*
X109452228Y-86940745D02*
X109452228Y-86979449D01*
X109452228Y-86979449D02*
X109490933Y-87056859D01*
X109490933Y-87056859D02*
X109529637Y-87095564D01*
X108058856Y-86205354D02*
X108136266Y-86166649D01*
X108136266Y-86166649D02*
X108252380Y-86166649D01*
X108252380Y-86166649D02*
X108368494Y-86205354D01*
X108368494Y-86205354D02*
X108445904Y-86282764D01*
X108445904Y-86282764D02*
X108484609Y-86360173D01*
X108484609Y-86360173D02*
X108523313Y-86514992D01*
X108523313Y-86514992D02*
X108523313Y-86631106D01*
X108523313Y-86631106D02*
X108484609Y-86785925D01*
X108484609Y-86785925D02*
X108445904Y-86863335D01*
X108445904Y-86863335D02*
X108368494Y-86940745D01*
X108368494Y-86940745D02*
X108252380Y-86979449D01*
X108252380Y-86979449D02*
X108174971Y-86979449D01*
X108174971Y-86979449D02*
X108058856Y-86940745D01*
X108058856Y-86940745D02*
X108020152Y-86902040D01*
X108020152Y-86902040D02*
X108020152Y-86631106D01*
X108020152Y-86631106D02*
X108174971Y-86631106D01*
X107400875Y-86553697D02*
X107671809Y-86553697D01*
X107671809Y-86979449D02*
X107671809Y-86166649D01*
X107671809Y-86166649D02*
X107284761Y-86166649D01*
X116156618Y-86747221D02*
X115769571Y-86747221D01*
X116234028Y-86979449D02*
X115963095Y-86166649D01*
X115963095Y-86166649D02*
X115692161Y-86979449D01*
X114995475Y-86979449D02*
X115459932Y-86979449D01*
X115227704Y-86979449D02*
X115227704Y-86166649D01*
X115227704Y-86166649D02*
X115305113Y-86282764D01*
X115305113Y-86282764D02*
X115382523Y-86360173D01*
X115382523Y-86360173D02*
X115459932Y-86398878D01*
X114492314Y-86166649D02*
X114414904Y-86166649D01*
X114414904Y-86166649D02*
X114337495Y-86205354D01*
X114337495Y-86205354D02*
X114298790Y-86244059D01*
X114298790Y-86244059D02*
X114260085Y-86321468D01*
X114260085Y-86321468D02*
X114221380Y-86476287D01*
X114221380Y-86476287D02*
X114221380Y-86669811D01*
X114221380Y-86669811D02*
X114260085Y-86824630D01*
X114260085Y-86824630D02*
X114298790Y-86902040D01*
X114298790Y-86902040D02*
X114337495Y-86940745D01*
X114337495Y-86940745D02*
X114414904Y-86979449D01*
X114414904Y-86979449D02*
X114492314Y-86979449D01*
X114492314Y-86979449D02*
X114569723Y-86940745D01*
X114569723Y-86940745D02*
X114608428Y-86902040D01*
X114608428Y-86902040D02*
X114647133Y-86824630D01*
X114647133Y-86824630D02*
X114685837Y-86669811D01*
X114685837Y-86669811D02*
X114685837Y-86476287D01*
X114685837Y-86476287D02*
X114647133Y-86321468D01*
X114647133Y-86321468D02*
X114608428Y-86244059D01*
X114608428Y-86244059D02*
X114569723Y-86205354D01*
X114569723Y-86205354D02*
X114492314Y-86166649D01*
G36*
X149895415Y-53621521D02*
G01*
X149909428Y-53625871D01*
X149928223Y-53632527D01*
X149949902Y-53640736D01*
X149972567Y-53649748D01*
X149994323Y-53658811D01*
X150013271Y-53667173D01*
X150027515Y-53674084D01*
X150035157Y-53678792D01*
X150039016Y-53683037D01*
X150043304Y-53693784D01*
X150042495Y-53708350D01*
X150036400Y-53728101D01*
X150024835Y-53754406D01*
X150012590Y-53783574D01*
X150001336Y-53827011D01*
X149999483Y-53868954D01*
X150007100Y-53910034D01*
X150024257Y-53950883D01*
X150051023Y-53992131D01*
X150065257Y-54013026D01*
X150073673Y-54031831D01*
X150074426Y-54046676D01*
X150067719Y-54058360D01*
X150067348Y-54058718D01*
X150059091Y-54065164D01*
X150045454Y-54074521D01*
X150029190Y-54084893D01*
X150026654Y-54086446D01*
X150011557Y-54095380D01*
X150000053Y-54101680D01*
X149994462Y-54104066D01*
X149989021Y-54101076D01*
X149978465Y-54091966D01*
X149964437Y-54078219D01*
X149948340Y-54061347D01*
X149931573Y-54042860D01*
X149915538Y-54024269D01*
X149901636Y-54007085D01*
X149891269Y-53992817D01*
X149879529Y-53973938D01*
X149854175Y-53921475D01*
X149838337Y-53867590D01*
X149832045Y-53812793D01*
X149835330Y-53757595D01*
X149848222Y-53702506D01*
X149870750Y-53648038D01*
X149876474Y-53637267D01*
X149883307Y-53625832D01*
X149887631Y-53620368D01*
X149888081Y-53620228D01*
X149895415Y-53621521D01*
G37*
G36*
X153161079Y-54023030D02*
G01*
X153196989Y-54030435D01*
X153207627Y-54033986D01*
X153248722Y-54053744D01*
X153288158Y-54082216D01*
X153324950Y-54118596D01*
X153358111Y-54162079D01*
X153375606Y-54188456D01*
X153381518Y-54137745D01*
X153381792Y-54135398D01*
X153385093Y-54108306D01*
X153387946Y-54088949D01*
X153390845Y-54075510D01*
X153394287Y-54066174D01*
X153398768Y-54059125D01*
X153404783Y-54052547D01*
X153408340Y-54049160D01*
X153413256Y-54045722D01*
X153419796Y-54043384D01*
X153429580Y-54041935D01*
X153444230Y-54041163D01*
X153465370Y-54040855D01*
X153494622Y-54040799D01*
X153572712Y-54040799D01*
X153572712Y-54466647D01*
X153572712Y-54892495D01*
X153468076Y-54892495D01*
X153363439Y-54892495D01*
X153363439Y-54625750D01*
X153363439Y-54359004D01*
X153346114Y-54330090D01*
X153318381Y-54290911D01*
X153287116Y-54260493D01*
X153252288Y-54239084D01*
X153213650Y-54226570D01*
X153170951Y-54222837D01*
X153123944Y-54227770D01*
X153122035Y-54228125D01*
X153096106Y-54232062D01*
X153077744Y-54232426D01*
X153065389Y-54228779D01*
X153057480Y-54220684D01*
X153052459Y-54207702D01*
X153052040Y-54206043D01*
X153049120Y-54192750D01*
X153045130Y-54172766D01*
X153040543Y-54148503D01*
X153035827Y-54122377D01*
X153034178Y-54112873D01*
X153029928Y-54086081D01*
X153027788Y-54067514D01*
X153027671Y-54056203D01*
X153029492Y-54051180D01*
X153030302Y-54050542D01*
X153056347Y-54035679D01*
X153088398Y-54025944D01*
X153124096Y-54021631D01*
X153161079Y-54023030D01*
G37*
G36*
X152484590Y-54023030D02*
G01*
X152520499Y-54030435D01*
X152531138Y-54033986D01*
X152572233Y-54053744D01*
X152611669Y-54082216D01*
X152648460Y-54118596D01*
X152681621Y-54162079D01*
X152699116Y-54188456D01*
X152705028Y-54137745D01*
X152705302Y-54135398D01*
X152708604Y-54108306D01*
X152711456Y-54088949D01*
X152714356Y-54075510D01*
X152717798Y-54066174D01*
X152722278Y-54059125D01*
X152728294Y-54052547D01*
X152731850Y-54049160D01*
X152736767Y-54045722D01*
X152743306Y-54043384D01*
X152753090Y-54041935D01*
X152767741Y-54041163D01*
X152788881Y-54040855D01*
X152818132Y-54040799D01*
X152896223Y-54040799D01*
X152896223Y-54466647D01*
X152896223Y-54892495D01*
X152791586Y-54892495D01*
X152686949Y-54892495D01*
X152686949Y-54625750D01*
X152686949Y-54359004D01*
X152669624Y-54330090D01*
X152641891Y-54290911D01*
X152610626Y-54260493D01*
X152575799Y-54239084D01*
X152537160Y-54226570D01*
X152494462Y-54222837D01*
X152447455Y-54227770D01*
X152445545Y-54228125D01*
X152419616Y-54232062D01*
X152401254Y-54232426D01*
X152388899Y-54228779D01*
X152380991Y-54220684D01*
X152375969Y-54207702D01*
X152375550Y-54206043D01*
X152372630Y-54192750D01*
X152368641Y-54172766D01*
X152364053Y-54148503D01*
X152359338Y-54122377D01*
X152357688Y-54112873D01*
X152353438Y-54086081D01*
X152351298Y-54067514D01*
X152351181Y-54056203D01*
X152353002Y-54051180D01*
X152353812Y-54050542D01*
X152379857Y-54035679D01*
X152411908Y-54025944D01*
X152447606Y-54021631D01*
X152484590Y-54023030D01*
G37*
G36*
X145554220Y-54023030D02*
G01*
X145590129Y-54030435D01*
X145600768Y-54033986D01*
X145641863Y-54053744D01*
X145681299Y-54082216D01*
X145718090Y-54118596D01*
X145751252Y-54162079D01*
X145768746Y-54188456D01*
X145774658Y-54137745D01*
X145774932Y-54135398D01*
X145778234Y-54108306D01*
X145781086Y-54088949D01*
X145783986Y-54075510D01*
X145787428Y-54066174D01*
X145791909Y-54059125D01*
X145797924Y-54052547D01*
X145801480Y-54049160D01*
X145806397Y-54045722D01*
X145812936Y-54043384D01*
X145822720Y-54041935D01*
X145837371Y-54041163D01*
X145858511Y-54040855D01*
X145887762Y-54040799D01*
X145965853Y-54040799D01*
X145965853Y-54466647D01*
X145965853Y-54892495D01*
X145861216Y-54892495D01*
X145756579Y-54892495D01*
X145756579Y-54625750D01*
X145756579Y-54359004D01*
X145739255Y-54330090D01*
X145711521Y-54290911D01*
X145680256Y-54260493D01*
X145645429Y-54239084D01*
X145606790Y-54226570D01*
X145564092Y-54222837D01*
X145517085Y-54227770D01*
X145515175Y-54228125D01*
X145489247Y-54232062D01*
X145470885Y-54232426D01*
X145458529Y-54228779D01*
X145450621Y-54220684D01*
X145445599Y-54207702D01*
X145445181Y-54206043D01*
X145442260Y-54192750D01*
X145438271Y-54172766D01*
X145433683Y-54148503D01*
X145428968Y-54122377D01*
X145427318Y-54112873D01*
X145423069Y-54086081D01*
X145420928Y-54067514D01*
X145420812Y-54056203D01*
X145422632Y-54051180D01*
X145423443Y-54050542D01*
X145449487Y-54035679D01*
X145481539Y-54025944D01*
X145517236Y-54021631D01*
X145554220Y-54023030D01*
G37*
G36*
X143644374Y-54274407D02*
G01*
X143644374Y-54892495D01*
X143539737Y-54892495D01*
X143435100Y-54892495D01*
X143435100Y-54584018D01*
X143435100Y-54275540D01*
X143415355Y-54257702D01*
X143375460Y-54226438D01*
X143334480Y-54204194D01*
X143292267Y-54191144D01*
X143248182Y-54187018D01*
X143213617Y-54189258D01*
X143183530Y-54196705D01*
X143159312Y-54210179D01*
X143139518Y-54230503D01*
X143122699Y-54258503D01*
X143106589Y-54291219D01*
X143105163Y-54591857D01*
X143103738Y-54892495D01*
X142999012Y-54892495D01*
X142894287Y-54892495D01*
X142896181Y-54587101D01*
X142896414Y-54549666D01*
X142896829Y-54488843D01*
X142897294Y-54436497D01*
X142897883Y-54391816D01*
X142898670Y-54353989D01*
X142899726Y-54322207D01*
X142901126Y-54295657D01*
X142902943Y-54273530D01*
X142905250Y-54255015D01*
X142908121Y-54239302D01*
X142911628Y-54225578D01*
X142915845Y-54213035D01*
X142920846Y-54200860D01*
X142926704Y-54188244D01*
X142933491Y-54174376D01*
X142955994Y-54135510D01*
X142986675Y-54098254D01*
X143022662Y-54069005D01*
X143064247Y-54047579D01*
X143111725Y-54033789D01*
X143165386Y-54027451D01*
X143166730Y-54027389D01*
X143222684Y-54028002D01*
X143272981Y-54035512D01*
X143319304Y-54050461D01*
X143363340Y-54073387D01*
X143406772Y-54104832D01*
X143417352Y-54113274D01*
X143427380Y-54120683D01*
X143432323Y-54123536D01*
X143432351Y-54123524D01*
X143432904Y-54118353D01*
X143433420Y-54104436D01*
X143433886Y-54082713D01*
X143434293Y-54054125D01*
X143434629Y-54019612D01*
X143434883Y-53980114D01*
X143435044Y-53936573D01*
X143435100Y-53889928D01*
X143435100Y-53656320D01*
X143539737Y-53656320D01*
X143644374Y-53656320D01*
X143644374Y-54274407D01*
G37*
G36*
X154566990Y-57638046D02*
G01*
X154689413Y-57638084D01*
X154803291Y-57638147D01*
X154908784Y-57638235D01*
X155006049Y-57638349D01*
X155095245Y-57638490D01*
X155176532Y-57638657D01*
X155250066Y-57638851D01*
X155316008Y-57639072D01*
X155374515Y-57639321D01*
X155425747Y-57639597D01*
X155469861Y-57639902D01*
X155507017Y-57640235D01*
X155537372Y-57640596D01*
X155561087Y-57640987D01*
X155578318Y-57641407D01*
X155589226Y-57641856D01*
X155593967Y-57642335D01*
X155606663Y-57647509D01*
X155627806Y-57662033D01*
X155646023Y-57681317D01*
X155658142Y-57702393D01*
X155659307Y-57705667D01*
X155661686Y-57714844D01*
X155663363Y-57726582D01*
X155664411Y-57742313D01*
X155664904Y-57763472D01*
X155664912Y-57791491D01*
X155664510Y-57827805D01*
X155663017Y-57932633D01*
X155648417Y-57956189D01*
X155634859Y-57973835D01*
X155612367Y-57991073D01*
X155590917Y-58002401D01*
X153564453Y-58002401D01*
X153397403Y-58002401D01*
X153239645Y-58002399D01*
X153091064Y-58002393D01*
X152951384Y-58002384D01*
X152820325Y-58002368D01*
X152697611Y-58002346D01*
X152582963Y-58002316D01*
X152476103Y-58002276D01*
X152376754Y-58002225D01*
X152284636Y-58002161D01*
X152199473Y-58002085D01*
X152120987Y-58001993D01*
X152048899Y-58001886D01*
X151982931Y-58001761D01*
X151922806Y-58001617D01*
X151868246Y-58001453D01*
X151818972Y-58001268D01*
X151774707Y-58001061D01*
X151735173Y-58000829D01*
X151700091Y-58000573D01*
X151669184Y-58000289D01*
X151642174Y-57999978D01*
X151618783Y-57999638D01*
X151598733Y-57999268D01*
X151581746Y-57998865D01*
X151567543Y-57998430D01*
X151555848Y-57997960D01*
X151546382Y-57997455D01*
X151538867Y-57996912D01*
X151533025Y-57996332D01*
X151528579Y-57995711D01*
X151525250Y-57995050D01*
X151522760Y-57994347D01*
X151520831Y-57993600D01*
X151519186Y-57992809D01*
X151517639Y-57992000D01*
X151494049Y-57974230D01*
X151475832Y-57950121D01*
X151465065Y-57922374D01*
X151464371Y-57918647D01*
X151462551Y-57900769D01*
X151461399Y-57874994D01*
X151460959Y-57842707D01*
X151461276Y-57805295D01*
X151461365Y-57800427D01*
X151462010Y-57769184D01*
X151462768Y-57745842D01*
X151463835Y-57728788D01*
X151465407Y-57716406D01*
X151467679Y-57707080D01*
X151470847Y-57699197D01*
X151475108Y-57691140D01*
X151479185Y-57684724D01*
X151493024Y-57668145D01*
X151508378Y-57654639D01*
X151529481Y-57639822D01*
X153552448Y-57638399D01*
X153644136Y-57638337D01*
X153821157Y-57638229D01*
X153988681Y-57638144D01*
X154146868Y-57638083D01*
X154295876Y-57638046D01*
X154435864Y-57638034D01*
X154566990Y-57638046D01*
G37*
G36*
X151140539Y-53778112D02*
G01*
X151168030Y-53779369D01*
X151187903Y-53782338D01*
X151201566Y-53787450D01*
X151210425Y-53795136D01*
X151215888Y-53805827D01*
X151217060Y-53810115D01*
X151220141Y-53823838D01*
X151224438Y-53844672D01*
X151229649Y-53871099D01*
X151235470Y-53901598D01*
X151241598Y-53934649D01*
X151262664Y-54049940D01*
X151294667Y-54055281D01*
X151313728Y-54058456D01*
X151339324Y-54062709D01*
X151363170Y-54066662D01*
X151399672Y-54072702D01*
X151401163Y-54109069D01*
X151401327Y-54113387D01*
X151401396Y-54141455D01*
X151399141Y-54161914D01*
X151394238Y-54176469D01*
X151386363Y-54186824D01*
X151381592Y-54190564D01*
X151374376Y-54193656D01*
X151363637Y-54195470D01*
X151347307Y-54196324D01*
X151323318Y-54196538D01*
X151270701Y-54196538D01*
X151270643Y-54460564D01*
X151270612Y-54517812D01*
X151270505Y-54569555D01*
X151270260Y-54613243D01*
X151269816Y-54649738D01*
X151269113Y-54679902D01*
X151268088Y-54704596D01*
X151266681Y-54724683D01*
X151264831Y-54741025D01*
X151262477Y-54754482D01*
X151259557Y-54765918D01*
X151256010Y-54776194D01*
X151251775Y-54786172D01*
X151246791Y-54796714D01*
X151246623Y-54797060D01*
X151224722Y-54831238D01*
X151195372Y-54860311D01*
X151160010Y-54883124D01*
X151120077Y-54898520D01*
X151118492Y-54898935D01*
X151094039Y-54903054D01*
X151063311Y-54905177D01*
X151029308Y-54905365D01*
X150995030Y-54903676D01*
X150963477Y-54900170D01*
X150937649Y-54894907D01*
X150932238Y-54893328D01*
X150904451Y-54883394D01*
X150876287Y-54870792D01*
X150851038Y-54857111D01*
X150831999Y-54843940D01*
X150816202Y-54830753D01*
X150847053Y-54780105D01*
X150856137Y-54765209D01*
X150870517Y-54742282D01*
X150881824Y-54726440D01*
X150891401Y-54716891D01*
X150900591Y-54712843D01*
X150910737Y-54713507D01*
X150923183Y-54718092D01*
X150939271Y-54725806D01*
X150961459Y-54734774D01*
X150990093Y-54739757D01*
X151015372Y-54735927D01*
X151036862Y-54723371D01*
X151054127Y-54702180D01*
X151055792Y-54699178D01*
X151057726Y-54694715D01*
X151059337Y-54688995D01*
X151060660Y-54681171D01*
X151061733Y-54670394D01*
X151062591Y-54655818D01*
X151063270Y-54636595D01*
X151063806Y-54611876D01*
X151064236Y-54580815D01*
X151064596Y-54542563D01*
X151064921Y-54496272D01*
X151065248Y-54441096D01*
X151066636Y-54196538D01*
X150954528Y-54196538D01*
X150842419Y-54196538D01*
X150842419Y-54123536D01*
X150842419Y-54050533D01*
X150954356Y-54050533D01*
X151066294Y-54050533D01*
X151066294Y-53914262D01*
X151066294Y-53777990D01*
X151124937Y-53777990D01*
X151140539Y-53778112D01*
G37*
G36*
X150498117Y-53778112D02*
G01*
X150525608Y-53779369D01*
X150545481Y-53782338D01*
X150559144Y-53787450D01*
X150568003Y-53795136D01*
X150573466Y-53805827D01*
X150574638Y-53810115D01*
X150577719Y-53823838D01*
X150582017Y-53844672D01*
X150587228Y-53871099D01*
X150593048Y-53901598D01*
X150599176Y-53934649D01*
X150620242Y-54049940D01*
X150652245Y-54055281D01*
X150671306Y-54058456D01*
X150696902Y-54062709D01*
X150720748Y-54066662D01*
X150757250Y-54072702D01*
X150758741Y-54109069D01*
X150758905Y-54113387D01*
X150758974Y-54141455D01*
X150756719Y-54161914D01*
X150751816Y-54176469D01*
X150743941Y-54186824D01*
X150739170Y-54190564D01*
X150731954Y-54193656D01*
X150721215Y-54195470D01*
X150704885Y-54196324D01*
X150680896Y-54196538D01*
X150628279Y-54196538D01*
X150628221Y-54460564D01*
X150628190Y-54517812D01*
X150628083Y-54569555D01*
X150627838Y-54613243D01*
X150627394Y-54649738D01*
X150626691Y-54679902D01*
X150625666Y-54704596D01*
X150624259Y-54724683D01*
X150622409Y-54741025D01*
X150620055Y-54754482D01*
X150617135Y-54765918D01*
X150613588Y-54776194D01*
X150609353Y-54786172D01*
X150604369Y-54796714D01*
X150604201Y-54797060D01*
X150582300Y-54831238D01*
X150552950Y-54860311D01*
X150517588Y-54883124D01*
X150477655Y-54898520D01*
X150476070Y-54898935D01*
X150451617Y-54903054D01*
X150420889Y-54905177D01*
X150386886Y-54905365D01*
X150352608Y-54903676D01*
X150321055Y-54900170D01*
X150295227Y-54894907D01*
X150289816Y-54893328D01*
X150262030Y-54883394D01*
X150233865Y-54870792D01*
X150208616Y-54857111D01*
X150189577Y-54843940D01*
X150173780Y-54830753D01*
X150204631Y-54780105D01*
X150213715Y-54765209D01*
X150228095Y-54742282D01*
X150239402Y-54726440D01*
X150248979Y-54716891D01*
X150258169Y-54712843D01*
X150268315Y-54713507D01*
X150280761Y-54718092D01*
X150296849Y-54725806D01*
X150319037Y-54734774D01*
X150347671Y-54739757D01*
X150372950Y-54735927D01*
X150394440Y-54723371D01*
X150411705Y-54702180D01*
X150413370Y-54699178D01*
X150415304Y-54694715D01*
X150416915Y-54688995D01*
X150418239Y-54681171D01*
X150419311Y-54670394D01*
X150420169Y-54655818D01*
X150420848Y-54636595D01*
X150421384Y-54611876D01*
X150421814Y-54580815D01*
X150422174Y-54542563D01*
X150422499Y-54496272D01*
X150422826Y-54441096D01*
X150424214Y-54196538D01*
X150312106Y-54196538D01*
X150199997Y-54196538D01*
X150199997Y-54123536D01*
X150199997Y-54050533D01*
X150311935Y-54050533D01*
X150423872Y-54050533D01*
X150423872Y-53914262D01*
X150423872Y-53777990D01*
X150482515Y-53777990D01*
X150498117Y-53778112D01*
G37*
G36*
X141751176Y-55169905D02*
G01*
X141646539Y-55169905D01*
X141541902Y-55169905D01*
X141541902Y-54996753D01*
X141541902Y-54823601D01*
X141522212Y-54840455D01*
X141516552Y-54845098D01*
X141486263Y-54865439D01*
X141451716Y-54882876D01*
X141417401Y-54895071D01*
X141416752Y-54895243D01*
X141393029Y-54899495D01*
X141362982Y-54902044D01*
X141329761Y-54902888D01*
X141296521Y-54902026D01*
X141266414Y-54899455D01*
X141242592Y-54895174D01*
X141218653Y-54887932D01*
X141167502Y-54865329D01*
X141120740Y-54834511D01*
X141078957Y-54796071D01*
X141042742Y-54750600D01*
X141012682Y-54698689D01*
X140989369Y-54640929D01*
X140985953Y-54629957D01*
X140972381Y-54571163D01*
X140964593Y-54507433D01*
X140963650Y-54476381D01*
X141178328Y-54476381D01*
X141179273Y-54498781D01*
X141181907Y-54534428D01*
X141186112Y-54564147D01*
X141192408Y-54590393D01*
X141201314Y-54615623D01*
X141213346Y-54642294D01*
X141220226Y-54655270D01*
X141243913Y-54688288D01*
X141272493Y-54713891D01*
X141305012Y-54731154D01*
X141316412Y-54734993D01*
X141357045Y-54742912D01*
X141399396Y-54743372D01*
X141440652Y-54736515D01*
X141477996Y-54722481D01*
X141487472Y-54716886D01*
X141504333Y-54704729D01*
X141520039Y-54691238D01*
X141541902Y-54670289D01*
X141541902Y-54478038D01*
X141541902Y-54285786D01*
X141505857Y-54250836D01*
X141478013Y-54226361D01*
X141448071Y-54206724D01*
X141416572Y-54193641D01*
X141380922Y-54185762D01*
X141361329Y-54183763D01*
X141322049Y-54185554D01*
X141286336Y-54195137D01*
X141255388Y-54212112D01*
X141230406Y-54236077D01*
X141229383Y-54237384D01*
X141208931Y-54270526D01*
X141193678Y-54310633D01*
X141183546Y-54358069D01*
X141178455Y-54413197D01*
X141178328Y-54476381D01*
X140963650Y-54476381D01*
X140962580Y-54441168D01*
X140966331Y-54374768D01*
X140975835Y-54310635D01*
X140991082Y-54251171D01*
X141003170Y-54217531D01*
X141023224Y-54175667D01*
X141048003Y-54138701D01*
X141079139Y-54103904D01*
X141094426Y-54089407D01*
X141129594Y-54061748D01*
X141165783Y-54041923D01*
X141204802Y-54029263D01*
X141248458Y-54023100D01*
X141298560Y-54022766D01*
X141319631Y-54024090D01*
X141362859Y-54030130D01*
X141401941Y-54041140D01*
X141439059Y-54058024D01*
X141476393Y-54081688D01*
X141516125Y-54113036D01*
X141526215Y-54121526D01*
X141539961Y-54132686D01*
X141549636Y-54140015D01*
X141553603Y-54142237D01*
X141554848Y-54138209D01*
X141557518Y-54126979D01*
X141560874Y-54111369D01*
X141565552Y-54089429D01*
X141570881Y-54069740D01*
X141577417Y-54055594D01*
X141586580Y-54046073D01*
X141599792Y-54040263D01*
X141618474Y-54037247D01*
X141644047Y-54036108D01*
X141677932Y-54035933D01*
X141751176Y-54035933D01*
X141751176Y-54602919D01*
X141751176Y-54670289D01*
X141751176Y-55169905D01*
G37*
G36*
X146965044Y-54503017D02*
G01*
X146961916Y-54547269D01*
X146955696Y-54586753D01*
X146945916Y-54624197D01*
X146932109Y-54662331D01*
X146924100Y-54680823D01*
X146894192Y-54734558D01*
X146857286Y-54781677D01*
X146813763Y-54821863D01*
X146764008Y-54854799D01*
X146708404Y-54880168D01*
X146647335Y-54897654D01*
X146612185Y-54903058D01*
X146570249Y-54906094D01*
X146526254Y-54906514D01*
X146483927Y-54904287D01*
X146446990Y-54899382D01*
X146444169Y-54898838D01*
X146382943Y-54882285D01*
X146327313Y-54857889D01*
X146277586Y-54825974D01*
X146234071Y-54786862D01*
X146197077Y-54740878D01*
X146166913Y-54688346D01*
X146143886Y-54629590D01*
X146128306Y-54564933D01*
X146124595Y-54536907D01*
X146122077Y-54493988D01*
X146122222Y-54465454D01*
X146337668Y-54465454D01*
X146338151Y-54501368D01*
X146339851Y-54535060D01*
X146342770Y-54564056D01*
X146346907Y-54585885D01*
X146353827Y-54608759D01*
X146371478Y-54651085D01*
X146393433Y-54685215D01*
X146420081Y-54711691D01*
X146451816Y-54731055D01*
X146463093Y-54735941D01*
X146476035Y-54740115D01*
X146490570Y-54742726D01*
X146509412Y-54744229D01*
X146535272Y-54745081D01*
X146562794Y-54745183D01*
X146592013Y-54743487D01*
X146611750Y-54739678D01*
X146617622Y-54737681D01*
X146653881Y-54720499D01*
X146684164Y-54696725D01*
X146708614Y-54666076D01*
X146727378Y-54628270D01*
X146740601Y-54583024D01*
X146748428Y-54530055D01*
X146751005Y-54469081D01*
X146750899Y-54455599D01*
X146747696Y-54399452D01*
X146739851Y-54350984D01*
X146727122Y-54309353D01*
X146709265Y-54273714D01*
X146686039Y-54243222D01*
X146667117Y-54226167D01*
X146635012Y-54207263D01*
X146598288Y-54194685D01*
X146558759Y-54188662D01*
X146518241Y-54189426D01*
X146478548Y-54197205D01*
X146441493Y-54212229D01*
X146429951Y-54219012D01*
X146403066Y-54241140D01*
X146380628Y-54270198D01*
X146362101Y-54306979D01*
X146346949Y-54352277D01*
X146343524Y-54369116D01*
X146340356Y-54396855D01*
X146338403Y-54429792D01*
X146337668Y-54465454D01*
X146122222Y-54465454D01*
X146122310Y-54448103D01*
X146125168Y-54402362D01*
X146130521Y-54359874D01*
X146138241Y-54323749D01*
X146138899Y-54321404D01*
X146160664Y-54260728D01*
X146189620Y-54206498D01*
X146225444Y-54158979D01*
X146267810Y-54118435D01*
X146316396Y-54085131D01*
X146370877Y-54059331D01*
X146430928Y-54041301D01*
X146496226Y-54031305D01*
X146503453Y-54030722D01*
X146571036Y-54029744D01*
X146635137Y-54036921D01*
X146695180Y-54051971D01*
X146750589Y-54074613D01*
X146800787Y-54104566D01*
X146845198Y-54141547D01*
X146883245Y-54185277D01*
X146914353Y-54235473D01*
X146934285Y-54278500D01*
X146948823Y-54320605D01*
X146958520Y-54364306D01*
X146963939Y-54412141D01*
X146965644Y-54466647D01*
X146965604Y-54469081D01*
X146965044Y-54503017D01*
G37*
G36*
X142750367Y-54503017D02*
G01*
X142747239Y-54547269D01*
X142741019Y-54586753D01*
X142731239Y-54624197D01*
X142717432Y-54662331D01*
X142709422Y-54680823D01*
X142679515Y-54734558D01*
X142642609Y-54781677D01*
X142599086Y-54821863D01*
X142549331Y-54854799D01*
X142493727Y-54880168D01*
X142432658Y-54897654D01*
X142397507Y-54903058D01*
X142355572Y-54906094D01*
X142311577Y-54906514D01*
X142269249Y-54904287D01*
X142232313Y-54899382D01*
X142229491Y-54898838D01*
X142168266Y-54882285D01*
X142112636Y-54857889D01*
X142062909Y-54825974D01*
X142019394Y-54786862D01*
X141982400Y-54740878D01*
X141952236Y-54688346D01*
X141929209Y-54629590D01*
X141913629Y-54564933D01*
X141909918Y-54536907D01*
X141907400Y-54493988D01*
X141907545Y-54465454D01*
X142122991Y-54465454D01*
X142123474Y-54501368D01*
X142125174Y-54535060D01*
X142128093Y-54564056D01*
X142132230Y-54585885D01*
X142139150Y-54608759D01*
X142156801Y-54651085D01*
X142178755Y-54685215D01*
X142205404Y-54711691D01*
X142237139Y-54731055D01*
X142248416Y-54735941D01*
X142261358Y-54740115D01*
X142275893Y-54742726D01*
X142294735Y-54744229D01*
X142320595Y-54745081D01*
X142348117Y-54745183D01*
X142377336Y-54743487D01*
X142397072Y-54739678D01*
X142402944Y-54737681D01*
X142439204Y-54720499D01*
X142469487Y-54696725D01*
X142493937Y-54666076D01*
X142512701Y-54628270D01*
X142525924Y-54583024D01*
X142533751Y-54530055D01*
X142536328Y-54469081D01*
X142536222Y-54455599D01*
X142533019Y-54399452D01*
X142525174Y-54350984D01*
X142512445Y-54309353D01*
X142494588Y-54273714D01*
X142471362Y-54243222D01*
X142452440Y-54226167D01*
X142420335Y-54207263D01*
X142383611Y-54194685D01*
X142344082Y-54188662D01*
X142303564Y-54189426D01*
X142263870Y-54197205D01*
X142226816Y-54212229D01*
X142215273Y-54219012D01*
X142188389Y-54241140D01*
X142165950Y-54270198D01*
X142147423Y-54306979D01*
X142132272Y-54352277D01*
X142128847Y-54369116D01*
X142125678Y-54396855D01*
X142123726Y-54429792D01*
X142122991Y-54465454D01*
X141907545Y-54465454D01*
X141907633Y-54448103D01*
X141910491Y-54402362D01*
X141915844Y-54359874D01*
X141923564Y-54323749D01*
X141924222Y-54321404D01*
X141945987Y-54260728D01*
X141974943Y-54206498D01*
X142010767Y-54158979D01*
X142053133Y-54118435D01*
X142101719Y-54085131D01*
X142156199Y-54059331D01*
X142216251Y-54041301D01*
X142281549Y-54031305D01*
X142288776Y-54030722D01*
X142356359Y-54029744D01*
X142420460Y-54036921D01*
X142480503Y-54051971D01*
X142535912Y-54074613D01*
X142586110Y-54104566D01*
X142630521Y-54141547D01*
X142668568Y-54185277D01*
X142699676Y-54235473D01*
X142719607Y-54278500D01*
X142734145Y-54320605D01*
X142743843Y-54364306D01*
X142749262Y-54412141D01*
X142750967Y-54466647D01*
X142750927Y-54469081D01*
X142750367Y-54503017D01*
G37*
G36*
X145279629Y-54274407D02*
G01*
X145279629Y-54892495D01*
X145174993Y-54892495D01*
X145070356Y-54892495D01*
X145070356Y-54697822D01*
X145070356Y-54503149D01*
X145039938Y-54503156D01*
X145036898Y-54503155D01*
X145025161Y-54503270D01*
X145014928Y-54504079D01*
X145005563Y-54506251D01*
X144996434Y-54510455D01*
X144986907Y-54517361D01*
X144976348Y-54527637D01*
X144964124Y-54541953D01*
X144949601Y-54560976D01*
X144932146Y-54585377D01*
X144911125Y-54615825D01*
X144885903Y-54652987D01*
X144855849Y-54697535D01*
X144830580Y-54734913D01*
X144804555Y-54773117D01*
X144782962Y-54804391D01*
X144765311Y-54829400D01*
X144751115Y-54848811D01*
X144739884Y-54863290D01*
X144731129Y-54873502D01*
X144724362Y-54880112D01*
X144719094Y-54883788D01*
X144718600Y-54884042D01*
X144711966Y-54886940D01*
X144704089Y-54889075D01*
X144693552Y-54890535D01*
X144678943Y-54891407D01*
X144658846Y-54891780D01*
X144631847Y-54891740D01*
X144596532Y-54891375D01*
X144491122Y-54890062D01*
X144642419Y-54671054D01*
X144657148Y-54649766D01*
X144685569Y-54608878D01*
X144712511Y-54570359D01*
X144737399Y-54535017D01*
X144759658Y-54503661D01*
X144778712Y-54477100D01*
X144793986Y-54456141D01*
X144804906Y-54441593D01*
X144810896Y-54434264D01*
X144828077Y-54416480D01*
X144807244Y-54397762D01*
X144804186Y-54394775D01*
X144793818Y-54383626D01*
X144778410Y-54366310D01*
X144758729Y-54343718D01*
X144735545Y-54316743D01*
X144709627Y-54286276D01*
X144681744Y-54253211D01*
X144652666Y-54218439D01*
X144636280Y-54198764D01*
X144608670Y-54165621D01*
X144583187Y-54135044D01*
X144560516Y-54107852D01*
X144541339Y-54084864D01*
X144526339Y-54066899D01*
X144516201Y-54054777D01*
X144511607Y-54049316D01*
X144509959Y-54047077D01*
X144509817Y-54044864D01*
X144512845Y-54043243D01*
X144520138Y-54042120D01*
X144532790Y-54041406D01*
X144551894Y-54041008D01*
X144578543Y-54040836D01*
X144613833Y-54040799D01*
X144647111Y-54040830D01*
X144674769Y-54041008D01*
X144695341Y-54041452D01*
X144710198Y-54042286D01*
X144720711Y-54043629D01*
X144728253Y-54045602D01*
X144734195Y-54048327D01*
X144739908Y-54051925D01*
X144744917Y-54056368D01*
X144756038Y-54068061D01*
X144771736Y-54085642D01*
X144791180Y-54108150D01*
X144813541Y-54134620D01*
X144837989Y-54164089D01*
X144863695Y-54195595D01*
X144891979Y-54230553D01*
X144919396Y-54264343D01*
X144941938Y-54291833D01*
X144960287Y-54313689D01*
X144975126Y-54330578D01*
X144987139Y-54343164D01*
X144997007Y-54352114D01*
X145005415Y-54358093D01*
X145013045Y-54361767D01*
X145020580Y-54363803D01*
X145028702Y-54364865D01*
X145038096Y-54365620D01*
X145070356Y-54368210D01*
X145070356Y-54012265D01*
X145070356Y-53656320D01*
X145174993Y-53656320D01*
X145279629Y-53656320D01*
X145279629Y-54274407D01*
G37*
G36*
X150966176Y-57051869D02*
G01*
X150974760Y-57063990D01*
X150977788Y-57068701D01*
X150977702Y-57073822D01*
X150975921Y-57087815D01*
X150972539Y-57108304D01*
X150967912Y-57133564D01*
X150962393Y-57161872D01*
X150956336Y-57191502D01*
X150950098Y-57220731D01*
X150944032Y-57247834D01*
X150938492Y-57271087D01*
X150933833Y-57288765D01*
X150930410Y-57299144D01*
X150925588Y-57308211D01*
X150909923Y-57328052D01*
X150889771Y-57345764D01*
X150868480Y-57358155D01*
X150867043Y-57358648D01*
X150861893Y-57359683D01*
X150853713Y-57360601D01*
X150841989Y-57361409D01*
X150826204Y-57362112D01*
X150805843Y-57362719D01*
X150780389Y-57363234D01*
X150749328Y-57363664D01*
X150712143Y-57364016D01*
X150668319Y-57364297D01*
X150617340Y-57364512D01*
X150558690Y-57364668D01*
X150491853Y-57364771D01*
X150416315Y-57364828D01*
X150331558Y-57364846D01*
X149810651Y-57364846D01*
X149810651Y-57659290D01*
X149810651Y-57953733D01*
X149630578Y-57953733D01*
X149450505Y-57953733D01*
X149450505Y-57659290D01*
X149450505Y-57364846D01*
X149327121Y-57364846D01*
X149308639Y-57364842D01*
X149274786Y-57364768D01*
X149248818Y-57364523D01*
X149229469Y-57364007D01*
X149215472Y-57363122D01*
X149205558Y-57361768D01*
X149198461Y-57359845D01*
X149192913Y-57357255D01*
X149187647Y-57353896D01*
X149186342Y-57352987D01*
X149172604Y-57341478D01*
X149161376Y-57329215D01*
X149159327Y-57326285D01*
X149156753Y-57321442D01*
X149154755Y-57315094D01*
X149153242Y-57306064D01*
X149152123Y-57293177D01*
X149151307Y-57275259D01*
X149150702Y-57251134D01*
X149150217Y-57219626D01*
X149149761Y-57179560D01*
X149148328Y-57043635D01*
X149299416Y-57043635D01*
X149450505Y-57043635D01*
X149450505Y-56294143D01*
X149450505Y-56052799D01*
X149801489Y-56052799D01*
X149802100Y-56066587D01*
X149803431Y-56085966D01*
X149805361Y-56108877D01*
X149805873Y-56115816D01*
X149806834Y-56136885D01*
X149807697Y-56167138D01*
X149808457Y-56206207D01*
X149809111Y-56253728D01*
X149809655Y-56309331D01*
X149810085Y-56372651D01*
X149810397Y-56443321D01*
X149810587Y-56520973D01*
X149810651Y-56605241D01*
X149810651Y-57043635D01*
X150175576Y-57043635D01*
X150540501Y-57043635D01*
X150456635Y-56929840D01*
X150454599Y-56927077D01*
X150438543Y-56905284D01*
X150417363Y-56876529D01*
X150391615Y-56841567D01*
X150361857Y-56801157D01*
X150328645Y-56756053D01*
X150292538Y-56707013D01*
X150254092Y-56654794D01*
X150213864Y-56600151D01*
X150172411Y-56543843D01*
X150130291Y-56486625D01*
X150088060Y-56429254D01*
X150065938Y-56399220D01*
X150026800Y-56346181D01*
X149989515Y-56295775D01*
X149954471Y-56248525D01*
X149922061Y-56204951D01*
X149892675Y-56165574D01*
X149866702Y-56130918D01*
X149844534Y-56101503D01*
X149826560Y-56077850D01*
X149813171Y-56060482D01*
X149804758Y-56049920D01*
X149801711Y-56046685D01*
X149801489Y-56052799D01*
X149450505Y-56052799D01*
X149450505Y-55544651D01*
X149646592Y-55544651D01*
X149842680Y-55544651D01*
X150409468Y-56302358D01*
X150420203Y-56316710D01*
X150477023Y-56392715D01*
X150532227Y-56466624D01*
X150585533Y-56538056D01*
X150636661Y-56606633D01*
X150685328Y-56671976D01*
X150731253Y-56733704D01*
X150774155Y-56791438D01*
X150813752Y-56844798D01*
X150849763Y-56893406D01*
X150881907Y-56936881D01*
X150909901Y-56974845D01*
X150933465Y-57006917D01*
X150952317Y-57032718D01*
X150960217Y-57043635D01*
X150966176Y-57051869D01*
G37*
G36*
X149416153Y-54026611D02*
G01*
X149467797Y-54031221D01*
X149514145Y-54041424D01*
X149557466Y-54057821D01*
X149600024Y-54081010D01*
X149632228Y-54105113D01*
X149662565Y-54137719D01*
X149686012Y-54174645D01*
X149702422Y-54214671D01*
X149711646Y-54256576D01*
X149713538Y-54299141D01*
X149707950Y-54341145D01*
X149694734Y-54381368D01*
X149673742Y-54418590D01*
X149644828Y-54451590D01*
X149631619Y-54462944D01*
X149608635Y-54479187D01*
X149581297Y-54494475D01*
X149548293Y-54509444D01*
X149508309Y-54524728D01*
X149460034Y-54540961D01*
X149452242Y-54543468D01*
X149409400Y-54557871D01*
X149375008Y-54570862D01*
X149348169Y-54583059D01*
X149327980Y-54595082D01*
X149313541Y-54607546D01*
X149303953Y-54621072D01*
X149298315Y-54636278D01*
X149295726Y-54653780D01*
X149295314Y-54660328D01*
X149295539Y-54676858D01*
X149298902Y-54690049D01*
X149306399Y-54704649D01*
X149309128Y-54709103D01*
X149319016Y-54721546D01*
X149332196Y-54731825D01*
X149351677Y-54742450D01*
X149364089Y-54748362D01*
X149377988Y-54753804D01*
X149391473Y-54756847D01*
X149407926Y-54758178D01*
X149430726Y-54758480D01*
X149447910Y-54758169D01*
X149479525Y-54755133D01*
X149508441Y-54748107D01*
X149537894Y-54736167D01*
X149571116Y-54718391D01*
X149581522Y-54712570D01*
X149610959Y-54699169D01*
X149635485Y-54693412D01*
X149655818Y-54695201D01*
X149672678Y-54704437D01*
X149676273Y-54707901D01*
X149685877Y-54719492D01*
X149697124Y-54735181D01*
X149708784Y-54752976D01*
X149719625Y-54770882D01*
X149728419Y-54786906D01*
X149733934Y-54799055D01*
X149734941Y-54805335D01*
X149730889Y-54809438D01*
X149719801Y-54817945D01*
X149704190Y-54828682D01*
X149686283Y-54840183D01*
X149668304Y-54850984D01*
X149652479Y-54859620D01*
X149633299Y-54868167D01*
X149605744Y-54878465D01*
X149575503Y-54888290D01*
X149546234Y-54896461D01*
X149521597Y-54901800D01*
X149516980Y-54902496D01*
X149493680Y-54904705D01*
X149464865Y-54906000D01*
X149433577Y-54906379D01*
X149402857Y-54905838D01*
X149375744Y-54904373D01*
X149355279Y-54901982D01*
X149327518Y-54896145D01*
X149274210Y-54879089D01*
X149226834Y-54855646D01*
X149186045Y-54826246D01*
X149152493Y-54791320D01*
X149126831Y-54751298D01*
X149119966Y-54736618D01*
X149107923Y-54700369D01*
X149101755Y-54660684D01*
X149100993Y-54615086D01*
X149102700Y-54589198D01*
X149108288Y-54557055D01*
X149118517Y-54529783D01*
X149134489Y-54504725D01*
X149157303Y-54479228D01*
X149162550Y-54474149D01*
X149181381Y-54458423D01*
X149203516Y-54443794D01*
X149230200Y-54429647D01*
X149262678Y-54415366D01*
X149302196Y-54400335D01*
X149349998Y-54383939D01*
X149363650Y-54379394D01*
X149405788Y-54364671D01*
X149439545Y-54351414D01*
X149465773Y-54339028D01*
X149485324Y-54326917D01*
X149499048Y-54314485D01*
X149507797Y-54301135D01*
X149512421Y-54286272D01*
X149513774Y-54269301D01*
X149513040Y-54257814D01*
X149505094Y-54232358D01*
X149488730Y-54211268D01*
X149464338Y-54194953D01*
X149432304Y-54183820D01*
X149416648Y-54180696D01*
X149380395Y-54178015D01*
X149342917Y-54181941D01*
X149302510Y-54192736D01*
X149257473Y-54210661D01*
X149239627Y-54218284D01*
X149212924Y-54227344D01*
X149192239Y-54230525D01*
X149176532Y-54227929D01*
X149164764Y-54219656D01*
X149159572Y-54213283D01*
X149150258Y-54200354D01*
X149139470Y-54184347D01*
X149128620Y-54167471D01*
X149119121Y-54151935D01*
X149112386Y-54139950D01*
X149109827Y-54133724D01*
X149111385Y-54130069D01*
X149119667Y-54121014D01*
X149133607Y-54109232D01*
X149151531Y-54096096D01*
X149171762Y-54082978D01*
X149213556Y-54061050D01*
X149268362Y-54041564D01*
X149327846Y-54030009D01*
X149392736Y-54026199D01*
X149416153Y-54026611D01*
G37*
G36*
X144121039Y-54026611D02*
G01*
X144172683Y-54031221D01*
X144219031Y-54041424D01*
X144262352Y-54057821D01*
X144304910Y-54081010D01*
X144337114Y-54105113D01*
X144367451Y-54137719D01*
X144390898Y-54174645D01*
X144407308Y-54214671D01*
X144416532Y-54256576D01*
X144418424Y-54299141D01*
X144412836Y-54341145D01*
X144399620Y-54381368D01*
X144378628Y-54418590D01*
X144349714Y-54451590D01*
X144336505Y-54462944D01*
X144313521Y-54479187D01*
X144286183Y-54494475D01*
X144253179Y-54509444D01*
X144213195Y-54524728D01*
X144164920Y-54540961D01*
X144157128Y-54543468D01*
X144114286Y-54557871D01*
X144079894Y-54570862D01*
X144053055Y-54583059D01*
X144032866Y-54595082D01*
X144018427Y-54607546D01*
X144008839Y-54621072D01*
X144003201Y-54636278D01*
X144000612Y-54653780D01*
X144000200Y-54660328D01*
X144000425Y-54676858D01*
X144003788Y-54690049D01*
X144011285Y-54704649D01*
X144014014Y-54709103D01*
X144023902Y-54721546D01*
X144037082Y-54731825D01*
X144056563Y-54742450D01*
X144068975Y-54748362D01*
X144082874Y-54753804D01*
X144096359Y-54756847D01*
X144112812Y-54758178D01*
X144135612Y-54758480D01*
X144152796Y-54758169D01*
X144184411Y-54755133D01*
X144213327Y-54748107D01*
X144242780Y-54736167D01*
X144276002Y-54718391D01*
X144286408Y-54712570D01*
X144315845Y-54699169D01*
X144340371Y-54693412D01*
X144360704Y-54695201D01*
X144377564Y-54704437D01*
X144381159Y-54707901D01*
X144390763Y-54719492D01*
X144402010Y-54735181D01*
X144413670Y-54752976D01*
X144424511Y-54770882D01*
X144433305Y-54786906D01*
X144438820Y-54799055D01*
X144439827Y-54805335D01*
X144435775Y-54809438D01*
X144424687Y-54817945D01*
X144409076Y-54828682D01*
X144391169Y-54840183D01*
X144373190Y-54850984D01*
X144357365Y-54859620D01*
X144338185Y-54868167D01*
X144310630Y-54878465D01*
X144280389Y-54888290D01*
X144251120Y-54896461D01*
X144226483Y-54901800D01*
X144221866Y-54902496D01*
X144198566Y-54904705D01*
X144169751Y-54906000D01*
X144138463Y-54906379D01*
X144107743Y-54905838D01*
X144080630Y-54904373D01*
X144060165Y-54901982D01*
X144032404Y-54896145D01*
X143979096Y-54879089D01*
X143931720Y-54855646D01*
X143890931Y-54826246D01*
X143857379Y-54791320D01*
X143831717Y-54751298D01*
X143824852Y-54736618D01*
X143812809Y-54700369D01*
X143806641Y-54660684D01*
X143805879Y-54615086D01*
X143807586Y-54589198D01*
X143813174Y-54557055D01*
X143823403Y-54529783D01*
X143839375Y-54504725D01*
X143862189Y-54479228D01*
X143867436Y-54474149D01*
X143886267Y-54458423D01*
X143908402Y-54443794D01*
X143935086Y-54429647D01*
X143967564Y-54415366D01*
X144007082Y-54400335D01*
X144054884Y-54383939D01*
X144068536Y-54379394D01*
X144110674Y-54364671D01*
X144144431Y-54351414D01*
X144170659Y-54339028D01*
X144190210Y-54326917D01*
X144203934Y-54314485D01*
X144212682Y-54301135D01*
X144217307Y-54286272D01*
X144218660Y-54269301D01*
X144217926Y-54257814D01*
X144209980Y-54232358D01*
X144193616Y-54211268D01*
X144169224Y-54194953D01*
X144137190Y-54183820D01*
X144121534Y-54180696D01*
X144085281Y-54178015D01*
X144047803Y-54181941D01*
X144007396Y-54192736D01*
X143962359Y-54210661D01*
X143944513Y-54218284D01*
X143917810Y-54227344D01*
X143897125Y-54230525D01*
X143881418Y-54227929D01*
X143869650Y-54219656D01*
X143864458Y-54213283D01*
X143855144Y-54200354D01*
X143844356Y-54184347D01*
X143833506Y-54167471D01*
X143824007Y-54151935D01*
X143817272Y-54139950D01*
X143814713Y-54133724D01*
X143816271Y-54130069D01*
X143824553Y-54121014D01*
X143838493Y-54109232D01*
X143856416Y-54096096D01*
X143876648Y-54082978D01*
X143918442Y-54061050D01*
X143973248Y-54041564D01*
X144032732Y-54030009D01*
X144097622Y-54026199D01*
X144121039Y-54026611D01*
G37*
G36*
X152264421Y-54380450D02*
G01*
X152265975Y-54405319D01*
X152267137Y-54437446D01*
X152267478Y-54472948D01*
X152263600Y-54539768D01*
X152253340Y-54600177D01*
X152236391Y-54655055D01*
X152212447Y-54705280D01*
X152181200Y-54751731D01*
X152142345Y-54795289D01*
X152136473Y-54801010D01*
X152094606Y-54836033D01*
X152049458Y-54863613D01*
X151999280Y-54884666D01*
X151942323Y-54900109D01*
X151916815Y-54903773D01*
X151883513Y-54905743D01*
X151845832Y-54905948D01*
X151806395Y-54904486D01*
X151767826Y-54901458D01*
X151732751Y-54896962D01*
X151703793Y-54891097D01*
X151651590Y-54874933D01*
X151602577Y-54853364D01*
X151559446Y-54826624D01*
X151520530Y-54793829D01*
X151495383Y-54769521D01*
X151529460Y-54726321D01*
X151541610Y-54711315D01*
X151555137Y-54695553D01*
X151565982Y-54683952D01*
X151572537Y-54678305D01*
X151577101Y-54676219D01*
X151590811Y-54673789D01*
X151607683Y-54676329D01*
X151629217Y-54684185D01*
X151656911Y-54697700D01*
X151666881Y-54702887D01*
X151703351Y-54720443D01*
X151735174Y-54732885D01*
X151764782Y-54740908D01*
X151794607Y-54745211D01*
X151827082Y-54746490D01*
X151828044Y-54746490D01*
X151860308Y-54745514D01*
X151886305Y-54742424D01*
X151909263Y-54736843D01*
X151921890Y-54732454D01*
X151959764Y-54712768D01*
X151992725Y-54685344D01*
X152019716Y-54651199D01*
X152039678Y-54611349D01*
X152040526Y-54609000D01*
X152045107Y-54593604D01*
X152050248Y-54573066D01*
X152055330Y-54550294D01*
X152059729Y-54528195D01*
X152062824Y-54509676D01*
X152063994Y-54497644D01*
X152061993Y-54497126D01*
X152051422Y-54496364D01*
X152032519Y-54495661D01*
X152006138Y-54495030D01*
X151973129Y-54494484D01*
X151934344Y-54494036D01*
X151890635Y-54493700D01*
X151842853Y-54493488D01*
X151791850Y-54493415D01*
X151758060Y-54493392D01*
X151709056Y-54493272D01*
X151663448Y-54493060D01*
X151622142Y-54492766D01*
X151586043Y-54492398D01*
X151556057Y-54491967D01*
X151533089Y-54491482D01*
X151518044Y-54490954D01*
X151511827Y-54490392D01*
X151507984Y-54488479D01*
X151499578Y-54479374D01*
X151493912Y-54463750D01*
X151490713Y-54440600D01*
X151489708Y-54408915D01*
X151489728Y-54404052D01*
X151491960Y-54371744D01*
X151673734Y-54371744D01*
X151866431Y-54371744D01*
X151879850Y-54371737D01*
X151921200Y-54371622D01*
X151959030Y-54371379D01*
X151992304Y-54371024D01*
X152019986Y-54370572D01*
X152041041Y-54370040D01*
X152054433Y-54369442D01*
X152059127Y-54368796D01*
X152058933Y-54366084D01*
X152056191Y-54352898D01*
X152050964Y-54334677D01*
X152044220Y-54314393D01*
X152036926Y-54295017D01*
X152030050Y-54279519D01*
X152025960Y-54271813D01*
X152001825Y-54237852D01*
X151971540Y-54211429D01*
X151935157Y-54192580D01*
X151892729Y-54181344D01*
X151868744Y-54178684D01*
X151826305Y-54180463D01*
X151787073Y-54190637D01*
X151752075Y-54208883D01*
X151722342Y-54234877D01*
X151702275Y-54263148D01*
X151686351Y-54301141D01*
X151676954Y-54346193D01*
X151673734Y-54371744D01*
X151491960Y-54371744D01*
X151494212Y-54339142D01*
X151506597Y-54279809D01*
X151526958Y-54225849D01*
X151555371Y-54177058D01*
X151591912Y-54133229D01*
X151612710Y-54113534D01*
X151646354Y-54088101D01*
X151683995Y-54067548D01*
X151728447Y-54050163D01*
X151744521Y-54044989D01*
X151764640Y-54039584D01*
X151784404Y-54036025D01*
X151807174Y-54033754D01*
X151836313Y-54032210D01*
X151869661Y-54031690D01*
X151931529Y-54035981D01*
X151987913Y-54047548D01*
X152039699Y-54066607D01*
X152087770Y-54093372D01*
X152119634Y-54116453D01*
X152163840Y-54157469D01*
X152200390Y-54204188D01*
X152229646Y-54257105D01*
X152251971Y-54316713D01*
X152254295Y-54324639D01*
X152258892Y-54342585D01*
X152262163Y-54360364D01*
X152263111Y-54368796D01*
X152264421Y-54380450D01*
G37*
G36*
X154482810Y-54680649D02*
G01*
X154481860Y-54705296D01*
X154473972Y-54752194D01*
X154458277Y-54793507D01*
X154434989Y-54828946D01*
X154404323Y-54858221D01*
X154366495Y-54881045D01*
X154321719Y-54897128D01*
X154304455Y-54900871D01*
X154267207Y-54905397D01*
X154226305Y-54906722D01*
X154185366Y-54904794D01*
X154148010Y-54899563D01*
X154120035Y-54892240D01*
X154078809Y-54876393D01*
X154038098Y-54855462D01*
X154001470Y-54831115D01*
X153998301Y-54828697D01*
X153982651Y-54816771D01*
X153969632Y-54806881D01*
X153961794Y-54800964D01*
X153959754Y-54799574D01*
X153955726Y-54798738D01*
X153952156Y-54802694D01*
X153948054Y-54812978D01*
X153942434Y-54831129D01*
X153935864Y-54850136D01*
X153927766Y-54867604D01*
X153920155Y-54878399D01*
X153915911Y-54881812D01*
X153901712Y-54888595D01*
X153881251Y-54893264D01*
X153853409Y-54896022D01*
X153817069Y-54897072D01*
X153771850Y-54897362D01*
X153772912Y-54672476D01*
X153971532Y-54672476D01*
X153999646Y-54697604D01*
X154019906Y-54713805D01*
X154054931Y-54735395D01*
X154091897Y-54751650D01*
X154127531Y-54760951D01*
X154151184Y-54763758D01*
X154190138Y-54763723D01*
X154222895Y-54757135D01*
X154249084Y-54744210D01*
X154268336Y-54725164D01*
X154280281Y-54700212D01*
X154284547Y-54669570D01*
X154284306Y-54659077D01*
X154279788Y-54634755D01*
X154268537Y-54614136D01*
X154249173Y-54594289D01*
X154233856Y-54583338D01*
X154203917Y-54568587D01*
X154166856Y-54556120D01*
X154124155Y-54546325D01*
X154077296Y-54539591D01*
X154027761Y-54536305D01*
X153974226Y-54534783D01*
X153972879Y-54603630D01*
X153971532Y-54672476D01*
X153772912Y-54672476D01*
X153773327Y-54584668D01*
X153773590Y-54529501D01*
X153773875Y-54474499D01*
X153774168Y-54427777D01*
X153774498Y-54388557D01*
X153774893Y-54356062D01*
X153775382Y-54329513D01*
X153775993Y-54308134D01*
X153776757Y-54291147D01*
X153777700Y-54277774D01*
X153778853Y-54267237D01*
X153780243Y-54258760D01*
X153781899Y-54251564D01*
X153783851Y-54244872D01*
X153786126Y-54237906D01*
X153791064Y-54223903D01*
X153814520Y-54173367D01*
X153844469Y-54130060D01*
X153881025Y-54093863D01*
X153924301Y-54064658D01*
X153974412Y-54042328D01*
X153984747Y-54038747D01*
X153997952Y-54034686D01*
X154010520Y-54031894D01*
X154024524Y-54030139D01*
X154042039Y-54029193D01*
X154065139Y-54028822D01*
X154095897Y-54028796D01*
X154130081Y-54029277D01*
X154168947Y-54031428D01*
X154202852Y-54035758D01*
X154234467Y-54042759D01*
X154266463Y-54052924D01*
X154301512Y-54066746D01*
X154321994Y-54076304D01*
X154347905Y-54090214D01*
X154374336Y-54105945D01*
X154398946Y-54122027D01*
X154419391Y-54136993D01*
X154433329Y-54149373D01*
X154444683Y-54161524D01*
X154421980Y-54200884D01*
X154416783Y-54209674D01*
X154400797Y-54233170D01*
X154385524Y-54249060D01*
X154369442Y-54258688D01*
X154351028Y-54263395D01*
X154343623Y-54263925D01*
X154334753Y-54262987D01*
X154323833Y-54259837D01*
X154309229Y-54253882D01*
X154289308Y-54244528D01*
X154262436Y-54231181D01*
X154241180Y-54220604D01*
X154218263Y-54209761D01*
X154200025Y-54202163D01*
X154184242Y-54197003D01*
X154168689Y-54193473D01*
X154151139Y-54190765D01*
X154128545Y-54188190D01*
X154110891Y-54187617D01*
X154094782Y-54189267D01*
X154076174Y-54193275D01*
X154065341Y-54196249D01*
X154037380Y-54207797D01*
X154015236Y-54224121D01*
X153998339Y-54246121D01*
X153986118Y-54274695D01*
X153978003Y-54310742D01*
X153973423Y-54355161D01*
X153970407Y-54404281D01*
X154042886Y-54407220D01*
X154052889Y-54407672D01*
X154125973Y-54413903D01*
X154193658Y-54424924D01*
X154255460Y-54440502D01*
X154310892Y-54460400D01*
X154359466Y-54484383D01*
X154400697Y-54512215D01*
X154434099Y-54543662D01*
X154459184Y-54578489D01*
X154475467Y-54616459D01*
X154475747Y-54617431D01*
X154479316Y-54635317D01*
X154481848Y-54657940D01*
X154482341Y-54669570D01*
X154482810Y-54680649D01*
G37*
G36*
X147074117Y-56856803D02*
G01*
X147066741Y-56970934D01*
X147054167Y-57080942D01*
X147036395Y-57184773D01*
X147025254Y-57235436D01*
X146997114Y-57338153D01*
X146963054Y-57433803D01*
X146923202Y-57522244D01*
X146877686Y-57603335D01*
X146826636Y-57676933D01*
X146770178Y-57742896D01*
X146708442Y-57801084D01*
X146641556Y-57851354D01*
X146569649Y-57893564D01*
X146492848Y-57927573D01*
X146411283Y-57953238D01*
X146325080Y-57970419D01*
X146313311Y-57971940D01*
X146276988Y-57975025D01*
X146235172Y-57976793D01*
X146190867Y-57977242D01*
X146147078Y-57976369D01*
X146106810Y-57974172D01*
X146073069Y-57970647D01*
X146056270Y-57968091D01*
X145970041Y-57949380D01*
X145888162Y-57922048D01*
X145810894Y-57886293D01*
X145738500Y-57842314D01*
X145671241Y-57790308D01*
X145609379Y-57730474D01*
X145553177Y-57663010D01*
X145502896Y-57588114D01*
X145458798Y-57505984D01*
X145437681Y-57459528D01*
X145403845Y-57372983D01*
X145375645Y-57282826D01*
X145352925Y-57188238D01*
X145335527Y-57088400D01*
X145323295Y-56982492D01*
X145316071Y-56869696D01*
X145313697Y-56749192D01*
X145740500Y-56749192D01*
X145740548Y-56774076D01*
X145741348Y-56845645D01*
X145743253Y-56909562D01*
X145746413Y-56967372D01*
X145750978Y-57020618D01*
X145757098Y-57070844D01*
X145764926Y-57119594D01*
X145774610Y-57168412D01*
X145786301Y-57218841D01*
X145807246Y-57293051D01*
X145834045Y-57365446D01*
X145865002Y-57429073D01*
X145900111Y-57483923D01*
X145939366Y-57529986D01*
X145982761Y-57567254D01*
X146030289Y-57595715D01*
X146040562Y-57600517D01*
X146064800Y-57610757D01*
X146088243Y-57619404D01*
X146106991Y-57624970D01*
X146146273Y-57631998D01*
X146205092Y-57635045D01*
X146263288Y-57629517D01*
X146318698Y-57615509D01*
X146341959Y-57606585D01*
X146390612Y-57580771D01*
X146435017Y-57546663D01*
X146475237Y-57504168D01*
X146511333Y-57453190D01*
X146543368Y-57393635D01*
X146571402Y-57325408D01*
X146595499Y-57248415D01*
X146615721Y-57162562D01*
X146627326Y-57095571D01*
X146637103Y-57016421D01*
X146644113Y-56931569D01*
X146648357Y-56842895D01*
X146649835Y-56752279D01*
X146648545Y-56661598D01*
X146644489Y-56572733D01*
X146637666Y-56487563D01*
X146628077Y-56407966D01*
X146615721Y-56335822D01*
X146602341Y-56276433D01*
X146579575Y-56197232D01*
X146552912Y-56126454D01*
X146522414Y-56064209D01*
X146488147Y-56010605D01*
X146450172Y-55965751D01*
X146408553Y-55929756D01*
X146363353Y-55902728D01*
X146348077Y-55895622D01*
X146310248Y-55880500D01*
X146274820Y-55870762D01*
X146238258Y-55865590D01*
X146197027Y-55864164D01*
X146192061Y-55864200D01*
X146148079Y-55866557D01*
X146109022Y-55873161D01*
X146071041Y-55884899D01*
X146030289Y-55902660D01*
X145986522Y-55928449D01*
X145942777Y-55965002D01*
X145903175Y-56010352D01*
X145867720Y-56064490D01*
X145836419Y-56127407D01*
X145809278Y-56199094D01*
X145786301Y-56279542D01*
X145782315Y-56296023D01*
X145771285Y-56345766D01*
X145762214Y-56394393D01*
X145754952Y-56443449D01*
X145749348Y-56494478D01*
X145745251Y-56549022D01*
X145742511Y-56608627D01*
X145740978Y-56674836D01*
X145740500Y-56749192D01*
X145313697Y-56749192D01*
X145314489Y-56676876D01*
X145319196Y-56566510D01*
X145328301Y-56463318D01*
X145341990Y-56366276D01*
X145360449Y-56274363D01*
X145383863Y-56186556D01*
X145412418Y-56101831D01*
X145446300Y-56019167D01*
X145483791Y-55943568D01*
X145531822Y-55865266D01*
X145585699Y-55794526D01*
X145645176Y-55731511D01*
X145710006Y-55676384D01*
X145779945Y-55629308D01*
X145854746Y-55590446D01*
X145934162Y-55559962D01*
X146017950Y-55538018D01*
X146105862Y-55524778D01*
X146197652Y-55520406D01*
X146282761Y-55524300D01*
X146370399Y-55536884D01*
X146453664Y-55558025D01*
X146532401Y-55587577D01*
X146606454Y-55625393D01*
X146675668Y-55671325D01*
X146739889Y-55725228D01*
X146798960Y-55786954D01*
X146852727Y-55856357D01*
X146901034Y-55933291D01*
X146943726Y-56017607D01*
X146980648Y-56109160D01*
X147011644Y-56207803D01*
X147036560Y-56313389D01*
X147051633Y-56400113D01*
X147065053Y-56510204D01*
X147073273Y-56624385D01*
X147076295Y-56740602D01*
X147076076Y-56752279D01*
X147074117Y-56856803D01*
G37*
G36*
X155108098Y-53682176D02*
G01*
X155109849Y-53682237D01*
X155159721Y-53684939D01*
X155202977Y-53689531D01*
X155242547Y-53696525D01*
X155281358Y-53706437D01*
X155322339Y-53719781D01*
X155326945Y-53721418D01*
X155353860Y-53731431D01*
X155376136Y-53740903D01*
X155396904Y-53751395D01*
X155419296Y-53764468D01*
X155446443Y-53781686D01*
X155477128Y-53803204D01*
X155530210Y-53849339D01*
X155576998Y-53902367D01*
X155617059Y-53961607D01*
X155649961Y-54026376D01*
X155675271Y-54095991D01*
X155692556Y-54169770D01*
X155697023Y-54203686D01*
X155700015Y-54246236D01*
X155701092Y-54291822D01*
X155700251Y-54337300D01*
X155697488Y-54379526D01*
X155692801Y-54415355D01*
X155675973Y-54485913D01*
X155650317Y-54556176D01*
X155616908Y-54622107D01*
X155576301Y-54682618D01*
X155529047Y-54736625D01*
X155523134Y-54742442D01*
X155470437Y-54787291D01*
X155411783Y-54826104D01*
X155348934Y-54857972D01*
X155283653Y-54881986D01*
X155217702Y-54897236D01*
X155215204Y-54897638D01*
X155196823Y-54900634D01*
X155182055Y-54903100D01*
X155173900Y-54904536D01*
X155171207Y-54904813D01*
X155159632Y-54905337D01*
X155141183Y-54905821D01*
X155117735Y-54906221D01*
X155091164Y-54906491D01*
X155068997Y-54906482D01*
X154999146Y-54903918D01*
X154935274Y-54897207D01*
X154875060Y-54886044D01*
X154816188Y-54870121D01*
X154800027Y-54864604D01*
X154769763Y-54852514D01*
X154737488Y-54837901D01*
X154706022Y-54822138D01*
X154678185Y-54806595D01*
X154656799Y-54792644D01*
X154633682Y-54775597D01*
X154633682Y-54534736D01*
X154633682Y-54293875D01*
X154835656Y-54293875D01*
X155037629Y-54293875D01*
X155037629Y-54364665D01*
X155037623Y-54376456D01*
X155037467Y-54400822D01*
X155036911Y-54417859D01*
X155035705Y-54429302D01*
X155033599Y-54436885D01*
X155030342Y-54442340D01*
X155025683Y-54447401D01*
X155024985Y-54448097D01*
X155020445Y-54452211D01*
X155015371Y-54455176D01*
X155008233Y-54457179D01*
X154997494Y-54458410D01*
X154981623Y-54459056D01*
X154959085Y-54459306D01*
X154928347Y-54459347D01*
X154842956Y-54459347D01*
X154842956Y-54568391D01*
X154842956Y-54677434D01*
X154883649Y-54692158D01*
X154929408Y-54706517D01*
X154993168Y-54719649D01*
X155056798Y-54725202D01*
X155119032Y-54723235D01*
X155178601Y-54713811D01*
X155234238Y-54696989D01*
X155284675Y-54672832D01*
X155288168Y-54670723D01*
X155314800Y-54651437D01*
X155342952Y-54626368D01*
X155370137Y-54598079D01*
X155393867Y-54569131D01*
X155411655Y-54542083D01*
X155416028Y-54533989D01*
X155441986Y-54474253D01*
X155459523Y-54409644D01*
X155468636Y-54340171D01*
X155469323Y-54265844D01*
X155468715Y-54254284D01*
X155463729Y-54203613D01*
X155454718Y-54158233D01*
X155440882Y-54114877D01*
X155421421Y-54070277D01*
X155412499Y-54052446D01*
X155401138Y-54032253D01*
X155389222Y-54015147D01*
X155374481Y-53997977D01*
X155354644Y-53977593D01*
X155354590Y-53977539D01*
X155332121Y-53956100D01*
X155312720Y-53940070D01*
X155293416Y-53927231D01*
X155271237Y-53915367D01*
X155251787Y-53906141D01*
X155219641Y-53893014D01*
X155188762Y-53883817D01*
X155156433Y-53877976D01*
X155119939Y-53874913D01*
X155076564Y-53874053D01*
X155058836Y-53874124D01*
X155031746Y-53874644D01*
X155010257Y-53875904D01*
X154991679Y-53878183D01*
X154973324Y-53881760D01*
X154952501Y-53886913D01*
X154942189Y-53889720D01*
X154917514Y-53897411D01*
X154892984Y-53906731D01*
X154866516Y-53918585D01*
X154836025Y-53933882D01*
X154799426Y-53953528D01*
X154780418Y-53963471D01*
X154766773Y-53969089D01*
X154756132Y-53971056D01*
X154745891Y-53970183D01*
X154745047Y-53970019D01*
X154730515Y-53965354D01*
X154719289Y-53958868D01*
X154716033Y-53955359D01*
X154707701Y-53944569D01*
X154696575Y-53929000D01*
X154683859Y-53910467D01*
X154670757Y-53890788D01*
X154658471Y-53871780D01*
X154648205Y-53855260D01*
X154641164Y-53843046D01*
X154638549Y-53836954D01*
X154640262Y-53833449D01*
X154648994Y-53824781D01*
X154663809Y-53813053D01*
X154683224Y-53799263D01*
X154705757Y-53784411D01*
X154729928Y-53769494D01*
X154754254Y-53755512D01*
X154777254Y-53743463D01*
X154818466Y-53724814D01*
X154869670Y-53706537D01*
X154922374Y-53693480D01*
X154978440Y-53685297D01*
X155039727Y-53681644D01*
X155108098Y-53682176D01*
G37*
G36*
X154784664Y-55511315D02*
G01*
X154875699Y-55517447D01*
X154961058Y-55530145D01*
X155042014Y-55549687D01*
X155119838Y-55576352D01*
X155195801Y-55610419D01*
X155195846Y-55610441D01*
X155273843Y-55654771D01*
X155345015Y-55705952D01*
X155409221Y-55763756D01*
X155466316Y-55827955D01*
X155516156Y-55898322D01*
X155558599Y-55974628D01*
X155593501Y-56056646D01*
X155620719Y-56144147D01*
X155640108Y-56236903D01*
X155651526Y-56334687D01*
X155654276Y-56395826D01*
X155651310Y-56493002D01*
X155639328Y-56588033D01*
X155618456Y-56680276D01*
X155588819Y-56769088D01*
X155550540Y-56853829D01*
X155527266Y-56896447D01*
X155490133Y-56954639D01*
X155448535Y-57008301D01*
X155400208Y-57060548D01*
X155389160Y-57071424D01*
X155321081Y-57130549D01*
X155247469Y-57181789D01*
X155168752Y-57224934D01*
X155085354Y-57259773D01*
X154997703Y-57286098D01*
X154906225Y-57303697D01*
X154898229Y-57304697D01*
X154869410Y-57307036D01*
X154833549Y-57308590D01*
X154792616Y-57309384D01*
X154748584Y-57309440D01*
X154703424Y-57308782D01*
X154659108Y-57307434D01*
X154617609Y-57305418D01*
X154580897Y-57302758D01*
X154550946Y-57299478D01*
X154485926Y-57288716D01*
X154392059Y-57266181D01*
X154303373Y-57235925D01*
X154219071Y-57197664D01*
X154138356Y-57151110D01*
X154098330Y-57125434D01*
X154098330Y-56765757D01*
X154098330Y-56406080D01*
X154390340Y-56406080D01*
X154682350Y-56406080D01*
X154682350Y-56508749D01*
X154682383Y-56530557D01*
X154682244Y-56565517D01*
X154681033Y-56593196D01*
X154677788Y-56614441D01*
X154671547Y-56630102D01*
X154661350Y-56641027D01*
X154646233Y-56648063D01*
X154625236Y-56652059D01*
X154597396Y-56653863D01*
X154561753Y-56654324D01*
X154517344Y-56654289D01*
X154395207Y-56654289D01*
X154395207Y-56814540D01*
X154395207Y-56974792D01*
X154432925Y-56989242D01*
X154470636Y-57003029D01*
X154526392Y-57020381D01*
X154580336Y-57032888D01*
X154636008Y-57041317D01*
X154696951Y-57046436D01*
X154728737Y-57047508D01*
X154803847Y-57044060D01*
X154876937Y-57032385D01*
X154946826Y-57012785D01*
X155012338Y-56985557D01*
X155072294Y-56951002D01*
X155085632Y-56941328D01*
X155111542Y-56919645D01*
X155139058Y-56893728D01*
X155165770Y-56866009D01*
X155189268Y-56838920D01*
X155207141Y-56814894D01*
X155219063Y-56795948D01*
X155253059Y-56730984D01*
X155280712Y-56659805D01*
X155301491Y-56583720D01*
X155301912Y-56581778D01*
X155305618Y-56561480D01*
X155308499Y-56538425D01*
X155310696Y-56510869D01*
X155312352Y-56477068D01*
X155313609Y-56435281D01*
X155314131Y-56411506D01*
X155314572Y-56379423D01*
X155314420Y-56353624D01*
X155313574Y-56331976D01*
X155311935Y-56312351D01*
X155309401Y-56292616D01*
X155305875Y-56270641D01*
X155302292Y-56251031D01*
X155283220Y-56174664D01*
X155257041Y-56104794D01*
X155223622Y-56041160D01*
X155182832Y-55983504D01*
X155134540Y-55931564D01*
X155107743Y-55907873D01*
X155055619Y-55870240D01*
X154999006Y-55839972D01*
X154936763Y-55816503D01*
X154867748Y-55799266D01*
X154843025Y-55795571D01*
X154807415Y-55792590D01*
X154767191Y-55791062D01*
X154725056Y-55790983D01*
X154683713Y-55792352D01*
X154645865Y-55795168D01*
X154614215Y-55799428D01*
X154610520Y-55800100D01*
X154556793Y-55811421D01*
X154508719Y-55825057D01*
X154463183Y-55842169D01*
X154417071Y-55863918D01*
X154367267Y-55891465D01*
X154365984Y-55892214D01*
X154343683Y-55904881D01*
X154322886Y-55916078D01*
X154305868Y-55924617D01*
X154294904Y-55929307D01*
X154290004Y-55930730D01*
X154264866Y-55933178D01*
X154239826Y-55928821D01*
X154218794Y-55918229D01*
X154213855Y-55913099D01*
X154203973Y-55900602D01*
X154190891Y-55882770D01*
X154175690Y-55861209D01*
X154159457Y-55837523D01*
X154143273Y-55813317D01*
X154128224Y-55790195D01*
X154115391Y-55769762D01*
X154105860Y-55753622D01*
X154100713Y-55743380D01*
X154100492Y-55741785D01*
X154104809Y-55733344D01*
X154116300Y-55721291D01*
X154133865Y-55706394D01*
X154156404Y-55689424D01*
X154182816Y-55671151D01*
X154211999Y-55652344D01*
X154242853Y-55633773D01*
X154274277Y-55616207D01*
X154305171Y-55600418D01*
X154317317Y-55594634D01*
X154381325Y-55567448D01*
X154445618Y-55546010D01*
X154511917Y-55529963D01*
X154581942Y-55518953D01*
X154657413Y-55512625D01*
X154740051Y-55510623D01*
X154784664Y-55511315D01*
G37*
G36*
X144313743Y-55528100D02*
G01*
X144400580Y-55537798D01*
X144482423Y-55554619D01*
X144560343Y-55578789D01*
X144635416Y-55610531D01*
X144683504Y-55636103D01*
X144750754Y-55680912D01*
X144812695Y-55733465D01*
X144868849Y-55793233D01*
X144918738Y-55859688D01*
X144961883Y-55932302D01*
X144997806Y-56010548D01*
X144998373Y-56011986D01*
X145006749Y-56035476D01*
X145015672Y-56063990D01*
X145024524Y-56095157D01*
X145032687Y-56126603D01*
X145039545Y-56155958D01*
X145044478Y-56180849D01*
X145046870Y-56198906D01*
X145048455Y-56222906D01*
X144929218Y-56243682D01*
X144907000Y-56247471D01*
X144873007Y-56252960D01*
X144841611Y-56257673D01*
X144814556Y-56261365D01*
X144793586Y-56263790D01*
X144780446Y-56264700D01*
X144751604Y-56263062D01*
X144717284Y-56254572D01*
X144688195Y-56238501D01*
X144663848Y-56214453D01*
X144643752Y-56182031D01*
X144627418Y-56140838D01*
X144613505Y-56103358D01*
X144586637Y-56050643D01*
X144553443Y-56003485D01*
X144514706Y-55962793D01*
X144471209Y-55929478D01*
X144423736Y-55904449D01*
X144375529Y-55887972D01*
X144319425Y-55876601D01*
X144261816Y-55872238D01*
X144204440Y-55874794D01*
X144149033Y-55884184D01*
X144097332Y-55900319D01*
X144051075Y-55923113D01*
X144025721Y-55940645D01*
X143988790Y-55975403D01*
X143957793Y-56017049D01*
X143933393Y-56064624D01*
X143916257Y-56117172D01*
X143909597Y-56153009D01*
X143905411Y-56206186D01*
X143906475Y-56263075D01*
X143912611Y-56321230D01*
X143923638Y-56378204D01*
X143939376Y-56431552D01*
X143940387Y-56434359D01*
X143953992Y-56467974D01*
X143971588Y-56505973D01*
X143991566Y-56545183D01*
X144012318Y-56582433D01*
X144032233Y-56614552D01*
X144034583Y-56618077D01*
X144046682Y-56635948D01*
X144058856Y-56653351D01*
X144071484Y-56670695D01*
X144084945Y-56688385D01*
X144099619Y-56706830D01*
X144115885Y-56726437D01*
X144134121Y-56747613D01*
X144154709Y-56770766D01*
X144178025Y-56796302D01*
X144204451Y-56824630D01*
X144234364Y-56856155D01*
X144268145Y-56891286D01*
X144306173Y-56930431D01*
X144348826Y-56973995D01*
X144396485Y-57022387D01*
X144449528Y-57076014D01*
X144508334Y-57135283D01*
X144573284Y-57200601D01*
X144644755Y-57272376D01*
X144653005Y-57280657D01*
X144713487Y-57341377D01*
X144767524Y-57395659D01*
X144815497Y-57443903D01*
X144857790Y-57486510D01*
X144894783Y-57523879D01*
X144926859Y-57556412D01*
X144954399Y-57584508D01*
X144977785Y-57608569D01*
X144997399Y-57628993D01*
X145013622Y-57646183D01*
X145026838Y-57660537D01*
X145037427Y-57672456D01*
X145045771Y-57682341D01*
X145052252Y-57690591D01*
X145057252Y-57697608D01*
X145061153Y-57703791D01*
X145064337Y-57709541D01*
X145067185Y-57715258D01*
X145075064Y-57732980D01*
X145082958Y-57755836D01*
X145088541Y-57780414D01*
X145092136Y-57808705D01*
X145094065Y-57842697D01*
X145094653Y-57884381D01*
X145094690Y-57953733D01*
X144266999Y-57953733D01*
X143439307Y-57953733D01*
X143440854Y-57811016D01*
X143442400Y-57668299D01*
X143457110Y-57639460D01*
X143458897Y-57636090D01*
X143479108Y-57608862D01*
X143505655Y-57587684D01*
X143536440Y-57574278D01*
X143541970Y-57573503D01*
X143557714Y-57572550D01*
X143582698Y-57571710D01*
X143616635Y-57570989D01*
X143659241Y-57570389D01*
X143710231Y-57569914D01*
X143769322Y-57569568D01*
X143836228Y-57569356D01*
X143910665Y-57569280D01*
X143925768Y-57569280D01*
X143996179Y-57569303D01*
X144057831Y-57569404D01*
X144111539Y-57569628D01*
X144158114Y-57570021D01*
X144198371Y-57570629D01*
X144233122Y-57571497D01*
X144263182Y-57572670D01*
X144289363Y-57574195D01*
X144312479Y-57576117D01*
X144333343Y-57578482D01*
X144352769Y-57581335D01*
X144371570Y-57584721D01*
X144390559Y-57588688D01*
X144410551Y-57593279D01*
X144432357Y-57598541D01*
X144434748Y-57599125D01*
X144457227Y-57604556D01*
X144475927Y-57608983D01*
X144488959Y-57611963D01*
X144494431Y-57613055D01*
X144494250Y-57612622D01*
X144489426Y-57607027D01*
X144478876Y-57595642D01*
X144463409Y-57579316D01*
X144443832Y-57558898D01*
X144420954Y-57535238D01*
X144395583Y-57509187D01*
X144388760Y-57502204D01*
X144363458Y-57476312D01*
X144332788Y-57444933D01*
X144297839Y-57409178D01*
X144259699Y-57370161D01*
X144219456Y-57328996D01*
X144178198Y-57286795D01*
X144137013Y-57244670D01*
X144096989Y-57203736D01*
X144043689Y-57149162D01*
X143989071Y-57093052D01*
X143940420Y-57042810D01*
X143897248Y-56997894D01*
X143859069Y-56957764D01*
X143825398Y-56921878D01*
X143795747Y-56889693D01*
X143769630Y-56860670D01*
X143746561Y-56834266D01*
X143726053Y-56809939D01*
X143707620Y-56787149D01*
X143690775Y-56765354D01*
X143675032Y-56744012D01*
X143659904Y-56722583D01*
X143644905Y-56700524D01*
X143608827Y-56643493D01*
X143564863Y-56562207D01*
X143530268Y-56481694D01*
X143504889Y-56401580D01*
X143488571Y-56321492D01*
X143486924Y-56308244D01*
X143484462Y-56275107D01*
X143483257Y-56236710D01*
X143483284Y-56196010D01*
X143484519Y-56155967D01*
X143486936Y-56119537D01*
X143490512Y-56089678D01*
X143501876Y-56033465D01*
X143525053Y-55957577D01*
X143556123Y-55886932D01*
X143594754Y-55821787D01*
X143640609Y-55762399D01*
X143693354Y-55709022D01*
X143752654Y-55661915D01*
X143818174Y-55621333D01*
X143889581Y-55587533D01*
X143966538Y-55560771D01*
X144048712Y-55541304D01*
X144135767Y-55529387D01*
X144227369Y-55525278D01*
X144313743Y-55528100D01*
G37*
G36*
X142975614Y-57136585D02*
G01*
X143011837Y-57228926D01*
X143046552Y-57317446D01*
X143079612Y-57401773D01*
X143110869Y-57481531D01*
X143140178Y-57556347D01*
X143167392Y-57625847D01*
X143192365Y-57689655D01*
X143214949Y-57747398D01*
X143234999Y-57798702D01*
X143252367Y-57843192D01*
X143266908Y-57880495D01*
X143278474Y-57910235D01*
X143286920Y-57932039D01*
X143292098Y-57945532D01*
X143293863Y-57950340D01*
X143293358Y-57950621D01*
X143285735Y-57951398D01*
X143269748Y-57952041D01*
X143246431Y-57952536D01*
X143216815Y-57952869D01*
X143181934Y-57953029D01*
X143142820Y-57953001D01*
X143100505Y-57952774D01*
X143065199Y-57952499D01*
X143022964Y-57952125D01*
X142988743Y-57951716D01*
X142961531Y-57951211D01*
X142940319Y-57950554D01*
X142924102Y-57949684D01*
X142911874Y-57948545D01*
X142902628Y-57947077D01*
X142895356Y-57945222D01*
X142889054Y-57942921D01*
X142882714Y-57940116D01*
X142867641Y-57931857D01*
X142843312Y-57913546D01*
X142821891Y-57891748D01*
X142806622Y-57869475D01*
X142805549Y-57867162D01*
X142800777Y-57855551D01*
X142793174Y-57836104D01*
X142783090Y-57809746D01*
X142770871Y-57777402D01*
X142756867Y-57739996D01*
X142741426Y-57698455D01*
X142724896Y-57653704D01*
X142707626Y-57606666D01*
X142618216Y-57362413D01*
X142121957Y-57361173D01*
X142079842Y-57361070D01*
X142004071Y-57360896D01*
X141937193Y-57360769D01*
X141878650Y-57360697D01*
X141827884Y-57360688D01*
X141784338Y-57360751D01*
X141747454Y-57360893D01*
X141716674Y-57361122D01*
X141691441Y-57361448D01*
X141671198Y-57361877D01*
X141655386Y-57362418D01*
X141643448Y-57363079D01*
X141634826Y-57363869D01*
X141628963Y-57364795D01*
X141625302Y-57365866D01*
X141623284Y-57367089D01*
X141622352Y-57368473D01*
X141621942Y-57369551D01*
X141618607Y-57378532D01*
X141612357Y-57395461D01*
X141603520Y-57419449D01*
X141592424Y-57449604D01*
X141579397Y-57485037D01*
X141564766Y-57524857D01*
X141548859Y-57568173D01*
X141532002Y-57614094D01*
X141526774Y-57628331D01*
X141509962Y-57673947D01*
X141494040Y-57716917D01*
X141479358Y-57756311D01*
X141466264Y-57791202D01*
X141455108Y-57820662D01*
X141446239Y-57843762D01*
X141440007Y-57859574D01*
X141436760Y-57867170D01*
X141426439Y-57884952D01*
X141403004Y-57912926D01*
X141374147Y-57933184D01*
X141338924Y-57946490D01*
X141329835Y-57948406D01*
X141317616Y-57950024D01*
X141301579Y-57951299D01*
X141280740Y-57952266D01*
X141254111Y-57952959D01*
X141220707Y-57953412D01*
X141179543Y-57953658D01*
X141129632Y-57953733D01*
X141125598Y-57953732D01*
X141084924Y-57953620D01*
X141047589Y-57953336D01*
X141014658Y-57952901D01*
X140987198Y-57952337D01*
X140966273Y-57951665D01*
X140952950Y-57950906D01*
X140948295Y-57950083D01*
X140949740Y-57946149D01*
X140954597Y-57933506D01*
X140962737Y-57912516D01*
X140974011Y-57883553D01*
X140988275Y-57846991D01*
X141005380Y-57803205D01*
X141025181Y-57752567D01*
X141047531Y-57695454D01*
X141072283Y-57632238D01*
X141099292Y-57563293D01*
X141128409Y-57488995D01*
X141159489Y-57409717D01*
X141192386Y-57325833D01*
X141226952Y-57237717D01*
X141263041Y-57145744D01*
X141300507Y-57050288D01*
X141305507Y-57037552D01*
X141742708Y-57037552D01*
X141743396Y-57038449D01*
X141747731Y-57039493D01*
X141756452Y-57040396D01*
X141770093Y-57041168D01*
X141789189Y-57041816D01*
X141814276Y-57042351D01*
X141845887Y-57042779D01*
X141884558Y-57043110D01*
X141930824Y-57043353D01*
X141985218Y-57043515D01*
X142048277Y-57043607D01*
X142120534Y-57043635D01*
X142136861Y-57043634D01*
X142196032Y-57043604D01*
X142252104Y-57043537D01*
X142304340Y-57043436D01*
X142352003Y-57043305D01*
X142394357Y-57043146D01*
X142430663Y-57042963D01*
X142460184Y-57042759D01*
X142482184Y-57042536D01*
X142495924Y-57042298D01*
X142500668Y-57042049D01*
X142500646Y-57041963D01*
X142498636Y-57036271D01*
X142493524Y-57022160D01*
X142485546Y-57000273D01*
X142474936Y-56971252D01*
X142461931Y-56935738D01*
X142446765Y-56894374D01*
X142429675Y-56847803D01*
X142410895Y-56796666D01*
X142390662Y-56741606D01*
X142369210Y-56683265D01*
X142346775Y-56622284D01*
X142339205Y-56601715D01*
X142312690Y-56529657D01*
X142289241Y-56465890D01*
X142268621Y-56409748D01*
X142250596Y-56360564D01*
X142234932Y-56317670D01*
X142221393Y-56280400D01*
X142209746Y-56248087D01*
X142199755Y-56220064D01*
X142191185Y-56195665D01*
X142183802Y-56174222D01*
X142177371Y-56155069D01*
X142171657Y-56137540D01*
X142166426Y-56120966D01*
X142161443Y-56104681D01*
X142156473Y-56088020D01*
X142151281Y-56070313D01*
X142145632Y-56050896D01*
X142122329Y-55970688D01*
X142109257Y-56014395D01*
X142108929Y-56015493D01*
X142103229Y-56034339D01*
X142097377Y-56053230D01*
X142091144Y-56072814D01*
X142084300Y-56093742D01*
X142076618Y-56116663D01*
X142067866Y-56142225D01*
X142057817Y-56171079D01*
X142046241Y-56203874D01*
X142032909Y-56241258D01*
X142017592Y-56283883D01*
X142000061Y-56332395D01*
X141980086Y-56387446D01*
X141957439Y-56449684D01*
X141931891Y-56519759D01*
X141903211Y-56598320D01*
X141896490Y-56616723D01*
X141874008Y-56678275D01*
X141852525Y-56737089D01*
X141832273Y-56792526D01*
X141813488Y-56843945D01*
X141796403Y-56890704D01*
X141781253Y-56932164D01*
X141768270Y-56967684D01*
X141757691Y-56996624D01*
X141749748Y-57018342D01*
X141744675Y-57032198D01*
X141742708Y-57037552D01*
X141305507Y-57037552D01*
X141339202Y-56951722D01*
X141378981Y-56850421D01*
X141419697Y-56746758D01*
X141890951Y-55547084D01*
X142121178Y-55547084D01*
X142351406Y-55547084D01*
X142822585Y-56746758D01*
X142859355Y-56840389D01*
X142899226Y-56941943D01*
X142938028Y-57040800D01*
X142938518Y-57042049D01*
X142975614Y-57136585D01*
G37*
G36*
X147107462Y-53689943D02*
G01*
X147134598Y-53690521D01*
X147159667Y-53691544D01*
X147181012Y-53693007D01*
X147196982Y-53694902D01*
X147205920Y-53697225D01*
X147210307Y-53699539D01*
X147215388Y-53702582D01*
X147220099Y-53706308D01*
X147224655Y-53711335D01*
X147229272Y-53718284D01*
X147234167Y-53727775D01*
X147239556Y-53740429D01*
X147245655Y-53756866D01*
X147252679Y-53777705D01*
X147260847Y-53803568D01*
X147270373Y-53835073D01*
X147281473Y-53872842D01*
X147294364Y-53917495D01*
X147309263Y-53969652D01*
X147326384Y-54029932D01*
X147345945Y-54098957D01*
X147349290Y-54110770D01*
X147366042Y-54170134D01*
X147382191Y-54227684D01*
X147397506Y-54282581D01*
X147411757Y-54333986D01*
X147424715Y-54381061D01*
X147436150Y-54422969D01*
X147445831Y-54458871D01*
X147453529Y-54487928D01*
X147459014Y-54509303D01*
X147462055Y-54522156D01*
X147472823Y-54573532D01*
X147481277Y-54539557D01*
X147483381Y-54531809D01*
X147488663Y-54513911D01*
X147496387Y-54488687D01*
X147506284Y-54456969D01*
X147518083Y-54419584D01*
X147531514Y-54377364D01*
X147546307Y-54331137D01*
X147562191Y-54281735D01*
X147578897Y-54229986D01*
X147596153Y-54176721D01*
X147613689Y-54122769D01*
X147631236Y-54068960D01*
X147648523Y-54016125D01*
X147665279Y-53965093D01*
X147681235Y-53916693D01*
X147696119Y-53871756D01*
X147709662Y-53831112D01*
X147721594Y-53795590D01*
X147731643Y-53766020D01*
X147739541Y-53743233D01*
X147745015Y-53728057D01*
X147747797Y-53721323D01*
X147751251Y-53716037D01*
X147761104Y-53705461D01*
X147774084Y-53698111D01*
X147791824Y-53693485D01*
X147815958Y-53691078D01*
X147848116Y-53690387D01*
X147855379Y-53690396D01*
X147878602Y-53690681D01*
X147894785Y-53691603D01*
X147906074Y-53693478D01*
X147914614Y-53696623D01*
X147922553Y-53701354D01*
X147924213Y-53702517D01*
X147937315Y-53714234D01*
X147947193Y-53726905D01*
X147948794Y-53730544D01*
X147953533Y-53743263D01*
X147960787Y-53763868D01*
X147970282Y-53791523D01*
X147981745Y-53825389D01*
X147994903Y-53864627D01*
X148009480Y-53908398D01*
X148025203Y-53955866D01*
X148041799Y-54006190D01*
X148058994Y-54058533D01*
X148076514Y-54112056D01*
X148094085Y-54165921D01*
X148111433Y-54219290D01*
X148128285Y-54271323D01*
X148144366Y-54321184D01*
X148159404Y-54368032D01*
X148173123Y-54411031D01*
X148185252Y-54449341D01*
X148195514Y-54482123D01*
X148203638Y-54508541D01*
X148209348Y-54527755D01*
X148212372Y-54538926D01*
X148221209Y-54577138D01*
X148231861Y-54526759D01*
X148232574Y-54523525D01*
X148236564Y-54507143D01*
X148242762Y-54483216D01*
X148250928Y-54452589D01*
X148260822Y-54416109D01*
X148272204Y-54374623D01*
X148284834Y-54328977D01*
X148298470Y-54280017D01*
X148312874Y-54228589D01*
X148327805Y-54175541D01*
X148343023Y-54121717D01*
X148358287Y-54067965D01*
X148373358Y-54015131D01*
X148387995Y-53964061D01*
X148401958Y-53915601D01*
X148415006Y-53870599D01*
X148426901Y-53829899D01*
X148437401Y-53794350D01*
X148446266Y-53764796D01*
X148453256Y-53742084D01*
X148458132Y-53727061D01*
X148460652Y-53720573D01*
X148461140Y-53719852D01*
X148470842Y-53709459D01*
X148483487Y-53699907D01*
X148485629Y-53698652D01*
X148491664Y-53695841D01*
X148499218Y-53693750D01*
X148509659Y-53692272D01*
X148524357Y-53691303D01*
X148544681Y-53690739D01*
X148572000Y-53690475D01*
X148607683Y-53690406D01*
X148630942Y-53690435D01*
X148661446Y-53690652D01*
X148683927Y-53691138D01*
X148699441Y-53691957D01*
X148709045Y-53693176D01*
X148713797Y-53694861D01*
X148714754Y-53697077D01*
X148714707Y-53697253D01*
X148712744Y-53703762D01*
X148708083Y-53718937D01*
X148700897Y-53742220D01*
X148691358Y-53773053D01*
X148679641Y-53810876D01*
X148665918Y-53855132D01*
X148650363Y-53905262D01*
X148633149Y-53960707D01*
X148614450Y-54020911D01*
X148594437Y-54085313D01*
X148573286Y-54153356D01*
X148551168Y-54224481D01*
X148528258Y-54298131D01*
X148343337Y-54892495D01*
X148239898Y-54892495D01*
X148228686Y-54892482D01*
X148199253Y-54892319D01*
X148173901Y-54891991D01*
X148154043Y-54891528D01*
X148141092Y-54890960D01*
X148136460Y-54890316D01*
X148135936Y-54888522D01*
X148132759Y-54878525D01*
X148126897Y-54860371D01*
X148118573Y-54834741D01*
X148108010Y-54802321D01*
X148095432Y-54763793D01*
X148081061Y-54719842D01*
X148065122Y-54671151D01*
X148047836Y-54618405D01*
X148029429Y-54562285D01*
X148010123Y-54503477D01*
X148001281Y-54476553D01*
X147981738Y-54417013D01*
X147962879Y-54359514D01*
X147944964Y-54304857D01*
X147928256Y-54253843D01*
X147913017Y-54207271D01*
X147899509Y-54165944D01*
X147887993Y-54130661D01*
X147878731Y-54102222D01*
X147871986Y-54081429D01*
X147868019Y-54069083D01*
X147863986Y-54056409D01*
X147858293Y-54039183D01*
X147854499Y-54029613D01*
X147851956Y-54026631D01*
X147850015Y-54029169D01*
X147848029Y-54036157D01*
X147847742Y-54037202D01*
X147844834Y-54046745D01*
X147839215Y-54064606D01*
X147831122Y-54090043D01*
X147820794Y-54122314D01*
X147808469Y-54160680D01*
X147794386Y-54204398D01*
X147778783Y-54252729D01*
X147761897Y-54304930D01*
X147743969Y-54360260D01*
X147725235Y-54417979D01*
X147722449Y-54426555D01*
X147703380Y-54485267D01*
X147684853Y-54542321D01*
X147667143Y-54596873D01*
X147650523Y-54648078D01*
X147635267Y-54695092D01*
X147621650Y-54737071D01*
X147609945Y-54773170D01*
X147600426Y-54802544D01*
X147593367Y-54824350D01*
X147589043Y-54837743D01*
X147571420Y-54892495D01*
X147468244Y-54892439D01*
X147365067Y-54892382D01*
X147180553Y-54297468D01*
X147177560Y-54287816D01*
X147154796Y-54214429D01*
X147132835Y-54143646D01*
X147111853Y-54076027D01*
X147092020Y-54012127D01*
X147073511Y-53952506D01*
X147056499Y-53897721D01*
X147041157Y-53848330D01*
X147027658Y-53804889D01*
X147016176Y-53767957D01*
X147006884Y-53738092D01*
X146999954Y-53715851D01*
X146995560Y-53701791D01*
X146993876Y-53696471D01*
X146993840Y-53696154D01*
X146998650Y-53693937D01*
X147011316Y-53692201D01*
X147030184Y-53690939D01*
X147053601Y-53690147D01*
X147079911Y-53689817D01*
X147107462Y-53689943D01*
G37*
G36*
X148121720Y-55521759D02*
G01*
X148210576Y-55531634D01*
X148296795Y-55549013D01*
X148379017Y-55573741D01*
X148455880Y-55605664D01*
X148509712Y-55634605D01*
X148576697Y-55680122D01*
X148638221Y-55733308D01*
X148693845Y-55793675D01*
X148743131Y-55860732D01*
X148785640Y-55933990D01*
X148820932Y-56012960D01*
X148825192Y-56024481D01*
X148833634Y-56049902D01*
X148841940Y-56077899D01*
X148849774Y-56106984D01*
X148856798Y-56135673D01*
X148862678Y-56162478D01*
X148867077Y-56185914D01*
X148869658Y-56204493D01*
X148870086Y-56216731D01*
X148868025Y-56221140D01*
X148865666Y-56221434D01*
X148854859Y-56223169D01*
X148836692Y-56226253D01*
X148812560Y-56230445D01*
X148783858Y-56235503D01*
X148751981Y-56241188D01*
X148709287Y-56248596D01*
X148667383Y-56255101D01*
X148632771Y-56259358D01*
X148604289Y-56261404D01*
X148580774Y-56261274D01*
X148561063Y-56259006D01*
X148543993Y-56254636D01*
X148528401Y-56248200D01*
X148513040Y-56239408D01*
X148494741Y-56223996D01*
X148478881Y-56203441D01*
X148464353Y-56176228D01*
X148450049Y-56140838D01*
X148426259Y-56084232D01*
X148397103Y-56032760D01*
X148362968Y-55988548D01*
X148323140Y-55950678D01*
X148276908Y-55918236D01*
X148263685Y-55910753D01*
X148217063Y-55890767D01*
X148165186Y-55876848D01*
X148109993Y-55869185D01*
X148053423Y-55867969D01*
X147997418Y-55873389D01*
X147943917Y-55885636D01*
X147894074Y-55905396D01*
X147849277Y-55932936D01*
X147810972Y-55967510D01*
X147779546Y-56008696D01*
X147755390Y-56056068D01*
X147738892Y-56109203D01*
X147737551Y-56115698D01*
X147733247Y-56147260D01*
X147730961Y-56184021D01*
X147730659Y-56223032D01*
X147732308Y-56261339D01*
X147735875Y-56295993D01*
X147741326Y-56324042D01*
X147744924Y-56336561D01*
X147763031Y-56382868D01*
X147787438Y-56423699D01*
X147818472Y-56459247D01*
X147856457Y-56489703D01*
X147901717Y-56515259D01*
X147954578Y-56536106D01*
X148015364Y-56552437D01*
X148084400Y-56564442D01*
X148162011Y-56572314D01*
X148243531Y-56578149D01*
X148243531Y-56722458D01*
X148243531Y-56866768D01*
X148149844Y-56872323D01*
X148101274Y-56875637D01*
X148055534Y-56879946D01*
X148015761Y-56885267D01*
X147979989Y-56891917D01*
X147946252Y-56900211D01*
X147912586Y-56910465D01*
X147874320Y-56924439D01*
X147833791Y-56943424D01*
X147799850Y-56964972D01*
X147770769Y-56990055D01*
X147751537Y-57011369D01*
X147733321Y-57037904D01*
X147718997Y-57067813D01*
X147707970Y-57102655D01*
X147699648Y-57143991D01*
X147693437Y-57193381D01*
X147691782Y-57213399D01*
X147691288Y-57266690D01*
X147697312Y-57316874D01*
X147710172Y-57367280D01*
X147711188Y-57370438D01*
X147726263Y-57409233D01*
X147745530Y-57444336D01*
X147770578Y-57478245D01*
X147802995Y-57513464D01*
X147807594Y-57518047D01*
X147829434Y-57538738D01*
X147848621Y-57554471D01*
X147868066Y-57567453D01*
X147890685Y-57579892D01*
X147899010Y-57584066D01*
X147960552Y-57609242D01*
X148023409Y-57624923D01*
X148088285Y-57631235D01*
X148155882Y-57628307D01*
X148184549Y-57624757D01*
X148216144Y-57619088D01*
X148244014Y-57611365D01*
X148271568Y-57600598D01*
X148302214Y-57585797D01*
X148323130Y-57574434D01*
X148355306Y-57553936D01*
X148384788Y-57530642D01*
X148412531Y-57503477D01*
X148439489Y-57471365D01*
X148466617Y-57433231D01*
X148494870Y-57387999D01*
X148525202Y-57334594D01*
X148527609Y-57330271D01*
X148548930Y-57298168D01*
X148572261Y-57274806D01*
X148599073Y-57259302D01*
X148630838Y-57250774D01*
X148669029Y-57248340D01*
X148676811Y-57248446D01*
X148691306Y-57249101D01*
X148705043Y-57250699D01*
X148719403Y-57253667D01*
X148735765Y-57258432D01*
X148755510Y-57265421D01*
X148780019Y-57275063D01*
X148810670Y-57287784D01*
X148848845Y-57304011D01*
X148869987Y-57313063D01*
X148895388Y-57324081D01*
X148913677Y-57332384D01*
X148925968Y-57338625D01*
X148933376Y-57343462D01*
X148937015Y-57347548D01*
X148938000Y-57351538D01*
X148937444Y-57356088D01*
X148936605Y-57359975D01*
X148931073Y-57378820D01*
X148922125Y-57404062D01*
X148910485Y-57433893D01*
X148896877Y-57466507D01*
X148882026Y-57500096D01*
X148866654Y-57532851D01*
X148847243Y-57570977D01*
X148801626Y-57647669D01*
X148751158Y-57715982D01*
X148695616Y-57776072D01*
X148634775Y-57828097D01*
X148568413Y-57872216D01*
X148496307Y-57908585D01*
X148418232Y-57937362D01*
X148333965Y-57958706D01*
X148243284Y-57972773D01*
X148232728Y-57973759D01*
X148204770Y-57975305D01*
X148170788Y-57976154D01*
X148132750Y-57976347D01*
X148092626Y-57975927D01*
X148052384Y-57974935D01*
X148013994Y-57973414D01*
X147979424Y-57971405D01*
X147950643Y-57968950D01*
X147929620Y-57966091D01*
X147917889Y-57963878D01*
X147846868Y-57948216D01*
X147782574Y-57929665D01*
X147722583Y-57907446D01*
X147664469Y-57880776D01*
X147660976Y-57879009D01*
X147588703Y-57837033D01*
X147523139Y-57788299D01*
X147464614Y-57733246D01*
X147413456Y-57672316D01*
X147369994Y-57605948D01*
X147334558Y-57534581D01*
X147307476Y-57458657D01*
X147289077Y-57378615D01*
X147288395Y-57374577D01*
X147284895Y-57351951D01*
X147282469Y-57331265D01*
X147281000Y-57310186D01*
X147280369Y-57286383D01*
X147280461Y-57257524D01*
X147281157Y-57221275D01*
X147281432Y-57210005D01*
X147282452Y-57176945D01*
X147283744Y-57150984D01*
X147285516Y-57130083D01*
X147287973Y-57112202D01*
X147291324Y-57095302D01*
X147295776Y-57077344D01*
X147299471Y-57063907D01*
X147322445Y-56997708D01*
X147351785Y-56938369D01*
X147388074Y-56885013D01*
X147431893Y-56836760D01*
X147483821Y-56792731D01*
X147504086Y-56778426D01*
X147541422Y-56755198D01*
X147582354Y-56732726D01*
X147623312Y-56712927D01*
X147660727Y-56697716D01*
X147662457Y-56697095D01*
X147678202Y-56690977D01*
X147689348Y-56685824D01*
X147693579Y-56682694D01*
X147693191Y-56681890D01*
X147686892Y-56677999D01*
X147675328Y-56673552D01*
X147673489Y-56672947D01*
X147653701Y-56665117D01*
X147628656Y-56653543D01*
X147600976Y-56639589D01*
X147573283Y-56624619D01*
X147548201Y-56609998D01*
X147528353Y-56597090D01*
X147481456Y-56558982D01*
X147436886Y-56510986D01*
X147399605Y-56456743D01*
X147369777Y-56396534D01*
X147347563Y-56330640D01*
X147333127Y-56259344D01*
X147332328Y-56253331D01*
X147329276Y-56219498D01*
X147327651Y-56180645D01*
X147327430Y-56139705D01*
X147328588Y-56099610D01*
X147331102Y-56063295D01*
X147334949Y-56033692D01*
X147337219Y-56021687D01*
X147356296Y-55950319D01*
X147383948Y-55882852D01*
X147419698Y-55819739D01*
X147463069Y-55761434D01*
X147513584Y-55708390D01*
X147570766Y-55661061D01*
X147634137Y-55619900D01*
X147703221Y-55585360D01*
X147777540Y-55557896D01*
X147856617Y-55537960D01*
X147941546Y-55525133D01*
X148031590Y-55519541D01*
X148121720Y-55521759D01*
G37*
G36*
X151603542Y-55530060D02*
G01*
X151642963Y-55530207D01*
X151674441Y-55530664D01*
X151699194Y-55531600D01*
X151718439Y-55533183D01*
X151733395Y-55535581D01*
X151745280Y-55538962D01*
X151755312Y-55543496D01*
X151764708Y-55549351D01*
X151774688Y-55556694D01*
X151775954Y-55557693D01*
X151788401Y-55570462D01*
X151797667Y-55584527D01*
X151798080Y-55585563D01*
X151801127Y-55594941D01*
X151806583Y-55612892D01*
X151814269Y-55638802D01*
X151824008Y-55672056D01*
X151835623Y-55712039D01*
X151848936Y-55758136D01*
X151863771Y-55809732D01*
X151879949Y-55866212D01*
X151897293Y-55926961D01*
X151915627Y-55991364D01*
X151934773Y-56058805D01*
X151954553Y-56128671D01*
X151962001Y-56155025D01*
X151988855Y-56250234D01*
X152013107Y-56336566D01*
X152034855Y-56414388D01*
X152054199Y-56484070D01*
X152071235Y-56545983D01*
X152086063Y-56600494D01*
X152098780Y-56647975D01*
X152109486Y-56688793D01*
X152118277Y-56723319D01*
X152125253Y-56751921D01*
X152130511Y-56774970D01*
X152134151Y-56792835D01*
X152136269Y-56805884D01*
X152136965Y-56814489D01*
X152136969Y-56815221D01*
X152137579Y-56822764D01*
X152139362Y-56822847D01*
X152142529Y-56814955D01*
X152147292Y-56798573D01*
X152153862Y-56773184D01*
X152155897Y-56765843D01*
X152161078Y-56748472D01*
X152168916Y-56722941D01*
X152179213Y-56689872D01*
X152191770Y-56649890D01*
X152206389Y-56603619D01*
X152222873Y-56551684D01*
X152241022Y-56494709D01*
X152260638Y-56433317D01*
X152281524Y-56368133D01*
X152303481Y-56299782D01*
X152326311Y-56228887D01*
X152349816Y-56156072D01*
X152350988Y-56152444D01*
X152378230Y-56068181D01*
X152402668Y-55992663D01*
X152424473Y-55925391D01*
X152443816Y-55865867D01*
X152460868Y-55813590D01*
X152475800Y-55768062D01*
X152488785Y-55728783D01*
X152499992Y-55695253D01*
X152509593Y-55666974D01*
X152517760Y-55643446D01*
X152524663Y-55624170D01*
X152530474Y-55608646D01*
X152535363Y-55596375D01*
X152539503Y-55586857D01*
X152543063Y-55579594D01*
X152546216Y-55574086D01*
X152549132Y-55569833D01*
X152551984Y-55566337D01*
X152552666Y-55565561D01*
X152564470Y-55553358D01*
X152576476Y-55544228D01*
X152590268Y-55537778D01*
X152607430Y-55533616D01*
X152629546Y-55531350D01*
X152658201Y-55530587D01*
X152694978Y-55530936D01*
X152724486Y-55531537D01*
X152746957Y-55532250D01*
X152763061Y-55533305D01*
X152774510Y-55534951D01*
X152783010Y-55537434D01*
X152790272Y-55541004D01*
X152798005Y-55545909D01*
X152803112Y-55549587D01*
X152818521Y-55563471D01*
X152830646Y-55578036D01*
X152832195Y-55581106D01*
X152837233Y-55593681D01*
X152845062Y-55615028D01*
X152855572Y-55644824D01*
X152868655Y-55682746D01*
X152884201Y-55728472D01*
X152902102Y-55781678D01*
X152922250Y-55842043D01*
X152944534Y-55909243D01*
X152968847Y-55982957D01*
X152995079Y-56062860D01*
X153023122Y-56148630D01*
X153036480Y-56189586D01*
X153065453Y-56278582D01*
X153091549Y-56359016D01*
X153114915Y-56431356D01*
X153135694Y-56496072D01*
X153154033Y-56553633D01*
X153170077Y-56604508D01*
X153183971Y-56649165D01*
X153195860Y-56688073D01*
X153205890Y-56721702D01*
X153214205Y-56750520D01*
X153220951Y-56774996D01*
X153226273Y-56795599D01*
X153230316Y-56812797D01*
X153233225Y-56827061D01*
X153234140Y-56827864D01*
X153236540Y-56821941D01*
X153239824Y-56808998D01*
X153243559Y-56790560D01*
X153245352Y-56780973D01*
X153247670Y-56769069D01*
X153250194Y-56756843D01*
X153253077Y-56743731D01*
X153256472Y-56729167D01*
X153260532Y-56712586D01*
X153265411Y-56693424D01*
X153271260Y-56671114D01*
X153278235Y-56645092D01*
X153286486Y-56614792D01*
X153296168Y-56579649D01*
X153307434Y-56539098D01*
X153320436Y-56492574D01*
X153335327Y-56439512D01*
X153352261Y-56379345D01*
X153371391Y-56311510D01*
X153392870Y-56235440D01*
X153416850Y-56150571D01*
X153437366Y-56077963D01*
X153459173Y-56000760D01*
X153478599Y-55931994D01*
X153495794Y-55871162D01*
X153510911Y-55817765D01*
X153524101Y-55771301D01*
X153535514Y-55731269D01*
X153545303Y-55697169D01*
X153553618Y-55668499D01*
X153560612Y-55644758D01*
X153566435Y-55625447D01*
X153571239Y-55610062D01*
X153575175Y-55598104D01*
X153578395Y-55589072D01*
X153581050Y-55582465D01*
X153583291Y-55577782D01*
X153585270Y-55574521D01*
X153587138Y-55572182D01*
X153589046Y-55570265D01*
X153591147Y-55568267D01*
X153593590Y-55565689D01*
X153595149Y-55563919D01*
X153603398Y-55555017D01*
X153611497Y-55547840D01*
X153620545Y-55542202D01*
X153631638Y-55537917D01*
X153645876Y-55534798D01*
X153664357Y-55532658D01*
X153688179Y-55531310D01*
X153718439Y-55530569D01*
X153756237Y-55530247D01*
X153802670Y-55530157D01*
X153823616Y-55530167D01*
X153859613Y-55530301D01*
X153891658Y-55530572D01*
X153918595Y-55530961D01*
X153939267Y-55531448D01*
X153952518Y-55532016D01*
X153957192Y-55532646D01*
X153956935Y-55533561D01*
X153954351Y-55542095D01*
X153949129Y-55559137D01*
X153941442Y-55584134D01*
X153931460Y-55616532D01*
X153919356Y-55655777D01*
X153905299Y-55701314D01*
X153889462Y-55752591D01*
X153872017Y-55809052D01*
X153853134Y-55870146D01*
X153832986Y-55935317D01*
X153811743Y-56004011D01*
X153789577Y-56075676D01*
X153766660Y-56149757D01*
X153743162Y-56225700D01*
X153719256Y-56302951D01*
X153695112Y-56380957D01*
X153670903Y-56459163D01*
X153646799Y-56537017D01*
X153622973Y-56613963D01*
X153599595Y-56689449D01*
X153576837Y-56762920D01*
X153554870Y-56833822D01*
X153533866Y-56901602D01*
X153513997Y-56965706D01*
X153495433Y-57025580D01*
X153478346Y-57080671D01*
X153462908Y-57130423D01*
X153449290Y-57174284D01*
X153437664Y-57211699D01*
X153428200Y-57242116D01*
X153421071Y-57264979D01*
X153416448Y-57279735D01*
X153414501Y-57285831D01*
X153414274Y-57286242D01*
X153410764Y-57287947D01*
X153402619Y-57289250D01*
X153388987Y-57290179D01*
X153369022Y-57290761D01*
X153341873Y-57291024D01*
X153306691Y-57290993D01*
X153262628Y-57290697D01*
X153112898Y-57289410D01*
X152919828Y-56700524D01*
X152895706Y-56626908D01*
X152872116Y-56554834D01*
X152849385Y-56485308D01*
X152827712Y-56418940D01*
X152807296Y-56356338D01*
X152788333Y-56298112D01*
X152771022Y-56244871D01*
X152755562Y-56197224D01*
X152742149Y-56155779D01*
X152730982Y-56121145D01*
X152722259Y-56093932D01*
X152716178Y-56074749D01*
X152712937Y-56064203D01*
X152708700Y-56050086D01*
X152703130Y-56032889D01*
X152698796Y-56021119D01*
X152696386Y-56016752D01*
X152694962Y-56018409D01*
X152691493Y-56027076D01*
X152687519Y-56040680D01*
X152687145Y-56042021D01*
X152684026Y-56052247D01*
X152678138Y-56070989D01*
X152669663Y-56097680D01*
X152658784Y-56131753D01*
X152645683Y-56172642D01*
X152630543Y-56219777D01*
X152613547Y-56272594D01*
X152594876Y-56330523D01*
X152574713Y-56392999D01*
X152553241Y-56459453D01*
X152530642Y-56529320D01*
X152507099Y-56602030D01*
X152482794Y-56677018D01*
X152284207Y-57289410D01*
X152134001Y-57289410D01*
X151983795Y-57289410D01*
X151715064Y-56423114D01*
X151691905Y-56348443D01*
X151664853Y-56261186D01*
X151638674Y-56176711D01*
X151613514Y-56095484D01*
X151589515Y-56017970D01*
X151566822Y-55944634D01*
X151545578Y-55875942D01*
X151525926Y-55812359D01*
X151508011Y-55754349D01*
X151491976Y-55702379D01*
X151477965Y-55656913D01*
X151466122Y-55618417D01*
X151456590Y-55587356D01*
X151449513Y-55564195D01*
X151445035Y-55549399D01*
X151443300Y-55543434D01*
X151440266Y-55530050D01*
X151581947Y-55530050D01*
X151603542Y-55530060D01*
G37*
G36*
X150566800Y-62930614D02*
G01*
X150566800Y-63544234D01*
X150462919Y-63544234D01*
X150359039Y-63544234D01*
X150359039Y-62930614D01*
X150359039Y-62316994D01*
X150462919Y-62316994D01*
X150566800Y-62316994D01*
X150566800Y-62930614D01*
G37*
G36*
X153818502Y-62947525D02*
G01*
X153818502Y-63544234D01*
X153441634Y-63544234D01*
X153064765Y-63544234D01*
X153064765Y-63454848D01*
X153064765Y-63365463D01*
X153328090Y-63365463D01*
X153591415Y-63365463D01*
X153591415Y-63196355D01*
X153591415Y-63027247D01*
X153383654Y-63027247D01*
X153175893Y-63027247D01*
X153175893Y-62942693D01*
X153175893Y-62858139D01*
X153383654Y-62858139D01*
X153591415Y-62858139D01*
X153591415Y-62693863D01*
X153591415Y-62529587D01*
X153328090Y-62529587D01*
X153064765Y-62529587D01*
X153064765Y-62440201D01*
X153064765Y-62350816D01*
X153441634Y-62350816D01*
X153818502Y-62350816D01*
X153818502Y-62947525D01*
G37*
G36*
X145128392Y-62681054D02*
G01*
X145164041Y-62688405D01*
X145174603Y-62691930D01*
X145215401Y-62711546D01*
X145254552Y-62739812D01*
X145291078Y-62775929D01*
X145323999Y-62819098D01*
X145341367Y-62845284D01*
X145347236Y-62794940D01*
X145347509Y-62792609D01*
X145350786Y-62765713D01*
X145353618Y-62746496D01*
X145356497Y-62733154D01*
X145359914Y-62723886D01*
X145364362Y-62716888D01*
X145370334Y-62710358D01*
X145373865Y-62706995D01*
X145378746Y-62703581D01*
X145385238Y-62701261D01*
X145394951Y-62699822D01*
X145409496Y-62699055D01*
X145430483Y-62698750D01*
X145459523Y-62698695D01*
X145537049Y-62698695D01*
X145537049Y-63121464D01*
X145537049Y-63544234D01*
X145433169Y-63544234D01*
X145329288Y-63544234D01*
X145329288Y-63279417D01*
X145329288Y-63014599D01*
X145312089Y-62985894D01*
X145284556Y-62946999D01*
X145253517Y-62916800D01*
X145218941Y-62895546D01*
X145180582Y-62883123D01*
X145138192Y-62879416D01*
X145091525Y-62884314D01*
X145089629Y-62884666D01*
X145063888Y-62888575D01*
X145045659Y-62888936D01*
X145033393Y-62885316D01*
X145025541Y-62877279D01*
X145020556Y-62864391D01*
X145020141Y-62862744D01*
X145017241Y-62849547D01*
X145013281Y-62829707D01*
X145008726Y-62805620D01*
X145004045Y-62779683D01*
X145002407Y-62770247D01*
X144998188Y-62743649D01*
X144996064Y-62725216D01*
X144995948Y-62713987D01*
X144997755Y-62709001D01*
X144998560Y-62708366D01*
X145024416Y-62693611D01*
X145056236Y-62683947D01*
X145091675Y-62679664D01*
X145128392Y-62681054D01*
G37*
G36*
X146725711Y-62327888D02*
G01*
X146757903Y-62330079D01*
X146784508Y-62333920D01*
X146820088Y-62343864D01*
X146861541Y-62361655D01*
X146899666Y-62384507D01*
X146931384Y-62410808D01*
X146959384Y-62443838D01*
X146984102Y-62486418D01*
X147001632Y-62534913D01*
X147012076Y-62589612D01*
X147015535Y-62650803D01*
X147015535Y-62703526D01*
X147078346Y-62703526D01*
X147141158Y-62703526D01*
X147141158Y-62758015D01*
X147140837Y-62780852D01*
X147138731Y-62804674D01*
X147133509Y-62821883D01*
X147123868Y-62833935D01*
X147108503Y-62842287D01*
X147086107Y-62848394D01*
X147055376Y-62853712D01*
X147015535Y-62859811D01*
X147015535Y-63202119D01*
X147015535Y-63544426D01*
X146912862Y-63543122D01*
X146810190Y-63541818D01*
X146808950Y-63195147D01*
X146807710Y-62848476D01*
X146701446Y-62848476D01*
X146595181Y-62848476D01*
X146595181Y-62776001D01*
X146595181Y-62703526D01*
X146707020Y-62703526D01*
X146818859Y-62703526D01*
X146816184Y-62646754D01*
X146815143Y-62629591D01*
X146810628Y-62592289D01*
X146803113Y-62562635D01*
X146792224Y-62539417D01*
X146777588Y-62521424D01*
X146764448Y-62510122D01*
X146748651Y-62500301D01*
X146730275Y-62493465D01*
X146706963Y-62488774D01*
X146676356Y-62485390D01*
X146659329Y-62483750D01*
X146638161Y-62481203D01*
X146621452Y-62478607D01*
X146611792Y-62476324D01*
X146610396Y-62475758D01*
X146601957Y-62469930D01*
X146596175Y-62460062D01*
X146592713Y-62444769D01*
X146591235Y-62422669D01*
X146591406Y-62392379D01*
X146592765Y-62338736D01*
X146619339Y-62333163D01*
X146629600Y-62331362D01*
X146658160Y-62328514D01*
X146691330Y-62327361D01*
X146725711Y-62327888D01*
G37*
G36*
X142567339Y-63105326D02*
G01*
X142556031Y-63164127D01*
X142554392Y-63172576D01*
X142549638Y-63195457D01*
X142545468Y-63211457D01*
X142541143Y-63222621D01*
X142535921Y-63230997D01*
X142529062Y-63238632D01*
X142513401Y-63254335D01*
X142249592Y-63254335D01*
X141985784Y-63254335D01*
X141985784Y-63401700D01*
X141985784Y-63549066D01*
X141896399Y-63549066D01*
X141807013Y-63549066D01*
X141807013Y-63401700D01*
X141807013Y-63254335D01*
X141743305Y-63254335D01*
X141722473Y-63254320D01*
X141697783Y-63253651D01*
X141680266Y-63251058D01*
X141668693Y-63245253D01*
X141661834Y-63234944D01*
X141658457Y-63218843D01*
X141657333Y-63195661D01*
X141657232Y-63164107D01*
X141657232Y-63094890D01*
X141732122Y-63094890D01*
X141807013Y-63094890D01*
X141807013Y-62722853D01*
X141807013Y-62599274D01*
X141983462Y-62599274D01*
X141983489Y-62606985D01*
X141983568Y-62623166D01*
X141983695Y-62646909D01*
X141983864Y-62677305D01*
X141984069Y-62713447D01*
X141984307Y-62754427D01*
X141984572Y-62799337D01*
X141984858Y-62847268D01*
X141986348Y-63094890D01*
X142165103Y-63094890D01*
X142343858Y-63094890D01*
X142325474Y-63069222D01*
X142318831Y-63059977D01*
X142305807Y-63041925D01*
X142288985Y-63018666D01*
X142268958Y-62991016D01*
X142246317Y-62959787D01*
X142221654Y-62925795D01*
X142195561Y-62889854D01*
X142168630Y-62852778D01*
X142141453Y-62815381D01*
X142114622Y-62778478D01*
X142088729Y-62742883D01*
X142064366Y-62709411D01*
X142042125Y-62678875D01*
X142022598Y-62652089D01*
X142006376Y-62629869D01*
X141994052Y-62613029D01*
X141986218Y-62602382D01*
X141983465Y-62598744D01*
X141983462Y-62599274D01*
X141807013Y-62599274D01*
X141807013Y-62350816D01*
X141904854Y-62351023D01*
X142002695Y-62351231D01*
X142285017Y-62728278D01*
X142559525Y-63094890D01*
X142567339Y-63105326D01*
G37*
G36*
X148769988Y-62686923D02*
G01*
X148792081Y-62687524D01*
X148808919Y-62688828D01*
X148822787Y-62691109D01*
X148835973Y-62694641D01*
X148850764Y-62699698D01*
X148889886Y-62716394D01*
X148929508Y-62739469D01*
X148969947Y-62769713D01*
X149000485Y-62794831D01*
X149008450Y-62759029D01*
X149010741Y-62749268D01*
X149016083Y-62731823D01*
X149022393Y-62719992D01*
X149030993Y-62710961D01*
X149034749Y-62707888D01*
X149040485Y-62704098D01*
X149047336Y-62701525D01*
X149057013Y-62699934D01*
X149071225Y-62699089D01*
X149091681Y-62698754D01*
X149120091Y-62698695D01*
X149194611Y-62698695D01*
X149194611Y-63121464D01*
X149194611Y-63544234D01*
X149090730Y-63544234D01*
X148986849Y-63544234D01*
X148986849Y-63237986D01*
X148986849Y-62931738D01*
X148967248Y-62914029D01*
X148927640Y-62882991D01*
X148886957Y-62860908D01*
X148845049Y-62847953D01*
X148801282Y-62843856D01*
X148766968Y-62846080D01*
X148737098Y-62853473D01*
X148713055Y-62866850D01*
X148693404Y-62887027D01*
X148676707Y-62914825D01*
X148660713Y-62947305D01*
X148659298Y-63245769D01*
X148657883Y-63544234D01*
X148553914Y-63544234D01*
X148449946Y-63544234D01*
X148451826Y-63241048D01*
X148452058Y-63203882D01*
X148452470Y-63143500D01*
X148452931Y-63091532D01*
X148453516Y-63047173D01*
X148454297Y-63009620D01*
X148455345Y-62978068D01*
X148456735Y-62951710D01*
X148458539Y-62929743D01*
X148460830Y-62911362D01*
X148463679Y-62895762D01*
X148467161Y-62882138D01*
X148471348Y-62869685D01*
X148476313Y-62857598D01*
X148482128Y-62845073D01*
X148488866Y-62831305D01*
X148493035Y-62823130D01*
X148520343Y-62780508D01*
X148553342Y-62745620D01*
X148592350Y-62718181D01*
X148637684Y-62697907D01*
X148646660Y-62694939D01*
X148660121Y-62691302D01*
X148674213Y-62688905D01*
X148691194Y-62687507D01*
X148713321Y-62686869D01*
X148742851Y-62686753D01*
X148769988Y-62686923D01*
G37*
G36*
X152119013Y-62743387D02*
G01*
X152119070Y-62756623D01*
X152119386Y-62826315D01*
X152119701Y-62887122D01*
X152120031Y-62939708D01*
X152120393Y-62984734D01*
X152120802Y-63022863D01*
X152121275Y-63054758D01*
X152121828Y-63081080D01*
X152122477Y-63102492D01*
X152123238Y-63119656D01*
X152124127Y-63133235D01*
X152125161Y-63143892D01*
X152126356Y-63152288D01*
X152127727Y-63159086D01*
X152129291Y-63164949D01*
X152136575Y-63187041D01*
X152158590Y-63235154D01*
X152186860Y-63275955D01*
X152221325Y-63309382D01*
X152261929Y-63335373D01*
X152308611Y-63353868D01*
X152325795Y-63357917D01*
X152354531Y-63361356D01*
X152390749Y-63362457D01*
X152417721Y-63361889D01*
X152448345Y-63359121D01*
X152472887Y-63353868D01*
X152497521Y-63345391D01*
X152540554Y-63323566D01*
X152577255Y-63294572D01*
X152607753Y-63258275D01*
X152632173Y-63214538D01*
X152650642Y-63163227D01*
X152651003Y-63161939D01*
X152652846Y-63155091D01*
X152654453Y-63148152D01*
X152655842Y-63140438D01*
X152657034Y-63131266D01*
X152658048Y-63119951D01*
X152658902Y-63105810D01*
X152659616Y-63088159D01*
X152660210Y-63066315D01*
X152660703Y-63039594D01*
X152661113Y-63007311D01*
X152661460Y-62968784D01*
X152661764Y-62923329D01*
X152662043Y-62870262D01*
X152662318Y-62808898D01*
X152662606Y-62738556D01*
X152664166Y-62350816D01*
X152775262Y-62350816D01*
X152886358Y-62350816D01*
X152884884Y-62755467D01*
X152883409Y-63160117D01*
X152870202Y-63208434D01*
X152868907Y-63213078D01*
X152850410Y-63266937D01*
X152826445Y-63319152D01*
X152798788Y-63365810D01*
X152766419Y-63406879D01*
X152722801Y-63448480D01*
X152672725Y-63484459D01*
X152617362Y-63514101D01*
X152557883Y-63536687D01*
X152495460Y-63551500D01*
X152474317Y-63554297D01*
X152438532Y-63556912D01*
X152398840Y-63557953D01*
X152358537Y-63557418D01*
X152320919Y-63555305D01*
X152289284Y-63551612D01*
X152268652Y-63547883D01*
X152208952Y-63532138D01*
X152153178Y-63509154D01*
X152098434Y-63477810D01*
X152086512Y-63469785D01*
X152037918Y-63430414D01*
X151996127Y-63384633D01*
X151960935Y-63332149D01*
X151932137Y-63272666D01*
X151909529Y-63205891D01*
X151898161Y-63164949D01*
X151896651Y-62757882D01*
X151895142Y-62350816D01*
X152006239Y-62350816D01*
X152117336Y-62350816D01*
X152119013Y-62743387D01*
G37*
G36*
X150186579Y-63157571D02*
G01*
X150183474Y-63201503D01*
X150177299Y-63240701D01*
X150167589Y-63277876D01*
X150153882Y-63315734D01*
X150145931Y-63334092D01*
X150116240Y-63387438D01*
X150079600Y-63434217D01*
X150036392Y-63474112D01*
X149986996Y-63506810D01*
X149931795Y-63531996D01*
X149871167Y-63549355D01*
X149836270Y-63554721D01*
X149794638Y-63557734D01*
X149750961Y-63558151D01*
X149708939Y-63555941D01*
X149672270Y-63551071D01*
X149669469Y-63550531D01*
X149608686Y-63534098D01*
X149553458Y-63509878D01*
X149504090Y-63478193D01*
X149460890Y-63439364D01*
X149424164Y-63393713D01*
X149394217Y-63341560D01*
X149371357Y-63283229D01*
X149355890Y-63219039D01*
X149352205Y-63191216D01*
X149349705Y-63148607D01*
X149349849Y-63120280D01*
X149563738Y-63120280D01*
X149564217Y-63155934D01*
X149565905Y-63189382D01*
X149568803Y-63218169D01*
X149572910Y-63239840D01*
X149579780Y-63262548D01*
X149597304Y-63304568D01*
X149619099Y-63338452D01*
X149645556Y-63364737D01*
X149677061Y-63383961D01*
X149688257Y-63388811D01*
X149701105Y-63392955D01*
X149715535Y-63395547D01*
X149734240Y-63397040D01*
X149759914Y-63397886D01*
X149787237Y-63397987D01*
X149816244Y-63396303D01*
X149835838Y-63392521D01*
X149841668Y-63390539D01*
X149877666Y-63373481D01*
X149907729Y-63349879D01*
X149932003Y-63319452D01*
X149950631Y-63281919D01*
X149963759Y-63236999D01*
X149971529Y-63184413D01*
X149974087Y-63123880D01*
X149973982Y-63110496D01*
X149970802Y-63054754D01*
X149963014Y-63006637D01*
X149950377Y-62965307D01*
X149932649Y-62929925D01*
X149909590Y-62899654D01*
X149890805Y-62882722D01*
X149858932Y-62863955D01*
X149822474Y-62851468D01*
X149783231Y-62845489D01*
X149743006Y-62846246D01*
X149703599Y-62853969D01*
X149666813Y-62868885D01*
X149655354Y-62875619D01*
X149628663Y-62897587D01*
X149606387Y-62926435D01*
X149587994Y-62962950D01*
X149572952Y-63007920D01*
X149569552Y-63024638D01*
X149566406Y-63052176D01*
X149564468Y-63084876D01*
X149563738Y-63120280D01*
X149349849Y-63120280D01*
X149349937Y-63103054D01*
X149352774Y-63057644D01*
X149358088Y-63015463D01*
X149365753Y-62979599D01*
X149366406Y-62977270D01*
X149388013Y-62917034D01*
X149416760Y-62863196D01*
X149452325Y-62816020D01*
X149494385Y-62775769D01*
X149542620Y-62742705D01*
X149596707Y-62717092D01*
X149656324Y-62699193D01*
X149721150Y-62689269D01*
X149728325Y-62688690D01*
X149795419Y-62687719D01*
X149859057Y-62694844D01*
X149918666Y-62709785D01*
X149973674Y-62732264D01*
X150023509Y-62762000D01*
X150067599Y-62798714D01*
X150105372Y-62842128D01*
X150136255Y-62891961D01*
X150156042Y-62934677D01*
X150170475Y-62976478D01*
X150180102Y-63019863D01*
X150185482Y-63067352D01*
X150187174Y-63121464D01*
X150187134Y-63123880D01*
X150186579Y-63157571D01*
G37*
G36*
X146529018Y-63157571D02*
G01*
X146525912Y-63201503D01*
X146519737Y-63240701D01*
X146510028Y-63277876D01*
X146496321Y-63315734D01*
X146488369Y-63334092D01*
X146458678Y-63387438D01*
X146422038Y-63434217D01*
X146378830Y-63474112D01*
X146329435Y-63506810D01*
X146274233Y-63531996D01*
X146213605Y-63549355D01*
X146178709Y-63554721D01*
X146137076Y-63557734D01*
X146093400Y-63558151D01*
X146051378Y-63555941D01*
X146014709Y-63551071D01*
X146011907Y-63550531D01*
X145951125Y-63534098D01*
X145895896Y-63509878D01*
X145846529Y-63478193D01*
X145803329Y-63439364D01*
X145766602Y-63393713D01*
X145736656Y-63341560D01*
X145713796Y-63283229D01*
X145698328Y-63219039D01*
X145694644Y-63191216D01*
X145692144Y-63148607D01*
X145692288Y-63120280D01*
X145906177Y-63120280D01*
X145906656Y-63155934D01*
X145908344Y-63189382D01*
X145911242Y-63218169D01*
X145915349Y-63239840D01*
X145922219Y-63262548D01*
X145939742Y-63304568D01*
X145961538Y-63338452D01*
X145987994Y-63364737D01*
X146019500Y-63383961D01*
X146030695Y-63388811D01*
X146043544Y-63392955D01*
X146057974Y-63395547D01*
X146076679Y-63397040D01*
X146102353Y-63397886D01*
X146129675Y-63397987D01*
X146158683Y-63396303D01*
X146178277Y-63392521D01*
X146184107Y-63390539D01*
X146220104Y-63373481D01*
X146250168Y-63349879D01*
X146274442Y-63319452D01*
X146293070Y-63281919D01*
X146306197Y-63236999D01*
X146313968Y-63184413D01*
X146316526Y-63123880D01*
X146316421Y-63110496D01*
X146313241Y-63054754D01*
X146305453Y-63006637D01*
X146292816Y-62965307D01*
X146275088Y-62929925D01*
X146252029Y-62899654D01*
X146233244Y-62882722D01*
X146201371Y-62863955D01*
X146164913Y-62851468D01*
X146125670Y-62845489D01*
X146085444Y-62846246D01*
X146046038Y-62853969D01*
X146009251Y-62868885D01*
X145997792Y-62875619D01*
X145971102Y-62897587D01*
X145948826Y-62926435D01*
X145930433Y-62962950D01*
X145915391Y-63007920D01*
X145911990Y-63024638D01*
X145908845Y-63052176D01*
X145906907Y-63084876D01*
X145906177Y-63120280D01*
X145692288Y-63120280D01*
X145692376Y-63103054D01*
X145695212Y-63057644D01*
X145700527Y-63015463D01*
X145708191Y-62979599D01*
X145708844Y-62977270D01*
X145730452Y-62917034D01*
X145759199Y-62863196D01*
X145794764Y-62816020D01*
X145836824Y-62775769D01*
X145885058Y-62742705D01*
X145939145Y-62717092D01*
X145998763Y-62699193D01*
X146063589Y-62689269D01*
X146070763Y-62688690D01*
X146137858Y-62687719D01*
X146201496Y-62694844D01*
X146261105Y-62709785D01*
X146316113Y-62732264D01*
X146365948Y-62762000D01*
X146410038Y-62798714D01*
X146447810Y-62842128D01*
X146478693Y-62891961D01*
X146498481Y-62934677D01*
X146512913Y-62976478D01*
X146522541Y-63019863D01*
X146527921Y-63067352D01*
X146529613Y-63121464D01*
X146529573Y-63123880D01*
X146529018Y-63157571D01*
G37*
G36*
X151059895Y-62685971D02*
G01*
X151088029Y-62688654D01*
X151098652Y-62690337D01*
X151158676Y-62705140D01*
X151213572Y-62727960D01*
X151262969Y-62758425D01*
X151306494Y-62796167D01*
X151343774Y-62840817D01*
X151374437Y-62892004D01*
X151398111Y-62949359D01*
X151414422Y-63012513D01*
X151414936Y-63015320D01*
X151418888Y-63046381D01*
X151421224Y-63083518D01*
X151421946Y-63123611D01*
X151421053Y-63163539D01*
X151418545Y-63200180D01*
X151414422Y-63230415D01*
X151402691Y-63278887D01*
X151381022Y-63337197D01*
X151352504Y-63389993D01*
X151317641Y-63436713D01*
X151276940Y-63476799D01*
X151230906Y-63509688D01*
X151180042Y-63534821D01*
X151124856Y-63551638D01*
X151106365Y-63554642D01*
X151076020Y-63557159D01*
X151041389Y-63558088D01*
X151005443Y-63557433D01*
X150971151Y-63555198D01*
X150941484Y-63551387D01*
X150925487Y-63548257D01*
X150870020Y-63532092D01*
X150817662Y-63508685D01*
X150770232Y-63478957D01*
X150729549Y-63443832D01*
X150706280Y-63420047D01*
X150736112Y-63381884D01*
X150752917Y-63360710D01*
X150766076Y-63345361D01*
X150776438Y-63335476D01*
X150785492Y-63329875D01*
X150794726Y-63327379D01*
X150805629Y-63326810D01*
X150809302Y-63326883D01*
X150822392Y-63329009D01*
X150835575Y-63335139D01*
X150852203Y-63346705D01*
X150866673Y-63356817D01*
X150888810Y-63370451D01*
X150909847Y-63381735D01*
X150920764Y-63386864D01*
X150932508Y-63391557D01*
X150943987Y-63394495D01*
X150957682Y-63396086D01*
X150976075Y-63396741D01*
X151001649Y-63396868D01*
X151017432Y-63396828D01*
X151038782Y-63396409D01*
X151054235Y-63395236D01*
X151066186Y-63392944D01*
X151077029Y-63389169D01*
X151089159Y-63383546D01*
X151111486Y-63369699D01*
X151137265Y-63347359D01*
X151160308Y-63320959D01*
X151177829Y-63293333D01*
X151191701Y-63259722D01*
X151203474Y-63215040D01*
X151210565Y-63165930D01*
X151212657Y-63114702D01*
X151209432Y-63063667D01*
X151205048Y-63034214D01*
X151192412Y-62983453D01*
X151174238Y-62940593D01*
X151150494Y-62905602D01*
X151121148Y-62878445D01*
X151086166Y-62859089D01*
X151045518Y-62847500D01*
X150999172Y-62843644D01*
X150982603Y-62843923D01*
X150953149Y-62846571D01*
X150926697Y-62852794D01*
X150899837Y-62863541D01*
X150869161Y-62879757D01*
X150862453Y-62883530D01*
X150841369Y-62894160D01*
X150824947Y-62899902D01*
X150810878Y-62901624D01*
X150808230Y-62901597D01*
X150798796Y-62900647D01*
X150790382Y-62897486D01*
X150781688Y-62890964D01*
X150771414Y-62879932D01*
X150758262Y-62863238D01*
X150740931Y-62839734D01*
X150715241Y-62804418D01*
X150731335Y-62787813D01*
X150742319Y-62777304D01*
X150774699Y-62752353D01*
X150812841Y-62729548D01*
X150853981Y-62710427D01*
X150895352Y-62696530D01*
X150897647Y-62695942D01*
X150923230Y-62691229D01*
X150955170Y-62687755D01*
X150990542Y-62685642D01*
X151026425Y-62685007D01*
X151059895Y-62685971D01*
G37*
G36*
X144042902Y-62343114D02*
G01*
X144120640Y-62352817D01*
X144194287Y-62370581D01*
X144263380Y-62396156D01*
X144327460Y-62429292D01*
X144386066Y-62469738D01*
X144438735Y-62517245D01*
X144485007Y-62571561D01*
X144524422Y-62632438D01*
X144544994Y-62673239D01*
X144570665Y-62740610D01*
X144588834Y-62812010D01*
X144599472Y-62886151D01*
X144602548Y-62961744D01*
X144598033Y-63037500D01*
X144585897Y-63112131D01*
X144566112Y-63184350D01*
X144538647Y-63252866D01*
X144526397Y-63277107D01*
X144489241Y-63336196D01*
X144444821Y-63389566D01*
X144393889Y-63436655D01*
X144337194Y-63476901D01*
X144275488Y-63509744D01*
X144209522Y-63534621D01*
X144140046Y-63550970D01*
X144125695Y-63553117D01*
X144078487Y-63557357D01*
X144026863Y-63558465D01*
X143973578Y-63556589D01*
X143921388Y-63551876D01*
X143873048Y-63544471D01*
X143831315Y-63534523D01*
X143789994Y-63520026D01*
X143730231Y-63491041D01*
X143674423Y-63454235D01*
X143624368Y-63410683D01*
X143588784Y-63375108D01*
X143606922Y-63354583D01*
X143611461Y-63349518D01*
X143625237Y-63334535D01*
X143641914Y-63316757D01*
X143658834Y-63299028D01*
X143671700Y-63285898D01*
X143684050Y-63274367D01*
X143693378Y-63267740D01*
X143701609Y-63264717D01*
X143710666Y-63263998D01*
X143719680Y-63264818D01*
X143730661Y-63268670D01*
X143743936Y-63276793D01*
X143761847Y-63290394D01*
X143778543Y-63303130D01*
X143816503Y-63327430D01*
X143855486Y-63345329D01*
X143897453Y-63357462D01*
X143944361Y-63364464D01*
X143998168Y-63366968D01*
X144017520Y-63366966D01*
X144052402Y-63365672D01*
X144081951Y-63362142D01*
X144109036Y-63355791D01*
X144136521Y-63346028D01*
X144167276Y-63332266D01*
X144180617Y-63325514D01*
X144227308Y-63295238D01*
X144267894Y-63257748D01*
X144302147Y-63213443D01*
X144329839Y-63162719D01*
X144350742Y-63105973D01*
X144364630Y-63043604D01*
X144371275Y-62976008D01*
X144371796Y-62923640D01*
X144368329Y-62876698D01*
X144360470Y-62832544D01*
X144347830Y-62788080D01*
X144336980Y-62758723D01*
X144309889Y-62704158D01*
X144276269Y-62656647D01*
X144236371Y-62616386D01*
X144190446Y-62583569D01*
X144138745Y-62558394D01*
X144081517Y-62541054D01*
X144019014Y-62531745D01*
X144004423Y-62530836D01*
X143942675Y-62532862D01*
X143882255Y-62544326D01*
X143823851Y-62565056D01*
X143768147Y-62594879D01*
X143755102Y-62603034D01*
X143732126Y-62616103D01*
X143713588Y-62623477D01*
X143697869Y-62624757D01*
X143683351Y-62619542D01*
X143668415Y-62607431D01*
X143651440Y-62588026D01*
X143630809Y-62560925D01*
X143625179Y-62553288D01*
X143610830Y-62533566D01*
X143598959Y-62516876D01*
X143590671Y-62504786D01*
X143587070Y-62498863D01*
X143587025Y-62498735D01*
X143589403Y-62491621D01*
X143598995Y-62480886D01*
X143614526Y-62467444D01*
X143634722Y-62452207D01*
X143658308Y-62436090D01*
X143684010Y-62420007D01*
X143710554Y-62404871D01*
X143736666Y-62391595D01*
X143763093Y-62379940D01*
X143813418Y-62362476D01*
X143866295Y-62350480D01*
X143923769Y-62343540D01*
X143987884Y-62341248D01*
X144042902Y-62343114D01*
G37*
G36*
X148306467Y-63035890D02*
G01*
X148308010Y-63060579D01*
X148309163Y-63092474D01*
X148309502Y-63127719D01*
X148305652Y-63194056D01*
X148295466Y-63254029D01*
X148278639Y-63308510D01*
X148254868Y-63358372D01*
X148223847Y-63404488D01*
X148185273Y-63447730D01*
X148179443Y-63453410D01*
X148137879Y-63488179D01*
X148093057Y-63515560D01*
X148043242Y-63536461D01*
X147986697Y-63551793D01*
X147961373Y-63555430D01*
X147928312Y-63557386D01*
X147890903Y-63557589D01*
X147851751Y-63556139D01*
X147813461Y-63553132D01*
X147778640Y-63548669D01*
X147749891Y-63542846D01*
X147698066Y-63526799D01*
X147649407Y-63505385D01*
X147606587Y-63478839D01*
X147567952Y-63446281D01*
X147542987Y-63422149D01*
X147576818Y-63379261D01*
X147588880Y-63364364D01*
X147602310Y-63348715D01*
X147613076Y-63337198D01*
X147619584Y-63331592D01*
X147624115Y-63329521D01*
X147637726Y-63327109D01*
X147654476Y-63329631D01*
X147675854Y-63337429D01*
X147703348Y-63350847D01*
X147713246Y-63355996D01*
X147749452Y-63373426D01*
X147781045Y-63385777D01*
X147810439Y-63393743D01*
X147840049Y-63398014D01*
X147872288Y-63399284D01*
X147873244Y-63399284D01*
X147905275Y-63398315D01*
X147931084Y-63395248D01*
X147953876Y-63389707D01*
X147966411Y-63385350D01*
X148004012Y-63365806D01*
X148036735Y-63338580D01*
X148063530Y-63304681D01*
X148083348Y-63265120D01*
X148084190Y-63262788D01*
X148088738Y-63247503D01*
X148093842Y-63227114D01*
X148098887Y-63204507D01*
X148103254Y-63182567D01*
X148106327Y-63164182D01*
X148107489Y-63152237D01*
X148105502Y-63151723D01*
X148095007Y-63150967D01*
X148076241Y-63150268D01*
X148050050Y-63149642D01*
X148017280Y-63149100D01*
X147978775Y-63148655D01*
X147935382Y-63148321D01*
X147887945Y-63148111D01*
X147837311Y-63148038D01*
X147803766Y-63148015D01*
X147755116Y-63147897D01*
X147709838Y-63147686D01*
X147668830Y-63147394D01*
X147632993Y-63147029D01*
X147603223Y-63146601D01*
X147580421Y-63146120D01*
X147565484Y-63145595D01*
X147559312Y-63145037D01*
X147555497Y-63143139D01*
X147547152Y-63134099D01*
X147541527Y-63118588D01*
X147538352Y-63095605D01*
X147537354Y-63064149D01*
X147537373Y-63059322D01*
X147539589Y-63027247D01*
X147720050Y-63027247D01*
X147911353Y-63027247D01*
X147924675Y-63027240D01*
X147965727Y-63027126D01*
X148003283Y-63026885D01*
X148036316Y-63026532D01*
X148063798Y-63026083D01*
X148084701Y-63025555D01*
X148097997Y-63024962D01*
X148102657Y-63024321D01*
X148102464Y-63021628D01*
X148099742Y-63008538D01*
X148094552Y-62990448D01*
X148087857Y-62970311D01*
X148080616Y-62951074D01*
X148073790Y-62935689D01*
X148069729Y-62928039D01*
X148045769Y-62894323D01*
X148015703Y-62868091D01*
X147979583Y-62849378D01*
X147937462Y-62838223D01*
X147913649Y-62835582D01*
X147871518Y-62837348D01*
X147832569Y-62847449D01*
X147797824Y-62865563D01*
X147768306Y-62891369D01*
X147748384Y-62919436D01*
X147732575Y-62957154D01*
X147723246Y-63001881D01*
X147720050Y-63027247D01*
X147539589Y-63027247D01*
X147541825Y-62994881D01*
X147554120Y-62935977D01*
X147574334Y-62882407D01*
X147602541Y-62833968D01*
X147638818Y-62790456D01*
X147659466Y-62770904D01*
X147692867Y-62745654D01*
X147730236Y-62725250D01*
X147774366Y-62707991D01*
X147790324Y-62702854D01*
X147810298Y-62697488D01*
X147829919Y-62693955D01*
X147852524Y-62691700D01*
X147881453Y-62690167D01*
X147914560Y-62689651D01*
X147975981Y-62693911D01*
X148031958Y-62705394D01*
X148083369Y-62724316D01*
X148131092Y-62750888D01*
X148162726Y-62773801D01*
X148206613Y-62814520D01*
X148242898Y-62860903D01*
X148271943Y-62913437D01*
X148294106Y-62972613D01*
X148296413Y-62980483D01*
X148300977Y-62998299D01*
X148304225Y-63015949D01*
X148305166Y-63024321D01*
X148306467Y-63035890D01*
G37*
G36*
X154895961Y-62941536D02*
G01*
X154895940Y-63009209D01*
X154895868Y-63081946D01*
X154895749Y-63151472D01*
X154895585Y-63217201D01*
X154895380Y-63278547D01*
X154895137Y-63334922D01*
X154894860Y-63385740D01*
X154894552Y-63430414D01*
X154894215Y-63468359D01*
X154893853Y-63498986D01*
X154893470Y-63521710D01*
X154893068Y-63535944D01*
X154892652Y-63541101D01*
X154890971Y-63541575D01*
X154881074Y-63542373D01*
X154863644Y-63542951D01*
X154840096Y-63543284D01*
X154811847Y-63543347D01*
X154780316Y-63543114D01*
X154671289Y-63541818D01*
X154670035Y-63308691D01*
X154668781Y-63075564D01*
X154616887Y-63075679D01*
X154609018Y-63075722D01*
X154578214Y-63076653D01*
X154554897Y-63079084D01*
X154537324Y-63083409D01*
X154523752Y-63090021D01*
X154512436Y-63099316D01*
X154512156Y-63099607D01*
X154506175Y-63107185D01*
X154495548Y-63121936D01*
X154480855Y-63143010D01*
X154462674Y-63169555D01*
X154441585Y-63200722D01*
X154418165Y-63235660D01*
X154392995Y-63273519D01*
X154366652Y-63313449D01*
X154359376Y-63324516D01*
X154328994Y-63370558D01*
X154303257Y-63409232D01*
X154281711Y-63441176D01*
X154263904Y-63467031D01*
X154249383Y-63487434D01*
X154237694Y-63503025D01*
X154228385Y-63514445D01*
X154221003Y-63522331D01*
X154215094Y-63527323D01*
X154194566Y-63541818D01*
X154079009Y-63543342D01*
X154077899Y-63543357D01*
X154037492Y-63543680D01*
X154005546Y-63543500D01*
X153982359Y-63542825D01*
X153968228Y-63541665D01*
X153963452Y-63540028D01*
X153964853Y-63537419D01*
X153971070Y-63527552D01*
X153981722Y-63511202D01*
X153996224Y-63489236D01*
X154013990Y-63462523D01*
X154034433Y-63431930D01*
X154056968Y-63398325D01*
X154081009Y-63362577D01*
X154105969Y-63325552D01*
X154131264Y-63288119D01*
X154156306Y-63251146D01*
X154180511Y-63215500D01*
X154203291Y-63182050D01*
X154224062Y-63151662D01*
X154242237Y-63125206D01*
X154257230Y-63103548D01*
X154268456Y-63087558D01*
X154275328Y-63078101D01*
X154278510Y-63074229D01*
X154291976Y-63060725D01*
X154306781Y-63048795D01*
X154326082Y-63035419D01*
X154274014Y-63009899D01*
X154256190Y-63000728D01*
X154232011Y-62987118D01*
X154210289Y-62973672D01*
X154194203Y-62962288D01*
X154190215Y-62959052D01*
X154153280Y-62922700D01*
X154121579Y-62879705D01*
X154096410Y-62832102D01*
X154079073Y-62781923D01*
X154073503Y-62751252D01*
X154070438Y-62714525D01*
X154070365Y-62708358D01*
X154289849Y-62708358D01*
X154290378Y-62733174D01*
X154292086Y-62753580D01*
X154295385Y-62770148D01*
X154300698Y-62785896D01*
X154303184Y-62791914D01*
X154324038Y-62828720D01*
X154352053Y-62859048D01*
X154387235Y-62882900D01*
X154429590Y-62900282D01*
X154479122Y-62911196D01*
X154485698Y-62911988D01*
X154505766Y-62913556D01*
X154531652Y-62914827D01*
X154560726Y-62915688D01*
X154590359Y-62916023D01*
X154668873Y-62916119D01*
X154668873Y-62717391D01*
X154668873Y-62518662D01*
X154563785Y-62521222D01*
X154529057Y-62522245D01*
X154493704Y-62523848D01*
X154466076Y-62525896D01*
X154445101Y-62528474D01*
X154429707Y-62531664D01*
X154410943Y-62537306D01*
X154374028Y-62552877D01*
X154344460Y-62572944D01*
X154320978Y-62598483D01*
X154302325Y-62630472D01*
X154297700Y-62640898D01*
X154293464Y-62653411D01*
X154291052Y-62666896D01*
X154290001Y-62684247D01*
X154289849Y-62708358D01*
X154070365Y-62708358D01*
X154069975Y-62675476D01*
X154072155Y-62637621D01*
X154077017Y-62604477D01*
X154080503Y-62589846D01*
X154098100Y-62542139D01*
X154124075Y-62498552D01*
X154157930Y-62459593D01*
X154199168Y-62425766D01*
X154247293Y-62397580D01*
X154301806Y-62375540D01*
X154309637Y-62372995D01*
X154326222Y-62367797D01*
X154341694Y-62363419D01*
X154357034Y-62359782D01*
X154373221Y-62356808D01*
X154391234Y-62354417D01*
X154412054Y-62352530D01*
X154436659Y-62351068D01*
X154466029Y-62349952D01*
X154501144Y-62349103D01*
X154542984Y-62348442D01*
X154592527Y-62347889D01*
X154650755Y-62347366D01*
X154895961Y-62345281D01*
X154895961Y-62518662D01*
X154895961Y-62941536D01*
G37*
G36*
X143473275Y-63163428D02*
G01*
X143471332Y-63203021D01*
X143466872Y-63237305D01*
X143452458Y-63294154D01*
X143429295Y-63350999D01*
X143398752Y-63401819D01*
X143361163Y-63446283D01*
X143316862Y-63484061D01*
X143266183Y-63514822D01*
X143209459Y-63538235D01*
X143147025Y-63553971D01*
X143142603Y-63554595D01*
X143126135Y-63555823D01*
X143103404Y-63556607D01*
X143076808Y-63556884D01*
X143048748Y-63556588D01*
X143036448Y-63556298D01*
X143008061Y-63555268D01*
X142985889Y-63553663D01*
X142967401Y-63551174D01*
X142950067Y-63547493D01*
X142931355Y-63542314D01*
X142896495Y-63530542D01*
X142838851Y-63503912D01*
X142787946Y-63470417D01*
X142743911Y-63430183D01*
X142706873Y-63383337D01*
X142676962Y-63330005D01*
X142654308Y-63270315D01*
X142651797Y-63261820D01*
X142647253Y-63244392D01*
X142644224Y-63227919D01*
X142642401Y-63209750D01*
X142641472Y-63187228D01*
X142641361Y-63177718D01*
X142845779Y-63177718D01*
X142851294Y-63221646D01*
X142864769Y-63262478D01*
X142885676Y-63299220D01*
X142913486Y-63330876D01*
X142947674Y-63356454D01*
X142987709Y-63374959D01*
X143001846Y-63378918D01*
X143027713Y-63383684D01*
X143056007Y-63386801D01*
X143082837Y-63387883D01*
X143104312Y-63386543D01*
X143120775Y-63383118D01*
X143149510Y-63373955D01*
X143177281Y-63361795D01*
X143199745Y-63348377D01*
X143222165Y-63329251D01*
X143244287Y-63301620D01*
X143260068Y-63268990D01*
X143270022Y-63230230D01*
X143274666Y-63184210D01*
X143275457Y-63161140D01*
X143275280Y-63142405D01*
X143273686Y-63127395D01*
X143270330Y-63113028D01*
X143264870Y-63096221D01*
X143263794Y-63093184D01*
X143245043Y-63053230D01*
X143220003Y-63020308D01*
X143188148Y-62993713D01*
X143175149Y-62985669D01*
X143133693Y-62967296D01*
X143089550Y-62957629D01*
X143043985Y-62956733D01*
X142998259Y-62964675D01*
X142953638Y-62981519D01*
X142946872Y-62984973D01*
X142912356Y-63008479D01*
X142884981Y-63038415D01*
X142864654Y-63074906D01*
X142851279Y-63118078D01*
X142848753Y-63131686D01*
X142845779Y-63177718D01*
X142641361Y-63177718D01*
X142641128Y-63157702D01*
X142641121Y-63156157D01*
X142641261Y-63126088D01*
X142642128Y-63102994D01*
X142643968Y-63084316D01*
X142647029Y-63067492D01*
X142651561Y-63049960D01*
X142670766Y-62996696D01*
X142697755Y-62947169D01*
X142731672Y-62904378D01*
X142772499Y-62868340D01*
X142820217Y-62839076D01*
X142874808Y-62816603D01*
X142875636Y-62816331D01*
X142892260Y-62811144D01*
X142906770Y-62807506D01*
X142921520Y-62805138D01*
X142938866Y-62803760D01*
X142961164Y-62803093D01*
X142990768Y-62802858D01*
X142997248Y-62802840D01*
X143024875Y-62802927D01*
X143045525Y-62803502D01*
X143061441Y-62804825D01*
X143074865Y-62807157D01*
X143088039Y-62810755D01*
X143103206Y-62815881D01*
X143109021Y-62817926D01*
X143125625Y-62823652D01*
X143137717Y-62827647D01*
X143143003Y-62829149D01*
X143142899Y-62828892D01*
X143138805Y-62823386D01*
X143129242Y-62811187D01*
X143114715Y-62792924D01*
X143095729Y-62769224D01*
X143072790Y-62740717D01*
X143046404Y-62708032D01*
X143017076Y-62671796D01*
X142985311Y-62632640D01*
X142951617Y-62591190D01*
X142757980Y-62353231D01*
X142862633Y-62351928D01*
X142894763Y-62351627D01*
X142927437Y-62351742D01*
X142953003Y-62352592D01*
X142972880Y-62354382D01*
X142988485Y-62357314D01*
X143001235Y-62361590D01*
X143012548Y-62367414D01*
X143023841Y-62374987D01*
X143024403Y-62375417D01*
X143032490Y-62383494D01*
X143045496Y-62398485D01*
X143062783Y-62419539D01*
X143083715Y-62445806D01*
X143107654Y-62476435D01*
X143133965Y-62510575D01*
X143162010Y-62547376D01*
X143191153Y-62585987D01*
X143220757Y-62625558D01*
X143250185Y-62665237D01*
X143278802Y-62704175D01*
X143305969Y-62741521D01*
X143331052Y-62776423D01*
X143353411Y-62808033D01*
X143372412Y-62835498D01*
X143387418Y-62857968D01*
X143397791Y-62874593D01*
X143422131Y-62921115D01*
X143443716Y-62972066D01*
X143460057Y-63021801D01*
X143464996Y-63044045D01*
X143470009Y-63080816D01*
X143472801Y-63121652D01*
X143473249Y-63161140D01*
X143473275Y-63163428D01*
G37*
G36*
X155956208Y-59604835D02*
G01*
X156000522Y-59639371D01*
X156053056Y-59680378D01*
X156103016Y-59719448D01*
X156149896Y-59756180D01*
X156193191Y-59790177D01*
X156232393Y-59821039D01*
X156266998Y-59848368D01*
X156296501Y-59871764D01*
X156320394Y-59890829D01*
X156338172Y-59905164D01*
X156349330Y-59914369D01*
X156353361Y-59918047D01*
X156353228Y-59919375D01*
X156349664Y-59927933D01*
X156342034Y-59942952D01*
X156331028Y-59963149D01*
X156317335Y-59987247D01*
X156301645Y-60013966D01*
X156300261Y-60016287D01*
X156282379Y-60046043D01*
X156268365Y-60068699D01*
X156257332Y-60085454D01*
X156248399Y-60097508D01*
X156240681Y-60106059D01*
X156233294Y-60112306D01*
X156225354Y-60117448D01*
X156199403Y-60128029D01*
X156169387Y-60132917D01*
X156139141Y-60131809D01*
X156112373Y-60124475D01*
X156110017Y-60123233D01*
X156099154Y-60116304D01*
X156081737Y-60104340D01*
X156058570Y-60087922D01*
X156030459Y-60067635D01*
X155998209Y-60044062D01*
X155962624Y-60017786D01*
X155924510Y-59989390D01*
X155884672Y-59959459D01*
X155865053Y-59944668D01*
X155827135Y-59916141D01*
X155791983Y-59889776D01*
X155760304Y-59866099D01*
X155732804Y-59845632D01*
X155710186Y-59828901D01*
X155693158Y-59816429D01*
X155682424Y-59808741D01*
X155678689Y-59806360D01*
X155678742Y-59806789D01*
X155680203Y-59813938D01*
X155683363Y-59828283D01*
X155687818Y-59848013D01*
X155693164Y-59871313D01*
X155694729Y-59878601D01*
X155697455Y-59893208D01*
X155700660Y-59912484D01*
X155704395Y-59936807D01*
X155708708Y-59966557D01*
X155713651Y-60002112D01*
X155719272Y-60043852D01*
X155725621Y-60092157D01*
X155732748Y-60147404D01*
X155740702Y-60209974D01*
X155749533Y-60280246D01*
X155759291Y-60358599D01*
X155770025Y-60445412D01*
X155781785Y-60541063D01*
X155794621Y-60645934D01*
X155795803Y-60655607D01*
X155805817Y-60737531D01*
X155815532Y-60816947D01*
X155824883Y-60893312D01*
X155833801Y-60966080D01*
X155842219Y-61034707D01*
X155850072Y-61098646D01*
X155857290Y-61157354D01*
X155863809Y-61210284D01*
X155869559Y-61256893D01*
X155874475Y-61296634D01*
X155878489Y-61328964D01*
X155881535Y-61353336D01*
X155883544Y-61369207D01*
X155884451Y-61376030D01*
X155887299Y-61394148D01*
X156130873Y-61394148D01*
X156165999Y-61394168D01*
X156219202Y-61394302D01*
X156263584Y-61394572D01*
X156299677Y-61394990D01*
X156328014Y-61395569D01*
X156349127Y-61396321D01*
X156363549Y-61397257D01*
X156371811Y-61398391D01*
X156374447Y-61399733D01*
X156374473Y-61400387D01*
X156375242Y-61408808D01*
X156376942Y-61424955D01*
X156379396Y-61447292D01*
X156382427Y-61474281D01*
X156385857Y-61504384D01*
X156389507Y-61536064D01*
X156393199Y-61567784D01*
X156396757Y-61598007D01*
X156400002Y-61625195D01*
X156402756Y-61647811D01*
X156404841Y-61664317D01*
X156406080Y-61673176D01*
X156408706Y-61688879D01*
X155749924Y-61688879D01*
X155091141Y-61688879D01*
X155075173Y-61554801D01*
X155074854Y-61552120D01*
X155070596Y-61516674D01*
X155066600Y-61483919D01*
X155063039Y-61455236D01*
X155060087Y-61432007D01*
X155057917Y-61415613D01*
X155056702Y-61407435D01*
X155054198Y-61394148D01*
X155272226Y-61394148D01*
X155308553Y-61394107D01*
X155350982Y-61393947D01*
X155389525Y-61393680D01*
X155423220Y-61393318D01*
X155451103Y-61392874D01*
X155472212Y-61392362D01*
X155485583Y-61391795D01*
X155490254Y-61391185D01*
X155490251Y-61391139D01*
X155489583Y-61385450D01*
X155487787Y-61370641D01*
X155484916Y-61347150D01*
X155481026Y-61315416D01*
X155476170Y-61275878D01*
X155470402Y-61228974D01*
X155463775Y-61175141D01*
X155456345Y-61114820D01*
X155448165Y-61048447D01*
X155439290Y-60976462D01*
X155429772Y-60899303D01*
X155419667Y-60817408D01*
X155409028Y-60731216D01*
X155397909Y-60641166D01*
X155386365Y-60547695D01*
X155374449Y-60451242D01*
X155362216Y-60352245D01*
X155361462Y-60346145D01*
X155349238Y-60247190D01*
X155337335Y-60150751D01*
X155325808Y-60057270D01*
X155314710Y-59967189D01*
X155304096Y-59880951D01*
X155294021Y-59798997D01*
X155284537Y-59721771D01*
X155275699Y-59649713D01*
X155267562Y-59583266D01*
X155260180Y-59522872D01*
X155253606Y-59468973D01*
X155247895Y-59422012D01*
X155243101Y-59382430D01*
X155239278Y-59350670D01*
X155236480Y-59327173D01*
X155234762Y-59312382D01*
X155234177Y-59306739D01*
X155234352Y-59304580D01*
X155235564Y-59302438D01*
X155238775Y-59300757D01*
X155244943Y-59299481D01*
X155255025Y-59298555D01*
X155269979Y-59297922D01*
X155290765Y-59297527D01*
X155318340Y-59297314D01*
X155353661Y-59297227D01*
X155397688Y-59297211D01*
X155561199Y-59297211D01*
X155956208Y-59604835D01*
G37*
G36*
X154702472Y-61059048D02*
G01*
X154698858Y-61098906D01*
X154685658Y-61182689D01*
X154665188Y-61260387D01*
X154637294Y-61332363D01*
X154601820Y-61398980D01*
X154558611Y-61460603D01*
X154507514Y-61517596D01*
X154455265Y-61564336D01*
X154392297Y-61608712D01*
X154323935Y-61645197D01*
X154249754Y-61674049D01*
X154246795Y-61674997D01*
X154217177Y-61683419D01*
X154182251Y-61691904D01*
X154145637Y-61699677D01*
X154110956Y-61705963D01*
X154081828Y-61709988D01*
X154075743Y-61710515D01*
X154053167Y-61711496D01*
X154023923Y-61711812D01*
X153990054Y-61711527D01*
X153953601Y-61710708D01*
X153916604Y-61709423D01*
X153881105Y-61707737D01*
X153849146Y-61705717D01*
X153822766Y-61703430D01*
X153804007Y-61700941D01*
X153785690Y-61697482D01*
X153691010Y-61674211D01*
X153600926Y-61642895D01*
X153515826Y-61603840D01*
X153436097Y-61557352D01*
X153362128Y-61503736D01*
X153294306Y-61443299D01*
X153233017Y-61376346D01*
X153178651Y-61303183D01*
X153131595Y-61224116D01*
X153092236Y-61139450D01*
X153077582Y-61099784D01*
X153057191Y-61027595D01*
X153043147Y-60952322D01*
X153035514Y-60875632D01*
X153035321Y-60862858D01*
X153433829Y-60862858D01*
X153434943Y-60925472D01*
X153443867Y-60988431D01*
X153460555Y-61050640D01*
X153484961Y-61111004D01*
X153517038Y-61168430D01*
X153517997Y-61169901D01*
X153538162Y-61197039D01*
X153563886Y-61226427D01*
X153592607Y-61255468D01*
X153621766Y-61281565D01*
X153648802Y-61302119D01*
X153683796Y-61323682D01*
X153747300Y-61353965D01*
X153815023Y-61375909D01*
X153886019Y-61389167D01*
X153886651Y-61389243D01*
X153951400Y-61393144D01*
X154013093Y-61389117D01*
X154071075Y-61377450D01*
X154124689Y-61358433D01*
X154173279Y-61332354D01*
X154216189Y-61299503D01*
X154252763Y-61260168D01*
X154282345Y-61214639D01*
X154300751Y-61174235D01*
X154318061Y-61117079D01*
X154327763Y-61055753D01*
X154329681Y-60991479D01*
X154323641Y-60925478D01*
X154321559Y-60912696D01*
X154305030Y-60843692D01*
X154280494Y-60779457D01*
X154248295Y-60720466D01*
X154208774Y-60667192D01*
X154162273Y-60620108D01*
X154109136Y-60579690D01*
X154049704Y-60546411D01*
X154008804Y-60529183D01*
X153949185Y-60511034D01*
X153888887Y-60500259D01*
X153828856Y-60496670D01*
X153770035Y-60500078D01*
X153713368Y-60510296D01*
X153659799Y-60527135D01*
X153610272Y-60550407D01*
X153565730Y-60579924D01*
X153527119Y-60615498D01*
X153495381Y-60656940D01*
X153477815Y-60688026D01*
X153455219Y-60743040D01*
X153440573Y-60801682D01*
X153433829Y-60862858D01*
X153035321Y-60862858D01*
X153034360Y-60799193D01*
X153039749Y-60724673D01*
X153051748Y-60653741D01*
X153070423Y-60588063D01*
X153070502Y-60587840D01*
X153099738Y-60518729D01*
X153136394Y-60455724D01*
X153180243Y-60399020D01*
X153231062Y-60348810D01*
X153288627Y-60305291D01*
X153352712Y-60268654D01*
X153423093Y-60239096D01*
X153499545Y-60216810D01*
X153531972Y-60210710D01*
X153574377Y-60205587D01*
X153620691Y-60202325D01*
X153667959Y-60201060D01*
X153713226Y-60201929D01*
X153753536Y-60205069D01*
X153754993Y-60205242D01*
X153818989Y-60215960D01*
X153882908Y-60232388D01*
X153942269Y-60253378D01*
X153987434Y-60271974D01*
X153974822Y-60256887D01*
X153974001Y-60255946D01*
X153967213Y-60248468D01*
X153954360Y-60234487D01*
X153935843Y-60214430D01*
X153912060Y-60188727D01*
X153883409Y-60157807D01*
X153850288Y-60122100D01*
X153813096Y-60082034D01*
X153772232Y-60038041D01*
X153728095Y-59990547D01*
X153681081Y-59939984D01*
X153631591Y-59886780D01*
X153580022Y-59831365D01*
X153526774Y-59774168D01*
X153507970Y-59753971D01*
X153455539Y-59697627D01*
X153405070Y-59643349D01*
X153356950Y-59591554D01*
X153311563Y-59542660D01*
X153269296Y-59497082D01*
X153230533Y-59455238D01*
X153195661Y-59417544D01*
X153165066Y-59384417D01*
X153139132Y-59356274D01*
X153118245Y-59333532D01*
X153102792Y-59316606D01*
X153093158Y-59305915D01*
X153089728Y-59301874D01*
X153089719Y-59301735D01*
X153094623Y-59300335D01*
X153107883Y-59299189D01*
X153128302Y-59298290D01*
X153154683Y-59297632D01*
X153185830Y-59297207D01*
X153220546Y-59297008D01*
X153257635Y-59297029D01*
X153295900Y-59297263D01*
X153334144Y-59297702D01*
X153371171Y-59298339D01*
X153405784Y-59299167D01*
X153436787Y-59300180D01*
X153462983Y-59301371D01*
X153483176Y-59302731D01*
X153496169Y-59304255D01*
X153534377Y-59314080D01*
X153577837Y-59331853D01*
X153617852Y-59355097D01*
X153622411Y-59359314D01*
X153633172Y-59370560D01*
X153649346Y-59388103D01*
X153670453Y-59411391D01*
X153696012Y-59439876D01*
X153725543Y-59473005D01*
X153758563Y-59510229D01*
X153794594Y-59550997D01*
X153833154Y-59594758D01*
X153873762Y-59640962D01*
X153915938Y-59689059D01*
X153959200Y-59738498D01*
X154003069Y-59788729D01*
X154047064Y-59839201D01*
X154090704Y-59889363D01*
X154133507Y-59938665D01*
X154174994Y-59986557D01*
X154214684Y-60032487D01*
X154252096Y-60075907D01*
X154286749Y-60116264D01*
X154318162Y-60153009D01*
X154345856Y-60185591D01*
X154369348Y-60213460D01*
X154388159Y-60236065D01*
X154401808Y-60252855D01*
X154428360Y-60287166D01*
X154464904Y-60337160D01*
X154500725Y-60389080D01*
X154533807Y-60439986D01*
X154562136Y-60486936D01*
X154570787Y-60502230D01*
X154616754Y-60593677D01*
X154653087Y-60685559D01*
X154679806Y-60777957D01*
X154696930Y-60870950D01*
X154704479Y-60964621D01*
X154703908Y-60991479D01*
X154702472Y-61059048D01*
G37*
G36*
X146568085Y-60482174D02*
G01*
X146570733Y-60503852D01*
X146583616Y-60609278D01*
X146596197Y-60712175D01*
X146608424Y-60812128D01*
X146620247Y-60908722D01*
X146631615Y-61001540D01*
X146642476Y-61090168D01*
X146652779Y-61174190D01*
X146662474Y-61253190D01*
X146671509Y-61326753D01*
X146679833Y-61394464D01*
X146687395Y-61455906D01*
X146694145Y-61510665D01*
X146700030Y-61558324D01*
X146705001Y-61598469D01*
X146709005Y-61630684D01*
X146711993Y-61654553D01*
X146713912Y-61669661D01*
X146714713Y-61675592D01*
X146717180Y-61688879D01*
X146502359Y-61688879D01*
X146287537Y-61688879D01*
X146257161Y-61441257D01*
X146253902Y-61414692D01*
X146246378Y-61353360D01*
X146238286Y-61287416D01*
X146229918Y-61219229D01*
X146221564Y-61151164D01*
X146213515Y-61085589D01*
X146206061Y-61024872D01*
X146199492Y-60971379D01*
X146172199Y-60749123D01*
X146066009Y-60749123D01*
X146032875Y-60749238D01*
X145994885Y-60750192D01*
X145964209Y-60752831D01*
X145939492Y-60757998D01*
X145919378Y-60766535D01*
X145902510Y-60779283D01*
X145887532Y-60797086D01*
X145873089Y-60820785D01*
X145857825Y-60851223D01*
X145840383Y-60889241D01*
X145835545Y-60899966D01*
X145824975Y-60923400D01*
X145811130Y-60954093D01*
X145794437Y-60991097D01*
X145775323Y-61033467D01*
X145754216Y-61080257D01*
X145731541Y-61130520D01*
X145707727Y-61183309D01*
X145683199Y-61237679D01*
X145658385Y-61292684D01*
X145638126Y-61337455D01*
X145614766Y-61388750D01*
X145592511Y-61437264D01*
X145571715Y-61482244D01*
X145552735Y-61522934D01*
X145535923Y-61558578D01*
X145521636Y-61588420D01*
X145510226Y-61611706D01*
X145502049Y-61627680D01*
X145497459Y-61635587D01*
X145480906Y-61653218D01*
X145452847Y-61671824D01*
X145424209Y-61686463D01*
X145205225Y-61687857D01*
X145168056Y-61688052D01*
X145125584Y-61688167D01*
X145087010Y-61688153D01*
X145053295Y-61688017D01*
X145025400Y-61687765D01*
X145004285Y-61687405D01*
X144990912Y-61686942D01*
X144986241Y-61686382D01*
X144986452Y-61685795D01*
X144989749Y-61678462D01*
X144996785Y-61663344D01*
X145007222Y-61641145D01*
X145020726Y-61612568D01*
X145036960Y-61578317D01*
X145055587Y-61539095D01*
X145076272Y-61495604D01*
X145098679Y-61448548D01*
X145122472Y-61398631D01*
X145147315Y-61346555D01*
X145172871Y-61293024D01*
X145198804Y-61238742D01*
X145224779Y-61184410D01*
X145250460Y-61130733D01*
X145275510Y-61078414D01*
X145299593Y-61028155D01*
X145322374Y-60980661D01*
X145343516Y-60936635D01*
X145362683Y-60896779D01*
X145379540Y-60861797D01*
X145393749Y-60832392D01*
X145404976Y-60809267D01*
X145412883Y-60793126D01*
X145417136Y-60784673D01*
X145430271Y-60763288D01*
X145452217Y-60734773D01*
X145477869Y-60707082D01*
X145504592Y-60683272D01*
X145528176Y-60664630D01*
X145514494Y-60659276D01*
X145513576Y-60658918D01*
X145498972Y-60653370D01*
X145483153Y-60647543D01*
X145471992Y-60643408D01*
X145396850Y-60610082D01*
X145325260Y-60568827D01*
X145258160Y-60520462D01*
X145196488Y-60465807D01*
X145141182Y-60405680D01*
X145093182Y-60340902D01*
X145053425Y-60272292D01*
X145049883Y-60265174D01*
X145017394Y-60190632D01*
X144993330Y-60115547D01*
X144977375Y-60038433D01*
X144969215Y-59957805D01*
X144969164Y-59951388D01*
X145394820Y-59951388D01*
X145396999Y-60013711D01*
X145406555Y-60079963D01*
X145424071Y-60146296D01*
X145448848Y-60206315D01*
X145480741Y-60259872D01*
X145519607Y-60306821D01*
X145565302Y-60347014D01*
X145617679Y-60380304D01*
X145676596Y-60406546D01*
X145741908Y-60425592D01*
X145813471Y-60437295D01*
X145829844Y-60438566D01*
X145854837Y-60439781D01*
X145885919Y-60440814D01*
X145921253Y-60441613D01*
X145959002Y-60442129D01*
X145997328Y-60442313D01*
X146134267Y-60442313D01*
X146089943Y-60085978D01*
X146083611Y-60035061D01*
X146076446Y-59977415D01*
X146069593Y-59922247D01*
X146063163Y-59870446D01*
X146057265Y-59822901D01*
X146052010Y-59780500D01*
X146047508Y-59744132D01*
X146043868Y-59714687D01*
X146041203Y-59693053D01*
X146039620Y-59680119D01*
X146033622Y-59630595D01*
X145896976Y-59630595D01*
X145895452Y-59630595D01*
X145833855Y-59630986D01*
X145780742Y-59632228D01*
X145734987Y-59634476D01*
X145695462Y-59637884D01*
X145661039Y-59642605D01*
X145630592Y-59648793D01*
X145602992Y-59656603D01*
X145577112Y-59666188D01*
X145551824Y-59677701D01*
X145542358Y-59682730D01*
X145512292Y-59702757D01*
X145483052Y-59727637D01*
X145457442Y-59754804D01*
X145438263Y-59781689D01*
X145432595Y-59791967D01*
X145412760Y-59839718D01*
X145400121Y-59893124D01*
X145394820Y-59951388D01*
X144969164Y-59951388D01*
X144968533Y-59872178D01*
X144968724Y-59866734D01*
X144971301Y-59820627D01*
X144975711Y-59780775D01*
X144982498Y-59744172D01*
X144992206Y-59707809D01*
X145005380Y-59668680D01*
X145020460Y-59632459D01*
X145051983Y-59576551D01*
X145091678Y-59524911D01*
X145139079Y-59477880D01*
X145193723Y-59435798D01*
X145255146Y-59399006D01*
X145322884Y-59367843D01*
X145396473Y-59342651D01*
X145475450Y-59323769D01*
X145490043Y-59321040D01*
X145509794Y-59317626D01*
X145529510Y-59314645D01*
X145549935Y-59312067D01*
X145571816Y-59309865D01*
X145595898Y-59308008D01*
X145622929Y-59306468D01*
X145653655Y-59305216D01*
X145688820Y-59304224D01*
X145729172Y-59303462D01*
X145775457Y-59302901D01*
X145828420Y-59302513D01*
X145888808Y-59302268D01*
X145957367Y-59302138D01*
X146034843Y-59302094D01*
X146423924Y-59302043D01*
X146563216Y-60442313D01*
X146568085Y-60482174D01*
G37*
G36*
X144535291Y-60807748D02*
G01*
X144579997Y-60900496D01*
X144623054Y-60989865D01*
X144664292Y-61075501D01*
X144703539Y-61157048D01*
X144740626Y-61234153D01*
X144775382Y-61306460D01*
X144807636Y-61373614D01*
X144837219Y-61435260D01*
X144863960Y-61491045D01*
X144887688Y-61540613D01*
X144908233Y-61583609D01*
X144925425Y-61619679D01*
X144939093Y-61648467D01*
X144949067Y-61669620D01*
X144955176Y-61682782D01*
X144957251Y-61687598D01*
X144955637Y-61689141D01*
X144949766Y-61690515D01*
X144938858Y-61691603D01*
X144922141Y-61692433D01*
X144898845Y-61693033D01*
X144868199Y-61693427D01*
X144829431Y-61693644D01*
X144781772Y-61693711D01*
X144755191Y-61693696D01*
X144709288Y-61693531D01*
X144671467Y-61693082D01*
X144640680Y-61692224D01*
X144615877Y-61690834D01*
X144596007Y-61688787D01*
X144580022Y-61685959D01*
X144566872Y-61682225D01*
X144555507Y-61677460D01*
X144544877Y-61671541D01*
X144533932Y-61664343D01*
X144531085Y-61662373D01*
X144521704Y-61655584D01*
X144513169Y-61648574D01*
X144505088Y-61640624D01*
X144497066Y-61631013D01*
X144488712Y-61619023D01*
X144479630Y-61603934D01*
X144469429Y-61585028D01*
X144457715Y-61561584D01*
X144444094Y-61532883D01*
X144428173Y-61498207D01*
X144409559Y-61456836D01*
X144387859Y-61408049D01*
X144362679Y-61351129D01*
X144249414Y-61094767D01*
X143806109Y-61094676D01*
X143797642Y-61094675D01*
X143733429Y-61094678D01*
X143672125Y-61094706D01*
X143614405Y-61094757D01*
X143560943Y-61094829D01*
X143512417Y-61094921D01*
X143469501Y-61095032D01*
X143432871Y-61095158D01*
X143403202Y-61095299D01*
X143381170Y-61095453D01*
X143367451Y-61095619D01*
X143362719Y-61095794D01*
X143362323Y-61097868D01*
X143360260Y-61108340D01*
X143356584Y-61126879D01*
X143351466Y-61152627D01*
X143345077Y-61184727D01*
X143337588Y-61222321D01*
X143329169Y-61264551D01*
X143319990Y-61310561D01*
X143310223Y-61359493D01*
X143298580Y-61417814D01*
X143288287Y-61469030D01*
X143279410Y-61512265D01*
X143271689Y-61548274D01*
X143264865Y-61577811D01*
X143258677Y-61601630D01*
X143252867Y-61620485D01*
X143247174Y-61635129D01*
X143241339Y-61646317D01*
X143235103Y-61654803D01*
X143228204Y-61661340D01*
X143220385Y-61666682D01*
X143211385Y-61671584D01*
X143200945Y-61676800D01*
X143171955Y-61691295D01*
X142985936Y-61691295D01*
X142956806Y-61691292D01*
X142914872Y-61691254D01*
X142881182Y-61691134D01*
X142854846Y-61690886D01*
X142834974Y-61690463D01*
X142820675Y-61689818D01*
X142811058Y-61688905D01*
X142805234Y-61687676D01*
X142802310Y-61686085D01*
X142801398Y-61684086D01*
X142801606Y-61681632D01*
X142801662Y-61681371D01*
X142803258Y-61674523D01*
X142806957Y-61658848D01*
X142812642Y-61634832D01*
X142820199Y-61602957D01*
X142829512Y-61563710D01*
X142840466Y-61517573D01*
X142852945Y-61465032D01*
X142866836Y-61406570D01*
X142882021Y-61342672D01*
X142898386Y-61273823D01*
X142915817Y-61200506D01*
X142934197Y-61123206D01*
X142953411Y-61042407D01*
X142973344Y-60958594D01*
X142993881Y-60872251D01*
X143014284Y-60786482D01*
X143425617Y-60786482D01*
X143428631Y-60786973D01*
X143440499Y-60787560D01*
X143460651Y-60788109D01*
X143488319Y-60788612D01*
X143522738Y-60789060D01*
X143563138Y-60789445D01*
X143608755Y-60789760D01*
X143658820Y-60789994D01*
X143712567Y-60790141D01*
X143769228Y-60790192D01*
X143822302Y-60790186D01*
X143881054Y-60790153D01*
X143931313Y-60790076D01*
X143973733Y-60789940D01*
X144008967Y-60789728D01*
X144037667Y-60789424D01*
X144060487Y-60789012D01*
X144078080Y-60788475D01*
X144091098Y-60787798D01*
X144100195Y-60786964D01*
X144106023Y-60785957D01*
X144109236Y-60784761D01*
X144110487Y-60783359D01*
X144110428Y-60781736D01*
X144110337Y-60781468D01*
X144107486Y-60774707D01*
X144101015Y-60759987D01*
X144091256Y-60738045D01*
X144078542Y-60709617D01*
X144063207Y-60675439D01*
X144045583Y-60636246D01*
X144026004Y-60592774D01*
X144004801Y-60545760D01*
X143982309Y-60495940D01*
X143958860Y-60444049D01*
X143934788Y-60390823D01*
X143910424Y-60336999D01*
X143886103Y-60283312D01*
X143862157Y-60230498D01*
X143838919Y-60179294D01*
X143816722Y-60130435D01*
X143795899Y-60084657D01*
X143776783Y-60042696D01*
X143759707Y-60005288D01*
X143745004Y-59973169D01*
X143733007Y-59947075D01*
X143724050Y-59927742D01*
X143718197Y-59915094D01*
X143703150Y-59881842D01*
X143687762Y-59846965D01*
X143673542Y-59813907D01*
X143661999Y-59786115D01*
X143636012Y-59721794D01*
X143625348Y-59785673D01*
X143623476Y-59796603D01*
X143617868Y-59827478D01*
X143611127Y-59862724D01*
X143603940Y-59898792D01*
X143596994Y-59932132D01*
X143594224Y-59945268D01*
X143589507Y-59968050D01*
X143583418Y-59997750D01*
X143576120Y-60033548D01*
X143567780Y-60074624D01*
X143558560Y-60120160D01*
X143548625Y-60169334D01*
X143538141Y-60221330D01*
X143527270Y-60275325D01*
X143516177Y-60330502D01*
X143505028Y-60386041D01*
X143493985Y-60441122D01*
X143483214Y-60494926D01*
X143472879Y-60546633D01*
X143463145Y-60595425D01*
X143454174Y-60640481D01*
X143446133Y-60680982D01*
X143439186Y-60716108D01*
X143433496Y-60745041D01*
X143429228Y-60766961D01*
X143426547Y-60781048D01*
X143425617Y-60786482D01*
X143014284Y-60786482D01*
X143014907Y-60783862D01*
X143036306Y-60693912D01*
X143057963Y-60602884D01*
X143079763Y-60511264D01*
X143101591Y-60419535D01*
X143123331Y-60328182D01*
X143144868Y-60237689D01*
X143166087Y-60148541D01*
X143186873Y-60061222D01*
X143207110Y-59976216D01*
X143226684Y-59894007D01*
X143245478Y-59815080D01*
X143263378Y-59739919D01*
X143280269Y-59669009D01*
X143296035Y-59602834D01*
X143310561Y-59541878D01*
X143323731Y-59486625D01*
X143335432Y-59437560D01*
X143345546Y-59395167D01*
X143353960Y-59359931D01*
X143360557Y-59332336D01*
X143365223Y-59312865D01*
X143367845Y-59301945D01*
X143588715Y-59303202D01*
X143809584Y-59304458D01*
X144383418Y-60492972D01*
X144392980Y-60512778D01*
X144441612Y-60613534D01*
X144489105Y-60711975D01*
X144523530Y-60783359D01*
X144535291Y-60807748D01*
G37*
G36*
X149181608Y-60390461D02*
G01*
X149194611Y-60496184D01*
X149197225Y-60517438D01*
X149210169Y-60622688D01*
X149222789Y-60725369D01*
X149235035Y-60825068D01*
X149246858Y-60921372D01*
X149258206Y-61013869D01*
X149269029Y-61102144D01*
X149279276Y-61185786D01*
X149288897Y-61264380D01*
X149297841Y-61337515D01*
X149300038Y-61355495D01*
X149306058Y-61404776D01*
X149313498Y-61465750D01*
X149320109Y-61520026D01*
X149325842Y-61567189D01*
X149330646Y-61606826D01*
X149334470Y-61638525D01*
X149337264Y-61661873D01*
X149338978Y-61676455D01*
X149339560Y-61681860D01*
X149339296Y-61682638D01*
X149337537Y-61683762D01*
X149333664Y-61684745D01*
X149327136Y-61685593D01*
X149317415Y-61686312D01*
X149303961Y-61686909D01*
X149286236Y-61687388D01*
X149263700Y-61687757D01*
X149235814Y-61688022D01*
X149202038Y-61688188D01*
X149161835Y-61688262D01*
X149114664Y-61688250D01*
X149059987Y-61688158D01*
X148997264Y-61687992D01*
X148925956Y-61687759D01*
X148845524Y-61687463D01*
X148792019Y-61687262D01*
X148716361Y-61686975D01*
X148649297Y-61686693D01*
X148590175Y-61686385D01*
X148538345Y-61686022D01*
X148493156Y-61685574D01*
X148453956Y-61685010D01*
X148420094Y-61684301D01*
X148390921Y-61683416D01*
X148365783Y-61682326D01*
X148344032Y-61681000D01*
X148325015Y-61679408D01*
X148308082Y-61677521D01*
X148292581Y-61675308D01*
X148277862Y-61672739D01*
X148263274Y-61669784D01*
X148248166Y-61666414D01*
X148231887Y-61662597D01*
X148213785Y-61658305D01*
X148165156Y-61644896D01*
X148101939Y-61622594D01*
X148038198Y-61595227D01*
X147977015Y-61564139D01*
X147921470Y-61530675D01*
X147912117Y-61524270D01*
X147879808Y-61499450D01*
X147845538Y-61469658D01*
X147811342Y-61436905D01*
X147779256Y-61403203D01*
X147751315Y-61370564D01*
X147729556Y-61341000D01*
X147718525Y-61323770D01*
X147677560Y-61249339D01*
X147645829Y-61172314D01*
X147623237Y-61092377D01*
X147609689Y-61009208D01*
X147605723Y-60934413D01*
X148029827Y-60934413D01*
X148033018Y-60989170D01*
X148042248Y-61044453D01*
X148057440Y-61098650D01*
X148078517Y-61150150D01*
X148097598Y-61184852D01*
X148130887Y-61229610D01*
X148170717Y-61267429D01*
X148217184Y-61298370D01*
X148270387Y-61322495D01*
X148330422Y-61339865D01*
X148397388Y-61350541D01*
X148404281Y-61351105D01*
X148423680Y-61352089D01*
X148450779Y-61352990D01*
X148484307Y-61353783D01*
X148522994Y-61354446D01*
X148565570Y-61354954D01*
X148610765Y-61355284D01*
X148657308Y-61355411D01*
X148871328Y-61355495D01*
X148868599Y-61339792D01*
X148868339Y-61338094D01*
X148866914Y-61327441D01*
X148864515Y-61308634D01*
X148861257Y-61282608D01*
X148857252Y-61250297D01*
X148852614Y-61212635D01*
X148847455Y-61170555D01*
X148841888Y-61124992D01*
X148836028Y-61076880D01*
X148829986Y-61027151D01*
X148823876Y-60976742D01*
X148817812Y-60926584D01*
X148811905Y-60877612D01*
X148806270Y-60830761D01*
X148801019Y-60786964D01*
X148796266Y-60747154D01*
X148792123Y-60712267D01*
X148788704Y-60683235D01*
X148786121Y-60660993D01*
X148784489Y-60646474D01*
X148783920Y-60640613D01*
X148783626Y-60640217D01*
X148776747Y-60638800D01*
X148761541Y-60637669D01*
X148739074Y-60636810D01*
X148710413Y-60636212D01*
X148676626Y-60635862D01*
X148638780Y-60635749D01*
X148597941Y-60635860D01*
X148555176Y-60636183D01*
X148511553Y-60636706D01*
X148468137Y-60637416D01*
X148425997Y-60638301D01*
X148386199Y-60639350D01*
X148349811Y-60640549D01*
X148317898Y-60641887D01*
X148291528Y-60643351D01*
X148271768Y-60644930D01*
X148259686Y-60646611D01*
X148230062Y-60654195D01*
X148195027Y-60665900D01*
X148163868Y-60679261D01*
X148139471Y-60693162D01*
X148120018Y-60708722D01*
X148096805Y-60732057D01*
X148076080Y-60757610D01*
X148060851Y-60781982D01*
X148057264Y-60789407D01*
X148041873Y-60832920D01*
X148032753Y-60881793D01*
X148029827Y-60934413D01*
X147605723Y-60934413D01*
X147605091Y-60922487D01*
X147605723Y-60892220D01*
X147612548Y-60826125D01*
X147627003Y-60765593D01*
X147649257Y-60710154D01*
X147679480Y-60659342D01*
X147717845Y-60612687D01*
X147729154Y-60601170D01*
X147760696Y-60572991D01*
X147795377Y-60547835D01*
X147834499Y-60524990D01*
X147879364Y-60503746D01*
X147931273Y-60483391D01*
X147991529Y-60463214D01*
X147992014Y-60462114D01*
X147986621Y-60458074D01*
X147974603Y-60452075D01*
X147957533Y-60444961D01*
X147921070Y-60429786D01*
X147850459Y-60393880D01*
X147785711Y-60351913D01*
X147727391Y-60304431D01*
X147676065Y-60251981D01*
X147632296Y-60195108D01*
X147596651Y-60134357D01*
X147569694Y-60070275D01*
X147565847Y-60058741D01*
X147552073Y-60010073D01*
X147542779Y-59961625D01*
X147539097Y-59925966D01*
X147972193Y-59925966D01*
X147975368Y-59980534D01*
X147983777Y-60034612D01*
X147997055Y-60086100D01*
X148014841Y-60132897D01*
X148036773Y-60172903D01*
X148044166Y-60183497D01*
X148079276Y-60223451D01*
X148121929Y-60257929D01*
X148171623Y-60286673D01*
X148227852Y-60309429D01*
X148290112Y-60325940D01*
X148357900Y-60335950D01*
X148359862Y-60336128D01*
X148378377Y-60337335D01*
X148403189Y-60338364D01*
X148433070Y-60339213D01*
X148466794Y-60339882D01*
X148503132Y-60340368D01*
X148540856Y-60340671D01*
X148578740Y-60340789D01*
X148615555Y-60340721D01*
X148650074Y-60340466D01*
X148681070Y-60340023D01*
X148707315Y-60339390D01*
X148727581Y-60338566D01*
X148740641Y-60337550D01*
X148745267Y-60336341D01*
X148745216Y-60335624D01*
X148744311Y-60327304D01*
X148742364Y-60310608D01*
X148739491Y-60286472D01*
X148735807Y-60255833D01*
X148731426Y-60219628D01*
X148726464Y-60178795D01*
X148721036Y-60134270D01*
X148715258Y-60086990D01*
X148709243Y-60037893D01*
X148703107Y-59987915D01*
X148696966Y-59937993D01*
X148690934Y-59889064D01*
X148685127Y-59842066D01*
X148679660Y-59797935D01*
X148674647Y-59757609D01*
X148670205Y-59722024D01*
X148666447Y-59692118D01*
X148663490Y-59668826D01*
X148661448Y-59653088D01*
X148660436Y-59645838D01*
X148657687Y-59629676D01*
X148444191Y-59631905D01*
X148438061Y-59631969D01*
X148386937Y-59632546D01*
X148344335Y-59633131D01*
X148309227Y-59633774D01*
X148280584Y-59634521D01*
X148257378Y-59635420D01*
X148238581Y-59636520D01*
X148223163Y-59637869D01*
X148210096Y-59639513D01*
X148198351Y-59641502D01*
X148186900Y-59643882D01*
X148163694Y-59649657D01*
X148114247Y-59667076D01*
X148072659Y-59689893D01*
X148038655Y-59718371D01*
X148011956Y-59752772D01*
X147992287Y-59793358D01*
X147979371Y-59840392D01*
X147974614Y-59873011D01*
X147972193Y-59925966D01*
X147539097Y-59925966D01*
X147537475Y-59910262D01*
X147535670Y-59852851D01*
X147535661Y-59849114D01*
X147536587Y-59800925D01*
X147539752Y-59759378D01*
X147545560Y-59721814D01*
X147554413Y-59685572D01*
X147566716Y-59647991D01*
X147588169Y-59598392D01*
X147621319Y-59543639D01*
X147662396Y-59494103D01*
X147711188Y-59449949D01*
X147767481Y-59411341D01*
X147831062Y-59378443D01*
X147901716Y-59351420D01*
X147979231Y-59330436D01*
X147992151Y-59327575D01*
X148009401Y-59323818D01*
X148025458Y-59320503D01*
X148041002Y-59317602D01*
X148056711Y-59315083D01*
X148073263Y-59312916D01*
X148091336Y-59311072D01*
X148111610Y-59309518D01*
X148134762Y-59308226D01*
X148161471Y-59307165D01*
X148192416Y-59306304D01*
X148228275Y-59305614D01*
X148269726Y-59305063D01*
X148317448Y-59304621D01*
X148372119Y-59304259D01*
X148434419Y-59303945D01*
X148505024Y-59303649D01*
X148584614Y-59303341D01*
X148652441Y-59303086D01*
X148722071Y-59302845D01*
X148783092Y-59302669D01*
X148836068Y-59302564D01*
X148881563Y-59302540D01*
X148920141Y-59302603D01*
X148952368Y-59302761D01*
X148978806Y-59303023D01*
X149000021Y-59303396D01*
X149016576Y-59303888D01*
X149029037Y-59304506D01*
X149037966Y-59305259D01*
X149043929Y-59306154D01*
X149047490Y-59307200D01*
X149049212Y-59308403D01*
X149049661Y-59309772D01*
X149049684Y-59310107D01*
X149050495Y-59317430D01*
X149052426Y-59333848D01*
X149055429Y-59358948D01*
X149059452Y-59392317D01*
X149064444Y-59433541D01*
X149070356Y-59482207D01*
X149077137Y-59537902D01*
X149084735Y-59600211D01*
X149093101Y-59668722D01*
X149102185Y-59743022D01*
X149111935Y-59822696D01*
X149122301Y-59907331D01*
X149133233Y-59996515D01*
X149144681Y-60089833D01*
X149156592Y-60186872D01*
X149168918Y-60287220D01*
X149174956Y-60336341D01*
X149181608Y-60390461D01*
G37*
G36*
X149681400Y-59298219D02*
G01*
X149883121Y-59299627D01*
X149905315Y-59312674D01*
X149912453Y-59317271D01*
X149927957Y-59329545D01*
X149939597Y-59341664D01*
X149941095Y-59343781D01*
X149948168Y-59354629D01*
X149959765Y-59373032D01*
X149975570Y-59398466D01*
X149995266Y-59430405D01*
X150018537Y-59468328D01*
X150045068Y-59511709D01*
X150074542Y-59560026D01*
X150106643Y-59612754D01*
X150141055Y-59669369D01*
X150177462Y-59729348D01*
X150215547Y-59792167D01*
X150254994Y-59857301D01*
X150295488Y-59924228D01*
X150336712Y-59992423D01*
X150378349Y-60061363D01*
X150420085Y-60130524D01*
X150461601Y-60199381D01*
X150502584Y-60267411D01*
X150542716Y-60334091D01*
X150581680Y-60398896D01*
X150619162Y-60461303D01*
X150654845Y-60520788D01*
X150688412Y-60576827D01*
X150719548Y-60628896D01*
X150747936Y-60676471D01*
X150773260Y-60719029D01*
X150795205Y-60756046D01*
X150813453Y-60786997D01*
X150827689Y-60811360D01*
X150837597Y-60828610D01*
X150842860Y-60838224D01*
X150849213Y-60850601D01*
X150859974Y-60870501D01*
X150868876Y-60885601D01*
X150875133Y-60894601D01*
X150877959Y-60896203D01*
X150879896Y-60889538D01*
X150883760Y-60875404D01*
X150888929Y-60856073D01*
X150894828Y-60833677D01*
X150896097Y-60828823D01*
X150898470Y-60819797D01*
X150900819Y-60811064D01*
X150903301Y-60802177D01*
X150906074Y-60792690D01*
X150909294Y-60782154D01*
X150913119Y-60770125D01*
X150917707Y-60756154D01*
X150923216Y-60739796D01*
X150929801Y-60720603D01*
X150937622Y-60698129D01*
X150946835Y-60671927D01*
X150957597Y-60641550D01*
X150970067Y-60606552D01*
X150984402Y-60566485D01*
X151000758Y-60520903D01*
X151019293Y-60469359D01*
X151040166Y-60411407D01*
X151063532Y-60346599D01*
X151089551Y-60274489D01*
X151118378Y-60194631D01*
X151150172Y-60106576D01*
X151185089Y-60009880D01*
X151210826Y-59938695D01*
X151237927Y-59863929D01*
X151264086Y-59791955D01*
X151289109Y-59723301D01*
X151312803Y-59658490D01*
X151334974Y-59598048D01*
X151355427Y-59542500D01*
X151373970Y-59492370D01*
X151390408Y-59448184D01*
X151404548Y-59410468D01*
X151416195Y-59379745D01*
X151425157Y-59356541D01*
X151431239Y-59341381D01*
X151434247Y-59334791D01*
X151439468Y-59326949D01*
X151444671Y-59320068D01*
X151450475Y-59314447D01*
X151457787Y-59309950D01*
X151467512Y-59306442D01*
X151480558Y-59303788D01*
X151497829Y-59301853D01*
X151520232Y-59300500D01*
X151548673Y-59299596D01*
X151584059Y-59299005D01*
X151627295Y-59298591D01*
X151679288Y-59298219D01*
X151702374Y-59298062D01*
X151747878Y-59297789D01*
X151784956Y-59297657D01*
X151814464Y-59297695D01*
X151837258Y-59297931D01*
X151854196Y-59298396D01*
X151866133Y-59299119D01*
X151873926Y-59300130D01*
X151878433Y-59301458D01*
X151880508Y-59303133D01*
X151881010Y-59305185D01*
X151881036Y-59305564D01*
X151881863Y-59313041D01*
X151883808Y-59329607D01*
X151886822Y-59354850D01*
X151890853Y-59388357D01*
X151895852Y-59429714D01*
X151901768Y-59478508D01*
X151908551Y-59534327D01*
X151916150Y-59596757D01*
X151924515Y-59665384D01*
X151933596Y-59739796D01*
X151943342Y-59819580D01*
X151953703Y-59904322D01*
X151964629Y-59993610D01*
X151976068Y-60087029D01*
X151987971Y-60184168D01*
X152000288Y-60284613D01*
X152012967Y-60387951D01*
X152025959Y-60493768D01*
X152028772Y-60516671D01*
X152041700Y-60621978D01*
X152054305Y-60724710D01*
X152066536Y-60824454D01*
X152078343Y-60920799D01*
X152089676Y-61013330D01*
X152100484Y-61101636D01*
X152110716Y-61185304D01*
X152120323Y-61263921D01*
X152129255Y-61337074D01*
X152137460Y-61404351D01*
X152144888Y-61465339D01*
X152151489Y-61519624D01*
X152157213Y-61566795D01*
X152162009Y-61606439D01*
X152165827Y-61638142D01*
X152168617Y-61661493D01*
X152170327Y-61676078D01*
X152170909Y-61681485D01*
X152170649Y-61682638D01*
X152168632Y-61684323D01*
X152163883Y-61685662D01*
X152155536Y-61686683D01*
X152142723Y-61687415D01*
X152124580Y-61687885D01*
X152100240Y-61688123D01*
X152068836Y-61688157D01*
X152029502Y-61688016D01*
X151981372Y-61687727D01*
X151791835Y-61686463D01*
X151696422Y-60896488D01*
X151687299Y-60820801D01*
X151675543Y-60722786D01*
X151664431Y-60629569D01*
X151654007Y-60541550D01*
X151644317Y-60459127D01*
X151635408Y-60382701D01*
X151627325Y-60312670D01*
X151620114Y-60249434D01*
X151613820Y-60193391D01*
X151608490Y-60144942D01*
X151604169Y-60104485D01*
X151600902Y-60072420D01*
X151598737Y-60049146D01*
X151597717Y-60035062D01*
X151597129Y-60023229D01*
X151595662Y-59999443D01*
X151594080Y-59980082D01*
X151592539Y-59966892D01*
X151591193Y-59961614D01*
X151591111Y-59961667D01*
X151588695Y-59967102D01*
X151583216Y-59981063D01*
X151574856Y-60003051D01*
X151563798Y-60032569D01*
X151550225Y-60069117D01*
X151534321Y-60112197D01*
X151516268Y-60161312D01*
X151496248Y-60215962D01*
X151474446Y-60275648D01*
X151451043Y-60339873D01*
X151426223Y-60408139D01*
X151400169Y-60479945D01*
X151373063Y-60554795D01*
X151345089Y-60632190D01*
X151342794Y-60638545D01*
X151314699Y-60716237D01*
X151287370Y-60791623D01*
X151261001Y-60864181D01*
X151235783Y-60933389D01*
X151211909Y-60998725D01*
X151189572Y-61059667D01*
X151168963Y-61115691D01*
X151150276Y-61166277D01*
X151133702Y-61210902D01*
X151119435Y-61249044D01*
X151107666Y-61280181D01*
X151098588Y-61303790D01*
X151092394Y-61319350D01*
X151089275Y-61326338D01*
X151083145Y-61335421D01*
X151063716Y-61356479D01*
X151040625Y-61373803D01*
X151017230Y-61384675D01*
X151006309Y-61387251D01*
X150982501Y-61390533D01*
X150954177Y-61392528D01*
X150924498Y-61393126D01*
X150896626Y-61392217D01*
X150873723Y-61389691D01*
X150863131Y-61387656D01*
X150828295Y-61377264D01*
X150798888Y-61361431D01*
X150772145Y-61338771D01*
X150771811Y-61338428D01*
X150767188Y-61332889D01*
X150760468Y-61323670D01*
X150751462Y-61310465D01*
X150739981Y-61292963D01*
X150725834Y-61270857D01*
X150708834Y-61243838D01*
X150688789Y-61211597D01*
X150665511Y-61173827D01*
X150638810Y-61130219D01*
X150608497Y-61080464D01*
X150574381Y-61024253D01*
X150536275Y-60961279D01*
X150493987Y-60891233D01*
X150447329Y-60813807D01*
X150396111Y-60728692D01*
X150340144Y-60635579D01*
X150301420Y-60571131D01*
X150257861Y-60498655D01*
X150215859Y-60428789D01*
X150175678Y-60361970D01*
X150137579Y-60298635D01*
X150101826Y-60239219D01*
X150068682Y-60184159D01*
X150038409Y-60133891D01*
X150011270Y-60088853D01*
X149987529Y-60049481D01*
X149967448Y-60016210D01*
X149951290Y-59989479D01*
X149939318Y-59969722D01*
X149931795Y-59957377D01*
X149928983Y-59952880D01*
X149928618Y-59953217D01*
X149929130Y-59960156D01*
X149931218Y-59974309D01*
X149934641Y-59994139D01*
X149939159Y-60018107D01*
X149940649Y-60026786D01*
X149943569Y-60046174D01*
X149947526Y-60074166D01*
X149952447Y-60110201D01*
X149958261Y-60153718D01*
X149964895Y-60204158D01*
X149972277Y-60260960D01*
X149980336Y-60323564D01*
X149988999Y-60391408D01*
X149998194Y-60463934D01*
X150007849Y-60540580D01*
X150017893Y-60620786D01*
X150028252Y-60703992D01*
X150038855Y-60789637D01*
X150049630Y-60877161D01*
X150059089Y-60954167D01*
X150069448Y-61038411D01*
X150079455Y-61119686D01*
X150089047Y-61197483D01*
X150098160Y-61271293D01*
X150106730Y-61340607D01*
X150114695Y-61404914D01*
X150121992Y-61463705D01*
X150128557Y-61516471D01*
X150134326Y-61562703D01*
X150139238Y-61601890D01*
X150143227Y-61633524D01*
X150146232Y-61657094D01*
X150148189Y-61672092D01*
X150149035Y-61678008D01*
X150151462Y-61688879D01*
X149960520Y-61688879D01*
X149950189Y-61688876D01*
X149899439Y-61688752D01*
X149857792Y-61688435D01*
X149824776Y-61687913D01*
X149799918Y-61687171D01*
X149782747Y-61686198D01*
X149772791Y-61684979D01*
X149769577Y-61683501D01*
X149769549Y-61683166D01*
X149768717Y-61675910D01*
X149766767Y-61659566D01*
X149763750Y-61634543D01*
X149759715Y-61601255D01*
X149754714Y-61560113D01*
X149748796Y-61511528D01*
X149742013Y-61455912D01*
X149734413Y-61393678D01*
X149726048Y-61325236D01*
X149716969Y-61250999D01*
X149707224Y-61171379D01*
X149696865Y-61086786D01*
X149685942Y-60997633D01*
X149674505Y-60904332D01*
X149662605Y-60807294D01*
X149650292Y-60706931D01*
X149637616Y-60603654D01*
X149624628Y-60497877D01*
X149621875Y-60475461D01*
X149608942Y-60370097D01*
X149596333Y-60267285D01*
X149584097Y-60167440D01*
X149572285Y-60070974D01*
X149560948Y-59978302D01*
X149550135Y-59889838D01*
X149539898Y-59805996D01*
X149530287Y-59727190D01*
X149521352Y-59653835D01*
X149513143Y-59586344D01*
X149505711Y-59525132D01*
X149499107Y-59470612D01*
X149493380Y-59423198D01*
X149488582Y-59383305D01*
X149484762Y-59351347D01*
X149481971Y-59327738D01*
X149480260Y-59312891D01*
X149479678Y-59307222D01*
X149479678Y-59296812D01*
X149681400Y-59298219D01*
G37*
G36*
X140119558Y-59298219D02*
G01*
X140321280Y-59299627D01*
X140343474Y-59312674D01*
X140350612Y-59317271D01*
X140366116Y-59329545D01*
X140377755Y-59341664D01*
X140379254Y-59343781D01*
X140386327Y-59354629D01*
X140397924Y-59373032D01*
X140413728Y-59398466D01*
X140433424Y-59430405D01*
X140456696Y-59468328D01*
X140483227Y-59511709D01*
X140512701Y-59560026D01*
X140544802Y-59612754D01*
X140579214Y-59669369D01*
X140615620Y-59729348D01*
X140653705Y-59792167D01*
X140693153Y-59857301D01*
X140733647Y-59924228D01*
X140774870Y-59992423D01*
X140816508Y-60061363D01*
X140858243Y-60130524D01*
X140899760Y-60199381D01*
X140940742Y-60267411D01*
X140980874Y-60334091D01*
X141019839Y-60398896D01*
X141057321Y-60461303D01*
X141093003Y-60520788D01*
X141126571Y-60576827D01*
X141157706Y-60628896D01*
X141186095Y-60676471D01*
X141211419Y-60719029D01*
X141233363Y-60756046D01*
X141251612Y-60786997D01*
X141265848Y-60811360D01*
X141275755Y-60828610D01*
X141281018Y-60838224D01*
X141287372Y-60850601D01*
X141298133Y-60870501D01*
X141307034Y-60885601D01*
X141313291Y-60894601D01*
X141316118Y-60896203D01*
X141318055Y-60889538D01*
X141321919Y-60875404D01*
X141327088Y-60856073D01*
X141332986Y-60833677D01*
X141334255Y-60828823D01*
X141336629Y-60819797D01*
X141338978Y-60811064D01*
X141341460Y-60802177D01*
X141344232Y-60792690D01*
X141347452Y-60782154D01*
X141351278Y-60770125D01*
X141355866Y-60756154D01*
X141361374Y-60739796D01*
X141367960Y-60720603D01*
X141375781Y-60698129D01*
X141384993Y-60671927D01*
X141395756Y-60641550D01*
X141408226Y-60606552D01*
X141422560Y-60566485D01*
X141438916Y-60520903D01*
X141457452Y-60469359D01*
X141478324Y-60411407D01*
X141501691Y-60346599D01*
X141527709Y-60274489D01*
X141556537Y-60194631D01*
X141588330Y-60106576D01*
X141623248Y-60009880D01*
X141648984Y-59938695D01*
X141676086Y-59863929D01*
X141702245Y-59791955D01*
X141727268Y-59723301D01*
X141750962Y-59658490D01*
X141773132Y-59598048D01*
X141793586Y-59542500D01*
X141812129Y-59492370D01*
X141828567Y-59448184D01*
X141842706Y-59410468D01*
X141854354Y-59379745D01*
X141863315Y-59356541D01*
X141869397Y-59341381D01*
X141872405Y-59334791D01*
X141877627Y-59326949D01*
X141882830Y-59320068D01*
X141888634Y-59314447D01*
X141895946Y-59309950D01*
X141905671Y-59306442D01*
X141918716Y-59303788D01*
X141935987Y-59301853D01*
X141958390Y-59300500D01*
X141986832Y-59299596D01*
X142022217Y-59299005D01*
X142065454Y-59298591D01*
X142117447Y-59298219D01*
X142140533Y-59298062D01*
X142186037Y-59297789D01*
X142223115Y-59297657D01*
X142252623Y-59297695D01*
X142275417Y-59297931D01*
X142292355Y-59298396D01*
X142304292Y-59299119D01*
X142312085Y-59300130D01*
X142316591Y-59301458D01*
X142318667Y-59303133D01*
X142319168Y-59305185D01*
X142319195Y-59305564D01*
X142320022Y-59313041D01*
X142321967Y-59329607D01*
X142324980Y-59354850D01*
X142329012Y-59388357D01*
X142334011Y-59429714D01*
X142339927Y-59478508D01*
X142346709Y-59534327D01*
X142354309Y-59596757D01*
X142362674Y-59665384D01*
X142371755Y-59739796D01*
X142381501Y-59819580D01*
X142391862Y-59904322D01*
X142402787Y-59993610D01*
X142414227Y-60087029D01*
X142426130Y-60184168D01*
X142438446Y-60284613D01*
X142451126Y-60387951D01*
X142464118Y-60493768D01*
X142466931Y-60516671D01*
X142479859Y-60621978D01*
X142492464Y-60724710D01*
X142504695Y-60824454D01*
X142516502Y-60920799D01*
X142527834Y-61013330D01*
X142538642Y-61101636D01*
X142548875Y-61185304D01*
X142558482Y-61263921D01*
X142567413Y-61337074D01*
X142575618Y-61404351D01*
X142583047Y-61465339D01*
X142589648Y-61519624D01*
X142595372Y-61566795D01*
X142600168Y-61606439D01*
X142603986Y-61638142D01*
X142606775Y-61661493D01*
X142608486Y-61676078D01*
X142609067Y-61681485D01*
X142608808Y-61682638D01*
X142606791Y-61684323D01*
X142602042Y-61685662D01*
X142593694Y-61686683D01*
X142580882Y-61687415D01*
X142562739Y-61687885D01*
X142538399Y-61688123D01*
X142506995Y-61688157D01*
X142467661Y-61688016D01*
X142419530Y-61687727D01*
X142229993Y-61686463D01*
X142134581Y-60896488D01*
X142125458Y-60820801D01*
X142113702Y-60722786D01*
X142102589Y-60629569D01*
X142092165Y-60541550D01*
X142082476Y-60459127D01*
X142073567Y-60382701D01*
X142065484Y-60312670D01*
X142058273Y-60249434D01*
X142051979Y-60193391D01*
X142046649Y-60144942D01*
X142042328Y-60104485D01*
X142039061Y-60072420D01*
X142036895Y-60049146D01*
X142035876Y-60035062D01*
X142035287Y-60023229D01*
X142033820Y-59999443D01*
X142032239Y-59980082D01*
X142030697Y-59966892D01*
X142029351Y-59961614D01*
X142029269Y-59961667D01*
X142026854Y-59967102D01*
X142021374Y-59981063D01*
X142013014Y-60003051D01*
X142001957Y-60032569D01*
X141988384Y-60069117D01*
X141972480Y-60112197D01*
X141954426Y-60161312D01*
X141934407Y-60215962D01*
X141912604Y-60275648D01*
X141889202Y-60339873D01*
X141864382Y-60408139D01*
X141838327Y-60479945D01*
X141811222Y-60554795D01*
X141783248Y-60632190D01*
X141780953Y-60638545D01*
X141752857Y-60716237D01*
X141725529Y-60791623D01*
X141699160Y-60864181D01*
X141673942Y-60933389D01*
X141650068Y-60998725D01*
X141627731Y-61059667D01*
X141607122Y-61115691D01*
X141588435Y-61166277D01*
X141571861Y-61210902D01*
X141557594Y-61249044D01*
X141545825Y-61280181D01*
X141536747Y-61303790D01*
X141530552Y-61319350D01*
X141527433Y-61326338D01*
X141521304Y-61335421D01*
X141501874Y-61356479D01*
X141478784Y-61373803D01*
X141455388Y-61384675D01*
X141444467Y-61387251D01*
X141420659Y-61390533D01*
X141392335Y-61392528D01*
X141362657Y-61393126D01*
X141334785Y-61392217D01*
X141311882Y-61389691D01*
X141301290Y-61387656D01*
X141266454Y-61377264D01*
X141237047Y-61361431D01*
X141210304Y-61338771D01*
X141209970Y-61338428D01*
X141205346Y-61332889D01*
X141198626Y-61323670D01*
X141189621Y-61310465D01*
X141178139Y-61292963D01*
X141163993Y-61270857D01*
X141146992Y-61243838D01*
X141126948Y-61211597D01*
X141103670Y-61173827D01*
X141076969Y-61130219D01*
X141046655Y-61080464D01*
X141012540Y-61024253D01*
X140974433Y-60961279D01*
X140932146Y-60891233D01*
X140885488Y-60813807D01*
X140834270Y-60728692D01*
X140778302Y-60635579D01*
X140739578Y-60571131D01*
X140696020Y-60498655D01*
X140654018Y-60428789D01*
X140613836Y-60361970D01*
X140575738Y-60298635D01*
X140539985Y-60239219D01*
X140506840Y-60184159D01*
X140476567Y-60133891D01*
X140449429Y-60088853D01*
X140425688Y-60049481D01*
X140405607Y-60016210D01*
X140389449Y-59989479D01*
X140377477Y-59969722D01*
X140369954Y-59957377D01*
X140367142Y-59952880D01*
X140366776Y-59953217D01*
X140367289Y-59960156D01*
X140369377Y-59974309D01*
X140372800Y-59994139D01*
X140377318Y-60018107D01*
X140378808Y-60026786D01*
X140381728Y-60046174D01*
X140385685Y-60074166D01*
X140390606Y-60110201D01*
X140396419Y-60153718D01*
X140403053Y-60204158D01*
X140410436Y-60260960D01*
X140418495Y-60323564D01*
X140427158Y-60391408D01*
X140436353Y-60463934D01*
X140446008Y-60540580D01*
X140456051Y-60620786D01*
X140466411Y-60703992D01*
X140477014Y-60789637D01*
X140487789Y-60877161D01*
X140497247Y-60954167D01*
X140507607Y-61038411D01*
X140517614Y-61119686D01*
X140527206Y-61197483D01*
X140536318Y-61271293D01*
X140544889Y-61340607D01*
X140552854Y-61404914D01*
X140560151Y-61463705D01*
X140566715Y-61516471D01*
X140572485Y-61562703D01*
X140577396Y-61601890D01*
X140581386Y-61633524D01*
X140584391Y-61657094D01*
X140586348Y-61672092D01*
X140587194Y-61678008D01*
X140589621Y-61688879D01*
X140398678Y-61688879D01*
X140388348Y-61688876D01*
X140337598Y-61688752D01*
X140295950Y-61688435D01*
X140262934Y-61687913D01*
X140238077Y-61687171D01*
X140220906Y-61686198D01*
X140210950Y-61684979D01*
X140207736Y-61683501D01*
X140207708Y-61683166D01*
X140206876Y-61675910D01*
X140204926Y-61659566D01*
X140201908Y-61634543D01*
X140197874Y-61601255D01*
X140192873Y-61560113D01*
X140186955Y-61511528D01*
X140180171Y-61455912D01*
X140172572Y-61393678D01*
X140164207Y-61325236D01*
X140155127Y-61250999D01*
X140145383Y-61171379D01*
X140135024Y-61086786D01*
X140124101Y-60997633D01*
X140112664Y-60904332D01*
X140100764Y-60807294D01*
X140088450Y-60706931D01*
X140075775Y-60603654D01*
X140062786Y-60497877D01*
X140060034Y-60475461D01*
X140047101Y-60370097D01*
X140034491Y-60267285D01*
X140022255Y-60167440D01*
X140010444Y-60070974D01*
X139999106Y-59978302D01*
X139988294Y-59889838D01*
X139978057Y-59805996D01*
X139968446Y-59727190D01*
X139959511Y-59653835D01*
X139951302Y-59586344D01*
X139943870Y-59525132D01*
X139937266Y-59470612D01*
X139931539Y-59423198D01*
X139926741Y-59383305D01*
X139922921Y-59351347D01*
X139920130Y-59327738D01*
X139918418Y-59312891D01*
X139917837Y-59307222D01*
X139917837Y-59296812D01*
X140119558Y-59298219D01*
G37*
%LPC*%
D11*
G36*
X161290000Y-97282000D02*
G01*
X160782000Y-97790000D01*
X103378000Y-97790000D01*
X102870000Y-97282000D01*
X102870000Y-89916000D01*
X161290000Y-89916000D01*
X161290000Y-97282000D01*
G37*
D12*
X105410000Y-88011000D03*
X158750000Y-88011000D03*
D13*
X159067500Y-41275000D03*
X158750000Y-82931000D03*
X105092500Y-41275000D03*
D14*
X157289500Y-43624500D03*
D15*
X154749500Y-43624500D03*
D14*
X152209500Y-43624500D03*
X157289500Y-49339500D03*
X152209500Y-49339500D03*
D15*
X155765500Y-51244500D03*
X153733500Y-51244500D03*
D16*
X158750000Y-93118000D03*
X156210000Y-93118000D03*
X153670000Y-93118000D03*
X151130000Y-93118000D03*
X148590000Y-93118000D03*
X146050000Y-93118000D03*
X143510000Y-93118000D03*
X140970000Y-93118000D03*
X138430000Y-93118000D03*
X135890000Y-93118000D03*
X133350000Y-93118000D03*
X130810000Y-93118000D03*
X128270000Y-93118000D03*
X125730000Y-93118000D03*
X123190000Y-93118000D03*
X120650000Y-93118000D03*
X118110000Y-93118000D03*
X115570000Y-93118000D03*
X113030000Y-93118000D03*
X110490000Y-93118000D03*
X107950000Y-93118000D03*
X105410000Y-93118000D03*
%LPD*%
M02*
