G04 #@! TF.GenerationSoftware,KiCad,Pcbnew,(6.0.1-0)*
G04 #@! TF.CreationDate,2022-02-07T03:36:48-05:00*
G04 #@! TF.ProjectId,GW4302,47573433-3032-42e6-9b69-6361645f7063,0.1*
G04 #@! TF.SameCoordinates,Original*
G04 #@! TF.FileFunction,Legend,Bot*
G04 #@! TF.FilePolarity,Positive*
%FSLAX46Y46*%
G04 Gerber Fmt 4.6, Leading zero omitted, Abs format (unit mm)*
G04 Created by KiCad (PCBNEW (6.0.1-0)) date 2022-02-07 03:36:48*
%MOMM*%
%LPD*%
G01*
G04 APERTURE LIST*
G04 Aperture macros list*
%AMRoundRect*
0 Rectangle with rounded corners*
0 $1 Rounding radius*
0 $2 $3 $4 $5 $6 $7 $8 $9 X,Y pos of 4 corners*
0 Add a 4 corners polygon primitive as box body*
4,1,4,$2,$3,$4,$5,$6,$7,$8,$9,$2,$3,0*
0 Add four circle primitives for the rounded corners*
1,1,$1+$1,$2,$3*
1,1,$1+$1,$4,$5*
1,1,$1+$1,$6,$7*
1,1,$1+$1,$8,$9*
0 Add four rect primitives between the rounded corners*
20,1,$1+$1,$2,$3,$4,$5,0*
20,1,$1+$1,$4,$5,$6,$7,0*
20,1,$1+$1,$6,$7,$8,$9,0*
20,1,$1+$1,$8,$9,$2,$3,0*%
G04 Aperture macros list end*
%ADD10C,0.200000*%
%ADD11C,0.203200*%
%ADD12C,0.300000*%
%ADD13C,0.225000*%
%ADD14C,0.000000*%
%ADD15C,2.150000*%
%ADD16O,1.170000X2.000000*%
%ADD17C,1.400000*%
%ADD18C,1.448000*%
%ADD19C,1.140600*%
%ADD20C,2.524900*%
%ADD21RoundRect,0.456000X0.381000X3.289000X-0.381000X3.289000X-0.381000X-3.289000X0.381000X-3.289000X0*%
G04 APERTURE END LIST*
D10*
X137619619Y-88301285D02*
X137232571Y-88301285D01*
X137474476Y-87962619D02*
X137474476Y-88833476D01*
X137426095Y-88930238D01*
X137329333Y-88978619D01*
X137232571Y-88978619D01*
X136893904Y-88978619D02*
X136893904Y-87962619D01*
X136458476Y-88978619D02*
X136458476Y-88446428D01*
X136506857Y-88349666D01*
X136603619Y-88301285D01*
X136748761Y-88301285D01*
X136845523Y-88349666D01*
X136893904Y-88398047D01*
X135974666Y-88978619D02*
X135974666Y-88301285D01*
X135974666Y-87962619D02*
X136023047Y-88011000D01*
X135974666Y-88059380D01*
X135926285Y-88011000D01*
X135974666Y-87962619D01*
X135974666Y-88059380D01*
X135539238Y-88930238D02*
X135442476Y-88978619D01*
X135248952Y-88978619D01*
X135152190Y-88930238D01*
X135103809Y-88833476D01*
X135103809Y-88785095D01*
X135152190Y-88688333D01*
X135248952Y-88639952D01*
X135394095Y-88639952D01*
X135490857Y-88591571D01*
X135539238Y-88494809D01*
X135539238Y-88446428D01*
X135490857Y-88349666D01*
X135394095Y-88301285D01*
X135248952Y-88301285D01*
X135152190Y-88349666D01*
X133942666Y-88930238D02*
X133845904Y-88978619D01*
X133652380Y-88978619D01*
X133555619Y-88930238D01*
X133507238Y-88833476D01*
X133507238Y-88785095D01*
X133555619Y-88688333D01*
X133652380Y-88639952D01*
X133797523Y-88639952D01*
X133894285Y-88591571D01*
X133942666Y-88494809D01*
X133942666Y-88446428D01*
X133894285Y-88349666D01*
X133797523Y-88301285D01*
X133652380Y-88301285D01*
X133555619Y-88349666D01*
X133071809Y-88978619D02*
X133071809Y-88301285D01*
X133071809Y-87962619D02*
X133120190Y-88011000D01*
X133071809Y-88059380D01*
X133023428Y-88011000D01*
X133071809Y-87962619D01*
X133071809Y-88059380D01*
X132152571Y-88978619D02*
X132152571Y-87962619D01*
X132152571Y-88930238D02*
X132249333Y-88978619D01*
X132442857Y-88978619D01*
X132539619Y-88930238D01*
X132588000Y-88881857D01*
X132636380Y-88785095D01*
X132636380Y-88494809D01*
X132588000Y-88398047D01*
X132539619Y-88349666D01*
X132442857Y-88301285D01*
X132249333Y-88301285D01*
X132152571Y-88349666D01*
X131281714Y-88930238D02*
X131378476Y-88978619D01*
X131572000Y-88978619D01*
X131668761Y-88930238D01*
X131717142Y-88833476D01*
X131717142Y-88446428D01*
X131668761Y-88349666D01*
X131572000Y-88301285D01*
X131378476Y-88301285D01*
X131281714Y-88349666D01*
X131233333Y-88446428D01*
X131233333Y-88543190D01*
X131717142Y-88639952D01*
X129588380Y-88978619D02*
X129588380Y-87962619D01*
X129588380Y-88930238D02*
X129685142Y-88978619D01*
X129878666Y-88978619D01*
X129975428Y-88930238D01*
X130023809Y-88881857D01*
X130072190Y-88785095D01*
X130072190Y-88494809D01*
X130023809Y-88398047D01*
X129975428Y-88349666D01*
X129878666Y-88301285D01*
X129685142Y-88301285D01*
X129588380Y-88349666D01*
X128959428Y-88978619D02*
X129056190Y-88930238D01*
X129104571Y-88881857D01*
X129152952Y-88785095D01*
X129152952Y-88494809D01*
X129104571Y-88398047D01*
X129056190Y-88349666D01*
X128959428Y-88301285D01*
X128814285Y-88301285D01*
X128717523Y-88349666D01*
X128669142Y-88398047D01*
X128620761Y-88494809D01*
X128620761Y-88785095D01*
X128669142Y-88881857D01*
X128717523Y-88930238D01*
X128814285Y-88978619D01*
X128959428Y-88978619D01*
X128282095Y-88301285D02*
X128088571Y-88978619D01*
X127895047Y-88494809D01*
X127701523Y-88978619D01*
X127508000Y-88301285D01*
X127120952Y-88301285D02*
X127120952Y-88978619D01*
X127120952Y-88398047D02*
X127072571Y-88349666D01*
X126975809Y-88301285D01*
X126830666Y-88301285D01*
X126733904Y-88349666D01*
X126685523Y-88446428D01*
X126685523Y-88978619D01*
X152880785Y-63282285D02*
X152493738Y-63282285D01*
X152735642Y-63959619D02*
X152735642Y-63088761D01*
X152687261Y-62992000D01*
X152590500Y-62943619D01*
X152493738Y-62943619D01*
X152009928Y-63959619D02*
X152106690Y-63911238D01*
X152155071Y-63862857D01*
X152203452Y-63766095D01*
X152203452Y-63475809D01*
X152155071Y-63379047D01*
X152106690Y-63330666D01*
X152009928Y-63282285D01*
X151864785Y-63282285D01*
X151768023Y-63330666D01*
X151719642Y-63379047D01*
X151671261Y-63475809D01*
X151671261Y-63766095D01*
X151719642Y-63862857D01*
X151768023Y-63911238D01*
X151864785Y-63959619D01*
X152009928Y-63959619D01*
X151235833Y-63959619D02*
X151235833Y-63282285D01*
X151235833Y-63475809D02*
X151187452Y-63379047D01*
X151139071Y-63330666D01*
X151042309Y-63282285D01*
X150945547Y-63282285D01*
X149252214Y-63862857D02*
X149300595Y-63911238D01*
X149445738Y-63959619D01*
X149542500Y-63959619D01*
X149687642Y-63911238D01*
X149784404Y-63814476D01*
X149832785Y-63717714D01*
X149881166Y-63524190D01*
X149881166Y-63379047D01*
X149832785Y-63185523D01*
X149784404Y-63088761D01*
X149687642Y-62992000D01*
X149542500Y-62943619D01*
X149445738Y-62943619D01*
X149300595Y-62992000D01*
X149252214Y-63040380D01*
X148381357Y-62943619D02*
X148574880Y-62943619D01*
X148671642Y-62992000D01*
X148720023Y-63040380D01*
X148816785Y-63185523D01*
X148865166Y-63379047D01*
X148865166Y-63766095D01*
X148816785Y-63862857D01*
X148768404Y-63911238D01*
X148671642Y-63959619D01*
X148478119Y-63959619D01*
X148381357Y-63911238D01*
X148332976Y-63862857D01*
X148284595Y-63766095D01*
X148284595Y-63524190D01*
X148332976Y-63427428D01*
X148381357Y-63379047D01*
X148478119Y-63330666D01*
X148671642Y-63330666D01*
X148768404Y-63379047D01*
X148816785Y-63427428D01*
X148865166Y-63524190D01*
X147413738Y-63282285D02*
X147413738Y-63959619D01*
X147655642Y-62895238D02*
X147897547Y-63620952D01*
X147268595Y-63620952D01*
D11*
X111155238Y-86168895D02*
X110613371Y-86168895D01*
X111155238Y-86981695D01*
X110613371Y-86981695D01*
X110303733Y-86981695D02*
X110303733Y-86168895D01*
X109839276Y-86981695D02*
X110187619Y-86517238D01*
X109839276Y-86168895D02*
X110303733Y-86633352D01*
X109452228Y-86942990D02*
X109452228Y-86981695D01*
X109490933Y-87059104D01*
X109529638Y-87097809D01*
X108058857Y-86207600D02*
X108136266Y-86168895D01*
X108252380Y-86168895D01*
X108368495Y-86207600D01*
X108445904Y-86285009D01*
X108484609Y-86362419D01*
X108523314Y-86517238D01*
X108523314Y-86633352D01*
X108484609Y-86788171D01*
X108445904Y-86865580D01*
X108368495Y-86942990D01*
X108252380Y-86981695D01*
X108174971Y-86981695D01*
X108058857Y-86942990D01*
X108020152Y-86904285D01*
X108020152Y-86633352D01*
X108174971Y-86633352D01*
X107400876Y-86555942D02*
X107671809Y-86555942D01*
X107671809Y-86981695D02*
X107671809Y-86168895D01*
X107284761Y-86168895D01*
D12*
X150880300Y-58423428D02*
X150880300Y-59439428D01*
X151243157Y-57842857D02*
X151606014Y-58931428D01*
X150662585Y-58931428D01*
X150227157Y-57915428D02*
X149283728Y-57915428D01*
X149791728Y-58496000D01*
X149574014Y-58496000D01*
X149428871Y-58568571D01*
X149356300Y-58641142D01*
X149283728Y-58786285D01*
X149283728Y-59149142D01*
X149356300Y-59294285D01*
X149428871Y-59366857D01*
X149574014Y-59439428D01*
X150009442Y-59439428D01*
X150154585Y-59366857D01*
X150227157Y-59294285D01*
X148340300Y-57915428D02*
X148195157Y-57915428D01*
X148050014Y-57988000D01*
X147977442Y-58060571D01*
X147904871Y-58205714D01*
X147832300Y-58496000D01*
X147832300Y-58858857D01*
X147904871Y-59149142D01*
X147977442Y-59294285D01*
X148050014Y-59366857D01*
X148195157Y-59439428D01*
X148340300Y-59439428D01*
X148485442Y-59366857D01*
X148558014Y-59294285D01*
X148630585Y-59149142D01*
X148703157Y-58858857D01*
X148703157Y-58496000D01*
X148630585Y-58205714D01*
X148558014Y-58060571D01*
X148485442Y-57988000D01*
X148340300Y-57915428D01*
X147251728Y-58060571D02*
X147179157Y-57988000D01*
X147034014Y-57915428D01*
X146671157Y-57915428D01*
X146526014Y-57988000D01*
X146453442Y-58060571D01*
X146380871Y-58205714D01*
X146380871Y-58350857D01*
X146453442Y-58568571D01*
X147324300Y-59439428D01*
X146380871Y-59439428D01*
X145800300Y-59004000D02*
X145074585Y-59004000D01*
X145945442Y-59439428D02*
X145437442Y-57915428D01*
X144929442Y-59439428D01*
D13*
X158093833Y-55626000D02*
X158214785Y-55565523D01*
X158396214Y-55565523D01*
X158577642Y-55626000D01*
X158698595Y-55746952D01*
X158759071Y-55867904D01*
X158819547Y-56109809D01*
X158819547Y-56291238D01*
X158759071Y-56533142D01*
X158698595Y-56654095D01*
X158577642Y-56775047D01*
X158396214Y-56835523D01*
X158275261Y-56835523D01*
X158093833Y-56775047D01*
X158033357Y-56714571D01*
X158033357Y-56291238D01*
X158275261Y-56291238D01*
X156944785Y-56835523D02*
X156944785Y-56170285D01*
X157005261Y-56049333D01*
X157126214Y-55988857D01*
X157368119Y-55988857D01*
X157489071Y-56049333D01*
X156944785Y-56775047D02*
X157065738Y-56835523D01*
X157368119Y-56835523D01*
X157489071Y-56775047D01*
X157549547Y-56654095D01*
X157549547Y-56533142D01*
X157489071Y-56412190D01*
X157368119Y-56351714D01*
X157065738Y-56351714D01*
X156944785Y-56291238D01*
X156340023Y-56835523D02*
X156340023Y-55988857D01*
X156340023Y-56230761D02*
X156279547Y-56109809D01*
X156219071Y-56049333D01*
X156098119Y-55988857D01*
X155977166Y-55988857D01*
X155553833Y-56835523D02*
X155553833Y-55988857D01*
X155553833Y-56230761D02*
X155493357Y-56109809D01*
X155432880Y-56049333D01*
X155311928Y-55988857D01*
X155190976Y-55988857D01*
X154283833Y-56775047D02*
X154404785Y-56835523D01*
X154646690Y-56835523D01*
X154767642Y-56775047D01*
X154828119Y-56654095D01*
X154828119Y-56170285D01*
X154767642Y-56049333D01*
X154646690Y-55988857D01*
X154404785Y-55988857D01*
X154283833Y-56049333D01*
X154223357Y-56170285D01*
X154223357Y-56291238D01*
X154828119Y-56412190D01*
X153860500Y-55988857D02*
X153376690Y-55988857D01*
X153679071Y-55565523D02*
X153679071Y-56654095D01*
X153618595Y-56775047D01*
X153497642Y-56835523D01*
X153376690Y-56835523D01*
X153134785Y-55988857D02*
X152650976Y-55988857D01*
X152953357Y-55565523D02*
X152953357Y-56654095D01*
X152892880Y-56775047D01*
X152771928Y-56835523D01*
X152650976Y-56835523D01*
X152167166Y-55565523D02*
X152167166Y-55626000D01*
X152227642Y-55746952D01*
X152288119Y-55807428D01*
X151683357Y-56775047D02*
X151562404Y-56835523D01*
X151320500Y-56835523D01*
X151199547Y-56775047D01*
X151139071Y-56654095D01*
X151139071Y-56593619D01*
X151199547Y-56472666D01*
X151320500Y-56412190D01*
X151501928Y-56412190D01*
X151622880Y-56351714D01*
X151683357Y-56230761D01*
X151683357Y-56170285D01*
X151622880Y-56049333D01*
X151501928Y-55988857D01*
X151320500Y-55988857D01*
X151199547Y-56049333D01*
X149748119Y-55565523D02*
X149445738Y-56835523D01*
X149203833Y-55928380D01*
X148961928Y-56835523D01*
X148659547Y-55565523D01*
X147994309Y-56835523D02*
X148115261Y-56775047D01*
X148175738Y-56714571D01*
X148236214Y-56593619D01*
X148236214Y-56230761D01*
X148175738Y-56109809D01*
X148115261Y-56049333D01*
X147994309Y-55988857D01*
X147812880Y-55988857D01*
X147691928Y-56049333D01*
X147631452Y-56109809D01*
X147570976Y-56230761D01*
X147570976Y-56593619D01*
X147631452Y-56714571D01*
X147691928Y-56775047D01*
X147812880Y-56835523D01*
X147994309Y-56835523D01*
X147026690Y-56835523D02*
X147026690Y-55988857D01*
X147026690Y-56230761D02*
X146966214Y-56109809D01*
X146905738Y-56049333D01*
X146784785Y-55988857D01*
X146663833Y-55988857D01*
X146240500Y-56835523D02*
X146240500Y-55565523D01*
X146119547Y-56351714D02*
X145756690Y-56835523D01*
X145756690Y-55988857D02*
X146240500Y-56472666D01*
X145272880Y-56775047D02*
X145151928Y-56835523D01*
X144910023Y-56835523D01*
X144789071Y-56775047D01*
X144728595Y-56654095D01*
X144728595Y-56593619D01*
X144789071Y-56472666D01*
X144910023Y-56412190D01*
X145091452Y-56412190D01*
X145212404Y-56351714D01*
X145272880Y-56230761D01*
X145272880Y-56170285D01*
X145212404Y-56049333D01*
X145091452Y-55988857D01*
X144910023Y-55988857D01*
X144789071Y-56049333D01*
X144184309Y-56835523D02*
X144184309Y-55565523D01*
X143640023Y-56835523D02*
X143640023Y-56170285D01*
X143700500Y-56049333D01*
X143821452Y-55988857D01*
X144002880Y-55988857D01*
X144123833Y-56049333D01*
X144184309Y-56109809D01*
X142853833Y-56835523D02*
X142974785Y-56775047D01*
X143035261Y-56714571D01*
X143095738Y-56593619D01*
X143095738Y-56230761D01*
X143035261Y-56109809D01*
X142974785Y-56049333D01*
X142853833Y-55988857D01*
X142672404Y-55988857D01*
X142551452Y-56049333D01*
X142490976Y-56109809D01*
X142430500Y-56230761D01*
X142430500Y-56593619D01*
X142490976Y-56714571D01*
X142551452Y-56775047D01*
X142672404Y-56835523D01*
X142853833Y-56835523D01*
X141886214Y-55988857D02*
X141886214Y-57258857D01*
X141886214Y-56049333D02*
X141765261Y-55988857D01*
X141523357Y-55988857D01*
X141402404Y-56049333D01*
X141341928Y-56109809D01*
X141281452Y-56230761D01*
X141281452Y-56593619D01*
X141341928Y-56714571D01*
X141402404Y-56775047D01*
X141523357Y-56835523D01*
X141765261Y-56835523D01*
X141886214Y-56775047D01*
D12*
X154400014Y-57988000D02*
X154545157Y-57915428D01*
X154762871Y-57915428D01*
X154980585Y-57988000D01*
X155125728Y-58133142D01*
X155198300Y-58278285D01*
X155270871Y-58568571D01*
X155270871Y-58786285D01*
X155198300Y-59076571D01*
X155125728Y-59221714D01*
X154980585Y-59366857D01*
X154762871Y-59439428D01*
X154617728Y-59439428D01*
X154400014Y-59366857D01*
X154327442Y-59294285D01*
X154327442Y-58786285D01*
X154617728Y-58786285D01*
X153819442Y-57915428D02*
X153456585Y-59439428D01*
X153166300Y-58350857D01*
X152876014Y-59439428D01*
X152513157Y-57915428D01*
X155384500Y-62030428D02*
X156255357Y-62030428D01*
X155819928Y-62030428D02*
X155819928Y-60506428D01*
X155965071Y-60724142D01*
X156110214Y-60869285D01*
X156255357Y-60941857D01*
X154078214Y-60506428D02*
X154368500Y-60506428D01*
X154513642Y-60579000D01*
X154586214Y-60651571D01*
X154731357Y-60869285D01*
X154803928Y-61159571D01*
X154803928Y-61740142D01*
X154731357Y-61885285D01*
X154658785Y-61957857D01*
X154513642Y-62030428D01*
X154223357Y-62030428D01*
X154078214Y-61957857D01*
X154005642Y-61885285D01*
X153933071Y-61740142D01*
X153933071Y-61377285D01*
X154005642Y-61232142D01*
X154078214Y-61159571D01*
X154223357Y-61087000D01*
X154513642Y-61087000D01*
X154658785Y-61159571D01*
X154731357Y-61232142D01*
X154803928Y-61377285D01*
X152118785Y-62030428D02*
X152118785Y-60506428D01*
X151610785Y-61595000D01*
X151102785Y-60506428D01*
X151102785Y-62030428D01*
X149869071Y-61232142D02*
X149651357Y-61304714D01*
X149578785Y-61377285D01*
X149506214Y-61522428D01*
X149506214Y-61740142D01*
X149578785Y-61885285D01*
X149651357Y-61957857D01*
X149796500Y-62030428D01*
X150377071Y-62030428D01*
X150377071Y-60506428D01*
X149869071Y-60506428D01*
X149723928Y-60579000D01*
X149651357Y-60651571D01*
X149578785Y-60796714D01*
X149578785Y-60941857D01*
X149651357Y-61087000D01*
X149723928Y-61159571D01*
X149869071Y-61232142D01*
X150377071Y-61232142D01*
X146821071Y-62030428D02*
X147329071Y-61304714D01*
X147691928Y-62030428D02*
X147691928Y-60506428D01*
X147111357Y-60506428D01*
X146966214Y-60579000D01*
X146893642Y-60651571D01*
X146821071Y-60796714D01*
X146821071Y-61014428D01*
X146893642Y-61159571D01*
X146966214Y-61232142D01*
X147111357Y-61304714D01*
X147691928Y-61304714D01*
X146167928Y-61232142D02*
X145659928Y-61232142D01*
X145442214Y-62030428D02*
X146167928Y-62030428D01*
X146167928Y-60506428D01*
X145442214Y-60506428D01*
X144789071Y-60506428D02*
X144789071Y-61740142D01*
X144716500Y-61885285D01*
X144643928Y-61957857D01*
X144498785Y-62030428D01*
X144208500Y-62030428D01*
X144063357Y-61957857D01*
X143990785Y-61885285D01*
X143918214Y-61740142D01*
X143918214Y-60506428D01*
%LPC*%
D14*
G36*
X161290000Y-97282000D02*
G01*
X160782000Y-97790000D01*
X103378000Y-97790000D01*
X102870000Y-97282000D01*
X102870000Y-89916000D01*
X161290000Y-89916000D01*
X161290000Y-97282000D01*
G37*
D15*
X105410000Y-88011000D03*
X158750000Y-88011000D03*
D16*
X137950000Y-38950000D03*
D17*
X136775000Y-41600000D03*
X131925000Y-41600000D03*
D16*
X130750000Y-38950000D03*
D18*
X156527500Y-38735000D03*
X158750000Y-82931000D03*
X105092500Y-41275000D03*
D19*
X153733500Y-51244500D03*
D20*
X152209500Y-49339500D03*
D19*
X154749500Y-43624500D03*
X155765500Y-51244500D03*
D20*
X152209500Y-43624500D03*
X157289500Y-49339500D03*
X157289500Y-43624500D03*
D21*
X158750000Y-93118000D03*
X156210000Y-93118000D03*
X153670000Y-93118000D03*
X151130000Y-93118000D03*
X148590000Y-93118000D03*
X146050000Y-93118000D03*
X143510000Y-93118000D03*
X140970000Y-93118000D03*
X138430000Y-93118000D03*
X135890000Y-93118000D03*
X133350000Y-93118000D03*
X130810000Y-93118000D03*
X128270000Y-93118000D03*
X125730000Y-93118000D03*
X123190000Y-93118000D03*
X120650000Y-93118000D03*
X118110000Y-93118000D03*
X115570000Y-93118000D03*
X113030000Y-93118000D03*
X110490000Y-93118000D03*
X107950000Y-93118000D03*
X105410000Y-93118000D03*
M02*
